<?xml version="1.0" encoding="utf-8" standalone="no"?>
<!DOCTYPE svg PUBLIC "-//W3C//DTD SVG 1.1//EN"
  "http://www.w3.org/Graphics/SVG/1.1/DTD/svg11.dtd">
<!-- Created with matplotlib (https://matplotlib.org/) -->
<svg height="123.380832pt" version="1.1" viewBox="0 0 260.982886 123.380832" width="260.982886pt" xmlns="http://www.w3.org/2000/svg" xmlns:xlink="http://www.w3.org/1999/xlink">
 <defs>
  <style type="text/css">
*{stroke-linecap:butt;stroke-linejoin:round;}
  </style>
 </defs>
 <g id="figure_1">
  <g id="patch_1">
   <path d="M 0 123.380832 
L 260.982886 123.380832 
L 260.982886 0 
L 0 0 
z
" style="fill:#ffffff;"/>
  </g>
  <g id="axes_1">
   <g id="patch_2">
    <path clip-path="url(#p50cd82307d)" d="M 26.510938 29.973393 
L 32.731819 29.973393 
L 32.731819 23.752512 
L 26.510938 23.752512 
z
" style="fill:#738fc1;stroke:#738fc1;stroke-linejoin:miter;"/>
   </g>
   <g id="patch_3">
    <path clip-path="url(#p50cd82307d)" d="M 26.510938 37.438451 
L 32.731819 37.438451 
L 32.731819 31.21757 
L 26.510938 31.21757 
z
" style="fill:#738fc1;stroke:#738fc1;stroke-linejoin:miter;"/>
   </g>
   <g id="patch_4">
    <path clip-path="url(#p50cd82307d)" d="M 26.510938 44.903509 
L 32.731819 44.903509 
L 32.731819 38.682627 
L 26.510938 38.682627 
z
" style="fill:#738fc1;stroke:#738fc1;stroke-linejoin:miter;"/>
   </g>
   <g id="patch_5">
    <path clip-path="url(#p50cd82307d)" d="M 26.510938 52.368566 
L 32.731819 52.368566 
L 32.731819 46.147685 
L 26.510938 46.147685 
z
" style="fill:#738fc1;stroke:#738fc1;stroke-linejoin:miter;"/>
   </g>
   <g id="patch_6">
    <path clip-path="url(#p50cd82307d)" d="M 26.510938 59.833624 
L 32.731819 59.833624 
L 32.731819 53.612743 
L 26.510938 53.612743 
z
" style="fill:#738fc1;stroke:#738fc1;stroke-linejoin:miter;"/>
   </g>
   <g id="patch_7">
    <path clip-path="url(#p50cd82307d)" d="M 26.510938 67.298681 
L 32.731819 67.298681 
L 32.731819 61.0778 
L 26.510938 61.0778 
z
" style="fill:#738fc1;stroke:#738fc1;stroke-linejoin:miter;"/>
   </g>
   <g id="patch_8">
    <path clip-path="url(#p50cd82307d)" d="M 26.510938 74.763739 
L 32.731819 74.763739 
L 32.731819 68.542858 
L 26.510938 68.542858 
z
" style="fill:#738fc1;stroke:#738fc1;stroke-linejoin:miter;"/>
   </g>
   <g id="patch_9">
    <path clip-path="url(#p50cd82307d)" d="M 26.510938 82.228797 
L 32.731819 82.228797 
L 32.731819 76.007915 
L 26.510938 76.007915 
z
" style="fill:#738fc1;stroke:#738fc1;stroke-linejoin:miter;"/>
   </g>
   <g id="patch_10">
    <path clip-path="url(#p50cd82307d)" d="M 26.510938 89.693854 
L 32.731819 89.693854 
L 32.731819 83.472973 
L 26.510938 83.472973 
z
" style="fill:#738fc1;stroke:#738fc1;stroke-linejoin:miter;"/>
   </g>
   <g id="patch_11">
    <path clip-path="url(#p50cd82307d)" d="M 26.510938 97.158912 
L 32.731819 97.158912 
L 32.731819 90.938031 
L 26.510938 90.938031 
z
" style="fill:#738fc1;stroke:#738fc1;stroke-linejoin:miter;"/>
   </g>
   <g id="patch_12">
    <path clip-path="url(#p50cd82307d)" d="M 33.975995 29.973393 
L 40.196876 29.973393 
L 40.196876 23.752512 
L 33.975995 23.752512 
z
" style="fill:#7aa974;stroke:#7aa974;stroke-linejoin:miter;"/>
   </g>
   <g id="patch_13">
    <path clip-path="url(#p50cd82307d)" d="M 33.975995 37.438451 
L 40.196876 37.438451 
L 40.196876 31.21757 
L 33.975995 31.21757 
z
" style="fill:#7aa974;stroke:#7aa974;stroke-linejoin:miter;"/>
   </g>
   <g id="patch_14">
    <path clip-path="url(#p50cd82307d)" d="M 33.975995 44.903509 
L 40.196876 44.903509 
L 40.196876 38.682627 
L 33.975995 38.682627 
z
" style="fill:#7aa974;stroke:#7aa974;stroke-linejoin:miter;"/>
   </g>
   <g id="patch_15">
    <path clip-path="url(#p50cd82307d)" d="M 33.975995 52.368566 
L 40.196876 52.368566 
L 40.196876 46.147685 
L 33.975995 46.147685 
z
" style="fill:#7aa974;stroke:#7aa974;stroke-linejoin:miter;"/>
   </g>
   <g id="patch_16">
    <path clip-path="url(#p50cd82307d)" d="M 33.975995 59.833624 
L 40.196876 59.833624 
L 40.196876 53.612743 
L 33.975995 53.612743 
z
" style="fill:#7aa974;stroke:#7aa974;stroke-linejoin:miter;"/>
   </g>
   <g id="patch_17">
    <path clip-path="url(#p50cd82307d)" d="M 33.975995 67.298681 
L 40.196876 67.298681 
L 40.196876 61.0778 
L 33.975995 61.0778 
z
" style="fill:#7aa974;stroke:#7aa974;stroke-linejoin:miter;"/>
   </g>
   <g id="patch_18">
    <path clip-path="url(#p50cd82307d)" d="M 33.975995 74.763739 
L 40.196876 74.763739 
L 40.196876 68.542858 
L 33.975995 68.542858 
z
" style="fill:#7aa974;stroke:#7aa974;stroke-linejoin:miter;"/>
   </g>
   <g id="patch_19">
    <path clip-path="url(#p50cd82307d)" d="M 33.975995 82.228797 
L 40.196876 82.228797 
L 40.196876 76.007915 
L 33.975995 76.007915 
z
" style="fill:#7aa974;stroke:#7aa974;stroke-linejoin:miter;"/>
   </g>
   <g id="patch_20">
    <path clip-path="url(#p50cd82307d)" d="M 33.975995 89.693854 
L 40.196876 89.693854 
L 40.196876 83.472973 
L 33.975995 83.472973 
z
" style="fill:#7aa974;stroke:#7aa974;stroke-linejoin:miter;"/>
   </g>
   <g id="patch_21">
    <path clip-path="url(#p50cd82307d)" d="M 33.975995 97.158912 
L 40.196876 97.158912 
L 40.196876 90.938031 
L 33.975995 90.938031 
z
" style="fill:#7aa974;stroke:#7aa974;stroke-linejoin:miter;"/>
   </g>
   <g id="patch_22">
    <path clip-path="url(#p50cd82307d)" d="M 41.441053 29.973393 
L 47.661934 29.973393 
L 47.661934 23.752512 
L 41.441053 23.752512 
z
" style="fill:#7aa974;stroke:#7aa974;stroke-linejoin:miter;"/>
   </g>
   <g id="patch_23">
    <path clip-path="url(#p50cd82307d)" d="M 41.441053 37.438451 
L 47.661934 37.438451 
L 47.661934 31.21757 
L 41.441053 31.21757 
z
" style="fill:#7aa974;stroke:#7aa974;stroke-linejoin:miter;"/>
   </g>
   <g id="patch_24">
    <path clip-path="url(#p50cd82307d)" d="M 41.441053 44.903509 
L 47.661934 44.903509 
L 47.661934 38.682627 
L 41.441053 38.682627 
z
" style="fill:#7aa974;stroke:#7aa974;stroke-linejoin:miter;"/>
   </g>
   <g id="patch_25">
    <path clip-path="url(#p50cd82307d)" d="M 41.441053 52.368566 
L 47.661934 52.368566 
L 47.661934 46.147685 
L 41.441053 46.147685 
z
" style="fill:#7aa974;stroke:#7aa974;stroke-linejoin:miter;"/>
   </g>
   <g id="patch_26">
    <path clip-path="url(#p50cd82307d)" d="M 41.441053 59.833624 
L 47.661934 59.833624 
L 47.661934 53.612743 
L 41.441053 53.612743 
z
" style="fill:#7aa974;stroke:#7aa974;stroke-linejoin:miter;"/>
   </g>
   <g id="patch_27">
    <path clip-path="url(#p50cd82307d)" d="M 41.441053 67.298681 
L 47.661934 67.298681 
L 47.661934 61.0778 
L 41.441053 61.0778 
z
" style="fill:#7aa974;stroke:#7aa974;stroke-linejoin:miter;"/>
   </g>
   <g id="patch_28">
    <path clip-path="url(#p50cd82307d)" d="M 41.441053 74.763739 
L 47.661934 74.763739 
L 47.661934 68.542858 
L 41.441053 68.542858 
z
" style="fill:#7aa974;stroke:#7aa974;stroke-linejoin:miter;"/>
   </g>
   <g id="patch_29">
    <path clip-path="url(#p50cd82307d)" d="M 41.441053 82.228797 
L 47.661934 82.228797 
L 47.661934 76.007915 
L 41.441053 76.007915 
z
" style="fill:#7aa974;stroke:#7aa974;stroke-linejoin:miter;"/>
   </g>
   <g id="patch_30">
    <path clip-path="url(#p50cd82307d)" d="M 41.441053 89.693854 
L 47.661934 89.693854 
L 47.661934 83.472973 
L 41.441053 83.472973 
z
" style="fill:#7aa974;stroke:#7aa974;stroke-linejoin:miter;"/>
   </g>
   <g id="patch_31">
    <path clip-path="url(#p50cd82307d)" d="M 41.441053 97.158912 
L 47.661934 97.158912 
L 47.661934 90.938031 
L 41.441053 90.938031 
z
" style="fill:#7aa974;stroke:#7aa974;stroke-linejoin:miter;"/>
   </g>
   <g id="patch_32">
    <path clip-path="url(#p50cd82307d)" d="M 48.90611 29.973393 
L 55.126992 29.973393 
L 55.126992 23.752512 
L 48.90611 23.752512 
z
" style="fill:#7aa974;stroke:#7aa974;stroke-linejoin:miter;"/>
   </g>
   <g id="patch_33">
    <path clip-path="url(#p50cd82307d)" d="M 48.90611 37.438451 
L 55.126992 37.438451 
L 55.126992 31.21757 
L 48.90611 31.21757 
z
" style="fill:#7aa974;stroke:#7aa974;stroke-linejoin:miter;"/>
   </g>
   <g id="patch_34">
    <path clip-path="url(#p50cd82307d)" d="M 48.90611 44.903509 
L 55.126992 44.903509 
L 55.126992 38.682627 
L 48.90611 38.682627 
z
" style="fill:#7aa974;stroke:#7aa974;stroke-linejoin:miter;"/>
   </g>
   <g id="patch_35">
    <path clip-path="url(#p50cd82307d)" d="M 48.90611 52.368566 
L 55.126992 52.368566 
L 55.126992 46.147685 
L 48.90611 46.147685 
z
" style="fill:#7aa974;stroke:#7aa974;stroke-linejoin:miter;"/>
   </g>
   <g id="patch_36">
    <path clip-path="url(#p50cd82307d)" d="M 48.90611 59.833624 
L 55.126992 59.833624 
L 55.126992 53.612743 
L 48.90611 53.612743 
z
" style="fill:#7aa974;stroke:#7aa974;stroke-linejoin:miter;"/>
   </g>
   <g id="patch_37">
    <path clip-path="url(#p50cd82307d)" d="M 48.90611 67.298681 
L 55.126992 67.298681 
L 55.126992 61.0778 
L 48.90611 61.0778 
z
" style="fill:#7aa974;stroke:#7aa974;stroke-linejoin:miter;"/>
   </g>
   <g id="patch_38">
    <path clip-path="url(#p50cd82307d)" d="M 48.90611 74.763739 
L 55.126992 74.763739 
L 55.126992 68.542858 
L 48.90611 68.542858 
z
" style="fill:#7aa974;stroke:#7aa974;stroke-linejoin:miter;"/>
   </g>
   <g id="patch_39">
    <path clip-path="url(#p50cd82307d)" d="M 48.90611 82.228797 
L 55.126992 82.228797 
L 55.126992 76.007915 
L 48.90611 76.007915 
z
" style="fill:#7aa974;stroke:#7aa974;stroke-linejoin:miter;"/>
   </g>
   <g id="patch_40">
    <path clip-path="url(#p50cd82307d)" d="M 48.90611 89.693854 
L 55.126992 89.693854 
L 55.126992 83.472973 
L 48.90611 83.472973 
z
" style="fill:#7aa974;stroke:#7aa974;stroke-linejoin:miter;"/>
   </g>
   <g id="patch_41">
    <path clip-path="url(#p50cd82307d)" d="M 48.90611 97.158912 
L 55.126992 97.158912 
L 55.126992 90.938031 
L 48.90611 90.938031 
z
" style="fill:#7aa974;stroke:#7aa974;stroke-linejoin:miter;"/>
   </g>
   <g id="patch_42">
    <path clip-path="url(#p50cd82307d)" d="M 56.371168 29.973393 
L 62.592049 29.973393 
L 62.592049 23.752512 
L 56.371168 23.752512 
z
" style="fill:#7aa974;stroke:#7aa974;stroke-linejoin:miter;"/>
   </g>
   <g id="patch_43">
    <path clip-path="url(#p50cd82307d)" d="M 56.371168 37.438451 
L 62.592049 37.438451 
L 62.592049 31.21757 
L 56.371168 31.21757 
z
" style="fill:#7aa974;stroke:#7aa974;stroke-linejoin:miter;"/>
   </g>
   <g id="patch_44">
    <path clip-path="url(#p50cd82307d)" d="M 56.371168 44.903509 
L 62.592049 44.903509 
L 62.592049 38.682627 
L 56.371168 38.682627 
z
" style="fill:#7aa974;stroke:#7aa974;stroke-linejoin:miter;"/>
   </g>
   <g id="patch_45">
    <path clip-path="url(#p50cd82307d)" d="M 56.371168 52.368566 
L 62.592049 52.368566 
L 62.592049 46.147685 
L 56.371168 46.147685 
z
" style="fill:#7aa974;stroke:#7aa974;stroke-linejoin:miter;"/>
   </g>
   <g id="patch_46">
    <path clip-path="url(#p50cd82307d)" d="M 56.371168 59.833624 
L 62.592049 59.833624 
L 62.592049 53.612743 
L 56.371168 53.612743 
z
" style="fill:#7aa974;stroke:#7aa974;stroke-linejoin:miter;"/>
   </g>
   <g id="patch_47">
    <path clip-path="url(#p50cd82307d)" d="M 56.371168 67.298681 
L 62.592049 67.298681 
L 62.592049 61.0778 
L 56.371168 61.0778 
z
" style="fill:#7aa974;stroke:#7aa974;stroke-linejoin:miter;"/>
   </g>
   <g id="patch_48">
    <path clip-path="url(#p50cd82307d)" d="M 56.371168 74.763739 
L 62.592049 74.763739 
L 62.592049 68.542858 
L 56.371168 68.542858 
z
" style="fill:#7aa974;stroke:#7aa974;stroke-linejoin:miter;"/>
   </g>
   <g id="patch_49">
    <path clip-path="url(#p50cd82307d)" d="M 56.371168 82.228797 
L 62.592049 82.228797 
L 62.592049 76.007915 
L 56.371168 76.007915 
z
" style="fill:#7aa974;stroke:#7aa974;stroke-linejoin:miter;"/>
   </g>
   <g id="patch_50">
    <path clip-path="url(#p50cd82307d)" d="M 56.371168 89.693854 
L 62.592049 89.693854 
L 62.592049 83.472973 
L 56.371168 83.472973 
z
" style="fill:#7aa974;stroke:#7aa974;stroke-linejoin:miter;"/>
   </g>
   <g id="patch_51">
    <path clip-path="url(#p50cd82307d)" d="M 56.371168 97.158912 
L 62.592049 97.158912 
L 62.592049 90.938031 
L 56.371168 90.938031 
z
" style="fill:#7aa974;stroke:#7aa974;stroke-linejoin:miter;"/>
   </g>
   <g id="patch_52">
    <path clip-path="url(#p50cd82307d)" d="M 63.836226 29.973393 
L 70.057107 29.973393 
L 70.057107 23.752512 
L 63.836226 23.752512 
z
" style="fill:#7aa974;stroke:#7aa974;stroke-linejoin:miter;"/>
   </g>
   <g id="patch_53">
    <path clip-path="url(#p50cd82307d)" d="M 63.836226 37.438451 
L 70.057107 37.438451 
L 70.057107 31.21757 
L 63.836226 31.21757 
z
" style="fill:#7aa974;stroke:#7aa974;stroke-linejoin:miter;"/>
   </g>
   <g id="patch_54">
    <path clip-path="url(#p50cd82307d)" d="M 63.836226 44.903509 
L 70.057107 44.903509 
L 70.057107 38.682627 
L 63.836226 38.682627 
z
" style="fill:#7aa974;stroke:#7aa974;stroke-linejoin:miter;"/>
   </g>
   <g id="patch_55">
    <path clip-path="url(#p50cd82307d)" d="M 63.836226 52.368566 
L 70.057107 52.368566 
L 70.057107 46.147685 
L 63.836226 46.147685 
z
" style="fill:#7aa974;stroke:#7aa974;stroke-linejoin:miter;"/>
   </g>
   <g id="patch_56">
    <path clip-path="url(#p50cd82307d)" d="M 63.836226 59.833624 
L 70.057107 59.833624 
L 70.057107 53.612743 
L 63.836226 53.612743 
z
" style="fill:#7aa974;stroke:#7aa974;stroke-linejoin:miter;"/>
   </g>
   <g id="patch_57">
    <path clip-path="url(#p50cd82307d)" d="M 63.836226 67.298681 
L 70.057107 67.298681 
L 70.057107 61.0778 
L 63.836226 61.0778 
z
" style="fill:#7aa974;stroke:#7aa974;stroke-linejoin:miter;"/>
   </g>
   <g id="patch_58">
    <path clip-path="url(#p50cd82307d)" d="M 63.836226 74.763739 
L 70.057107 74.763739 
L 70.057107 68.542858 
L 63.836226 68.542858 
z
" style="fill:#7aa974;stroke:#7aa974;stroke-linejoin:miter;"/>
   </g>
   <g id="patch_59">
    <path clip-path="url(#p50cd82307d)" d="M 63.836226 82.228797 
L 70.057107 82.228797 
L 70.057107 76.007915 
L 63.836226 76.007915 
z
" style="fill:#7aa974;stroke:#7aa974;stroke-linejoin:miter;"/>
   </g>
   <g id="patch_60">
    <path clip-path="url(#p50cd82307d)" d="M 63.836226 89.693854 
L 70.057107 89.693854 
L 70.057107 83.472973 
L 63.836226 83.472973 
z
" style="fill:#7aa974;stroke:#7aa974;stroke-linejoin:miter;"/>
   </g>
   <g id="patch_61">
    <path clip-path="url(#p50cd82307d)" d="M 63.836226 97.158912 
L 70.057107 97.158912 
L 70.057107 90.938031 
L 63.836226 90.938031 
z
" style="fill:#7aa974;stroke:#7aa974;stroke-linejoin:miter;"/>
   </g>
   <g id="patch_62">
    <path clip-path="url(#p50cd82307d)" d="M 71.301283 29.973393 
L 77.522165 29.973393 
L 77.522165 23.752512 
L 71.301283 23.752512 
z
" style="fill:#7aa974;stroke:#7aa974;stroke-linejoin:miter;"/>
   </g>
   <g id="patch_63">
    <path clip-path="url(#p50cd82307d)" d="M 71.301283 37.438451 
L 77.522165 37.438451 
L 77.522165 31.21757 
L 71.301283 31.21757 
z
" style="fill:#7aa974;stroke:#7aa974;stroke-linejoin:miter;"/>
   </g>
   <g id="patch_64">
    <path clip-path="url(#p50cd82307d)" d="M 71.301283 44.903509 
L 77.522165 44.903509 
L 77.522165 38.682627 
L 71.301283 38.682627 
z
" style="fill:#7aa974;stroke:#7aa974;stroke-linejoin:miter;"/>
   </g>
   <g id="patch_65">
    <path clip-path="url(#p50cd82307d)" d="M 71.301283 52.368566 
L 77.522165 52.368566 
L 77.522165 46.147685 
L 71.301283 46.147685 
z
" style="fill:#7aa974;stroke:#7aa974;stroke-linejoin:miter;"/>
   </g>
   <g id="patch_66">
    <path clip-path="url(#p50cd82307d)" d="M 71.301283 59.833624 
L 77.522165 59.833624 
L 77.522165 53.612743 
L 71.301283 53.612743 
z
" style="fill:#7aa974;stroke:#7aa974;stroke-linejoin:miter;"/>
   </g>
   <g id="patch_67">
    <path clip-path="url(#p50cd82307d)" d="M 71.301283 67.298681 
L 77.522165 67.298681 
L 77.522165 61.0778 
L 71.301283 61.0778 
z
" style="fill:#7aa974;stroke:#7aa974;stroke-linejoin:miter;"/>
   </g>
   <g id="patch_68">
    <path clip-path="url(#p50cd82307d)" d="M 71.301283 74.763739 
L 77.522165 74.763739 
L 77.522165 68.542858 
L 71.301283 68.542858 
z
" style="fill:#7aa974;stroke:#7aa974;stroke-linejoin:miter;"/>
   </g>
   <g id="patch_69">
    <path clip-path="url(#p50cd82307d)" d="M 71.301283 82.228797 
L 77.522165 82.228797 
L 77.522165 76.007915 
L 71.301283 76.007915 
z
" style="fill:#7aa974;stroke:#7aa974;stroke-linejoin:miter;"/>
   </g>
   <g id="patch_70">
    <path clip-path="url(#p50cd82307d)" d="M 71.301283 89.693854 
L 77.522165 89.693854 
L 77.522165 83.472973 
L 71.301283 83.472973 
z
" style="fill:#7aa974;stroke:#7aa974;stroke-linejoin:miter;"/>
   </g>
   <g id="patch_71">
    <path clip-path="url(#p50cd82307d)" d="M 71.301283 97.158912 
L 77.522165 97.158912 
L 77.522165 90.938031 
L 71.301283 90.938031 
z
" style="fill:#7aa974;stroke:#7aa974;stroke-linejoin:miter;"/>
   </g>
   <g id="patch_72">
    <path clip-path="url(#p50cd82307d)" d="M 78.766341 29.973393 
L 84.987222 29.973393 
L 84.987222 23.752512 
L 78.766341 23.752512 
z
" style="fill:#7aa974;stroke:#7aa974;stroke-linejoin:miter;"/>
   </g>
   <g id="patch_73">
    <path clip-path="url(#p50cd82307d)" d="M 78.766341 37.438451 
L 84.987222 37.438451 
L 84.987222 31.21757 
L 78.766341 31.21757 
z
" style="fill:#7aa974;stroke:#7aa974;stroke-linejoin:miter;"/>
   </g>
   <g id="patch_74">
    <path clip-path="url(#p50cd82307d)" d="M 78.766341 44.903509 
L 84.987222 44.903509 
L 84.987222 38.682627 
L 78.766341 38.682627 
z
" style="fill:#7aa974;stroke:#7aa974;stroke-linejoin:miter;"/>
   </g>
   <g id="patch_75">
    <path clip-path="url(#p50cd82307d)" d="M 78.766341 52.368566 
L 84.987222 52.368566 
L 84.987222 46.147685 
L 78.766341 46.147685 
z
" style="fill:#7aa974;stroke:#7aa974;stroke-linejoin:miter;"/>
   </g>
   <g id="patch_76">
    <path clip-path="url(#p50cd82307d)" d="M 78.766341 59.833624 
L 84.987222 59.833624 
L 84.987222 53.612743 
L 78.766341 53.612743 
z
" style="fill:#7aa974;stroke:#7aa974;stroke-linejoin:miter;"/>
   </g>
   <g id="patch_77">
    <path clip-path="url(#p50cd82307d)" d="M 78.766341 67.298681 
L 84.987222 67.298681 
L 84.987222 61.0778 
L 78.766341 61.0778 
z
" style="fill:#7aa974;stroke:#7aa974;stroke-linejoin:miter;"/>
   </g>
   <g id="patch_78">
    <path clip-path="url(#p50cd82307d)" d="M 78.766341 74.763739 
L 84.987222 74.763739 
L 84.987222 68.542858 
L 78.766341 68.542858 
z
" style="fill:#7aa974;stroke:#7aa974;stroke-linejoin:miter;"/>
   </g>
   <g id="patch_79">
    <path clip-path="url(#p50cd82307d)" d="M 78.766341 82.228797 
L 84.987222 82.228797 
L 84.987222 76.007915 
L 78.766341 76.007915 
z
" style="fill:#7aa974;stroke:#7aa974;stroke-linejoin:miter;"/>
   </g>
   <g id="patch_80">
    <path clip-path="url(#p50cd82307d)" d="M 78.766341 89.693854 
L 84.987222 89.693854 
L 84.987222 83.472973 
L 78.766341 83.472973 
z
" style="fill:#7aa974;stroke:#7aa974;stroke-linejoin:miter;"/>
   </g>
   <g id="patch_81">
    <path clip-path="url(#p50cd82307d)" d="M 78.766341 97.158912 
L 84.987222 97.158912 
L 84.987222 90.938031 
L 78.766341 90.938031 
z
" style="fill:#7aa974;stroke:#7aa974;stroke-linejoin:miter;"/>
   </g>
   <g id="patch_82">
    <path clip-path="url(#p50cd82307d)" d="M 86.231399 29.973393 
L 92.45228 29.973393 
L 92.45228 23.752512 
L 86.231399 23.752512 
z
" style="fill:#7aa974;stroke:#7aa974;stroke-linejoin:miter;"/>
   </g>
   <g id="patch_83">
    <path clip-path="url(#p50cd82307d)" d="M 86.231399 37.438451 
L 92.45228 37.438451 
L 92.45228 31.21757 
L 86.231399 31.21757 
z
" style="fill:#7aa974;stroke:#7aa974;stroke-linejoin:miter;"/>
   </g>
   <g id="patch_84">
    <path clip-path="url(#p50cd82307d)" d="M 86.231399 44.903509 
L 92.45228 44.903509 
L 92.45228 38.682627 
L 86.231399 38.682627 
z
" style="fill:#7aa974;stroke:#7aa974;stroke-linejoin:miter;"/>
   </g>
   <g id="patch_85">
    <path clip-path="url(#p50cd82307d)" d="M 86.231399 52.368566 
L 92.45228 52.368566 
L 92.45228 46.147685 
L 86.231399 46.147685 
z
" style="fill:#7aa974;stroke:#7aa974;stroke-linejoin:miter;"/>
   </g>
   <g id="patch_86">
    <path clip-path="url(#p50cd82307d)" d="M 86.231399 59.833624 
L 92.45228 59.833624 
L 92.45228 53.612743 
L 86.231399 53.612743 
z
" style="fill:#7aa974;stroke:#7aa974;stroke-linejoin:miter;"/>
   </g>
   <g id="patch_87">
    <path clip-path="url(#p50cd82307d)" d="M 86.231399 67.298681 
L 92.45228 67.298681 
L 92.45228 61.0778 
L 86.231399 61.0778 
z
" style="fill:#7aa974;stroke:#7aa974;stroke-linejoin:miter;"/>
   </g>
   <g id="patch_88">
    <path clip-path="url(#p50cd82307d)" d="M 86.231399 74.763739 
L 92.45228 74.763739 
L 92.45228 68.542858 
L 86.231399 68.542858 
z
" style="fill:#7aa974;stroke:#7aa974;stroke-linejoin:miter;"/>
   </g>
   <g id="patch_89">
    <path clip-path="url(#p50cd82307d)" d="M 86.231399 82.228797 
L 92.45228 82.228797 
L 92.45228 76.007915 
L 86.231399 76.007915 
z
" style="fill:#7aa974;stroke:#7aa974;stroke-linejoin:miter;"/>
   </g>
   <g id="patch_90">
    <path clip-path="url(#p50cd82307d)" d="M 86.231399 89.693854 
L 92.45228 89.693854 
L 92.45228 83.472973 
L 86.231399 83.472973 
z
" style="fill:#7aa974;stroke:#7aa974;stroke-linejoin:miter;"/>
   </g>
   <g id="patch_91">
    <path clip-path="url(#p50cd82307d)" d="M 86.231399 97.158912 
L 92.45228 97.158912 
L 92.45228 90.938031 
L 86.231399 90.938031 
z
" style="fill:#7aa974;stroke:#7aa974;stroke-linejoin:miter;"/>
   </g>
   <g id="patch_92">
    <path clip-path="url(#p50cd82307d)" d="M 93.696456 29.973393 
L 99.917338 29.973393 
L 99.917338 23.752512 
L 93.696456 23.752512 
z
" style="fill:#7aa974;stroke:#7aa974;stroke-linejoin:miter;"/>
   </g>
   <g id="patch_93">
    <path clip-path="url(#p50cd82307d)" d="M 93.696456 37.438451 
L 99.917338 37.438451 
L 99.917338 31.21757 
L 93.696456 31.21757 
z
" style="fill:#7aa974;stroke:#7aa974;stroke-linejoin:miter;"/>
   </g>
   <g id="patch_94">
    <path clip-path="url(#p50cd82307d)" d="M 93.696456 44.903509 
L 99.917338 44.903509 
L 99.917338 38.682627 
L 93.696456 38.682627 
z
" style="fill:#7aa974;stroke:#7aa974;stroke-linejoin:miter;"/>
   </g>
   <g id="patch_95">
    <path clip-path="url(#p50cd82307d)" d="M 93.696456 52.368566 
L 99.917338 52.368566 
L 99.917338 46.147685 
L 93.696456 46.147685 
z
" style="fill:#7aa974;stroke:#7aa974;stroke-linejoin:miter;"/>
   </g>
   <g id="patch_96">
    <path clip-path="url(#p50cd82307d)" d="M 93.696456 59.833624 
L 99.917338 59.833624 
L 99.917338 53.612743 
L 93.696456 53.612743 
z
" style="fill:#7aa974;stroke:#7aa974;stroke-linejoin:miter;"/>
   </g>
   <g id="patch_97">
    <path clip-path="url(#p50cd82307d)" d="M 93.696456 67.298681 
L 99.917338 67.298681 
L 99.917338 61.0778 
L 93.696456 61.0778 
z
" style="fill:#7aa974;stroke:#7aa974;stroke-linejoin:miter;"/>
   </g>
   <g id="patch_98">
    <path clip-path="url(#p50cd82307d)" d="M 93.696456 74.763739 
L 99.917338 74.763739 
L 99.917338 68.542858 
L 93.696456 68.542858 
z
" style="fill:#7aa974;stroke:#7aa974;stroke-linejoin:miter;"/>
   </g>
   <g id="patch_99">
    <path clip-path="url(#p50cd82307d)" d="M 93.696456 82.228797 
L 99.917338 82.228797 
L 99.917338 76.007915 
L 93.696456 76.007915 
z
" style="fill:#7aa974;stroke:#7aa974;stroke-linejoin:miter;"/>
   </g>
   <g id="patch_100">
    <path clip-path="url(#p50cd82307d)" d="M 93.696456 89.693854 
L 99.917338 89.693854 
L 99.917338 83.472973 
L 93.696456 83.472973 
z
" style="fill:#7aa974;stroke:#7aa974;stroke-linejoin:miter;"/>
   </g>
   <g id="patch_101">
    <path clip-path="url(#p50cd82307d)" d="M 93.696456 97.158912 
L 99.917338 97.158912 
L 99.917338 90.938031 
L 93.696456 90.938031 
z
" style="fill:#7aa974;stroke:#7aa974;stroke-linejoin:miter;"/>
   </g>
   <g id="patch_102">
    <path clip-path="url(#p50cd82307d)" d="M 101.161514 29.973393 
L 107.382395 29.973393 
L 107.382395 23.752512 
L 101.161514 23.752512 
z
" style="fill:#7aa974;stroke:#7aa974;stroke-linejoin:miter;"/>
   </g>
   <g id="patch_103">
    <path clip-path="url(#p50cd82307d)" d="M 101.161514 37.438451 
L 107.382395 37.438451 
L 107.382395 31.21757 
L 101.161514 31.21757 
z
" style="fill:#7aa974;stroke:#7aa974;stroke-linejoin:miter;"/>
   </g>
   <g id="patch_104">
    <path clip-path="url(#p50cd82307d)" d="M 101.161514 44.903509 
L 107.382395 44.903509 
L 107.382395 38.682627 
L 101.161514 38.682627 
z
" style="fill:#7aa974;stroke:#7aa974;stroke-linejoin:miter;"/>
   </g>
   <g id="patch_105">
    <path clip-path="url(#p50cd82307d)" d="M 101.161514 52.368566 
L 107.382395 52.368566 
L 107.382395 46.147685 
L 101.161514 46.147685 
z
" style="fill:#7aa974;stroke:#7aa974;stroke-linejoin:miter;"/>
   </g>
   <g id="patch_106">
    <path clip-path="url(#p50cd82307d)" d="M 101.161514 59.833624 
L 107.382395 59.833624 
L 107.382395 53.612743 
L 101.161514 53.612743 
z
" style="fill:#7aa974;stroke:#7aa974;stroke-linejoin:miter;"/>
   </g>
   <g id="patch_107">
    <path clip-path="url(#p50cd82307d)" d="M 101.161514 67.298681 
L 107.382395 67.298681 
L 107.382395 61.0778 
L 101.161514 61.0778 
z
" style="fill:#7aa974;stroke:#7aa974;stroke-linejoin:miter;"/>
   </g>
   <g id="patch_108">
    <path clip-path="url(#p50cd82307d)" d="M 101.161514 74.763739 
L 107.382395 74.763739 
L 107.382395 68.542858 
L 101.161514 68.542858 
z
" style="fill:#7aa974;stroke:#7aa974;stroke-linejoin:miter;"/>
   </g>
   <g id="patch_109">
    <path clip-path="url(#p50cd82307d)" d="M 101.161514 82.228797 
L 107.382395 82.228797 
L 107.382395 76.007915 
L 101.161514 76.007915 
z
" style="fill:#7aa974;stroke:#7aa974;stroke-linejoin:miter;"/>
   </g>
   <g id="patch_110">
    <path clip-path="url(#p50cd82307d)" d="M 101.161514 89.693854 
L 107.382395 89.693854 
L 107.382395 83.472973 
L 101.161514 83.472973 
z
" style="fill:#7aa974;stroke:#7aa974;stroke-linejoin:miter;"/>
   </g>
   <g id="patch_111">
    <path clip-path="url(#p50cd82307d)" d="M 101.161514 97.158912 
L 107.382395 97.158912 
L 107.382395 90.938031 
L 101.161514 90.938031 
z
" style="fill:#7aa974;stroke:#7aa974;stroke-linejoin:miter;"/>
   </g>
   <g id="patch_112">
    <path clip-path="url(#p50cd82307d)" d="M 108.626571 29.973393 
L 114.847453 29.973393 
L 114.847453 23.752512 
L 108.626571 23.752512 
z
" style="fill:#7aa974;stroke:#7aa974;stroke-linejoin:miter;"/>
   </g>
   <g id="patch_113">
    <path clip-path="url(#p50cd82307d)" d="M 108.626571 37.438451 
L 114.847453 37.438451 
L 114.847453 31.21757 
L 108.626571 31.21757 
z
" style="fill:#7aa974;stroke:#7aa974;stroke-linejoin:miter;"/>
   </g>
   <g id="patch_114">
    <path clip-path="url(#p50cd82307d)" d="M 108.626571 44.903509 
L 114.847453 44.903509 
L 114.847453 38.682627 
L 108.626571 38.682627 
z
" style="fill:#7aa974;stroke:#7aa974;stroke-linejoin:miter;"/>
   </g>
   <g id="patch_115">
    <path clip-path="url(#p50cd82307d)" d="M 108.626571 52.368566 
L 114.847453 52.368566 
L 114.847453 46.147685 
L 108.626571 46.147685 
z
" style="fill:#7aa974;stroke:#7aa974;stroke-linejoin:miter;"/>
   </g>
   <g id="patch_116">
    <path clip-path="url(#p50cd82307d)" d="M 108.626571 59.833624 
L 114.847453 59.833624 
L 114.847453 53.612743 
L 108.626571 53.612743 
z
" style="fill:#7aa974;stroke:#7aa974;stroke-linejoin:miter;"/>
   </g>
   <g id="patch_117">
    <path clip-path="url(#p50cd82307d)" d="M 108.626571 67.298681 
L 114.847453 67.298681 
L 114.847453 61.0778 
L 108.626571 61.0778 
z
" style="fill:#7aa974;stroke:#7aa974;stroke-linejoin:miter;"/>
   </g>
   <g id="patch_118">
    <path clip-path="url(#p50cd82307d)" d="M 108.626571 74.763739 
L 114.847453 74.763739 
L 114.847453 68.542858 
L 108.626571 68.542858 
z
" style="fill:#7aa974;stroke:#7aa974;stroke-linejoin:miter;"/>
   </g>
   <g id="patch_119">
    <path clip-path="url(#p50cd82307d)" d="M 108.626571 82.228797 
L 114.847453 82.228797 
L 114.847453 76.007915 
L 108.626571 76.007915 
z
" style="fill:#7aa974;stroke:#7aa974;stroke-linejoin:miter;"/>
   </g>
   <g id="patch_120">
    <path clip-path="url(#p50cd82307d)" d="M 108.626571 89.693854 
L 114.847453 89.693854 
L 114.847453 83.472973 
L 108.626571 83.472973 
z
" style="fill:#7aa974;stroke:#7aa974;stroke-linejoin:miter;"/>
   </g>
   <g id="patch_121">
    <path clip-path="url(#p50cd82307d)" d="M 108.626571 97.158912 
L 114.847453 97.158912 
L 114.847453 90.938031 
L 108.626571 90.938031 
z
" style="fill:#7aa974;stroke:#7aa974;stroke-linejoin:miter;"/>
   </g>
   <g id="patch_122">
    <path clip-path="url(#p50cd82307d)" d="M 116.091629 29.973393 
L 122.31251 29.973393 
L 122.31251 23.752512 
L 116.091629 23.752512 
z
" style="fill:#7aa974;stroke:#7aa974;stroke-linejoin:miter;"/>
   </g>
   <g id="patch_123">
    <path clip-path="url(#p50cd82307d)" d="M 116.091629 37.438451 
L 122.31251 37.438451 
L 122.31251 31.21757 
L 116.091629 31.21757 
z
" style="fill:#7aa974;stroke:#7aa974;stroke-linejoin:miter;"/>
   </g>
   <g id="patch_124">
    <path clip-path="url(#p50cd82307d)" d="M 116.091629 44.903509 
L 122.31251 44.903509 
L 122.31251 38.682627 
L 116.091629 38.682627 
z
" style="fill:#7aa974;stroke:#7aa974;stroke-linejoin:miter;"/>
   </g>
   <g id="patch_125">
    <path clip-path="url(#p50cd82307d)" d="M 116.091629 52.368566 
L 122.31251 52.368566 
L 122.31251 46.147685 
L 116.091629 46.147685 
z
" style="fill:#7aa974;stroke:#7aa974;stroke-linejoin:miter;"/>
   </g>
   <g id="patch_126">
    <path clip-path="url(#p50cd82307d)" d="M 116.091629 59.833624 
L 122.31251 59.833624 
L 122.31251 53.612743 
L 116.091629 53.612743 
z
" style="fill:#7aa974;stroke:#7aa974;stroke-linejoin:miter;"/>
   </g>
   <g id="patch_127">
    <path clip-path="url(#p50cd82307d)" d="M 116.091629 67.298681 
L 122.31251 67.298681 
L 122.31251 61.0778 
L 116.091629 61.0778 
z
" style="fill:#7aa974;stroke:#7aa974;stroke-linejoin:miter;"/>
   </g>
   <g id="patch_128">
    <path clip-path="url(#p50cd82307d)" d="M 116.091629 74.763739 
L 122.31251 74.763739 
L 122.31251 68.542858 
L 116.091629 68.542858 
z
" style="fill:#7aa974;stroke:#7aa974;stroke-linejoin:miter;"/>
   </g>
   <g id="patch_129">
    <path clip-path="url(#p50cd82307d)" d="M 116.091629 82.228797 
L 122.31251 82.228797 
L 122.31251 76.007915 
L 116.091629 76.007915 
z
" style="fill:#7aa974;stroke:#7aa974;stroke-linejoin:miter;"/>
   </g>
   <g id="patch_130">
    <path clip-path="url(#p50cd82307d)" d="M 116.091629 89.693854 
L 122.31251 89.693854 
L 122.31251 83.472973 
L 116.091629 83.472973 
z
" style="fill:#7aa974;stroke:#7aa974;stroke-linejoin:miter;"/>
   </g>
   <g id="patch_131">
    <path clip-path="url(#p50cd82307d)" d="M 116.091629 97.158912 
L 122.31251 97.158912 
L 122.31251 90.938031 
L 116.091629 90.938031 
z
" style="fill:#7aa974;stroke:#7aa974;stroke-linejoin:miter;"/>
   </g>
   <g id="patch_132">
    <path clip-path="url(#p50cd82307d)" d="M 123.556687 29.973393 
L 129.777568 29.973393 
L 129.777568 23.752512 
L 123.556687 23.752512 
z
" style="fill:#7aa974;stroke:#7aa974;stroke-linejoin:miter;"/>
   </g>
   <g id="patch_133">
    <path clip-path="url(#p50cd82307d)" d="M 123.556687 37.438451 
L 129.777568 37.438451 
L 129.777568 31.21757 
L 123.556687 31.21757 
z
" style="fill:#7aa974;stroke:#7aa974;stroke-linejoin:miter;"/>
   </g>
   <g id="patch_134">
    <path clip-path="url(#p50cd82307d)" d="M 123.556687 44.903509 
L 129.777568 44.903509 
L 129.777568 38.682627 
L 123.556687 38.682627 
z
" style="fill:#7aa974;stroke:#7aa974;stroke-linejoin:miter;"/>
   </g>
   <g id="patch_135">
    <path clip-path="url(#p50cd82307d)" d="M 123.556687 52.368566 
L 129.777568 52.368566 
L 129.777568 46.147685 
L 123.556687 46.147685 
z
" style="fill:#7aa974;stroke:#7aa974;stroke-linejoin:miter;"/>
   </g>
   <g id="patch_136">
    <path clip-path="url(#p50cd82307d)" d="M 123.556687 59.833624 
L 129.777568 59.833624 
L 129.777568 53.612743 
L 123.556687 53.612743 
z
" style="fill:#7aa974;stroke:#7aa974;stroke-linejoin:miter;"/>
   </g>
   <g id="patch_137">
    <path clip-path="url(#p50cd82307d)" d="M 123.556687 67.298681 
L 129.777568 67.298681 
L 129.777568 61.0778 
L 123.556687 61.0778 
z
" style="fill:#7aa974;stroke:#7aa974;stroke-linejoin:miter;"/>
   </g>
   <g id="patch_138">
    <path clip-path="url(#p50cd82307d)" d="M 123.556687 74.763739 
L 129.777568 74.763739 
L 129.777568 68.542858 
L 123.556687 68.542858 
z
" style="fill:#7aa974;stroke:#7aa974;stroke-linejoin:miter;"/>
   </g>
   <g id="patch_139">
    <path clip-path="url(#p50cd82307d)" d="M 123.556687 82.228797 
L 129.777568 82.228797 
L 129.777568 76.007915 
L 123.556687 76.007915 
z
" style="fill:#7aa974;stroke:#7aa974;stroke-linejoin:miter;"/>
   </g>
   <g id="patch_140">
    <path clip-path="url(#p50cd82307d)" d="M 123.556687 89.693854 
L 129.777568 89.693854 
L 129.777568 83.472973 
L 123.556687 83.472973 
z
" style="fill:#7aa974;stroke:#7aa974;stroke-linejoin:miter;"/>
   </g>
   <g id="patch_141">
    <path clip-path="url(#p50cd82307d)" d="M 123.556687 97.158912 
L 129.777568 97.158912 
L 129.777568 90.938031 
L 123.556687 90.938031 
z
" style="fill:#7aa974;stroke:#7aa974;stroke-linejoin:miter;"/>
   </g>
   <g id="patch_142">
    <path clip-path="url(#p50cd82307d)" d="M 131.021744 29.973393 
L 137.242626 29.973393 
L 137.242626 23.752512 
L 131.021744 23.752512 
z
" style="fill:#7aa974;stroke:#7aa974;stroke-linejoin:miter;"/>
   </g>
   <g id="patch_143">
    <path clip-path="url(#p50cd82307d)" d="M 131.021744 37.438451 
L 137.242626 37.438451 
L 137.242626 31.21757 
L 131.021744 31.21757 
z
" style="fill:#7aa974;stroke:#7aa974;stroke-linejoin:miter;"/>
   </g>
   <g id="patch_144">
    <path clip-path="url(#p50cd82307d)" d="M 131.021744 44.903509 
L 137.242626 44.903509 
L 137.242626 38.682627 
L 131.021744 38.682627 
z
" style="fill:#7aa974;stroke:#7aa974;stroke-linejoin:miter;"/>
   </g>
   <g id="patch_145">
    <path clip-path="url(#p50cd82307d)" d="M 131.021744 52.368566 
L 137.242626 52.368566 
L 137.242626 46.147685 
L 131.021744 46.147685 
z
" style="fill:#7aa974;stroke:#7aa974;stroke-linejoin:miter;"/>
   </g>
   <g id="patch_146">
    <path clip-path="url(#p50cd82307d)" d="M 131.021744 59.833624 
L 137.242626 59.833624 
L 137.242626 53.612743 
L 131.021744 53.612743 
z
" style="fill:#7aa974;stroke:#7aa974;stroke-linejoin:miter;"/>
   </g>
   <g id="patch_147">
    <path clip-path="url(#p50cd82307d)" d="M 131.021744 67.298681 
L 137.242626 67.298681 
L 137.242626 61.0778 
L 131.021744 61.0778 
z
" style="fill:#7aa974;stroke:#7aa974;stroke-linejoin:miter;"/>
   </g>
   <g id="patch_148">
    <path clip-path="url(#p50cd82307d)" d="M 131.021744 74.763739 
L 137.242626 74.763739 
L 137.242626 68.542858 
L 131.021744 68.542858 
z
" style="fill:#7aa974;stroke:#7aa974;stroke-linejoin:miter;"/>
   </g>
   <g id="patch_149">
    <path clip-path="url(#p50cd82307d)" d="M 131.021744 82.228797 
L 137.242626 82.228797 
L 137.242626 76.007915 
L 131.021744 76.007915 
z
" style="fill:#7aa974;stroke:#7aa974;stroke-linejoin:miter;"/>
   </g>
   <g id="patch_150">
    <path clip-path="url(#p50cd82307d)" d="M 131.021744 89.693854 
L 137.242626 89.693854 
L 137.242626 83.472973 
L 131.021744 83.472973 
z
" style="fill:#7aa974;stroke:#7aa974;stroke-linejoin:miter;"/>
   </g>
   <g id="patch_151">
    <path clip-path="url(#p50cd82307d)" d="M 131.021744 97.158912 
L 137.242626 97.158912 
L 137.242626 90.938031 
L 131.021744 90.938031 
z
" style="fill:#7aa974;stroke:#7aa974;stroke-linejoin:miter;"/>
   </g>
   <g id="patch_152">
    <path clip-path="url(#p50cd82307d)" d="M 138.486802 29.973393 
L 144.707683 29.973393 
L 144.707683 23.752512 
L 138.486802 23.752512 
z
" style="fill:#7aa974;stroke:#7aa974;stroke-linejoin:miter;"/>
   </g>
   <g id="patch_153">
    <path clip-path="url(#p50cd82307d)" d="M 138.486802 37.438451 
L 144.707683 37.438451 
L 144.707683 31.21757 
L 138.486802 31.21757 
z
" style="fill:#7aa974;stroke:#7aa974;stroke-linejoin:miter;"/>
   </g>
   <g id="patch_154">
    <path clip-path="url(#p50cd82307d)" d="M 138.486802 44.903509 
L 144.707683 44.903509 
L 144.707683 38.682627 
L 138.486802 38.682627 
z
" style="fill:#7aa974;stroke:#7aa974;stroke-linejoin:miter;"/>
   </g>
   <g id="patch_155">
    <path clip-path="url(#p50cd82307d)" d="M 138.486802 52.368566 
L 144.707683 52.368566 
L 144.707683 46.147685 
L 138.486802 46.147685 
z
" style="fill:#905426;stroke:#905426;stroke-linejoin:miter;"/>
   </g>
   <g id="patch_156">
    <path clip-path="url(#p50cd82307d)" d="M 138.486802 59.833624 
L 144.707683 59.833624 
L 144.707683 53.612743 
L 138.486802 53.612743 
z
" style="fill:#905426;stroke:#905426;stroke-linejoin:miter;"/>
   </g>
   <g id="patch_157">
    <path clip-path="url(#p50cd82307d)" d="M 138.486802 67.298681 
L 144.707683 67.298681 
L 144.707683 61.0778 
L 138.486802 61.0778 
z
" style="fill:#905426;stroke:#905426;stroke-linejoin:miter;"/>
   </g>
   <g id="patch_158">
    <path clip-path="url(#p50cd82307d)" d="M 138.486802 74.763739 
L 144.707683 74.763739 
L 144.707683 68.542858 
L 138.486802 68.542858 
z
" style="fill:#905426;stroke:#905426;stroke-linejoin:miter;"/>
   </g>
   <g id="patch_159">
    <path clip-path="url(#p50cd82307d)" d="M 138.486802 82.228797 
L 144.707683 82.228797 
L 144.707683 76.007915 
L 138.486802 76.007915 
z
" style="fill:#905426;stroke:#905426;stroke-linejoin:miter;"/>
   </g>
   <g id="patch_160">
    <path clip-path="url(#p50cd82307d)" d="M 138.486802 89.693854 
L 144.707683 89.693854 
L 144.707683 83.472973 
L 138.486802 83.472973 
z
" style="fill:#905426;stroke:#905426;stroke-linejoin:miter;"/>
   </g>
   <g id="patch_161">
    <path clip-path="url(#p50cd82307d)" d="M 138.486802 97.158912 
L 144.707683 97.158912 
L 144.707683 90.938031 
L 138.486802 90.938031 
z
" style="fill:#905426;stroke:#905426;stroke-linejoin:miter;"/>
   </g>
   <g id="patch_162">
    <path clip-path="url(#p50cd82307d)" d="M 145.95186 29.973393 
L 152.172741 29.973393 
L 152.172741 23.752512 
L 145.95186 23.752512 
z
" style="fill:#d0d0d0;stroke:#d0d0d0;stroke-linejoin:miter;"/>
   </g>
   <g id="patch_163">
    <path clip-path="url(#p50cd82307d)" d="M 145.95186 37.438451 
L 152.172741 37.438451 
L 152.172741 31.21757 
L 145.95186 31.21757 
z
" style="fill:#d0d0d0;stroke:#d0d0d0;stroke-linejoin:miter;"/>
   </g>
   <g id="patch_164">
    <path clip-path="url(#p50cd82307d)" d="M 145.95186 44.903509 
L 152.172741 44.903509 
L 152.172741 38.682627 
L 145.95186 38.682627 
z
" style="fill:#d0d0d0;stroke:#d0d0d0;stroke-linejoin:miter;"/>
   </g>
   <g id="patch_165">
    <path clip-path="url(#p50cd82307d)" d="M 145.95186 52.368566 
L 152.172741 52.368566 
L 152.172741 46.147685 
L 145.95186 46.147685 
z
" style="fill:#d0d0d0;stroke:#d0d0d0;stroke-linejoin:miter;"/>
   </g>
   <g id="patch_166">
    <path clip-path="url(#p50cd82307d)" d="M 145.95186 59.833624 
L 152.172741 59.833624 
L 152.172741 53.612743 
L 145.95186 53.612743 
z
" style="fill:#d0d0d0;stroke:#d0d0d0;stroke-linejoin:miter;"/>
   </g>
   <g id="patch_167">
    <path clip-path="url(#p50cd82307d)" d="M 145.95186 67.298681 
L 152.172741 67.298681 
L 152.172741 61.0778 
L 145.95186 61.0778 
z
" style="fill:#d0d0d0;stroke:#d0d0d0;stroke-linejoin:miter;"/>
   </g>
   <g id="patch_168">
    <path clip-path="url(#p50cd82307d)" d="M 145.95186 74.763739 
L 152.172741 74.763739 
L 152.172741 68.542858 
L 145.95186 68.542858 
z
" style="fill:#d0d0d0;stroke:#d0d0d0;stroke-linejoin:miter;"/>
   </g>
   <g id="patch_169">
    <path clip-path="url(#p50cd82307d)" d="M 145.95186 82.228797 
L 152.172741 82.228797 
L 152.172741 76.007915 
L 145.95186 76.007915 
z
" style="fill:#d0d0d0;stroke:#d0d0d0;stroke-linejoin:miter;"/>
   </g>
   <g id="patch_170">
    <path clip-path="url(#p50cd82307d)" d="M 145.95186 89.693854 
L 152.172741 89.693854 
L 152.172741 83.472973 
L 145.95186 83.472973 
z
" style="fill:#d0d0d0;stroke:#d0d0d0;stroke-linejoin:miter;"/>
   </g>
   <g id="patch_171">
    <path clip-path="url(#p50cd82307d)" d="M 145.95186 97.158912 
L 152.172741 97.158912 
L 152.172741 90.938031 
L 145.95186 90.938031 
z
" style="fill:#d0d0d0;stroke:#d0d0d0;stroke-linejoin:miter;"/>
   </g>
   <g id="patch_172">
    <path clip-path="url(#p50cd82307d)" d="M 153.416917 29.973393 
L 159.637799 29.973393 
L 159.637799 23.752512 
L 153.416917 23.752512 
z
" style="fill:#d0d0d0;stroke:#d0d0d0;stroke-linejoin:miter;"/>
   </g>
   <g id="patch_173">
    <path clip-path="url(#p50cd82307d)" d="M 153.416917 37.438451 
L 159.637799 37.438451 
L 159.637799 31.21757 
L 153.416917 31.21757 
z
" style="fill:#d0d0d0;stroke:#d0d0d0;stroke-linejoin:miter;"/>
   </g>
   <g id="patch_174">
    <path clip-path="url(#p50cd82307d)" d="M 153.416917 44.903509 
L 159.637799 44.903509 
L 159.637799 38.682627 
L 153.416917 38.682627 
z
" style="fill:#d0d0d0;stroke:#d0d0d0;stroke-linejoin:miter;"/>
   </g>
   <g id="patch_175">
    <path clip-path="url(#p50cd82307d)" d="M 153.416917 52.368566 
L 159.637799 52.368566 
L 159.637799 46.147685 
L 153.416917 46.147685 
z
" style="fill:#d0d0d0;stroke:#d0d0d0;stroke-linejoin:miter;"/>
   </g>
   <g id="patch_176">
    <path clip-path="url(#p50cd82307d)" d="M 153.416917 59.833624 
L 159.637799 59.833624 
L 159.637799 53.612743 
L 153.416917 53.612743 
z
" style="fill:#d0d0d0;stroke:#d0d0d0;stroke-linejoin:miter;"/>
   </g>
   <g id="patch_177">
    <path clip-path="url(#p50cd82307d)" d="M 153.416917 67.298681 
L 159.637799 67.298681 
L 159.637799 61.0778 
L 153.416917 61.0778 
z
" style="fill:#d0d0d0;stroke:#d0d0d0;stroke-linejoin:miter;"/>
   </g>
   <g id="patch_178">
    <path clip-path="url(#p50cd82307d)" d="M 153.416917 74.763739 
L 159.637799 74.763739 
L 159.637799 68.542858 
L 153.416917 68.542858 
z
" style="fill:#d0d0d0;stroke:#d0d0d0;stroke-linejoin:miter;"/>
   </g>
   <g id="patch_179">
    <path clip-path="url(#p50cd82307d)" d="M 153.416917 82.228797 
L 159.637799 82.228797 
L 159.637799 76.007915 
L 153.416917 76.007915 
z
" style="fill:#ab85ac;stroke:#ab85ac;stroke-linejoin:miter;"/>
   </g>
   <g id="patch_180">
    <path clip-path="url(#p50cd82307d)" d="M 153.416917 89.693854 
L 159.637799 89.693854 
L 159.637799 83.472973 
L 153.416917 83.472973 
z
" style="fill:#ab85ac;stroke:#ab85ac;stroke-linejoin:miter;"/>
   </g>
   <g id="patch_181">
    <path clip-path="url(#p50cd82307d)" d="M 153.416917 97.158912 
L 159.637799 97.158912 
L 159.637799 90.938031 
L 153.416917 90.938031 
z
" style="fill:#ab85ac;stroke:#ab85ac;stroke-linejoin:miter;"/>
   </g>
   <g id="patch_182">
    <path clip-path="url(#p50cd82307d)" d="M 160.881975 29.973393 
L 167.102856 29.973393 
L 167.102856 23.752512 
L 160.881975 23.752512 
z
" style="fill:#ab85ac;stroke:#ab85ac;stroke-linejoin:miter;"/>
   </g>
   <g id="patch_183">
    <path clip-path="url(#p50cd82307d)" d="M 160.881975 37.438451 
L 167.102856 37.438451 
L 167.102856 31.21757 
L 160.881975 31.21757 
z
" style="fill:#ab85ac;stroke:#ab85ac;stroke-linejoin:miter;"/>
   </g>
   <g id="patch_184">
    <path clip-path="url(#p50cd82307d)" d="M 160.881975 44.903509 
L 167.102856 44.903509 
L 167.102856 38.682627 
L 160.881975 38.682627 
z
" style="fill:#ab85ac;stroke:#ab85ac;stroke-linejoin:miter;"/>
   </g>
   <g id="patch_185">
    <path clip-path="url(#p50cd82307d)" d="M 160.881975 52.368566 
L 167.102856 52.368566 
L 167.102856 46.147685 
L 160.881975 46.147685 
z
" style="fill:#ab85ac;stroke:#ab85ac;stroke-linejoin:miter;"/>
   </g>
   <g id="patch_186">
    <path clip-path="url(#p50cd82307d)" d="M 160.881975 59.833624 
L 167.102856 59.833624 
L 167.102856 53.612743 
L 160.881975 53.612743 
z
" style="fill:#ab85ac;stroke:#ab85ac;stroke-linejoin:miter;"/>
   </g>
   <g id="patch_187">
    <path clip-path="url(#p50cd82307d)" d="M 160.881975 67.298681 
L 167.102856 67.298681 
L 167.102856 61.0778 
L 160.881975 61.0778 
z
" style="fill:#e8b19d;stroke:#e8b19d;stroke-linejoin:miter;"/>
   </g>
   <g id="patch_188">
    <path clip-path="url(#p50cd82307d)" d="M 160.881975 74.763739 
L 167.102856 74.763739 
L 167.102856 68.542858 
L 160.881975 68.542858 
z
" style="fill:#e8b19d;stroke:#e8b19d;stroke-linejoin:miter;"/>
   </g>
   <g id="patch_189">
    <path clip-path="url(#p50cd82307d)" d="M 160.881975 82.228797 
L 167.102856 82.228797 
L 167.102856 76.007915 
L 160.881975 76.007915 
z
" style="fill:#e8b19d;stroke:#e8b19d;stroke-linejoin:miter;"/>
   </g>
   <g id="patch_190">
    <path clip-path="url(#p50cd82307d)" d="M 160.881975 89.693854 
L 167.102856 89.693854 
L 167.102856 83.472973 
L 160.881975 83.472973 
z
" style="fill:#e8b19d;stroke:#e8b19d;stroke-linejoin:miter;"/>
   </g>
   <g id="patch_191">
    <path clip-path="url(#p50cd82307d)" d="M 160.881975 97.158912 
L 167.102856 97.158912 
L 167.102856 90.938031 
L 160.881975 90.938031 
z
" style="fill:#e8b19d;stroke:#e8b19d;stroke-linejoin:miter;"/>
   </g>
   <g id="text_1">
    <g id="patch_192">
     <path d="M 30.956897 15.06 
L 162.656897 15.06 
L 162.656897 5.22 
L 30.956897 5.22 
z
" style="fill:#ffedc0;stroke:#ffedc0;stroke-linejoin:miter;"/>
    </g>
    <!-- livestock population 2010 $-$ 2018 (by head) -->
    <defs>
     <path d="M 9.625 0 
L 9.625 77.09375 
L 19.234375 77.09375 
L 19.234375 0 
z
" id="LucidaSansUnicode-108"/>
     <path d="M 9.625 0 
L 9.625 53.03125 
L 19.234375 53.03125 
L 19.234375 0 
z
M 9.625 62.640625 
L 9.625 72.265625 
L 19.234375 72.265625 
L 19.234375 62.640625 
z
" id="LucidaSansUnicode-105"/>
     <path d="M 20.609375 0 
L 0.875 53.03125 
L 10.5 53.03125 
L 25.921875 11.765625 
L 42.1875 53.03125 
L 51.171875 53.03125 
L 30.21875 0 
z
" id="LucidaSansUnicode-118"/>
     <path d="M 48.484375 1.703125 
Q 38.8125 -1.21875 31.9375 -1.21875 
Q 20.171875 -1.21875 12.796875 6.5625 
Q 5.421875 14.359375 5.421875 26.765625 
Q 5.421875 38.8125 11.9375 46.53125 
Q 18.453125 54.25 28.609375 54.25 
Q 38.234375 54.25 43.484375 47.390625 
Q 48.734375 40.53125 48.734375 27.9375 
L 48.6875 25 
L 15.234375 25 
Q 17.328125 6.109375 33.734375 6.109375 
Q 39.75 6.109375 48.484375 9.328125 
z
M 15.671875 32.234375 
L 39.0625 32.234375 
Q 39.0625 47.015625 28.03125 47.015625 
Q 16.9375 47.015625 15.671875 32.234375 
z
" id="LucidaSansUnicode-101"/>
     <path d="M 7.671875 1.859375 
L 7.671875 10.6875 
Q 17.09375 6 24.078125 6 
Q 28.21875 6 30.953125 8.25 
Q 33.6875 10.5 33.6875 13.875 
Q 33.6875 18.796875 26.03125 22.015625 
L 20.40625 24.421875 
Q 7.953125 29.59375 7.953125 39.3125 
Q 7.953125 46.234375 12.859375 50.21875 
Q 17.78125 54.203125 26.3125 54.203125 
Q 30.765625 54.203125 37.3125 52.984375 
L 39.3125 52.59375 
L 39.3125 44.578125 
Q 31.25 46.96875 26.46875 46.96875 
Q 22.265625 46.96875 19.75 45.140625 
Q 17.234375 43.3125 17.234375 40.234375 
Q 17.234375 35.890625 24.265625 32.90625 
L 28.90625 30.953125 
Q 36.765625 27.640625 40.03125 23.953125 
Q 43.3125 20.265625 43.3125 14.75 
Q 43.3125 7.765625 37.796875 3.265625 
Q 32.28125 -1.21875 23.6875 -1.21875 
Q 17.09375 -1.21875 7.671875 1.859375 
z
" id="LucidaSansUnicode-115"/>
     <path d="M 33.25 0 
Q 28.8125 -1.21875 25.53125 -1.21875 
Q 18.21875 -1.21875 14.109375 2.96875 
Q 10.015625 7.171875 10.015625 14.65625 
L 10.015625 45.796875 
L 3.375 45.796875 
L 3.375 53.03125 
L 10.015625 53.03125 
L 10.015625 62.640625 
L 19.625 63.578125 
L 19.625 53.03125 
L 33.5 53.03125 
L 33.5 45.796875 
L 19.625 45.796875 
L 19.625 16.40625 
Q 19.625 6 28.609375 6 
Q 30.515625 6 33.25 6.640625 
z
" id="LucidaSansUnicode-116"/>
     <path d="M 30.71875 -1.21875 
Q 19.046875 -1.21875 12.234375 6.25 
Q 5.421875 13.71875 5.421875 26.515625 
Q 5.421875 39.3125 12.234375 46.75 
Q 19.046875 54.203125 30.71875 54.203125 
Q 42.390625 54.203125 49.1875 46.75 
Q 56 39.3125 56 26.515625 
Q 56 13.71875 49.1875 6.25 
Q 42.390625 -1.21875 30.71875 -1.21875 
z
M 30.71875 6 
Q 37.890625 6 41.84375 11.375 
Q 45.796875 16.75 45.796875 26.515625 
Q 45.796875 36.28125 41.84375 41.625 
Q 37.890625 46.96875 30.71875 46.96875 
Q 23.53125 46.96875 19.59375 41.625 
Q 15.671875 36.28125 15.671875 26.515625 
Q 15.671875 16.75 19.59375 11.375 
Q 23.53125 6 30.71875 6 
z
" id="LucidaSansUnicode-111"/>
     <path d="M 46.4375 1.609375 
Q 37.109375 -1.21875 30.328125 -1.21875 
Q 19.578125 -1.21875 12.5 6.734375 
Q 5.421875 14.703125 5.421875 26.8125 
Q 5.421875 39.75 12.421875 46.96875 
Q 19.4375 54.203125 31.984375 54.203125 
Q 38.1875 54.203125 45.84375 52.484375 
L 45.84375 44.4375 
Q 37.703125 46.828125 32.5625 46.828125 
Q 25.140625 46.828125 20.703125 41.28125 
Q 16.265625 35.75 16.265625 26.515625 
Q 16.265625 17.578125 20.84375 12.0625 
Q 25.4375 6.546875 32.859375 6.546875 
Q 39.453125 6.546875 46.4375 9.90625 
z
" id="LucidaSansUnicode-99"/>
     <path d="M 9.625 0 
L 9.625 77.09375 
L 19.234375 77.09375 
L 19.234375 27.296875 
L 41.703125 53.03125 
L 52.046875 53.03125 
L 30.609375 28.265625 
L 56.5 0 
L 44.1875 0 
L 19.234375 27.203125 
L 19.234375 0 
z
" id="LucidaSansUnicode-107"/>
     <path id="LucidaSansUnicode-32"/>
     <path d="M 9.625 -19.28125 
L 9.625 53.03125 
L 19.234375 53.03125 
L 19.234375 43.0625 
Q 25.140625 54.203125 36.96875 54.203125 
Q 46.53125 54.203125 52.015625 47.21875 
Q 57.515625 40.234375 57.515625 28.125 
Q 57.515625 14.9375 51.28125 6.859375 
Q 45.0625 -1.21875 34.90625 -1.21875 
Q 25.484375 -1.21875 19.234375 6 
L 19.234375 -19.28125 
z
M 19.234375 12.640625 
Q 26.65625 6 33.40625 6 
Q 40.046875 6 43.65625 11.546875 
Q 47.265625 17.09375 47.265625 27.15625 
Q 47.265625 45.796875 34.96875 45.796875 
Q 26.90625 45.796875 19.234375 37.0625 
z
" id="LucidaSansUnicode-112"/>
     <path d="M 42.78125 0 
L 42.78125 9.96875 
Q 35.109375 -1.21875 24.171875 -1.21875 
Q 17.234375 -1.21875 13.125 3.140625 
Q 9.03125 7.515625 9.03125 14.9375 
L 9.03125 53.03125 
L 18.65625 53.03125 
L 18.65625 18.0625 
Q 18.65625 12.109375 20.390625 9.59375 
Q 22.125 7.078125 26.171875 7.078125 
Q 34.96875 7.078125 42.78125 18.65625 
L 42.78125 53.03125 
L 52.390625 53.03125 
L 52.390625 0 
z
" id="LucidaSansUnicode-117"/>
     <path d="M 36.96875 6.734375 
Q 28.328125 -1.21875 20.3125 -1.21875 
Q 13.71875 -1.21875 9.375 2.90625 
Q 5.03125 7.03125 5.03125 13.328125 
Q 5.03125 22.015625 12.328125 26.671875 
Q 19.625 31.34375 33.296875 31.34375 
L 35.546875 31.34375 
L 35.546875 37.75 
Q 35.546875 46.96875 25.921875 46.96875 
Q 18.453125 46.96875 9.625 42.28125 
L 9.625 50.25 
Q 19.34375 54.203125 27.9375 54.203125 
Q 36.765625 54.203125 40.96875 50.171875 
Q 45.171875 46.140625 45.171875 37.75 
L 45.171875 13.71875 
Q 45.171875 5.46875 50.25 5.46875 
Q 50.875 5.46875 52.09375 5.671875 
L 52.78125 0.34375 
Q 49.515625 -1.21875 45.5625 -1.21875 
Q 38.8125 -1.21875 36.96875 6.734375 
z
M 35.546875 11.96875 
L 35.546875 25.6875 
L 32.46875 25.78125 
Q 24.46875 25.78125 19.5625 22.796875 
Q 14.65625 19.828125 14.65625 14.890625 
Q 14.65625 11.421875 17.09375 9.03125 
Q 19.53125 6.640625 23.046875 6.640625 
Q 29.046875 6.640625 35.546875 11.96875 
z
" id="LucidaSansUnicode-97"/>
     <path d="M 9.625 0 
L 9.625 53.03125 
L 19.234375 53.03125 
L 19.234375 43.0625 
Q 26.859375 54.203125 37.890625 54.203125 
Q 44.828125 54.203125 48.90625 49.828125 
Q 52.984375 45.453125 52.984375 38.09375 
L 52.984375 0 
L 43.359375 0 
L 43.359375 34.96875 
Q 43.359375 40.875 41.625 43.390625 
Q 39.890625 45.90625 35.890625 45.90625 
Q 27.046875 45.90625 19.234375 34.328125 
L 19.234375 0 
z
" id="LucidaSansUnicode-110"/>
     <path d="M 8.296875 0 
L 8.296875 8.453125 
Q 12.5 18.265625 25.296875 29.828125 
L 30.8125 34.765625 
Q 41.453125 44.390625 41.453125 53.859375 
Q 41.453125 59.90625 37.8125 63.375 
Q 34.1875 66.84375 27.78125 66.84375 
Q 20.3125 66.84375 10.109375 61.03125 
L 10.109375 69.53125 
Q 19.734375 74.078125 29.25 74.078125 
Q 39.40625 74.078125 45.53125 68.609375 
Q 51.65625 63.140625 51.65625 54.109375 
Q 51.65625 47.609375 48.546875 42.578125 
Q 45.453125 37.546875 37.015625 30.375 
L 33.296875 27.203125 
Q 21.734375 17.390625 19.921875 8.453125 
L 51.3125 8.453125 
L 51.3125 0 
z
" id="LucidaSansUnicode-50"/>
     <path d="M 31.640625 -1.8125 
Q 20.265625 -1.8125 13.296875 8.609375 
Q 6.34375 19.046875 6.34375 36.140625 
Q 6.34375 53.21875 13.296875 63.640625 
Q 20.265625 74.078125 31.640625 74.078125 
Q 43.0625 74.078125 50 63.671875 
Q 56.9375 53.265625 56.9375 36.140625 
Q 56.9375 19.046875 50 8.609375 
Q 43.0625 -1.8125 31.640625 -1.8125 
z
M 31.640625 5.421875 
Q 46.734375 5.421875 46.734375 36.140625 
Q 46.734375 66.84375 31.640625 66.84375 
Q 16.609375 66.84375 16.609375 36.140625 
Q 16.609375 5.421875 31.640625 5.421875 
z
" id="LucidaSansUnicode-48"/>
     <path d="M 26.171875 0 
L 26.171875 65.046875 
L 14.75 65.046875 
L 14.75 71.09375 
L 35.84375 72.90625 
L 35.84375 0 
z
" id="LucidaSansUnicode-49"/>
     <path d="M 62.09375 22 
L 6.40625 22 
L 6.40625 28.59375 
L 62.09375 28.59375 
z
" id="STIXGeneral-Regular-8722"/>
     <path d="M 23 39.359375 
Q 17.046875 43.5 14.71875 47.0625 
Q 12.40625 50.640625 12.40625 55.671875 
Q 12.40625 63.875 18.40625 69 
Q 24.421875 74.125 34.078125 74.125 
Q 43.015625 74.125 48.5625 69.78125 
Q 54.109375 65.4375 54.109375 58.5 
Q 54.109375 48 40.625 39.359375 
Q 56.984375 31.34375 56.984375 18.703125 
Q 56.984375 9.671875 50.140625 3.921875 
Q 43.3125 -1.8125 32.5625 -1.8125 
Q 21.828125 -1.8125 15.234375 3.578125 
Q 8.640625 8.984375 8.640625 17.78125 
Q 8.640625 30.765625 23 39.359375 
z
M 35.25 42.390625 
Q 45.359375 49.03125 45.359375 57.171875 
Q 45.359375 61.53125 41.96875 64.1875 
Q 38.578125 66.84375 33.109375 66.84375 
Q 27.78125 66.84375 24.453125 64.234375 
Q 21.140625 61.625 21.140625 57.46875 
Q 21.140625 53.421875 24.140625 50.1875 
Q 27.15625 46.96875 35.25 42.390625 
z
M 28.21875 35.453125 
Q 22.40625 30.953125 20.328125 27.609375 
Q 18.265625 24.265625 18.265625 19.28125 
Q 18.265625 13.09375 22.265625 9.25 
Q 26.265625 5.421875 32.8125 5.421875 
Q 39.109375 5.421875 43.09375 8.6875 
Q 47.078125 11.96875 47.078125 17.1875 
Q 47.078125 21.390625 44.609375 24.296875 
Q 42.140625 27.203125 35.0625 31.390625 
z
" id="LucidaSansUnicode-56"/>
     <path d="M 28.90625 -7.8125 
L 28.90625 -14.453125 
Q 18.359375 -7.28125 12.171875 5.046875 
Q 6 17.390625 6 31.34375 
Q 6 45.265625 12.171875 57.59375 
Q 18.359375 69.921875 28.90625 77.09375 
L 28.90625 70.453125 
Q 21.734375 62.640625 18.671875 53.65625 
Q 15.625 44.671875 15.625 31.34375 
Q 15.625 17.96875 18.671875 8.984375 
Q 21.734375 0 28.90625 -7.8125 
z
" id="LucidaSansUnicode-40"/>
     <path d="M 9.625 -0.59375 
L 9.625 77.09375 
L 19.234375 77.09375 
L 19.234375 43.0625 
Q 25.140625 54.203125 36.96875 54.203125 
Q 46.53125 54.203125 52.015625 47.21875 
Q 57.515625 40.234375 57.515625 28.125 
Q 57.515625 14.9375 51.28125 6.859375 
Q 45.0625 -1.21875 34.90625 -1.21875 
Q 25.484375 -1.21875 19.234375 6 
L 18.0625 -0.59375 
z
M 19.234375 12.640625 
Q 26.65625 6 33.40625 6 
Q 40.046875 6 43.65625 11.546875 
Q 47.265625 17.09375 47.265625 27.15625 
Q 47.265625 45.796875 34.96875 45.796875 
Q 26.90625 45.796875 19.234375 37.0625 
z
" id="LucidaSansUnicode-98"/>
     <path d="M 12.703125 -19.28125 
L 21.296875 0 
L 0.78125 53.03125 
L 11.1875 53.03125 
L 26.375 13.09375 
L 42.578125 53.03125 
L 51.65625 53.03125 
L 22.703125 -19.28125 
z
" id="LucidaSansUnicode-121"/>
     <path d="M 9.625 0 
L 9.625 77.09375 
L 19.234375 77.09375 
L 19.234375 43.0625 
Q 26.859375 54.203125 37.890625 54.203125 
Q 44.828125 54.203125 48.90625 49.828125 
Q 52.984375 45.453125 52.984375 38.09375 
L 52.984375 0 
L 43.359375 0 
L 43.359375 34.96875 
Q 43.359375 40.875 41.625 43.390625 
Q 39.890625 45.90625 35.890625 45.90625 
Q 27.046875 45.90625 19.234375 34.328125 
L 19.234375 0 
z
" id="LucidaSansUnicode-104"/>
     <path d="M 43.65625 0 
L 43.65625 9.96875 
Q 37.796875 -1.21875 25.984375 -1.21875 
Q 16.40625 -1.21875 10.90625 5.765625 
Q 5.421875 12.75 5.421875 24.859375 
Q 5.421875 38.09375 11.640625 46.140625 
Q 17.875 54.203125 28.03125 54.203125 
Q 37.453125 54.203125 43.65625 46.96875 
L 43.65625 77.09375 
L 53.328125 77.09375 
L 53.328125 0 
z
M 43.65625 40.375 
Q 36.1875 46.96875 29.5 46.96875 
Q 22.90625 46.96875 19.28125 41.453125 
Q 15.671875 35.9375 15.671875 25.828125 
Q 15.671875 7.234375 27.984375 7.234375 
Q 35.984375 7.234375 43.65625 15.96875 
z
" id="LucidaSansUnicode-100"/>
     <path d="M 3.609375 70.453125 
L 3.609375 77.09375 
Q 14.15625 69.921875 20.328125 57.59375 
Q 26.515625 45.265625 26.515625 31.34375 
Q 26.515625 17.390625 20.328125 5.046875 
Q 14.15625 -7.28125 3.609375 -14.453125 
L 3.609375 -7.8125 
Q 10.796875 0 13.8125 8.984375 
Q 16.84375 17.96875 16.84375 31.34375 
Q 16.84375 44.671875 13.8125 53.6875 
Q 10.796875 62.703125 3.609375 70.453125 
z
" id="LucidaSansUnicode-41"/>
    </defs>
    <g style="fill:#262626;" transform="translate(32.936897 11.88)scale(0.06 -0.06)">
     <use transform="translate(0 0.90625)" xlink:href="#LucidaSansUnicode-108"/>
     <use transform="translate(28.90625 0.90625)" xlink:href="#LucidaSansUnicode-105"/>
     <use transform="translate(57.8125 0.90625)" xlink:href="#LucidaSansUnicode-118"/>
     <use transform="translate(109.570312 0.90625)" xlink:href="#LucidaSansUnicode-101"/>
     <use transform="translate(165.283203 0.90625)" xlink:href="#LucidaSansUnicode-115"/>
     <use transform="translate(216.259766 0.90625)" xlink:href="#LucidaSansUnicode-116"/>
     <use transform="translate(253.662109 0.90625)" xlink:href="#LucidaSansUnicode-111"/>
     <use transform="translate(315.087891 0.90625)" xlink:href="#LucidaSansUnicode-99"/>
     <use transform="translate(366.308594 0.90625)" xlink:href="#LucidaSansUnicode-107"/>
     <use transform="translate(424.755859 0.90625)" xlink:href="#LucidaSansUnicode-32"/>
     <use transform="translate(456.396484 0.90625)" xlink:href="#LucidaSansUnicode-112"/>
     <use transform="translate(519.335938 0.90625)" xlink:href="#LucidaSansUnicode-111"/>
     <use transform="translate(580.761719 0.90625)" xlink:href="#LucidaSansUnicode-112"/>
     <use transform="translate(643.701172 0.90625)" xlink:href="#LucidaSansUnicode-117"/>
     <use transform="translate(705.761719 0.90625)" xlink:href="#LucidaSansUnicode-108"/>
     <use transform="translate(734.667969 0.90625)" xlink:href="#LucidaSansUnicode-97"/>
     <use transform="translate(789.892578 0.90625)" xlink:href="#LucidaSansUnicode-116"/>
     <use transform="translate(827.294922 0.90625)" xlink:href="#LucidaSansUnicode-105"/>
     <use transform="translate(856.201172 0.90625)" xlink:href="#LucidaSansUnicode-111"/>
     <use transform="translate(917.626953 0.90625)" xlink:href="#LucidaSansUnicode-110"/>
     <use transform="translate(979.6875 0.90625)" xlink:href="#LucidaSansUnicode-32"/>
     <use transform="translate(1011.328125 0.90625)" xlink:href="#LucidaSansUnicode-50"/>
     <use transform="translate(1074.560547 0.90625)" xlink:href="#LucidaSansUnicode-48"/>
     <use transform="translate(1137.792969 0.90625)" xlink:href="#LucidaSansUnicode-49"/>
     <use transform="translate(1201.025391 0.90625)" xlink:href="#LucidaSansUnicode-48"/>
     <use transform="translate(1264.257812 0.90625)" xlink:href="#LucidaSansUnicode-32"/>
     <use transform="translate(1295.898438 0.90625)" xlink:href="#STIXGeneral-Regular-8722"/>
     <use transform="translate(1364.398422 0.90625)" xlink:href="#LucidaSansUnicode-32"/>
     <use transform="translate(1396.039047 0.90625)" xlink:href="#LucidaSansUnicode-50"/>
     <use transform="translate(1459.271469 0.90625)" xlink:href="#LucidaSansUnicode-48"/>
     <use transform="translate(1522.503891 0.90625)" xlink:href="#LucidaSansUnicode-49"/>
     <use transform="translate(1585.736313 0.90625)" xlink:href="#LucidaSansUnicode-56"/>
     <use transform="translate(1648.968735 0.90625)" xlink:href="#LucidaSansUnicode-32"/>
     <use transform="translate(1680.60936 0.90625)" xlink:href="#LucidaSansUnicode-40"/>
     <use transform="translate(1713.128891 0.90625)" xlink:href="#LucidaSansUnicode-98"/>
     <use transform="translate(1776.068344 0.90625)" xlink:href="#LucidaSansUnicode-121"/>
     <use transform="translate(1828.314438 0.90625)" xlink:href="#LucidaSansUnicode-32"/>
     <use transform="translate(1859.955063 0.90625)" xlink:href="#LucidaSansUnicode-104"/>
     <use transform="translate(1922.01561 0.90625)" xlink:href="#LucidaSansUnicode-101"/>
     <use transform="translate(1977.7285 0.90625)" xlink:href="#LucidaSansUnicode-97"/>
     <use transform="translate(2032.95311 0.90625)" xlink:href="#LucidaSansUnicode-100"/>
     <use transform="translate(2095.892563 0.90625)" xlink:href="#LucidaSansUnicode-41"/>
    </g>
   </g>
   <g id="legend_1">
    <g id="patch_193">
     <path d="M 25.087261 116.180832 
L 252.582886 116.180832 
Q 253.782886 116.180832 253.782886 114.980832 
L 253.782886 106.728019 
Q 253.782886 105.528019 252.582886 105.528019 
L 25.087261 105.528019 
Q 23.887261 105.528019 23.887261 106.728019 
L 23.887261 114.980832 
Q 23.887261 116.180832 25.087261 116.180832 
z
" style="fill:#e3dcd0;opacity:0.8;stroke:#cccccc;stroke-linejoin:miter;"/>
    </g>
    <g id="patch_194">
     <path d="M 26.287261 112.553644 
L 32.287261 112.553644 
L 32.287261 108.353644 
L 26.287261 108.353644 
z
" style="fill:#738fc1;stroke:#738fc1;stroke-linejoin:miter;"/>
    </g>
    <g id="text_2">
     <!-- cattle -->
     <g style="fill:#262626;" transform="translate(37.087261 112.553644)scale(0.06 -0.06)">
      <use xlink:href="#LucidaSansUnicode-99"/>
      <use x="51.220703" xlink:href="#LucidaSansUnicode-97"/>
      <use x="106.445312" xlink:href="#LucidaSansUnicode-116"/>
      <use x="143.847656" xlink:href="#LucidaSansUnicode-116"/>
      <use x="181.25" xlink:href="#LucidaSansUnicode-108"/>
      <use x="210.15625" xlink:href="#LucidaSansUnicode-101"/>
     </g>
    </g>
    <g id="patch_195">
     <path d="M 65.039761 112.553644 
L 71.039761 112.553644 
L 71.039761 108.353644 
L 65.039761 108.353644 
z
" style="fill:#7aa974;stroke:#7aa974;stroke-linejoin:miter;"/>
    </g>
    <g id="text_3">
     <!-- chicken -->
     <g style="fill:#262626;" transform="translate(75.839761 112.553644)scale(0.06 -0.06)">
      <use xlink:href="#LucidaSansUnicode-99"/>
      <use x="51.220703" xlink:href="#LucidaSansUnicode-104"/>
      <use x="113.28125" xlink:href="#LucidaSansUnicode-105"/>
      <use x="142.1875" xlink:href="#LucidaSansUnicode-99"/>
      <use x="193.408203" xlink:href="#LucidaSansUnicode-107"/>
      <use x="251.855469" xlink:href="#LucidaSansUnicode-101"/>
      <use x="307.568359" xlink:href="#LucidaSansUnicode-110"/>
     </g>
    </g>
    <g id="patch_196">
     <path d="M 110.018198 112.553644 
L 116.018198 112.553644 
L 116.018198 108.353644 
L 110.018198 108.353644 
z
" style="fill:#905426;stroke:#905426;stroke-linejoin:miter;"/>
    </g>
    <g id="text_4">
     <!-- goat -->
     <defs>
      <path d="M 9.8125 -17.625 
L 10.9375 -9.28125 
Q 19.28125 -13.234375 27.4375 -13.234375 
Q 43.65625 -13.234375 43.65625 4 
L 43.65625 12.359375 
Q 41.15625 7.078125 36.546875 4.140625 
Q 31.9375 1.21875 26.265625 1.21875 
Q 16.65625 1.21875 11.03125 8.125 
Q 5.421875 15.046875 5.421875 26.859375 
Q 5.421875 38.96875 11.8125 46.578125 
Q 18.21875 54.203125 28.375 54.203125 
Q 37.25 54.203125 43.65625 46.96875 
L 43.65625 53.03125 
L 53.328125 53.03125 
L 53.328125 14.453125 
Q 53.328125 2 52.03125 -3.984375 
Q 50.734375 -9.96875 47.171875 -13.765625 
Q 40.875 -20.453125 27.484375 -20.453125 
Q 18.3125 -20.453125 9.8125 -17.625 
z
M 43.65625 18.359375 
L 43.65625 40.375 
Q 37.3125 46.96875 29.828125 46.96875 
Q 23.1875 46.96875 19.421875 41.640625 
Q 15.671875 36.328125 15.671875 26.90625 
Q 15.671875 9.625 27.9375 9.625 
Q 36.28125 9.625 43.65625 18.359375 
z
" id="LucidaSansUnicode-103"/>
     </defs>
     <g style="fill:#262626;" transform="translate(120.818198 112.553644)scale(0.06 -0.06)">
      <use xlink:href="#LucidaSansUnicode-103"/>
      <use x="62.353516" xlink:href="#LucidaSansUnicode-111"/>
      <use x="123.779297" xlink:href="#LucidaSansUnicode-97"/>
      <use x="179.003906" xlink:href="#LucidaSansUnicode-116"/>
     </g>
    </g>
    <g id="patch_197">
     <path d="M 145.802573 112.553644 
L 151.802573 112.553644 
L 151.802573 108.353644 
L 145.802573 108.353644 
z
" style="fill:#d0d0d0;stroke:#d0d0d0;stroke-linejoin:miter;"/>
    </g>
    <g id="text_5">
     <!-- other -->
     <defs>
      <path d="M 9.625 0 
L 9.625 53.03125 
L 19.234375 53.03125 
L 19.234375 43.0625 
Q 24.953125 54.203125 35.84375 54.203125 
Q 37.3125 54.203125 38.921875 53.953125 
L 38.921875 44.96875 
Q 36.421875 45.796875 34.515625 45.796875 
Q 25.390625 45.796875 19.234375 34.96875 
L 19.234375 0 
z
" id="LucidaSansUnicode-114"/>
     </defs>
     <g style="fill:#262626;" transform="translate(156.602573 112.553644)scale(0.06 -0.06)">
      <use xlink:href="#LucidaSansUnicode-111"/>
      <use x="61.425781" xlink:href="#LucidaSansUnicode-116"/>
      <use x="98.828125" xlink:href="#LucidaSansUnicode-104"/>
      <use x="160.888672" xlink:href="#LucidaSansUnicode-101"/>
      <use x="216.601562" xlink:href="#LucidaSansUnicode-114"/>
     </g>
    </g>
    <g id="patch_198">
     <path d="M 184.054448 112.553644 
L 190.054448 112.553644 
L 190.054448 108.353644 
L 184.054448 108.353644 
z
" style="fill:#ab85ac;stroke:#ab85ac;stroke-linejoin:miter;"/>
    </g>
    <g id="text_6">
     <!-- sheep -->
     <g style="fill:#262626;" transform="translate(194.854448 112.553644)scale(0.06 -0.06)">
      <use xlink:href="#LucidaSansUnicode-115"/>
      <use x="50.976562" xlink:href="#LucidaSansUnicode-104"/>
      <use x="113.037109" xlink:href="#LucidaSansUnicode-101"/>
      <use x="168.75" xlink:href="#LucidaSansUnicode-101"/>
      <use x="224.462891" xlink:href="#LucidaSansUnicode-112"/>
     </g>
    </g>
    <g id="patch_199">
     <path d="M 224.099761 112.553644 
L 230.099761 112.553644 
L 230.099761 108.353644 
L 224.099761 108.353644 
z
" style="fill:#e8b19d;stroke:#e8b19d;stroke-linejoin:miter;"/>
    </g>
    <g id="text_7">
     <!-- swine -->
     <defs>
      <path d="M 15.765625 0 
L 0.59375 53.03125 
L 10.015625 53.03125 
L 21.625 11.96875 
L 34.1875 53.03125 
L 43.796875 53.03125 
L 54.78125 11.96875 
L 68.109375 53.03125 
L 76.375 53.03125 
L 59.078125 0 
L 49.421875 0 
L 38.1875 41.0625 
L 25.484375 0 
z
" id="LucidaSansUnicode-119"/>
     </defs>
     <g style="fill:#262626;" transform="translate(234.899761 112.553644)scale(0.06 -0.06)">
      <use xlink:href="#LucidaSansUnicode-115"/>
      <use x="50.976562" xlink:href="#LucidaSansUnicode-119"/>
      <use x="128.027344" xlink:href="#LucidaSansUnicode-105"/>
      <use x="156.933594" xlink:href="#LucidaSansUnicode-110"/>
      <use x="218.994141" xlink:href="#LucidaSansUnicode-101"/>
     </g>
    </g>
   </g>
  </g>
 </g>
 <defs>
  <clipPath id="p50cd82307d">
   <rect height="73.4064" width="140.591919" x="26.510938" y="23.752512"/>
  </clipPath>
 </defs>
</svg>
