<?xml version="1.0" encoding="utf-8" standalone="no"?>
<!DOCTYPE svg PUBLIC "-//W3C//DTD SVG 1.1//EN"
  "http://www.w3.org/Graphics/SVG/1.1/DTD/svg11.dtd">
<!-- Created with matplotlib (https://matplotlib.org/) -->
<svg height="130.862794pt" version="1.1" viewBox="0 0 266.11711 130.862794" width="266.11711pt" xmlns="http://www.w3.org/2000/svg" xmlns:xlink="http://www.w3.org/1999/xlink">
 <defs>
  <style type="text/css">
*{stroke-linecap:butt;stroke-linejoin:round;}
  </style>
 </defs>
 <g id="figure_1">
  <g id="patch_1">
   <path d="M 0 130.862794 
L 266.11711 130.862794 
L 266.11711 0 
L 0 0 
z
" style="fill:#ffffff;"/>
  </g>
  <g id="axes_1">
   <g id="patch_2">
    <path clip-path="url(#p5e4b9cfe6b)" d="M 32.834375 18.59107 
L 40.370757 18.59107 
L 40.370757 11.054688 
L 32.834375 11.054688 
z
" style="fill:#738fc1;stroke:#738fc1;stroke-linejoin:miter;"/>
   </g>
   <g id="patch_3">
    <path clip-path="url(#p5e4b9cfe6b)" d="M 32.834375 27.634729 
L 40.370757 27.634729 
L 40.370757 20.098346 
L 32.834375 20.098346 
z
" style="fill:#738fc1;stroke:#738fc1;stroke-linejoin:miter;"/>
   </g>
   <g id="patch_4">
    <path clip-path="url(#p5e4b9cfe6b)" d="M 32.834375 36.678388 
L 40.370757 36.678388 
L 40.370757 29.142005 
L 32.834375 29.142005 
z
" style="fill:#738fc1;stroke:#738fc1;stroke-linejoin:miter;"/>
   </g>
   <g id="patch_5">
    <path clip-path="url(#p5e4b9cfe6b)" d="M 32.834375 45.722047 
L 40.370757 45.722047 
L 40.370757 38.185664 
L 32.834375 38.185664 
z
" style="fill:#738fc1;stroke:#738fc1;stroke-linejoin:miter;"/>
   </g>
   <g id="patch_6">
    <path clip-path="url(#p5e4b9cfe6b)" d="M 32.834375 54.765706 
L 40.370757 54.765706 
L 40.370757 47.229323 
L 32.834375 47.229323 
z
" style="fill:#738fc1;stroke:#738fc1;stroke-linejoin:miter;"/>
   </g>
   <g id="patch_7">
    <path clip-path="url(#p5e4b9cfe6b)" d="M 32.834375 63.809364 
L 40.370757 63.809364 
L 40.370757 56.272982 
L 32.834375 56.272982 
z
" style="fill:#738fc1;stroke:#738fc1;stroke-linejoin:miter;"/>
   </g>
   <g id="patch_8">
    <path clip-path="url(#p5e4b9cfe6b)" d="M 32.834375 72.853023 
L 40.370757 72.853023 
L 40.370757 65.316641 
L 32.834375 65.316641 
z
" style="fill:#738fc1;stroke:#738fc1;stroke-linejoin:miter;"/>
   </g>
   <g id="patch_9">
    <path clip-path="url(#p5e4b9cfe6b)" d="M 32.834375 81.896682 
L 40.370757 81.896682 
L 40.370757 74.3603 
L 32.834375 74.3603 
z
" style="fill:#738fc1;stroke:#738fc1;stroke-linejoin:miter;"/>
   </g>
   <g id="patch_10">
    <path clip-path="url(#p5e4b9cfe6b)" d="M 32.834375 90.940341 
L 40.370757 90.940341 
L 40.370757 83.403959 
L 32.834375 83.403959 
z
" style="fill:#738fc1;stroke:#738fc1;stroke-linejoin:miter;"/>
   </g>
   <g id="patch_11">
    <path clip-path="url(#p5e4b9cfe6b)" d="M 32.834375 99.984 
L 40.370757 99.984 
L 40.370757 92.447618 
L 32.834375 92.447618 
z
" style="fill:#738fc1;stroke:#738fc1;stroke-linejoin:miter;"/>
   </g>
   <g id="patch_12">
    <path clip-path="url(#p5e4b9cfe6b)" d="M 41.878034 18.59107 
L 49.414416 18.59107 
L 49.414416 11.054688 
L 41.878034 11.054688 
z
" style="fill:#738fc1;stroke:#738fc1;stroke-linejoin:miter;"/>
   </g>
   <g id="patch_13">
    <path clip-path="url(#p5e4b9cfe6b)" d="M 41.878034 27.634729 
L 49.414416 27.634729 
L 49.414416 20.098346 
L 41.878034 20.098346 
z
" style="fill:#738fc1;stroke:#738fc1;stroke-linejoin:miter;"/>
   </g>
   <g id="patch_14">
    <path clip-path="url(#p5e4b9cfe6b)" d="M 41.878034 36.678388 
L 49.414416 36.678388 
L 49.414416 29.142005 
L 41.878034 29.142005 
z
" style="fill:#738fc1;stroke:#738fc1;stroke-linejoin:miter;"/>
   </g>
   <g id="patch_15">
    <path clip-path="url(#p5e4b9cfe6b)" d="M 41.878034 45.722047 
L 49.414416 45.722047 
L 49.414416 38.185664 
L 41.878034 38.185664 
z
" style="fill:#738fc1;stroke:#738fc1;stroke-linejoin:miter;"/>
   </g>
   <g id="patch_16">
    <path clip-path="url(#p5e4b9cfe6b)" d="M 41.878034 54.765706 
L 49.414416 54.765706 
L 49.414416 47.229323 
L 41.878034 47.229323 
z
" style="fill:#738fc1;stroke:#738fc1;stroke-linejoin:miter;"/>
   </g>
   <g id="patch_17">
    <path clip-path="url(#p5e4b9cfe6b)" d="M 41.878034 63.809364 
L 49.414416 63.809364 
L 49.414416 56.272982 
L 41.878034 56.272982 
z
" style="fill:#738fc1;stroke:#738fc1;stroke-linejoin:miter;"/>
   </g>
   <g id="patch_18">
    <path clip-path="url(#p5e4b9cfe6b)" d="M 41.878034 72.853023 
L 49.414416 72.853023 
L 49.414416 65.316641 
L 41.878034 65.316641 
z
" style="fill:#738fc1;stroke:#738fc1;stroke-linejoin:miter;"/>
   </g>
   <g id="patch_19">
    <path clip-path="url(#p5e4b9cfe6b)" d="M 41.878034 81.896682 
L 49.414416 81.896682 
L 49.414416 74.3603 
L 41.878034 74.3603 
z
" style="fill:#738fc1;stroke:#738fc1;stroke-linejoin:miter;"/>
   </g>
   <g id="patch_20">
    <path clip-path="url(#p5e4b9cfe6b)" d="M 41.878034 90.940341 
L 49.414416 90.940341 
L 49.414416 83.403959 
L 41.878034 83.403959 
z
" style="fill:#738fc1;stroke:#738fc1;stroke-linejoin:miter;"/>
   </g>
   <g id="patch_21">
    <path clip-path="url(#p5e4b9cfe6b)" d="M 41.878034 99.984 
L 49.414416 99.984 
L 49.414416 92.447618 
L 41.878034 92.447618 
z
" style="fill:#738fc1;stroke:#738fc1;stroke-linejoin:miter;"/>
   </g>
   <g id="patch_22">
    <path clip-path="url(#p5e4b9cfe6b)" d="M 50.921693 18.59107 
L 58.458075 18.59107 
L 58.458075 11.054688 
L 50.921693 11.054688 
z
" style="fill:#738fc1;stroke:#738fc1;stroke-linejoin:miter;"/>
   </g>
   <g id="patch_23">
    <path clip-path="url(#p5e4b9cfe6b)" d="M 50.921693 27.634729 
L 58.458075 27.634729 
L 58.458075 20.098346 
L 50.921693 20.098346 
z
" style="fill:#738fc1;stroke:#738fc1;stroke-linejoin:miter;"/>
   </g>
   <g id="patch_24">
    <path clip-path="url(#p5e4b9cfe6b)" d="M 50.921693 36.678388 
L 58.458075 36.678388 
L 58.458075 29.142005 
L 50.921693 29.142005 
z
" style="fill:#738fc1;stroke:#738fc1;stroke-linejoin:miter;"/>
   </g>
   <g id="patch_25">
    <path clip-path="url(#p5e4b9cfe6b)" d="M 50.921693 45.722047 
L 58.458075 45.722047 
L 58.458075 38.185664 
L 50.921693 38.185664 
z
" style="fill:#738fc1;stroke:#738fc1;stroke-linejoin:miter;"/>
   </g>
   <g id="patch_26">
    <path clip-path="url(#p5e4b9cfe6b)" d="M 50.921693 54.765706 
L 58.458075 54.765706 
L 58.458075 47.229323 
L 50.921693 47.229323 
z
" style="fill:#738fc1;stroke:#738fc1;stroke-linejoin:miter;"/>
   </g>
   <g id="patch_27">
    <path clip-path="url(#p5e4b9cfe6b)" d="M 50.921693 63.809364 
L 58.458075 63.809364 
L 58.458075 56.272982 
L 50.921693 56.272982 
z
" style="fill:#738fc1;stroke:#738fc1;stroke-linejoin:miter;"/>
   </g>
   <g id="patch_28">
    <path clip-path="url(#p5e4b9cfe6b)" d="M 50.921693 72.853023 
L 58.458075 72.853023 
L 58.458075 65.316641 
L 50.921693 65.316641 
z
" style="fill:#738fc1;stroke:#738fc1;stroke-linejoin:miter;"/>
   </g>
   <g id="patch_29">
    <path clip-path="url(#p5e4b9cfe6b)" d="M 50.921693 81.896682 
L 58.458075 81.896682 
L 58.458075 74.3603 
L 50.921693 74.3603 
z
" style="fill:#738fc1;stroke:#738fc1;stroke-linejoin:miter;"/>
   </g>
   <g id="patch_30">
    <path clip-path="url(#p5e4b9cfe6b)" d="M 50.921693 90.940341 
L 58.458075 90.940341 
L 58.458075 83.403959 
L 50.921693 83.403959 
z
" style="fill:#738fc1;stroke:#738fc1;stroke-linejoin:miter;"/>
   </g>
   <g id="patch_31">
    <path clip-path="url(#p5e4b9cfe6b)" d="M 50.921693 99.984 
L 58.458075 99.984 
L 58.458075 92.447618 
L 50.921693 92.447618 
z
" style="fill:#738fc1;stroke:#738fc1;stroke-linejoin:miter;"/>
   </g>
   <g id="patch_32">
    <path clip-path="url(#p5e4b9cfe6b)" d="M 59.965352 18.59107 
L 67.501734 18.59107 
L 67.501734 11.054688 
L 59.965352 11.054688 
z
" style="fill:#738fc1;stroke:#738fc1;stroke-linejoin:miter;"/>
   </g>
   <g id="patch_33">
    <path clip-path="url(#p5e4b9cfe6b)" d="M 59.965352 27.634729 
L 67.501734 27.634729 
L 67.501734 20.098346 
L 59.965352 20.098346 
z
" style="fill:#738fc1;stroke:#738fc1;stroke-linejoin:miter;"/>
   </g>
   <g id="patch_34">
    <path clip-path="url(#p5e4b9cfe6b)" d="M 59.965352 36.678388 
L 67.501734 36.678388 
L 67.501734 29.142005 
L 59.965352 29.142005 
z
" style="fill:#738fc1;stroke:#738fc1;stroke-linejoin:miter;"/>
   </g>
   <g id="patch_35">
    <path clip-path="url(#p5e4b9cfe6b)" d="M 59.965352 45.722047 
L 67.501734 45.722047 
L 67.501734 38.185664 
L 59.965352 38.185664 
z
" style="fill:#738fc1;stroke:#738fc1;stroke-linejoin:miter;"/>
   </g>
   <g id="patch_36">
    <path clip-path="url(#p5e4b9cfe6b)" d="M 59.965352 54.765706 
L 67.501734 54.765706 
L 67.501734 47.229323 
L 59.965352 47.229323 
z
" style="fill:#738fc1;stroke:#738fc1;stroke-linejoin:miter;"/>
   </g>
   <g id="patch_37">
    <path clip-path="url(#p5e4b9cfe6b)" d="M 59.965352 63.809364 
L 67.501734 63.809364 
L 67.501734 56.272982 
L 59.965352 56.272982 
z
" style="fill:#738fc1;stroke:#738fc1;stroke-linejoin:miter;"/>
   </g>
   <g id="patch_38">
    <path clip-path="url(#p5e4b9cfe6b)" d="M 59.965352 72.853023 
L 67.501734 72.853023 
L 67.501734 65.316641 
L 59.965352 65.316641 
z
" style="fill:#738fc1;stroke:#738fc1;stroke-linejoin:miter;"/>
   </g>
   <g id="patch_39">
    <path clip-path="url(#p5e4b9cfe6b)" d="M 59.965352 81.896682 
L 67.501734 81.896682 
L 67.501734 74.3603 
L 59.965352 74.3603 
z
" style="fill:#738fc1;stroke:#738fc1;stroke-linejoin:miter;"/>
   </g>
   <g id="patch_40">
    <path clip-path="url(#p5e4b9cfe6b)" d="M 59.965352 90.940341 
L 67.501734 90.940341 
L 67.501734 83.403959 
L 59.965352 83.403959 
z
" style="fill:#738fc1;stroke:#738fc1;stroke-linejoin:miter;"/>
   </g>
   <g id="patch_41">
    <path clip-path="url(#p5e4b9cfe6b)" d="M 59.965352 99.984 
L 67.501734 99.984 
L 67.501734 92.447618 
L 59.965352 92.447618 
z
" style="fill:#738fc1;stroke:#738fc1;stroke-linejoin:miter;"/>
   </g>
   <g id="patch_42">
    <path clip-path="url(#p5e4b9cfe6b)" d="M 69.009011 18.59107 
L 76.545393 18.59107 
L 76.545393 11.054688 
L 69.009011 11.054688 
z
" style="fill:#738fc1;stroke:#738fc1;stroke-linejoin:miter;"/>
   </g>
   <g id="patch_43">
    <path clip-path="url(#p5e4b9cfe6b)" d="M 69.009011 27.634729 
L 76.545393 27.634729 
L 76.545393 20.098346 
L 69.009011 20.098346 
z
" style="fill:#738fc1;stroke:#738fc1;stroke-linejoin:miter;"/>
   </g>
   <g id="patch_44">
    <path clip-path="url(#p5e4b9cfe6b)" d="M 69.009011 36.678388 
L 76.545393 36.678388 
L 76.545393 29.142005 
L 69.009011 29.142005 
z
" style="fill:#738fc1;stroke:#738fc1;stroke-linejoin:miter;"/>
   </g>
   <g id="patch_45">
    <path clip-path="url(#p5e4b9cfe6b)" d="M 69.009011 45.722047 
L 76.545393 45.722047 
L 76.545393 38.185664 
L 69.009011 38.185664 
z
" style="fill:#738fc1;stroke:#738fc1;stroke-linejoin:miter;"/>
   </g>
   <g id="patch_46">
    <path clip-path="url(#p5e4b9cfe6b)" d="M 69.009011 54.765706 
L 76.545393 54.765706 
L 76.545393 47.229323 
L 69.009011 47.229323 
z
" style="fill:#738fc1;stroke:#738fc1;stroke-linejoin:miter;"/>
   </g>
   <g id="patch_47">
    <path clip-path="url(#p5e4b9cfe6b)" d="M 69.009011 63.809364 
L 76.545393 63.809364 
L 76.545393 56.272982 
L 69.009011 56.272982 
z
" style="fill:#738fc1;stroke:#738fc1;stroke-linejoin:miter;"/>
   </g>
   <g id="patch_48">
    <path clip-path="url(#p5e4b9cfe6b)" d="M 69.009011 72.853023 
L 76.545393 72.853023 
L 76.545393 65.316641 
L 69.009011 65.316641 
z
" style="fill:#738fc1;stroke:#738fc1;stroke-linejoin:miter;"/>
   </g>
   <g id="patch_49">
    <path clip-path="url(#p5e4b9cfe6b)" d="M 69.009011 81.896682 
L 76.545393 81.896682 
L 76.545393 74.3603 
L 69.009011 74.3603 
z
" style="fill:#738fc1;stroke:#738fc1;stroke-linejoin:miter;"/>
   </g>
   <g id="patch_50">
    <path clip-path="url(#p5e4b9cfe6b)" d="M 69.009011 90.940341 
L 76.545393 90.940341 
L 76.545393 83.403959 
L 69.009011 83.403959 
z
" style="fill:#738fc1;stroke:#738fc1;stroke-linejoin:miter;"/>
   </g>
   <g id="patch_51">
    <path clip-path="url(#p5e4b9cfe6b)" d="M 69.009011 99.984 
L 76.545393 99.984 
L 76.545393 92.447618 
L 69.009011 92.447618 
z
" style="fill:#738fc1;stroke:#738fc1;stroke-linejoin:miter;"/>
   </g>
   <g id="patch_52">
    <path clip-path="url(#p5e4b9cfe6b)" d="M 78.052669 18.59107 
L 85.589052 18.59107 
L 85.589052 11.054688 
L 78.052669 11.054688 
z
" style="fill:#738fc1;stroke:#738fc1;stroke-linejoin:miter;"/>
   </g>
   <g id="patch_53">
    <path clip-path="url(#p5e4b9cfe6b)" d="M 78.052669 27.634729 
L 85.589052 27.634729 
L 85.589052 20.098346 
L 78.052669 20.098346 
z
" style="fill:#738fc1;stroke:#738fc1;stroke-linejoin:miter;"/>
   </g>
   <g id="patch_54">
    <path clip-path="url(#p5e4b9cfe6b)" d="M 78.052669 36.678388 
L 85.589052 36.678388 
L 85.589052 29.142005 
L 78.052669 29.142005 
z
" style="fill:#738fc1;stroke:#738fc1;stroke-linejoin:miter;"/>
   </g>
   <g id="patch_55">
    <path clip-path="url(#p5e4b9cfe6b)" d="M 78.052669 45.722047 
L 85.589052 45.722047 
L 85.589052 38.185664 
L 78.052669 38.185664 
z
" style="fill:#738fc1;stroke:#738fc1;stroke-linejoin:miter;"/>
   </g>
   <g id="patch_56">
    <path clip-path="url(#p5e4b9cfe6b)" d="M 78.052669 54.765706 
L 85.589052 54.765706 
L 85.589052 47.229323 
L 78.052669 47.229323 
z
" style="fill:#738fc1;stroke:#738fc1;stroke-linejoin:miter;"/>
   </g>
   <g id="patch_57">
    <path clip-path="url(#p5e4b9cfe6b)" d="M 78.052669 63.809364 
L 85.589052 63.809364 
L 85.589052 56.272982 
L 78.052669 56.272982 
z
" style="fill:#738fc1;stroke:#738fc1;stroke-linejoin:miter;"/>
   </g>
   <g id="patch_58">
    <path clip-path="url(#p5e4b9cfe6b)" d="M 78.052669 72.853023 
L 85.589052 72.853023 
L 85.589052 65.316641 
L 78.052669 65.316641 
z
" style="fill:#738fc1;stroke:#738fc1;stroke-linejoin:miter;"/>
   </g>
   <g id="patch_59">
    <path clip-path="url(#p5e4b9cfe6b)" d="M 78.052669 81.896682 
L 85.589052 81.896682 
L 85.589052 74.3603 
L 78.052669 74.3603 
z
" style="fill:#738fc1;stroke:#738fc1;stroke-linejoin:miter;"/>
   </g>
   <g id="patch_60">
    <path clip-path="url(#p5e4b9cfe6b)" d="M 78.052669 90.940341 
L 85.589052 90.940341 
L 85.589052 83.403959 
L 78.052669 83.403959 
z
" style="fill:#738fc1;stroke:#738fc1;stroke-linejoin:miter;"/>
   </g>
   <g id="patch_61">
    <path clip-path="url(#p5e4b9cfe6b)" d="M 78.052669 99.984 
L 85.589052 99.984 
L 85.589052 92.447618 
L 78.052669 92.447618 
z
" style="fill:#738fc1;stroke:#738fc1;stroke-linejoin:miter;"/>
   </g>
   <g id="patch_62">
    <path clip-path="url(#p5e4b9cfe6b)" d="M 87.096328 18.59107 
L 94.632711 18.59107 
L 94.632711 11.054688 
L 87.096328 11.054688 
z
" style="fill:#738fc1;stroke:#738fc1;stroke-linejoin:miter;"/>
   </g>
   <g id="patch_63">
    <path clip-path="url(#p5e4b9cfe6b)" d="M 87.096328 27.634729 
L 94.632711 27.634729 
L 94.632711 20.098346 
L 87.096328 20.098346 
z
" style="fill:#738fc1;stroke:#738fc1;stroke-linejoin:miter;"/>
   </g>
   <g id="patch_64">
    <path clip-path="url(#p5e4b9cfe6b)" d="M 87.096328 36.678388 
L 94.632711 36.678388 
L 94.632711 29.142005 
L 87.096328 29.142005 
z
" style="fill:#738fc1;stroke:#738fc1;stroke-linejoin:miter;"/>
   </g>
   <g id="patch_65">
    <path clip-path="url(#p5e4b9cfe6b)" d="M 87.096328 45.722047 
L 94.632711 45.722047 
L 94.632711 38.185664 
L 87.096328 38.185664 
z
" style="fill:#738fc1;stroke:#738fc1;stroke-linejoin:miter;"/>
   </g>
   <g id="patch_66">
    <path clip-path="url(#p5e4b9cfe6b)" d="M 87.096328 54.765706 
L 94.632711 54.765706 
L 94.632711 47.229323 
L 87.096328 47.229323 
z
" style="fill:#738fc1;stroke:#738fc1;stroke-linejoin:miter;"/>
   </g>
   <g id="patch_67">
    <path clip-path="url(#p5e4b9cfe6b)" d="M 87.096328 63.809364 
L 94.632711 63.809364 
L 94.632711 56.272982 
L 87.096328 56.272982 
z
" style="fill:#738fc1;stroke:#738fc1;stroke-linejoin:miter;"/>
   </g>
   <g id="patch_68">
    <path clip-path="url(#p5e4b9cfe6b)" d="M 87.096328 72.853023 
L 94.632711 72.853023 
L 94.632711 65.316641 
L 87.096328 65.316641 
z
" style="fill:#738fc1;stroke:#738fc1;stroke-linejoin:miter;"/>
   </g>
   <g id="patch_69">
    <path clip-path="url(#p5e4b9cfe6b)" d="M 87.096328 81.896682 
L 94.632711 81.896682 
L 94.632711 74.3603 
L 87.096328 74.3603 
z
" style="fill:#738fc1;stroke:#738fc1;stroke-linejoin:miter;"/>
   </g>
   <g id="patch_70">
    <path clip-path="url(#p5e4b9cfe6b)" d="M 87.096328 90.940341 
L 94.632711 90.940341 
L 94.632711 83.403959 
L 87.096328 83.403959 
z
" style="fill:#738fc1;stroke:#738fc1;stroke-linejoin:miter;"/>
   </g>
   <g id="patch_71">
    <path clip-path="url(#p5e4b9cfe6b)" d="M 87.096328 99.984 
L 94.632711 99.984 
L 94.632711 92.447618 
L 87.096328 92.447618 
z
" style="fill:#738fc1;stroke:#738fc1;stroke-linejoin:miter;"/>
   </g>
   <g id="patch_72">
    <path clip-path="url(#p5e4b9cfe6b)" d="M 96.139987 18.59107 
L 103.67637 18.59107 
L 103.67637 11.054688 
L 96.139987 11.054688 
z
" style="fill:#738fc1;stroke:#738fc1;stroke-linejoin:miter;"/>
   </g>
   <g id="patch_73">
    <path clip-path="url(#p5e4b9cfe6b)" d="M 96.139987 27.634729 
L 103.67637 27.634729 
L 103.67637 20.098346 
L 96.139987 20.098346 
z
" style="fill:#738fc1;stroke:#738fc1;stroke-linejoin:miter;"/>
   </g>
   <g id="patch_74">
    <path clip-path="url(#p5e4b9cfe6b)" d="M 96.139987 36.678388 
L 103.67637 36.678388 
L 103.67637 29.142005 
L 96.139987 29.142005 
z
" style="fill:#738fc1;stroke:#738fc1;stroke-linejoin:miter;"/>
   </g>
   <g id="patch_75">
    <path clip-path="url(#p5e4b9cfe6b)" d="M 96.139987 45.722047 
L 103.67637 45.722047 
L 103.67637 38.185664 
L 96.139987 38.185664 
z
" style="fill:#738fc1;stroke:#738fc1;stroke-linejoin:miter;"/>
   </g>
   <g id="patch_76">
    <path clip-path="url(#p5e4b9cfe6b)" d="M 96.139987 54.765706 
L 103.67637 54.765706 
L 103.67637 47.229323 
L 96.139987 47.229323 
z
" style="fill:#738fc1;stroke:#738fc1;stroke-linejoin:miter;"/>
   </g>
   <g id="patch_77">
    <path clip-path="url(#p5e4b9cfe6b)" d="M 96.139987 63.809364 
L 103.67637 63.809364 
L 103.67637 56.272982 
L 96.139987 56.272982 
z
" style="fill:#738fc1;stroke:#738fc1;stroke-linejoin:miter;"/>
   </g>
   <g id="patch_78">
    <path clip-path="url(#p5e4b9cfe6b)" d="M 96.139987 72.853023 
L 103.67637 72.853023 
L 103.67637 65.316641 
L 96.139987 65.316641 
z
" style="fill:#738fc1;stroke:#738fc1;stroke-linejoin:miter;"/>
   </g>
   <g id="patch_79">
    <path clip-path="url(#p5e4b9cfe6b)" d="M 96.139987 81.896682 
L 103.67637 81.896682 
L 103.67637 74.3603 
L 96.139987 74.3603 
z
" style="fill:#738fc1;stroke:#738fc1;stroke-linejoin:miter;"/>
   </g>
   <g id="patch_80">
    <path clip-path="url(#p5e4b9cfe6b)" d="M 96.139987 90.940341 
L 103.67637 90.940341 
L 103.67637 83.403959 
L 96.139987 83.403959 
z
" style="fill:#738fc1;stroke:#738fc1;stroke-linejoin:miter;"/>
   </g>
   <g id="patch_81">
    <path clip-path="url(#p5e4b9cfe6b)" d="M 96.139987 99.984 
L 103.67637 99.984 
L 103.67637 92.447618 
L 96.139987 92.447618 
z
" style="fill:#738fc1;stroke:#738fc1;stroke-linejoin:miter;"/>
   </g>
   <g id="patch_82">
    <path clip-path="url(#p5e4b9cfe6b)" d="M 105.183646 18.59107 
L 112.720029 18.59107 
L 112.720029 11.054688 
L 105.183646 11.054688 
z
" style="fill:#738fc1;stroke:#738fc1;stroke-linejoin:miter;"/>
   </g>
   <g id="patch_83">
    <path clip-path="url(#p5e4b9cfe6b)" d="M 105.183646 27.634729 
L 112.720029 27.634729 
L 112.720029 20.098346 
L 105.183646 20.098346 
z
" style="fill:#738fc1;stroke:#738fc1;stroke-linejoin:miter;"/>
   </g>
   <g id="patch_84">
    <path clip-path="url(#p5e4b9cfe6b)" d="M 105.183646 36.678388 
L 112.720029 36.678388 
L 112.720029 29.142005 
L 105.183646 29.142005 
z
" style="fill:#738fc1;stroke:#738fc1;stroke-linejoin:miter;"/>
   </g>
   <g id="patch_85">
    <path clip-path="url(#p5e4b9cfe6b)" d="M 105.183646 45.722047 
L 112.720029 45.722047 
L 112.720029 38.185664 
L 105.183646 38.185664 
z
" style="fill:#738fc1;stroke:#738fc1;stroke-linejoin:miter;"/>
   </g>
   <g id="patch_86">
    <path clip-path="url(#p5e4b9cfe6b)" d="M 105.183646 54.765706 
L 112.720029 54.765706 
L 112.720029 47.229323 
L 105.183646 47.229323 
z
" style="fill:#738fc1;stroke:#738fc1;stroke-linejoin:miter;"/>
   </g>
   <g id="patch_87">
    <path clip-path="url(#p5e4b9cfe6b)" d="M 105.183646 63.809364 
L 112.720029 63.809364 
L 112.720029 56.272982 
L 105.183646 56.272982 
z
" style="fill:#738fc1;stroke:#738fc1;stroke-linejoin:miter;"/>
   </g>
   <g id="patch_88">
    <path clip-path="url(#p5e4b9cfe6b)" d="M 105.183646 72.853023 
L 112.720029 72.853023 
L 112.720029 65.316641 
L 105.183646 65.316641 
z
" style="fill:#738fc1;stroke:#738fc1;stroke-linejoin:miter;"/>
   </g>
   <g id="patch_89">
    <path clip-path="url(#p5e4b9cfe6b)" d="M 105.183646 81.896682 
L 112.720029 81.896682 
L 112.720029 74.3603 
L 105.183646 74.3603 
z
" style="fill:#738fc1;stroke:#738fc1;stroke-linejoin:miter;"/>
   </g>
   <g id="patch_90">
    <path clip-path="url(#p5e4b9cfe6b)" d="M 105.183646 90.940341 
L 112.720029 90.940341 
L 112.720029 83.403959 
L 105.183646 83.403959 
z
" style="fill:#738fc1;stroke:#738fc1;stroke-linejoin:miter;"/>
   </g>
   <g id="patch_91">
    <path clip-path="url(#p5e4b9cfe6b)" d="M 105.183646 99.984 
L 112.720029 99.984 
L 112.720029 92.447618 
L 105.183646 92.447618 
z
" style="fill:#738fc1;stroke:#738fc1;stroke-linejoin:miter;"/>
   </g>
   <g id="patch_92">
    <path clip-path="url(#p5e4b9cfe6b)" d="M 114.227305 18.59107 
L 121.763687 18.59107 
L 121.763687 11.054688 
L 114.227305 11.054688 
z
" style="fill:#738fc1;stroke:#738fc1;stroke-linejoin:miter;"/>
   </g>
   <g id="patch_93">
    <path clip-path="url(#p5e4b9cfe6b)" d="M 114.227305 27.634729 
L 121.763687 27.634729 
L 121.763687 20.098346 
L 114.227305 20.098346 
z
" style="fill:#738fc1;stroke:#738fc1;stroke-linejoin:miter;"/>
   </g>
   <g id="patch_94">
    <path clip-path="url(#p5e4b9cfe6b)" d="M 114.227305 36.678388 
L 121.763687 36.678388 
L 121.763687 29.142005 
L 114.227305 29.142005 
z
" style="fill:#738fc1;stroke:#738fc1;stroke-linejoin:miter;"/>
   </g>
   <g id="patch_95">
    <path clip-path="url(#p5e4b9cfe6b)" d="M 114.227305 45.722047 
L 121.763687 45.722047 
L 121.763687 38.185664 
L 114.227305 38.185664 
z
" style="fill:#738fc1;stroke:#738fc1;stroke-linejoin:miter;"/>
   </g>
   <g id="patch_96">
    <path clip-path="url(#p5e4b9cfe6b)" d="M 114.227305 54.765706 
L 121.763687 54.765706 
L 121.763687 47.229323 
L 114.227305 47.229323 
z
" style="fill:#738fc1;stroke:#738fc1;stroke-linejoin:miter;"/>
   </g>
   <g id="patch_97">
    <path clip-path="url(#p5e4b9cfe6b)" d="M 114.227305 63.809364 
L 121.763687 63.809364 
L 121.763687 56.272982 
L 114.227305 56.272982 
z
" style="fill:#738fc1;stroke:#738fc1;stroke-linejoin:miter;"/>
   </g>
   <g id="patch_98">
    <path clip-path="url(#p5e4b9cfe6b)" d="M 114.227305 72.853023 
L 121.763687 72.853023 
L 121.763687 65.316641 
L 114.227305 65.316641 
z
" style="fill:#738fc1;stroke:#738fc1;stroke-linejoin:miter;"/>
   </g>
   <g id="patch_99">
    <path clip-path="url(#p5e4b9cfe6b)" d="M 114.227305 81.896682 
L 121.763687 81.896682 
L 121.763687 74.3603 
L 114.227305 74.3603 
z
" style="fill:#738fc1;stroke:#738fc1;stroke-linejoin:miter;"/>
   </g>
   <g id="patch_100">
    <path clip-path="url(#p5e4b9cfe6b)" d="M 114.227305 90.940341 
L 121.763687 90.940341 
L 121.763687 83.403959 
L 114.227305 83.403959 
z
" style="fill:#738fc1;stroke:#738fc1;stroke-linejoin:miter;"/>
   </g>
   <g id="patch_101">
    <path clip-path="url(#p5e4b9cfe6b)" d="M 114.227305 99.984 
L 121.763687 99.984 
L 121.763687 92.447618 
L 114.227305 92.447618 
z
" style="fill:#738fc1;stroke:#738fc1;stroke-linejoin:miter;"/>
   </g>
   <g id="patch_102">
    <path clip-path="url(#p5e4b9cfe6b)" d="M 123.270964 18.59107 
L 130.807346 18.59107 
L 130.807346 11.054688 
L 123.270964 11.054688 
z
" style="fill:#738fc1;stroke:#738fc1;stroke-linejoin:miter;"/>
   </g>
   <g id="patch_103">
    <path clip-path="url(#p5e4b9cfe6b)" d="M 123.270964 27.634729 
L 130.807346 27.634729 
L 130.807346 20.098346 
L 123.270964 20.098346 
z
" style="fill:#738fc1;stroke:#738fc1;stroke-linejoin:miter;"/>
   </g>
   <g id="patch_104">
    <path clip-path="url(#p5e4b9cfe6b)" d="M 123.270964 36.678388 
L 130.807346 36.678388 
L 130.807346 29.142005 
L 123.270964 29.142005 
z
" style="fill:#738fc1;stroke:#738fc1;stroke-linejoin:miter;"/>
   </g>
   <g id="patch_105">
    <path clip-path="url(#p5e4b9cfe6b)" d="M 123.270964 45.722047 
L 130.807346 45.722047 
L 130.807346 38.185664 
L 123.270964 38.185664 
z
" style="fill:#738fc1;stroke:#738fc1;stroke-linejoin:miter;"/>
   </g>
   <g id="patch_106">
    <path clip-path="url(#p5e4b9cfe6b)" d="M 123.270964 54.765706 
L 130.807346 54.765706 
L 130.807346 47.229323 
L 123.270964 47.229323 
z
" style="fill:#738fc1;stroke:#738fc1;stroke-linejoin:miter;"/>
   </g>
   <g id="patch_107">
    <path clip-path="url(#p5e4b9cfe6b)" d="M 123.270964 63.809364 
L 130.807346 63.809364 
L 130.807346 56.272982 
L 123.270964 56.272982 
z
" style="fill:#738fc1;stroke:#738fc1;stroke-linejoin:miter;"/>
   </g>
   <g id="patch_108">
    <path clip-path="url(#p5e4b9cfe6b)" d="M 123.270964 72.853023 
L 130.807346 72.853023 
L 130.807346 65.316641 
L 123.270964 65.316641 
z
" style="fill:#738fc1;stroke:#738fc1;stroke-linejoin:miter;"/>
   </g>
   <g id="patch_109">
    <path clip-path="url(#p5e4b9cfe6b)" d="M 123.270964 81.896682 
L 130.807346 81.896682 
L 130.807346 74.3603 
L 123.270964 74.3603 
z
" style="fill:#738fc1;stroke:#738fc1;stroke-linejoin:miter;"/>
   </g>
   <g id="patch_110">
    <path clip-path="url(#p5e4b9cfe6b)" d="M 123.270964 90.940341 
L 130.807346 90.940341 
L 130.807346 83.403959 
L 123.270964 83.403959 
z
" style="fill:#738fc1;stroke:#738fc1;stroke-linejoin:miter;"/>
   </g>
   <g id="patch_111">
    <path clip-path="url(#p5e4b9cfe6b)" d="M 123.270964 99.984 
L 130.807346 99.984 
L 130.807346 92.447618 
L 123.270964 92.447618 
z
" style="fill:#738fc1;stroke:#738fc1;stroke-linejoin:miter;"/>
   </g>
   <g id="patch_112">
    <path clip-path="url(#p5e4b9cfe6b)" d="M 132.314623 18.59107 
L 139.851005 18.59107 
L 139.851005 11.054688 
L 132.314623 11.054688 
z
" style="fill:#738fc1;stroke:#738fc1;stroke-linejoin:miter;"/>
   </g>
   <g id="patch_113">
    <path clip-path="url(#p5e4b9cfe6b)" d="M 132.314623 27.634729 
L 139.851005 27.634729 
L 139.851005 20.098346 
L 132.314623 20.098346 
z
" style="fill:#738fc1;stroke:#738fc1;stroke-linejoin:miter;"/>
   </g>
   <g id="patch_114">
    <path clip-path="url(#p5e4b9cfe6b)" d="M 132.314623 36.678388 
L 139.851005 36.678388 
L 139.851005 29.142005 
L 132.314623 29.142005 
z
" style="fill:#738fc1;stroke:#738fc1;stroke-linejoin:miter;"/>
   </g>
   <g id="patch_115">
    <path clip-path="url(#p5e4b9cfe6b)" d="M 132.314623 45.722047 
L 139.851005 45.722047 
L 139.851005 38.185664 
L 132.314623 38.185664 
z
" style="fill:#738fc1;stroke:#738fc1;stroke-linejoin:miter;"/>
   </g>
   <g id="patch_116">
    <path clip-path="url(#p5e4b9cfe6b)" d="M 132.314623 54.765706 
L 139.851005 54.765706 
L 139.851005 47.229323 
L 132.314623 47.229323 
z
" style="fill:#738fc1;stroke:#738fc1;stroke-linejoin:miter;"/>
   </g>
   <g id="patch_117">
    <path clip-path="url(#p5e4b9cfe6b)" d="M 132.314623 63.809364 
L 139.851005 63.809364 
L 139.851005 56.272982 
L 132.314623 56.272982 
z
" style="fill:#738fc1;stroke:#738fc1;stroke-linejoin:miter;"/>
   </g>
   <g id="patch_118">
    <path clip-path="url(#p5e4b9cfe6b)" d="M 132.314623 72.853023 
L 139.851005 72.853023 
L 139.851005 65.316641 
L 132.314623 65.316641 
z
" style="fill:#738fc1;stroke:#738fc1;stroke-linejoin:miter;"/>
   </g>
   <g id="patch_119">
    <path clip-path="url(#p5e4b9cfe6b)" d="M 132.314623 81.896682 
L 139.851005 81.896682 
L 139.851005 74.3603 
L 132.314623 74.3603 
z
" style="fill:#738fc1;stroke:#738fc1;stroke-linejoin:miter;"/>
   </g>
   <g id="patch_120">
    <path clip-path="url(#p5e4b9cfe6b)" d="M 132.314623 90.940341 
L 139.851005 90.940341 
L 139.851005 83.403959 
L 132.314623 83.403959 
z
" style="fill:#738fc1;stroke:#738fc1;stroke-linejoin:miter;"/>
   </g>
   <g id="patch_121">
    <path clip-path="url(#p5e4b9cfe6b)" d="M 132.314623 99.984 
L 139.851005 99.984 
L 139.851005 92.447618 
L 132.314623 92.447618 
z
" style="fill:#738fc1;stroke:#738fc1;stroke-linejoin:miter;"/>
   </g>
   <g id="patch_122">
    <path clip-path="url(#p5e4b9cfe6b)" d="M 141.358282 18.59107 
L 148.894664 18.59107 
L 148.894664 11.054688 
L 141.358282 11.054688 
z
" style="fill:#738fc1;stroke:#738fc1;stroke-linejoin:miter;"/>
   </g>
   <g id="patch_123">
    <path clip-path="url(#p5e4b9cfe6b)" d="M 141.358282 27.634729 
L 148.894664 27.634729 
L 148.894664 20.098346 
L 141.358282 20.098346 
z
" style="fill:#738fc1;stroke:#738fc1;stroke-linejoin:miter;"/>
   </g>
   <g id="patch_124">
    <path clip-path="url(#p5e4b9cfe6b)" d="M 141.358282 36.678388 
L 148.894664 36.678388 
L 148.894664 29.142005 
L 141.358282 29.142005 
z
" style="fill:#738fc1;stroke:#738fc1;stroke-linejoin:miter;"/>
   </g>
   <g id="patch_125">
    <path clip-path="url(#p5e4b9cfe6b)" d="M 141.358282 45.722047 
L 148.894664 45.722047 
L 148.894664 38.185664 
L 141.358282 38.185664 
z
" style="fill:#738fc1;stroke:#738fc1;stroke-linejoin:miter;"/>
   </g>
   <g id="patch_126">
    <path clip-path="url(#p5e4b9cfe6b)" d="M 141.358282 54.765706 
L 148.894664 54.765706 
L 148.894664 47.229323 
L 141.358282 47.229323 
z
" style="fill:#738fc1;stroke:#738fc1;stroke-linejoin:miter;"/>
   </g>
   <g id="patch_127">
    <path clip-path="url(#p5e4b9cfe6b)" d="M 141.358282 63.809364 
L 148.894664 63.809364 
L 148.894664 56.272982 
L 141.358282 56.272982 
z
" style="fill:#738fc1;stroke:#738fc1;stroke-linejoin:miter;"/>
   </g>
   <g id="patch_128">
    <path clip-path="url(#p5e4b9cfe6b)" d="M 141.358282 72.853023 
L 148.894664 72.853023 
L 148.894664 65.316641 
L 141.358282 65.316641 
z
" style="fill:#7aa974;stroke:#7aa974;stroke-linejoin:miter;"/>
   </g>
   <g id="patch_129">
    <path clip-path="url(#p5e4b9cfe6b)" d="M 141.358282 81.896682 
L 148.894664 81.896682 
L 148.894664 74.3603 
L 141.358282 74.3603 
z
" style="fill:#7aa974;stroke:#7aa974;stroke-linejoin:miter;"/>
   </g>
   <g id="patch_130">
    <path clip-path="url(#p5e4b9cfe6b)" d="M 141.358282 90.940341 
L 148.894664 90.940341 
L 148.894664 83.403959 
L 141.358282 83.403959 
z
" style="fill:#7aa974;stroke:#7aa974;stroke-linejoin:miter;"/>
   </g>
   <g id="patch_131">
    <path clip-path="url(#p5e4b9cfe6b)" d="M 141.358282 99.984 
L 148.894664 99.984 
L 148.894664 92.447618 
L 141.358282 92.447618 
z
" style="fill:#7aa974;stroke:#7aa974;stroke-linejoin:miter;"/>
   </g>
   <g id="patch_132">
    <path clip-path="url(#p5e4b9cfe6b)" d="M 150.401941 18.59107 
L 157.938323 18.59107 
L 157.938323 11.054688 
L 150.401941 11.054688 
z
" style="fill:#7aa974;stroke:#7aa974;stroke-linejoin:miter;"/>
   </g>
   <g id="patch_133">
    <path clip-path="url(#p5e4b9cfe6b)" d="M 150.401941 27.634729 
L 157.938323 27.634729 
L 157.938323 20.098346 
L 150.401941 20.098346 
z
" style="fill:#7aa974;stroke:#7aa974;stroke-linejoin:miter;"/>
   </g>
   <g id="patch_134">
    <path clip-path="url(#p5e4b9cfe6b)" d="M 150.401941 36.678388 
L 157.938323 36.678388 
L 157.938323 29.142005 
L 150.401941 29.142005 
z
" style="fill:#7aa974;stroke:#7aa974;stroke-linejoin:miter;"/>
   </g>
   <g id="patch_135">
    <path clip-path="url(#p5e4b9cfe6b)" d="M 150.401941 45.722047 
L 157.938323 45.722047 
L 157.938323 38.185664 
L 150.401941 38.185664 
z
" style="fill:#905426;stroke:#905426;stroke-linejoin:miter;"/>
   </g>
   <g id="patch_136">
    <path clip-path="url(#p5e4b9cfe6b)" d="M 150.401941 54.765706 
L 157.938323 54.765706 
L 157.938323 47.229323 
L 150.401941 47.229323 
z
" style="fill:#905426;stroke:#905426;stroke-linejoin:miter;"/>
   </g>
   <g id="patch_137">
    <path clip-path="url(#p5e4b9cfe6b)" d="M 150.401941 63.809364 
L 157.938323 63.809364 
L 157.938323 56.272982 
L 150.401941 56.272982 
z
" style="fill:#905426;stroke:#905426;stroke-linejoin:miter;"/>
   </g>
   <g id="patch_138">
    <path clip-path="url(#p5e4b9cfe6b)" d="M 150.401941 72.853023 
L 157.938323 72.853023 
L 157.938323 65.316641 
L 150.401941 65.316641 
z
" style="fill:#905426;stroke:#905426;stroke-linejoin:miter;"/>
   </g>
   <g id="patch_139">
    <path clip-path="url(#p5e4b9cfe6b)" d="M 150.401941 81.896682 
L 157.938323 81.896682 
L 157.938323 74.3603 
L 150.401941 74.3603 
z
" style="fill:#905426;stroke:#905426;stroke-linejoin:miter;"/>
   </g>
   <g id="patch_140">
    <path clip-path="url(#p5e4b9cfe6b)" d="M 150.401941 90.940341 
L 157.938323 90.940341 
L 157.938323 83.403959 
L 150.401941 83.403959 
z
" style="fill:#d0d0d0;stroke:#d0d0d0;stroke-linejoin:miter;"/>
   </g>
   <g id="patch_141">
    <path clip-path="url(#p5e4b9cfe6b)" d="M 150.401941 99.984 
L 157.938323 99.984 
L 157.938323 92.447618 
L 150.401941 92.447618 
z
" style="fill:#d0d0d0;stroke:#d0d0d0;stroke-linejoin:miter;"/>
   </g>
   <g id="patch_142">
    <path clip-path="url(#p5e4b9cfe6b)" d="M 159.4456 18.59107 
L 166.981982 18.59107 
L 166.981982 11.054688 
L 159.4456 11.054688 
z
" style="fill:#d0d0d0;stroke:#d0d0d0;stroke-linejoin:miter;"/>
   </g>
   <g id="patch_143">
    <path clip-path="url(#p5e4b9cfe6b)" d="M 159.4456 27.634729 
L 166.981982 27.634729 
L 166.981982 20.098346 
L 159.4456 20.098346 
z
" style="fill:#d0d0d0;stroke:#d0d0d0;stroke-linejoin:miter;"/>
   </g>
   <g id="patch_144">
    <path clip-path="url(#p5e4b9cfe6b)" d="M 159.4456 36.678388 
L 166.981982 36.678388 
L 166.981982 29.142005 
L 159.4456 29.142005 
z
" style="fill:#d0d0d0;stroke:#d0d0d0;stroke-linejoin:miter;"/>
   </g>
   <g id="patch_145">
    <path clip-path="url(#p5e4b9cfe6b)" d="M 159.4456 45.722047 
L 166.981982 45.722047 
L 166.981982 38.185664 
L 159.4456 38.185664 
z
" style="fill:#d0d0d0;stroke:#d0d0d0;stroke-linejoin:miter;"/>
   </g>
   <g id="patch_146">
    <path clip-path="url(#p5e4b9cfe6b)" d="M 159.4456 54.765706 
L 166.981982 54.765706 
L 166.981982 47.229323 
L 159.4456 47.229323 
z
" style="fill:#d0d0d0;stroke:#d0d0d0;stroke-linejoin:miter;"/>
   </g>
   <g id="patch_147">
    <path clip-path="url(#p5e4b9cfe6b)" d="M 159.4456 63.809364 
L 166.981982 63.809364 
L 166.981982 56.272982 
L 159.4456 56.272982 
z
" style="fill:#d0d0d0;stroke:#d0d0d0;stroke-linejoin:miter;"/>
   </g>
   <g id="patch_148">
    <path clip-path="url(#p5e4b9cfe6b)" d="M 159.4456 72.853023 
L 166.981982 72.853023 
L 166.981982 65.316641 
L 159.4456 65.316641 
z
" style="fill:#d0d0d0;stroke:#d0d0d0;stroke-linejoin:miter;"/>
   </g>
   <g id="patch_149">
    <path clip-path="url(#p5e4b9cfe6b)" d="M 159.4456 81.896682 
L 166.981982 81.896682 
L 166.981982 74.3603 
L 159.4456 74.3603 
z
" style="fill:#d0d0d0;stroke:#d0d0d0;stroke-linejoin:miter;"/>
   </g>
   <g id="patch_150">
    <path clip-path="url(#p5e4b9cfe6b)" d="M 159.4456 90.940341 
L 166.981982 90.940341 
L 166.981982 83.403959 
L 159.4456 83.403959 
z
" style="fill:#d0d0d0;stroke:#d0d0d0;stroke-linejoin:miter;"/>
   </g>
   <g id="patch_151">
    <path clip-path="url(#p5e4b9cfe6b)" d="M 159.4456 99.984 
L 166.981982 99.984 
L 166.981982 92.447618 
L 159.4456 92.447618 
z
" style="fill:#d0d0d0;stroke:#d0d0d0;stroke-linejoin:miter;"/>
   </g>
   <g id="patch_152">
    <path clip-path="url(#p5e4b9cfe6b)" d="M 168.489258 18.59107 
L 176.025641 18.59107 
L 176.025641 11.054688 
L 168.489258 11.054688 
z
" style="fill:#d0d0d0;stroke:#d0d0d0;stroke-linejoin:miter;"/>
   </g>
   <g id="patch_153">
    <path clip-path="url(#p5e4b9cfe6b)" d="M 168.489258 27.634729 
L 176.025641 27.634729 
L 176.025641 20.098346 
L 168.489258 20.098346 
z
" style="fill:#d0d0d0;stroke:#d0d0d0;stroke-linejoin:miter;"/>
   </g>
   <g id="patch_154">
    <path clip-path="url(#p5e4b9cfe6b)" d="M 168.489258 36.678388 
L 176.025641 36.678388 
L 176.025641 29.142005 
L 168.489258 29.142005 
z
" style="fill:#d0d0d0;stroke:#d0d0d0;stroke-linejoin:miter;"/>
   </g>
   <g id="patch_155">
    <path clip-path="url(#p5e4b9cfe6b)" d="M 168.489258 45.722047 
L 176.025641 45.722047 
L 176.025641 38.185664 
L 168.489258 38.185664 
z
" style="fill:#d0d0d0;stroke:#d0d0d0;stroke-linejoin:miter;"/>
   </g>
   <g id="patch_156">
    <path clip-path="url(#p5e4b9cfe6b)" d="M 168.489258 54.765706 
L 176.025641 54.765706 
L 176.025641 47.229323 
L 168.489258 47.229323 
z
" style="fill:#d0d0d0;stroke:#d0d0d0;stroke-linejoin:miter;"/>
   </g>
   <g id="patch_157">
    <path clip-path="url(#p5e4b9cfe6b)" d="M 168.489258 63.809364 
L 176.025641 63.809364 
L 176.025641 56.272982 
L 168.489258 56.272982 
z
" style="fill:#d0d0d0;stroke:#d0d0d0;stroke-linejoin:miter;"/>
   </g>
   <g id="patch_158">
    <path clip-path="url(#p5e4b9cfe6b)" d="M 168.489258 72.853023 
L 176.025641 72.853023 
L 176.025641 65.316641 
L 168.489258 65.316641 
z
" style="fill:#d0d0d0;stroke:#d0d0d0;stroke-linejoin:miter;"/>
   </g>
   <g id="patch_159">
    <path clip-path="url(#p5e4b9cfe6b)" d="M 168.489258 81.896682 
L 176.025641 81.896682 
L 176.025641 74.3603 
L 168.489258 74.3603 
z
" style="fill:#d0d0d0;stroke:#d0d0d0;stroke-linejoin:miter;"/>
   </g>
   <g id="patch_160">
    <path clip-path="url(#p5e4b9cfe6b)" d="M 168.489258 90.940341 
L 176.025641 90.940341 
L 176.025641 83.403959 
L 168.489258 83.403959 
z
" style="fill:#d0d0d0;stroke:#d0d0d0;stroke-linejoin:miter;"/>
   </g>
   <g id="patch_161">
    <path clip-path="url(#p5e4b9cfe6b)" d="M 168.489258 99.984 
L 176.025641 99.984 
L 176.025641 92.447618 
L 168.489258 92.447618 
z
" style="fill:#d0d0d0;stroke:#d0d0d0;stroke-linejoin:miter;"/>
   </g>
   <g id="patch_162">
    <path clip-path="url(#p5e4b9cfe6b)" d="M 177.532917 18.59107 
L 185.0693 18.59107 
L 185.0693 11.054688 
L 177.532917 11.054688 
z
" style="fill:#d0d0d0;stroke:#d0d0d0;stroke-linejoin:miter;"/>
   </g>
   <g id="patch_163">
    <path clip-path="url(#p5e4b9cfe6b)" d="M 177.532917 27.634729 
L 185.0693 27.634729 
L 185.0693 20.098346 
L 177.532917 20.098346 
z
" style="fill:#d0d0d0;stroke:#d0d0d0;stroke-linejoin:miter;"/>
   </g>
   <g id="patch_164">
    <path clip-path="url(#p5e4b9cfe6b)" d="M 177.532917 36.678388 
L 185.0693 36.678388 
L 185.0693 29.142005 
L 177.532917 29.142005 
z
" style="fill:#ab85ac;stroke:#ab85ac;stroke-linejoin:miter;"/>
   </g>
   <g id="patch_165">
    <path clip-path="url(#p5e4b9cfe6b)" d="M 177.532917 45.722047 
L 185.0693 45.722047 
L 185.0693 38.185664 
L 177.532917 38.185664 
z
" style="fill:#ab85ac;stroke:#ab85ac;stroke-linejoin:miter;"/>
   </g>
   <g id="patch_166">
    <path clip-path="url(#p5e4b9cfe6b)" d="M 177.532917 54.765706 
L 185.0693 54.765706 
L 185.0693 47.229323 
L 177.532917 47.229323 
z
" style="fill:#ab85ac;stroke:#ab85ac;stroke-linejoin:miter;"/>
   </g>
   <g id="patch_167">
    <path clip-path="url(#p5e4b9cfe6b)" d="M 177.532917 63.809364 
L 185.0693 63.809364 
L 185.0693 56.272982 
L 177.532917 56.272982 
z
" style="fill:#ab85ac;stroke:#ab85ac;stroke-linejoin:miter;"/>
   </g>
   <g id="patch_168">
    <path clip-path="url(#p5e4b9cfe6b)" d="M 177.532917 72.853023 
L 185.0693 72.853023 
L 185.0693 65.316641 
L 177.532917 65.316641 
z
" style="fill:#ab85ac;stroke:#ab85ac;stroke-linejoin:miter;"/>
   </g>
   <g id="patch_169">
    <path clip-path="url(#p5e4b9cfe6b)" d="M 177.532917 81.896682 
L 185.0693 81.896682 
L 185.0693 74.3603 
L 177.532917 74.3603 
z
" style="fill:#ab85ac;stroke:#ab85ac;stroke-linejoin:miter;"/>
   </g>
   <g id="patch_170">
    <path clip-path="url(#p5e4b9cfe6b)" d="M 177.532917 90.940341 
L 185.0693 90.940341 
L 185.0693 83.403959 
L 177.532917 83.403959 
z
" style="fill:#e8b19d;stroke:#e8b19d;stroke-linejoin:miter;"/>
   </g>
   <g id="patch_171">
    <path clip-path="url(#p5e4b9cfe6b)" d="M 177.532917 99.984 
L 185.0693 99.984 
L 185.0693 92.447618 
L 177.532917 92.447618 
z
" style="fill:#e8b19d;stroke:#e8b19d;stroke-linejoin:miter;"/>
   </g>
   <g id="patch_172">
    <path clip-path="url(#p5e4b9cfe6b)" d="M 186.576576 18.59107 
L 194.112959 18.59107 
L 194.112959 11.054688 
L 186.576576 11.054688 
z
" style="fill:#e8b19d;stroke:#e8b19d;stroke-linejoin:miter;"/>
   </g>
   <g id="patch_173">
    <path clip-path="url(#p5e4b9cfe6b)" d="M 186.576576 27.634729 
L 194.112959 27.634729 
L 194.112959 20.098346 
L 186.576576 20.098346 
z
" style="fill:#e8b19d;stroke:#e8b19d;stroke-linejoin:miter;"/>
   </g>
   <g id="patch_174">
    <path clip-path="url(#p5e4b9cfe6b)" d="M 186.576576 36.678388 
L 194.112959 36.678388 
L 194.112959 29.142005 
L 186.576576 29.142005 
z
" style="fill:#e8b19d;stroke:#e8b19d;stroke-linejoin:miter;"/>
   </g>
   <g id="patch_175">
    <path clip-path="url(#p5e4b9cfe6b)" d="M 186.576576 45.722047 
L 194.112959 45.722047 
L 194.112959 38.185664 
L 186.576576 38.185664 
z
" style="fill:#e8b19d;stroke:#e8b19d;stroke-linejoin:miter;"/>
   </g>
   <g id="patch_176">
    <path clip-path="url(#p5e4b9cfe6b)" d="M 186.576576 54.765706 
L 194.112959 54.765706 
L 194.112959 47.229323 
L 186.576576 47.229323 
z
" style="fill:#e8b19d;stroke:#e8b19d;stroke-linejoin:miter;"/>
   </g>
   <g id="patch_177">
    <path clip-path="url(#p5e4b9cfe6b)" d="M 186.576576 63.809364 
L 194.112959 63.809364 
L 194.112959 56.272982 
L 186.576576 56.272982 
z
" style="fill:#e8b19d;stroke:#e8b19d;stroke-linejoin:miter;"/>
   </g>
   <g id="patch_178">
    <path clip-path="url(#p5e4b9cfe6b)" d="M 186.576576 72.853023 
L 194.112959 72.853023 
L 194.112959 65.316641 
L 186.576576 65.316641 
z
" style="fill:#e8b19d;stroke:#e8b19d;stroke-linejoin:miter;"/>
   </g>
   <g id="patch_179">
    <path clip-path="url(#p5e4b9cfe6b)" d="M 186.576576 81.896682 
L 194.112959 81.896682 
L 194.112959 74.3603 
L 186.576576 74.3603 
z
" style="fill:#e8b19d;stroke:#e8b19d;stroke-linejoin:miter;"/>
   </g>
   <g id="patch_180">
    <path clip-path="url(#p5e4b9cfe6b)" d="M 186.576576 90.940341 
L 194.112959 90.940341 
L 194.112959 83.403959 
L 186.576576 83.403959 
z
" style="fill:#e8b19d;stroke:#e8b19d;stroke-linejoin:miter;"/>
   </g>
   <g id="patch_181">
    <path clip-path="url(#p5e4b9cfe6b)" d="M 186.576576 99.984 
L 194.112959 99.984 
L 194.112959 92.447618 
L 186.576576 92.447618 
z
" style="fill:#e8b19d;stroke:#e8b19d;stroke-linejoin:miter;"/>
   </g>
   <g id="patch_182">
    <path clip-path="url(#p5e4b9cfe6b)" d="M 195.620235 18.59107 
L 203.156618 18.59107 
L 203.156618 11.054688 
L 195.620235 11.054688 
z
" style="fill:#e8b19d;stroke:#e8b19d;stroke-linejoin:miter;"/>
   </g>
   <g id="patch_183">
    <path clip-path="url(#p5e4b9cfe6b)" d="M 195.620235 27.634729 
L 203.156618 27.634729 
L 203.156618 20.098346 
L 195.620235 20.098346 
z
" style="fill:#e8b19d;stroke:#e8b19d;stroke-linejoin:miter;"/>
   </g>
   <g id="patch_184">
    <path clip-path="url(#p5e4b9cfe6b)" d="M 195.620235 36.678388 
L 203.156618 36.678388 
L 203.156618 29.142005 
L 195.620235 29.142005 
z
" style="fill:#e8b19d;stroke:#e8b19d;stroke-linejoin:miter;"/>
   </g>
   <g id="patch_185">
    <path clip-path="url(#p5e4b9cfe6b)" d="M 195.620235 45.722047 
L 203.156618 45.722047 
L 203.156618 38.185664 
L 195.620235 38.185664 
z
" style="fill:#e8b19d;stroke:#e8b19d;stroke-linejoin:miter;"/>
   </g>
   <g id="patch_186">
    <path clip-path="url(#p5e4b9cfe6b)" d="M 195.620235 54.765706 
L 203.156618 54.765706 
L 203.156618 47.229323 
L 195.620235 47.229323 
z
" style="fill:#e8b19d;stroke:#e8b19d;stroke-linejoin:miter;"/>
   </g>
   <g id="patch_187">
    <path clip-path="url(#p5e4b9cfe6b)" d="M 195.620235 63.809364 
L 203.156618 63.809364 
L 203.156618 56.272982 
L 195.620235 56.272982 
z
" style="fill:#e8b19d;stroke:#e8b19d;stroke-linejoin:miter;"/>
   </g>
   <g id="patch_188">
    <path clip-path="url(#p5e4b9cfe6b)" d="M 195.620235 72.853023 
L 203.156618 72.853023 
L 203.156618 65.316641 
L 195.620235 65.316641 
z
" style="fill:#e8b19d;stroke:#e8b19d;stroke-linejoin:miter;"/>
   </g>
   <g id="patch_189">
    <path clip-path="url(#p5e4b9cfe6b)" d="M 195.620235 81.896682 
L 203.156618 81.896682 
L 203.156618 74.3603 
L 195.620235 74.3603 
z
" style="fill:#e8b19d;stroke:#e8b19d;stroke-linejoin:miter;"/>
   </g>
   <g id="patch_190">
    <path clip-path="url(#p5e4b9cfe6b)" d="M 195.620235 90.940341 
L 203.156618 90.940341 
L 203.156618 83.403959 
L 195.620235 83.403959 
z
" style="fill:#e8b19d;stroke:#e8b19d;stroke-linejoin:miter;"/>
   </g>
   <g id="legend_1">
    <g id="patch_191">
     <path d="M 30.221485 123.662794 
L 257.71711 123.662794 
Q 258.91711 123.662794 258.91711 122.462794 
L 258.91711 114.209981 
Q 258.91711 113.009981 257.71711 113.009981 
L 30.221485 113.009981 
Q 29.021485 113.009981 29.021485 114.209981 
L 29.021485 122.462794 
Q 29.021485 123.662794 30.221485 123.662794 
z
" style="fill:#e3dcd0;opacity:0.8;stroke:#cccccc;stroke-linejoin:miter;"/>
    </g>
    <g id="patch_192">
     <path d="M 31.421485 120.035606 
L 37.421485 120.035606 
L 37.421485 115.835606 
L 31.421485 115.835606 
z
" style="fill:#738fc1;stroke:#738fc1;stroke-linejoin:miter;"/>
    </g>
    <g id="text_1">
     <!-- cattle -->
     <defs>
      <path d="M 46.4375 1.609375 
Q 37.109375 -1.21875 30.328125 -1.21875 
Q 19.578125 -1.21875 12.5 6.734375 
Q 5.421875 14.703125 5.421875 26.8125 
Q 5.421875 39.75 12.421875 46.96875 
Q 19.4375 54.203125 31.984375 54.203125 
Q 38.1875 54.203125 45.84375 52.484375 
L 45.84375 44.4375 
Q 37.703125 46.828125 32.5625 46.828125 
Q 25.140625 46.828125 20.703125 41.28125 
Q 16.265625 35.75 16.265625 26.515625 
Q 16.265625 17.578125 20.84375 12.0625 
Q 25.4375 6.546875 32.859375 6.546875 
Q 39.453125 6.546875 46.4375 9.90625 
z
" id="LucidaSansUnicode-99"/>
      <path d="M 36.96875 6.734375 
Q 28.328125 -1.21875 20.3125 -1.21875 
Q 13.71875 -1.21875 9.375 2.90625 
Q 5.03125 7.03125 5.03125 13.328125 
Q 5.03125 22.015625 12.328125 26.671875 
Q 19.625 31.34375 33.296875 31.34375 
L 35.546875 31.34375 
L 35.546875 37.75 
Q 35.546875 46.96875 25.921875 46.96875 
Q 18.453125 46.96875 9.625 42.28125 
L 9.625 50.25 
Q 19.34375 54.203125 27.9375 54.203125 
Q 36.765625 54.203125 40.96875 50.171875 
Q 45.171875 46.140625 45.171875 37.75 
L 45.171875 13.71875 
Q 45.171875 5.46875 50.25 5.46875 
Q 50.875 5.46875 52.09375 5.671875 
L 52.78125 0.34375 
Q 49.515625 -1.21875 45.5625 -1.21875 
Q 38.8125 -1.21875 36.96875 6.734375 
z
M 35.546875 11.96875 
L 35.546875 25.6875 
L 32.46875 25.78125 
Q 24.46875 25.78125 19.5625 22.796875 
Q 14.65625 19.828125 14.65625 14.890625 
Q 14.65625 11.421875 17.09375 9.03125 
Q 19.53125 6.640625 23.046875 6.640625 
Q 29.046875 6.640625 35.546875 11.96875 
z
" id="LucidaSansUnicode-97"/>
      <path d="M 33.25 0 
Q 28.8125 -1.21875 25.53125 -1.21875 
Q 18.21875 -1.21875 14.109375 2.96875 
Q 10.015625 7.171875 10.015625 14.65625 
L 10.015625 45.796875 
L 3.375 45.796875 
L 3.375 53.03125 
L 10.015625 53.03125 
L 10.015625 62.640625 
L 19.625 63.578125 
L 19.625 53.03125 
L 33.5 53.03125 
L 33.5 45.796875 
L 19.625 45.796875 
L 19.625 16.40625 
Q 19.625 6 28.609375 6 
Q 30.515625 6 33.25 6.640625 
z
" id="LucidaSansUnicode-116"/>
      <path d="M 9.625 0 
L 9.625 77.09375 
L 19.234375 77.09375 
L 19.234375 0 
z
" id="LucidaSansUnicode-108"/>
      <path d="M 48.484375 1.703125 
Q 38.8125 -1.21875 31.9375 -1.21875 
Q 20.171875 -1.21875 12.796875 6.5625 
Q 5.421875 14.359375 5.421875 26.765625 
Q 5.421875 38.8125 11.9375 46.53125 
Q 18.453125 54.25 28.609375 54.25 
Q 38.234375 54.25 43.484375 47.390625 
Q 48.734375 40.53125 48.734375 27.9375 
L 48.6875 25 
L 15.234375 25 
Q 17.328125 6.109375 33.734375 6.109375 
Q 39.75 6.109375 48.484375 9.328125 
z
M 15.671875 32.234375 
L 39.0625 32.234375 
Q 39.0625 47.015625 28.03125 47.015625 
Q 16.9375 47.015625 15.671875 32.234375 
z
" id="LucidaSansUnicode-101"/>
     </defs>
     <g style="fill:#262626;" transform="translate(42.221485 120.035606)scale(0.06 -0.06)">
      <use xlink:href="#LucidaSansUnicode-99"/>
      <use x="51.220703" xlink:href="#LucidaSansUnicode-97"/>
      <use x="106.445312" xlink:href="#LucidaSansUnicode-116"/>
      <use x="143.847656" xlink:href="#LucidaSansUnicode-116"/>
      <use x="181.25" xlink:href="#LucidaSansUnicode-108"/>
      <use x="210.15625" xlink:href="#LucidaSansUnicode-101"/>
     </g>
    </g>
    <g id="patch_193">
     <path d="M 70.173985 120.035606 
L 76.173985 120.035606 
L 76.173985 115.835606 
L 70.173985 115.835606 
z
" style="fill:#7aa974;stroke:#7aa974;stroke-linejoin:miter;"/>
    </g>
    <g id="text_2">
     <!-- chicken -->
     <defs>
      <path d="M 9.625 0 
L 9.625 77.09375 
L 19.234375 77.09375 
L 19.234375 43.0625 
Q 26.859375 54.203125 37.890625 54.203125 
Q 44.828125 54.203125 48.90625 49.828125 
Q 52.984375 45.453125 52.984375 38.09375 
L 52.984375 0 
L 43.359375 0 
L 43.359375 34.96875 
Q 43.359375 40.875 41.625 43.390625 
Q 39.890625 45.90625 35.890625 45.90625 
Q 27.046875 45.90625 19.234375 34.328125 
L 19.234375 0 
z
" id="LucidaSansUnicode-104"/>
      <path d="M 9.625 0 
L 9.625 53.03125 
L 19.234375 53.03125 
L 19.234375 0 
z
M 9.625 62.640625 
L 9.625 72.265625 
L 19.234375 72.265625 
L 19.234375 62.640625 
z
" id="LucidaSansUnicode-105"/>
      <path d="M 9.625 0 
L 9.625 77.09375 
L 19.234375 77.09375 
L 19.234375 27.296875 
L 41.703125 53.03125 
L 52.046875 53.03125 
L 30.609375 28.265625 
L 56.5 0 
L 44.1875 0 
L 19.234375 27.203125 
L 19.234375 0 
z
" id="LucidaSansUnicode-107"/>
      <path d="M 9.625 0 
L 9.625 53.03125 
L 19.234375 53.03125 
L 19.234375 43.0625 
Q 26.859375 54.203125 37.890625 54.203125 
Q 44.828125 54.203125 48.90625 49.828125 
Q 52.984375 45.453125 52.984375 38.09375 
L 52.984375 0 
L 43.359375 0 
L 43.359375 34.96875 
Q 43.359375 40.875 41.625 43.390625 
Q 39.890625 45.90625 35.890625 45.90625 
Q 27.046875 45.90625 19.234375 34.328125 
L 19.234375 0 
z
" id="LucidaSansUnicode-110"/>
     </defs>
     <g style="fill:#262626;" transform="translate(80.973985 120.035606)scale(0.06 -0.06)">
      <use xlink:href="#LucidaSansUnicode-99"/>
      <use x="51.220703" xlink:href="#LucidaSansUnicode-104"/>
      <use x="113.28125" xlink:href="#LucidaSansUnicode-105"/>
      <use x="142.1875" xlink:href="#LucidaSansUnicode-99"/>
      <use x="193.408203" xlink:href="#LucidaSansUnicode-107"/>
      <use x="251.855469" xlink:href="#LucidaSansUnicode-101"/>
      <use x="307.568359" xlink:href="#LucidaSansUnicode-110"/>
     </g>
    </g>
    <g id="patch_194">
     <path d="M 115.152423 120.035606 
L 121.152423 120.035606 
L 121.152423 115.835606 
L 115.152423 115.835606 
z
" style="fill:#905426;stroke:#905426;stroke-linejoin:miter;"/>
    </g>
    <g id="text_3">
     <!-- goat -->
     <defs>
      <path d="M 9.8125 -17.625 
L 10.9375 -9.28125 
Q 19.28125 -13.234375 27.4375 -13.234375 
Q 43.65625 -13.234375 43.65625 4 
L 43.65625 12.359375 
Q 41.15625 7.078125 36.546875 4.140625 
Q 31.9375 1.21875 26.265625 1.21875 
Q 16.65625 1.21875 11.03125 8.125 
Q 5.421875 15.046875 5.421875 26.859375 
Q 5.421875 38.96875 11.8125 46.578125 
Q 18.21875 54.203125 28.375 54.203125 
Q 37.25 54.203125 43.65625 46.96875 
L 43.65625 53.03125 
L 53.328125 53.03125 
L 53.328125 14.453125 
Q 53.328125 2 52.03125 -3.984375 
Q 50.734375 -9.96875 47.171875 -13.765625 
Q 40.875 -20.453125 27.484375 -20.453125 
Q 18.3125 -20.453125 9.8125 -17.625 
z
M 43.65625 18.359375 
L 43.65625 40.375 
Q 37.3125 46.96875 29.828125 46.96875 
Q 23.1875 46.96875 19.421875 41.640625 
Q 15.671875 36.328125 15.671875 26.90625 
Q 15.671875 9.625 27.9375 9.625 
Q 36.28125 9.625 43.65625 18.359375 
z
" id="LucidaSansUnicode-103"/>
      <path d="M 30.71875 -1.21875 
Q 19.046875 -1.21875 12.234375 6.25 
Q 5.421875 13.71875 5.421875 26.515625 
Q 5.421875 39.3125 12.234375 46.75 
Q 19.046875 54.203125 30.71875 54.203125 
Q 42.390625 54.203125 49.1875 46.75 
Q 56 39.3125 56 26.515625 
Q 56 13.71875 49.1875 6.25 
Q 42.390625 -1.21875 30.71875 -1.21875 
z
M 30.71875 6 
Q 37.890625 6 41.84375 11.375 
Q 45.796875 16.75 45.796875 26.515625 
Q 45.796875 36.28125 41.84375 41.625 
Q 37.890625 46.96875 30.71875 46.96875 
Q 23.53125 46.96875 19.59375 41.625 
Q 15.671875 36.28125 15.671875 26.515625 
Q 15.671875 16.75 19.59375 11.375 
Q 23.53125 6 30.71875 6 
z
" id="LucidaSansUnicode-111"/>
     </defs>
     <g style="fill:#262626;" transform="translate(125.952423 120.035606)scale(0.06 -0.06)">
      <use xlink:href="#LucidaSansUnicode-103"/>
      <use x="62.353516" xlink:href="#LucidaSansUnicode-111"/>
      <use x="123.779297" xlink:href="#LucidaSansUnicode-97"/>
      <use x="179.003906" xlink:href="#LucidaSansUnicode-116"/>
     </g>
    </g>
    <g id="patch_195">
     <path d="M 150.936798 120.035606 
L 156.936798 120.035606 
L 156.936798 115.835606 
L 150.936798 115.835606 
z
" style="fill:#d0d0d0;stroke:#d0d0d0;stroke-linejoin:miter;"/>
    </g>
    <g id="text_4">
     <!-- other -->
     <defs>
      <path d="M 9.625 0 
L 9.625 53.03125 
L 19.234375 53.03125 
L 19.234375 43.0625 
Q 24.953125 54.203125 35.84375 54.203125 
Q 37.3125 54.203125 38.921875 53.953125 
L 38.921875 44.96875 
Q 36.421875 45.796875 34.515625 45.796875 
Q 25.390625 45.796875 19.234375 34.96875 
L 19.234375 0 
z
" id="LucidaSansUnicode-114"/>
     </defs>
     <g style="fill:#262626;" transform="translate(161.736798 120.035606)scale(0.06 -0.06)">
      <use xlink:href="#LucidaSansUnicode-111"/>
      <use x="61.425781" xlink:href="#LucidaSansUnicode-116"/>
      <use x="98.828125" xlink:href="#LucidaSansUnicode-104"/>
      <use x="160.888672" xlink:href="#LucidaSansUnicode-101"/>
      <use x="216.601562" xlink:href="#LucidaSansUnicode-114"/>
     </g>
    </g>
    <g id="patch_196">
     <path d="M 189.188673 120.035606 
L 195.188673 120.035606 
L 195.188673 115.835606 
L 189.188673 115.835606 
z
" style="fill:#ab85ac;stroke:#ab85ac;stroke-linejoin:miter;"/>
    </g>
    <g id="text_5">
     <!-- sheep -->
     <defs>
      <path d="M 7.671875 1.859375 
L 7.671875 10.6875 
Q 17.09375 6 24.078125 6 
Q 28.21875 6 30.953125 8.25 
Q 33.6875 10.5 33.6875 13.875 
Q 33.6875 18.796875 26.03125 22.015625 
L 20.40625 24.421875 
Q 7.953125 29.59375 7.953125 39.3125 
Q 7.953125 46.234375 12.859375 50.21875 
Q 17.78125 54.203125 26.3125 54.203125 
Q 30.765625 54.203125 37.3125 52.984375 
L 39.3125 52.59375 
L 39.3125 44.578125 
Q 31.25 46.96875 26.46875 46.96875 
Q 22.265625 46.96875 19.75 45.140625 
Q 17.234375 43.3125 17.234375 40.234375 
Q 17.234375 35.890625 24.265625 32.90625 
L 28.90625 30.953125 
Q 36.765625 27.640625 40.03125 23.953125 
Q 43.3125 20.265625 43.3125 14.75 
Q 43.3125 7.765625 37.796875 3.265625 
Q 32.28125 -1.21875 23.6875 -1.21875 
Q 17.09375 -1.21875 7.671875 1.859375 
z
" id="LucidaSansUnicode-115"/>
      <path d="M 9.625 -19.28125 
L 9.625 53.03125 
L 19.234375 53.03125 
L 19.234375 43.0625 
Q 25.140625 54.203125 36.96875 54.203125 
Q 46.53125 54.203125 52.015625 47.21875 
Q 57.515625 40.234375 57.515625 28.125 
Q 57.515625 14.9375 51.28125 6.859375 
Q 45.0625 -1.21875 34.90625 -1.21875 
Q 25.484375 -1.21875 19.234375 6 
L 19.234375 -19.28125 
z
M 19.234375 12.640625 
Q 26.65625 6 33.40625 6 
Q 40.046875 6 43.65625 11.546875 
Q 47.265625 17.09375 47.265625 27.15625 
Q 47.265625 45.796875 34.96875 45.796875 
Q 26.90625 45.796875 19.234375 37.0625 
z
" id="LucidaSansUnicode-112"/>
     </defs>
     <g style="fill:#262626;" transform="translate(199.988673 120.035606)scale(0.06 -0.06)">
      <use xlink:href="#LucidaSansUnicode-115"/>
      <use x="50.976562" xlink:href="#LucidaSansUnicode-104"/>
      <use x="113.037109" xlink:href="#LucidaSansUnicode-101"/>
      <use x="168.75" xlink:href="#LucidaSansUnicode-101"/>
      <use x="224.462891" xlink:href="#LucidaSansUnicode-112"/>
     </g>
    </g>
    <g id="patch_197">
     <path d="M 229.233985 120.035606 
L 235.233985 120.035606 
L 235.233985 115.835606 
L 229.233985 115.835606 
z
" style="fill:#e8b19d;stroke:#e8b19d;stroke-linejoin:miter;"/>
    </g>
    <g id="text_6">
     <!-- swine -->
     <defs>
      <path d="M 15.765625 0 
L 0.59375 53.03125 
L 10.015625 53.03125 
L 21.625 11.96875 
L 34.1875 53.03125 
L 43.796875 53.03125 
L 54.78125 11.96875 
L 68.109375 53.03125 
L 76.375 53.03125 
L 59.078125 0 
L 49.421875 0 
L 38.1875 41.0625 
L 25.484375 0 
z
" id="LucidaSansUnicode-119"/>
     </defs>
     <g style="fill:#262626;" transform="translate(240.033985 120.035606)scale(0.06 -0.06)">
      <use xlink:href="#LucidaSansUnicode-115"/>
      <use x="50.976562" xlink:href="#LucidaSansUnicode-119"/>
      <use x="128.027344" xlink:href="#LucidaSansUnicode-105"/>
      <use x="156.933594" xlink:href="#LucidaSansUnicode-110"/>
      <use x="218.994141" xlink:href="#LucidaSansUnicode-101"/>
     </g>
    </g>
   </g>
  </g>
 </g>
 <defs>
  <clipPath id="p5e4b9cfe6b">
   <rect height="88.929312" width="170.322243" x="32.834375" y="11.054688"/>
  </clipPath>
 </defs>
</svg>
