<?xml version="1.0" encoding="utf-8" standalone="no"?>
<!DOCTYPE svg PUBLIC "-//W3C//DTD SVG 1.1//EN"
  "http://www.w3.org/Graphics/SVG/1.1/DTD/svg11.dtd">
<!-- Created with matplotlib (https://matplotlib.org/) -->
<svg height="166.581818pt" version="1.1" viewBox="0 0 349.2 166.581818" width="349.2pt" xmlns="http://www.w3.org/2000/svg" xmlns:xlink="http://www.w3.org/1999/xlink">
 <defs>
  <style type="text/css">
*{stroke-linecap:butt;stroke-linejoin:round;}
  </style>
 </defs>
 <g id="figure_1">
  <g id="patch_1">
   <path d="M 0 166.581818 
L 349.2 166.581818 
L 349.2 0 
L 0 0 
z
" style="fill:#ffffff;"/>
  </g>
  <g id="axes_1">
   <g id="matplotlib.axis_1"/>
   <g id="matplotlib.axis_2"/>
   <g id="patch_2">
    <path d="M 144.163636 83.290909 
C 144.163636 77.531611 143.346287 71.801349 141.736066 66.271728 
C 140.125845 60.742108 137.738989 55.468884 134.646976 50.609978 
L 83.290909 83.290909 
L 144.163636 83.290909 
z
" style="fill:#738fc1;stroke:#ffffff;stroke-linejoin:miter;"/>
   </g>
   <g id="patch_3">
    <path d="M 134.646976 50.609978 
C 130.744589 44.477616 125.775177 39.093507 119.974571 34.713158 
C 114.173965 30.33281 107.635398 27.026628 100.669166 24.951513 
C 93.702935 22.876398 86.421007 22.065703 79.168958 22.5579 
C 71.916908 23.050096 64.811298 24.837275 58.189335 27.834621 
C 51.567372 30.831967 45.53549 34.991305 40.37994 40.115248 
C 35.224391 45.239192 31.028039 51.245382 27.990028 57.848788 
C 24.952018 64.452195 23.121178 71.54668 22.584395 78.795566 
C 22.047612 86.044452 22.813513 93.331227 24.845751 100.310087 
C 26.877989 107.288948 30.1439 113.847722 34.488495 119.675155 
C 38.833091 125.502588 44.18654 130.505014 50.294788 134.445038 
C 56.403037 138.385062 63.167905 141.199355 70.268359 142.754361 
C 77.368812 144.309367 84.690725 144.580092 91.886625 143.553689 
C 99.082525 142.527285 106.036753 140.220251 112.419287 136.742069 
C 118.80182 133.263888 124.510073 128.670463 129.273152 123.179783 
C 134.03623 117.689104 137.777578 111.38942 140.319644 104.579693 
C 142.86171 97.769966 144.163636 90.559648 144.163636 83.290915 
L 83.290909 83.290909 
L 134.646976 50.609978 
z
" style="fill:#a9bfe3;stroke:#ffffff;stroke-linejoin:miter;"/>
   </g>
   <g id="patch_4">
    <path clip-path="url(#p757857a1a9)" d="M 83.290909 125.901818 
C 94.591454 125.901818 105.43068 121.412064 113.421372 113.421372 
C 121.412064 105.43068 125.901818 94.591454 125.901818 83.290909 
C 125.901818 71.990364 121.412064 61.151138 113.421372 53.160446 
C 105.43068 45.169754 94.591454 40.68 83.290909 40.68 
C 71.990364 40.68 61.151138 45.169754 53.160446 53.160446 
C 45.169754 61.151138 40.68 71.990364 40.68 83.290909 
C 40.68 94.591454 45.169754 105.43068 53.160446 113.421372 
C 61.151138 121.412064 71.990364 125.901818 83.290909 125.901818 
z
" style="fill:#ffffff;stroke:#ffffff;stroke-linejoin:miter;"/>
   </g>
  </g>
  <g id="axes_2">
   <g id="matplotlib.axis_3"/>
   <g id="matplotlib.axis_4"/>
   <g id="patch_5">
    <path d="M 326.781818 83.290909 
C 326.781818 74.935738 325.061617 66.669343 321.728599 59.007759 
C 318.395582 51.346174 313.520576 44.452213 307.407907 38.756235 
C 301.295239 33.060257 294.074805 28.683305 286.197345 25.898613 
C 278.319885 23.11392 269.952801 21.980663 261.618411 22.569587 
C 253.284021 23.15851 245.159437 25.457098 237.75184 29.321861 
C 230.344243 33.186624 223.811049 38.535432 218.560097 45.034385 
C 213.309144 51.533337 209.452019 59.044326 207.229503 67.098475 
C 205.006988 75.152624 204.466313 83.578776 205.64123 91.850925 
L 265.909091 83.290909 
L 326.781818 83.290909 
z
" style="fill:#738fc1;stroke:#ffffff;stroke-linejoin:miter;"/>
   </g>
   <g id="patch_6">
    <path d="M 205.64123 91.850925 
C 207.806353 107.09474 215.676374 120.963508 227.652562 130.6399 
C 239.62875 140.316292 254.841249 145.09749 270.19976 144.012232 
C 285.558271 142.926975 299.947272 136.054086 310.443753 124.789738 
C 320.940234 113.52539 326.781812 98.687738 326.781818 83.290932 
L 265.909091 83.290909 
L 205.64123 91.850925 
z
" style="fill:#a9bfe3;stroke:#ffffff;stroke-linejoin:miter;"/>
   </g>
   <g id="patch_7">
    <path clip-path="url(#pa1dc3f9996)" d="M 265.909091 125.901818 
C 277.209636 125.901818 288.048862 121.412064 296.039554 113.421372 
C 304.030246 105.43068 308.52 94.591454 308.52 83.290909 
C 308.52 71.990364 304.030246 61.151138 296.039554 53.160446 
C 288.048862 45.169754 277.209636 40.68 265.909091 40.68 
C 254.608546 40.68 243.76932 45.169754 235.778628 53.160446 
C 227.787936 61.151138 223.298182 71.990364 223.298182 83.290909 
C 223.298182 94.591454 227.787936 105.43068 235.778628 113.421372 
C 243.76932 121.412064 254.608546 125.901818 265.909091 125.901818 
z
" style="fill:#ffffff;stroke:#ffffff;stroke-linejoin:miter;"/>
   </g>
  </g>
 </g>
 <defs>
  <clipPath id="p757857a1a9">
   <rect height="152.181818" width="152.181818" x="7.2" y="7.2"/>
  </clipPath>
  <clipPath id="pa1dc3f9996">
   <rect height="152.181818" width="152.181818" x="189.818182" y="7.2"/>
  </clipPath>
 </defs>
</svg>
