<?xml version="1.0" encoding="utf-8" standalone="no"?>
<!DOCTYPE svg PUBLIC "-//W3C//DTD SVG 1.1//EN"
  "http://www.w3.org/Graphics/SVG/1.1/DTD/svg11.dtd">
<!-- Created with matplotlib (https://matplotlib.org/) -->
<svg height="166.581818pt" version="1.1" viewBox="0 0 349.2 166.581818" width="349.2pt" xmlns="http://www.w3.org/2000/svg" xmlns:xlink="http://www.w3.org/1999/xlink">
 <defs>
  <style type="text/css">
*{stroke-linecap:butt;stroke-linejoin:round;}
  </style>
 </defs>
 <g id="figure_1">
  <g id="patch_1">
   <path d="M 0 166.581818 
L 349.2 166.581818 
L 349.2 0 
L 0 0 
z
" style="fill:#ffffff;"/>
  </g>
  <g id="axes_1">
   <g id="matplotlib.axis_1"/>
   <g id="matplotlib.axis_2"/>
   <g id="patch_2">
    <path d="M 144.163636 83.290909 
C 144.163636 73.520348 141.811256 63.891894 137.305977 55.222042 
C 132.800699 46.552189 126.273576 39.093136 118.278109 33.477409 
C 110.282642 27.861683 101.051412 24.252639 91.367227 22.956325 
C 81.683041 21.660011 71.827604 22.714136 62.636658 26.029309 
C 53.445711 29.344482 45.18661 34.824269 38.559727 42.003983 
C 31.932844 49.183697 27.130948 57.854488 24.56124 67.281071 
C 21.991533 76.707654 21.728764 86.615821 23.795216 96.165358 
C 25.861668 105.714894 30.197231 114.628014 36.434248 122.148885 
L 83.290909 83.290909 
L 144.163636 83.290909 
z
" style="fill:#7aa974;stroke:#ffffff;stroke-linejoin:miter;"/>
   </g>
   <g id="patch_3">
    <path d="M 36.434248 122.148885 
C 44.426715 131.786554 55.201313 138.727609 67.281071 142.020578 
C 79.360829 145.313547 92.167361 144.80076 103.94516 140.552509 
C 115.72296 136.304258 125.908099 128.523953 133.104409 118.278109 
C 140.300719 108.032265 144.163636 95.81146 144.163636 83.290909 
L 83.290909 83.290909 
L 36.434248 122.148885 
z
" style="fill:#bfd598;stroke:#ffffff;stroke-linejoin:miter;"/>
   </g>
   <g id="patch_4">
    <path clip-path="url(#p1077a2cf11)" d="M 83.290909 125.901818 
C 94.591454 125.901818 105.43068 121.412064 113.421372 113.421372 
C 121.412064 105.43068 125.901818 94.591454 125.901818 83.290909 
C 125.901818 71.990364 121.412064 61.151138 113.421372 53.160446 
C 105.43068 45.169754 94.591454 40.68 83.290909 40.68 
C 71.990364 40.68 61.151138 45.169754 53.160446 53.160446 
C 45.169754 61.151138 40.68 71.990364 40.68 83.290909 
C 40.68 94.591454 45.169754 105.43068 53.160446 113.421372 
C 61.151138 121.412064 71.990364 125.901818 83.290909 125.901818 
z
" style="fill:#ffffff;stroke:#ffffff;stroke-linejoin:miter;"/>
   </g>
  </g>
  <g id="axes_2">
   <g id="matplotlib.axis_3"/>
   <g id="matplotlib.axis_4"/>
   <g id="patch_5">
    <path d="M 326.781818 83.290909 
C 326.781818 76.115278 325.513031 68.995844 323.034158 62.261985 
C 320.555284 55.528125 316.905151 49.285314 312.25263 43.822373 
C 307.600109 38.359432 302.018073 33.761928 295.764775 30.242562 
C 289.511476 26.723197 282.68486 24.337095 275.600759 23.194649 
C 268.516657 22.052202 261.286029 22.171306 254.243398 23.546449 
C 247.200766 24.921592 240.456441 27.531235 234.322446 31.254645 
C 228.188451 34.978055 222.760863 39.75691 218.290789 45.370119 
C 213.820716 50.983329 210.378171 57.342971 208.122423 64.154819 
C 205.866675 70.966668 204.833057 78.124027 205.069388 85.295765 
C 205.305719 92.467503 206.808297 99.541287 209.507607 106.189851 
C 212.206917 112.838415 216.060679 118.957622 220.890599 124.264367 
C 225.720519 129.571113 231.450946 133.982277 237.816763 137.29378 
C 244.18258 140.605282 251.084079 142.765253 258.201964 143.673764 
C 265.319849 144.582274 272.542632 144.225093 279.536152 142.618745 
C 286.529672 141.012398 293.184389 138.182044 299.192425 134.25863 
C 305.200462 130.335216 310.467712 125.380194 314.750488 119.622807 
L 265.909091 83.290909 
L 326.781818 83.290909 
z
" style="fill:#7aa974;stroke:#ffffff;stroke-linejoin:miter;"/>
   </g>
   <g id="patch_6">
    <path d="M 314.750488 119.622807 
C 318.631518 114.405494 321.651614 108.599855 323.695761 102.426993 
C 325.739907 96.254132 326.781819 89.793417 326.781818 83.290898 
L 265.909091 83.290909 
L 314.750488 119.622807 
z
" style="fill:#bfd598;stroke:#ffffff;stroke-linejoin:miter;"/>
   </g>
   <g id="patch_7">
    <path clip-path="url(#p329bab7c6f)" d="M 265.909091 125.901818 
C 277.209636 125.901818 288.048862 121.412064 296.039554 113.421372 
C 304.030246 105.43068 308.52 94.591454 308.52 83.290909 
C 308.52 71.990364 304.030246 61.151138 296.039554 53.160446 
C 288.048862 45.169754 277.209636 40.68 265.909091 40.68 
C 254.608546 40.68 243.76932 45.169754 235.778628 53.160446 
C 227.787936 61.151138 223.298182 71.990364 223.298182 83.290909 
C 223.298182 94.591454 227.787936 105.43068 235.778628 113.421372 
C 243.76932 121.412064 254.608546 125.901818 265.909091 125.901818 
z
" style="fill:#ffffff;stroke:#ffffff;stroke-linejoin:miter;"/>
   </g>
  </g>
 </g>
 <defs>
  <clipPath id="p1077a2cf11">
   <rect height="152.181818" width="152.181818" x="7.2" y="7.2"/>
  </clipPath>
  <clipPath id="p329bab7c6f">
   <rect height="152.181818" width="152.181818" x="189.818182" y="7.2"/>
  </clipPath>
 </defs>
</svg>
