<?xml version="1.0" encoding="utf-8" standalone="no"?>
<!DOCTYPE svg PUBLIC "-//W3C//DTD SVG 1.1//EN"
  "http://www.w3.org/Graphics/SVG/1.1/DTD/svg11.dtd">
<!-- Created with matplotlib (https://matplotlib.org/) -->
<svg height="162pt" version="1.1" viewBox="0 0 216 162" width="216pt" xmlns="http://www.w3.org/2000/svg" xmlns:xlink="http://www.w3.org/1999/xlink">
 <defs>
  <style type="text/css">
*{stroke-linecap:butt;stroke-linejoin:round;}
  </style>
 </defs>
 <g id="figure_1">
  <g id="patch_1">
   <path d="M 0 162 
L 216 162 
L 216 0 
L 0 0 
z
" style="fill:#ffffff;"/>
  </g>
  <g id="axes_1">
   <g id="patch_2">
    <path d="M 35.775 133.7 
L 205.2 133.7 
L 205.2 12.8 
L 35.775 12.8 
z
" style="fill:#e3dcd0;"/>
   </g>
   <g id="matplotlib.axis_1">
    <g id="xtick_1">
     <g id="text_1">
      <!-- 1960 -->
      <defs>
       <path d="M 26.171875 0 
L 26.171875 65.046875 
L 14.75 65.046875 
L 14.75 71.09375 
L 35.84375 72.90625 
L 35.84375 0 
z
" id="LucidaSansUnicode-49"/>
       <path d="M 11.375 0.4375 
L 11.375 8.59375 
Q 20.5625 5.421875 27 5.421875 
Q 35.984375 5.421875 41.03125 13.0625 
Q 46.09375 20.703125 46.09375 34.328125 
Q 38.765625 25.296875 29.4375 25.296875 
Q 20.3125 25.296875 13.96875 32 
Q 7.625 38.71875 7.625 48.390625 
Q 7.625 59.46875 14.375 66.765625 
Q 21.140625 74.078125 31.390625 74.078125 
Q 43.171875 74.078125 49.953125 64.625 
Q 56.734375 55.171875 56.734375 38.765625 
Q 56.734375 28.328125 53.46875 19.109375 
Q 50.203125 9.90625 44.671875 4.78125 
Q 37.59375 -1.8125 26.078125 -1.8125 
Q 20.40625 -1.8125 11.375 0.4375 
z
M 17.234375 50.046875 
Q 17.234375 41.796875 20.984375 37.015625 
Q 24.75 32.234375 31.15625 32.234375 
Q 37.3125 32.234375 41.625 36.375 
Q 45.953125 40.53125 45.953125 46.390625 
Q 45.953125 55.609375 41.765625 61.25 
Q 37.59375 66.890625 30.8125 66.890625 
Q 24.46875 66.890625 20.84375 62.390625 
Q 17.234375 57.90625 17.234375 50.046875 
z
" id="LucidaSansUnicode-57"/>
       <path d="M 17.1875 37.453125 
Q 24.078125 46.390625 34.515625 46.390625 
Q 44 46.390625 50.03125 40.109375 
Q 56.0625 33.84375 56.0625 24.03125 
Q 56.0625 12.75 49.296875 5.46875 
Q 42.53125 -1.8125 32.078125 -1.8125 
Q 20.171875 -1.8125 13.421875 7.828125 
Q 6.6875 17.484375 6.6875 34.515625 
Q 6.6875 57.46875 18.453125 68.21875 
Q 24.859375 74.125 36.140625 74.125 
Q 42.671875 74.125 52.34375 71.390625 
L 52.34375 62.984375 
Q 42.140625 66.890625 35.546875 66.890625 
Q 17.1875 66.890625 17.1875 37.453125 
z
M 46.390625 22.125 
Q 46.390625 30.125 42.671875 34.78125 
Q 38.96875 39.453125 32.515625 39.453125 
Q 26.375 39.453125 21.96875 35.34375 
Q 17.578125 31.25 17.578125 25.484375 
Q 17.578125 16.40625 21.75 10.90625 
Q 25.921875 5.421875 32.8125 5.421875 
Q 39.0625 5.421875 42.71875 9.90625 
Q 46.390625 14.40625 46.390625 22.125 
z
" id="LucidaSansUnicode-54"/>
       <path d="M 31.640625 -1.8125 
Q 20.265625 -1.8125 13.296875 8.609375 
Q 6.34375 19.046875 6.34375 36.140625 
Q 6.34375 53.21875 13.296875 63.640625 
Q 20.265625 74.078125 31.640625 74.078125 
Q 43.0625 74.078125 50 63.671875 
Q 56.9375 53.265625 56.9375 36.140625 
Q 56.9375 19.046875 50 8.609375 
Q 43.0625 -1.8125 31.640625 -1.8125 
z
M 31.640625 5.421875 
Q 46.734375 5.421875 46.734375 36.140625 
Q 46.734375 66.84375 31.640625 66.84375 
Q 16.609375 66.84375 16.609375 36.140625 
Q 16.609375 5.421875 31.640625 5.421875 
z
" id="LucidaSansUnicode-48"/>
      </defs>
      <g transform="translate(28.186875 141.825625)scale(0.06 -0.06)">
       <use xlink:href="#LucidaSansUnicode-49"/>
       <use x="63.232422" xlink:href="#LucidaSansUnicode-57"/>
       <use x="126.464844" xlink:href="#LucidaSansUnicode-54"/>
       <use x="189.697266" xlink:href="#LucidaSansUnicode-48"/>
      </g>
     </g>
    </g>
    <g id="xtick_2">
     <g id="text_2">
      <!-- 1970 -->
      <defs>
       <path d="M 15.046875 0 
Q 16.453125 8.453125 19.0625 14.59375 
Q 21.6875 20.75 28.328125 31.5 
L 48.046875 63.234375 
L 10.84375 63.234375 
L 10.84375 72.265625 
L 57.234375 72.265625 
L 57.234375 63.234375 
Q 29.4375 22.265625 26.125 0 
z
" id="LucidaSansUnicode-55"/>
      </defs>
      <g transform="translate(57.398082 141.825625)scale(0.06 -0.06)">
       <use xlink:href="#LucidaSansUnicode-49"/>
       <use x="63.232422" xlink:href="#LucidaSansUnicode-57"/>
       <use x="126.464844" xlink:href="#LucidaSansUnicode-55"/>
       <use x="189.697266" xlink:href="#LucidaSansUnicode-48"/>
      </g>
     </g>
    </g>
    <g id="xtick_3">
     <g id="text_3">
      <!-- 1980 -->
      <defs>
       <path d="M 23 39.359375 
Q 17.046875 43.5 14.71875 47.0625 
Q 12.40625 50.640625 12.40625 55.671875 
Q 12.40625 63.875 18.40625 69 
Q 24.421875 74.125 34.078125 74.125 
Q 43.015625 74.125 48.5625 69.78125 
Q 54.109375 65.4375 54.109375 58.5 
Q 54.109375 48 40.625 39.359375 
Q 56.984375 31.34375 56.984375 18.703125 
Q 56.984375 9.671875 50.140625 3.921875 
Q 43.3125 -1.8125 32.5625 -1.8125 
Q 21.828125 -1.8125 15.234375 3.578125 
Q 8.640625 8.984375 8.640625 17.78125 
Q 8.640625 30.765625 23 39.359375 
z
M 35.25 42.390625 
Q 45.359375 49.03125 45.359375 57.171875 
Q 45.359375 61.53125 41.96875 64.1875 
Q 38.578125 66.84375 33.109375 66.84375 
Q 27.78125 66.84375 24.453125 64.234375 
Q 21.140625 61.625 21.140625 57.46875 
Q 21.140625 53.421875 24.140625 50.1875 
Q 27.15625 46.96875 35.25 42.390625 
z
M 28.21875 35.453125 
Q 22.40625 30.953125 20.328125 27.609375 
Q 18.265625 24.265625 18.265625 19.28125 
Q 18.265625 13.09375 22.265625 9.25 
Q 26.265625 5.421875 32.8125 5.421875 
Q 39.109375 5.421875 43.09375 8.6875 
Q 47.078125 11.96875 47.078125 17.1875 
Q 47.078125 21.390625 44.609375 24.296875 
Q 42.140625 27.203125 35.0625 31.390625 
z
" id="LucidaSansUnicode-56"/>
      </defs>
      <g transform="translate(86.609289 141.825625)scale(0.06 -0.06)">
       <use xlink:href="#LucidaSansUnicode-49"/>
       <use x="63.232422" xlink:href="#LucidaSansUnicode-57"/>
       <use x="126.464844" xlink:href="#LucidaSansUnicode-56"/>
       <use x="189.697266" xlink:href="#LucidaSansUnicode-48"/>
      </g>
     </g>
    </g>
    <g id="xtick_4">
     <g id="text_4">
      <!-- 1990 -->
      <g transform="translate(115.820496 141.825625)scale(0.06 -0.06)">
       <use xlink:href="#LucidaSansUnicode-49"/>
       <use x="63.232422" xlink:href="#LucidaSansUnicode-57"/>
       <use x="126.464844" xlink:href="#LucidaSansUnicode-57"/>
       <use x="189.697266" xlink:href="#LucidaSansUnicode-48"/>
      </g>
     </g>
    </g>
    <g id="xtick_5">
     <g id="text_5">
      <!-- 2000 -->
      <defs>
       <path d="M 8.296875 0 
L 8.296875 8.453125 
Q 12.5 18.265625 25.296875 29.828125 
L 30.8125 34.765625 
Q 41.453125 44.390625 41.453125 53.859375 
Q 41.453125 59.90625 37.8125 63.375 
Q 34.1875 66.84375 27.78125 66.84375 
Q 20.3125 66.84375 10.109375 61.03125 
L 10.109375 69.53125 
Q 19.734375 74.078125 29.25 74.078125 
Q 39.40625 74.078125 45.53125 68.609375 
Q 51.65625 63.140625 51.65625 54.109375 
Q 51.65625 47.609375 48.546875 42.578125 
Q 45.453125 37.546875 37.015625 30.375 
L 33.296875 27.203125 
Q 21.734375 17.390625 19.921875 8.453125 
L 51.3125 8.453125 
L 51.3125 0 
z
" id="LucidaSansUnicode-50"/>
      </defs>
      <g transform="translate(145.031703 141.825625)scale(0.06 -0.06)">
       <use xlink:href="#LucidaSansUnicode-50"/>
       <use x="63.232422" xlink:href="#LucidaSansUnicode-48"/>
       <use x="126.464844" xlink:href="#LucidaSansUnicode-48"/>
       <use x="189.697266" xlink:href="#LucidaSansUnicode-48"/>
      </g>
     </g>
    </g>
    <g id="xtick_6">
     <g id="text_6">
      <!-- 2010 -->
      <g transform="translate(174.242909 141.825625)scale(0.06 -0.06)">
       <use xlink:href="#LucidaSansUnicode-50"/>
       <use x="63.232422" xlink:href="#LucidaSansUnicode-48"/>
       <use x="126.464844" xlink:href="#LucidaSansUnicode-49"/>
       <use x="189.697266" xlink:href="#LucidaSansUnicode-48"/>
      </g>
     </g>
    </g>
    <g id="text_7">
     <!-- year -->
     <defs>
      <path d="M 12.703125 -19.28125 
L 21.296875 0 
L 0.78125 53.03125 
L 11.1875 53.03125 
L 26.375 13.09375 
L 42.578125 53.03125 
L 51.65625 53.03125 
L 22.703125 -19.28125 
z
" id="LucidaSansUnicode-121"/>
      <path d="M 48.484375 1.703125 
Q 38.8125 -1.21875 31.9375 -1.21875 
Q 20.171875 -1.21875 12.796875 6.5625 
Q 5.421875 14.359375 5.421875 26.765625 
Q 5.421875 38.8125 11.9375 46.53125 
Q 18.453125 54.25 28.609375 54.25 
Q 38.234375 54.25 43.484375 47.390625 
Q 48.734375 40.53125 48.734375 27.9375 
L 48.6875 25 
L 15.234375 25 
Q 17.328125 6.109375 33.734375 6.109375 
Q 39.75 6.109375 48.484375 9.328125 
z
M 15.671875 32.234375 
L 39.0625 32.234375 
Q 39.0625 47.015625 28.03125 47.015625 
Q 16.9375 47.015625 15.671875 32.234375 
z
" id="LucidaSansUnicode-101"/>
      <path d="M 36.96875 6.734375 
Q 28.328125 -1.21875 20.3125 -1.21875 
Q 13.71875 -1.21875 9.375 2.90625 
Q 5.03125 7.03125 5.03125 13.328125 
Q 5.03125 22.015625 12.328125 26.671875 
Q 19.625 31.34375 33.296875 31.34375 
L 35.546875 31.34375 
L 35.546875 37.75 
Q 35.546875 46.96875 25.921875 46.96875 
Q 18.453125 46.96875 9.625 42.28125 
L 9.625 50.25 
Q 19.34375 54.203125 27.9375 54.203125 
Q 36.765625 54.203125 40.96875 50.171875 
Q 45.171875 46.140625 45.171875 37.75 
L 45.171875 13.71875 
Q 45.171875 5.46875 50.25 5.46875 
Q 50.875 5.46875 52.09375 5.671875 
L 52.78125 0.34375 
Q 49.515625 -1.21875 45.5625 -1.21875 
Q 38.8125 -1.21875 36.96875 6.734375 
z
M 35.546875 11.96875 
L 35.546875 25.6875 
L 32.46875 25.78125 
Q 24.46875 25.78125 19.5625 22.796875 
Q 14.65625 19.828125 14.65625 14.890625 
Q 14.65625 11.421875 17.09375 9.03125 
Q 19.53125 6.640625 23.046875 6.640625 
Q 29.046875 6.640625 35.546875 11.96875 
z
" id="LucidaSansUnicode-97"/>
      <path d="M 9.625 0 
L 9.625 53.03125 
L 19.234375 53.03125 
L 19.234375 43.0625 
Q 24.953125 54.203125 35.84375 54.203125 
Q 37.3125 54.203125 38.921875 53.953125 
L 38.921875 44.96875 
Q 36.421875 45.796875 34.515625 45.796875 
Q 25.390625 45.796875 19.234375 34.96875 
L 19.234375 0 
z
" id="LucidaSansUnicode-114"/>
     </defs>
     <g style="fill:#262626;" transform="translate(114.364219 151.608125)scale(0.06 -0.06)">
      <use xlink:href="#LucidaSansUnicode-121"/>
      <use x="52.246094" xlink:href="#LucidaSansUnicode-101"/>
      <use x="107.958984" xlink:href="#LucidaSansUnicode-97"/>
      <use x="163.183594" xlink:href="#LucidaSansUnicode-114"/>
     </g>
    </g>
   </g>
   <g id="matplotlib.axis_2">
    <g id="ytick_1">
     <g id="text_8">
      <!-- 10 -->
      <g transform="translate(24.686875 136.012812)scale(0.06 -0.06)">
       <use xlink:href="#LucidaSansUnicode-49"/>
       <use x="63.232422" xlink:href="#LucidaSansUnicode-48"/>
      </g>
     </g>
    </g>
    <g id="ytick_2">
     <g id="text_9">
      <!-- 20 -->
      <g transform="translate(24.686875 111.832812)scale(0.06 -0.06)">
       <use xlink:href="#LucidaSansUnicode-50"/>
       <use x="63.232422" xlink:href="#LucidaSansUnicode-48"/>
      </g>
     </g>
    </g>
    <g id="ytick_3">
     <g id="text_10">
      <!-- 30 -->
      <defs>
       <path d="M 10.15625 0.53125 
L 10.15625 9.515625 
Q 20.453125 5.421875 26.375 5.421875 
Q 33.34375 5.421875 37.671875 9.421875 
Q 42 13.421875 42 19.875 
Q 42 35.109375 20.65625 35.109375 
L 16.84375 35.109375 
L 16.84375 41.609375 
L 20.21875 41.65625 
Q 40.234375 41.65625 40.234375 55.765625 
Q 40.234375 66.84375 26.953125 66.84375 
Q 19.828125 66.84375 11.140625 62.796875 
L 11.140625 71.1875 
Q 19.671875 74.078125 27.59375 74.078125 
Q 38.375 74.078125 44.140625 69.78125 
Q 49.90625 65.484375 49.90625 57.328125 
Q 49.90625 44.578125 34.8125 39.15625 
Q 52.296875 35.109375 52.296875 20.015625 
Q 52.296875 9.8125 45.546875 4 
Q 38.8125 -1.8125 27.046875 -1.8125 
Q 20.359375 -1.8125 10.15625 0.53125 
z
" id="LucidaSansUnicode-51"/>
      </defs>
      <g transform="translate(24.686875 87.652812)scale(0.06 -0.06)">
       <use xlink:href="#LucidaSansUnicode-51"/>
       <use x="63.232422" xlink:href="#LucidaSansUnicode-48"/>
      </g>
     </g>
    </g>
    <g id="ytick_4">
     <g id="text_11">
      <!-- 40 -->
      <defs>
       <path d="M 37.640625 0 
L 37.640625 20.453125 
L 5.125 20.453125 
L 5.125 27.734375 
L 37.640625 72.265625 
L 46.6875 72.265625 
L 46.6875 28.328125 
L 56.34375 28.328125 
L 56.34375 20.453125 
L 46.6875 20.453125 
L 46.6875 0 
z
M 14.546875 28.328125 
L 38.28125 28.328125 
L 38.28125 60.453125 
z
" id="LucidaSansUnicode-52"/>
      </defs>
      <g transform="translate(24.686875 63.472813)scale(0.06 -0.06)">
       <use xlink:href="#LucidaSansUnicode-52"/>
       <use x="63.232422" xlink:href="#LucidaSansUnicode-48"/>
      </g>
     </g>
    </g>
    <g id="ytick_5">
     <g id="text_12">
      <!-- 50 -->
      <defs>
       <path d="M 12.15625 -0.296875 
L 12.15625 8.296875 
Q 19.34375 5.421875 25.828125 5.421875 
Q 32.953125 5.421875 37.03125 9.609375 
Q 41.109375 13.8125 41.109375 21.1875 
Q 41.109375 29.109375 35.34375 33.28125 
Q 29.59375 37.453125 18.703125 37.453125 
Q 16.15625 37.453125 13.375 37.109375 
L 13.375 72.265625 
L 49.953125 72.265625 
L 49.953125 63.875 
L 21.828125 63.875 
L 21.828125 44.828125 
Q 35.75 44.828125 43.5625 38.421875 
Q 51.375 32.03125 51.375 20.703125 
Q 51.375 10.15625 44.265625 4.171875 
Q 37.15625 -1.8125 24.65625 -1.8125 
Q 19.09375 -1.8125 12.15625 -0.296875 
z
" id="LucidaSansUnicode-53"/>
      </defs>
      <g transform="translate(24.686875 39.292812)scale(0.06 -0.06)">
       <use xlink:href="#LucidaSansUnicode-53"/>
       <use x="63.232422" xlink:href="#LucidaSansUnicode-48"/>
      </g>
     </g>
    </g>
    <g id="ytick_6">
     <g id="text_13">
      <!-- 60 -->
      <g transform="translate(24.686875 15.112812)scale(0.06 -0.06)">
       <use xlink:href="#LucidaSansUnicode-54"/>
       <use x="63.232422" xlink:href="#LucidaSansUnicode-48"/>
      </g>
     </g>
    </g>
    <g id="text_14">
     <!-- land area [million km$^2$] -->
     <defs>
      <path d="M 9.625 0 
L 9.625 77.09375 
L 19.234375 77.09375 
L 19.234375 0 
z
" id="LucidaSansUnicode-108"/>
      <path d="M 9.625 0 
L 9.625 53.03125 
L 19.234375 53.03125 
L 19.234375 43.0625 
Q 26.859375 54.203125 37.890625 54.203125 
Q 44.828125 54.203125 48.90625 49.828125 
Q 52.984375 45.453125 52.984375 38.09375 
L 52.984375 0 
L 43.359375 0 
L 43.359375 34.96875 
Q 43.359375 40.875 41.625 43.390625 
Q 39.890625 45.90625 35.890625 45.90625 
Q 27.046875 45.90625 19.234375 34.328125 
L 19.234375 0 
z
" id="LucidaSansUnicode-110"/>
      <path d="M 43.65625 0 
L 43.65625 9.96875 
Q 37.796875 -1.21875 25.984375 -1.21875 
Q 16.40625 -1.21875 10.90625 5.765625 
Q 5.421875 12.75 5.421875 24.859375 
Q 5.421875 38.09375 11.640625 46.140625 
Q 17.875 54.203125 28.03125 54.203125 
Q 37.453125 54.203125 43.65625 46.96875 
L 43.65625 77.09375 
L 53.328125 77.09375 
L 53.328125 0 
z
M 43.65625 40.375 
Q 36.1875 46.96875 29.5 46.96875 
Q 22.90625 46.96875 19.28125 41.453125 
Q 15.671875 35.9375 15.671875 25.828125 
Q 15.671875 7.234375 27.984375 7.234375 
Q 35.984375 7.234375 43.65625 15.96875 
z
" id="LucidaSansUnicode-100"/>
      <path id="LucidaSansUnicode-32"/>
      <path d="M 9.625 -14.453125 
L 9.625 77.09375 
L 28.90625 77.09375 
L 28.90625 69.875 
L 18.0625 69.875 
L 18.0625 -7.234375 
L 28.90625 -7.234375 
L 28.90625 -14.453125 
z
" id="LucidaSansUnicode-91"/>
      <path d="M 9.625 0 
L 9.625 53.03125 
L 19.234375 53.03125 
L 19.234375 43.0625 
Q 26.265625 54.203125 37.3125 54.203125 
Q 47.953125 54.203125 51.8125 43.0625 
Q 58.640625 54.25 69.578125 54.25 
Q 76.5625 54.25 80.4375 50.125 
Q 84.328125 46 84.328125 38.578125 
L 84.328125 0 
L 74.65625 0 
L 74.65625 37.0625 
Q 74.65625 46.140625 67.484375 46.140625 
Q 60.015625 46.140625 51.8125 35.546875 
L 51.8125 0 
L 42.140625 0 
L 42.140625 37.0625 
Q 42.140625 46.1875 34.8125 46.1875 
Q 27.546875 46.1875 19.234375 35.546875 
L 19.234375 0 
z
" id="LucidaSansUnicode-109"/>
      <path d="M 9.625 0 
L 9.625 53.03125 
L 19.234375 53.03125 
L 19.234375 0 
z
M 9.625 62.640625 
L 9.625 72.265625 
L 19.234375 72.265625 
L 19.234375 62.640625 
z
" id="LucidaSansUnicode-105"/>
      <path d="M 30.71875 -1.21875 
Q 19.046875 -1.21875 12.234375 6.25 
Q 5.421875 13.71875 5.421875 26.515625 
Q 5.421875 39.3125 12.234375 46.75 
Q 19.046875 54.203125 30.71875 54.203125 
Q 42.390625 54.203125 49.1875 46.75 
Q 56 39.3125 56 26.515625 
Q 56 13.71875 49.1875 6.25 
Q 42.390625 -1.21875 30.71875 -1.21875 
z
M 30.71875 6 
Q 37.890625 6 41.84375 11.375 
Q 45.796875 16.75 45.796875 26.515625 
Q 45.796875 36.28125 41.84375 41.625 
Q 37.890625 46.96875 30.71875 46.96875 
Q 23.53125 46.96875 19.59375 41.625 
Q 15.671875 36.28125 15.671875 26.515625 
Q 15.671875 16.75 19.59375 11.375 
Q 23.53125 6 30.71875 6 
z
" id="LucidaSansUnicode-111"/>
      <path d="M 9.625 0 
L 9.625 77.09375 
L 19.234375 77.09375 
L 19.234375 27.296875 
L 41.703125 53.03125 
L 52.046875 53.03125 
L 30.609375 28.265625 
L 56.5 0 
L 44.1875 0 
L 19.234375 27.203125 
L 19.234375 0 
z
" id="LucidaSansUnicode-107"/>
      <path d="M 46.90625 7.09375 
L 44 0 
L 3.5 0 
L 3.5 2.09375 
L 21 23.5 
L 21 23.40625 
L 26.59375 30.203125 
Q 30.5 34.90625 32.09375 36.953125 
Q 33.703125 39 35.203125 41.953125 
Q 36.703125 44.90625 36.703125 47.5 
Q 36.703125 53.703125 33.34375 57.09375 
Q 30 60.5 24.203125 60.5 
Q 19.59375 60.5 15.75 56.703125 
Q 11.90625 52.90625 10.90625 45.90625 
L 3.703125 47.59375 
Q 5.296875 56.5 11.1875 62.046875 
Q 17.09375 67.59375 24.90625 67.59375 
Q 33.59375 67.59375 39.09375 62.1875 
Q 44.59375 56.796875 44.59375 49.09375 
Q 44.59375 43.5 42.5 39.453125 
Q 40.40625 35.40625 33.703125 27 
L 17.703125 7.09375 
z
" id="STIXGeneral-Regular-120804"/>
      <path d="M 22.90625 77.09375 
L 22.90625 -14.453125 
L 3.609375 -14.453125 
L 3.609375 -7.234375 
L 14.453125 -7.234375 
L 14.453125 69.875 
L 3.609375 69.875 
L 3.609375 77.09375 
z
" id="LucidaSansUnicode-93"/>
     </defs>
     <g style="fill:#262626;" transform="translate(19.53 106.22)rotate(-90)scale(0.06 -0.06)">
      <use transform="translate(0 0.446875)" xlink:href="#LucidaSansUnicode-108"/>
      <use transform="translate(28.90625 0.446875)" xlink:href="#LucidaSansUnicode-97"/>
      <use transform="translate(84.130859 0.446875)" xlink:href="#LucidaSansUnicode-110"/>
      <use transform="translate(146.191406 0.446875)" xlink:href="#LucidaSansUnicode-100"/>
      <use transform="translate(209.130859 0.446875)" xlink:href="#LucidaSansUnicode-32"/>
      <use transform="translate(240.771484 0.446875)" xlink:href="#LucidaSansUnicode-97"/>
      <use transform="translate(295.996094 0.446875)" xlink:href="#LucidaSansUnicode-114"/>
      <use transform="translate(336.914062 0.446875)" xlink:href="#LucidaSansUnicode-101"/>
      <use transform="translate(392.626953 0.446875)" xlink:href="#LucidaSansUnicode-97"/>
      <use transform="translate(447.851562 0.446875)" xlink:href="#LucidaSansUnicode-32"/>
      <use transform="translate(479.492188 0.446875)" xlink:href="#LucidaSansUnicode-91"/>
      <use transform="translate(512.011719 0.446875)" xlink:href="#LucidaSansUnicode-109"/>
      <use transform="translate(605.371094 0.446875)" xlink:href="#LucidaSansUnicode-105"/>
      <use transform="translate(634.277344 0.446875)" xlink:href="#LucidaSansUnicode-108"/>
      <use transform="translate(663.183594 0.446875)" xlink:href="#LucidaSansUnicode-108"/>
      <use transform="translate(692.089844 0.446875)" xlink:href="#LucidaSansUnicode-105"/>
      <use transform="translate(720.996094 0.446875)" xlink:href="#LucidaSansUnicode-111"/>
      <use transform="translate(782.421875 0.446875)" xlink:href="#LucidaSansUnicode-110"/>
      <use transform="translate(844.482422 0.446875)" xlink:href="#LucidaSansUnicode-32"/>
      <use transform="translate(876.123047 0.446875)" xlink:href="#LucidaSansUnicode-107"/>
      <use transform="translate(934.570312 0.446875)" xlink:href="#LucidaSansUnicode-109"/>
      <use transform="translate(1028.722383 36.684375)scale(0.7)" xlink:href="#STIXGeneral-Regular-120804"/>
      <use transform="translate(1065.987216 0.446875)" xlink:href="#LucidaSansUnicode-93"/>
     </g>
    </g>
   </g>
   <g id="line2d_1">
    <path clip-path="url(#p0e612cb4ba)" d="M 38.696121 125.207347 
L 41.617241 125.123736 
L 44.538362 124.941897 
L 47.459483 124.883932 
L 50.380603 124.746605 
L 53.301724 124.81783 
L 56.222845 124.725191 
L 59.143966 124.436781 
L 62.065086 124.061703 
L 64.986207 124.161867 
L 67.907328 124.256123 
L 70.828448 124.254092 
L 73.749569 124.084594 
L 76.67069 124.127509 
L 79.59181 124.144716 
L 82.512931 123.83151 
L 85.434052 123.863246 
L 88.355172 123.69426 
L 91.276293 123.646925 
L 94.197414 123.517412 
L 97.118534 123.515268 
L 100.039655 123.23239 
L 102.960776 123.089792 
L 105.881897 122.632609 
L 108.803017 122.24187 
L 111.724138 122.064362 
L 114.645259 121.993326 
L 117.566379 122.00714 
L 120.4875 121.991548 
L 123.408621 121.948237 
L 126.329741 121.863868 
L 129.250862 121.950822 
L 132.171983 121.937296 
L 135.093103 121.962895 
L 138.014224 121.958144 
L 140.935345 121.948801 
L 143.856466 121.819969 
L 146.777586 121.797723 
L 149.698707 121.711929 
L 152.619828 121.795891 
L 155.540948 121.870141 
L 158.462069 121.960404 
L 161.38319 121.84806 
L 164.30431 121.68334 
L 167.225431 121.54834 
L 170.146552 121.705798 
L 173.067672 121.646492 
L 175.988793 121.60599 
L 178.909914 121.547325 
L 181.831034 121.466369 
L 184.752155 121.126445 
L 187.673276 120.88381 
L 190.594397 120.819228 
L 193.515517 120.791201 
L 196.436638 120.388253 
L 199.357759 120.262538 
L 202.278879 120.126877 
" style="fill:none;stroke:#eac264;stroke-linecap:round;"/>
    <defs>
     <path d="M 0 1 
C 0.265203 1 0.51958 0.894634 0.707107 0.707107 
C 0.894634 0.51958 1 0.265203 1 0 
C 1 -0.265203 0.894634 -0.51958 0.707107 -0.707107 
C 0.51958 -0.894634 0.265203 -1 0 -1 
C -0.265203 -1 -0.51958 -0.894634 -0.707107 -0.707107 
C -0.894634 -0.51958 -1 -0.265203 -1 0 
C -1 0.265203 -0.894634 0.51958 -0.707107 0.707107 
C -0.51958 0.894634 -0.265203 1 0 1 
z
" id="m21b0fbc452" style="stroke:#eac264;"/>
    </defs>
    <g clip-path="url(#p0e612cb4ba)">
     <use style="fill:#eac264;stroke:#eac264;" x="38.696121" xlink:href="#m21b0fbc452" y="125.207347"/>
     <use style="fill:#eac264;stroke:#eac264;" x="41.617241" xlink:href="#m21b0fbc452" y="125.123736"/>
     <use style="fill:#eac264;stroke:#eac264;" x="44.538362" xlink:href="#m21b0fbc452" y="124.941897"/>
     <use style="fill:#eac264;stroke:#eac264;" x="47.459483" xlink:href="#m21b0fbc452" y="124.883932"/>
     <use style="fill:#eac264;stroke:#eac264;" x="50.380603" xlink:href="#m21b0fbc452" y="124.746605"/>
     <use style="fill:#eac264;stroke:#eac264;" x="53.301724" xlink:href="#m21b0fbc452" y="124.81783"/>
     <use style="fill:#eac264;stroke:#eac264;" x="56.222845" xlink:href="#m21b0fbc452" y="124.725191"/>
     <use style="fill:#eac264;stroke:#eac264;" x="59.143966" xlink:href="#m21b0fbc452" y="124.436781"/>
     <use style="fill:#eac264;stroke:#eac264;" x="62.065086" xlink:href="#m21b0fbc452" y="124.061703"/>
     <use style="fill:#eac264;stroke:#eac264;" x="64.986207" xlink:href="#m21b0fbc452" y="124.161867"/>
     <use style="fill:#eac264;stroke:#eac264;" x="67.907328" xlink:href="#m21b0fbc452" y="124.256123"/>
     <use style="fill:#eac264;stroke:#eac264;" x="70.828448" xlink:href="#m21b0fbc452" y="124.254092"/>
     <use style="fill:#eac264;stroke:#eac264;" x="73.749569" xlink:href="#m21b0fbc452" y="124.084594"/>
     <use style="fill:#eac264;stroke:#eac264;" x="76.67069" xlink:href="#m21b0fbc452" y="124.127509"/>
     <use style="fill:#eac264;stroke:#eac264;" x="79.59181" xlink:href="#m21b0fbc452" y="124.144716"/>
     <use style="fill:#eac264;stroke:#eac264;" x="82.512931" xlink:href="#m21b0fbc452" y="123.83151"/>
     <use style="fill:#eac264;stroke:#eac264;" x="85.434052" xlink:href="#m21b0fbc452" y="123.863246"/>
     <use style="fill:#eac264;stroke:#eac264;" x="88.355172" xlink:href="#m21b0fbc452" y="123.69426"/>
     <use style="fill:#eac264;stroke:#eac264;" x="91.276293" xlink:href="#m21b0fbc452" y="123.646925"/>
     <use style="fill:#eac264;stroke:#eac264;" x="94.197414" xlink:href="#m21b0fbc452" y="123.517412"/>
     <use style="fill:#eac264;stroke:#eac264;" x="97.118534" xlink:href="#m21b0fbc452" y="123.515268"/>
     <use style="fill:#eac264;stroke:#eac264;" x="100.039655" xlink:href="#m21b0fbc452" y="123.23239"/>
     <use style="fill:#eac264;stroke:#eac264;" x="102.960776" xlink:href="#m21b0fbc452" y="123.089792"/>
     <use style="fill:#eac264;stroke:#eac264;" x="105.881897" xlink:href="#m21b0fbc452" y="122.632609"/>
     <use style="fill:#eac264;stroke:#eac264;" x="108.803017" xlink:href="#m21b0fbc452" y="122.24187"/>
     <use style="fill:#eac264;stroke:#eac264;" x="111.724138" xlink:href="#m21b0fbc452" y="122.064362"/>
     <use style="fill:#eac264;stroke:#eac264;" x="114.645259" xlink:href="#m21b0fbc452" y="121.993326"/>
     <use style="fill:#eac264;stroke:#eac264;" x="117.566379" xlink:href="#m21b0fbc452" y="122.00714"/>
     <use style="fill:#eac264;stroke:#eac264;" x="120.4875" xlink:href="#m21b0fbc452" y="121.991548"/>
     <use style="fill:#eac264;stroke:#eac264;" x="123.408621" xlink:href="#m21b0fbc452" y="121.948237"/>
     <use style="fill:#eac264;stroke:#eac264;" x="126.329741" xlink:href="#m21b0fbc452" y="121.863868"/>
     <use style="fill:#eac264;stroke:#eac264;" x="129.250862" xlink:href="#m21b0fbc452" y="121.950822"/>
     <use style="fill:#eac264;stroke:#eac264;" x="132.171983" xlink:href="#m21b0fbc452" y="121.937296"/>
     <use style="fill:#eac264;stroke:#eac264;" x="135.093103" xlink:href="#m21b0fbc452" y="121.962895"/>
     <use style="fill:#eac264;stroke:#eac264;" x="138.014224" xlink:href="#m21b0fbc452" y="121.958144"/>
     <use style="fill:#eac264;stroke:#eac264;" x="140.935345" xlink:href="#m21b0fbc452" y="121.948801"/>
     <use style="fill:#eac264;stroke:#eac264;" x="143.856466" xlink:href="#m21b0fbc452" y="121.819969"/>
     <use style="fill:#eac264;stroke:#eac264;" x="146.777586" xlink:href="#m21b0fbc452" y="121.797723"/>
     <use style="fill:#eac264;stroke:#eac264;" x="149.698707" xlink:href="#m21b0fbc452" y="121.711929"/>
     <use style="fill:#eac264;stroke:#eac264;" x="152.619828" xlink:href="#m21b0fbc452" y="121.795891"/>
     <use style="fill:#eac264;stroke:#eac264;" x="155.540948" xlink:href="#m21b0fbc452" y="121.870141"/>
     <use style="fill:#eac264;stroke:#eac264;" x="158.462069" xlink:href="#m21b0fbc452" y="121.960404"/>
     <use style="fill:#eac264;stroke:#eac264;" x="161.38319" xlink:href="#m21b0fbc452" y="121.84806"/>
     <use style="fill:#eac264;stroke:#eac264;" x="164.30431" xlink:href="#m21b0fbc452" y="121.68334"/>
     <use style="fill:#eac264;stroke:#eac264;" x="167.225431" xlink:href="#m21b0fbc452" y="121.54834"/>
     <use style="fill:#eac264;stroke:#eac264;" x="170.146552" xlink:href="#m21b0fbc452" y="121.705798"/>
     <use style="fill:#eac264;stroke:#eac264;" x="173.067672" xlink:href="#m21b0fbc452" y="121.646492"/>
     <use style="fill:#eac264;stroke:#eac264;" x="175.988793" xlink:href="#m21b0fbc452" y="121.60599"/>
     <use style="fill:#eac264;stroke:#eac264;" x="178.909914" xlink:href="#m21b0fbc452" y="121.547325"/>
     <use style="fill:#eac264;stroke:#eac264;" x="181.831034" xlink:href="#m21b0fbc452" y="121.466369"/>
     <use style="fill:#eac264;stroke:#eac264;" x="184.752155" xlink:href="#m21b0fbc452" y="121.126445"/>
     <use style="fill:#eac264;stroke:#eac264;" x="187.673276" xlink:href="#m21b0fbc452" y="120.88381"/>
     <use style="fill:#eac264;stroke:#eac264;" x="190.594397" xlink:href="#m21b0fbc452" y="120.819228"/>
     <use style="fill:#eac264;stroke:#eac264;" x="193.515517" xlink:href="#m21b0fbc452" y="120.791201"/>
     <use style="fill:#eac264;stroke:#eac264;" x="196.436638" xlink:href="#m21b0fbc452" y="120.388253"/>
     <use style="fill:#eac264;stroke:#eac264;" x="199.357759" xlink:href="#m21b0fbc452" y="120.262538"/>
     <use style="fill:#eac264;stroke:#eac264;" x="202.278879" xlink:href="#m21b0fbc452" y="120.126877"/>
    </g>
   </g>
   <g id="line2d_2">
    <path clip-path="url(#p0e612cb4ba)" d="M 38.696121 82.485116 
L 41.617241 82.331709 
L 44.538362 82.27242 
L 47.459483 82.117547 
L 50.380603 81.883062 
L 53.301724 81.690579 
L 56.222845 81.452692 
L 59.143966 80.91721 
L 62.065086 80.955389 
L 64.986207 81.180896 
L 67.907328 80.729063 
L 70.828448 80.477167 
L 73.749569 80.234402 
L 76.67069 79.94894 
L 79.59181 79.785218 
L 82.512931 79.894018 
L 85.434052 79.863749 
L 88.355172 79.723513 
L 91.276293 79.674754 
L 94.197414 79.42224 
L 97.118534 79.372417 
L 100.039655 79.226067 
L 102.960776 79.155965 
L 105.881897 78.88355 
L 108.803017 78.51172 
L 111.724138 78.57784 
L 114.645259 78.270106 
L 117.566379 77.840403 
L 120.4875 77.565798 
L 123.408621 77.310208 
L 126.329741 77.280854 
L 129.250862 76.270534 
L 132.171983 76.684266 
L 135.093103 76.180369 
L 138.014224 76.22465 
L 140.935345 75.98401 
L 143.856466 75.618157 
L 146.777586 75.287447 
L 149.698707 75.299417 
L 152.619828 75.115466 
L 155.540948 75.137575 
L 158.462069 75.369415 
L 161.38319 75.868389 
L 164.30431 76.908117 
L 167.225431 76.795378 
L 170.146552 76.732835 
L 173.067672 76.913913 
L 175.988793 77.182202 
L 178.909914 77.390471 
L 181.831034 77.361665 
L 184.752155 78.125904 
L 187.673276 78.349494 
L 190.594397 78.692157 
L 193.515517 78.744922 
L 196.436638 79.366879 
L 199.357759 79.55951 
L 202.278879 78.897896 
" style="fill:none;stroke:#905426;stroke-linecap:round;"/>
    <defs>
     <path d="M 0 1 
C 0.265203 1 0.51958 0.894634 0.707107 0.707107 
C 0.894634 0.51958 1 0.265203 1 0 
C 1 -0.265203 0.894634 -0.51958 0.707107 -0.707107 
C 0.51958 -0.894634 0.265203 -1 0 -1 
C -0.265203 -1 -0.51958 -0.894634 -0.707107 -0.707107 
C -0.894634 -0.51958 -1 -0.265203 -1 0 
C -1 0.265203 -0.894634 0.51958 -0.707107 0.707107 
C -0.51958 0.894634 -0.265203 1 0 1 
z
" id="m768ca37a6b" style="stroke:#905426;"/>
    </defs>
    <g clip-path="url(#p0e612cb4ba)">
     <use style="fill:#905426;stroke:#905426;" x="38.696121" xlink:href="#m768ca37a6b" y="82.485116"/>
     <use style="fill:#905426;stroke:#905426;" x="41.617241" xlink:href="#m768ca37a6b" y="82.331709"/>
     <use style="fill:#905426;stroke:#905426;" x="44.538362" xlink:href="#m768ca37a6b" y="82.27242"/>
     <use style="fill:#905426;stroke:#905426;" x="47.459483" xlink:href="#m768ca37a6b" y="82.117547"/>
     <use style="fill:#905426;stroke:#905426;" x="50.380603" xlink:href="#m768ca37a6b" y="81.883062"/>
     <use style="fill:#905426;stroke:#905426;" x="53.301724" xlink:href="#m768ca37a6b" y="81.690579"/>
     <use style="fill:#905426;stroke:#905426;" x="56.222845" xlink:href="#m768ca37a6b" y="81.452692"/>
     <use style="fill:#905426;stroke:#905426;" x="59.143966" xlink:href="#m768ca37a6b" y="80.91721"/>
     <use style="fill:#905426;stroke:#905426;" x="62.065086" xlink:href="#m768ca37a6b" y="80.955389"/>
     <use style="fill:#905426;stroke:#905426;" x="64.986207" xlink:href="#m768ca37a6b" y="81.180896"/>
     <use style="fill:#905426;stroke:#905426;" x="67.907328" xlink:href="#m768ca37a6b" y="80.729063"/>
     <use style="fill:#905426;stroke:#905426;" x="70.828448" xlink:href="#m768ca37a6b" y="80.477167"/>
     <use style="fill:#905426;stroke:#905426;" x="73.749569" xlink:href="#m768ca37a6b" y="80.234402"/>
     <use style="fill:#905426;stroke:#905426;" x="76.67069" xlink:href="#m768ca37a6b" y="79.94894"/>
     <use style="fill:#905426;stroke:#905426;" x="79.59181" xlink:href="#m768ca37a6b" y="79.785218"/>
     <use style="fill:#905426;stroke:#905426;" x="82.512931" xlink:href="#m768ca37a6b" y="79.894018"/>
     <use style="fill:#905426;stroke:#905426;" x="85.434052" xlink:href="#m768ca37a6b" y="79.863749"/>
     <use style="fill:#905426;stroke:#905426;" x="88.355172" xlink:href="#m768ca37a6b" y="79.723513"/>
     <use style="fill:#905426;stroke:#905426;" x="91.276293" xlink:href="#m768ca37a6b" y="79.674754"/>
     <use style="fill:#905426;stroke:#905426;" x="94.197414" xlink:href="#m768ca37a6b" y="79.42224"/>
     <use style="fill:#905426;stroke:#905426;" x="97.118534" xlink:href="#m768ca37a6b" y="79.372417"/>
     <use style="fill:#905426;stroke:#905426;" x="100.039655" xlink:href="#m768ca37a6b" y="79.226067"/>
     <use style="fill:#905426;stroke:#905426;" x="102.960776" xlink:href="#m768ca37a6b" y="79.155965"/>
     <use style="fill:#905426;stroke:#905426;" x="105.881897" xlink:href="#m768ca37a6b" y="78.88355"/>
     <use style="fill:#905426;stroke:#905426;" x="108.803017" xlink:href="#m768ca37a6b" y="78.51172"/>
     <use style="fill:#905426;stroke:#905426;" x="111.724138" xlink:href="#m768ca37a6b" y="78.57784"/>
     <use style="fill:#905426;stroke:#905426;" x="114.645259" xlink:href="#m768ca37a6b" y="78.270106"/>
     <use style="fill:#905426;stroke:#905426;" x="117.566379" xlink:href="#m768ca37a6b" y="77.840403"/>
     <use style="fill:#905426;stroke:#905426;" x="120.4875" xlink:href="#m768ca37a6b" y="77.565798"/>
     <use style="fill:#905426;stroke:#905426;" x="123.408621" xlink:href="#m768ca37a6b" y="77.310208"/>
     <use style="fill:#905426;stroke:#905426;" x="126.329741" xlink:href="#m768ca37a6b" y="77.280854"/>
     <use style="fill:#905426;stroke:#905426;" x="129.250862" xlink:href="#m768ca37a6b" y="76.270534"/>
     <use style="fill:#905426;stroke:#905426;" x="132.171983" xlink:href="#m768ca37a6b" y="76.684266"/>
     <use style="fill:#905426;stroke:#905426;" x="135.093103" xlink:href="#m768ca37a6b" y="76.180369"/>
     <use style="fill:#905426;stroke:#905426;" x="138.014224" xlink:href="#m768ca37a6b" y="76.22465"/>
     <use style="fill:#905426;stroke:#905426;" x="140.935345" xlink:href="#m768ca37a6b" y="75.98401"/>
     <use style="fill:#905426;stroke:#905426;" x="143.856466" xlink:href="#m768ca37a6b" y="75.618157"/>
     <use style="fill:#905426;stroke:#905426;" x="146.777586" xlink:href="#m768ca37a6b" y="75.287447"/>
     <use style="fill:#905426;stroke:#905426;" x="149.698707" xlink:href="#m768ca37a6b" y="75.299417"/>
     <use style="fill:#905426;stroke:#905426;" x="152.619828" xlink:href="#m768ca37a6b" y="75.115466"/>
     <use style="fill:#905426;stroke:#905426;" x="155.540948" xlink:href="#m768ca37a6b" y="75.137575"/>
     <use style="fill:#905426;stroke:#905426;" x="158.462069" xlink:href="#m768ca37a6b" y="75.369415"/>
     <use style="fill:#905426;stroke:#905426;" x="161.38319" xlink:href="#m768ca37a6b" y="75.868389"/>
     <use style="fill:#905426;stroke:#905426;" x="164.30431" xlink:href="#m768ca37a6b" y="76.908117"/>
     <use style="fill:#905426;stroke:#905426;" x="167.225431" xlink:href="#m768ca37a6b" y="76.795378"/>
     <use style="fill:#905426;stroke:#905426;" x="170.146552" xlink:href="#m768ca37a6b" y="76.732835"/>
     <use style="fill:#905426;stroke:#905426;" x="173.067672" xlink:href="#m768ca37a6b" y="76.913913"/>
     <use style="fill:#905426;stroke:#905426;" x="175.988793" xlink:href="#m768ca37a6b" y="77.182202"/>
     <use style="fill:#905426;stroke:#905426;" x="178.909914" xlink:href="#m768ca37a6b" y="77.390471"/>
     <use style="fill:#905426;stroke:#905426;" x="181.831034" xlink:href="#m768ca37a6b" y="77.361665"/>
     <use style="fill:#905426;stroke:#905426;" x="184.752155" xlink:href="#m768ca37a6b" y="78.125904"/>
     <use style="fill:#905426;stroke:#905426;" x="187.673276" xlink:href="#m768ca37a6b" y="78.349494"/>
     <use style="fill:#905426;stroke:#905426;" x="190.594397" xlink:href="#m768ca37a6b" y="78.692157"/>
     <use style="fill:#905426;stroke:#905426;" x="193.515517" xlink:href="#m768ca37a6b" y="78.744922"/>
     <use style="fill:#905426;stroke:#905426;" x="196.436638" xlink:href="#m768ca37a6b" y="79.366879"/>
     <use style="fill:#905426;stroke:#905426;" x="199.357759" xlink:href="#m768ca37a6b" y="79.55951"/>
     <use style="fill:#905426;stroke:#905426;" x="202.278879" xlink:href="#m768ca37a6b" y="78.897896"/>
    </g>
   </g>
   <g id="line2d_3">
    <path clip-path="url(#p0e612cb4ba)" d="M 38.696121 49.812463 
L 41.617241 49.575444 
L 44.538362 49.334317 
L 47.459483 49.121479 
L 50.380603 48.749666 
L 53.301724 48.628409 
L 56.222845 48.297883 
L 59.143966 47.473991 
L 62.065086 47.137092 
L 64.986207 47.462763 
L 67.907328 47.105186 
L 70.828448 46.851259 
L 73.749569 46.438996 
L 76.67069 46.196449 
L 79.59181 46.049933 
L 82.512931 45.845528 
L 85.434052 45.846996 
L 88.355172 45.537773 
L 91.276293 45.441679 
L 94.197414 45.059651 
L 97.118534 45.007685 
L 100.039655 44.578457 
L 102.960776 44.365757 
L 105.881897 43.636159 
L 108.803017 42.87359 
L 111.724138 42.762202 
L 114.645259 42.383432 
L 117.566379 41.967543 
L 120.4875 41.677347 
L 123.408621 41.378445 
L 126.329741 41.264721 
L 129.250862 40.341356 
L 132.171983 40.741561 
L 135.093103 40.263264 
L 138.014224 40.302793 
L 140.935345 40.052812 
L 143.856466 39.558126 
L 146.777586 39.205171 
L 149.698707 39.131345 
L 152.619828 39.031356 
L 155.540948 39.127717 
L 158.462069 39.449819 
L 161.38319 39.836448 
L 164.30431 40.711458 
L 167.225431 40.463718 
L 170.146552 40.558633 
L 173.067672 40.680406 
L 175.988793 40.908192 
L 178.909914 41.057796 
L 181.831034 40.948034 
L 184.752155 41.372349 
L 187.673276 41.353304 
L 190.594397 41.631384 
L 193.515517 41.656124 
L 196.436638 41.875132 
L 199.357759 41.942048 
L 202.278879 41.144773 
" style="fill:none;stroke:#7e9d90;stroke-linecap:round;"/>
    <defs>
     <path d="M 0 1 
C 0.265203 1 0.51958 0.894634 0.707107 0.707107 
C 0.894634 0.51958 1 0.265203 1 0 
C 1 -0.265203 0.894634 -0.51958 0.707107 -0.707107 
C 0.51958 -0.894634 0.265203 -1 0 -1 
C -0.265203 -1 -0.51958 -0.894634 -0.707107 -0.707107 
C -0.894634 -0.51958 -1 -0.265203 -1 0 
C -1 0.265203 -0.894634 0.51958 -0.707107 0.707107 
C -0.51958 0.894634 -0.265203 1 0 1 
z
" id="m6f59cd6b23" style="stroke:#7e9d90;"/>
    </defs>
    <g clip-path="url(#p0e612cb4ba)">
     <use style="fill:#7e9d90;stroke:#7e9d90;" x="38.696121" xlink:href="#m6f59cd6b23" y="49.812463"/>
     <use style="fill:#7e9d90;stroke:#7e9d90;" x="41.617241" xlink:href="#m6f59cd6b23" y="49.575444"/>
     <use style="fill:#7e9d90;stroke:#7e9d90;" x="44.538362" xlink:href="#m6f59cd6b23" y="49.334317"/>
     <use style="fill:#7e9d90;stroke:#7e9d90;" x="47.459483" xlink:href="#m6f59cd6b23" y="49.121479"/>
     <use style="fill:#7e9d90;stroke:#7e9d90;" x="50.380603" xlink:href="#m6f59cd6b23" y="48.749666"/>
     <use style="fill:#7e9d90;stroke:#7e9d90;" x="53.301724" xlink:href="#m6f59cd6b23" y="48.628409"/>
     <use style="fill:#7e9d90;stroke:#7e9d90;" x="56.222845" xlink:href="#m6f59cd6b23" y="48.297883"/>
     <use style="fill:#7e9d90;stroke:#7e9d90;" x="59.143966" xlink:href="#m6f59cd6b23" y="47.473991"/>
     <use style="fill:#7e9d90;stroke:#7e9d90;" x="62.065086" xlink:href="#m6f59cd6b23" y="47.137092"/>
     <use style="fill:#7e9d90;stroke:#7e9d90;" x="64.986207" xlink:href="#m6f59cd6b23" y="47.462763"/>
     <use style="fill:#7e9d90;stroke:#7e9d90;" x="67.907328" xlink:href="#m6f59cd6b23" y="47.105186"/>
     <use style="fill:#7e9d90;stroke:#7e9d90;" x="70.828448" xlink:href="#m6f59cd6b23" y="46.851259"/>
     <use style="fill:#7e9d90;stroke:#7e9d90;" x="73.749569" xlink:href="#m6f59cd6b23" y="46.438996"/>
     <use style="fill:#7e9d90;stroke:#7e9d90;" x="76.67069" xlink:href="#m6f59cd6b23" y="46.196449"/>
     <use style="fill:#7e9d90;stroke:#7e9d90;" x="79.59181" xlink:href="#m6f59cd6b23" y="46.049933"/>
     <use style="fill:#7e9d90;stroke:#7e9d90;" x="82.512931" xlink:href="#m6f59cd6b23" y="45.845528"/>
     <use style="fill:#7e9d90;stroke:#7e9d90;" x="85.434052" xlink:href="#m6f59cd6b23" y="45.846996"/>
     <use style="fill:#7e9d90;stroke:#7e9d90;" x="88.355172" xlink:href="#m6f59cd6b23" y="45.537773"/>
     <use style="fill:#7e9d90;stroke:#7e9d90;" x="91.276293" xlink:href="#m6f59cd6b23" y="45.441679"/>
     <use style="fill:#7e9d90;stroke:#7e9d90;" x="94.197414" xlink:href="#m6f59cd6b23" y="45.059651"/>
     <use style="fill:#7e9d90;stroke:#7e9d90;" x="97.118534" xlink:href="#m6f59cd6b23" y="45.007685"/>
     <use style="fill:#7e9d90;stroke:#7e9d90;" x="100.039655" xlink:href="#m6f59cd6b23" y="44.578457"/>
     <use style="fill:#7e9d90;stroke:#7e9d90;" x="102.960776" xlink:href="#m6f59cd6b23" y="44.365757"/>
     <use style="fill:#7e9d90;stroke:#7e9d90;" x="105.881897" xlink:href="#m6f59cd6b23" y="43.636159"/>
     <use style="fill:#7e9d90;stroke:#7e9d90;" x="108.803017" xlink:href="#m6f59cd6b23" y="42.87359"/>
     <use style="fill:#7e9d90;stroke:#7e9d90;" x="111.724138" xlink:href="#m6f59cd6b23" y="42.762202"/>
     <use style="fill:#7e9d90;stroke:#7e9d90;" x="114.645259" xlink:href="#m6f59cd6b23" y="42.383432"/>
     <use style="fill:#7e9d90;stroke:#7e9d90;" x="117.566379" xlink:href="#m6f59cd6b23" y="41.967543"/>
     <use style="fill:#7e9d90;stroke:#7e9d90;" x="120.4875" xlink:href="#m6f59cd6b23" y="41.677347"/>
     <use style="fill:#7e9d90;stroke:#7e9d90;" x="123.408621" xlink:href="#m6f59cd6b23" y="41.378445"/>
     <use style="fill:#7e9d90;stroke:#7e9d90;" x="126.329741" xlink:href="#m6f59cd6b23" y="41.264721"/>
     <use style="fill:#7e9d90;stroke:#7e9d90;" x="129.250862" xlink:href="#m6f59cd6b23" y="40.341356"/>
     <use style="fill:#7e9d90;stroke:#7e9d90;" x="132.171983" xlink:href="#m6f59cd6b23" y="40.741561"/>
     <use style="fill:#7e9d90;stroke:#7e9d90;" x="135.093103" xlink:href="#m6f59cd6b23" y="40.263264"/>
     <use style="fill:#7e9d90;stroke:#7e9d90;" x="138.014224" xlink:href="#m6f59cd6b23" y="40.302793"/>
     <use style="fill:#7e9d90;stroke:#7e9d90;" x="140.935345" xlink:href="#m6f59cd6b23" y="40.052812"/>
     <use style="fill:#7e9d90;stroke:#7e9d90;" x="143.856466" xlink:href="#m6f59cd6b23" y="39.558126"/>
     <use style="fill:#7e9d90;stroke:#7e9d90;" x="146.777586" xlink:href="#m6f59cd6b23" y="39.205171"/>
     <use style="fill:#7e9d90;stroke:#7e9d90;" x="149.698707" xlink:href="#m6f59cd6b23" y="39.131345"/>
     <use style="fill:#7e9d90;stroke:#7e9d90;" x="152.619828" xlink:href="#m6f59cd6b23" y="39.031356"/>
     <use style="fill:#7e9d90;stroke:#7e9d90;" x="155.540948" xlink:href="#m6f59cd6b23" y="39.127717"/>
     <use style="fill:#7e9d90;stroke:#7e9d90;" x="158.462069" xlink:href="#m6f59cd6b23" y="39.449819"/>
     <use style="fill:#7e9d90;stroke:#7e9d90;" x="161.38319" xlink:href="#m6f59cd6b23" y="39.836448"/>
     <use style="fill:#7e9d90;stroke:#7e9d90;" x="164.30431" xlink:href="#m6f59cd6b23" y="40.711458"/>
     <use style="fill:#7e9d90;stroke:#7e9d90;" x="167.225431" xlink:href="#m6f59cd6b23" y="40.463718"/>
     <use style="fill:#7e9d90;stroke:#7e9d90;" x="170.146552" xlink:href="#m6f59cd6b23" y="40.558633"/>
     <use style="fill:#7e9d90;stroke:#7e9d90;" x="173.067672" xlink:href="#m6f59cd6b23" y="40.680406"/>
     <use style="fill:#7e9d90;stroke:#7e9d90;" x="175.988793" xlink:href="#m6f59cd6b23" y="40.908192"/>
     <use style="fill:#7e9d90;stroke:#7e9d90;" x="178.909914" xlink:href="#m6f59cd6b23" y="41.057796"/>
     <use style="fill:#7e9d90;stroke:#7e9d90;" x="181.831034" xlink:href="#m6f59cd6b23" y="40.948034"/>
     <use style="fill:#7e9d90;stroke:#7e9d90;" x="184.752155" xlink:href="#m6f59cd6b23" y="41.372349"/>
     <use style="fill:#7e9d90;stroke:#7e9d90;" x="187.673276" xlink:href="#m6f59cd6b23" y="41.353304"/>
     <use style="fill:#7e9d90;stroke:#7e9d90;" x="190.594397" xlink:href="#m6f59cd6b23" y="41.631384"/>
     <use style="fill:#7e9d90;stroke:#7e9d90;" x="193.515517" xlink:href="#m6f59cd6b23" y="41.656124"/>
     <use style="fill:#7e9d90;stroke:#7e9d90;" x="196.436638" xlink:href="#m6f59cd6b23" y="41.875132"/>
     <use style="fill:#7e9d90;stroke:#7e9d90;" x="199.357759" xlink:href="#m6f59cd6b23" y="41.942048"/>
     <use style="fill:#7e9d90;stroke:#7e9d90;" x="202.278879" xlink:href="#m6f59cd6b23" y="41.144773"/>
    </g>
   </g>
   <g id="patch_3">
    <path d="M 35.775 133.7 
L 35.775 12.8 
" style="fill:none;stroke:#ffffff;stroke-linecap:square;stroke-linejoin:miter;stroke-width:0.8;"/>
   </g>
   <g id="patch_4">
    <path d="M 205.2 133.7 
L 205.2 12.8 
" style="fill:none;stroke:#ffffff;stroke-linecap:square;stroke-linejoin:miter;stroke-width:0.8;"/>
   </g>
   <g id="patch_5">
    <path d="M 35.775 133.7 
L 205.2 133.7 
" style="fill:none;stroke:#ffffff;stroke-linecap:square;stroke-linejoin:miter;stroke-width:0.8;"/>
   </g>
   <g id="patch_6">
    <path d="M 35.775 12.8 
L 205.2 12.8 
" style="fill:none;stroke:#ffffff;stroke-linecap:square;stroke-linejoin:miter;stroke-width:0.8;"/>
   </g>
   <g id="legend_1">
    <g id="patch_7">
     <path d="M 73.014375 26.3825 
L 201 26.3825 
Q 202.2 26.3825 202.2 25.1825 
L 202.2 17 
Q 202.2 15.8 201 15.8 
L 73.014375 15.8 
Q 71.814375 15.8 71.814375 17 
L 71.814375 25.1825 
Q 71.814375 26.3825 73.014375 26.3825 
z
" style="fill:#e3dcd0;opacity:0.8;stroke:#cccccc;stroke-linejoin:miter;"/>
    </g>
    <g id="line2d_4">
     <path d="M 74.214375 20.725625 
L 86.214375 20.725625 
" style="fill:none;stroke:#eac264;stroke-linecap:round;"/>
    </g>
    <g id="line2d_5">
     <g>
      <use style="fill:#eac264;stroke:#eac264;" x="80.214375" xlink:href="#m21b0fbc452" y="20.725625"/>
     </g>
    </g>
    <g id="text_15">
     <!-- crops -->
     <defs>
      <path d="M 46.4375 1.609375 
Q 37.109375 -1.21875 30.328125 -1.21875 
Q 19.578125 -1.21875 12.5 6.734375 
Q 5.421875 14.703125 5.421875 26.8125 
Q 5.421875 39.75 12.421875 46.96875 
Q 19.4375 54.203125 31.984375 54.203125 
Q 38.1875 54.203125 45.84375 52.484375 
L 45.84375 44.4375 
Q 37.703125 46.828125 32.5625 46.828125 
Q 25.140625 46.828125 20.703125 41.28125 
Q 16.265625 35.75 16.265625 26.515625 
Q 16.265625 17.578125 20.84375 12.0625 
Q 25.4375 6.546875 32.859375 6.546875 
Q 39.453125 6.546875 46.4375 9.90625 
z
" id="LucidaSansUnicode-99"/>
      <path d="M 9.625 -19.28125 
L 9.625 53.03125 
L 19.234375 53.03125 
L 19.234375 43.0625 
Q 25.140625 54.203125 36.96875 54.203125 
Q 46.53125 54.203125 52.015625 47.21875 
Q 57.515625 40.234375 57.515625 28.125 
Q 57.515625 14.9375 51.28125 6.859375 
Q 45.0625 -1.21875 34.90625 -1.21875 
Q 25.484375 -1.21875 19.234375 6 
L 19.234375 -19.28125 
z
M 19.234375 12.640625 
Q 26.65625 6 33.40625 6 
Q 40.046875 6 43.65625 11.546875 
Q 47.265625 17.09375 47.265625 27.15625 
Q 47.265625 45.796875 34.96875 45.796875 
Q 26.90625 45.796875 19.234375 37.0625 
z
" id="LucidaSansUnicode-112"/>
      <path d="M 7.671875 1.859375 
L 7.671875 10.6875 
Q 17.09375 6 24.078125 6 
Q 28.21875 6 30.953125 8.25 
Q 33.6875 10.5 33.6875 13.875 
Q 33.6875 18.796875 26.03125 22.015625 
L 20.40625 24.421875 
Q 7.953125 29.59375 7.953125 39.3125 
Q 7.953125 46.234375 12.859375 50.21875 
Q 17.78125 54.203125 26.3125 54.203125 
Q 30.765625 54.203125 37.3125 52.984375 
L 39.3125 52.59375 
L 39.3125 44.578125 
Q 31.25 46.96875 26.46875 46.96875 
Q 22.265625 46.96875 19.75 45.140625 
Q 17.234375 43.3125 17.234375 40.234375 
Q 17.234375 35.890625 24.265625 32.90625 
L 28.90625 30.953125 
Q 36.765625 27.640625 40.03125 23.953125 
Q 43.3125 20.265625 43.3125 14.75 
Q 43.3125 7.765625 37.796875 3.265625 
Q 32.28125 -1.21875 23.6875 -1.21875 
Q 17.09375 -1.21875 7.671875 1.859375 
z
" id="LucidaSansUnicode-115"/>
     </defs>
     <g style="fill:#262626;" transform="translate(91.014375 22.825625)scale(0.06 -0.06)">
      <use xlink:href="#LucidaSansUnicode-99"/>
      <use x="51.220703" xlink:href="#LucidaSansUnicode-114"/>
      <use x="92.138672" xlink:href="#LucidaSansUnicode-111"/>
      <use x="153.564453" xlink:href="#LucidaSansUnicode-112"/>
      <use x="216.503906" xlink:href="#LucidaSansUnicode-115"/>
     </g>
    </g>
    <g id="line2d_6">
     <path d="M 119.063437 20.725625 
L 131.063437 20.725625 
" style="fill:none;stroke:#905426;stroke-linecap:round;"/>
    </g>
    <g id="line2d_7">
     <g>
      <use style="fill:#905426;stroke:#905426;" x="125.063437" xlink:href="#m768ca37a6b" y="20.725625"/>
     </g>
    </g>
    <g id="text_16">
     <!-- pasture -->
     <defs>
      <path d="M 33.25 0 
Q 28.8125 -1.21875 25.53125 -1.21875 
Q 18.21875 -1.21875 14.109375 2.96875 
Q 10.015625 7.171875 10.015625 14.65625 
L 10.015625 45.796875 
L 3.375 45.796875 
L 3.375 53.03125 
L 10.015625 53.03125 
L 10.015625 62.640625 
L 19.625 63.578125 
L 19.625 53.03125 
L 33.5 53.03125 
L 33.5 45.796875 
L 19.625 45.796875 
L 19.625 16.40625 
Q 19.625 6 28.609375 6 
Q 30.515625 6 33.25 6.640625 
z
" id="LucidaSansUnicode-116"/>
      <path d="M 42.78125 0 
L 42.78125 9.96875 
Q 35.109375 -1.21875 24.171875 -1.21875 
Q 17.234375 -1.21875 13.125 3.140625 
Q 9.03125 7.515625 9.03125 14.9375 
L 9.03125 53.03125 
L 18.65625 53.03125 
L 18.65625 18.0625 
Q 18.65625 12.109375 20.390625 9.59375 
Q 22.125 7.078125 26.171875 7.078125 
Q 34.96875 7.078125 42.78125 18.65625 
L 42.78125 53.03125 
L 52.390625 53.03125 
L 52.390625 0 
z
" id="LucidaSansUnicode-117"/>
     </defs>
     <g style="fill:#262626;" transform="translate(135.863438 22.825625)scale(0.06 -0.06)">
      <use xlink:href="#LucidaSansUnicode-112"/>
      <use x="62.939453" xlink:href="#LucidaSansUnicode-97"/>
      <use x="118.164062" xlink:href="#LucidaSansUnicode-115"/>
      <use x="169.140625" xlink:href="#LucidaSansUnicode-116"/>
      <use x="206.542969" xlink:href="#LucidaSansUnicode-117"/>
      <use x="268.603516" xlink:href="#LucidaSansUnicode-114"/>
      <use x="309.521484" xlink:href="#LucidaSansUnicode-101"/>
     </g>
    </g>
    <g id="line2d_8">
     <path d="M 169.778437 20.725625 
L 181.778437 20.725625 
" style="fill:none;stroke:#7e9d90;stroke-linecap:round;"/>
    </g>
    <g id="line2d_9">
     <g>
      <use style="fill:#7e9d90;stroke:#7e9d90;" x="175.778437" xlink:href="#m6f59cd6b23" y="20.725625"/>
     </g>
    </g>
    <g id="text_17">
     <!-- total -->
     <g style="fill:#262626;" transform="translate(186.578438 22.825625)scale(0.06 -0.06)">
      <use xlink:href="#LucidaSansUnicode-116"/>
      <use x="37.402344" xlink:href="#LucidaSansUnicode-111"/>
      <use x="98.828125" xlink:href="#LucidaSansUnicode-116"/>
      <use x="136.230469" xlink:href="#LucidaSansUnicode-97"/>
      <use x="191.455078" xlink:href="#LucidaSansUnicode-108"/>
     </g>
    </g>
   </g>
  </g>
 </g>
 <defs>
  <clipPath id="p0e612cb4ba">
   <rect height="120.9" width="169.425" x="35.775" y="12.8"/>
  </clipPath>
 </defs>
</svg>
