<?xml version="1.0" encoding="utf-8" standalone="no"?>
<!DOCTYPE svg PUBLIC "-//W3C//DTD SVG 1.1//EN"
  "http://www.w3.org/Graphics/SVG/1.1/DTD/svg11.dtd">
<!-- Created with matplotlib (https://matplotlib.org/) -->
<svg height="126pt" version="1.1" viewBox="0 0 252 126" width="252pt" xmlns="http://www.w3.org/2000/svg" xmlns:xlink="http://www.w3.org/1999/xlink">
 <defs>
  <style type="text/css">
*{stroke-linecap:butt;stroke-linejoin:round;}
  </style>
 </defs>
 <g id="figure_1">
  <g id="patch_1">
   <path d="M 0 126 
L 252 126 
L 252 0 
L 0 0 
z
" style="fill:#ffffff;"/>
  </g>
  <g id="axes_1">
   <g id="patch_2">
    <path d="M 31.5 110.25 
L 226.8 110.25 
L 226.8 15.12 
L 31.5 15.12 
z
" style="fill:#e3dcd0;"/>
   </g>
   <g id="matplotlib.axis_1">
    <g id="xtick_1">
     <g id="text_1">
      <!-- Guangzhou -->
      <defs>
       <path d="M 63.625 1.953125 
Q 50.484375 -1.8125 40.71875 -1.8125 
Q 23.484375 -1.8125 14.28125 7.984375 
Q 5.078125 17.78125 5.078125 36.140625 
Q 5.078125 54.203125 14.421875 64.140625 
Q 23.78125 74.078125 40.71875 74.078125 
Q 51.609375 74.078125 63.53125 70.796875 
L 63.53125 61.328125 
Q 48.578125 66.40625 40.625 66.40625 
Q 28.90625 66.40625 22.4375 58.46875 
Q 15.96875 50.53125 15.96875 36.078125 
Q 15.96875 21.78125 22.890625 13.8125 
Q 29.828125 5.859375 42.328125 5.859375 
Q 47.46875 5.859375 53.421875 7.671875 
L 53.421875 31.203125 
L 63.625 31.203125 
z
" id="LucidaSansUnicode-71"/>
       <path d="M 42.78125 0 
L 42.78125 9.96875 
Q 35.109375 -1.21875 24.171875 -1.21875 
Q 17.234375 -1.21875 13.125 3.140625 
Q 9.03125 7.515625 9.03125 14.9375 
L 9.03125 53.03125 
L 18.65625 53.03125 
L 18.65625 18.0625 
Q 18.65625 12.109375 20.390625 9.59375 
Q 22.125 7.078125 26.171875 7.078125 
Q 34.96875 7.078125 42.78125 18.65625 
L 42.78125 53.03125 
L 52.390625 53.03125 
L 52.390625 0 
z
" id="LucidaSansUnicode-117"/>
       <path d="M 36.96875 6.734375 
Q 28.328125 -1.21875 20.3125 -1.21875 
Q 13.71875 -1.21875 9.375 2.90625 
Q 5.03125 7.03125 5.03125 13.328125 
Q 5.03125 22.015625 12.328125 26.671875 
Q 19.625 31.34375 33.296875 31.34375 
L 35.546875 31.34375 
L 35.546875 37.75 
Q 35.546875 46.96875 25.921875 46.96875 
Q 18.453125 46.96875 9.625 42.28125 
L 9.625 50.25 
Q 19.34375 54.203125 27.9375 54.203125 
Q 36.765625 54.203125 40.96875 50.171875 
Q 45.171875 46.140625 45.171875 37.75 
L 45.171875 13.71875 
Q 45.171875 5.46875 50.25 5.46875 
Q 50.875 5.46875 52.09375 5.671875 
L 52.78125 0.34375 
Q 49.515625 -1.21875 45.5625 -1.21875 
Q 38.8125 -1.21875 36.96875 6.734375 
z
M 35.546875 11.96875 
L 35.546875 25.6875 
L 32.46875 25.78125 
Q 24.46875 25.78125 19.5625 22.796875 
Q 14.65625 19.828125 14.65625 14.890625 
Q 14.65625 11.421875 17.09375 9.03125 
Q 19.53125 6.640625 23.046875 6.640625 
Q 29.046875 6.640625 35.546875 11.96875 
z
" id="LucidaSansUnicode-97"/>
       <path d="M 9.625 0 
L 9.625 53.03125 
L 19.234375 53.03125 
L 19.234375 43.0625 
Q 26.859375 54.203125 37.890625 54.203125 
Q 44.828125 54.203125 48.90625 49.828125 
Q 52.984375 45.453125 52.984375 38.09375 
L 52.984375 0 
L 43.359375 0 
L 43.359375 34.96875 
Q 43.359375 40.875 41.625 43.390625 
Q 39.890625 45.90625 35.890625 45.90625 
Q 27.046875 45.90625 19.234375 34.328125 
L 19.234375 0 
z
" id="LucidaSansUnicode-110"/>
       <path d="M 9.8125 -17.625 
L 10.9375 -9.28125 
Q 19.28125 -13.234375 27.4375 -13.234375 
Q 43.65625 -13.234375 43.65625 4 
L 43.65625 12.359375 
Q 41.15625 7.078125 36.546875 4.140625 
Q 31.9375 1.21875 26.265625 1.21875 
Q 16.65625 1.21875 11.03125 8.125 
Q 5.421875 15.046875 5.421875 26.859375 
Q 5.421875 38.96875 11.8125 46.578125 
Q 18.21875 54.203125 28.375 54.203125 
Q 37.25 54.203125 43.65625 46.96875 
L 43.65625 53.03125 
L 53.328125 53.03125 
L 53.328125 14.453125 
Q 53.328125 2 52.03125 -3.984375 
Q 50.734375 -9.96875 47.171875 -13.765625 
Q 40.875 -20.453125 27.484375 -20.453125 
Q 18.3125 -20.453125 9.8125 -17.625 
z
M 43.65625 18.359375 
L 43.65625 40.375 
Q 37.3125 46.96875 29.828125 46.96875 
Q 23.1875 46.96875 19.421875 41.640625 
Q 15.671875 36.328125 15.671875 26.90625 
Q 15.671875 9.625 27.9375 9.625 
Q 36.28125 9.625 43.65625 18.359375 
z
" id="LucidaSansUnicode-103"/>
       <path d="M 6 0 
L 6 7.234375 
L 38.8125 45.796875 
L 7.515625 45.796875 
L 7.515625 53.03125 
L 50.6875 53.03125 
L 50.6875 45.796875 
L 17.875 7.234375 
L 51.3125 7.234375 
L 51.3125 0 
z
" id="LucidaSansUnicode-122"/>
       <path d="M 9.625 0 
L 9.625 77.09375 
L 19.234375 77.09375 
L 19.234375 43.0625 
Q 26.859375 54.203125 37.890625 54.203125 
Q 44.828125 54.203125 48.90625 49.828125 
Q 52.984375 45.453125 52.984375 38.09375 
L 52.984375 0 
L 43.359375 0 
L 43.359375 34.96875 
Q 43.359375 40.875 41.625 43.390625 
Q 39.890625 45.90625 35.890625 45.90625 
Q 27.046875 45.90625 19.234375 34.328125 
L 19.234375 0 
z
" id="LucidaSansUnicode-104"/>
       <path d="M 30.71875 -1.21875 
Q 19.046875 -1.21875 12.234375 6.25 
Q 5.421875 13.71875 5.421875 26.515625 
Q 5.421875 39.3125 12.234375 46.75 
Q 19.046875 54.203125 30.71875 54.203125 
Q 42.390625 54.203125 49.1875 46.75 
Q 56 39.3125 56 26.515625 
Q 56 13.71875 49.1875 6.25 
Q 42.390625 -1.21875 30.71875 -1.21875 
z
M 30.71875 6 
Q 37.890625 6 41.84375 11.375 
Q 45.796875 16.75 45.796875 26.515625 
Q 45.796875 36.28125 41.84375 41.625 
Q 37.890625 46.96875 30.71875 46.96875 
Q 23.53125 46.96875 19.59375 41.625 
Q 15.671875 36.28125 15.671875 26.515625 
Q 15.671875 16.75 19.59375 11.375 
Q 23.53125 6 30.71875 6 
z
" id="LucidaSansUnicode-111"/>
      </defs>
      <g transform="translate(31.053355 133.921768)rotate(-45)scale(0.045 -0.045)">
       <use xlink:href="#LucidaSansUnicode-71"/>
       <use x="72.265625" xlink:href="#LucidaSansUnicode-117"/>
       <use x="134.326172" xlink:href="#LucidaSansUnicode-97"/>
       <use x="189.550781" xlink:href="#LucidaSansUnicode-110"/>
       <use x="251.611328" xlink:href="#LucidaSansUnicode-103"/>
       <use x="313.964844" xlink:href="#LucidaSansUnicode-122"/>
       <use x="371.289062" xlink:href="#LucidaSansUnicode-104"/>
       <use x="433.349609" xlink:href="#LucidaSansUnicode-111"/>
       <use x="494.775391" xlink:href="#LucidaSansUnicode-117"/>
      </g>
     </g>
    </g>
    <g id="xtick_2">
     <g id="text_2">
      <!-- Jakarta -->
      <defs>
       <path d="M -8.984375 -13.421875 
L -8.984375 -4.34375 
Q -3.125 -6.25 1.46875 -6.25 
Q 7.234375 -6.25 9.546875 -2.875 
Q 11.859375 0.484375 11.859375 8.796875 
L 11.859375 72.265625 
L 22.125 72.265625 
L 22.125 9.125 
Q 22.125 -14.453125 -0.203125 -14.453125 
Q -3.609375 -14.453125 -8.984375 -13.421875 
z
" id="LucidaSansUnicode-74"/>
       <path d="M 9.625 0 
L 9.625 77.09375 
L 19.234375 77.09375 
L 19.234375 27.296875 
L 41.703125 53.03125 
L 52.046875 53.03125 
L 30.609375 28.265625 
L 56.5 0 
L 44.1875 0 
L 19.234375 27.203125 
L 19.234375 0 
z
" id="LucidaSansUnicode-107"/>
       <path d="M 9.625 0 
L 9.625 53.03125 
L 19.234375 53.03125 
L 19.234375 43.0625 
Q 24.953125 54.203125 35.84375 54.203125 
Q 37.3125 54.203125 38.921875 53.953125 
L 38.921875 44.96875 
Q 36.421875 45.796875 34.515625 45.796875 
Q 25.390625 45.796875 19.234375 34.96875 
L 19.234375 0 
z
" id="LucidaSansUnicode-114"/>
       <path d="M 33.25 0 
Q 28.8125 -1.21875 25.53125 -1.21875 
Q 18.21875 -1.21875 14.109375 2.96875 
Q 10.015625 7.171875 10.015625 14.65625 
L 10.015625 45.796875 
L 3.375 45.796875 
L 3.375 53.03125 
L 10.015625 53.03125 
L 10.015625 62.640625 
L 19.625 63.578125 
L 19.625 53.03125 
L 33.5 53.03125 
L 33.5 45.796875 
L 19.625 45.796875 
L 19.625 16.40625 
Q 19.625 6 28.609375 6 
Q 30.515625 6 33.25 6.640625 
z
" id="LucidaSansUnicode-116"/>
      </defs>
      <g transform="translate(42.13617 126.816505)rotate(-45)scale(0.045 -0.045)">
       <use xlink:href="#LucidaSansUnicode-74"/>
       <use x="31.103516" xlink:href="#LucidaSansUnicode-97"/>
       <use x="86.328125" xlink:href="#LucidaSansUnicode-107"/>
       <use x="144.775391" xlink:href="#LucidaSansUnicode-97"/>
       <use x="200" xlink:href="#LucidaSansUnicode-114"/>
       <use x="240.917969" xlink:href="#LucidaSansUnicode-116"/>
       <use x="278.320312" xlink:href="#LucidaSansUnicode-97"/>
      </g>
     </g>
    </g>
    <g id="xtick_3">
     <g id="text_3">
      <!-- Tokyo -->
      <defs>
       <path d="M 26.515625 0 
L 26.515625 64.59375 
L 0.875 64.59375 
L 0.875 72.265625 
L 62.40625 72.265625 
L 62.40625 64.59375 
L 36.765625 64.59375 
L 36.765625 0 
z
" id="LucidaSansUnicode-84"/>
       <path d="M 12.703125 -19.28125 
L 21.296875 0 
L 0.78125 53.03125 
L 11.1875 53.03125 
L 26.375 13.09375 
L 42.578125 53.03125 
L 51.65625 53.03125 
L 22.703125 -19.28125 
z
" id="LucidaSansUnicode-121"/>
      </defs>
      <g transform="translate(50.232646 125.64663)rotate(-45)scale(0.045 -0.045)">
       <use xlink:href="#LucidaSansUnicode-84"/>
       <use x="63.232422" xlink:href="#LucidaSansUnicode-111"/>
       <use x="124.658203" xlink:href="#LucidaSansUnicode-107"/>
       <use x="183.105469" xlink:href="#LucidaSansUnicode-121"/>
       <use x="235.351562" xlink:href="#LucidaSansUnicode-111"/>
      </g>
     </g>
    </g>
    <g id="xtick_4">
     <g id="text_4">
      <!-- New Delhi -->
      <defs>
       <path d="M 9.328125 0 
L 9.328125 72.265625 
L 19.390625 72.265625 
L 55.765625 16.453125 
L 55.765625 72.265625 
L 64.546875 72.265625 
L 64.546875 0 
L 54.546875 0 
L 18.109375 55.8125 
L 18.109375 0 
z
" id="LucidaSansUnicode-78"/>
       <path d="M 48.484375 1.703125 
Q 38.8125 -1.21875 31.9375 -1.21875 
Q 20.171875 -1.21875 12.796875 6.5625 
Q 5.421875 14.359375 5.421875 26.765625 
Q 5.421875 38.8125 11.9375 46.53125 
Q 18.453125 54.25 28.609375 54.25 
Q 38.234375 54.25 43.484375 47.390625 
Q 48.734375 40.53125 48.734375 27.9375 
L 48.6875 25 
L 15.234375 25 
Q 17.328125 6.109375 33.734375 6.109375 
Q 39.75 6.109375 48.484375 9.328125 
z
M 15.671875 32.234375 
L 39.0625 32.234375 
Q 39.0625 47.015625 28.03125 47.015625 
Q 16.9375 47.015625 15.671875 32.234375 
z
" id="LucidaSansUnicode-101"/>
       <path d="M 15.765625 0 
L 0.59375 53.03125 
L 10.015625 53.03125 
L 21.625 11.96875 
L 34.1875 53.03125 
L 43.796875 53.03125 
L 54.78125 11.96875 
L 68.109375 53.03125 
L 76.375 53.03125 
L 59.078125 0 
L 49.421875 0 
L 38.1875 41.0625 
L 25.484375 0 
z
" id="LucidaSansUnicode-119"/>
       <path id="LucidaSansUnicode-32"/>
       <path d="M 9.328125 0 
L 9.328125 72.265625 
L 33.34375 72.265625 
Q 44.09375 72.265625 50.703125 69.875 
Q 57.328125 67.484375 62.15625 61.765625 
Q 69.828125 52.6875 69.828125 37.84375 
Q 69.828125 21.09375 60.84375 10.6875 
Q 55.953125 4.984375 49.53125 2.484375 
Q 43.109375 0 33.5 0 
z
M 19.578125 7.671875 
L 32.71875 7.671875 
Q 46.78125 7.671875 52.640625 15.234375 
Q 58.9375 23.296875 58.9375 36.859375 
Q 58.9375 49.609375 52.734375 56.890625 
Q 48.96875 61.328125 43.75 62.953125 
Q 38.53125 64.59375 28.03125 64.59375 
L 19.578125 64.59375 
z
" id="LucidaSansUnicode-68"/>
       <path d="M 9.625 0 
L 9.625 77.09375 
L 19.234375 77.09375 
L 19.234375 0 
z
" id="LucidaSansUnicode-108"/>
       <path d="M 9.625 0 
L 9.625 53.03125 
L 19.234375 53.03125 
L 19.234375 0 
z
M 9.625 62.640625 
L 9.625 72.265625 
L 19.234375 72.265625 
L 19.234375 62.640625 
z
" id="LucidaSansUnicode-105"/>
      </defs>
      <g transform="translate(54.689483 131.756032)rotate(-45)scale(0.045 -0.045)">
       <use xlink:href="#LucidaSansUnicode-78"/>
       <use x="73.876953" xlink:href="#LucidaSansUnicode-101"/>
       <use x="129.589844" xlink:href="#LucidaSansUnicode-119"/>
       <use x="206.640625" xlink:href="#LucidaSansUnicode-32"/>
       <use x="238.28125" xlink:href="#LucidaSansUnicode-68"/>
       <use x="313.183594" xlink:href="#LucidaSansUnicode-101"/>
       <use x="368.896484" xlink:href="#LucidaSansUnicode-108"/>
       <use x="397.802734" xlink:href="#LucidaSansUnicode-104"/>
       <use x="459.863281" xlink:href="#LucidaSansUnicode-105"/>
      </g>
     </g>
    </g>
    <g id="xtick_5">
     <g id="text_5">
      <!-- Shanghai -->
      <defs>
       <path d="M 4.890625 1.375 
L 4.890625 11.53125 
Q 17.09375 5.859375 25 5.859375 
Q 31 5.859375 34.6875 9.046875 
Q 38.375 12.25 38.375 17.390625 
Q 38.375 21.625 35.953125 24.609375 
Q 33.546875 27.59375 27.046875 31.25 
L 22.078125 34.125 
Q 12.84375 39.40625 9.0625 44.0625 
Q 5.28125 48.734375 5.28125 54.890625 
Q 5.28125 63.28125 11.328125 68.671875 
Q 17.390625 74.078125 26.765625 74.078125 
Q 35.109375 74.078125 44.390625 71.296875 
L 44.390625 61.921875 
Q 32.953125 66.40625 27.34375 66.40625 
Q 22.015625 66.40625 18.546875 63.578125 
Q 15.09375 60.75 15.09375 56.453125 
Q 15.09375 52.828125 17.625 50.046875 
Q 20.171875 47.265625 26.90625 43.40625 
L 32.078125 40.484375 
Q 41.453125 35.15625 45.15625 30.421875 
Q 48.875 25.6875 48.875 19.046875 
Q 48.875 9.625 41.9375 3.90625 
Q 35.015625 -1.8125 23.53125 -1.8125 
Q 16.21875 -1.8125 4.890625 1.375 
z
" id="LucidaSansUnicode-83"/>
      </defs>
      <g transform="translate(62.93064 130.259507)rotate(-45)scale(0.045 -0.045)">
       <use xlink:href="#LucidaSansUnicode-83"/>
       <use x="53.857422" xlink:href="#LucidaSansUnicode-104"/>
       <use x="115.917969" xlink:href="#LucidaSansUnicode-97"/>
       <use x="171.142578" xlink:href="#LucidaSansUnicode-110"/>
       <use x="233.203125" xlink:href="#LucidaSansUnicode-103"/>
       <use x="295.556641" xlink:href="#LucidaSansUnicode-104"/>
       <use x="357.617188" xlink:href="#LucidaSansUnicode-97"/>
       <use x="412.841797" xlink:href="#LucidaSansUnicode-105"/>
      </g>
     </g>
    </g>
    <g id="xtick_6">
     <g id="text_6">
      <!-- Dhaka -->
      <g transform="translate(72.622829 125.935494)rotate(-45)scale(0.045 -0.045)">
       <use xlink:href="#LucidaSansUnicode-68"/>
       <use x="74.902344" xlink:href="#LucidaSansUnicode-104"/>
       <use x="136.962891" xlink:href="#LucidaSansUnicode-97"/>
       <use x="192.1875" xlink:href="#LucidaSansUnicode-107"/>
       <use x="250.634766" xlink:href="#LucidaSansUnicode-97"/>
      </g>
     </g>
    </g>
    <g id="xtick_7">
     <g id="text_7">
      <!-- Mumbai -->
      <defs>
       <path d="M 9.328125 0 
L 9.328125 72.265625 
L 23.53125 72.265625 
L 43.5625 16.359375 
L 64.15625 72.265625 
L 76.859375 72.265625 
L 76.859375 0 
L 67.28125 0 
L 67.28125 58.796875 
L 47.359375 4.828125 
L 37.453125 4.828125 
L 18.109375 58.9375 
L 18.109375 0 
z
" id="LucidaSansUnicode-77"/>
       <path d="M 9.625 0 
L 9.625 53.03125 
L 19.234375 53.03125 
L 19.234375 43.0625 
Q 26.265625 54.203125 37.3125 54.203125 
Q 47.953125 54.203125 51.8125 43.0625 
Q 58.640625 54.25 69.578125 54.25 
Q 76.5625 54.25 80.4375 50.125 
Q 84.328125 46 84.328125 38.578125 
L 84.328125 0 
L 74.65625 0 
L 74.65625 37.0625 
Q 74.65625 46.140625 67.484375 46.140625 
Q 60.015625 46.140625 51.8125 35.546875 
L 51.8125 0 
L 42.140625 0 
L 42.140625 37.0625 
Q 42.140625 46.1875 34.8125 46.1875 
Q 27.546875 46.1875 19.234375 35.546875 
L 19.234375 0 
z
" id="LucidaSansUnicode-109"/>
       <path d="M 9.625 -0.59375 
L 9.625 77.09375 
L 19.234375 77.09375 
L 19.234375 43.0625 
Q 25.140625 54.203125 36.96875 54.203125 
Q 46.53125 54.203125 52.015625 47.21875 
Q 57.515625 40.234375 57.515625 28.125 
Q 57.515625 14.9375 51.28125 6.859375 
Q 45.0625 -1.21875 34.90625 -1.21875 
Q 25.484375 -1.21875 19.234375 6 
L 18.0625 -0.59375 
z
M 19.234375 12.640625 
Q 26.65625 6 33.40625 6 
Q 40.046875 6 43.65625 11.546875 
Q 47.265625 17.09375 47.265625 27.15625 
Q 47.265625 45.796875 34.96875 45.796875 
Q 26.90625 45.796875 19.234375 37.0625 
z
" id="LucidaSansUnicode-98"/>
      </defs>
      <g transform="translate(78.817575 128.56908)rotate(-45)scale(0.045 -0.045)">
       <use xlink:href="#LucidaSansUnicode-77"/>
       <use x="86.132812" xlink:href="#LucidaSansUnicode-117"/>
       <use x="148.193359" xlink:href="#LucidaSansUnicode-109"/>
       <use x="241.552734" xlink:href="#LucidaSansUnicode-98"/>
       <use x="304.492188" xlink:href="#LucidaSansUnicode-97"/>
       <use x="359.716797" xlink:href="#LucidaSansUnicode-105"/>
      </g>
     </g>
    </g>
    <g id="xtick_8">
     <g id="text_8">
      <!-- Manila -->
      <g transform="translate(87.477361 126.272585)rotate(-45)scale(0.045 -0.045)">
       <use xlink:href="#LucidaSansUnicode-77"/>
       <use x="86.132812" xlink:href="#LucidaSansUnicode-97"/>
       <use x="141.357422" xlink:href="#LucidaSansUnicode-110"/>
       <use x="203.417969" xlink:href="#LucidaSansUnicode-105"/>
       <use x="232.324219" xlink:href="#LucidaSansUnicode-108"/>
       <use x="261.230469" xlink:href="#LucidaSansUnicode-97"/>
      </g>
     </g>
    </g>
    <g id="xtick_9">
     <g id="text_9">
      <!-- Kolkata -->
      <defs>
       <path d="M 9.328125 0 
L 9.328125 72.265625 
L 18.953125 72.265625 
L 18.953125 36.71875 
L 48.1875 72.265625 
L 58.5 72.265625 
L 30.171875 37.796875 
L 63.53125 0 
L 50.53125 0 
L 18.953125 36.625 
L 18.953125 0 
z
" id="LucidaSansUnicode-75"/>
      </defs>
      <g transform="translate(94.265744 127.718894)rotate(-45)scale(0.045 -0.045)">
       <use xlink:href="#LucidaSansUnicode-75"/>
       <use x="65.283203" xlink:href="#LucidaSansUnicode-111"/>
       <use x="126.708984" xlink:href="#LucidaSansUnicode-108"/>
       <use x="155.615234" xlink:href="#LucidaSansUnicode-107"/>
       <use x="214.0625" xlink:href="#LucidaSansUnicode-97"/>
       <use x="269.287109" xlink:href="#LucidaSansUnicode-116"/>
       <use x="306.689453" xlink:href="#LucidaSansUnicode-97"/>
      </g>
     </g>
    </g>
    <g id="xtick_10">
     <g id="text_10">
      <!-- Seoul -->
      <g transform="translate(103.367279 124.538903)rotate(-45)scale(0.045 -0.045)">
       <use xlink:href="#LucidaSansUnicode-83"/>
       <use x="53.857422" xlink:href="#LucidaSansUnicode-101"/>
       <use x="109.570312" xlink:href="#LucidaSansUnicode-111"/>
       <use x="170.996094" xlink:href="#LucidaSansUnicode-117"/>
       <use x="233.056641" xlink:href="#LucidaSansUnicode-108"/>
      </g>
     </g>
    </g>
    <g id="xtick_11">
     <g id="text_11">
      <!-- Cairo -->
      <defs>
       <path d="M 63.625 3.71875 
Q 52.9375 -1.8125 40.28125 -1.8125 
Q 23.4375 -1.8125 14.25 8.046875 
Q 5.078125 17.921875 5.078125 36.078125 
Q 5.078125 54.203125 14.421875 64.140625 
Q 23.78125 74.078125 40.828125 74.078125 
Q 50.484375 74.078125 63.53125 70.90625 
L 63.53125 61.28125 
Q 48.6875 66.40625 40.625 66.40625 
Q 28.859375 66.40625 22.40625 58.4375 
Q 15.96875 50.484375 15.96875 35.984375 
Q 15.96875 22.125 22.84375 14.15625 
Q 29.734375 6.203125 41.703125 6.203125 
Q 51.90625 6.203125 63.625 12.5 
z
" id="LucidaSansUnicode-67"/>
      </defs>
      <g transform="translate(110.979248 124.33804)rotate(-45)scale(0.045 -0.045)">
       <use xlink:href="#LucidaSansUnicode-67"/>
       <use x="69.189453" xlink:href="#LucidaSansUnicode-97"/>
       <use x="124.414062" xlink:href="#LucidaSansUnicode-105"/>
       <use x="153.320312" xlink:href="#LucidaSansUnicode-114"/>
       <use x="194.238281" xlink:href="#LucidaSansUnicode-111"/>
      </g>
     </g>
    </g>
    <g id="xtick_12">
     <g id="text_12">
      <!-- Mexico City -->
      <defs>
       <path d="M 4.296875 0 
L 24.46875 27.390625 
L 4.890625 53.03125 
L 16.3125 53.03125 
L 31.78125 32.625 
L 45.796875 53.03125 
L 55.171875 53.03125 
L 36.8125 26.125 
L 56.78125 0 
L 45.359375 0 
L 29.390625 21 
L 13.96875 0 
z
" id="LucidaSansUnicode-120"/>
       <path d="M 46.4375 1.609375 
Q 37.109375 -1.21875 30.328125 -1.21875 
Q 19.578125 -1.21875 12.5 6.734375 
Q 5.421875 14.703125 5.421875 26.8125 
Q 5.421875 39.75 12.421875 46.96875 
Q 19.4375 54.203125 31.984375 54.203125 
Q 38.1875 54.203125 45.84375 52.484375 
L 45.84375 44.4375 
Q 37.703125 46.828125 32.5625 46.828125 
Q 25.140625 46.828125 20.703125 41.28125 
Q 16.265625 35.75 16.265625 26.515625 
Q 16.265625 17.578125 20.84375 12.0625 
Q 25.4375 6.546875 32.859375 6.546875 
Q 39.453125 6.546875 46.4375 9.90625 
z
" id="LucidaSansUnicode-99"/>
      </defs>
      <g transform="translate(113.583079 134.153456)rotate(-45)scale(0.045 -0.045)">
       <use xlink:href="#LucidaSansUnicode-77"/>
       <use x="86.132812" xlink:href="#LucidaSansUnicode-101"/>
       <use x="141.845703" xlink:href="#LucidaSansUnicode-120"/>
       <use x="203.173828" xlink:href="#LucidaSansUnicode-105"/>
       <use x="232.080078" xlink:href="#LucidaSansUnicode-99"/>
       <use x="283.300781" xlink:href="#LucidaSansUnicode-111"/>
       <use x="344.726562" xlink:href="#LucidaSansUnicode-32"/>
       <use x="376.367188" xlink:href="#LucidaSansUnicode-67"/>
       <use x="445.556641" xlink:href="#LucidaSansUnicode-105"/>
       <use x="474.462891" xlink:href="#LucidaSansUnicode-116"/>
       <use x="511.865234" xlink:href="#LucidaSansUnicode-121"/>
      </g>
     </g>
    </g>
    <g id="xtick_13">
     <g id="text_13">
      <!-- São Paulo -->
      <defs>
       <path d="M 36.96875 6.734375 
Q 28.328125 -1.21875 20.3125 -1.21875 
Q 13.71875 -1.21875 9.375 2.90625 
Q 5.03125 7.03125 5.03125 13.328125 
Q 5.03125 22.015625 12.328125 26.671875 
Q 19.625 31.34375 33.296875 31.34375 
L 35.546875 31.34375 
L 35.546875 37.75 
Q 35.546875 46.96875 25.921875 46.96875 
Q 18.453125 46.96875 9.625 42.28125 
L 9.625 50.25 
Q 19.34375 54.203125 27.9375 54.203125 
Q 36.765625 54.203125 40.96875 50.171875 
Q 45.171875 46.140625 45.171875 37.75 
L 45.171875 13.71875 
Q 45.171875 5.46875 50.25 5.46875 
Q 50.875 5.46875 52.09375 5.671875 
L 52.78125 0.34375 
Q 49.515625 -1.21875 45.5625 -1.21875 
Q 38.8125 -1.21875 36.96875 6.734375 
z
M 35.546875 11.96875 
L 35.546875 25.6875 
L 32.46875 25.78125 
Q 24.46875 25.78125 19.5625 22.796875 
Q 14.65625 19.828125 14.65625 14.890625 
Q 14.65625 11.421875 17.09375 9.03125 
Q 19.53125 6.640625 23.046875 6.640625 
Q 29.046875 6.640625 35.546875 11.96875 
z
M 11.421875 62.640625 
Q 11.96875 74.078125 20.453125 74.078125 
Q 24.03125 74.078125 27.046875 72.21875 
L 29.984375 70.40625 
Q 32.71875 68.703125 34.125 68.703125 
Q 37.5 68.703125 37.9375 74.078125 
L 43.953125 74.078125 
Q 43.40625 62.640625 34.90625 62.640625 
Q 31.34375 62.640625 28.328125 64.546875 
L 25.390625 66.359375 
Q 22.65625 68.015625 21.234375 68.015625 
Q 17.875 68.015625 17.4375 62.640625 
z
" id="LucidaSansUnicode-227"/>
       <path d="M 9.328125 0 
L 9.328125 72.265625 
L 29 72.265625 
Q 37.5 72.265625 42.109375 70.875 
Q 46.734375 69.484375 49.65625 65.96875 
Q 53.515625 61.328125 53.515625 53.328125 
Q 53.515625 41.796875 45.703125 35.25 
Q 37.890625 28.71875 24.03125 28.71875 
L 19.484375 28.71875 
L 19.484375 0 
z
M 19.484375 36.46875 
L 23.640625 36.46875 
Q 32.765625 36.46875 37.734375 40.671875 
Q 42.71875 44.875 42.71875 52.59375 
Q 42.71875 59.03125 38.78125 61.8125 
Q 34.859375 64.59375 25.78125 64.59375 
L 19.484375 64.59375 
z
" id="LucidaSansUnicode-80"/>
      </defs>
      <g transform="translate(122.671189 131.000312)rotate(-45)scale(0.045 -0.045)">
       <use xlink:href="#LucidaSansUnicode-83"/>
       <use x="53.857422" xlink:href="#LucidaSansUnicode-227"/>
       <use x="109.082031" xlink:href="#LucidaSansUnicode-111"/>
       <use x="170.507812" xlink:href="#LucidaSansUnicode-32"/>
       <use x="202.148438" xlink:href="#LucidaSansUnicode-80"/>
       <use x="257.421875" xlink:href="#LucidaSansUnicode-97"/>
       <use x="312.646484" xlink:href="#LucidaSansUnicode-117"/>
       <use x="374.707031" xlink:href="#LucidaSansUnicode-108"/>
       <use x="403.613281" xlink:href="#LucidaSansUnicode-111"/>
      </g>
     </g>
    </g>
    <g id="xtick_14">
     <g id="text_14">
      <!-- Beijing -->
      <defs>
       <path d="M 9.328125 0 
L 9.328125 72.265625 
L 28.078125 72.265625 
Q 38.921875 72.265625 44.703125 68.15625 
Q 50.484375 64.0625 50.484375 56.34375 
Q 50.484375 50.09375 46.625 45.203125 
Q 42.78125 40.328125 35.640625 37.640625 
Q 53.375 32.234375 53.375 18.0625 
Q 53.375 11.71875 49.46875 6.78125 
Q 46.484375 3.03125 42.28125 1.515625 
Q 38.09375 0 30.609375 0 
z
M 19.484375 7.671875 
L 21.578125 7.671875 
Q 32.859375 7.671875 36.1875 9.078125 
Q 42.53125 11.765625 42.53125 19.046875 
Q 42.53125 25.484375 36.765625 29.75 
Q 31 34.03125 22.359375 34.03125 
L 19.484375 34.03125 
z
M 19.484375 40.53125 
L 22.75 40.53125 
Q 31 40.53125 35.484375 44.046875 
Q 39.984375 47.5625 39.984375 54.046875 
Q 39.984375 64.59375 23.484375 64.59375 
L 19.484375 64.59375 
z
" id="LucidaSansUnicode-66"/>
       <path d="M -7.46875 -18.015625 
L -7.46875 -10.40625 
Q -0.734375 -13.234375 2.78125 -13.234375 
Q 6.78125 -13.234375 8.984375 -11.078125 
Q 10.453125 -9.625 10.8125 -7.765625 
Q 11.1875 -5.90625 11.1875 0 
L 11.1875 53.03125 
L 20.84375 53.03125 
L 20.84375 0 
Q 20.84375 -20.453125 3.5625 -20.453125 
Q -1.5625 -20.453125 -7.46875 -18.015625 
z
M 11.1875 62.640625 
L 11.1875 72.265625 
L 20.84375 72.265625 
L 20.84375 62.640625 
z
" id="LucidaSansUnicode-106"/>
      </defs>
      <g transform="translate(132.359153 126.535595)rotate(-45)scale(0.045 -0.045)">
       <use xlink:href="#LucidaSansUnicode-66"/>
       <use x="57.519531" xlink:href="#LucidaSansUnicode-101"/>
       <use x="113.232422" xlink:href="#LucidaSansUnicode-105"/>
       <use x="142.138672" xlink:href="#LucidaSansUnicode-106"/>
       <use x="172.558594" xlink:href="#LucidaSansUnicode-105"/>
       <use x="201.464844" xlink:href="#LucidaSansUnicode-110"/>
       <use x="263.525391" xlink:href="#LucidaSansUnicode-103"/>
      </g>
     </g>
    </g>
    <g id="xtick_15">
     <g id="text_15">
      <!-- New York -->
      <defs>
       <path d="M 24.953125 0 
L 24.953125 30.171875 
L 0.828125 72.265625 
L 12.546875 72.265625 
L 31.296875 39.65625 
L 51.515625 72.265625 
L 61.03125 72.265625 
L 35.203125 30.375 
L 35.203125 0 
z
" id="LucidaSansUnicode-89"/>
      </defs>
      <g transform="translate(137.752188 130.884468)rotate(-45)scale(0.045 -0.045)">
       <use xlink:href="#LucidaSansUnicode-78"/>
       <use x="73.876953" xlink:href="#LucidaSansUnicode-101"/>
       <use x="129.589844" xlink:href="#LucidaSansUnicode-119"/>
       <use x="206.640625" xlink:href="#LucidaSansUnicode-32"/>
       <use x="238.28125" xlink:href="#LucidaSansUnicode-89"/>
       <use x="300.585938" xlink:href="#LucidaSansUnicode-111"/>
       <use x="362.011719" xlink:href="#LucidaSansUnicode-114"/>
       <use x="402.929688" xlink:href="#LucidaSansUnicode-107"/>
      </g>
     </g>
    </g>
    <g id="xtick_16">
     <g id="text_16">
      <!-- Osaka -->
      <defs>
       <path d="M 38.875 -1.8125 
Q 23.484375 -1.8125 14.28125 8.515625 
Q 5.078125 18.84375 5.078125 36.140625 
Q 5.078125 53.421875 14.28125 63.75 
Q 23.484375 74.078125 38.875 74.078125 
Q 54.25 74.078125 63.453125 63.75 
Q 72.65625 53.421875 72.65625 36.140625 
Q 72.65625 18.84375 63.453125 8.515625 
Q 54.25 -1.8125 38.875 -1.8125 
z
M 38.875 5.859375 
Q 49.65625 5.859375 55.703125 13.890625 
Q 61.765625 21.921875 61.765625 36.234375 
Q 61.765625 50.4375 55.703125 58.421875 
Q 49.65625 66.40625 38.875 66.40625 
Q 28.078125 66.40625 22.015625 58.421875 
Q 15.96875 50.4375 15.96875 36.234375 
Q 15.96875 21.921875 22.015625 13.890625 
Q 28.078125 5.859375 38.875 5.859375 
z
" id="LucidaSansUnicode-79"/>
       <path d="M 7.671875 1.859375 
L 7.671875 10.6875 
Q 17.09375 6 24.078125 6 
Q 28.21875 6 30.953125 8.25 
Q 33.6875 10.5 33.6875 13.875 
Q 33.6875 18.796875 26.03125 22.015625 
L 20.40625 24.421875 
Q 7.953125 29.59375 7.953125 39.3125 
Q 7.953125 46.234375 12.859375 50.21875 
Q 17.78125 54.203125 26.3125 54.203125 
Q 30.765625 54.203125 37.3125 52.984375 
L 39.3125 52.59375 
L 39.3125 44.578125 
Q 31.25 46.96875 26.46875 46.96875 
Q 22.265625 46.96875 19.75 45.140625 
Q 17.234375 43.3125 17.234375 40.234375 
Q 17.234375 35.890625 24.265625 32.90625 
L 28.90625 30.953125 
Q 36.765625 27.640625 40.03125 23.953125 
Q 43.3125 20.265625 43.3125 14.75 
Q 43.3125 7.765625 37.796875 3.265625 
Q 32.28125 -1.21875 23.6875 -1.21875 
Q 17.09375 -1.21875 7.671875 1.859375 
z
" id="LucidaSansUnicode-115"/>
      </defs>
      <g transform="translate(147.870216 125.671489)rotate(-45)scale(0.045 -0.045)">
       <use xlink:href="#LucidaSansUnicode-79"/>
       <use x="77.685547" xlink:href="#LucidaSansUnicode-115"/>
       <use x="128.662109" xlink:href="#LucidaSansUnicode-97"/>
       <use x="183.886719" xlink:href="#LucidaSansUnicode-107"/>
       <use x="242.333984" xlink:href="#LucidaSansUnicode-97"/>
      </g>
     </g>
    </g>
    <g id="xtick_17">
     <g id="text_17">
      <!-- Bangkok -->
      <g transform="translate(153.486985 129.42374)rotate(-45)scale(0.045 -0.045)">
       <use xlink:href="#LucidaSansUnicode-66"/>
       <use x="57.519531" xlink:href="#LucidaSansUnicode-97"/>
       <use x="112.744141" xlink:href="#LucidaSansUnicode-110"/>
       <use x="174.804688" xlink:href="#LucidaSansUnicode-103"/>
       <use x="237.158203" xlink:href="#LucidaSansUnicode-107"/>
       <use x="295.605469" xlink:href="#LucidaSansUnicode-111"/>
       <use x="357.03125" xlink:href="#LucidaSansUnicode-107"/>
      </g>
     </g>
    </g>
    <g id="xtick_18">
     <g id="text_18">
      <!-- Los Angeles -->
      <defs>
       <path d="M 9.328125 0 
L 9.328125 72.265625 
L 19.578125 72.265625 
L 19.578125 7.671875 
L 52.09375 7.671875 
L 52.09375 0 
z
" id="LucidaSansUnicode-76"/>
       <path d="M 0.828125 0 
L 29.5 72.265625 
L 39.65625 72.265625 
L 67.875 0 
L 56.78125 0 
L 48.921875 20.015625 
L 18.3125 20.015625 
L 10.359375 0 
z
M 21.296875 27.640625 
L 45.953125 27.640625 
L 33.640625 58.796875 
z
" id="LucidaSansUnicode-65"/>
      </defs>
      <g transform="translate(158.347287 134.726212)rotate(-45)scale(0.045 -0.045)">
       <use xlink:href="#LucidaSansUnicode-76"/>
       <use x="53.320312" xlink:href="#LucidaSansUnicode-111"/>
       <use x="114.746094" xlink:href="#LucidaSansUnicode-115"/>
       <use x="165.722656" xlink:href="#LucidaSansUnicode-32"/>
       <use x="197.363281" xlink:href="#LucidaSansUnicode-65"/>
       <use x="266.357422" xlink:href="#LucidaSansUnicode-110"/>
       <use x="328.417969" xlink:href="#LucidaSansUnicode-103"/>
       <use x="390.771484" xlink:href="#LucidaSansUnicode-101"/>
       <use x="446.484375" xlink:href="#LucidaSansUnicode-108"/>
       <use x="475.390625" xlink:href="#LucidaSansUnicode-101"/>
       <use x="531.103516" xlink:href="#LucidaSansUnicode-115"/>
      </g>
     </g>
    </g>
    <g id="xtick_19">
     <g id="text_19">
      <!-- Istanbul -->
      <defs>
       <path d="M 9.28125 0 
L 9.28125 72.265625 
L 19.53125 72.265625 
L 19.53125 0 
z
" id="LucidaSansUnicode-73"/>
      </defs>
      <g transform="translate(168.959765 128.561622)rotate(-45)scale(0.045 -0.045)">
       <use xlink:href="#LucidaSansUnicode-73"/>
       <use x="28.808594" xlink:href="#LucidaSansUnicode-115"/>
       <use x="79.785156" xlink:href="#LucidaSansUnicode-116"/>
       <use x="117.1875" xlink:href="#LucidaSansUnicode-97"/>
       <use x="172.412109" xlink:href="#LucidaSansUnicode-110"/>
       <use x="234.472656" xlink:href="#LucidaSansUnicode-98"/>
       <use x="297.412109" xlink:href="#LucidaSansUnicode-117"/>
       <use x="359.472656" xlink:href="#LucidaSansUnicode-108"/>
      </g>
     </g>
    </g>
    <g id="xtick_20">
     <g id="text_20">
      <!-- Moscow -->
      <g transform="translate(176.473789 128.55665)rotate(-45)scale(0.045 -0.045)">
       <use xlink:href="#LucidaSansUnicode-77"/>
       <use x="86.132812" xlink:href="#LucidaSansUnicode-111"/>
       <use x="147.558594" xlink:href="#LucidaSansUnicode-115"/>
       <use x="198.535156" xlink:href="#LucidaSansUnicode-99"/>
       <use x="249.755859" xlink:href="#LucidaSansUnicode-111"/>
       <use x="311.181641" xlink:href="#LucidaSansUnicode-119"/>
      </g>
     </g>
    </g>
    <g id="xtick_21">
     <g id="text_21">
      <!-- Buenos Aires -->
      <g transform="translate(180.187584 136.152137)rotate(-45)scale(0.045 -0.045)">
       <use xlink:href="#LucidaSansUnicode-66"/>
       <use x="57.519531" xlink:href="#LucidaSansUnicode-117"/>
       <use x="119.580078" xlink:href="#LucidaSansUnicode-101"/>
       <use x="175.292969" xlink:href="#LucidaSansUnicode-110"/>
       <use x="237.353516" xlink:href="#LucidaSansUnicode-111"/>
       <use x="298.779297" xlink:href="#LucidaSansUnicode-115"/>
       <use x="349.755859" xlink:href="#LucidaSansUnicode-32"/>
       <use x="381.396484" xlink:href="#LucidaSansUnicode-65"/>
       <use x="450.390625" xlink:href="#LucidaSansUnicode-105"/>
       <use x="479.296875" xlink:href="#LucidaSansUnicode-114"/>
       <use x="520.214844" xlink:href="#LucidaSansUnicode-101"/>
       <use x="575.927734" xlink:href="#LucidaSansUnicode-115"/>
      </g>
     </g>
    </g>
    <g id="xtick_22">
     <g id="text_22">
      <!-- Karachi -->
      <g transform="translate(191.964717 127.620949)rotate(-45)scale(0.045 -0.045)">
       <use xlink:href="#LucidaSansUnicode-75"/>
       <use x="65.283203" xlink:href="#LucidaSansUnicode-97"/>
       <use x="120.507812" xlink:href="#LucidaSansUnicode-114"/>
       <use x="161.425781" xlink:href="#LucidaSansUnicode-97"/>
       <use x="216.650391" xlink:href="#LucidaSansUnicode-99"/>
       <use x="267.871094" xlink:href="#LucidaSansUnicode-104"/>
       <use x="329.931641" xlink:href="#LucidaSansUnicode-105"/>
      </g>
     </g>
    </g>
    <g id="xtick_23">
     <g id="text_23">
      <!-- Tehran -->
      <g transform="translate(199.788239 126.996983)rotate(-45)scale(0.045 -0.045)">
       <use xlink:href="#LucidaSansUnicode-84"/>
       <use x="63.232422" xlink:href="#LucidaSansUnicode-101"/>
       <use x="118.945312" xlink:href="#LucidaSansUnicode-104"/>
       <use x="181.005859" xlink:href="#LucidaSansUnicode-114"/>
       <use x="221.923828" xlink:href="#LucidaSansUnicode-97"/>
       <use x="277.148438" xlink:href="#LucidaSansUnicode-110"/>
      </g>
     </g>
    </g>
    <g id="xtick_24">
     <g id="text_24">
      <!-- Lagos -->
      <g transform="translate(208.151951 125.180768)rotate(-45)scale(0.045 -0.045)">
       <use xlink:href="#LucidaSansUnicode-76"/>
       <use x="53.320312" xlink:href="#LucidaSansUnicode-97"/>
       <use x="108.544922" xlink:href="#LucidaSansUnicode-103"/>
       <use x="170.898438" xlink:href="#LucidaSansUnicode-111"/>
       <use x="232.324219" xlink:href="#LucidaSansUnicode-115"/>
      </g>
     </g>
    </g>
    <g id="xtick_25">
     <g id="text_25">
      <!-- Ho Chi Minh City -->
      <defs>
       <path d="M 9.328125 0 
L 9.328125 72.265625 
L 19.578125 72.265625 
L 19.578125 41.796875 
L 53.953125 41.796875 
L 53.953125 72.265625 
L 64.203125 72.265625 
L 64.203125 0 
L 53.953125 0 
L 53.953125 34.125 
L 19.578125 34.125 
L 19.578125 0 
z
" id="LucidaSansUnicode-72"/>
      </defs>
      <g transform="translate(207.211354 142.196906)rotate(-45)scale(0.045 -0.045)">
       <use xlink:href="#LucidaSansUnicode-72"/>
       <use x="73.486328" xlink:href="#LucidaSansUnicode-111"/>
       <use x="134.912109" xlink:href="#LucidaSansUnicode-32"/>
       <use x="166.552734" xlink:href="#LucidaSansUnicode-67"/>
       <use x="235.742188" xlink:href="#LucidaSansUnicode-104"/>
       <use x="297.802734" xlink:href="#LucidaSansUnicode-105"/>
       <use x="326.708984" xlink:href="#LucidaSansUnicode-32"/>
       <use x="358.349609" xlink:href="#LucidaSansUnicode-77"/>
       <use x="444.482422" xlink:href="#LucidaSansUnicode-105"/>
       <use x="473.388672" xlink:href="#LucidaSansUnicode-110"/>
       <use x="535.449219" xlink:href="#LucidaSansUnicode-104"/>
       <use x="597.509766" xlink:href="#LucidaSansUnicode-32"/>
       <use x="629.150391" xlink:href="#LucidaSansUnicode-67"/>
       <use x="698.339844" xlink:href="#LucidaSansUnicode-105"/>
       <use x="727.246094" xlink:href="#LucidaSansUnicode-116"/>
       <use x="764.648438" xlink:href="#LucidaSansUnicode-121"/>
      </g>
     </g>
    </g>
   </g>
   <g id="matplotlib.axis_2">
    <g id="ytick_1">
     <g id="text_26">
      <!-- 0 -->
      <defs>
       <path d="M 31.640625 -1.8125 
Q 20.265625 -1.8125 13.296875 8.609375 
Q 6.34375 19.046875 6.34375 36.140625 
Q 6.34375 53.21875 13.296875 63.640625 
Q 20.265625 74.078125 31.640625 74.078125 
Q 43.0625 74.078125 50 63.671875 
Q 56.9375 53.265625 56.9375 36.140625 
Q 56.9375 19.046875 50 8.609375 
Q 43.0625 -1.8125 31.640625 -1.8125 
z
M 31.640625 5.421875 
Q 46.734375 5.421875 46.734375 36.140625 
Q 46.734375 66.84375 31.640625 66.84375 
Q 16.609375 66.84375 16.609375 36.140625 
Q 16.609375 5.421875 31.640625 5.421875 
z
" id="LucidaSansUnicode-48"/>
      </defs>
      <g transform="translate(24.205938 112.562813)scale(0.06 -0.06)">
       <use xlink:href="#LucidaSansUnicode-48"/>
      </g>
     </g>
    </g>
    <g id="ytick_2">
     <g id="text_27">
      <!-- 5 -->
      <defs>
       <path d="M 12.15625 -0.296875 
L 12.15625 8.296875 
Q 19.34375 5.421875 25.828125 5.421875 
Q 32.953125 5.421875 37.03125 9.609375 
Q 41.109375 13.8125 41.109375 21.1875 
Q 41.109375 29.109375 35.34375 33.28125 
Q 29.59375 37.453125 18.703125 37.453125 
Q 16.15625 37.453125 13.375 37.109375 
L 13.375 72.265625 
L 49.953125 72.265625 
L 49.953125 63.875 
L 21.828125 63.875 
L 21.828125 44.828125 
Q 35.75 44.828125 43.5625 38.421875 
Q 51.375 32.03125 51.375 20.703125 
Q 51.375 10.15625 44.265625 4.171875 
Q 37.15625 -1.8125 24.65625 -1.8125 
Q 19.09375 -1.8125 12.15625 -0.296875 
z
" id="LucidaSansUnicode-53"/>
      </defs>
      <g transform="translate(24.205938 93.536812)scale(0.06 -0.06)">
       <use xlink:href="#LucidaSansUnicode-53"/>
      </g>
     </g>
    </g>
    <g id="ytick_3">
     <g id="text_28">
      <!-- 10 -->
      <defs>
       <path d="M 26.171875 0 
L 26.171875 65.046875 
L 14.75 65.046875 
L 14.75 71.09375 
L 35.84375 72.90625 
L 35.84375 0 
z
" id="LucidaSansUnicode-49"/>
      </defs>
      <g transform="translate(20.411875 74.510813)scale(0.06 -0.06)">
       <use xlink:href="#LucidaSansUnicode-49"/>
       <use x="63.232422" xlink:href="#LucidaSansUnicode-48"/>
      </g>
     </g>
    </g>
    <g id="ytick_4">
     <g id="text_29">
      <!-- 15 -->
      <g transform="translate(20.411875 55.484813)scale(0.06 -0.06)">
       <use xlink:href="#LucidaSansUnicode-49"/>
       <use x="63.232422" xlink:href="#LucidaSansUnicode-53"/>
      </g>
     </g>
    </g>
    <g id="ytick_5">
     <g id="text_30">
      <!-- 20 -->
      <defs>
       <path d="M 8.296875 0 
L 8.296875 8.453125 
Q 12.5 18.265625 25.296875 29.828125 
L 30.8125 34.765625 
Q 41.453125 44.390625 41.453125 53.859375 
Q 41.453125 59.90625 37.8125 63.375 
Q 34.1875 66.84375 27.78125 66.84375 
Q 20.3125 66.84375 10.109375 61.03125 
L 10.109375 69.53125 
Q 19.734375 74.078125 29.25 74.078125 
Q 39.40625 74.078125 45.53125 68.609375 
Q 51.65625 63.140625 51.65625 54.109375 
Q 51.65625 47.609375 48.546875 42.578125 
Q 45.453125 37.546875 37.015625 30.375 
L 33.296875 27.203125 
Q 21.734375 17.390625 19.921875 8.453125 
L 51.3125 8.453125 
L 51.3125 0 
z
" id="LucidaSansUnicode-50"/>
      </defs>
      <g transform="translate(20.411875 36.458812)scale(0.06 -0.06)">
       <use xlink:href="#LucidaSansUnicode-50"/>
       <use x="63.232422" xlink:href="#LucidaSansUnicode-48"/>
      </g>
     </g>
    </g>
    <g id="ytick_6">
     <g id="text_31">
      <!-- 25 -->
      <g transform="translate(20.411875 17.432813)scale(0.06 -0.06)">
       <use xlink:href="#LucidaSansUnicode-50"/>
       <use x="63.232422" xlink:href="#LucidaSansUnicode-53"/>
      </g>
     </g>
    </g>
    <g id="text_32">
     <!-- thousand people / km$^2$ -->
     <defs>
      <path d="M 43.65625 0 
L 43.65625 9.96875 
Q 37.796875 -1.21875 25.984375 -1.21875 
Q 16.40625 -1.21875 10.90625 5.765625 
Q 5.421875 12.75 5.421875 24.859375 
Q 5.421875 38.09375 11.640625 46.140625 
Q 17.875 54.203125 28.03125 54.203125 
Q 37.453125 54.203125 43.65625 46.96875 
L 43.65625 77.09375 
L 53.328125 77.09375 
L 53.328125 0 
z
M 43.65625 40.375 
Q 36.1875 46.96875 29.5 46.96875 
Q 22.90625 46.96875 19.28125 41.453125 
Q 15.671875 35.9375 15.671875 25.828125 
Q 15.671875 7.234375 27.984375 7.234375 
Q 35.984375 7.234375 43.65625 15.96875 
z
" id="LucidaSansUnicode-100"/>
      <path d="M 9.625 -19.28125 
L 9.625 53.03125 
L 19.234375 53.03125 
L 19.234375 43.0625 
Q 25.140625 54.203125 36.96875 54.203125 
Q 46.53125 54.203125 52.015625 47.21875 
Q 57.515625 40.234375 57.515625 28.125 
Q 57.515625 14.9375 51.28125 6.859375 
Q 45.0625 -1.21875 34.90625 -1.21875 
Q 25.484375 -1.21875 19.234375 6 
L 19.234375 -19.28125 
z
M 19.234375 12.640625 
Q 26.65625 6 33.40625 6 
Q 40.046875 6 43.65625 11.546875 
Q 47.265625 17.09375 47.265625 27.15625 
Q 47.265625 45.796875 34.96875 45.796875 
Q 26.90625 45.796875 19.234375 37.0625 
z
" id="LucidaSansUnicode-112"/>
      <path d="M 10.84375 -14.453125 
L 36.53125 72.3125 
L 41.609375 72.3125 
L 15.921875 -14.453125 
z
" id="LucidaSansUnicode-47"/>
      <path d="M 46.90625 7.09375 
L 44 0 
L 3.5 0 
L 3.5 2.09375 
L 21 23.5 
L 21 23.40625 
L 26.59375 30.203125 
Q 30.5 34.90625 32.09375 36.953125 
Q 33.703125 39 35.203125 41.953125 
Q 36.703125 44.90625 36.703125 47.5 
Q 36.703125 53.703125 33.34375 57.09375 
Q 30 60.5 24.203125 60.5 
Q 19.59375 60.5 15.75 56.703125 
Q 11.90625 52.90625 10.90625 45.90625 
L 3.703125 47.59375 
Q 5.296875 56.5 11.1875 62.046875 
Q 17.09375 67.59375 24.90625 67.59375 
Q 33.59375 67.59375 39.09375 62.1875 
Q 44.59375 56.796875 44.59375 49.09375 
Q 44.59375 43.5 42.5 39.453125 
Q 40.40625 35.40625 33.703125 27 
L 17.703125 7.09375 
z
" id="STIXGeneral-Regular-120804"/>
     </defs>
     <g style="fill:#262626;" transform="translate(15.211875 96.285)rotate(-90)scale(0.06 -0.06)">
      <use transform="translate(0 0.446875)" xlink:href="#LucidaSansUnicode-116"/>
      <use transform="translate(37.402344 0.446875)" xlink:href="#LucidaSansUnicode-104"/>
      <use transform="translate(99.462891 0.446875)" xlink:href="#LucidaSansUnicode-111"/>
      <use transform="translate(160.888672 0.446875)" xlink:href="#LucidaSansUnicode-117"/>
      <use transform="translate(222.949219 0.446875)" xlink:href="#LucidaSansUnicode-115"/>
      <use transform="translate(273.925781 0.446875)" xlink:href="#LucidaSansUnicode-97"/>
      <use transform="translate(329.150391 0.446875)" xlink:href="#LucidaSansUnicode-110"/>
      <use transform="translate(391.210938 0.446875)" xlink:href="#LucidaSansUnicode-100"/>
      <use transform="translate(454.150391 0.446875)" xlink:href="#LucidaSansUnicode-32"/>
      <use transform="translate(485.791016 0.446875)" xlink:href="#LucidaSansUnicode-112"/>
      <use transform="translate(548.730469 0.446875)" xlink:href="#LucidaSansUnicode-101"/>
      <use transform="translate(604.443359 0.446875)" xlink:href="#LucidaSansUnicode-111"/>
      <use transform="translate(665.869141 0.446875)" xlink:href="#LucidaSansUnicode-112"/>
      <use transform="translate(728.808594 0.446875)" xlink:href="#LucidaSansUnicode-108"/>
      <use transform="translate(757.714844 0.446875)" xlink:href="#LucidaSansUnicode-101"/>
      <use transform="translate(813.427734 0.446875)" xlink:href="#LucidaSansUnicode-32"/>
      <use transform="translate(845.068359 0.446875)" xlink:href="#LucidaSansUnicode-47"/>
      <use transform="translate(897.509766 0.446875)" xlink:href="#LucidaSansUnicode-32"/>
      <use transform="translate(929.150391 0.446875)" xlink:href="#LucidaSansUnicode-107"/>
      <use transform="translate(987.597656 0.446875)" xlink:href="#LucidaSansUnicode-109"/>
      <use transform="translate(1081.749727 36.684375)scale(0.7)" xlink:href="#STIXGeneral-Regular-120804"/>
     </g>
    </g>
   </g>
   <g id="LineCollection_1">
    <path clip-path="url(#p6947e1000b)" d="M 31.5 90.026807 
L 234.311538 90.026807 
" style="fill:none;stroke:#905426;stroke-opacity:0.25;stroke-width:6;"/>
   </g>
   <g id="LineCollection_2">
    <path clip-path="url(#p6947e1000b)" d="M 39.011538 110.25 
L 39.011538 86.925837 
" style="fill:none;stroke:#738fc1;"/>
    <path clip-path="url(#p6947e1000b)" d="M 46.523077 110.25 
L 46.523077 82.66436 
" style="fill:none;stroke:#738fc1;"/>
    <path clip-path="url(#p6947e1000b)" d="M 54.034615 110.25 
L 54.034615 86.616881 
" style="fill:none;stroke:#738fc1;"/>
    <path clip-path="url(#p6947e1000b)" d="M 61.546154 110.25 
L 61.546154 69.246873 
" style="fill:none;stroke:#738fc1;"/>
    <path clip-path="url(#p6947e1000b)" d="M 69.057692 110.25 
L 69.057692 82.184506 
" style="fill:none;stroke:#738fc1;"/>
    <path clip-path="url(#p6947e1000b)" d="M 76.569231 110.25 
L 76.569231 82.200299 
" style="fill:none;stroke:#738fc1;"/>
    <path clip-path="url(#p6947e1000b)" d="M 84.080769 110.25 
L 84.080769 33.383256 
" style="fill:none;stroke:#738fc1;"/>
    <path clip-path="url(#p6947e1000b)" d="M 91.592308 110.25 
L 91.592308 69.59033 
" style="fill:none;stroke:#738fc1;"/>
    <path clip-path="url(#p6947e1000b)" d="M 99.103846 110.25 
L 99.103846 81.045341 
" style="fill:none;stroke:#738fc1;"/>
    <path clip-path="url(#p6947e1000b)" d="M 106.615385 110.25 
L 106.615385 76.687109 
" style="fill:none;stroke:#738fc1;"/>
    <path clip-path="url(#p6947e1000b)" d="M 114.126923 110.25 
L 114.126923 62.873254 
" style="fill:none;stroke:#738fc1;"/>
    <path clip-path="url(#p6947e1000b)" d="M 121.638462 110.25 
L 121.638462 75.042785 
" style="fill:none;stroke:#738fc1;"/>
    <path clip-path="url(#p6947e1000b)" d="M 129.15 110.25 
L 129.15 73.973753 
" style="fill:none;stroke:#738fc1;"/>
    <path clip-path="url(#p6947e1000b)" d="M 136.661538 110.25 
L 136.661538 77.896503 
" style="fill:none;stroke:#738fc1;"/>
    <path clip-path="url(#p6947e1000b)" d="M 144.173077 110.25 
L 144.173077 98.976689 
" style="fill:none;stroke:#738fc1;"/>
    <path clip-path="url(#p6947e1000b)" d="M 151.684615 110.25 
L 151.684615 91.341123 
" style="fill:none;stroke:#738fc1;"/>
    <path clip-path="url(#p6947e1000b)" d="M 159.196154 110.25 
L 159.196154 88.4222 
" style="fill:none;stroke:#738fc1;"/>
    <path clip-path="url(#p6947e1000b)" d="M 166.707692 110.25 
L 166.707692 100.602423 
" style="fill:none;stroke:#738fc1;"/>
    <path clip-path="url(#p6947e1000b)" d="M 174.219231 110.25 
L 174.219231 70.178284 
" style="fill:none;stroke:#738fc1;"/>
    <path clip-path="url(#p6947e1000b)" d="M 181.730769 110.25 
L 181.730769 81.787095 
" style="fill:none;stroke:#738fc1;"/>
    <path clip-path="url(#p6947e1000b)" d="M 189.242308 110.25 
L 189.242308 83.347592 
" style="fill:none;stroke:#738fc1;"/>
    <path clip-path="url(#p6947e1000b)" d="M 196.753846 110.25 
L 196.753846 43.794459 
" style="fill:none;stroke:#738fc1;"/>
    <path clip-path="url(#p6947e1000b)" d="M 204.265385 110.25 
L 204.265385 75.791065 
" style="fill:none;stroke:#738fc1;"/>
    <path clip-path="url(#p6947e1000b)" d="M 211.776923 110.25 
L 211.776923 73.422783 
" style="fill:none;stroke:#738fc1;"/>
    <path clip-path="url(#p6947e1000b)" d="M 219.288462 110.25 
L 219.288462 80.450796 
" style="fill:none;stroke:#738fc1;"/>
   </g>
   <g id="line2d_1">
    <defs>
     <path d="M 0 2 
C 0.530406 2 1.03916 1.789267 1.414214 1.414214 
C 1.789267 1.03916 2 0.530406 2 0 
C 2 -0.530406 1.789267 -1.03916 1.414214 -1.414214 
C 1.03916 -1.789267 0.530406 -2 0 -2 
C -0.530406 -2 -1.03916 -1.789267 -1.414214 -1.414214 
C -1.789267 -1.03916 -2 -0.530406 -2 0 
C -2 0.530406 -1.789267 1.03916 -1.414214 1.414214 
C -1.03916 1.789267 -0.530406 2 0 2 
z
" id="m3b1927e908" style="stroke:#738fc1;"/>
    </defs>
    <g clip-path="url(#p6947e1000b)">
     <use style="fill:#738fc1;stroke:#738fc1;" x="39.011538" xlink:href="#m3b1927e908" y="86.925837"/>
     <use style="fill:#738fc1;stroke:#738fc1;" x="46.523077" xlink:href="#m3b1927e908" y="82.66436"/>
     <use style="fill:#738fc1;stroke:#738fc1;" x="54.034615" xlink:href="#m3b1927e908" y="86.616881"/>
     <use style="fill:#738fc1;stroke:#738fc1;" x="61.546154" xlink:href="#m3b1927e908" y="69.246873"/>
     <use style="fill:#738fc1;stroke:#738fc1;" x="69.057692" xlink:href="#m3b1927e908" y="82.184506"/>
     <use style="fill:#738fc1;stroke:#738fc1;" x="76.569231" xlink:href="#m3b1927e908" y="82.200299"/>
     <use style="fill:#738fc1;stroke:#738fc1;" x="84.080769" xlink:href="#m3b1927e908" y="33.383256"/>
     <use style="fill:#738fc1;stroke:#738fc1;" x="91.592308" xlink:href="#m3b1927e908" y="69.59033"/>
     <use style="fill:#738fc1;stroke:#738fc1;" x="99.103846" xlink:href="#m3b1927e908" y="81.045341"/>
     <use style="fill:#738fc1;stroke:#738fc1;" x="106.615385" xlink:href="#m3b1927e908" y="76.687109"/>
     <use style="fill:#738fc1;stroke:#738fc1;" x="114.126923" xlink:href="#m3b1927e908" y="62.873254"/>
     <use style="fill:#738fc1;stroke:#738fc1;" x="121.638462" xlink:href="#m3b1927e908" y="75.042785"/>
     <use style="fill:#738fc1;stroke:#738fc1;" x="129.15" xlink:href="#m3b1927e908" y="73.973753"/>
     <use style="fill:#738fc1;stroke:#738fc1;" x="136.661538" xlink:href="#m3b1927e908" y="77.896503"/>
     <use style="fill:#738fc1;stroke:#738fc1;" x="144.173077" xlink:href="#m3b1927e908" y="98.976689"/>
     <use style="fill:#738fc1;stroke:#738fc1;" x="151.684615" xlink:href="#m3b1927e908" y="91.341123"/>
     <use style="fill:#738fc1;stroke:#738fc1;" x="159.196154" xlink:href="#m3b1927e908" y="88.4222"/>
     <use style="fill:#738fc1;stroke:#738fc1;" x="166.707692" xlink:href="#m3b1927e908" y="100.602423"/>
     <use style="fill:#738fc1;stroke:#738fc1;" x="174.219231" xlink:href="#m3b1927e908" y="70.178284"/>
     <use style="fill:#738fc1;stroke:#738fc1;" x="181.730769" xlink:href="#m3b1927e908" y="81.787095"/>
     <use style="fill:#738fc1;stroke:#738fc1;" x="189.242308" xlink:href="#m3b1927e908" y="83.347592"/>
     <use style="fill:#738fc1;stroke:#738fc1;" x="196.753846" xlink:href="#m3b1927e908" y="43.794459"/>
     <use style="fill:#738fc1;stroke:#738fc1;" x="204.265385" xlink:href="#m3b1927e908" y="75.791065"/>
     <use style="fill:#738fc1;stroke:#738fc1;" x="211.776923" xlink:href="#m3b1927e908" y="73.422783"/>
     <use style="fill:#738fc1;stroke:#738fc1;" x="219.288462" xlink:href="#m3b1927e908" y="80.450796"/>
    </g>
   </g>
   <g id="patch_3">
    <path d="M 31.5 110.25 
L 31.5 15.12 
" style="fill:none;stroke:#ffffff;stroke-linecap:square;stroke-linejoin:miter;stroke-width:0.8;"/>
   </g>
   <g id="patch_4">
    <path d="M 226.8 110.25 
L 226.8 15.12 
" style="fill:none;stroke:#ffffff;stroke-linecap:square;stroke-linejoin:miter;stroke-width:0.8;"/>
   </g>
   <g id="patch_5">
    <path d="M 31.5 110.25 
L 226.8 110.25 
" style="fill:none;stroke:#ffffff;stroke-linecap:square;stroke-linejoin:miter;stroke-width:0.8;"/>
   </g>
   <g id="patch_6">
    <path d="M 31.5 15.12 
L 226.8 15.12 
" style="fill:none;stroke:#ffffff;stroke-linecap:square;stroke-linejoin:miter;stroke-width:0.8;"/>
   </g>
   <g id="text_33">
    <!-- 40 M -->
    <defs>
     <path d="M 37.640625 0 
L 37.640625 20.453125 
L 5.125 20.453125 
L 5.125 27.734375 
L 37.640625 72.265625 
L 46.6875 72.265625 
L 46.6875 28.328125 
L 56.34375 28.328125 
L 56.34375 20.453125 
L 46.6875 20.453125 
L 46.6875 0 
z
M 14.546875 28.328125 
L 38.28125 28.328125 
L 38.28125 60.453125 
z
" id="LucidaSansUnicode-52"/>
    </defs>
    <g transform="translate(40.217404 82.957527)rotate(-90)scale(0.04 -0.04)">
     <use xlink:href="#LucidaSansUnicode-52"/>
     <use x="63.232422" xlink:href="#LucidaSansUnicode-48"/>
     <use x="126.464844" xlink:href="#LucidaSansUnicode-32"/>
     <use x="158.105469" xlink:href="#LucidaSansUnicode-77"/>
    </g>
   </g>
   <g id="text_34">
    <!-- 36 M -->
    <defs>
     <path d="M 10.15625 0.53125 
L 10.15625 9.515625 
Q 20.453125 5.421875 26.375 5.421875 
Q 33.34375 5.421875 37.671875 9.421875 
Q 42 13.421875 42 19.875 
Q 42 35.109375 20.65625 35.109375 
L 16.84375 35.109375 
L 16.84375 41.609375 
L 20.21875 41.65625 
Q 40.234375 41.65625 40.234375 55.765625 
Q 40.234375 66.84375 26.953125 66.84375 
Q 19.828125 66.84375 11.140625 62.796875 
L 11.140625 71.1875 
Q 19.671875 74.078125 27.59375 74.078125 
Q 38.375 74.078125 44.140625 69.78125 
Q 49.90625 65.484375 49.90625 57.328125 
Q 49.90625 44.578125 34.8125 39.15625 
Q 52.296875 35.109375 52.296875 20.015625 
Q 52.296875 9.8125 45.546875 4 
Q 38.8125 -1.8125 27.046875 -1.8125 
Q 20.359375 -1.8125 10.15625 0.53125 
z
" id="LucidaSansUnicode-51"/>
     <path d="M 17.1875 37.453125 
Q 24.078125 46.390625 34.515625 46.390625 
Q 44 46.390625 50.03125 40.109375 
Q 56.0625 33.84375 56.0625 24.03125 
Q 56.0625 12.75 49.296875 5.46875 
Q 42.53125 -1.8125 32.078125 -1.8125 
Q 20.171875 -1.8125 13.421875 7.828125 
Q 6.6875 17.484375 6.6875 34.515625 
Q 6.6875 57.46875 18.453125 68.21875 
Q 24.859375 74.125 36.140625 74.125 
Q 42.671875 74.125 52.34375 71.390625 
L 52.34375 62.984375 
Q 42.140625 66.890625 35.546875 66.890625 
Q 17.1875 66.890625 17.1875 37.453125 
z
M 46.390625 22.125 
Q 46.390625 30.125 42.671875 34.78125 
Q 38.96875 39.453125 32.515625 39.453125 
Q 26.375 39.453125 21.96875 35.34375 
Q 17.578125 31.25 17.578125 25.484375 
Q 17.578125 16.40625 21.75 10.90625 
Q 25.921875 5.421875 32.8125 5.421875 
Q 39.0625 5.421875 42.71875 9.90625 
Q 46.390625 14.40625 46.390625 22.125 
z
" id="LucidaSansUnicode-54"/>
    </defs>
    <g transform="translate(47.728942 78.69605)rotate(-90)scale(0.04 -0.04)">
     <use xlink:href="#LucidaSansUnicode-51"/>
     <use x="63.232422" xlink:href="#LucidaSansUnicode-54"/>
     <use x="126.464844" xlink:href="#LucidaSansUnicode-32"/>
     <use x="158.105469" xlink:href="#LucidaSansUnicode-77"/>
    </g>
   </g>
   <g id="text_35">
    <!-- 33 M -->
    <g transform="translate(55.240481 82.648571)rotate(-90)scale(0.04 -0.04)">
     <use xlink:href="#LucidaSansUnicode-51"/>
     <use x="63.232422" xlink:href="#LucidaSansUnicode-51"/>
     <use x="126.464844" xlink:href="#LucidaSansUnicode-32"/>
     <use x="158.105469" xlink:href="#LucidaSansUnicode-77"/>
    </g>
   </g>
   <g id="text_36">
    <!-- 26 M -->
    <g transform="translate(62.752019 65.278563)rotate(-90)scale(0.04 -0.04)">
     <use xlink:href="#LucidaSansUnicode-50"/>
     <use x="63.232422" xlink:href="#LucidaSansUnicode-54"/>
     <use x="126.464844" xlink:href="#LucidaSansUnicode-32"/>
     <use x="158.105469" xlink:href="#LucidaSansUnicode-77"/>
    </g>
   </g>
   <g id="text_37">
    <!-- 24 M -->
    <g transform="translate(70.263558 78.216196)rotate(-90)scale(0.04 -0.04)">
     <use xlink:href="#LucidaSansUnicode-50"/>
     <use x="63.232422" xlink:href="#LucidaSansUnicode-52"/>
     <use x="126.464844" xlink:href="#LucidaSansUnicode-32"/>
     <use x="158.105469" xlink:href="#LucidaSansUnicode-77"/>
    </g>
   </g>
   <g id="text_38">
    <!-- 23 M -->
    <g transform="translate(77.775096 78.231989)rotate(-90)scale(0.04 -0.04)">
     <use xlink:href="#LucidaSansUnicode-50"/>
     <use x="63.232422" xlink:href="#LucidaSansUnicode-51"/>
     <use x="126.464844" xlink:href="#LucidaSansUnicode-32"/>
     <use x="158.105469" xlink:href="#LucidaSansUnicode-77"/>
    </g>
   </g>
   <g id="text_39">
    <!-- 21 M -->
    <g transform="translate(85.286635 29.414946)rotate(-90)scale(0.04 -0.04)">
     <use xlink:href="#LucidaSansUnicode-50"/>
     <use x="63.232422" xlink:href="#LucidaSansUnicode-49"/>
     <use x="126.464844" xlink:href="#LucidaSansUnicode-32"/>
     <use x="158.105469" xlink:href="#LucidaSansUnicode-77"/>
    </g>
   </g>
   <g id="text_40">
    <!-- 21 M -->
    <g transform="translate(92.798173 65.62202)rotate(-90)scale(0.04 -0.04)">
     <use xlink:href="#LucidaSansUnicode-50"/>
     <use x="63.232422" xlink:href="#LucidaSansUnicode-49"/>
     <use x="126.464844" xlink:href="#LucidaSansUnicode-32"/>
     <use x="158.105469" xlink:href="#LucidaSansUnicode-77"/>
    </g>
   </g>
   <g id="text_41">
    <!-- 21 M -->
    <g transform="translate(100.309712 77.077031)rotate(-90)scale(0.04 -0.04)">
     <use xlink:href="#LucidaSansUnicode-50"/>
     <use x="63.232422" xlink:href="#LucidaSansUnicode-49"/>
     <use x="126.464844" xlink:href="#LucidaSansUnicode-32"/>
     <use x="158.105469" xlink:href="#LucidaSansUnicode-77"/>
    </g>
   </g>
   <g id="text_42">
    <!-- 21 M -->
    <g transform="translate(107.82125 72.718799)rotate(-90)scale(0.04 -0.04)">
     <use xlink:href="#LucidaSansUnicode-50"/>
     <use x="63.232422" xlink:href="#LucidaSansUnicode-49"/>
     <use x="126.464844" xlink:href="#LucidaSansUnicode-32"/>
     <use x="158.105469" xlink:href="#LucidaSansUnicode-77"/>
    </g>
   </g>
   <g id="text_43">
    <!-- 19 M -->
    <defs>
     <path d="M 11.375 0.4375 
L 11.375 8.59375 
Q 20.5625 5.421875 27 5.421875 
Q 35.984375 5.421875 41.03125 13.0625 
Q 46.09375 20.703125 46.09375 34.328125 
Q 38.765625 25.296875 29.4375 25.296875 
Q 20.3125 25.296875 13.96875 32 
Q 7.625 38.71875 7.625 48.390625 
Q 7.625 59.46875 14.375 66.765625 
Q 21.140625 74.078125 31.390625 74.078125 
Q 43.171875 74.078125 49.953125 64.625 
Q 56.734375 55.171875 56.734375 38.765625 
Q 56.734375 28.328125 53.46875 19.109375 
Q 50.203125 9.90625 44.671875 4.78125 
Q 37.59375 -1.8125 26.078125 -1.8125 
Q 20.40625 -1.8125 11.375 0.4375 
z
M 17.234375 50.046875 
Q 17.234375 41.796875 20.984375 37.015625 
Q 24.75 32.234375 31.15625 32.234375 
Q 37.3125 32.234375 41.625 36.375 
Q 45.953125 40.53125 45.953125 46.390625 
Q 45.953125 55.609375 41.765625 61.25 
Q 37.59375 66.890625 30.8125 66.890625 
Q 24.46875 66.890625 20.84375 62.390625 
Q 17.234375 57.90625 17.234375 50.046875 
z
" id="LucidaSansUnicode-57"/>
    </defs>
    <g transform="translate(115.332788 58.904944)rotate(-90)scale(0.04 -0.04)">
     <use xlink:href="#LucidaSansUnicode-49"/>
     <use x="63.232422" xlink:href="#LucidaSansUnicode-57"/>
     <use x="126.464844" xlink:href="#LucidaSansUnicode-32"/>
     <use x="158.105469" xlink:href="#LucidaSansUnicode-77"/>
    </g>
   </g>
   <g id="text_44">
    <!-- 19 M -->
    <g transform="translate(122.844327 71.074475)rotate(-90)scale(0.04 -0.04)">
     <use xlink:href="#LucidaSansUnicode-49"/>
     <use x="63.232422" xlink:href="#LucidaSansUnicode-57"/>
     <use x="126.464844" xlink:href="#LucidaSansUnicode-32"/>
     <use x="158.105469" xlink:href="#LucidaSansUnicode-77"/>
    </g>
   </g>
   <g id="text_45">
    <!-- 19 M -->
    <g transform="translate(130.355865 70.005443)rotate(-90)scale(0.04 -0.04)">
     <use xlink:href="#LucidaSansUnicode-49"/>
     <use x="63.232422" xlink:href="#LucidaSansUnicode-57"/>
     <use x="126.464844" xlink:href="#LucidaSansUnicode-32"/>
     <use x="158.105469" xlink:href="#LucidaSansUnicode-77"/>
    </g>
   </g>
   <g id="text_46">
    <!-- 17 M -->
    <defs>
     <path d="M 15.046875 0 
Q 16.453125 8.453125 19.0625 14.59375 
Q 21.6875 20.75 28.328125 31.5 
L 48.046875 63.234375 
L 10.84375 63.234375 
L 10.84375 72.265625 
L 57.234375 72.265625 
L 57.234375 63.234375 
Q 29.4375 22.265625 26.125 0 
z
" id="LucidaSansUnicode-55"/>
    </defs>
    <g transform="translate(137.867404 73.928193)rotate(-90)scale(0.04 -0.04)">
     <use xlink:href="#LucidaSansUnicode-49"/>
     <use x="63.232422" xlink:href="#LucidaSansUnicode-55"/>
     <use x="126.464844" xlink:href="#LucidaSansUnicode-32"/>
     <use x="158.105469" xlink:href="#LucidaSansUnicode-77"/>
    </g>
   </g>
   <g id="text_47">
    <!-- 15 M -->
    <g transform="translate(145.378942 95.008379)rotate(-90)scale(0.04 -0.04)">
     <use xlink:href="#LucidaSansUnicode-49"/>
     <use x="63.232422" xlink:href="#LucidaSansUnicode-53"/>
     <use x="126.464844" xlink:href="#LucidaSansUnicode-32"/>
     <use x="158.105469" xlink:href="#LucidaSansUnicode-77"/>
    </g>
   </g>
   <g id="text_48">
    <!-- 15 M -->
    <g transform="translate(152.890481 87.372813)rotate(-90)scale(0.04 -0.04)">
     <use xlink:href="#LucidaSansUnicode-49"/>
     <use x="63.232422" xlink:href="#LucidaSansUnicode-53"/>
     <use x="126.464844" xlink:href="#LucidaSansUnicode-32"/>
     <use x="158.105469" xlink:href="#LucidaSansUnicode-77"/>
    </g>
   </g>
   <g id="text_49">
    <!-- 14 M -->
    <g transform="translate(160.402019 84.45389)rotate(-90)scale(0.04 -0.04)">
     <use xlink:href="#LucidaSansUnicode-49"/>
     <use x="63.232422" xlink:href="#LucidaSansUnicode-52"/>
     <use x="126.464844" xlink:href="#LucidaSansUnicode-32"/>
     <use x="158.105469" xlink:href="#LucidaSansUnicode-77"/>
    </g>
   </g>
   <g id="text_50">
    <!-- 14 M -->
    <g transform="translate(167.913558 96.634113)rotate(-90)scale(0.04 -0.04)">
     <use xlink:href="#LucidaSansUnicode-49"/>
     <use x="63.232422" xlink:href="#LucidaSansUnicode-52"/>
     <use x="126.464844" xlink:href="#LucidaSansUnicode-32"/>
     <use x="158.105469" xlink:href="#LucidaSansUnicode-77"/>
    </g>
   </g>
   <g id="text_51">
    <!-- 14 M -->
    <g transform="translate(175.425096 66.209974)rotate(-90)scale(0.04 -0.04)">
     <use xlink:href="#LucidaSansUnicode-49"/>
     <use x="63.232422" xlink:href="#LucidaSansUnicode-52"/>
     <use x="126.464844" xlink:href="#LucidaSansUnicode-32"/>
     <use x="158.105469" xlink:href="#LucidaSansUnicode-77"/>
    </g>
   </g>
   <g id="text_52">
    <!-- 14 M -->
    <g transform="translate(182.936635 77.818785)rotate(-90)scale(0.04 -0.04)">
     <use xlink:href="#LucidaSansUnicode-49"/>
     <use x="63.232422" xlink:href="#LucidaSansUnicode-52"/>
     <use x="126.464844" xlink:href="#LucidaSansUnicode-32"/>
     <use x="158.105469" xlink:href="#LucidaSansUnicode-77"/>
    </g>
   </g>
   <g id="text_53">
    <!-- 13 M -->
    <g transform="translate(190.448173 79.379282)rotate(-90)scale(0.04 -0.04)">
     <use xlink:href="#LucidaSansUnicode-49"/>
     <use x="63.232422" xlink:href="#LucidaSansUnicode-51"/>
     <use x="126.464844" xlink:href="#LucidaSansUnicode-32"/>
     <use x="158.105469" xlink:href="#LucidaSansUnicode-77"/>
    </g>
   </g>
   <g id="text_54">
    <!-- 13 M -->
    <g transform="translate(197.959712 39.826149)rotate(-90)scale(0.04 -0.04)">
     <use xlink:href="#LucidaSansUnicode-49"/>
     <use x="63.232422" xlink:href="#LucidaSansUnicode-51"/>
     <use x="126.464844" xlink:href="#LucidaSansUnicode-32"/>
     <use x="158.105469" xlink:href="#LucidaSansUnicode-77"/>
    </g>
   </g>
   <g id="text_55">
    <!-- 12 M -->
    <g transform="translate(205.47125 71.822755)rotate(-90)scale(0.04 -0.04)">
     <use xlink:href="#LucidaSansUnicode-49"/>
     <use x="63.232422" xlink:href="#LucidaSansUnicode-50"/>
     <use x="126.464844" xlink:href="#LucidaSansUnicode-32"/>
     <use x="158.105469" xlink:href="#LucidaSansUnicode-77"/>
    </g>
   </g>
   <g id="text_56">
    <!-- 11 M -->
    <g transform="translate(212.982788 69.454473)rotate(-90)scale(0.04 -0.04)">
     <use xlink:href="#LucidaSansUnicode-49"/>
     <use x="63.232422" xlink:href="#LucidaSansUnicode-49"/>
     <use x="126.464844" xlink:href="#LucidaSansUnicode-32"/>
     <use x="158.105469" xlink:href="#LucidaSansUnicode-77"/>
    </g>
   </g>
   <g id="text_57">
    <!-- 11 M -->
    <g transform="translate(220.494327 76.482486)rotate(-90)scale(0.04 -0.04)">
     <use xlink:href="#LucidaSansUnicode-49"/>
     <use x="63.232422" xlink:href="#LucidaSansUnicode-49"/>
     <use x="126.464844" xlink:href="#LucidaSansUnicode-32"/>
     <use x="158.105469" xlink:href="#LucidaSansUnicode-77"/>
    </g>
   </g>
  </g>
 </g>
 <defs>
  <clipPath id="p6947e1000b">
   <rect height="95.13" width="195.3" x="31.5" y="15.12"/>
  </clipPath>
 </defs>
</svg>
