<?xml version="1.0" encoding="utf-8" standalone="no"?>
<!DOCTYPE svg PUBLIC "-//W3C//DTD SVG 1.1//EN"
  "http://www.w3.org/Graphics/SVG/1.1/DTD/svg11.dtd">
<!-- Created with matplotlib (https://matplotlib.org/) -->
<svg height="144pt" version="1.1" viewBox="0 0 216 144" width="216pt" xmlns="http://www.w3.org/2000/svg" xmlns:xlink="http://www.w3.org/1999/xlink">
 <defs>
  <style type="text/css">
*{stroke-linecap:butt;stroke-linejoin:round;}
  </style>
 </defs>
 <g id="figure_1">
  <g id="patch_1">
   <path d="M 0 144 
L 216 144 
L 216 0 
L 0 0 
z
" style="fill:#ffffff;"/>
  </g>
  <g id="axes_1">
   <g id="patch_2">
    <path d="M 27 126 
L 194.4 126 
L 194.4 17.28 
L 27 17.28 
z
" style="fill:#e3dcd0;"/>
   </g>
   <g id="matplotlib.axis_1">
    <g id="xtick_1">
     <g id="text_1">
      <!-- 1960 -->
      <defs>
       <path d="M 26.171875 0 
L 26.171875 65.046875 
L 14.75 65.046875 
L 14.75 71.09375 
L 35.84375 72.90625 
L 35.84375 0 
z
" id="LucidaSansUnicode-49"/>
       <path d="M 11.375 0.4375 
L 11.375 8.59375 
Q 20.5625 5.421875 27 5.421875 
Q 35.984375 5.421875 41.03125 13.0625 
Q 46.09375 20.703125 46.09375 34.328125 
Q 38.765625 25.296875 29.4375 25.296875 
Q 20.3125 25.296875 13.96875 32 
Q 7.625 38.71875 7.625 48.390625 
Q 7.625 59.46875 14.375 66.765625 
Q 21.140625 74.078125 31.390625 74.078125 
Q 43.171875 74.078125 49.953125 64.625 
Q 56.734375 55.171875 56.734375 38.765625 
Q 56.734375 28.328125 53.46875 19.109375 
Q 50.203125 9.90625 44.671875 4.78125 
Q 37.59375 -1.8125 26.078125 -1.8125 
Q 20.40625 -1.8125 11.375 0.4375 
z
M 17.234375 50.046875 
Q 17.234375 41.796875 20.984375 37.015625 
Q 24.75 32.234375 31.15625 32.234375 
Q 37.3125 32.234375 41.625 36.375 
Q 45.953125 40.53125 45.953125 46.390625 
Q 45.953125 55.609375 41.765625 61.25 
Q 37.59375 66.890625 30.8125 66.890625 
Q 24.46875 66.890625 20.84375 62.390625 
Q 17.234375 57.90625 17.234375 50.046875 
z
" id="LucidaSansUnicode-57"/>
       <path d="M 17.1875 37.453125 
Q 24.078125 46.390625 34.515625 46.390625 
Q 44 46.390625 50.03125 40.109375 
Q 56.0625 33.84375 56.0625 24.03125 
Q 56.0625 12.75 49.296875 5.46875 
Q 42.53125 -1.8125 32.078125 -1.8125 
Q 20.171875 -1.8125 13.421875 7.828125 
Q 6.6875 17.484375 6.6875 34.515625 
Q 6.6875 57.46875 18.453125 68.21875 
Q 24.859375 74.125 36.140625 74.125 
Q 42.671875 74.125 52.34375 71.390625 
L 52.34375 62.984375 
Q 42.140625 66.890625 35.546875 66.890625 
Q 17.1875 66.890625 17.1875 37.453125 
z
M 46.390625 22.125 
Q 46.390625 30.125 42.671875 34.78125 
Q 38.96875 39.453125 32.515625 39.453125 
Q 26.375 39.453125 21.96875 35.34375 
Q 17.578125 31.25 17.578125 25.484375 
Q 17.578125 16.40625 21.75 10.90625 
Q 25.921875 5.421875 32.8125 5.421875 
Q 39.0625 5.421875 42.71875 9.90625 
Q 46.390625 14.40625 46.390625 22.125 
z
" id="LucidaSansUnicode-54"/>
       <path d="M 31.640625 -1.8125 
Q 20.265625 -1.8125 13.296875 8.609375 
Q 6.34375 19.046875 6.34375 36.140625 
Q 6.34375 53.21875 13.296875 63.640625 
Q 20.265625 74.078125 31.640625 74.078125 
Q 43.0625 74.078125 50 63.671875 
Q 56.9375 53.265625 56.9375 36.140625 
Q 56.9375 19.046875 50 8.609375 
Q 43.0625 -1.8125 31.640625 -1.8125 
z
M 31.640625 5.421875 
Q 46.734375 5.421875 46.734375 36.140625 
Q 46.734375 66.84375 31.640625 66.84375 
Q 16.609375 66.84375 16.609375 36.140625 
Q 16.609375 5.421875 31.640625 5.421875 
z
" id="LucidaSansUnicode-48"/>
      </defs>
      <g transform="translate(42.239148 134.125625)scale(0.06 -0.06)">
       <use xlink:href="#LucidaSansUnicode-49"/>
       <use x="63.232422" xlink:href="#LucidaSansUnicode-57"/>
       <use x="126.464844" xlink:href="#LucidaSansUnicode-54"/>
       <use x="189.697266" xlink:href="#LucidaSansUnicode-48"/>
      </g>
     </g>
    </g>
    <g id="xtick_2">
     <g id="text_2">
      <!-- 1970 -->
      <defs>
       <path d="M 15.046875 0 
Q 16.453125 8.453125 19.0625 14.59375 
Q 21.6875 20.75 28.328125 31.5 
L 48.046875 63.234375 
L 10.84375 63.234375 
L 10.84375 72.265625 
L 57.234375 72.265625 
L 57.234375 63.234375 
Q 29.4375 22.265625 26.125 0 
z
" id="LucidaSansUnicode-55"/>
      </defs>
      <g transform="translate(67.602784 134.125625)scale(0.06 -0.06)">
       <use xlink:href="#LucidaSansUnicode-49"/>
       <use x="63.232422" xlink:href="#LucidaSansUnicode-57"/>
       <use x="126.464844" xlink:href="#LucidaSansUnicode-55"/>
       <use x="189.697266" xlink:href="#LucidaSansUnicode-48"/>
      </g>
     </g>
    </g>
    <g id="xtick_3">
     <g id="text_3">
      <!-- 1980 -->
      <defs>
       <path d="M 23 39.359375 
Q 17.046875 43.5 14.71875 47.0625 
Q 12.40625 50.640625 12.40625 55.671875 
Q 12.40625 63.875 18.40625 69 
Q 24.421875 74.125 34.078125 74.125 
Q 43.015625 74.125 48.5625 69.78125 
Q 54.109375 65.4375 54.109375 58.5 
Q 54.109375 48 40.625 39.359375 
Q 56.984375 31.34375 56.984375 18.703125 
Q 56.984375 9.671875 50.140625 3.921875 
Q 43.3125 -1.8125 32.5625 -1.8125 
Q 21.828125 -1.8125 15.234375 3.578125 
Q 8.640625 8.984375 8.640625 17.78125 
Q 8.640625 30.765625 23 39.359375 
z
M 35.25 42.390625 
Q 45.359375 49.03125 45.359375 57.171875 
Q 45.359375 61.53125 41.96875 64.1875 
Q 38.578125 66.84375 33.109375 66.84375 
Q 27.78125 66.84375 24.453125 64.234375 
Q 21.140625 61.625 21.140625 57.46875 
Q 21.140625 53.421875 24.140625 50.1875 
Q 27.15625 46.96875 35.25 42.390625 
z
M 28.21875 35.453125 
Q 22.40625 30.953125 20.328125 27.609375 
Q 18.265625 24.265625 18.265625 19.28125 
Q 18.265625 13.09375 22.265625 9.25 
Q 26.265625 5.421875 32.8125 5.421875 
Q 39.109375 5.421875 43.09375 8.6875 
Q 47.078125 11.96875 47.078125 17.1875 
Q 47.078125 21.390625 44.609375 24.296875 
Q 42.140625 27.203125 35.0625 31.390625 
z
" id="LucidaSansUnicode-56"/>
      </defs>
      <g transform="translate(92.96642 134.125625)scale(0.06 -0.06)">
       <use xlink:href="#LucidaSansUnicode-49"/>
       <use x="63.232422" xlink:href="#LucidaSansUnicode-57"/>
       <use x="126.464844" xlink:href="#LucidaSansUnicode-56"/>
       <use x="189.697266" xlink:href="#LucidaSansUnicode-48"/>
      </g>
     </g>
    </g>
    <g id="xtick_4">
     <g id="text_4">
      <!-- 1990 -->
      <g transform="translate(118.330057 134.125625)scale(0.06 -0.06)">
       <use xlink:href="#LucidaSansUnicode-49"/>
       <use x="63.232422" xlink:href="#LucidaSansUnicode-57"/>
       <use x="126.464844" xlink:href="#LucidaSansUnicode-57"/>
       <use x="189.697266" xlink:href="#LucidaSansUnicode-48"/>
      </g>
     </g>
    </g>
    <g id="xtick_5">
     <g id="text_5">
      <!-- 2000 -->
      <defs>
       <path d="M 8.296875 0 
L 8.296875 8.453125 
Q 12.5 18.265625 25.296875 29.828125 
L 30.8125 34.765625 
Q 41.453125 44.390625 41.453125 53.859375 
Q 41.453125 59.90625 37.8125 63.375 
Q 34.1875 66.84375 27.78125 66.84375 
Q 20.3125 66.84375 10.109375 61.03125 
L 10.109375 69.53125 
Q 19.734375 74.078125 29.25 74.078125 
Q 39.40625 74.078125 45.53125 68.609375 
Q 51.65625 63.140625 51.65625 54.109375 
Q 51.65625 47.609375 48.546875 42.578125 
Q 45.453125 37.546875 37.015625 30.375 
L 33.296875 27.203125 
Q 21.734375 17.390625 19.921875 8.453125 
L 51.3125 8.453125 
L 51.3125 0 
z
" id="LucidaSansUnicode-50"/>
      </defs>
      <g transform="translate(143.693693 134.125625)scale(0.06 -0.06)">
       <use xlink:href="#LucidaSansUnicode-50"/>
       <use x="63.232422" xlink:href="#LucidaSansUnicode-48"/>
       <use x="126.464844" xlink:href="#LucidaSansUnicode-48"/>
       <use x="189.697266" xlink:href="#LucidaSansUnicode-48"/>
      </g>
     </g>
    </g>
    <g id="xtick_6">
     <g id="text_6">
      <!-- 2010 -->
      <g transform="translate(169.05733 134.125625)scale(0.06 -0.06)">
       <use xlink:href="#LucidaSansUnicode-50"/>
       <use x="63.232422" xlink:href="#LucidaSansUnicode-48"/>
       <use x="126.464844" xlink:href="#LucidaSansUnicode-49"/>
       <use x="189.697266" xlink:href="#LucidaSansUnicode-48"/>
      </g>
     </g>
    </g>
    <g id="text_7">
     <!-- year -->
     <defs>
      <path d="M 12.703125 -19.28125 
L 21.296875 0 
L 0.78125 53.03125 
L 11.1875 53.03125 
L 26.375 13.09375 
L 42.578125 53.03125 
L 51.65625 53.03125 
L 22.703125 -19.28125 
z
" id="LucidaSansUnicode-121"/>
      <path d="M 48.484375 1.703125 
Q 38.8125 -1.21875 31.9375 -1.21875 
Q 20.171875 -1.21875 12.796875 6.5625 
Q 5.421875 14.359375 5.421875 26.765625 
Q 5.421875 38.8125 11.9375 46.53125 
Q 18.453125 54.25 28.609375 54.25 
Q 38.234375 54.25 43.484375 47.390625 
Q 48.734375 40.53125 48.734375 27.9375 
L 48.6875 25 
L 15.234375 25 
Q 17.328125 6.109375 33.734375 6.109375 
Q 39.75 6.109375 48.484375 9.328125 
z
M 15.671875 32.234375 
L 39.0625 32.234375 
Q 39.0625 47.015625 28.03125 47.015625 
Q 16.9375 47.015625 15.671875 32.234375 
z
" id="LucidaSansUnicode-101"/>
      <path d="M 36.96875 6.734375 
Q 28.328125 -1.21875 20.3125 -1.21875 
Q 13.71875 -1.21875 9.375 2.90625 
Q 5.03125 7.03125 5.03125 13.328125 
Q 5.03125 22.015625 12.328125 26.671875 
Q 19.625 31.34375 33.296875 31.34375 
L 35.546875 31.34375 
L 35.546875 37.75 
Q 35.546875 46.96875 25.921875 46.96875 
Q 18.453125 46.96875 9.625 42.28125 
L 9.625 50.25 
Q 19.34375 54.203125 27.9375 54.203125 
Q 36.765625 54.203125 40.96875 50.171875 
Q 45.171875 46.140625 45.171875 37.75 
L 45.171875 13.71875 
Q 45.171875 5.46875 50.25 5.46875 
Q 50.875 5.46875 52.09375 5.671875 
L 52.78125 0.34375 
Q 49.515625 -1.21875 45.5625 -1.21875 
Q 38.8125 -1.21875 36.96875 6.734375 
z
M 35.546875 11.96875 
L 35.546875 25.6875 
L 32.46875 25.78125 
Q 24.46875 25.78125 19.5625 22.796875 
Q 14.65625 19.828125 14.65625 14.890625 
Q 14.65625 11.421875 17.09375 9.03125 
Q 19.53125 6.640625 23.046875 6.640625 
Q 29.046875 6.640625 35.546875 11.96875 
z
" id="LucidaSansUnicode-97"/>
      <path d="M 9.625 0 
L 9.625 53.03125 
L 19.234375 53.03125 
L 19.234375 43.0625 
Q 24.953125 54.203125 35.84375 54.203125 
Q 37.3125 54.203125 38.921875 53.953125 
L 38.921875 44.96875 
Q 36.421875 45.796875 34.515625 45.796875 
Q 25.390625 45.796875 19.234375 34.96875 
L 19.234375 0 
z
" id="LucidaSansUnicode-114"/>
     </defs>
     <g style="fill:#262626;" transform="translate(104.576719 143.908125)scale(0.06 -0.06)">
      <use xlink:href="#LucidaSansUnicode-121"/>
      <use x="52.246094" xlink:href="#LucidaSansUnicode-101"/>
      <use x="107.958984" xlink:href="#LucidaSansUnicode-97"/>
      <use x="163.183594" xlink:href="#LucidaSansUnicode-114"/>
     </g>
    </g>
   </g>
   <g id="matplotlib.axis_2">
    <g id="ytick_1">
     <g id="text_8">
      <!-- 0 -->
      <g transform="translate(19.705938 123.375142)scale(0.06 -0.06)">
       <use xlink:href="#LucidaSansUnicode-48"/>
      </g>
     </g>
    </g>
    <g id="ytick_2">
     <g id="text_9">
      <!-- 50 -->
      <defs>
       <path d="M 12.15625 -0.296875 
L 12.15625 8.296875 
Q 19.34375 5.421875 25.828125 5.421875 
Q 32.953125 5.421875 37.03125 9.609375 
Q 41.109375 13.8125 41.109375 21.1875 
Q 41.109375 29.109375 35.34375 33.28125 
Q 29.59375 37.453125 18.703125 37.453125 
Q 16.15625 37.453125 13.375 37.109375 
L 13.375 72.265625 
L 49.953125 72.265625 
L 49.953125 63.875 
L 21.828125 63.875 
L 21.828125 44.828125 
Q 35.75 44.828125 43.5625 38.421875 
Q 51.375 32.03125 51.375 20.703125 
Q 51.375 10.15625 44.265625 4.171875 
Q 37.15625 -1.8125 24.65625 -1.8125 
Q 19.09375 -1.8125 12.15625 -0.296875 
z
" id="LucidaSansUnicode-53"/>
      </defs>
      <g transform="translate(15.911875 103.772537)scale(0.06 -0.06)">
       <use xlink:href="#LucidaSansUnicode-53"/>
       <use x="63.232422" xlink:href="#LucidaSansUnicode-48"/>
      </g>
     </g>
    </g>
    <g id="ytick_3">
     <g id="text_10">
      <!-- 100 -->
      <g transform="translate(12.117813 84.169932)scale(0.06 -0.06)">
       <use xlink:href="#LucidaSansUnicode-49"/>
       <use x="63.232422" xlink:href="#LucidaSansUnicode-48"/>
       <use x="126.464844" xlink:href="#LucidaSansUnicode-48"/>
      </g>
     </g>
    </g>
    <g id="ytick_4">
     <g id="text_11">
      <!-- 150 -->
      <g transform="translate(12.117813 64.567326)scale(0.06 -0.06)">
       <use xlink:href="#LucidaSansUnicode-49"/>
       <use x="63.232422" xlink:href="#LucidaSansUnicode-53"/>
       <use x="126.464844" xlink:href="#LucidaSansUnicode-48"/>
      </g>
     </g>
    </g>
    <g id="ytick_5">
     <g id="text_12">
      <!-- 200 -->
      <g transform="translate(12.117813 44.964721)scale(0.06 -0.06)">
       <use xlink:href="#LucidaSansUnicode-50"/>
       <use x="63.232422" xlink:href="#LucidaSansUnicode-48"/>
       <use x="126.464844" xlink:href="#LucidaSansUnicode-48"/>
      </g>
     </g>
    </g>
    <g id="ytick_6">
     <g id="text_13">
      <!-- 250 -->
      <g transform="translate(12.117813 25.362116)scale(0.06 -0.06)">
       <use xlink:href="#LucidaSansUnicode-50"/>
       <use x="63.232422" xlink:href="#LucidaSansUnicode-53"/>
       <use x="126.464844" xlink:href="#LucidaSansUnicode-48"/>
      </g>
     </g>
    </g>
    <g id="text_14">
     <!-- estimated standing -->
     <defs>
      <path d="M 7.671875 1.859375 
L 7.671875 10.6875 
Q 17.09375 6 24.078125 6 
Q 28.21875 6 30.953125 8.25 
Q 33.6875 10.5 33.6875 13.875 
Q 33.6875 18.796875 26.03125 22.015625 
L 20.40625 24.421875 
Q 7.953125 29.59375 7.953125 39.3125 
Q 7.953125 46.234375 12.859375 50.21875 
Q 17.78125 54.203125 26.3125 54.203125 
Q 30.765625 54.203125 37.3125 52.984375 
L 39.3125 52.59375 
L 39.3125 44.578125 
Q 31.25 46.96875 26.46875 46.96875 
Q 22.265625 46.96875 19.75 45.140625 
Q 17.234375 43.3125 17.234375 40.234375 
Q 17.234375 35.890625 24.265625 32.90625 
L 28.90625 30.953125 
Q 36.765625 27.640625 40.03125 23.953125 
Q 43.3125 20.265625 43.3125 14.75 
Q 43.3125 7.765625 37.796875 3.265625 
Q 32.28125 -1.21875 23.6875 -1.21875 
Q 17.09375 -1.21875 7.671875 1.859375 
z
" id="LucidaSansUnicode-115"/>
      <path d="M 33.25 0 
Q 28.8125 -1.21875 25.53125 -1.21875 
Q 18.21875 -1.21875 14.109375 2.96875 
Q 10.015625 7.171875 10.015625 14.65625 
L 10.015625 45.796875 
L 3.375 45.796875 
L 3.375 53.03125 
L 10.015625 53.03125 
L 10.015625 62.640625 
L 19.625 63.578125 
L 19.625 53.03125 
L 33.5 53.03125 
L 33.5 45.796875 
L 19.625 45.796875 
L 19.625 16.40625 
Q 19.625 6 28.609375 6 
Q 30.515625 6 33.25 6.640625 
z
" id="LucidaSansUnicode-116"/>
      <path d="M 9.625 0 
L 9.625 53.03125 
L 19.234375 53.03125 
L 19.234375 0 
z
M 9.625 62.640625 
L 9.625 72.265625 
L 19.234375 72.265625 
L 19.234375 62.640625 
z
" id="LucidaSansUnicode-105"/>
      <path d="M 9.625 0 
L 9.625 53.03125 
L 19.234375 53.03125 
L 19.234375 43.0625 
Q 26.265625 54.203125 37.3125 54.203125 
Q 47.953125 54.203125 51.8125 43.0625 
Q 58.640625 54.25 69.578125 54.25 
Q 76.5625 54.25 80.4375 50.125 
Q 84.328125 46 84.328125 38.578125 
L 84.328125 0 
L 74.65625 0 
L 74.65625 37.0625 
Q 74.65625 46.140625 67.484375 46.140625 
Q 60.015625 46.140625 51.8125 35.546875 
L 51.8125 0 
L 42.140625 0 
L 42.140625 37.0625 
Q 42.140625 46.1875 34.8125 46.1875 
Q 27.546875 46.1875 19.234375 35.546875 
L 19.234375 0 
z
" id="LucidaSansUnicode-109"/>
      <path d="M 43.65625 0 
L 43.65625 9.96875 
Q 37.796875 -1.21875 25.984375 -1.21875 
Q 16.40625 -1.21875 10.90625 5.765625 
Q 5.421875 12.75 5.421875 24.859375 
Q 5.421875 38.09375 11.640625 46.140625 
Q 17.875 54.203125 28.03125 54.203125 
Q 37.453125 54.203125 43.65625 46.96875 
L 43.65625 77.09375 
L 53.328125 77.09375 
L 53.328125 0 
z
M 43.65625 40.375 
Q 36.1875 46.96875 29.5 46.96875 
Q 22.90625 46.96875 19.28125 41.453125 
Q 15.671875 35.9375 15.671875 25.828125 
Q 15.671875 7.234375 27.984375 7.234375 
Q 35.984375 7.234375 43.65625 15.96875 
z
" id="LucidaSansUnicode-100"/>
      <path id="LucidaSansUnicode-32"/>
      <path d="M 9.625 0 
L 9.625 53.03125 
L 19.234375 53.03125 
L 19.234375 43.0625 
Q 26.859375 54.203125 37.890625 54.203125 
Q 44.828125 54.203125 48.90625 49.828125 
Q 52.984375 45.453125 52.984375 38.09375 
L 52.984375 0 
L 43.359375 0 
L 43.359375 34.96875 
Q 43.359375 40.875 41.625 43.390625 
Q 39.890625 45.90625 35.890625 45.90625 
Q 27.046875 45.90625 19.234375 34.328125 
L 19.234375 0 
z
" id="LucidaSansUnicode-110"/>
      <path d="M 9.8125 -17.625 
L 10.9375 -9.28125 
Q 19.28125 -13.234375 27.4375 -13.234375 
Q 43.65625 -13.234375 43.65625 4 
L 43.65625 12.359375 
Q 41.15625 7.078125 36.546875 4.140625 
Q 31.9375 1.21875 26.265625 1.21875 
Q 16.65625 1.21875 11.03125 8.125 
Q 5.421875 15.046875 5.421875 26.859375 
Q 5.421875 38.96875 11.8125 46.578125 
Q 18.21875 54.203125 28.375 54.203125 
Q 37.25 54.203125 43.65625 46.96875 
L 43.65625 53.03125 
L 53.328125 53.03125 
L 53.328125 14.453125 
Q 53.328125 2 52.03125 -3.984375 
Q 50.734375 -9.96875 47.171875 -13.765625 
Q 40.875 -20.453125 27.484375 -20.453125 
Q 18.3125 -20.453125 9.8125 -17.625 
z
M 43.65625 18.359375 
L 43.65625 40.375 
Q 37.3125 46.96875 29.828125 46.96875 
Q 23.1875 46.96875 19.421875 41.640625 
Q 15.671875 36.328125 15.671875 26.90625 
Q 15.671875 9.625 27.9375 9.625 
Q 36.28125 9.625 43.65625 18.359375 
z
" id="LucidaSansUnicode-103"/>
     </defs>
     <g style="fill:#262626;" transform="translate(-0.357375 99.577031)rotate(-90)scale(0.06 -0.06)">
      <use xlink:href="#LucidaSansUnicode-101"/>
      <use x="55.712891" xlink:href="#LucidaSansUnicode-115"/>
      <use x="106.689453" xlink:href="#LucidaSansUnicode-116"/>
      <use x="144.091797" xlink:href="#LucidaSansUnicode-105"/>
      <use x="172.998047" xlink:href="#LucidaSansUnicode-109"/>
      <use x="266.357422" xlink:href="#LucidaSansUnicode-97"/>
      <use x="321.582031" xlink:href="#LucidaSansUnicode-116"/>
      <use x="358.984375" xlink:href="#LucidaSansUnicode-101"/>
      <use x="414.697266" xlink:href="#LucidaSansUnicode-100"/>
      <use x="477.636719" xlink:href="#LucidaSansUnicode-32"/>
      <use x="509.277344" xlink:href="#LucidaSansUnicode-115"/>
      <use x="560.253906" xlink:href="#LucidaSansUnicode-116"/>
      <use x="597.65625" xlink:href="#LucidaSansUnicode-97"/>
      <use x="652.880859" xlink:href="#LucidaSansUnicode-110"/>
      <use x="714.941406" xlink:href="#LucidaSansUnicode-100"/>
      <use x="777.880859" xlink:href="#LucidaSansUnicode-105"/>
      <use x="806.787109" xlink:href="#LucidaSansUnicode-110"/>
      <use x="868.847656" xlink:href="#LucidaSansUnicode-103"/>
     </g>
     <!-- population [10$^9$] -->
     <defs>
      <path d="M 9.625 -19.28125 
L 9.625 53.03125 
L 19.234375 53.03125 
L 19.234375 43.0625 
Q 25.140625 54.203125 36.96875 54.203125 
Q 46.53125 54.203125 52.015625 47.21875 
Q 57.515625 40.234375 57.515625 28.125 
Q 57.515625 14.9375 51.28125 6.859375 
Q 45.0625 -1.21875 34.90625 -1.21875 
Q 25.484375 -1.21875 19.234375 6 
L 19.234375 -19.28125 
z
M 19.234375 12.640625 
Q 26.65625 6 33.40625 6 
Q 40.046875 6 43.65625 11.546875 
Q 47.265625 17.09375 47.265625 27.15625 
Q 47.265625 45.796875 34.96875 45.796875 
Q 26.90625 45.796875 19.234375 37.0625 
z
" id="LucidaSansUnicode-112"/>
      <path d="M 30.71875 -1.21875 
Q 19.046875 -1.21875 12.234375 6.25 
Q 5.421875 13.71875 5.421875 26.515625 
Q 5.421875 39.3125 12.234375 46.75 
Q 19.046875 54.203125 30.71875 54.203125 
Q 42.390625 54.203125 49.1875 46.75 
Q 56 39.3125 56 26.515625 
Q 56 13.71875 49.1875 6.25 
Q 42.390625 -1.21875 30.71875 -1.21875 
z
M 30.71875 6 
Q 37.890625 6 41.84375 11.375 
Q 45.796875 16.75 45.796875 26.515625 
Q 45.796875 36.28125 41.84375 41.625 
Q 37.890625 46.96875 30.71875 46.96875 
Q 23.53125 46.96875 19.59375 41.625 
Q 15.671875 36.28125 15.671875 26.515625 
Q 15.671875 16.75 19.59375 11.375 
Q 23.53125 6 30.71875 6 
z
" id="LucidaSansUnicode-111"/>
      <path d="M 42.78125 0 
L 42.78125 9.96875 
Q 35.109375 -1.21875 24.171875 -1.21875 
Q 17.234375 -1.21875 13.125 3.140625 
Q 9.03125 7.515625 9.03125 14.9375 
L 9.03125 53.03125 
L 18.65625 53.03125 
L 18.65625 18.0625 
Q 18.65625 12.109375 20.390625 9.59375 
Q 22.125 7.078125 26.171875 7.078125 
Q 34.96875 7.078125 42.78125 18.65625 
L 42.78125 53.03125 
L 52.390625 53.03125 
L 52.390625 0 
z
" id="LucidaSansUnicode-117"/>
      <path d="M 9.625 0 
L 9.625 77.09375 
L 19.234375 77.09375 
L 19.234375 0 
z
" id="LucidaSansUnicode-108"/>
      <path d="M 9.625 -14.453125 
L 9.625 77.09375 
L 28.90625 77.09375 
L 28.90625 69.875 
L 18.0625 69.875 
L 18.0625 -7.234375 
L 28.90625 -7.234375 
L 28.90625 -14.453125 
z
" id="LucidaSansUnicode-91"/>
      <path d="M 5.5 -0.203125 
L 6.796875 4.703125 
Q 18.203125 5.5 26.140625 11.25 
Q 34.09375 17 37.59375 27.5 
Q 31.796875 23.09375 23.90625 23.09375 
Q 15.296875 23.09375 9.046875 28.890625 
Q 2.796875 34.703125 2.796875 44.203125 
Q 2.796875 53.90625 8.84375 60.75 
Q 14.90625 67.59375 24.203125 67.59375 
Q 30.09375 67.59375 34.5 65.34375 
Q 38.90625 63.09375 41.5 59.09375 
Q 44.09375 55.09375 45.34375 50.25 
Q 46.59375 45.40625 46.59375 39.796875 
Q 46.59375 31.40625 43.546875 23.203125 
Q 40.5 15 35.5 10.09375 
Q 28.796875 3.59375 22.84375 1.296875 
Q 16.90625 -1 5.703125 -2.09375 
z
M 38.59375 42.203125 
Q 38.5 50.296875 34.546875 55.390625 
Q 30.59375 60.5 23.90625 60.5 
Q 18.40625 60.5 14.59375 56.296875 
Q 10.796875 52.09375 10.796875 45.59375 
Q 10.796875 38.40625 14.890625 34.34375 
Q 19 30.296875 24.703125 30.296875 
Q 29.90625 30.296875 33.796875 33.34375 
Q 37.703125 36.40625 38.59375 42.203125 
z
" id="STIXGeneral-Regular-120811"/>
      <path d="M 22.90625 77.09375 
L 22.90625 -14.453125 
L 3.609375 -14.453125 
L 3.609375 -7.234375 
L 14.453125 -7.234375 
L 14.453125 69.875 
L 3.609375 69.875 
L 3.609375 77.09375 
z
" id="LucidaSansUnicode-93"/>
     </defs>
     <g style="fill:#262626;" transform="translate(6.917813 95.19)rotate(-90)scale(0.06 -0.06)">
      <use transform="translate(0 0.446875)" xlink:href="#LucidaSansUnicode-112"/>
      <use transform="translate(62.939453 0.446875)" xlink:href="#LucidaSansUnicode-111"/>
      <use transform="translate(124.365234 0.446875)" xlink:href="#LucidaSansUnicode-112"/>
      <use transform="translate(187.304688 0.446875)" xlink:href="#LucidaSansUnicode-117"/>
      <use transform="translate(249.365234 0.446875)" xlink:href="#LucidaSansUnicode-108"/>
      <use transform="translate(278.271484 0.446875)" xlink:href="#LucidaSansUnicode-97"/>
      <use transform="translate(333.496094 0.446875)" xlink:href="#LucidaSansUnicode-116"/>
      <use transform="translate(370.898438 0.446875)" xlink:href="#LucidaSansUnicode-105"/>
      <use transform="translate(399.804688 0.446875)" xlink:href="#LucidaSansUnicode-111"/>
      <use transform="translate(461.230469 0.446875)" xlink:href="#LucidaSansUnicode-110"/>
      <use transform="translate(523.291016 0.446875)" xlink:href="#LucidaSansUnicode-32"/>
      <use transform="translate(554.931641 0.446875)" xlink:href="#LucidaSansUnicode-91"/>
      <use transform="translate(587.451172 0.446875)" xlink:href="#LucidaSansUnicode-49"/>
      <use transform="translate(650.683594 0.446875)" xlink:href="#LucidaSansUnicode-48"/>
      <use transform="translate(714.708711 36.684375)scale(0.7)" xlink:href="#STIXGeneral-Regular-120811"/>
      <use transform="translate(751.973544 0.446875)" xlink:href="#LucidaSansUnicode-93"/>
     </g>
    </g>
   </g>
   <g id="line2d_1">
    <path clip-path="url(#p1820e933b1)" d="M 24.463636 121.048264 
L 27 121.044301 
L 29.536364 121.042484 
L 32.072727 121.037882 
L 34.609091 121.028481 
L 37.145455 121.024329 
L 39.681818 121.022135 
L 42.218182 121.002823 
L 44.754545 121.005839 
L 47.290909 121.000397 
L 49.827273 121.006933 
L 52.363636 121.017986 
L 54.9 121.021529 
L 57.436364 121.016928 
L 59.972727 121.012245 
L 62.509091 121.002132 
L 65.045455 121.000013 
L 67.581818 121.000397 
L 70.118182 121.001104 
L 72.654545 120.995607 
L 75.190909 120.991443 
L 77.727273 120.987201 
L 80.263636 120.983225 
L 82.8 120.977922 
L 85.336364 120.972214 
L 87.872727 120.964676 
L 90.409091 120.965935 
L 92.945455 120.961287 
L 95.481818 120.96145 
L 98.018182 120.954862 
L 100.554545 120.94529 
L 103.090909 120.929739 
L 105.627273 120.910539 
L 108.163636 120.889194 
L 110.7 120.851471 
L 113.236364 120.800044 
L 115.772727 120.746457 
L 118.309091 120.696159 
L 120.845455 120.662553 
L 123.381818 120.661194 
L 125.918182 120.633846 
L 128.454545 120.642454 
L 130.990909 120.580472 
L 133.527273 120.499467 
L 136.063636 120.401861 
L 138.6 120.290421 
L 141.136364 120.181655 
L 143.672727 120.15671 
L 146.209091 120.137371 
L 148.745455 120.098077 
L 151.281818 120.079575 
L 153.818182 120.008699 
L 156.354545 120.004354 
L 158.890909 119.957885 
L 161.427273 119.974661 
L 163.963636 119.930679 
L 166.5 119.908704 
L 169.036364 119.880099 
L 171.572727 119.805746 
L 174.109091 119.726058 
L 176.645455 119.704593 
L 179.181818 119.674015 
L 181.718182 119.643648 
L 184.254545 119.547516 
L 186.790909 119.460169 
L 189.327273 119.393127 
L 191.863636 119.354897 
L 194.4 119.362385 
L 196.936364 119.310596 
" style="fill:none;stroke:#ab85ac;stroke-linecap:round;stroke-width:0.75;"/>
    <defs>
     <path d="M 0 0.5 
C 0.132602 0.5 0.25979 0.447317 0.353553 0.353553 
C 0.447317 0.25979 0.5 0.132602 0.5 0 
C 0.5 -0.132602 0.447317 -0.25979 0.353553 -0.353553 
C 0.25979 -0.447317 0.132602 -0.5 0 -0.5 
C -0.132602 -0.5 -0.25979 -0.447317 -0.353553 -0.353553 
C -0.447317 -0.25979 -0.5 -0.132602 -0.5 0 
C -0.5 0.132602 -0.447317 0.25979 -0.353553 0.353553 
C -0.25979 0.447317 -0.132602 0.5 0 0.5 
z
" id="m6e698b9f9d" style="stroke:#ab85ac;"/>
    </defs>
    <g clip-path="url(#p1820e933b1)">
     <use style="fill:#ab85ac;stroke:#ab85ac;" x="24.463636" xlink:href="#m6e698b9f9d" y="121.048264"/>
     <use style="fill:#ab85ac;stroke:#ab85ac;" x="27" xlink:href="#m6e698b9f9d" y="121.044301"/>
     <use style="fill:#ab85ac;stroke:#ab85ac;" x="29.536364" xlink:href="#m6e698b9f9d" y="121.042484"/>
     <use style="fill:#ab85ac;stroke:#ab85ac;" x="32.072727" xlink:href="#m6e698b9f9d" y="121.037882"/>
     <use style="fill:#ab85ac;stroke:#ab85ac;" x="34.609091" xlink:href="#m6e698b9f9d" y="121.028481"/>
     <use style="fill:#ab85ac;stroke:#ab85ac;" x="37.145455" xlink:href="#m6e698b9f9d" y="121.024329"/>
     <use style="fill:#ab85ac;stroke:#ab85ac;" x="39.681818" xlink:href="#m6e698b9f9d" y="121.022135"/>
     <use style="fill:#ab85ac;stroke:#ab85ac;" x="42.218182" xlink:href="#m6e698b9f9d" y="121.002823"/>
     <use style="fill:#ab85ac;stroke:#ab85ac;" x="44.754545" xlink:href="#m6e698b9f9d" y="121.005839"/>
     <use style="fill:#ab85ac;stroke:#ab85ac;" x="47.290909" xlink:href="#m6e698b9f9d" y="121.000397"/>
     <use style="fill:#ab85ac;stroke:#ab85ac;" x="49.827273" xlink:href="#m6e698b9f9d" y="121.006933"/>
     <use style="fill:#ab85ac;stroke:#ab85ac;" x="52.363636" xlink:href="#m6e698b9f9d" y="121.017986"/>
     <use style="fill:#ab85ac;stroke:#ab85ac;" x="54.9" xlink:href="#m6e698b9f9d" y="121.021529"/>
     <use style="fill:#ab85ac;stroke:#ab85ac;" x="57.436364" xlink:href="#m6e698b9f9d" y="121.016928"/>
     <use style="fill:#ab85ac;stroke:#ab85ac;" x="59.972727" xlink:href="#m6e698b9f9d" y="121.012245"/>
     <use style="fill:#ab85ac;stroke:#ab85ac;" x="62.509091" xlink:href="#m6e698b9f9d" y="121.002132"/>
     <use style="fill:#ab85ac;stroke:#ab85ac;" x="65.045455" xlink:href="#m6e698b9f9d" y="121.000013"/>
     <use style="fill:#ab85ac;stroke:#ab85ac;" x="67.581818" xlink:href="#m6e698b9f9d" y="121.000397"/>
     <use style="fill:#ab85ac;stroke:#ab85ac;" x="70.118182" xlink:href="#m6e698b9f9d" y="121.001104"/>
     <use style="fill:#ab85ac;stroke:#ab85ac;" x="72.654545" xlink:href="#m6e698b9f9d" y="120.995607"/>
     <use style="fill:#ab85ac;stroke:#ab85ac;" x="75.190909" xlink:href="#m6e698b9f9d" y="120.991443"/>
     <use style="fill:#ab85ac;stroke:#ab85ac;" x="77.727273" xlink:href="#m6e698b9f9d" y="120.987201"/>
     <use style="fill:#ab85ac;stroke:#ab85ac;" x="80.263636" xlink:href="#m6e698b9f9d" y="120.983225"/>
     <use style="fill:#ab85ac;stroke:#ab85ac;" x="82.8" xlink:href="#m6e698b9f9d" y="120.977922"/>
     <use style="fill:#ab85ac;stroke:#ab85ac;" x="85.336364" xlink:href="#m6e698b9f9d" y="120.972214"/>
     <use style="fill:#ab85ac;stroke:#ab85ac;" x="87.872727" xlink:href="#m6e698b9f9d" y="120.964676"/>
     <use style="fill:#ab85ac;stroke:#ab85ac;" x="90.409091" xlink:href="#m6e698b9f9d" y="120.965935"/>
     <use style="fill:#ab85ac;stroke:#ab85ac;" x="92.945455" xlink:href="#m6e698b9f9d" y="120.961287"/>
     <use style="fill:#ab85ac;stroke:#ab85ac;" x="95.481818" xlink:href="#m6e698b9f9d" y="120.96145"/>
     <use style="fill:#ab85ac;stroke:#ab85ac;" x="98.018182" xlink:href="#m6e698b9f9d" y="120.954862"/>
     <use style="fill:#ab85ac;stroke:#ab85ac;" x="100.554545" xlink:href="#m6e698b9f9d" y="120.94529"/>
     <use style="fill:#ab85ac;stroke:#ab85ac;" x="103.090909" xlink:href="#m6e698b9f9d" y="120.929739"/>
     <use style="fill:#ab85ac;stroke:#ab85ac;" x="105.627273" xlink:href="#m6e698b9f9d" y="120.910539"/>
     <use style="fill:#ab85ac;stroke:#ab85ac;" x="108.163636" xlink:href="#m6e698b9f9d" y="120.889194"/>
     <use style="fill:#ab85ac;stroke:#ab85ac;" x="110.7" xlink:href="#m6e698b9f9d" y="120.851471"/>
     <use style="fill:#ab85ac;stroke:#ab85ac;" x="113.236364" xlink:href="#m6e698b9f9d" y="120.800044"/>
     <use style="fill:#ab85ac;stroke:#ab85ac;" x="115.772727" xlink:href="#m6e698b9f9d" y="120.746457"/>
     <use style="fill:#ab85ac;stroke:#ab85ac;" x="118.309091" xlink:href="#m6e698b9f9d" y="120.696159"/>
     <use style="fill:#ab85ac;stroke:#ab85ac;" x="120.845455" xlink:href="#m6e698b9f9d" y="120.662553"/>
     <use style="fill:#ab85ac;stroke:#ab85ac;" x="123.381818" xlink:href="#m6e698b9f9d" y="120.661194"/>
     <use style="fill:#ab85ac;stroke:#ab85ac;" x="125.918182" xlink:href="#m6e698b9f9d" y="120.633846"/>
     <use style="fill:#ab85ac;stroke:#ab85ac;" x="128.454545" xlink:href="#m6e698b9f9d" y="120.642454"/>
     <use style="fill:#ab85ac;stroke:#ab85ac;" x="130.990909" xlink:href="#m6e698b9f9d" y="120.580472"/>
     <use style="fill:#ab85ac;stroke:#ab85ac;" x="133.527273" xlink:href="#m6e698b9f9d" y="120.499467"/>
     <use style="fill:#ab85ac;stroke:#ab85ac;" x="136.063636" xlink:href="#m6e698b9f9d" y="120.401861"/>
     <use style="fill:#ab85ac;stroke:#ab85ac;" x="138.6" xlink:href="#m6e698b9f9d" y="120.290421"/>
     <use style="fill:#ab85ac;stroke:#ab85ac;" x="141.136364" xlink:href="#m6e698b9f9d" y="120.181655"/>
     <use style="fill:#ab85ac;stroke:#ab85ac;" x="143.672727" xlink:href="#m6e698b9f9d" y="120.15671"/>
     <use style="fill:#ab85ac;stroke:#ab85ac;" x="146.209091" xlink:href="#m6e698b9f9d" y="120.137371"/>
     <use style="fill:#ab85ac;stroke:#ab85ac;" x="148.745455" xlink:href="#m6e698b9f9d" y="120.098077"/>
     <use style="fill:#ab85ac;stroke:#ab85ac;" x="151.281818" xlink:href="#m6e698b9f9d" y="120.079575"/>
     <use style="fill:#ab85ac;stroke:#ab85ac;" x="153.818182" xlink:href="#m6e698b9f9d" y="120.008699"/>
     <use style="fill:#ab85ac;stroke:#ab85ac;" x="156.354545" xlink:href="#m6e698b9f9d" y="120.004354"/>
     <use style="fill:#ab85ac;stroke:#ab85ac;" x="158.890909" xlink:href="#m6e698b9f9d" y="119.957885"/>
     <use style="fill:#ab85ac;stroke:#ab85ac;" x="161.427273" xlink:href="#m6e698b9f9d" y="119.974661"/>
     <use style="fill:#ab85ac;stroke:#ab85ac;" x="163.963636" xlink:href="#m6e698b9f9d" y="119.930679"/>
     <use style="fill:#ab85ac;stroke:#ab85ac;" x="166.5" xlink:href="#m6e698b9f9d" y="119.908704"/>
     <use style="fill:#ab85ac;stroke:#ab85ac;" x="169.036364" xlink:href="#m6e698b9f9d" y="119.880099"/>
     <use style="fill:#ab85ac;stroke:#ab85ac;" x="171.572727" xlink:href="#m6e698b9f9d" y="119.805746"/>
     <use style="fill:#ab85ac;stroke:#ab85ac;" x="174.109091" xlink:href="#m6e698b9f9d" y="119.726058"/>
     <use style="fill:#ab85ac;stroke:#ab85ac;" x="176.645455" xlink:href="#m6e698b9f9d" y="119.704593"/>
     <use style="fill:#ab85ac;stroke:#ab85ac;" x="179.181818" xlink:href="#m6e698b9f9d" y="119.674015"/>
     <use style="fill:#ab85ac;stroke:#ab85ac;" x="181.718182" xlink:href="#m6e698b9f9d" y="119.643648"/>
     <use style="fill:#ab85ac;stroke:#ab85ac;" x="184.254545" xlink:href="#m6e698b9f9d" y="119.547516"/>
     <use style="fill:#ab85ac;stroke:#ab85ac;" x="186.790909" xlink:href="#m6e698b9f9d" y="119.460169"/>
     <use style="fill:#ab85ac;stroke:#ab85ac;" x="189.327273" xlink:href="#m6e698b9f9d" y="119.393127"/>
     <use style="fill:#ab85ac;stroke:#ab85ac;" x="191.863636" xlink:href="#m6e698b9f9d" y="119.354897"/>
     <use style="fill:#ab85ac;stroke:#ab85ac;" x="194.4" xlink:href="#m6e698b9f9d" y="119.362385"/>
     <use style="fill:#ab85ac;stroke:#ab85ac;" x="196.936364" xlink:href="#m6e698b9f9d" y="119.310596"/>
    </g>
   </g>
   <g id="line2d_2">
    <path clip-path="url(#p1820e933b1)" d="M 24.463636 118.936733 
L 27 118.409799 
L 29.536364 117.977828 
L 32.072727 117.43101 
L 34.609091 117.45705 
L 37.145455 117.029831 
L 39.681818 117.406601 
L 42.218182 116.621563 
L 44.754545 116.857618 
L 47.290909 116.482926 
L 49.827273 115.987764 
L 52.363636 116.167598 
L 54.9 115.528585 
L 57.436364 114.762217 
L 59.972727 114.856788 
L 62.509091 114.783952 
L 65.045455 114.714536 
L 67.581818 114.478426 
L 70.118182 113.807374 
L 72.654545 113.877363 
L 75.190909 113.370659 
L 77.727273 112.888835 
L 80.263636 111.873311 
L 82.8 111.9806 
L 85.336364 111.859134 
L 87.872727 110.05095 
L 90.409091 109.785578 
L 92.945455 108.163431 
L 95.481818 108.449041 
L 98.018182 109.046011 
L 100.554545 108.725814 
L 103.090909 107.697532 
L 105.627273 107.414165 
L 108.163636 106.650573 
L 110.7 106.071763 
L 113.236364 104.319846 
L 115.772727 103.147791 
L 118.309091 101.107842 
L 120.845455 99.097603 
L 123.381818 98.898495 
L 125.918182 98.320155 
L 128.454545 97.502358 
L 130.990909 93.337996 
L 133.527273 88.372319 
L 136.063636 81.371445 
L 138.6 77.224859 
L 141.136364 77.094423 
L 143.672727 77.198113 
L 146.209091 72.307655 
L 148.745455 68.058728 
L 151.281818 68.312785 
L 153.818182 63.527036 
L 156.354545 59.337889 
L 158.890909 55.356757 
L 161.427273 52.199679 
L 163.963636 51.41995 
L 166.5 48.678741 
L 169.036364 46.365393 
L 171.572727 48.086907 
L 174.109091 45.024914 
L 176.645455 41.467474 
L 179.181818 42.143048 
L 181.718182 39.524035 
L 184.254545 37.45243 
L 186.790909 34.190222 
L 189.327273 32.28739 
L 191.863636 26.775627 
L 194.4 24.05672 
L 196.936364 22.221818 
" style="fill:none;stroke:#905426;stroke-linecap:round;stroke-width:0.75;"/>
    <defs>
     <path d="M 0 0.5 
C 0.132602 0.5 0.25979 0.447317 0.353553 0.353553 
C 0.447317 0.25979 0.5 0.132602 0.5 0 
C 0.5 -0.132602 0.447317 -0.25979 0.353553 -0.353553 
C 0.25979 -0.447317 0.132602 -0.5 0 -0.5 
C -0.132602 -0.5 -0.25979 -0.447317 -0.353553 -0.353553 
C -0.447317 -0.25979 -0.5 -0.132602 -0.5 0 
C -0.5 0.132602 -0.447317 0.25979 -0.353553 0.353553 
C -0.25979 0.447317 -0.132602 0.5 0 0.5 
z
" id="mbec656e4a2" style="stroke:#905426;"/>
    </defs>
    <g clip-path="url(#p1820e933b1)">
     <use style="fill:#905426;stroke:#905426;" x="24.463636" xlink:href="#mbec656e4a2" y="118.936733"/>
     <use style="fill:#905426;stroke:#905426;" x="27" xlink:href="#mbec656e4a2" y="118.409799"/>
     <use style="fill:#905426;stroke:#905426;" x="29.536364" xlink:href="#mbec656e4a2" y="117.977828"/>
     <use style="fill:#905426;stroke:#905426;" x="32.072727" xlink:href="#mbec656e4a2" y="117.43101"/>
     <use style="fill:#905426;stroke:#905426;" x="34.609091" xlink:href="#mbec656e4a2" y="117.45705"/>
     <use style="fill:#905426;stroke:#905426;" x="37.145455" xlink:href="#mbec656e4a2" y="117.029831"/>
     <use style="fill:#905426;stroke:#905426;" x="39.681818" xlink:href="#mbec656e4a2" y="117.406601"/>
     <use style="fill:#905426;stroke:#905426;" x="42.218182" xlink:href="#mbec656e4a2" y="116.621563"/>
     <use style="fill:#905426;stroke:#905426;" x="44.754545" xlink:href="#mbec656e4a2" y="116.857618"/>
     <use style="fill:#905426;stroke:#905426;" x="47.290909" xlink:href="#mbec656e4a2" y="116.482926"/>
     <use style="fill:#905426;stroke:#905426;" x="49.827273" xlink:href="#mbec656e4a2" y="115.987764"/>
     <use style="fill:#905426;stroke:#905426;" x="52.363636" xlink:href="#mbec656e4a2" y="116.167598"/>
     <use style="fill:#905426;stroke:#905426;" x="54.9" xlink:href="#mbec656e4a2" y="115.528585"/>
     <use style="fill:#905426;stroke:#905426;" x="57.436364" xlink:href="#mbec656e4a2" y="114.762217"/>
     <use style="fill:#905426;stroke:#905426;" x="59.972727" xlink:href="#mbec656e4a2" y="114.856788"/>
     <use style="fill:#905426;stroke:#905426;" x="62.509091" xlink:href="#mbec656e4a2" y="114.783952"/>
     <use style="fill:#905426;stroke:#905426;" x="65.045455" xlink:href="#mbec656e4a2" y="114.714536"/>
     <use style="fill:#905426;stroke:#905426;" x="67.581818" xlink:href="#mbec656e4a2" y="114.478426"/>
     <use style="fill:#905426;stroke:#905426;" x="70.118182" xlink:href="#mbec656e4a2" y="113.807374"/>
     <use style="fill:#905426;stroke:#905426;" x="72.654545" xlink:href="#mbec656e4a2" y="113.877363"/>
     <use style="fill:#905426;stroke:#905426;" x="75.190909" xlink:href="#mbec656e4a2" y="113.370659"/>
     <use style="fill:#905426;stroke:#905426;" x="77.727273" xlink:href="#mbec656e4a2" y="112.888835"/>
     <use style="fill:#905426;stroke:#905426;" x="80.263636" xlink:href="#mbec656e4a2" y="111.873311"/>
     <use style="fill:#905426;stroke:#905426;" x="82.8" xlink:href="#mbec656e4a2" y="111.9806"/>
     <use style="fill:#905426;stroke:#905426;" x="85.336364" xlink:href="#mbec656e4a2" y="111.859134"/>
     <use style="fill:#905426;stroke:#905426;" x="87.872727" xlink:href="#mbec656e4a2" y="110.05095"/>
     <use style="fill:#905426;stroke:#905426;" x="90.409091" xlink:href="#mbec656e4a2" y="109.785578"/>
     <use style="fill:#905426;stroke:#905426;" x="92.945455" xlink:href="#mbec656e4a2" y="108.163431"/>
     <use style="fill:#905426;stroke:#905426;" x="95.481818" xlink:href="#mbec656e4a2" y="108.449041"/>
     <use style="fill:#905426;stroke:#905426;" x="98.018182" xlink:href="#mbec656e4a2" y="109.046011"/>
     <use style="fill:#905426;stroke:#905426;" x="100.554545" xlink:href="#mbec656e4a2" y="108.725814"/>
     <use style="fill:#905426;stroke:#905426;" x="103.090909" xlink:href="#mbec656e4a2" y="107.697532"/>
     <use style="fill:#905426;stroke:#905426;" x="105.627273" xlink:href="#mbec656e4a2" y="107.414165"/>
     <use style="fill:#905426;stroke:#905426;" x="108.163636" xlink:href="#mbec656e4a2" y="106.650573"/>
     <use style="fill:#905426;stroke:#905426;" x="110.7" xlink:href="#mbec656e4a2" y="106.071763"/>
     <use style="fill:#905426;stroke:#905426;" x="113.236364" xlink:href="#mbec656e4a2" y="104.319846"/>
     <use style="fill:#905426;stroke:#905426;" x="115.772727" xlink:href="#mbec656e4a2" y="103.147791"/>
     <use style="fill:#905426;stroke:#905426;" x="118.309091" xlink:href="#mbec656e4a2" y="101.107842"/>
     <use style="fill:#905426;stroke:#905426;" x="120.845455" xlink:href="#mbec656e4a2" y="99.097603"/>
     <use style="fill:#905426;stroke:#905426;" x="123.381818" xlink:href="#mbec656e4a2" y="98.898495"/>
     <use style="fill:#905426;stroke:#905426;" x="125.918182" xlink:href="#mbec656e4a2" y="98.320155"/>
     <use style="fill:#905426;stroke:#905426;" x="128.454545" xlink:href="#mbec656e4a2" y="97.502358"/>
     <use style="fill:#905426;stroke:#905426;" x="130.990909" xlink:href="#mbec656e4a2" y="93.337996"/>
     <use style="fill:#905426;stroke:#905426;" x="133.527273" xlink:href="#mbec656e4a2" y="88.372319"/>
     <use style="fill:#905426;stroke:#905426;" x="136.063636" xlink:href="#mbec656e4a2" y="81.371445"/>
     <use style="fill:#905426;stroke:#905426;" x="138.6" xlink:href="#mbec656e4a2" y="77.224859"/>
     <use style="fill:#905426;stroke:#905426;" x="141.136364" xlink:href="#mbec656e4a2" y="77.094423"/>
     <use style="fill:#905426;stroke:#905426;" x="143.672727" xlink:href="#mbec656e4a2" y="77.198113"/>
     <use style="fill:#905426;stroke:#905426;" x="146.209091" xlink:href="#mbec656e4a2" y="72.307655"/>
     <use style="fill:#905426;stroke:#905426;" x="148.745455" xlink:href="#mbec656e4a2" y="68.058728"/>
     <use style="fill:#905426;stroke:#905426;" x="151.281818" xlink:href="#mbec656e4a2" y="68.312785"/>
     <use style="fill:#905426;stroke:#905426;" x="153.818182" xlink:href="#mbec656e4a2" y="63.527036"/>
     <use style="fill:#905426;stroke:#905426;" x="156.354545" xlink:href="#mbec656e4a2" y="59.337889"/>
     <use style="fill:#905426;stroke:#905426;" x="158.890909" xlink:href="#mbec656e4a2" y="55.356757"/>
     <use style="fill:#905426;stroke:#905426;" x="161.427273" xlink:href="#mbec656e4a2" y="52.199679"/>
     <use style="fill:#905426;stroke:#905426;" x="163.963636" xlink:href="#mbec656e4a2" y="51.41995"/>
     <use style="fill:#905426;stroke:#905426;" x="166.5" xlink:href="#mbec656e4a2" y="48.678741"/>
     <use style="fill:#905426;stroke:#905426;" x="169.036364" xlink:href="#mbec656e4a2" y="46.365393"/>
     <use style="fill:#905426;stroke:#905426;" x="171.572727" xlink:href="#mbec656e4a2" y="48.086907"/>
     <use style="fill:#905426;stroke:#905426;" x="174.109091" xlink:href="#mbec656e4a2" y="45.024914"/>
     <use style="fill:#905426;stroke:#905426;" x="176.645455" xlink:href="#mbec656e4a2" y="41.467474"/>
     <use style="fill:#905426;stroke:#905426;" x="179.181818" xlink:href="#mbec656e4a2" y="42.143048"/>
     <use style="fill:#905426;stroke:#905426;" x="181.718182" xlink:href="#mbec656e4a2" y="39.524035"/>
     <use style="fill:#905426;stroke:#905426;" x="184.254545" xlink:href="#mbec656e4a2" y="37.45243"/>
     <use style="fill:#905426;stroke:#905426;" x="186.790909" xlink:href="#mbec656e4a2" y="34.190222"/>
     <use style="fill:#905426;stroke:#905426;" x="189.327273" xlink:href="#mbec656e4a2" y="32.28739"/>
     <use style="fill:#905426;stroke:#905426;" x="191.863636" xlink:href="#mbec656e4a2" y="26.775627"/>
     <use style="fill:#905426;stroke:#905426;" x="194.4" xlink:href="#mbec656e4a2" y="24.05672"/>
     <use style="fill:#905426;stroke:#905426;" x="196.936364" xlink:href="#mbec656e4a2" y="22.221818"/>
    </g>
   </g>
   <g id="line2d_3">
    <path clip-path="url(#p1820e933b1)" d="M 24.463636 121.057704 
L 27 121.056841 
L 29.536364 121.051862 
L 32.072727 121.058182 
L 34.609091 121.056927 
L 37.145455 121.054791 
L 39.681818 121.055626 
L 42.218182 121.054524 
L 44.754545 121.052289 
L 47.290909 121.052485 
L 49.827273 121.051595 
L 52.363636 121.050525 
L 54.9 121.048584 
L 57.436364 121.053093 
L 59.972727 121.052775 
L 62.509091 121.049176 
L 65.045455 121.049329 
L 67.581818 121.043856 
L 70.118182 121.042002 
L 72.654545 121.029111 
L 75.190909 121.027339 
L 77.727273 121.017663 
L 80.263636 121.006396 
L 82.8 120.994148 
L 85.336364 120.981438 
L 87.872727 120.974189 
L 90.409091 120.939696 
L 92.945455 120.888851 
L 95.481818 120.849438 
L 98.018182 120.81144 
L 100.554545 120.771549 
L 103.090909 120.70352 
L 105.627273 120.600982 
L 108.163636 120.476153 
L 110.7 120.344 
L 113.236364 120.18616 
L 115.772727 119.756189 
L 118.309091 119.033099 
L 120.845455 118.70089 
L 123.381818 118.522059 
L 125.918182 118.275996 
L 128.454545 117.630431 
L 130.990909 117.415743 
L 133.527273 117.68328 
L 136.063636 117.477276 
L 138.6 117.285053 
L 141.136364 117.223955 
L 143.672727 117.170099 
L 146.209091 116.876358 
L 148.745455 116.550739 
L 151.281818 115.752819 
L 153.818182 114.911769 
L 156.354545 114.312404 
L 158.890909 111.502656 
L 161.427273 110.223808 
L 163.963636 108.94316 
L 166.5 107.112716 
L 169.036364 106.323175 
L 171.572727 106.017517 
L 174.109091 105.527146 
L 176.645455 105.191271 
L 179.181818 103.733644 
L 181.718182 103.284482 
L 184.254545 102.759997 
L 186.790909 101.368226 
L 189.327273 100.321534 
L 191.863636 98.960563 
L 194.4 96.442907 
L 196.936364 95.514085 
" style="fill:none;stroke:#e8b19d;stroke-linecap:round;stroke-width:0.75;"/>
    <defs>
     <path d="M 0 0.5 
C 0.132602 0.5 0.25979 0.447317 0.353553 0.353553 
C 0.447317 0.25979 0.5 0.132602 0.5 0 
C 0.5 -0.132602 0.447317 -0.25979 0.353553 -0.353553 
C 0.25979 -0.447317 0.132602 -0.5 0 -0.5 
C -0.132602 -0.5 -0.25979 -0.447317 -0.353553 -0.353553 
C -0.447317 -0.25979 -0.5 -0.132602 -0.5 0 
C -0.5 0.132602 -0.447317 0.25979 -0.353553 0.353553 
C -0.25979 0.447317 -0.132602 0.5 0 0.5 
z
" id="md748af4889" style="stroke:#e8b19d;"/>
    </defs>
    <g clip-path="url(#p1820e933b1)">
     <use style="fill:#e8b19d;stroke:#e8b19d;" x="24.463636" xlink:href="#md748af4889" y="121.057704"/>
     <use style="fill:#e8b19d;stroke:#e8b19d;" x="27" xlink:href="#md748af4889" y="121.056841"/>
     <use style="fill:#e8b19d;stroke:#e8b19d;" x="29.536364" xlink:href="#md748af4889" y="121.051862"/>
     <use style="fill:#e8b19d;stroke:#e8b19d;" x="32.072727" xlink:href="#md748af4889" y="121.058182"/>
     <use style="fill:#e8b19d;stroke:#e8b19d;" x="34.609091" xlink:href="#md748af4889" y="121.056927"/>
     <use style="fill:#e8b19d;stroke:#e8b19d;" x="37.145455" xlink:href="#md748af4889" y="121.054791"/>
     <use style="fill:#e8b19d;stroke:#e8b19d;" x="39.681818" xlink:href="#md748af4889" y="121.055626"/>
     <use style="fill:#e8b19d;stroke:#e8b19d;" x="42.218182" xlink:href="#md748af4889" y="121.054524"/>
     <use style="fill:#e8b19d;stroke:#e8b19d;" x="44.754545" xlink:href="#md748af4889" y="121.052289"/>
     <use style="fill:#e8b19d;stroke:#e8b19d;" x="47.290909" xlink:href="#md748af4889" y="121.052485"/>
     <use style="fill:#e8b19d;stroke:#e8b19d;" x="49.827273" xlink:href="#md748af4889" y="121.051595"/>
     <use style="fill:#e8b19d;stroke:#e8b19d;" x="52.363636" xlink:href="#md748af4889" y="121.050525"/>
     <use style="fill:#e8b19d;stroke:#e8b19d;" x="54.9" xlink:href="#md748af4889" y="121.048584"/>
     <use style="fill:#e8b19d;stroke:#e8b19d;" x="57.436364" xlink:href="#md748af4889" y="121.053093"/>
     <use style="fill:#e8b19d;stroke:#e8b19d;" x="59.972727" xlink:href="#md748af4889" y="121.052775"/>
     <use style="fill:#e8b19d;stroke:#e8b19d;" x="62.509091" xlink:href="#md748af4889" y="121.049176"/>
     <use style="fill:#e8b19d;stroke:#e8b19d;" x="65.045455" xlink:href="#md748af4889" y="121.049329"/>
     <use style="fill:#e8b19d;stroke:#e8b19d;" x="67.581818" xlink:href="#md748af4889" y="121.043856"/>
     <use style="fill:#e8b19d;stroke:#e8b19d;" x="70.118182" xlink:href="#md748af4889" y="121.042002"/>
     <use style="fill:#e8b19d;stroke:#e8b19d;" x="72.654545" xlink:href="#md748af4889" y="121.029111"/>
     <use style="fill:#e8b19d;stroke:#e8b19d;" x="75.190909" xlink:href="#md748af4889" y="121.027339"/>
     <use style="fill:#e8b19d;stroke:#e8b19d;" x="77.727273" xlink:href="#md748af4889" y="121.017663"/>
     <use style="fill:#e8b19d;stroke:#e8b19d;" x="80.263636" xlink:href="#md748af4889" y="121.006396"/>
     <use style="fill:#e8b19d;stroke:#e8b19d;" x="82.8" xlink:href="#md748af4889" y="120.994148"/>
     <use style="fill:#e8b19d;stroke:#e8b19d;" x="85.336364" xlink:href="#md748af4889" y="120.981438"/>
     <use style="fill:#e8b19d;stroke:#e8b19d;" x="87.872727" xlink:href="#md748af4889" y="120.974189"/>
     <use style="fill:#e8b19d;stroke:#e8b19d;" x="90.409091" xlink:href="#md748af4889" y="120.939696"/>
     <use style="fill:#e8b19d;stroke:#e8b19d;" x="92.945455" xlink:href="#md748af4889" y="120.888851"/>
     <use style="fill:#e8b19d;stroke:#e8b19d;" x="95.481818" xlink:href="#md748af4889" y="120.849438"/>
     <use style="fill:#e8b19d;stroke:#e8b19d;" x="98.018182" xlink:href="#md748af4889" y="120.81144"/>
     <use style="fill:#e8b19d;stroke:#e8b19d;" x="100.554545" xlink:href="#md748af4889" y="120.771549"/>
     <use style="fill:#e8b19d;stroke:#e8b19d;" x="103.090909" xlink:href="#md748af4889" y="120.70352"/>
     <use style="fill:#e8b19d;stroke:#e8b19d;" x="105.627273" xlink:href="#md748af4889" y="120.600982"/>
     <use style="fill:#e8b19d;stroke:#e8b19d;" x="108.163636" xlink:href="#md748af4889" y="120.476153"/>
     <use style="fill:#e8b19d;stroke:#e8b19d;" x="110.7" xlink:href="#md748af4889" y="120.344"/>
     <use style="fill:#e8b19d;stroke:#e8b19d;" x="113.236364" xlink:href="#md748af4889" y="120.18616"/>
     <use style="fill:#e8b19d;stroke:#e8b19d;" x="115.772727" xlink:href="#md748af4889" y="119.756189"/>
     <use style="fill:#e8b19d;stroke:#e8b19d;" x="118.309091" xlink:href="#md748af4889" y="119.033099"/>
     <use style="fill:#e8b19d;stroke:#e8b19d;" x="120.845455" xlink:href="#md748af4889" y="118.70089"/>
     <use style="fill:#e8b19d;stroke:#e8b19d;" x="123.381818" xlink:href="#md748af4889" y="118.522059"/>
     <use style="fill:#e8b19d;stroke:#e8b19d;" x="125.918182" xlink:href="#md748af4889" y="118.275996"/>
     <use style="fill:#e8b19d;stroke:#e8b19d;" x="128.454545" xlink:href="#md748af4889" y="117.630431"/>
     <use style="fill:#e8b19d;stroke:#e8b19d;" x="130.990909" xlink:href="#md748af4889" y="117.415743"/>
     <use style="fill:#e8b19d;stroke:#e8b19d;" x="133.527273" xlink:href="#md748af4889" y="117.68328"/>
     <use style="fill:#e8b19d;stroke:#e8b19d;" x="136.063636" xlink:href="#md748af4889" y="117.477276"/>
     <use style="fill:#e8b19d;stroke:#e8b19d;" x="138.6" xlink:href="#md748af4889" y="117.285053"/>
     <use style="fill:#e8b19d;stroke:#e8b19d;" x="141.136364" xlink:href="#md748af4889" y="117.223955"/>
     <use style="fill:#e8b19d;stroke:#e8b19d;" x="143.672727" xlink:href="#md748af4889" y="117.170099"/>
     <use style="fill:#e8b19d;stroke:#e8b19d;" x="146.209091" xlink:href="#md748af4889" y="116.876358"/>
     <use style="fill:#e8b19d;stroke:#e8b19d;" x="148.745455" xlink:href="#md748af4889" y="116.550739"/>
     <use style="fill:#e8b19d;stroke:#e8b19d;" x="151.281818" xlink:href="#md748af4889" y="115.752819"/>
     <use style="fill:#e8b19d;stroke:#e8b19d;" x="153.818182" xlink:href="#md748af4889" y="114.911769"/>
     <use style="fill:#e8b19d;stroke:#e8b19d;" x="156.354545" xlink:href="#md748af4889" y="114.312404"/>
     <use style="fill:#e8b19d;stroke:#e8b19d;" x="158.890909" xlink:href="#md748af4889" y="111.502656"/>
     <use style="fill:#e8b19d;stroke:#e8b19d;" x="161.427273" xlink:href="#md748af4889" y="110.223808"/>
     <use style="fill:#e8b19d;stroke:#e8b19d;" x="163.963636" xlink:href="#md748af4889" y="108.94316"/>
     <use style="fill:#e8b19d;stroke:#e8b19d;" x="166.5" xlink:href="#md748af4889" y="107.112716"/>
     <use style="fill:#e8b19d;stroke:#e8b19d;" x="169.036364" xlink:href="#md748af4889" y="106.323175"/>
     <use style="fill:#e8b19d;stroke:#e8b19d;" x="171.572727" xlink:href="#md748af4889" y="106.017517"/>
     <use style="fill:#e8b19d;stroke:#e8b19d;" x="174.109091" xlink:href="#md748af4889" y="105.527146"/>
     <use style="fill:#e8b19d;stroke:#e8b19d;" x="176.645455" xlink:href="#md748af4889" y="105.191271"/>
     <use style="fill:#e8b19d;stroke:#e8b19d;" x="179.181818" xlink:href="#md748af4889" y="103.733644"/>
     <use style="fill:#e8b19d;stroke:#e8b19d;" x="181.718182" xlink:href="#md748af4889" y="103.284482"/>
     <use style="fill:#e8b19d;stroke:#e8b19d;" x="184.254545" xlink:href="#md748af4889" y="102.759997"/>
     <use style="fill:#e8b19d;stroke:#e8b19d;" x="186.790909" xlink:href="#md748af4889" y="101.368226"/>
     <use style="fill:#e8b19d;stroke:#e8b19d;" x="189.327273" xlink:href="#md748af4889" y="100.321534"/>
     <use style="fill:#e8b19d;stroke:#e8b19d;" x="191.863636" xlink:href="#md748af4889" y="98.960563"/>
     <use style="fill:#e8b19d;stroke:#e8b19d;" x="194.4" xlink:href="#md748af4889" y="96.442907"/>
     <use style="fill:#e8b19d;stroke:#e8b19d;" x="196.936364" xlink:href="#md748af4889" y="95.514085"/>
    </g>
   </g>
   <g id="patch_3">
    <path d="M 27 126 
L 27 17.28 
" style="fill:none;stroke:#ffffff;stroke-linecap:square;stroke-linejoin:miter;stroke-width:0.8;"/>
   </g>
   <g id="patch_4">
    <path d="M 194.4 126 
L 194.4 17.28 
" style="fill:none;stroke:#ffffff;stroke-linecap:square;stroke-linejoin:miter;stroke-width:0.8;"/>
   </g>
   <g id="patch_5">
    <path d="M 27 126 
L 194.4 126 
" style="fill:none;stroke:#ffffff;stroke-linecap:square;stroke-linejoin:miter;stroke-width:0.8;"/>
   </g>
   <g id="patch_6">
    <path d="M 27 17.28 
L 194.4 17.28 
" style="fill:none;stroke:#ffffff;stroke-linecap:square;stroke-linejoin:miter;stroke-width:0.8;"/>
   </g>
   <g id="legend_1">
    <g id="patch_7">
     <path d="M 31.2 48.4275 
L 125.41875 48.4275 
Q 126.61875 48.4275 126.61875 47.2275 
L 126.61875 21.48 
Q 126.61875 20.28 125.41875 20.28 
L 31.2 20.28 
Q 30 20.28 30 21.48 
L 30 47.2275 
Q 30 48.4275 31.2 48.4275 
z
" style="fill:#e3dcd0;opacity:0.8;stroke:#cccccc;stroke-linejoin:miter;"/>
    </g>
    <g id="line2d_4">
     <path d="M 32.4 25.205625 
L 44.4 25.205625 
" style="fill:none;stroke:#ab85ac;stroke-linecap:round;stroke-width:0.75;"/>
    </g>
    <g id="line2d_5">
     <g>
      <use style="fill:#ab85ac;stroke:#ab85ac;" x="38.4" xlink:href="#m6e698b9f9d" y="25.205625"/>
     </g>
    </g>
    <g id="text_15">
     <!-- carp -->
     <defs>
      <path d="M 46.4375 1.609375 
Q 37.109375 -1.21875 30.328125 -1.21875 
Q 19.578125 -1.21875 12.5 6.734375 
Q 5.421875 14.703125 5.421875 26.8125 
Q 5.421875 39.75 12.421875 46.96875 
Q 19.4375 54.203125 31.984375 54.203125 
Q 38.1875 54.203125 45.84375 52.484375 
L 45.84375 44.4375 
Q 37.703125 46.828125 32.5625 46.828125 
Q 25.140625 46.828125 20.703125 41.28125 
Q 16.265625 35.75 16.265625 26.515625 
Q 16.265625 17.578125 20.84375 12.0625 
Q 25.4375 6.546875 32.859375 6.546875 
Q 39.453125 6.546875 46.4375 9.90625 
z
" id="LucidaSansUnicode-99"/>
     </defs>
     <g style="fill:#262626;" transform="translate(49.2 27.305625)scale(0.06 -0.06)">
      <use xlink:href="#LucidaSansUnicode-99"/>
      <use x="51.220703" xlink:href="#LucidaSansUnicode-97"/>
      <use x="106.445312" xlink:href="#LucidaSansUnicode-114"/>
      <use x="147.363281" xlink:href="#LucidaSansUnicode-112"/>
     </g>
    </g>
    <g id="line2d_6">
     <path d="M 32.4 33.988125 
L 44.4 33.988125 
" style="fill:none;stroke:#905426;stroke-linecap:round;stroke-width:0.75;"/>
    </g>
    <g id="line2d_7">
     <g>
      <use style="fill:#905426;stroke:#905426;" x="38.4" xlink:href="#mbec656e4a2" y="33.988125"/>
     </g>
    </g>
    <g id="text_16">
     <!-- oysters, clams, &amp; mussels -->
     <defs>
      <path d="M 9.765625 -15.671875 
L 9.765625 -12.0625 
Q 14.453125 -10.75 14.453125 -0.984375 
L 14.453125 0 
L 9.765625 0 
L 9.765625 12.0625 
L 21.828125 12.0625 
L 21.828125 1.609375 
Q 21.828125 -14.453125 9.765625 -15.671875 
z
" id="LucidaSansUnicode-44"/>
      <path d="M 51.8125 0 
L 48.25 4.296875 
Q 40.234375 -1.8125 29.546875 -1.8125 
Q 18.21875 -1.8125 10.90625 4.75 
Q 3.609375 11.328125 3.609375 21.484375 
Q 3.609375 38.1875 21.234375 44.140625 
Q 16.359375 52.984375 16.359375 58.84375 
Q 16.359375 65.234375 21.4375 69.65625 
Q 26.515625 74.078125 33.84375 74.078125 
Q 40.875 74.078125 45.4375 69.953125 
Q 50 65.828125 50 59.46875 
Q 50 48.640625 34.125 40.625 
Q 41.40625 27.734375 51.078125 16.546875 
Q 55.515625 23.046875 55.515625 34.90625 
L 55.46875 38.421875 
L 65.046875 38.421875 
Q 65.046875 22.40625 55.46875 10.796875 
Q 59.859375 5.21875 65.484375 0 
z
M 44.046875 9.859375 
Q 33.796875 22.46875 24.515625 38.421875 
Q 13.234375 33.9375 13.234375 23.828125 
Q 13.234375 16.15625 18.4375 10.78125 
Q 23.640625 5.421875 31.109375 5.421875 
Q 37.890625 5.421875 44.046875 9.859375 
z
M 30.609375 46.734375 
Q 40.96875 51.46875 40.96875 59.328125 
Q 40.96875 62.75 38.890625 64.796875 
Q 36.8125 66.84375 33.453125 66.84375 
Q 30.078125 66.84375 28.046875 64.765625 
Q 26.03125 62.703125 26.03125 59.28125 
Q 26.03125 54.296875 30.609375 46.734375 
z
" id="LucidaSansUnicode-38"/>
     </defs>
     <g style="fill:#262626;" transform="translate(49.2 36.088125)scale(0.06 -0.06)">
      <use xlink:href="#LucidaSansUnicode-111"/>
      <use x="61.425781" xlink:href="#LucidaSansUnicode-121"/>
      <use x="113.671875" xlink:href="#LucidaSansUnicode-115"/>
      <use x="164.648438" xlink:href="#LucidaSansUnicode-116"/>
      <use x="202.050781" xlink:href="#LucidaSansUnicode-101"/>
      <use x="257.763672" xlink:href="#LucidaSansUnicode-114"/>
      <use x="298.681641" xlink:href="#LucidaSansUnicode-115"/>
      <use x="349.658203" xlink:href="#LucidaSansUnicode-44"/>
      <use x="381.298828" xlink:href="#LucidaSansUnicode-32"/>
      <use x="412.939453" xlink:href="#LucidaSansUnicode-99"/>
      <use x="464.160156" xlink:href="#LucidaSansUnicode-108"/>
      <use x="493.066406" xlink:href="#LucidaSansUnicode-97"/>
      <use x="548.291016" xlink:href="#LucidaSansUnicode-109"/>
      <use x="641.650391" xlink:href="#LucidaSansUnicode-115"/>
      <use x="692.626953" xlink:href="#LucidaSansUnicode-44"/>
      <use x="724.267578" xlink:href="#LucidaSansUnicode-32"/>
      <use x="755.908203" xlink:href="#LucidaSansUnicode-38"/>
      <use x="825.634766" xlink:href="#LucidaSansUnicode-32"/>
      <use x="857.275391" xlink:href="#LucidaSansUnicode-109"/>
      <use x="950.634766" xlink:href="#LucidaSansUnicode-117"/>
      <use x="1012.695312" xlink:href="#LucidaSansUnicode-115"/>
      <use x="1063.671875" xlink:href="#LucidaSansUnicode-115"/>
      <use x="1114.648438" xlink:href="#LucidaSansUnicode-101"/>
      <use x="1170.361328" xlink:href="#LucidaSansUnicode-108"/>
      <use x="1199.267578" xlink:href="#LucidaSansUnicode-115"/>
     </g>
    </g>
    <g id="line2d_8">
     <path d="M 32.4 42.770625 
L 44.4 42.770625 
" style="fill:none;stroke:#e8b19d;stroke-linecap:round;stroke-width:0.75;"/>
    </g>
    <g id="line2d_9">
     <g>
      <use style="fill:#e8b19d;stroke:#e8b19d;" x="38.4" xlink:href="#md748af4889" y="42.770625"/>
     </g>
    </g>
    <g id="text_17">
     <!-- shrimp &amp; prawns -->
     <defs>
      <path d="M 9.625 0 
L 9.625 77.09375 
L 19.234375 77.09375 
L 19.234375 43.0625 
Q 26.859375 54.203125 37.890625 54.203125 
Q 44.828125 54.203125 48.90625 49.828125 
Q 52.984375 45.453125 52.984375 38.09375 
L 52.984375 0 
L 43.359375 0 
L 43.359375 34.96875 
Q 43.359375 40.875 41.625 43.390625 
Q 39.890625 45.90625 35.890625 45.90625 
Q 27.046875 45.90625 19.234375 34.328125 
L 19.234375 0 
z
" id="LucidaSansUnicode-104"/>
      <path d="M 15.765625 0 
L 0.59375 53.03125 
L 10.015625 53.03125 
L 21.625 11.96875 
L 34.1875 53.03125 
L 43.796875 53.03125 
L 54.78125 11.96875 
L 68.109375 53.03125 
L 76.375 53.03125 
L 59.078125 0 
L 49.421875 0 
L 38.1875 41.0625 
L 25.484375 0 
z
" id="LucidaSansUnicode-119"/>
     </defs>
     <g style="fill:#262626;" transform="translate(49.2 44.870625)scale(0.06 -0.06)">
      <use xlink:href="#LucidaSansUnicode-115"/>
      <use x="50.976562" xlink:href="#LucidaSansUnicode-104"/>
      <use x="113.037109" xlink:href="#LucidaSansUnicode-114"/>
      <use x="153.955078" xlink:href="#LucidaSansUnicode-105"/>
      <use x="182.861328" xlink:href="#LucidaSansUnicode-109"/>
      <use x="276.220703" xlink:href="#LucidaSansUnicode-112"/>
      <use x="339.160156" xlink:href="#LucidaSansUnicode-32"/>
      <use x="370.800781" xlink:href="#LucidaSansUnicode-38"/>
      <use x="440.527344" xlink:href="#LucidaSansUnicode-32"/>
      <use x="472.167969" xlink:href="#LucidaSansUnicode-112"/>
      <use x="535.107422" xlink:href="#LucidaSansUnicode-114"/>
      <use x="576.025391" xlink:href="#LucidaSansUnicode-97"/>
      <use x="631.25" xlink:href="#LucidaSansUnicode-119"/>
      <use x="708.300781" xlink:href="#LucidaSansUnicode-110"/>
      <use x="770.361328" xlink:href="#LucidaSansUnicode-115"/>
     </g>
    </g>
   </g>
  </g>
 </g>
 <defs>
  <clipPath id="p1820e933b1">
   <rect height="108.72" width="167.4" x="27" y="17.28"/>
  </clipPath>
 </defs>
</svg>
