<?xml version="1.0" encoding="utf-8" standalone="no"?>
<!DOCTYPE svg PUBLIC "-//W3C//DTD SVG 1.1//EN"
  "http://www.w3.org/Graphics/SVG/1.1/DTD/svg11.dtd">
<!-- Created with matplotlib (https://matplotlib.org/) -->
<svg height="144pt" version="1.1" viewBox="0 0 216 144" width="216pt" xmlns="http://www.w3.org/2000/svg" xmlns:xlink="http://www.w3.org/1999/xlink">
 <defs>
  <style type="text/css">
*{stroke-linecap:butt;stroke-linejoin:round;}
  </style>
 </defs>
 <g id="figure_1">
  <g id="patch_1">
   <path d="M 0 144 
L 216 144 
L 216 0 
L 0 0 
z
" style="fill:#ffffff;"/>
  </g>
  <g id="axes_1">
   <g id="patch_2">
    <path d="M 27 126 
L 194.4 126 
L 194.4 17.28 
L 27 17.28 
z
" style="fill:#e3dcd0;"/>
   </g>
   <g id="matplotlib.axis_1">
    <g id="xtick_1">
     <g id="text_1">
      <!-- 1950 -->
      <defs>
       <path d="M 26.171875 0 
L 26.171875 65.046875 
L 14.75 65.046875 
L 14.75 71.09375 
L 35.84375 72.90625 
L 35.84375 0 
z
" id="LucidaSansUnicode-49"/>
       <path d="M 11.375 0.4375 
L 11.375 8.59375 
Q 20.5625 5.421875 27 5.421875 
Q 35.984375 5.421875 41.03125 13.0625 
Q 46.09375 20.703125 46.09375 34.328125 
Q 38.765625 25.296875 29.4375 25.296875 
Q 20.3125 25.296875 13.96875 32 
Q 7.625 38.71875 7.625 48.390625 
Q 7.625 59.46875 14.375 66.765625 
Q 21.140625 74.078125 31.390625 74.078125 
Q 43.171875 74.078125 49.953125 64.625 
Q 56.734375 55.171875 56.734375 38.765625 
Q 56.734375 28.328125 53.46875 19.109375 
Q 50.203125 9.90625 44.671875 4.78125 
Q 37.59375 -1.8125 26.078125 -1.8125 
Q 20.40625 -1.8125 11.375 0.4375 
z
M 17.234375 50.046875 
Q 17.234375 41.796875 20.984375 37.015625 
Q 24.75 32.234375 31.15625 32.234375 
Q 37.3125 32.234375 41.625 36.375 
Q 45.953125 40.53125 45.953125 46.390625 
Q 45.953125 55.609375 41.765625 61.25 
Q 37.59375 66.890625 30.8125 66.890625 
Q 24.46875 66.890625 20.84375 62.390625 
Q 17.234375 57.90625 17.234375 50.046875 
z
" id="LucidaSansUnicode-57"/>
       <path d="M 12.15625 -0.296875 
L 12.15625 8.296875 
Q 19.34375 5.421875 25.828125 5.421875 
Q 32.953125 5.421875 37.03125 9.609375 
Q 41.109375 13.8125 41.109375 21.1875 
Q 41.109375 29.109375 35.34375 33.28125 
Q 29.59375 37.453125 18.703125 37.453125 
Q 16.15625 37.453125 13.375 37.109375 
L 13.375 72.265625 
L 49.953125 72.265625 
L 49.953125 63.875 
L 21.828125 63.875 
L 21.828125 44.828125 
Q 35.75 44.828125 43.5625 38.421875 
Q 51.375 32.03125 51.375 20.703125 
Q 51.375 10.15625 44.265625 4.171875 
Q 37.15625 -1.8125 24.65625 -1.8125 
Q 19.09375 -1.8125 12.15625 -0.296875 
z
" id="LucidaSansUnicode-53"/>
       <path d="M 31.640625 -1.8125 
Q 20.265625 -1.8125 13.296875 8.609375 
Q 6.34375 19.046875 6.34375 36.140625 
Q 6.34375 53.21875 13.296875 63.640625 
Q 20.265625 74.078125 31.640625 74.078125 
Q 43.0625 74.078125 50 63.671875 
Q 56.9375 53.265625 56.9375 36.140625 
Q 56.9375 19.046875 50 8.609375 
Q 43.0625 -1.8125 31.640625 -1.8125 
z
M 31.640625 5.421875 
Q 46.734375 5.421875 46.734375 36.140625 
Q 46.734375 66.84375 31.640625 66.84375 
Q 16.609375 66.84375 16.609375 36.140625 
Q 16.609375 5.421875 31.640625 5.421875 
z
" id="LucidaSansUnicode-48"/>
      </defs>
      <g transform="translate(27.020966 134.125625)scale(0.06 -0.06)">
       <use xlink:href="#LucidaSansUnicode-49"/>
       <use x="63.232422" xlink:href="#LucidaSansUnicode-57"/>
       <use x="126.464844" xlink:href="#LucidaSansUnicode-53"/>
       <use x="189.697266" xlink:href="#LucidaSansUnicode-48"/>
      </g>
     </g>
    </g>
    <g id="xtick_2">
     <g id="text_2">
      <!-- 1960 -->
      <defs>
       <path d="M 17.1875 37.453125 
Q 24.078125 46.390625 34.515625 46.390625 
Q 44 46.390625 50.03125 40.109375 
Q 56.0625 33.84375 56.0625 24.03125 
Q 56.0625 12.75 49.296875 5.46875 
Q 42.53125 -1.8125 32.078125 -1.8125 
Q 20.171875 -1.8125 13.421875 7.828125 
Q 6.6875 17.484375 6.6875 34.515625 
Q 6.6875 57.46875 18.453125 68.21875 
Q 24.859375 74.125 36.140625 74.125 
Q 42.671875 74.125 52.34375 71.390625 
L 52.34375 62.984375 
Q 42.140625 66.890625 35.546875 66.890625 
Q 17.1875 66.890625 17.1875 37.453125 
z
M 46.390625 22.125 
Q 46.390625 30.125 42.671875 34.78125 
Q 38.96875 39.453125 32.515625 39.453125 
Q 26.375 39.453125 21.96875 35.34375 
Q 17.578125 31.25 17.578125 25.484375 
Q 17.578125 16.40625 21.75 10.90625 
Q 25.921875 5.421875 32.8125 5.421875 
Q 39.0625 5.421875 42.71875 9.90625 
Q 46.390625 14.40625 46.390625 22.125 
z
" id="LucidaSansUnicode-54"/>
      </defs>
      <g transform="translate(49.400645 134.125625)scale(0.06 -0.06)">
       <use xlink:href="#LucidaSansUnicode-49"/>
       <use x="63.232422" xlink:href="#LucidaSansUnicode-57"/>
       <use x="126.464844" xlink:href="#LucidaSansUnicode-54"/>
       <use x="189.697266" xlink:href="#LucidaSansUnicode-48"/>
      </g>
     </g>
    </g>
    <g id="xtick_3">
     <g id="text_3">
      <!-- 1970 -->
      <defs>
       <path d="M 15.046875 0 
Q 16.453125 8.453125 19.0625 14.59375 
Q 21.6875 20.75 28.328125 31.5 
L 48.046875 63.234375 
L 10.84375 63.234375 
L 10.84375 72.265625 
L 57.234375 72.265625 
L 57.234375 63.234375 
Q 29.4375 22.265625 26.125 0 
z
" id="LucidaSansUnicode-55"/>
      </defs>
      <g transform="translate(71.780324 134.125625)scale(0.06 -0.06)">
       <use xlink:href="#LucidaSansUnicode-49"/>
       <use x="63.232422" xlink:href="#LucidaSansUnicode-57"/>
       <use x="126.464844" xlink:href="#LucidaSansUnicode-55"/>
       <use x="189.697266" xlink:href="#LucidaSansUnicode-48"/>
      </g>
     </g>
    </g>
    <g id="xtick_4">
     <g id="text_4">
      <!-- 1980 -->
      <defs>
       <path d="M 23 39.359375 
Q 17.046875 43.5 14.71875 47.0625 
Q 12.40625 50.640625 12.40625 55.671875 
Q 12.40625 63.875 18.40625 69 
Q 24.421875 74.125 34.078125 74.125 
Q 43.015625 74.125 48.5625 69.78125 
Q 54.109375 65.4375 54.109375 58.5 
Q 54.109375 48 40.625 39.359375 
Q 56.984375 31.34375 56.984375 18.703125 
Q 56.984375 9.671875 50.140625 3.921875 
Q 43.3125 -1.8125 32.5625 -1.8125 
Q 21.828125 -1.8125 15.234375 3.578125 
Q 8.640625 8.984375 8.640625 17.78125 
Q 8.640625 30.765625 23 39.359375 
z
M 35.25 42.390625 
Q 45.359375 49.03125 45.359375 57.171875 
Q 45.359375 61.53125 41.96875 64.1875 
Q 38.578125 66.84375 33.109375 66.84375 
Q 27.78125 66.84375 24.453125 64.234375 
Q 21.140625 61.625 21.140625 57.46875 
Q 21.140625 53.421875 24.140625 50.1875 
Q 27.15625 46.96875 35.25 42.390625 
z
M 28.21875 35.453125 
Q 22.40625 30.953125 20.328125 27.609375 
Q 18.265625 24.265625 18.265625 19.28125 
Q 18.265625 13.09375 22.265625 9.25 
Q 26.265625 5.421875 32.8125 5.421875 
Q 39.109375 5.421875 43.09375 8.6875 
Q 47.078125 11.96875 47.078125 17.1875 
Q 47.078125 21.390625 44.609375 24.296875 
Q 42.140625 27.203125 35.0625 31.390625 
z
" id="LucidaSansUnicode-56"/>
      </defs>
      <g transform="translate(94.160003 134.125625)scale(0.06 -0.06)">
       <use xlink:href="#LucidaSansUnicode-49"/>
       <use x="63.232422" xlink:href="#LucidaSansUnicode-57"/>
       <use x="126.464844" xlink:href="#LucidaSansUnicode-56"/>
       <use x="189.697266" xlink:href="#LucidaSansUnicode-48"/>
      </g>
     </g>
    </g>
    <g id="xtick_5">
     <g id="text_5">
      <!-- 1990 -->
      <g transform="translate(116.539682 134.125625)scale(0.06 -0.06)">
       <use xlink:href="#LucidaSansUnicode-49"/>
       <use x="63.232422" xlink:href="#LucidaSansUnicode-57"/>
       <use x="126.464844" xlink:href="#LucidaSansUnicode-57"/>
       <use x="189.697266" xlink:href="#LucidaSansUnicode-48"/>
      </g>
     </g>
    </g>
    <g id="xtick_6">
     <g id="text_6">
      <!-- 2000 -->
      <defs>
       <path d="M 8.296875 0 
L 8.296875 8.453125 
Q 12.5 18.265625 25.296875 29.828125 
L 30.8125 34.765625 
Q 41.453125 44.390625 41.453125 53.859375 
Q 41.453125 59.90625 37.8125 63.375 
Q 34.1875 66.84375 27.78125 66.84375 
Q 20.3125 66.84375 10.109375 61.03125 
L 10.109375 69.53125 
Q 19.734375 74.078125 29.25 74.078125 
Q 39.40625 74.078125 45.53125 68.609375 
Q 51.65625 63.140625 51.65625 54.109375 
Q 51.65625 47.609375 48.546875 42.578125 
Q 45.453125 37.546875 37.015625 30.375 
L 33.296875 27.203125 
Q 21.734375 17.390625 19.921875 8.453125 
L 51.3125 8.453125 
L 51.3125 0 
z
" id="LucidaSansUnicode-50"/>
      </defs>
      <g transform="translate(138.919362 134.125625)scale(0.06 -0.06)">
       <use xlink:href="#LucidaSansUnicode-50"/>
       <use x="63.232422" xlink:href="#LucidaSansUnicode-48"/>
       <use x="126.464844" xlink:href="#LucidaSansUnicode-48"/>
       <use x="189.697266" xlink:href="#LucidaSansUnicode-48"/>
      </g>
     </g>
    </g>
    <g id="xtick_7">
     <g id="text_7">
      <!-- 2010 -->
      <g transform="translate(161.299041 134.125625)scale(0.06 -0.06)">
       <use xlink:href="#LucidaSansUnicode-50"/>
       <use x="63.232422" xlink:href="#LucidaSansUnicode-48"/>
       <use x="126.464844" xlink:href="#LucidaSansUnicode-49"/>
       <use x="189.697266" xlink:href="#LucidaSansUnicode-48"/>
      </g>
     </g>
    </g>
    <g id="xtick_8">
     <g id="text_8">
      <!-- 2020 -->
      <g transform="translate(183.67872 134.125625)scale(0.06 -0.06)">
       <use xlink:href="#LucidaSansUnicode-50"/>
       <use x="63.232422" xlink:href="#LucidaSansUnicode-48"/>
       <use x="126.464844" xlink:href="#LucidaSansUnicode-50"/>
       <use x="189.697266" xlink:href="#LucidaSansUnicode-48"/>
      </g>
     </g>
    </g>
    <g id="text_9">
     <!-- year -->
     <defs>
      <path d="M 12.703125 -19.28125 
L 21.296875 0 
L 0.78125 53.03125 
L 11.1875 53.03125 
L 26.375 13.09375 
L 42.578125 53.03125 
L 51.65625 53.03125 
L 22.703125 -19.28125 
z
" id="LucidaSansUnicode-121"/>
      <path d="M 48.484375 1.703125 
Q 38.8125 -1.21875 31.9375 -1.21875 
Q 20.171875 -1.21875 12.796875 6.5625 
Q 5.421875 14.359375 5.421875 26.765625 
Q 5.421875 38.8125 11.9375 46.53125 
Q 18.453125 54.25 28.609375 54.25 
Q 38.234375 54.25 43.484375 47.390625 
Q 48.734375 40.53125 48.734375 27.9375 
L 48.6875 25 
L 15.234375 25 
Q 17.328125 6.109375 33.734375 6.109375 
Q 39.75 6.109375 48.484375 9.328125 
z
M 15.671875 32.234375 
L 39.0625 32.234375 
Q 39.0625 47.015625 28.03125 47.015625 
Q 16.9375 47.015625 15.671875 32.234375 
z
" id="LucidaSansUnicode-101"/>
      <path d="M 36.96875 6.734375 
Q 28.328125 -1.21875 20.3125 -1.21875 
Q 13.71875 -1.21875 9.375 2.90625 
Q 5.03125 7.03125 5.03125 13.328125 
Q 5.03125 22.015625 12.328125 26.671875 
Q 19.625 31.34375 33.296875 31.34375 
L 35.546875 31.34375 
L 35.546875 37.75 
Q 35.546875 46.96875 25.921875 46.96875 
Q 18.453125 46.96875 9.625 42.28125 
L 9.625 50.25 
Q 19.34375 54.203125 27.9375 54.203125 
Q 36.765625 54.203125 40.96875 50.171875 
Q 45.171875 46.140625 45.171875 37.75 
L 45.171875 13.71875 
Q 45.171875 5.46875 50.25 5.46875 
Q 50.875 5.46875 52.09375 5.671875 
L 52.78125 0.34375 
Q 49.515625 -1.21875 45.5625 -1.21875 
Q 38.8125 -1.21875 36.96875 6.734375 
z
M 35.546875 11.96875 
L 35.546875 25.6875 
L 32.46875 25.78125 
Q 24.46875 25.78125 19.5625 22.796875 
Q 14.65625 19.828125 14.65625 14.890625 
Q 14.65625 11.421875 17.09375 9.03125 
Q 19.53125 6.640625 23.046875 6.640625 
Q 29.046875 6.640625 35.546875 11.96875 
z
" id="LucidaSansUnicode-97"/>
      <path d="M 9.625 0 
L 9.625 53.03125 
L 19.234375 53.03125 
L 19.234375 43.0625 
Q 24.953125 54.203125 35.84375 54.203125 
Q 37.3125 54.203125 38.921875 53.953125 
L 38.921875 44.96875 
Q 36.421875 45.796875 34.515625 45.796875 
Q 25.390625 45.796875 19.234375 34.96875 
L 19.234375 0 
z
" id="LucidaSansUnicode-114"/>
     </defs>
     <g style="fill:#262626;" transform="translate(104.576719 143.908125)scale(0.06 -0.06)">
      <use xlink:href="#LucidaSansUnicode-121"/>
      <use x="52.246094" xlink:href="#LucidaSansUnicode-101"/>
      <use x="107.958984" xlink:href="#LucidaSansUnicode-97"/>
      <use x="163.183594" xlink:href="#LucidaSansUnicode-114"/>
     </g>
    </g>
   </g>
   <g id="matplotlib.axis_2">
    <g id="ytick_1">
     <g id="text_10">
      <!-- 0.0 -->
      <defs>
       <path d="M 9.765625 0 
L 9.765625 12.0625 
L 21.828125 12.0625 
L 21.828125 0 
z
" id="LucidaSansUnicode-46"/>
      </defs>
      <g transform="translate(14.013438 123.376455)scale(0.06 -0.06)">
       <use xlink:href="#LucidaSansUnicode-48"/>
       <use x="63.232422" xlink:href="#LucidaSansUnicode-46"/>
       <use x="94.873047" xlink:href="#LucidaSansUnicode-48"/>
      </g>
     </g>
    </g>
    <g id="ytick_2">
     <g id="text_11">
      <!-- 0.5 -->
      <g transform="translate(14.013438 97.567928)scale(0.06 -0.06)">
       <use xlink:href="#LucidaSansUnicode-48"/>
       <use x="63.232422" xlink:href="#LucidaSansUnicode-46"/>
       <use x="94.873047" xlink:href="#LucidaSansUnicode-53"/>
      </g>
     </g>
    </g>
    <g id="ytick_3">
     <g id="text_12">
      <!-- 1.0 -->
      <g transform="translate(14.013438 71.759401)scale(0.06 -0.06)">
       <use xlink:href="#LucidaSansUnicode-49"/>
       <use x="63.232422" xlink:href="#LucidaSansUnicode-46"/>
       <use x="94.873047" xlink:href="#LucidaSansUnicode-48"/>
      </g>
     </g>
    </g>
    <g id="ytick_4">
     <g id="text_13">
      <!-- 1.5 -->
      <g transform="translate(14.013438 45.950874)scale(0.06 -0.06)">
       <use xlink:href="#LucidaSansUnicode-49"/>
       <use x="63.232422" xlink:href="#LucidaSansUnicode-46"/>
       <use x="94.873047" xlink:href="#LucidaSansUnicode-53"/>
      </g>
     </g>
    </g>
    <g id="ytick_5">
     <g id="text_14">
      <!-- 2.0 -->
      <g transform="translate(14.013438 20.142347)scale(0.06 -0.06)">
       <use xlink:href="#LucidaSansUnicode-50"/>
       <use x="63.232422" xlink:href="#LucidaSansUnicode-46"/>
       <use x="94.873047" xlink:href="#LucidaSansUnicode-48"/>
      </g>
     </g>
    </g>
    <g id="text_15">
     <!-- farmed mass [10$^{10}$ kg] -->
     <defs>
      <path d="M 11.421875 0 
L 11.421875 45.796875 
L 3.90625 45.796875 
L 3.90625 53.03125 
L 11.421875 53.03125 
L 11.421875 59.375 
Q 11.421875 78.328125 28.71875 78.328125 
Q 33.546875 78.328125 39.703125 76.703125 
L 39.703125 69.09375 
Q 33.203125 71.09375 29.296875 71.09375 
Q 24.5625 71.09375 22.828125 68.8125 
Q 21.09375 66.546875 21.09375 60.40625 
L 21.09375 53.03125 
L 34.328125 53.03125 
L 34.328125 45.796875 
L 21.09375 45.796875 
L 21.09375 0 
z
" id="LucidaSansUnicode-102"/>
      <path d="M 9.625 0 
L 9.625 53.03125 
L 19.234375 53.03125 
L 19.234375 43.0625 
Q 26.265625 54.203125 37.3125 54.203125 
Q 47.953125 54.203125 51.8125 43.0625 
Q 58.640625 54.25 69.578125 54.25 
Q 76.5625 54.25 80.4375 50.125 
Q 84.328125 46 84.328125 38.578125 
L 84.328125 0 
L 74.65625 0 
L 74.65625 37.0625 
Q 74.65625 46.140625 67.484375 46.140625 
Q 60.015625 46.140625 51.8125 35.546875 
L 51.8125 0 
L 42.140625 0 
L 42.140625 37.0625 
Q 42.140625 46.1875 34.8125 46.1875 
Q 27.546875 46.1875 19.234375 35.546875 
L 19.234375 0 
z
" id="LucidaSansUnicode-109"/>
      <path d="M 43.65625 0 
L 43.65625 9.96875 
Q 37.796875 -1.21875 25.984375 -1.21875 
Q 16.40625 -1.21875 10.90625 5.765625 
Q 5.421875 12.75 5.421875 24.859375 
Q 5.421875 38.09375 11.640625 46.140625 
Q 17.875 54.203125 28.03125 54.203125 
Q 37.453125 54.203125 43.65625 46.96875 
L 43.65625 77.09375 
L 53.328125 77.09375 
L 53.328125 0 
z
M 43.65625 40.375 
Q 36.1875 46.96875 29.5 46.96875 
Q 22.90625 46.96875 19.28125 41.453125 
Q 15.671875 35.9375 15.671875 25.828125 
Q 15.671875 7.234375 27.984375 7.234375 
Q 35.984375 7.234375 43.65625 15.96875 
z
" id="LucidaSansUnicode-100"/>
      <path id="LucidaSansUnicode-32"/>
      <path d="M 7.671875 1.859375 
L 7.671875 10.6875 
Q 17.09375 6 24.078125 6 
Q 28.21875 6 30.953125 8.25 
Q 33.6875 10.5 33.6875 13.875 
Q 33.6875 18.796875 26.03125 22.015625 
L 20.40625 24.421875 
Q 7.953125 29.59375 7.953125 39.3125 
Q 7.953125 46.234375 12.859375 50.21875 
Q 17.78125 54.203125 26.3125 54.203125 
Q 30.765625 54.203125 37.3125 52.984375 
L 39.3125 52.59375 
L 39.3125 44.578125 
Q 31.25 46.96875 26.46875 46.96875 
Q 22.265625 46.96875 19.75 45.140625 
Q 17.234375 43.3125 17.234375 40.234375 
Q 17.234375 35.890625 24.265625 32.90625 
L 28.90625 30.953125 
Q 36.765625 27.640625 40.03125 23.953125 
Q 43.3125 20.265625 43.3125 14.75 
Q 43.3125 7.765625 37.796875 3.265625 
Q 32.28125 -1.21875 23.6875 -1.21875 
Q 17.09375 -1.21875 7.671875 1.859375 
z
" id="LucidaSansUnicode-115"/>
      <path d="M 9.625 -14.453125 
L 9.625 77.09375 
L 28.90625 77.09375 
L 28.90625 69.875 
L 18.0625 69.875 
L 18.0625 -7.234375 
L 28.90625 -7.234375 
L 28.90625 -14.453125 
z
" id="LucidaSansUnicode-91"/>
      <path d="M 30.203125 0 
L 22.296875 0 
L 22.296875 57 
Q 20.09375 56 15.75 53.75 
Q 11.40625 51.5 10.796875 51.203125 
L 10.796875 58.5 
L 28.796875 67.703125 
L 30.203125 67.203125 
z
" id="STIXGeneral-Regular-120803"/>
      <path d="M 47.703125 33 
Q 47.703125 23.796875 45.546875 16.34375 
Q 43.40625 8.90625 38.09375 3.75 
Q 32.796875 -1.40625 25 -1.40625 
Q 18.796875 -1.40625 14.25 1.6875 
Q 9.703125 4.796875 7.203125 10.046875 
Q 4.703125 15.296875 3.5 21.140625 
Q 2.296875 27 2.296875 33.59375 
Q 2.296875 42.90625 4.59375 50.34375 
Q 6.90625 57.796875 12.296875 62.6875 
Q 17.703125 67.59375 25.40625 67.59375 
Q 35.203125 67.59375 41.453125 57.9375 
Q 47.703125 48.296875 47.703125 33 
z
M 39.796875 33 
Q 39.796875 45.203125 35.75 52.84375 
Q 31.703125 60.5 25.203125 60.5 
Q 17.796875 60.5 14 52.75 
Q 10.203125 45 10.203125 33.40625 
Q 10.203125 28.203125 10.953125 23.546875 
Q 11.703125 18.90625 13.34375 14.75 
Q 15 10.59375 18 8.140625 
Q 21 5.703125 25 5.703125 
Q 30.09375 5.703125 33.546875 9.796875 
Q 37 13.90625 38.390625 19.84375 
Q 39.796875 25.796875 39.796875 33 
z
" id="STIXGeneral-Regular-120802"/>
      <path d="M 9.625 0 
L 9.625 77.09375 
L 19.234375 77.09375 
L 19.234375 27.296875 
L 41.703125 53.03125 
L 52.046875 53.03125 
L 30.609375 28.265625 
L 56.5 0 
L 44.1875 0 
L 19.234375 27.203125 
L 19.234375 0 
z
" id="LucidaSansUnicode-107"/>
      <path d="M 9.8125 -17.625 
L 10.9375 -9.28125 
Q 19.28125 -13.234375 27.4375 -13.234375 
Q 43.65625 -13.234375 43.65625 4 
L 43.65625 12.359375 
Q 41.15625 7.078125 36.546875 4.140625 
Q 31.9375 1.21875 26.265625 1.21875 
Q 16.65625 1.21875 11.03125 8.125 
Q 5.421875 15.046875 5.421875 26.859375 
Q 5.421875 38.96875 11.8125 46.578125 
Q 18.21875 54.203125 28.375 54.203125 
Q 37.25 54.203125 43.65625 46.96875 
L 43.65625 53.03125 
L 53.328125 53.03125 
L 53.328125 14.453125 
Q 53.328125 2 52.03125 -3.984375 
Q 50.734375 -9.96875 47.171875 -13.765625 
Q 40.875 -20.453125 27.484375 -20.453125 
Q 18.3125 -20.453125 9.8125 -17.625 
z
M 43.65625 18.359375 
L 43.65625 40.375 
Q 37.3125 46.96875 29.828125 46.96875 
Q 23.1875 46.96875 19.421875 41.640625 
Q 15.671875 36.328125 15.671875 26.90625 
Q 15.671875 9.625 27.9375 9.625 
Q 36.28125 9.625 43.65625 18.359375 
z
" id="LucidaSansUnicode-103"/>
      <path d="M 22.90625 77.09375 
L 22.90625 -14.453125 
L 3.609375 -14.453125 
L 3.609375 -7.234375 
L 14.453125 -7.234375 
L 14.453125 69.875 
L 3.609375 69.875 
L 3.609375 77.09375 
z
" id="LucidaSansUnicode-93"/>
     </defs>
     <g style="fill:#262626;" transform="translate(8.753437 103.92)rotate(-90)scale(0.06 -0.06)">
      <use transform="translate(0 0.370312)" xlink:href="#LucidaSansUnicode-102"/>
      <use transform="translate(36.767578 0.370312)" xlink:href="#LucidaSansUnicode-97"/>
      <use transform="translate(91.992188 0.370312)" xlink:href="#LucidaSansUnicode-114"/>
      <use transform="translate(132.910156 0.370312)" xlink:href="#LucidaSansUnicode-109"/>
      <use transform="translate(226.269531 0.370312)" xlink:href="#LucidaSansUnicode-101"/>
      <use transform="translate(281.982422 0.370312)" xlink:href="#LucidaSansUnicode-100"/>
      <use transform="translate(344.921875 0.370312)" xlink:href="#LucidaSansUnicode-32"/>
      <use transform="translate(376.5625 0.370312)" xlink:href="#LucidaSansUnicode-109"/>
      <use transform="translate(469.921875 0.370312)" xlink:href="#LucidaSansUnicode-97"/>
      <use transform="translate(525.146484 0.370312)" xlink:href="#LucidaSansUnicode-115"/>
      <use transform="translate(576.123047 0.370312)" xlink:href="#LucidaSansUnicode-115"/>
      <use transform="translate(627.099609 0.370312)" xlink:href="#LucidaSansUnicode-32"/>
      <use transform="translate(658.740234 0.370312)" xlink:href="#LucidaSansUnicode-91"/>
      <use transform="translate(691.259766 0.370312)" xlink:href="#LucidaSansUnicode-49"/>
      <use transform="translate(754.492188 0.370312)" xlink:href="#LucidaSansUnicode-48"/>
      <use transform="translate(818.517305 36.607813)scale(0.7)" xlink:href="#STIXGeneral-Regular-120803"/>
      <use transform="translate(853.517294 36.607813)scale(0.7)" xlink:href="#STIXGeneral-Regular-120802"/>
      <use transform="translate(890.782127 0.370312)" xlink:href="#LucidaSansUnicode-32"/>
      <use transform="translate(922.422752 0.370312)" xlink:href="#LucidaSansUnicode-107"/>
      <use transform="translate(980.870018 0.370312)" xlink:href="#LucidaSansUnicode-103"/>
      <use transform="translate(1043.223533 0.370312)" xlink:href="#LucidaSansUnicode-93"/>
     </g>
    </g>
   </g>
   <g id="line2d_1">
    <path clip-path="url(#pbf02af6164)" d="M 34.609091 120.269995 
L 36.847059 120.046379 
L 39.085027 119.943832 
L 41.322995 119.684156 
L 43.560963 119.153714 
L 45.79893 118.919429 
L 48.036898 118.795646 
L 50.274866 117.705943 
L 52.512834 117.876166 
L 54.750802 117.569106 
L 56.98877 117.937879 
L 59.226738 118.561522 
L 61.464706 118.761445 
L 63.702674 118.501858 
L 65.940642 118.237599 
L 68.17861 117.667003 
L 70.416578 117.547432 
L 72.654545 117.569106 
L 74.892513 117.608975 
L 77.130481 117.298803 
L 79.368449 117.063827 
L 81.606417 116.824505 
L 83.844385 116.60012 
L 86.082353 116.300937 
L 88.320321 115.978857 
L 90.558289 115.553543 
L 92.796257 115.624584 
L 95.034225 115.362317 
L 97.272193 115.3715 
L 99.51016 114.999764 
L 101.748128 114.459654 
L 103.986096 113.582215 
L 106.224064 112.498856 
L 108.462032 111.294439 
L 110.7 109.165907 
L 112.937968 106.26413 
L 115.175936 103.240475 
L 117.413904 100.402435 
L 119.651872 98.506206 
L 121.88984 98.429497 
L 124.127807 96.886395 
L 126.365775 97.372076 
L 128.603743 93.874747 
L 130.841711 89.304041 
L 133.079679 83.796599 
L 135.317647 77.508569 
L 137.555615 71.371471 
L 139.793583 69.96392 
L 142.031551 68.872715 
L 144.269519 66.655562 
L 146.507487 65.611596 
L 148.745455 61.612389 
L 150.983422 61.367214 
L 153.22139 58.745212 
L 155.459358 59.69176 
L 157.697326 57.210068 
L 159.935294 55.970136 
L 162.173262 54.356121 
L 164.41123 50.160746 
L 166.649198 45.664319 
L 168.887166 44.453167 
L 171.125134 42.727813 
L 173.363102 41.014348 
L 175.60107 35.590063 
L 177.839037 30.661499 
L 180.077005 26.878656 
L 182.314973 24.721524 
L 184.552941 25.144023 
L 186.790909 22.221818 
" style="fill:none;stroke:#738fc1;stroke-linecap:round;stroke-width:0.75;"/>
    <defs>
     <path d="M 0 0.5 
C 0.132602 0.5 0.25979 0.447317 0.353553 0.353553 
C 0.447317 0.25979 0.5 0.132602 0.5 0 
C 0.5 -0.132602 0.447317 -0.25979 0.353553 -0.353553 
C 0.25979 -0.447317 0.132602 -0.5 0 -0.5 
C -0.132602 -0.5 -0.25979 -0.447317 -0.353553 -0.353553 
C -0.447317 -0.25979 -0.5 -0.132602 -0.5 0 
C -0.5 0.132602 -0.447317 0.25979 -0.353553 0.353553 
C -0.25979 0.447317 -0.132602 0.5 0 0.5 
z
" id="me03d9706b4" style="stroke:#738fc1;"/>
    </defs>
    <g clip-path="url(#pbf02af6164)">
     <use style="fill:#738fc1;stroke:#738fc1;" x="34.609091" xlink:href="#me03d9706b4" y="120.269995"/>
     <use style="fill:#738fc1;stroke:#738fc1;" x="36.847059" xlink:href="#me03d9706b4" y="120.046379"/>
     <use style="fill:#738fc1;stroke:#738fc1;" x="39.085027" xlink:href="#me03d9706b4" y="119.943832"/>
     <use style="fill:#738fc1;stroke:#738fc1;" x="41.322995" xlink:href="#me03d9706b4" y="119.684156"/>
     <use style="fill:#738fc1;stroke:#738fc1;" x="43.560963" xlink:href="#me03d9706b4" y="119.153714"/>
     <use style="fill:#738fc1;stroke:#738fc1;" x="45.79893" xlink:href="#me03d9706b4" y="118.919429"/>
     <use style="fill:#738fc1;stroke:#738fc1;" x="48.036898" xlink:href="#me03d9706b4" y="118.795646"/>
     <use style="fill:#738fc1;stroke:#738fc1;" x="50.274866" xlink:href="#me03d9706b4" y="117.705943"/>
     <use style="fill:#738fc1;stroke:#738fc1;" x="52.512834" xlink:href="#me03d9706b4" y="117.876166"/>
     <use style="fill:#738fc1;stroke:#738fc1;" x="54.750802" xlink:href="#me03d9706b4" y="117.569106"/>
     <use style="fill:#738fc1;stroke:#738fc1;" x="56.98877" xlink:href="#me03d9706b4" y="117.937879"/>
     <use style="fill:#738fc1;stroke:#738fc1;" x="59.226738" xlink:href="#me03d9706b4" y="118.561522"/>
     <use style="fill:#738fc1;stroke:#738fc1;" x="61.464706" xlink:href="#me03d9706b4" y="118.761445"/>
     <use style="fill:#738fc1;stroke:#738fc1;" x="63.702674" xlink:href="#me03d9706b4" y="118.501858"/>
     <use style="fill:#738fc1;stroke:#738fc1;" x="65.940642" xlink:href="#me03d9706b4" y="118.237599"/>
     <use style="fill:#738fc1;stroke:#738fc1;" x="68.17861" xlink:href="#me03d9706b4" y="117.667003"/>
     <use style="fill:#738fc1;stroke:#738fc1;" x="70.416578" xlink:href="#me03d9706b4" y="117.547432"/>
     <use style="fill:#738fc1;stroke:#738fc1;" x="72.654545" xlink:href="#me03d9706b4" y="117.569106"/>
     <use style="fill:#738fc1;stroke:#738fc1;" x="74.892513" xlink:href="#me03d9706b4" y="117.608975"/>
     <use style="fill:#738fc1;stroke:#738fc1;" x="77.130481" xlink:href="#me03d9706b4" y="117.298803"/>
     <use style="fill:#738fc1;stroke:#738fc1;" x="79.368449" xlink:href="#me03d9706b4" y="117.063827"/>
     <use style="fill:#738fc1;stroke:#738fc1;" x="81.606417" xlink:href="#me03d9706b4" y="116.824505"/>
     <use style="fill:#738fc1;stroke:#738fc1;" x="83.844385" xlink:href="#me03d9706b4" y="116.60012"/>
     <use style="fill:#738fc1;stroke:#738fc1;" x="86.082353" xlink:href="#me03d9706b4" y="116.300937"/>
     <use style="fill:#738fc1;stroke:#738fc1;" x="88.320321" xlink:href="#me03d9706b4" y="115.978857"/>
     <use style="fill:#738fc1;stroke:#738fc1;" x="90.558289" xlink:href="#me03d9706b4" y="115.553543"/>
     <use style="fill:#738fc1;stroke:#738fc1;" x="92.796257" xlink:href="#me03d9706b4" y="115.624584"/>
     <use style="fill:#738fc1;stroke:#738fc1;" x="95.034225" xlink:href="#me03d9706b4" y="115.362317"/>
     <use style="fill:#738fc1;stroke:#738fc1;" x="97.272193" xlink:href="#me03d9706b4" y="115.3715"/>
     <use style="fill:#738fc1;stroke:#738fc1;" x="99.51016" xlink:href="#me03d9706b4" y="114.999764"/>
     <use style="fill:#738fc1;stroke:#738fc1;" x="101.748128" xlink:href="#me03d9706b4" y="114.459654"/>
     <use style="fill:#738fc1;stroke:#738fc1;" x="103.986096" xlink:href="#me03d9706b4" y="113.582215"/>
     <use style="fill:#738fc1;stroke:#738fc1;" x="106.224064" xlink:href="#me03d9706b4" y="112.498856"/>
     <use style="fill:#738fc1;stroke:#738fc1;" x="108.462032" xlink:href="#me03d9706b4" y="111.294439"/>
     <use style="fill:#738fc1;stroke:#738fc1;" x="110.7" xlink:href="#me03d9706b4" y="109.165907"/>
     <use style="fill:#738fc1;stroke:#738fc1;" x="112.937968" xlink:href="#me03d9706b4" y="106.26413"/>
     <use style="fill:#738fc1;stroke:#738fc1;" x="115.175936" xlink:href="#me03d9706b4" y="103.240475"/>
     <use style="fill:#738fc1;stroke:#738fc1;" x="117.413904" xlink:href="#me03d9706b4" y="100.402435"/>
     <use style="fill:#738fc1;stroke:#738fc1;" x="119.651872" xlink:href="#me03d9706b4" y="98.506206"/>
     <use style="fill:#738fc1;stroke:#738fc1;" x="121.88984" xlink:href="#me03d9706b4" y="98.429497"/>
     <use style="fill:#738fc1;stroke:#738fc1;" x="124.127807" xlink:href="#me03d9706b4" y="96.886395"/>
     <use style="fill:#738fc1;stroke:#738fc1;" x="126.365775" xlink:href="#me03d9706b4" y="97.372076"/>
     <use style="fill:#738fc1;stroke:#738fc1;" x="128.603743" xlink:href="#me03d9706b4" y="93.874747"/>
     <use style="fill:#738fc1;stroke:#738fc1;" x="130.841711" xlink:href="#me03d9706b4" y="89.304041"/>
     <use style="fill:#738fc1;stroke:#738fc1;" x="133.079679" xlink:href="#me03d9706b4" y="83.796599"/>
     <use style="fill:#738fc1;stroke:#738fc1;" x="135.317647" xlink:href="#me03d9706b4" y="77.508569"/>
     <use style="fill:#738fc1;stroke:#738fc1;" x="137.555615" xlink:href="#me03d9706b4" y="71.371471"/>
     <use style="fill:#738fc1;stroke:#738fc1;" x="139.793583" xlink:href="#me03d9706b4" y="69.96392"/>
     <use style="fill:#738fc1;stroke:#738fc1;" x="142.031551" xlink:href="#me03d9706b4" y="68.872715"/>
     <use style="fill:#738fc1;stroke:#738fc1;" x="144.269519" xlink:href="#me03d9706b4" y="66.655562"/>
     <use style="fill:#738fc1;stroke:#738fc1;" x="146.507487" xlink:href="#me03d9706b4" y="65.611596"/>
     <use style="fill:#738fc1;stroke:#738fc1;" x="148.745455" xlink:href="#me03d9706b4" y="61.612389"/>
     <use style="fill:#738fc1;stroke:#738fc1;" x="150.983422" xlink:href="#me03d9706b4" y="61.367214"/>
     <use style="fill:#738fc1;stroke:#738fc1;" x="153.22139" xlink:href="#me03d9706b4" y="58.745212"/>
     <use style="fill:#738fc1;stroke:#738fc1;" x="155.459358" xlink:href="#me03d9706b4" y="59.69176"/>
     <use style="fill:#738fc1;stroke:#738fc1;" x="157.697326" xlink:href="#me03d9706b4" y="57.210068"/>
     <use style="fill:#738fc1;stroke:#738fc1;" x="159.935294" xlink:href="#me03d9706b4" y="55.970136"/>
     <use style="fill:#738fc1;stroke:#738fc1;" x="162.173262" xlink:href="#me03d9706b4" y="54.356121"/>
     <use style="fill:#738fc1;stroke:#738fc1;" x="164.41123" xlink:href="#me03d9706b4" y="50.160746"/>
     <use style="fill:#738fc1;stroke:#738fc1;" x="166.649198" xlink:href="#me03d9706b4" y="45.664319"/>
     <use style="fill:#738fc1;stroke:#738fc1;" x="168.887166" xlink:href="#me03d9706b4" y="44.453167"/>
     <use style="fill:#738fc1;stroke:#738fc1;" x="171.125134" xlink:href="#me03d9706b4" y="42.727813"/>
     <use style="fill:#738fc1;stroke:#738fc1;" x="173.363102" xlink:href="#me03d9706b4" y="41.014348"/>
     <use style="fill:#738fc1;stroke:#738fc1;" x="175.60107" xlink:href="#me03d9706b4" y="35.590063"/>
     <use style="fill:#738fc1;stroke:#738fc1;" x="177.839037" xlink:href="#me03d9706b4" y="30.661499"/>
     <use style="fill:#738fc1;stroke:#738fc1;" x="180.077005" xlink:href="#me03d9706b4" y="26.878656"/>
     <use style="fill:#738fc1;stroke:#738fc1;" x="182.314973" xlink:href="#me03d9706b4" y="24.721524"/>
     <use style="fill:#738fc1;stroke:#738fc1;" x="184.552941" xlink:href="#me03d9706b4" y="25.144023"/>
     <use style="fill:#738fc1;stroke:#738fc1;" x="186.790909" xlink:href="#me03d9706b4" y="22.221818"/>
    </g>
   </g>
   <g id="line2d_2">
    <path clip-path="url(#pbf02af6164)" d="M 34.609091 119.664377 
L 36.847059 119.3175 
L 39.085027 119.033136 
L 41.322995 118.673169 
L 43.560963 118.690311 
L 45.79893 118.409076 
L 48.036898 118.657101 
L 50.274866 118.140316 
L 52.512834 118.295709 
L 54.750802 118.049052 
L 56.98877 117.72309 
L 59.226738 117.841474 
L 61.464706 117.420816 
L 63.702674 116.916321 
L 65.940642 116.978576 
L 68.17861 116.930629 
L 70.416578 116.884933 
L 72.654545 116.729503 
L 74.892513 116.287754 
L 77.130481 116.333828 
L 79.368449 116.000268 
L 81.606417 115.683086 
L 83.844385 115.014573 
L 86.082353 115.085201 
L 88.320321 115.005241 
L 90.558289 113.814926 
L 92.796257 113.640233 
L 95.034225 112.572385 
L 97.272193 112.7604 
L 99.51016 113.153381 
L 101.748128 112.942598 
L 103.986096 112.265686 
L 106.224064 112.079147 
L 108.462032 111.57648 
L 110.7 111.195453 
L 112.937968 110.042178 
L 115.175936 109.270622 
L 117.413904 107.927737 
L 119.651872 106.60441 
L 121.88984 106.473339 
L 124.127807 106.092622 
L 126.365775 105.554272 
L 128.603743 102.8129 
L 130.841711 99.544028 
L 133.079679 94.9354 
L 135.317647 92.20573 
L 137.555615 92.119865 
L 139.793583 92.188123 
L 142.031551 88.968768 
L 144.269519 86.171727 
L 146.507487 86.338972 
L 148.745455 83.188545 
L 150.983422 80.430858 
L 153.22139 77.810105 
L 155.459358 75.731822 
L 157.697326 75.218531 
L 159.935294 73.414012 
L 162.173262 71.89115 
L 164.41123 73.024412 
L 166.649198 71.008722 
L 168.887166 68.666883 
L 171.125134 69.111609 
L 173.363102 67.38753 
L 175.60107 66.023807 
L 177.839037 63.876317 
L 180.077005 62.623695 
L 182.314973 58.995339 
L 184.552941 57.205501 
L 186.790909 55.997597 
" style="fill:none;stroke:#d56c55;stroke-linecap:round;stroke-width:0.75;"/>
    <defs>
     <path d="M 0 0.5 
C 0.132602 0.5 0.25979 0.447317 0.353553 0.353553 
C 0.447317 0.25979 0.5 0.132602 0.5 0 
C 0.5 -0.132602 0.447317 -0.25979 0.353553 -0.353553 
C 0.25979 -0.447317 0.132602 -0.5 0 -0.5 
C -0.132602 -0.5 -0.25979 -0.447317 -0.353553 -0.353553 
C -0.447317 -0.25979 -0.5 -0.132602 -0.5 0 
C -0.5 0.132602 -0.447317 0.25979 -0.353553 0.353553 
C -0.25979 0.447317 -0.132602 0.5 0 0.5 
z
" id="m76e7fb52bd" style="stroke:#d56c55;"/>
    </defs>
    <g clip-path="url(#pbf02af6164)">
     <use style="fill:#d56c55;stroke:#d56c55;" x="34.609091" xlink:href="#m76e7fb52bd" y="119.664377"/>
     <use style="fill:#d56c55;stroke:#d56c55;" x="36.847059" xlink:href="#m76e7fb52bd" y="119.3175"/>
     <use style="fill:#d56c55;stroke:#d56c55;" x="39.085027" xlink:href="#m76e7fb52bd" y="119.033136"/>
     <use style="fill:#d56c55;stroke:#d56c55;" x="41.322995" xlink:href="#m76e7fb52bd" y="118.673169"/>
     <use style="fill:#d56c55;stroke:#d56c55;" x="43.560963" xlink:href="#m76e7fb52bd" y="118.690311"/>
     <use style="fill:#d56c55;stroke:#d56c55;" x="45.79893" xlink:href="#m76e7fb52bd" y="118.409076"/>
     <use style="fill:#d56c55;stroke:#d56c55;" x="48.036898" xlink:href="#m76e7fb52bd" y="118.657101"/>
     <use style="fill:#d56c55;stroke:#d56c55;" x="50.274866" xlink:href="#m76e7fb52bd" y="118.140316"/>
     <use style="fill:#d56c55;stroke:#d56c55;" x="52.512834" xlink:href="#m76e7fb52bd" y="118.295709"/>
     <use style="fill:#d56c55;stroke:#d56c55;" x="54.750802" xlink:href="#m76e7fb52bd" y="118.049052"/>
     <use style="fill:#d56c55;stroke:#d56c55;" x="56.98877" xlink:href="#m76e7fb52bd" y="117.72309"/>
     <use style="fill:#d56c55;stroke:#d56c55;" x="59.226738" xlink:href="#m76e7fb52bd" y="117.841474"/>
     <use style="fill:#d56c55;stroke:#d56c55;" x="61.464706" xlink:href="#m76e7fb52bd" y="117.420816"/>
     <use style="fill:#d56c55;stroke:#d56c55;" x="63.702674" xlink:href="#m76e7fb52bd" y="116.916321"/>
     <use style="fill:#d56c55;stroke:#d56c55;" x="65.940642" xlink:href="#m76e7fb52bd" y="116.978576"/>
     <use style="fill:#d56c55;stroke:#d56c55;" x="68.17861" xlink:href="#m76e7fb52bd" y="116.930629"/>
     <use style="fill:#d56c55;stroke:#d56c55;" x="70.416578" xlink:href="#m76e7fb52bd" y="116.884933"/>
     <use style="fill:#d56c55;stroke:#d56c55;" x="72.654545" xlink:href="#m76e7fb52bd" y="116.729503"/>
     <use style="fill:#d56c55;stroke:#d56c55;" x="74.892513" xlink:href="#m76e7fb52bd" y="116.287754"/>
     <use style="fill:#d56c55;stroke:#d56c55;" x="77.130481" xlink:href="#m76e7fb52bd" y="116.333828"/>
     <use style="fill:#d56c55;stroke:#d56c55;" x="79.368449" xlink:href="#m76e7fb52bd" y="116.000268"/>
     <use style="fill:#d56c55;stroke:#d56c55;" x="81.606417" xlink:href="#m76e7fb52bd" y="115.683086"/>
     <use style="fill:#d56c55;stroke:#d56c55;" x="83.844385" xlink:href="#m76e7fb52bd" y="115.014573"/>
     <use style="fill:#d56c55;stroke:#d56c55;" x="86.082353" xlink:href="#m76e7fb52bd" y="115.085201"/>
     <use style="fill:#d56c55;stroke:#d56c55;" x="88.320321" xlink:href="#m76e7fb52bd" y="115.005241"/>
     <use style="fill:#d56c55;stroke:#d56c55;" x="90.558289" xlink:href="#m76e7fb52bd" y="113.814926"/>
     <use style="fill:#d56c55;stroke:#d56c55;" x="92.796257" xlink:href="#m76e7fb52bd" y="113.640233"/>
     <use style="fill:#d56c55;stroke:#d56c55;" x="95.034225" xlink:href="#m76e7fb52bd" y="112.572385"/>
     <use style="fill:#d56c55;stroke:#d56c55;" x="97.272193" xlink:href="#m76e7fb52bd" y="112.7604"/>
     <use style="fill:#d56c55;stroke:#d56c55;" x="99.51016" xlink:href="#m76e7fb52bd" y="113.153381"/>
     <use style="fill:#d56c55;stroke:#d56c55;" x="101.748128" xlink:href="#m76e7fb52bd" y="112.942598"/>
     <use style="fill:#d56c55;stroke:#d56c55;" x="103.986096" xlink:href="#m76e7fb52bd" y="112.265686"/>
     <use style="fill:#d56c55;stroke:#d56c55;" x="106.224064" xlink:href="#m76e7fb52bd" y="112.079147"/>
     <use style="fill:#d56c55;stroke:#d56c55;" x="108.462032" xlink:href="#m76e7fb52bd" y="111.57648"/>
     <use style="fill:#d56c55;stroke:#d56c55;" x="110.7" xlink:href="#m76e7fb52bd" y="111.195453"/>
     <use style="fill:#d56c55;stroke:#d56c55;" x="112.937968" xlink:href="#m76e7fb52bd" y="110.042178"/>
     <use style="fill:#d56c55;stroke:#d56c55;" x="115.175936" xlink:href="#m76e7fb52bd" y="109.270622"/>
     <use style="fill:#d56c55;stroke:#d56c55;" x="117.413904" xlink:href="#m76e7fb52bd" y="107.927737"/>
     <use style="fill:#d56c55;stroke:#d56c55;" x="119.651872" xlink:href="#m76e7fb52bd" y="106.60441"/>
     <use style="fill:#d56c55;stroke:#d56c55;" x="121.88984" xlink:href="#m76e7fb52bd" y="106.473339"/>
     <use style="fill:#d56c55;stroke:#d56c55;" x="124.127807" xlink:href="#m76e7fb52bd" y="106.092622"/>
     <use style="fill:#d56c55;stroke:#d56c55;" x="126.365775" xlink:href="#m76e7fb52bd" y="105.554272"/>
     <use style="fill:#d56c55;stroke:#d56c55;" x="128.603743" xlink:href="#m76e7fb52bd" y="102.8129"/>
     <use style="fill:#d56c55;stroke:#d56c55;" x="130.841711" xlink:href="#m76e7fb52bd" y="99.544028"/>
     <use style="fill:#d56c55;stroke:#d56c55;" x="133.079679" xlink:href="#m76e7fb52bd" y="94.9354"/>
     <use style="fill:#d56c55;stroke:#d56c55;" x="135.317647" xlink:href="#m76e7fb52bd" y="92.20573"/>
     <use style="fill:#d56c55;stroke:#d56c55;" x="137.555615" xlink:href="#m76e7fb52bd" y="92.119865"/>
     <use style="fill:#d56c55;stroke:#d56c55;" x="139.793583" xlink:href="#m76e7fb52bd" y="92.188123"/>
     <use style="fill:#d56c55;stroke:#d56c55;" x="142.031551" xlink:href="#m76e7fb52bd" y="88.968768"/>
     <use style="fill:#d56c55;stroke:#d56c55;" x="144.269519" xlink:href="#m76e7fb52bd" y="86.171727"/>
     <use style="fill:#d56c55;stroke:#d56c55;" x="146.507487" xlink:href="#m76e7fb52bd" y="86.338972"/>
     <use style="fill:#d56c55;stroke:#d56c55;" x="148.745455" xlink:href="#m76e7fb52bd" y="83.188545"/>
     <use style="fill:#d56c55;stroke:#d56c55;" x="150.983422" xlink:href="#m76e7fb52bd" y="80.430858"/>
     <use style="fill:#d56c55;stroke:#d56c55;" x="153.22139" xlink:href="#m76e7fb52bd" y="77.810105"/>
     <use style="fill:#d56c55;stroke:#d56c55;" x="155.459358" xlink:href="#m76e7fb52bd" y="75.731822"/>
     <use style="fill:#d56c55;stroke:#d56c55;" x="157.697326" xlink:href="#m76e7fb52bd" y="75.218531"/>
     <use style="fill:#d56c55;stroke:#d56c55;" x="159.935294" xlink:href="#m76e7fb52bd" y="73.414012"/>
     <use style="fill:#d56c55;stroke:#d56c55;" x="162.173262" xlink:href="#m76e7fb52bd" y="71.89115"/>
     <use style="fill:#d56c55;stroke:#d56c55;" x="164.41123" xlink:href="#m76e7fb52bd" y="73.024412"/>
     <use style="fill:#d56c55;stroke:#d56c55;" x="166.649198" xlink:href="#m76e7fb52bd" y="71.008722"/>
     <use style="fill:#d56c55;stroke:#d56c55;" x="168.887166" xlink:href="#m76e7fb52bd" y="68.666883"/>
     <use style="fill:#d56c55;stroke:#d56c55;" x="171.125134" xlink:href="#m76e7fb52bd" y="69.111609"/>
     <use style="fill:#d56c55;stroke:#d56c55;" x="173.363102" xlink:href="#m76e7fb52bd" y="67.38753"/>
     <use style="fill:#d56c55;stroke:#d56c55;" x="175.60107" xlink:href="#m76e7fb52bd" y="66.023807"/>
     <use style="fill:#d56c55;stroke:#d56c55;" x="177.839037" xlink:href="#m76e7fb52bd" y="63.876317"/>
     <use style="fill:#d56c55;stroke:#d56c55;" x="180.077005" xlink:href="#m76e7fb52bd" y="62.623695"/>
     <use style="fill:#d56c55;stroke:#d56c55;" x="182.314973" xlink:href="#m76e7fb52bd" y="58.995339"/>
     <use style="fill:#d56c55;stroke:#d56c55;" x="184.552941" xlink:href="#m76e7fb52bd" y="57.205501"/>
     <use style="fill:#d56c55;stroke:#d56c55;" x="186.790909" xlink:href="#m76e7fb52bd" y="55.997597"/>
    </g>
   </g>
   <g id="line2d_3">
    <path clip-path="url(#pbf02af6164)" d="M 34.609091 121.057552 
L 36.847059 121.056417 
L 39.085027 121.049861 
L 41.322995 121.058182 
L 43.560963 121.05653 
L 45.79893 121.053717 
L 48.036898 121.054816 
L 50.274866 121.053366 
L 52.512834 121.050424 
L 54.750802 121.050682 
L 56.98877 121.04951 
L 59.226738 121.048101 
L 61.464706 121.045546 
L 63.702674 121.051482 
L 65.940642 121.051064 
L 68.17861 121.046325 
L 70.416578 121.046527 
L 72.654545 121.039321 
L 74.892513 121.036879 
L 77.130481 121.019908 
L 79.368449 121.017575 
L 81.606417 121.004836 
L 83.844385 120.990001 
L 86.082353 120.973876 
L 88.320321 120.957141 
L 90.558289 120.947597 
L 92.796257 120.902185 
L 95.034225 120.835243 
L 97.272193 120.783352 
L 99.51016 120.733325 
L 101.748128 120.680804 
L 103.986096 120.591238 
L 106.224064 120.456239 
L 108.462032 120.291891 
L 110.7 120.1179 
L 112.937968 119.910089 
L 115.175936 119.343995 
L 117.413904 118.391985 
L 119.651872 117.954603 
L 121.88984 117.719157 
L 124.127807 117.395193 
L 126.365775 116.545251 
L 128.603743 116.262596 
L 130.841711 116.614831 
L 133.079679 116.343609 
L 135.317647 116.090531 
L 137.555615 116.010091 
L 139.793583 115.939184 
L 142.031551 115.552449 
L 144.269519 115.123743 
L 146.507487 114.073212 
L 148.745455 112.965897 
L 150.983422 112.176781 
L 153.22139 108.477505 
L 155.459358 106.793791 
L 157.697326 105.107706 
L 159.935294 102.697768 
L 162.173262 101.65827 
L 164.41123 101.255845 
L 166.649198 100.610228 
L 168.887166 100.168019 
L 171.125134 98.248928 
L 173.363102 97.657567 
L 175.60107 96.967037 
L 177.839037 95.13465 
L 180.077005 93.75659 
L 182.314973 91.964753 
L 184.552941 88.650042 
L 186.790909 87.427167 
" style="fill:none;stroke:#7e9d90;stroke-linecap:round;stroke-width:0.75;"/>
    <defs>
     <path d="M 0 0.5 
C 0.132602 0.5 0.25979 0.447317 0.353553 0.353553 
C 0.447317 0.25979 0.5 0.132602 0.5 0 
C 0.5 -0.132602 0.447317 -0.25979 0.353553 -0.353553 
C 0.25979 -0.447317 0.132602 -0.5 0 -0.5 
C -0.132602 -0.5 -0.25979 -0.447317 -0.353553 -0.353553 
C -0.447317 -0.25979 -0.5 -0.132602 -0.5 0 
C -0.5 0.132602 -0.447317 0.25979 -0.353553 0.353553 
C -0.25979 0.447317 -0.132602 0.5 0 0.5 
z
" id="m6aa4fc6e1c" style="stroke:#7e9d90;"/>
    </defs>
    <g clip-path="url(#pbf02af6164)">
     <use style="fill:#7e9d90;stroke:#7e9d90;" x="34.609091" xlink:href="#m6aa4fc6e1c" y="121.057552"/>
     <use style="fill:#7e9d90;stroke:#7e9d90;" x="36.847059" xlink:href="#m6aa4fc6e1c" y="121.056417"/>
     <use style="fill:#7e9d90;stroke:#7e9d90;" x="39.085027" xlink:href="#m6aa4fc6e1c" y="121.049861"/>
     <use style="fill:#7e9d90;stroke:#7e9d90;" x="41.322995" xlink:href="#m6aa4fc6e1c" y="121.058182"/>
     <use style="fill:#7e9d90;stroke:#7e9d90;" x="43.560963" xlink:href="#m6aa4fc6e1c" y="121.05653"/>
     <use style="fill:#7e9d90;stroke:#7e9d90;" x="45.79893" xlink:href="#m6aa4fc6e1c" y="121.053717"/>
     <use style="fill:#7e9d90;stroke:#7e9d90;" x="48.036898" xlink:href="#m6aa4fc6e1c" y="121.054816"/>
     <use style="fill:#7e9d90;stroke:#7e9d90;" x="50.274866" xlink:href="#m6aa4fc6e1c" y="121.053366"/>
     <use style="fill:#7e9d90;stroke:#7e9d90;" x="52.512834" xlink:href="#m6aa4fc6e1c" y="121.050424"/>
     <use style="fill:#7e9d90;stroke:#7e9d90;" x="54.750802" xlink:href="#m6aa4fc6e1c" y="121.050682"/>
     <use style="fill:#7e9d90;stroke:#7e9d90;" x="56.98877" xlink:href="#m6aa4fc6e1c" y="121.04951"/>
     <use style="fill:#7e9d90;stroke:#7e9d90;" x="59.226738" xlink:href="#m6aa4fc6e1c" y="121.048101"/>
     <use style="fill:#7e9d90;stroke:#7e9d90;" x="61.464706" xlink:href="#m6aa4fc6e1c" y="121.045546"/>
     <use style="fill:#7e9d90;stroke:#7e9d90;" x="63.702674" xlink:href="#m6aa4fc6e1c" y="121.051482"/>
     <use style="fill:#7e9d90;stroke:#7e9d90;" x="65.940642" xlink:href="#m6aa4fc6e1c" y="121.051064"/>
     <use style="fill:#7e9d90;stroke:#7e9d90;" x="68.17861" xlink:href="#m6aa4fc6e1c" y="121.046325"/>
     <use style="fill:#7e9d90;stroke:#7e9d90;" x="70.416578" xlink:href="#m6aa4fc6e1c" y="121.046527"/>
     <use style="fill:#7e9d90;stroke:#7e9d90;" x="72.654545" xlink:href="#m6aa4fc6e1c" y="121.039321"/>
     <use style="fill:#7e9d90;stroke:#7e9d90;" x="74.892513" xlink:href="#m6aa4fc6e1c" y="121.036879"/>
     <use style="fill:#7e9d90;stroke:#7e9d90;" x="77.130481" xlink:href="#m6aa4fc6e1c" y="121.019908"/>
     <use style="fill:#7e9d90;stroke:#7e9d90;" x="79.368449" xlink:href="#m6aa4fc6e1c" y="121.017575"/>
     <use style="fill:#7e9d90;stroke:#7e9d90;" x="81.606417" xlink:href="#m6aa4fc6e1c" y="121.004836"/>
     <use style="fill:#7e9d90;stroke:#7e9d90;" x="83.844385" xlink:href="#m6aa4fc6e1c" y="120.990001"/>
     <use style="fill:#7e9d90;stroke:#7e9d90;" x="86.082353" xlink:href="#m6aa4fc6e1c" y="120.973876"/>
     <use style="fill:#7e9d90;stroke:#7e9d90;" x="88.320321" xlink:href="#m6aa4fc6e1c" y="120.957141"/>
     <use style="fill:#7e9d90;stroke:#7e9d90;" x="90.558289" xlink:href="#m6aa4fc6e1c" y="120.947597"/>
     <use style="fill:#7e9d90;stroke:#7e9d90;" x="92.796257" xlink:href="#m6aa4fc6e1c" y="120.902185"/>
     <use style="fill:#7e9d90;stroke:#7e9d90;" x="95.034225" xlink:href="#m6aa4fc6e1c" y="120.835243"/>
     <use style="fill:#7e9d90;stroke:#7e9d90;" x="97.272193" xlink:href="#m6aa4fc6e1c" y="120.783352"/>
     <use style="fill:#7e9d90;stroke:#7e9d90;" x="99.51016" xlink:href="#m6aa4fc6e1c" y="120.733325"/>
     <use style="fill:#7e9d90;stroke:#7e9d90;" x="101.748128" xlink:href="#m6aa4fc6e1c" y="120.680804"/>
     <use style="fill:#7e9d90;stroke:#7e9d90;" x="103.986096" xlink:href="#m6aa4fc6e1c" y="120.591238"/>
     <use style="fill:#7e9d90;stroke:#7e9d90;" x="106.224064" xlink:href="#m6aa4fc6e1c" y="120.456239"/>
     <use style="fill:#7e9d90;stroke:#7e9d90;" x="108.462032" xlink:href="#m6aa4fc6e1c" y="120.291891"/>
     <use style="fill:#7e9d90;stroke:#7e9d90;" x="110.7" xlink:href="#m6aa4fc6e1c" y="120.1179"/>
     <use style="fill:#7e9d90;stroke:#7e9d90;" x="112.937968" xlink:href="#m6aa4fc6e1c" y="119.910089"/>
     <use style="fill:#7e9d90;stroke:#7e9d90;" x="115.175936" xlink:href="#m6aa4fc6e1c" y="119.343995"/>
     <use style="fill:#7e9d90;stroke:#7e9d90;" x="117.413904" xlink:href="#m6aa4fc6e1c" y="118.391985"/>
     <use style="fill:#7e9d90;stroke:#7e9d90;" x="119.651872" xlink:href="#m6aa4fc6e1c" y="117.954603"/>
     <use style="fill:#7e9d90;stroke:#7e9d90;" x="121.88984" xlink:href="#m6aa4fc6e1c" y="117.719157"/>
     <use style="fill:#7e9d90;stroke:#7e9d90;" x="124.127807" xlink:href="#m6aa4fc6e1c" y="117.395193"/>
     <use style="fill:#7e9d90;stroke:#7e9d90;" x="126.365775" xlink:href="#m6aa4fc6e1c" y="116.545251"/>
     <use style="fill:#7e9d90;stroke:#7e9d90;" x="128.603743" xlink:href="#m6aa4fc6e1c" y="116.262596"/>
     <use style="fill:#7e9d90;stroke:#7e9d90;" x="130.841711" xlink:href="#m6aa4fc6e1c" y="116.614831"/>
     <use style="fill:#7e9d90;stroke:#7e9d90;" x="133.079679" xlink:href="#m6aa4fc6e1c" y="116.343609"/>
     <use style="fill:#7e9d90;stroke:#7e9d90;" x="135.317647" xlink:href="#m6aa4fc6e1c" y="116.090531"/>
     <use style="fill:#7e9d90;stroke:#7e9d90;" x="137.555615" xlink:href="#m6aa4fc6e1c" y="116.010091"/>
     <use style="fill:#7e9d90;stroke:#7e9d90;" x="139.793583" xlink:href="#m6aa4fc6e1c" y="115.939184"/>
     <use style="fill:#7e9d90;stroke:#7e9d90;" x="142.031551" xlink:href="#m6aa4fc6e1c" y="115.552449"/>
     <use style="fill:#7e9d90;stroke:#7e9d90;" x="144.269519" xlink:href="#m6aa4fc6e1c" y="115.123743"/>
     <use style="fill:#7e9d90;stroke:#7e9d90;" x="146.507487" xlink:href="#m6aa4fc6e1c" y="114.073212"/>
     <use style="fill:#7e9d90;stroke:#7e9d90;" x="148.745455" xlink:href="#m6aa4fc6e1c" y="112.965897"/>
     <use style="fill:#7e9d90;stroke:#7e9d90;" x="150.983422" xlink:href="#m6aa4fc6e1c" y="112.176781"/>
     <use style="fill:#7e9d90;stroke:#7e9d90;" x="153.22139" xlink:href="#m6aa4fc6e1c" y="108.477505"/>
     <use style="fill:#7e9d90;stroke:#7e9d90;" x="155.459358" xlink:href="#m6aa4fc6e1c" y="106.793791"/>
     <use style="fill:#7e9d90;stroke:#7e9d90;" x="157.697326" xlink:href="#m6aa4fc6e1c" y="105.107706"/>
     <use style="fill:#7e9d90;stroke:#7e9d90;" x="159.935294" xlink:href="#m6aa4fc6e1c" y="102.697768"/>
     <use style="fill:#7e9d90;stroke:#7e9d90;" x="162.173262" xlink:href="#m6aa4fc6e1c" y="101.65827"/>
     <use style="fill:#7e9d90;stroke:#7e9d90;" x="164.41123" xlink:href="#m6aa4fc6e1c" y="101.255845"/>
     <use style="fill:#7e9d90;stroke:#7e9d90;" x="166.649198" xlink:href="#m6aa4fc6e1c" y="100.610228"/>
     <use style="fill:#7e9d90;stroke:#7e9d90;" x="168.887166" xlink:href="#m6aa4fc6e1c" y="100.168019"/>
     <use style="fill:#7e9d90;stroke:#7e9d90;" x="171.125134" xlink:href="#m6aa4fc6e1c" y="98.248928"/>
     <use style="fill:#7e9d90;stroke:#7e9d90;" x="173.363102" xlink:href="#m6aa4fc6e1c" y="97.657567"/>
     <use style="fill:#7e9d90;stroke:#7e9d90;" x="175.60107" xlink:href="#m6aa4fc6e1c" y="96.967037"/>
     <use style="fill:#7e9d90;stroke:#7e9d90;" x="177.839037" xlink:href="#m6aa4fc6e1c" y="95.13465"/>
     <use style="fill:#7e9d90;stroke:#7e9d90;" x="180.077005" xlink:href="#m6aa4fc6e1c" y="93.75659"/>
     <use style="fill:#7e9d90;stroke:#7e9d90;" x="182.314973" xlink:href="#m6aa4fc6e1c" y="91.964753"/>
     <use style="fill:#7e9d90;stroke:#7e9d90;" x="184.552941" xlink:href="#m6aa4fc6e1c" y="88.650042"/>
     <use style="fill:#7e9d90;stroke:#7e9d90;" x="186.790909" xlink:href="#m6aa4fc6e1c" y="87.427167"/>
    </g>
   </g>
   <g id="line2d_4">
    <path clip-path="url(#pbf02af6164)" d="M 34.609091 121.055436 
L 36.847059 121.0527 
L 39.085027 121.050073 
L 41.322995 121.046547 
L 43.560963 121.04042 
L 45.79893 121.037112 
L 48.036898 121.035868 
L 50.274866 121.022912 
L 52.512834 121.022169 
L 54.750802 121.019103 
L 56.98877 121.023707 
L 59.226738 121.029973 
L 61.464706 121.031109 
L 63.702674 121.026515 
L 65.940642 121.021394 
L 68.17861 121.016264 
L 70.416578 121.0147 
L 72.654545 121.014467 
L 74.892513 121.011695 
L 77.130481 121.004608 
L 79.368449 120.995281 
L 81.606417 120.983053 
L 83.844385 120.971842 
L 86.082353 120.939153 
L 88.320321 120.930703 
L 90.558289 120.939886 
L 92.796257 120.916787 
L 95.034225 120.869625 
L 97.272193 120.814859 
L 99.51016 120.794811 
L 101.748128 120.779563 
L 103.986096 120.749383 
L 106.224064 120.730935 
L 108.462032 120.636625 
L 110.7 120.570891 
L 112.937968 120.467027 
L 115.175936 120.379991 
L 117.413904 120.263847 
L 119.651872 120.183768 
L 121.88984 119.850203 
L 124.127807 119.614313 
L 126.365775 119.490794 
L 128.603743 119.086689 
L 130.841711 118.833662 
L 133.079679 118.572186 
L 135.317647 117.989532 
L 137.555615 117.437906 
L 139.793583 117.041838 
L 142.031551 116.967928 
L 144.269519 116.402773 
L 146.507487 115.622127 
L 148.745455 115.231096 
L 150.983422 114.711504 
L 153.22139 113.84811 
L 155.459358 112.9228 
L 157.697326 111.914298 
L 159.935294 110.532618 
L 162.173262 109.23564 
L 164.41123 108.176286 
L 166.649198 107.067886 
L 168.887166 105.466133 
L 171.125134 104.001779 
L 173.363102 101.797234 
L 175.60107 100.888674 
L 177.839037 99.396335 
L 180.077005 97.820463 
L 182.314973 97.283735 
L 184.552941 95.534863 
L 186.790909 95.282885 
" style="fill:none;stroke:#905426;stroke-linecap:round;stroke-width:0.75;"/>
    <defs>
     <path d="M 0 0.5 
C 0.132602 0.5 0.25979 0.447317 0.353553 0.353553 
C 0.447317 0.25979 0.5 0.132602 0.5 0 
C 0.5 -0.132602 0.447317 -0.25979 0.353553 -0.353553 
C 0.25979 -0.447317 0.132602 -0.5 0 -0.5 
C -0.132602 -0.5 -0.25979 -0.447317 -0.353553 -0.353553 
C -0.447317 -0.25979 -0.5 -0.132602 -0.5 0 
C -0.5 0.132602 -0.447317 0.25979 -0.353553 0.353553 
C -0.25979 0.447317 -0.132602 0.5 0 0.5 
z
" id="m88869bba97" style="stroke:#905426;"/>
    </defs>
    <g clip-path="url(#pbf02af6164)">
     <use style="fill:#905426;stroke:#905426;" x="34.609091" xlink:href="#m88869bba97" y="121.055436"/>
     <use style="fill:#905426;stroke:#905426;" x="36.847059" xlink:href="#m88869bba97" y="121.0527"/>
     <use style="fill:#905426;stroke:#905426;" x="39.085027" xlink:href="#m88869bba97" y="121.050073"/>
     <use style="fill:#905426;stroke:#905426;" x="41.322995" xlink:href="#m88869bba97" y="121.046547"/>
     <use style="fill:#905426;stroke:#905426;" x="43.560963" xlink:href="#m88869bba97" y="121.04042"/>
     <use style="fill:#905426;stroke:#905426;" x="45.79893" xlink:href="#m88869bba97" y="121.037112"/>
     <use style="fill:#905426;stroke:#905426;" x="48.036898" xlink:href="#m88869bba97" y="121.035868"/>
     <use style="fill:#905426;stroke:#905426;" x="50.274866" xlink:href="#m88869bba97" y="121.022912"/>
     <use style="fill:#905426;stroke:#905426;" x="52.512834" xlink:href="#m88869bba97" y="121.022169"/>
     <use style="fill:#905426;stroke:#905426;" x="54.750802" xlink:href="#m88869bba97" y="121.019103"/>
     <use style="fill:#905426;stroke:#905426;" x="56.98877" xlink:href="#m88869bba97" y="121.023707"/>
     <use style="fill:#905426;stroke:#905426;" x="59.226738" xlink:href="#m88869bba97" y="121.029973"/>
     <use style="fill:#905426;stroke:#905426;" x="61.464706" xlink:href="#m88869bba97" y="121.031109"/>
     <use style="fill:#905426;stroke:#905426;" x="63.702674" xlink:href="#m88869bba97" y="121.026515"/>
     <use style="fill:#905426;stroke:#905426;" x="65.940642" xlink:href="#m88869bba97" y="121.021394"/>
     <use style="fill:#905426;stroke:#905426;" x="68.17861" xlink:href="#m88869bba97" y="121.016264"/>
     <use style="fill:#905426;stroke:#905426;" x="70.416578" xlink:href="#m88869bba97" y="121.0147"/>
     <use style="fill:#905426;stroke:#905426;" x="72.654545" xlink:href="#m88869bba97" y="121.014467"/>
     <use style="fill:#905426;stroke:#905426;" x="74.892513" xlink:href="#m88869bba97" y="121.011695"/>
     <use style="fill:#905426;stroke:#905426;" x="77.130481" xlink:href="#m88869bba97" y="121.004608"/>
     <use style="fill:#905426;stroke:#905426;" x="79.368449" xlink:href="#m88869bba97" y="120.995281"/>
     <use style="fill:#905426;stroke:#905426;" x="81.606417" xlink:href="#m88869bba97" y="120.983053"/>
     <use style="fill:#905426;stroke:#905426;" x="83.844385" xlink:href="#m88869bba97" y="120.971842"/>
     <use style="fill:#905426;stroke:#905426;" x="86.082353" xlink:href="#m88869bba97" y="120.939153"/>
     <use style="fill:#905426;stroke:#905426;" x="88.320321" xlink:href="#m88869bba97" y="120.930703"/>
     <use style="fill:#905426;stroke:#905426;" x="90.558289" xlink:href="#m88869bba97" y="120.939886"/>
     <use style="fill:#905426;stroke:#905426;" x="92.796257" xlink:href="#m88869bba97" y="120.916787"/>
     <use style="fill:#905426;stroke:#905426;" x="95.034225" xlink:href="#m88869bba97" y="120.869625"/>
     <use style="fill:#905426;stroke:#905426;" x="97.272193" xlink:href="#m88869bba97" y="120.814859"/>
     <use style="fill:#905426;stroke:#905426;" x="99.51016" xlink:href="#m88869bba97" y="120.794811"/>
     <use style="fill:#905426;stroke:#905426;" x="101.748128" xlink:href="#m88869bba97" y="120.779563"/>
     <use style="fill:#905426;stroke:#905426;" x="103.986096" xlink:href="#m88869bba97" y="120.749383"/>
     <use style="fill:#905426;stroke:#905426;" x="106.224064" xlink:href="#m88869bba97" y="120.730935"/>
     <use style="fill:#905426;stroke:#905426;" x="108.462032" xlink:href="#m88869bba97" y="120.636625"/>
     <use style="fill:#905426;stroke:#905426;" x="110.7" xlink:href="#m88869bba97" y="120.570891"/>
     <use style="fill:#905426;stroke:#905426;" x="112.937968" xlink:href="#m88869bba97" y="120.467027"/>
     <use style="fill:#905426;stroke:#905426;" x="115.175936" xlink:href="#m88869bba97" y="120.379991"/>
     <use style="fill:#905426;stroke:#905426;" x="117.413904" xlink:href="#m88869bba97" y="120.263847"/>
     <use style="fill:#905426;stroke:#905426;" x="119.651872" xlink:href="#m88869bba97" y="120.183768"/>
     <use style="fill:#905426;stroke:#905426;" x="121.88984" xlink:href="#m88869bba97" y="119.850203"/>
     <use style="fill:#905426;stroke:#905426;" x="124.127807" xlink:href="#m88869bba97" y="119.614313"/>
     <use style="fill:#905426;stroke:#905426;" x="126.365775" xlink:href="#m88869bba97" y="119.490794"/>
     <use style="fill:#905426;stroke:#905426;" x="128.603743" xlink:href="#m88869bba97" y="119.086689"/>
     <use style="fill:#905426;stroke:#905426;" x="130.841711" xlink:href="#m88869bba97" y="118.833662"/>
     <use style="fill:#905426;stroke:#905426;" x="133.079679" xlink:href="#m88869bba97" y="118.572186"/>
     <use style="fill:#905426;stroke:#905426;" x="135.317647" xlink:href="#m88869bba97" y="117.989532"/>
     <use style="fill:#905426;stroke:#905426;" x="137.555615" xlink:href="#m88869bba97" y="117.437906"/>
     <use style="fill:#905426;stroke:#905426;" x="139.793583" xlink:href="#m88869bba97" y="117.041838"/>
     <use style="fill:#905426;stroke:#905426;" x="142.031551" xlink:href="#m88869bba97" y="116.967928"/>
     <use style="fill:#905426;stroke:#905426;" x="144.269519" xlink:href="#m88869bba97" y="116.402773"/>
     <use style="fill:#905426;stroke:#905426;" x="146.507487" xlink:href="#m88869bba97" y="115.622127"/>
     <use style="fill:#905426;stroke:#905426;" x="148.745455" xlink:href="#m88869bba97" y="115.231096"/>
     <use style="fill:#905426;stroke:#905426;" x="150.983422" xlink:href="#m88869bba97" y="114.711504"/>
     <use style="fill:#905426;stroke:#905426;" x="153.22139" xlink:href="#m88869bba97" y="113.84811"/>
     <use style="fill:#905426;stroke:#905426;" x="155.459358" xlink:href="#m88869bba97" y="112.9228"/>
     <use style="fill:#905426;stroke:#905426;" x="157.697326" xlink:href="#m88869bba97" y="111.914298"/>
     <use style="fill:#905426;stroke:#905426;" x="159.935294" xlink:href="#m88869bba97" y="110.532618"/>
     <use style="fill:#905426;stroke:#905426;" x="162.173262" xlink:href="#m88869bba97" y="109.23564"/>
     <use style="fill:#905426;stroke:#905426;" x="164.41123" xlink:href="#m88869bba97" y="108.176286"/>
     <use style="fill:#905426;stroke:#905426;" x="166.649198" xlink:href="#m88869bba97" y="107.067886"/>
     <use style="fill:#905426;stroke:#905426;" x="168.887166" xlink:href="#m88869bba97" y="105.466133"/>
     <use style="fill:#905426;stroke:#905426;" x="171.125134" xlink:href="#m88869bba97" y="104.001779"/>
     <use style="fill:#905426;stroke:#905426;" x="173.363102" xlink:href="#m88869bba97" y="101.797234"/>
     <use style="fill:#905426;stroke:#905426;" x="175.60107" xlink:href="#m88869bba97" y="100.888674"/>
     <use style="fill:#905426;stroke:#905426;" x="177.839037" xlink:href="#m88869bba97" y="99.396335"/>
     <use style="fill:#905426;stroke:#905426;" x="180.077005" xlink:href="#m88869bba97" y="97.820463"/>
     <use style="fill:#905426;stroke:#905426;" x="182.314973" xlink:href="#m88869bba97" y="97.283735"/>
     <use style="fill:#905426;stroke:#905426;" x="184.552941" xlink:href="#m88869bba97" y="95.534863"/>
     <use style="fill:#905426;stroke:#905426;" x="186.790909" xlink:href="#m88869bba97" y="95.282885"/>
    </g>
   </g>
   <g id="patch_3">
    <path d="M 27 126 
L 27 17.28 
" style="fill:none;stroke:#ffffff;stroke-linecap:square;stroke-linejoin:miter;stroke-width:0.8;"/>
   </g>
   <g id="patch_4">
    <path d="M 194.4 126 
L 194.4 17.28 
" style="fill:none;stroke:#ffffff;stroke-linecap:square;stroke-linejoin:miter;stroke-width:0.8;"/>
   </g>
   <g id="patch_5">
    <path d="M 27 126 
L 194.4 126 
" style="fill:none;stroke:#ffffff;stroke-linecap:square;stroke-linejoin:miter;stroke-width:0.8;"/>
   </g>
   <g id="patch_6">
    <path d="M 27 17.28 
L 194.4 17.28 
" style="fill:none;stroke:#ffffff;stroke-linecap:square;stroke-linejoin:miter;stroke-width:0.8;"/>
   </g>
   <g id="legend_1">
    <g id="patch_7">
     <path d="M 31.2 57.21 
L 99.681562 57.21 
Q 100.881563 57.21 100.881563 56.01 
L 100.881563 21.48 
Q 100.881563 20.28 99.681562 20.28 
L 31.2 20.28 
Q 30 20.28 30 21.48 
L 30 56.01 
Q 30 57.21 31.2 57.21 
z
" style="fill:#e3dcd0;opacity:0.8;stroke:#cccccc;stroke-linejoin:miter;"/>
    </g>
    <g id="line2d_5">
     <path d="M 32.4 25.205625 
L 44.4 25.205625 
" style="fill:none;stroke:#738fc1;stroke-linecap:round;stroke-width:0.75;"/>
    </g>
    <g id="line2d_6">
     <g>
      <use style="fill:#738fc1;stroke:#738fc1;" x="38.4" xlink:href="#me03d9706b4" y="25.205625"/>
     </g>
    </g>
    <g id="text_16">
     <!-- carp -->
     <defs>
      <path d="M 46.4375 1.609375 
Q 37.109375 -1.21875 30.328125 -1.21875 
Q 19.578125 -1.21875 12.5 6.734375 
Q 5.421875 14.703125 5.421875 26.8125 
Q 5.421875 39.75 12.421875 46.96875 
Q 19.4375 54.203125 31.984375 54.203125 
Q 38.1875 54.203125 45.84375 52.484375 
L 45.84375 44.4375 
Q 37.703125 46.828125 32.5625 46.828125 
Q 25.140625 46.828125 20.703125 41.28125 
Q 16.265625 35.75 16.265625 26.515625 
Q 16.265625 17.578125 20.84375 12.0625 
Q 25.4375 6.546875 32.859375 6.546875 
Q 39.453125 6.546875 46.4375 9.90625 
z
" id="LucidaSansUnicode-99"/>
      <path d="M 9.625 -19.28125 
L 9.625 53.03125 
L 19.234375 53.03125 
L 19.234375 43.0625 
Q 25.140625 54.203125 36.96875 54.203125 
Q 46.53125 54.203125 52.015625 47.21875 
Q 57.515625 40.234375 57.515625 28.125 
Q 57.515625 14.9375 51.28125 6.859375 
Q 45.0625 -1.21875 34.90625 -1.21875 
Q 25.484375 -1.21875 19.234375 6 
L 19.234375 -19.28125 
z
M 19.234375 12.640625 
Q 26.65625 6 33.40625 6 
Q 40.046875 6 43.65625 11.546875 
Q 47.265625 17.09375 47.265625 27.15625 
Q 47.265625 45.796875 34.96875 45.796875 
Q 26.90625 45.796875 19.234375 37.0625 
z
" id="LucidaSansUnicode-112"/>
     </defs>
     <g style="fill:#262626;" transform="translate(49.2 27.305625)scale(0.06 -0.06)">
      <use xlink:href="#LucidaSansUnicode-99"/>
      <use x="51.220703" xlink:href="#LucidaSansUnicode-97"/>
      <use x="106.445312" xlink:href="#LucidaSansUnicode-114"/>
      <use x="147.363281" xlink:href="#LucidaSansUnicode-112"/>
     </g>
    </g>
    <g id="line2d_7">
     <path d="M 32.4 33.988125 
L 44.4 33.988125 
" style="fill:none;stroke:#d56c55;stroke-linecap:round;stroke-width:0.75;"/>
    </g>
    <g id="line2d_8">
     <g>
      <use style="fill:#d56c55;stroke:#d56c55;" x="38.4" xlink:href="#m76e7fb52bd" y="33.988125"/>
     </g>
    </g>
    <g id="text_17">
     <!-- molluscs -->
     <defs>
      <path d="M 30.71875 -1.21875 
Q 19.046875 -1.21875 12.234375 6.25 
Q 5.421875 13.71875 5.421875 26.515625 
Q 5.421875 39.3125 12.234375 46.75 
Q 19.046875 54.203125 30.71875 54.203125 
Q 42.390625 54.203125 49.1875 46.75 
Q 56 39.3125 56 26.515625 
Q 56 13.71875 49.1875 6.25 
Q 42.390625 -1.21875 30.71875 -1.21875 
z
M 30.71875 6 
Q 37.890625 6 41.84375 11.375 
Q 45.796875 16.75 45.796875 26.515625 
Q 45.796875 36.28125 41.84375 41.625 
Q 37.890625 46.96875 30.71875 46.96875 
Q 23.53125 46.96875 19.59375 41.625 
Q 15.671875 36.28125 15.671875 26.515625 
Q 15.671875 16.75 19.59375 11.375 
Q 23.53125 6 30.71875 6 
z
" id="LucidaSansUnicode-111"/>
      <path d="M 9.625 0 
L 9.625 77.09375 
L 19.234375 77.09375 
L 19.234375 0 
z
" id="LucidaSansUnicode-108"/>
      <path d="M 42.78125 0 
L 42.78125 9.96875 
Q 35.109375 -1.21875 24.171875 -1.21875 
Q 17.234375 -1.21875 13.125 3.140625 
Q 9.03125 7.515625 9.03125 14.9375 
L 9.03125 53.03125 
L 18.65625 53.03125 
L 18.65625 18.0625 
Q 18.65625 12.109375 20.390625 9.59375 
Q 22.125 7.078125 26.171875 7.078125 
Q 34.96875 7.078125 42.78125 18.65625 
L 42.78125 53.03125 
L 52.390625 53.03125 
L 52.390625 0 
z
" id="LucidaSansUnicode-117"/>
     </defs>
     <g style="fill:#262626;" transform="translate(49.2 36.088125)scale(0.06 -0.06)">
      <use xlink:href="#LucidaSansUnicode-109"/>
      <use x="93.359375" xlink:href="#LucidaSansUnicode-111"/>
      <use x="154.785156" xlink:href="#LucidaSansUnicode-108"/>
      <use x="183.691406" xlink:href="#LucidaSansUnicode-108"/>
      <use x="212.597656" xlink:href="#LucidaSansUnicode-117"/>
      <use x="274.658203" xlink:href="#LucidaSansUnicode-115"/>
      <use x="325.634766" xlink:href="#LucidaSansUnicode-99"/>
      <use x="376.855469" xlink:href="#LucidaSansUnicode-115"/>
     </g>
    </g>
    <g id="line2d_9">
     <path d="M 32.4 42.770625 
L 44.4 42.770625 
" style="fill:none;stroke:#7e9d90;stroke-linecap:round;stroke-width:0.75;"/>
    </g>
    <g id="line2d_10">
     <g>
      <use style="fill:#7e9d90;stroke:#7e9d90;" x="38.4" xlink:href="#m6aa4fc6e1c" y="42.770625"/>
     </g>
    </g>
    <g id="text_18">
     <!-- shrimp &amp; prawns -->
     <defs>
      <path d="M 9.625 0 
L 9.625 77.09375 
L 19.234375 77.09375 
L 19.234375 43.0625 
Q 26.859375 54.203125 37.890625 54.203125 
Q 44.828125 54.203125 48.90625 49.828125 
Q 52.984375 45.453125 52.984375 38.09375 
L 52.984375 0 
L 43.359375 0 
L 43.359375 34.96875 
Q 43.359375 40.875 41.625 43.390625 
Q 39.890625 45.90625 35.890625 45.90625 
Q 27.046875 45.90625 19.234375 34.328125 
L 19.234375 0 
z
" id="LucidaSansUnicode-104"/>
      <path d="M 9.625 0 
L 9.625 53.03125 
L 19.234375 53.03125 
L 19.234375 0 
z
M 9.625 62.640625 
L 9.625 72.265625 
L 19.234375 72.265625 
L 19.234375 62.640625 
z
" id="LucidaSansUnicode-105"/>
      <path d="M 51.8125 0 
L 48.25 4.296875 
Q 40.234375 -1.8125 29.546875 -1.8125 
Q 18.21875 -1.8125 10.90625 4.75 
Q 3.609375 11.328125 3.609375 21.484375 
Q 3.609375 38.1875 21.234375 44.140625 
Q 16.359375 52.984375 16.359375 58.84375 
Q 16.359375 65.234375 21.4375 69.65625 
Q 26.515625 74.078125 33.84375 74.078125 
Q 40.875 74.078125 45.4375 69.953125 
Q 50 65.828125 50 59.46875 
Q 50 48.640625 34.125 40.625 
Q 41.40625 27.734375 51.078125 16.546875 
Q 55.515625 23.046875 55.515625 34.90625 
L 55.46875 38.421875 
L 65.046875 38.421875 
Q 65.046875 22.40625 55.46875 10.796875 
Q 59.859375 5.21875 65.484375 0 
z
M 44.046875 9.859375 
Q 33.796875 22.46875 24.515625 38.421875 
Q 13.234375 33.9375 13.234375 23.828125 
Q 13.234375 16.15625 18.4375 10.78125 
Q 23.640625 5.421875 31.109375 5.421875 
Q 37.890625 5.421875 44.046875 9.859375 
z
M 30.609375 46.734375 
Q 40.96875 51.46875 40.96875 59.328125 
Q 40.96875 62.75 38.890625 64.796875 
Q 36.8125 66.84375 33.453125 66.84375 
Q 30.078125 66.84375 28.046875 64.765625 
Q 26.03125 62.703125 26.03125 59.28125 
Q 26.03125 54.296875 30.609375 46.734375 
z
" id="LucidaSansUnicode-38"/>
      <path d="M 15.765625 0 
L 0.59375 53.03125 
L 10.015625 53.03125 
L 21.625 11.96875 
L 34.1875 53.03125 
L 43.796875 53.03125 
L 54.78125 11.96875 
L 68.109375 53.03125 
L 76.375 53.03125 
L 59.078125 0 
L 49.421875 0 
L 38.1875 41.0625 
L 25.484375 0 
z
" id="LucidaSansUnicode-119"/>
      <path d="M 9.625 0 
L 9.625 53.03125 
L 19.234375 53.03125 
L 19.234375 43.0625 
Q 26.859375 54.203125 37.890625 54.203125 
Q 44.828125 54.203125 48.90625 49.828125 
Q 52.984375 45.453125 52.984375 38.09375 
L 52.984375 0 
L 43.359375 0 
L 43.359375 34.96875 
Q 43.359375 40.875 41.625 43.390625 
Q 39.890625 45.90625 35.890625 45.90625 
Q 27.046875 45.90625 19.234375 34.328125 
L 19.234375 0 
z
" id="LucidaSansUnicode-110"/>
     </defs>
     <g style="fill:#262626;" transform="translate(49.2 44.870625)scale(0.06 -0.06)">
      <use xlink:href="#LucidaSansUnicode-115"/>
      <use x="50.976562" xlink:href="#LucidaSansUnicode-104"/>
      <use x="113.037109" xlink:href="#LucidaSansUnicode-114"/>
      <use x="153.955078" xlink:href="#LucidaSansUnicode-105"/>
      <use x="182.861328" xlink:href="#LucidaSansUnicode-109"/>
      <use x="276.220703" xlink:href="#LucidaSansUnicode-112"/>
      <use x="339.160156" xlink:href="#LucidaSansUnicode-32"/>
      <use x="370.800781" xlink:href="#LucidaSansUnicode-38"/>
      <use x="440.527344" xlink:href="#LucidaSansUnicode-32"/>
      <use x="472.167969" xlink:href="#LucidaSansUnicode-112"/>
      <use x="535.107422" xlink:href="#LucidaSansUnicode-114"/>
      <use x="576.025391" xlink:href="#LucidaSansUnicode-97"/>
      <use x="631.25" xlink:href="#LucidaSansUnicode-119"/>
      <use x="708.300781" xlink:href="#LucidaSansUnicode-110"/>
      <use x="770.361328" xlink:href="#LucidaSansUnicode-115"/>
     </g>
    </g>
    <g id="line2d_11">
     <path d="M 32.4 51.553125 
L 44.4 51.553125 
" style="fill:none;stroke:#905426;stroke-linecap:round;stroke-width:0.75;"/>
    </g>
    <g id="line2d_12">
     <g>
      <use style="fill:#905426;stroke:#905426;" x="38.4" xlink:href="#m88869bba97" y="51.553125"/>
     </g>
    </g>
    <g id="text_19">
     <!-- tilapia -->
     <defs>
      <path d="M 33.25 0 
Q 28.8125 -1.21875 25.53125 -1.21875 
Q 18.21875 -1.21875 14.109375 2.96875 
Q 10.015625 7.171875 10.015625 14.65625 
L 10.015625 45.796875 
L 3.375 45.796875 
L 3.375 53.03125 
L 10.015625 53.03125 
L 10.015625 62.640625 
L 19.625 63.578125 
L 19.625 53.03125 
L 33.5 53.03125 
L 33.5 45.796875 
L 19.625 45.796875 
L 19.625 16.40625 
Q 19.625 6 28.609375 6 
Q 30.515625 6 33.25 6.640625 
z
" id="LucidaSansUnicode-116"/>
     </defs>
     <g style="fill:#262626;" transform="translate(49.2 53.653125)scale(0.06 -0.06)">
      <use xlink:href="#LucidaSansUnicode-116"/>
      <use x="37.402344" xlink:href="#LucidaSansUnicode-105"/>
      <use x="66.308594" xlink:href="#LucidaSansUnicode-108"/>
      <use x="95.214844" xlink:href="#LucidaSansUnicode-97"/>
      <use x="150.439453" xlink:href="#LucidaSansUnicode-112"/>
      <use x="213.378906" xlink:href="#LucidaSansUnicode-105"/>
      <use x="242.285156" xlink:href="#LucidaSansUnicode-97"/>
     </g>
    </g>
   </g>
  </g>
 </g>
 <defs>
  <clipPath id="pbf02af6164">
   <rect height="108.72" width="167.4" x="27" y="17.28"/>
  </clipPath>
 </defs>
</svg>
