<?xml version="1.0" encoding="utf-8" standalone="no"?>
<!DOCTYPE svg PUBLIC "-//W3C//DTD SVG 1.1//EN"
  "http://www.w3.org/Graphics/SVG/1.1/DTD/svg11.dtd">
<!-- Created with matplotlib (https://matplotlib.org/) -->
<svg height="144pt" version="1.1" viewBox="0 0 216 144" width="216pt" xmlns="http://www.w3.org/2000/svg" xmlns:xlink="http://www.w3.org/1999/xlink">
 <defs>
  <style type="text/css">
*{stroke-linecap:butt;stroke-linejoin:round;}
  </style>
 </defs>
 <g id="figure_1">
  <g id="patch_1">
   <path d="M 0 144 
L 216 144 
L 216 0 
L 0 0 
z
" style="fill:#ffffff;"/>
  </g>
  <g id="axes_1">
   <g id="patch_2">
    <path d="M 27 126 
L 194.4 126 
L 194.4 17.28 
L 27 17.28 
z
" style="fill:#e3dcd0;"/>
   </g>
   <g id="matplotlib.axis_1">
    <g id="xtick_1">
     <g id="text_1">
      <!-- 1970 -->
      <defs>
       <path d="M 26.171875 0 
L 26.171875 65.046875 
L 14.75 65.046875 
L 14.75 71.09375 
L 35.84375 72.90625 
L 35.84375 0 
z
" id="LucidaSansUnicode-49"/>
       <path d="M 11.375 0.4375 
L 11.375 8.59375 
Q 20.5625 5.421875 27 5.421875 
Q 35.984375 5.421875 41.03125 13.0625 
Q 46.09375 20.703125 46.09375 34.328125 
Q 38.765625 25.296875 29.4375 25.296875 
Q 20.3125 25.296875 13.96875 32 
Q 7.625 38.71875 7.625 48.390625 
Q 7.625 59.46875 14.375 66.765625 
Q 21.140625 74.078125 31.390625 74.078125 
Q 43.171875 74.078125 49.953125 64.625 
Q 56.734375 55.171875 56.734375 38.765625 
Q 56.734375 28.328125 53.46875 19.109375 
Q 50.203125 9.90625 44.671875 4.78125 
Q 37.59375 -1.8125 26.078125 -1.8125 
Q 20.40625 -1.8125 11.375 0.4375 
z
M 17.234375 50.046875 
Q 17.234375 41.796875 20.984375 37.015625 
Q 24.75 32.234375 31.15625 32.234375 
Q 37.3125 32.234375 41.625 36.375 
Q 45.953125 40.53125 45.953125 46.390625 
Q 45.953125 55.609375 41.765625 61.25 
Q 37.59375 66.890625 30.8125 66.890625 
Q 24.46875 66.890625 20.84375 62.390625 
Q 17.234375 57.90625 17.234375 50.046875 
z
" id="LucidaSansUnicode-57"/>
       <path d="M 15.046875 0 
Q 16.453125 8.453125 19.0625 14.59375 
Q 21.6875 20.75 28.328125 31.5 
L 48.046875 63.234375 
L 10.84375 63.234375 
L 10.84375 72.265625 
L 57.234375 72.265625 
L 57.234375 63.234375 
Q 29.4375 22.265625 26.125 0 
z
" id="LucidaSansUnicode-55"/>
       <path d="M 31.640625 -1.8125 
Q 20.265625 -1.8125 13.296875 8.609375 
Q 6.34375 19.046875 6.34375 36.140625 
Q 6.34375 53.21875 13.296875 63.640625 
Q 20.265625 74.078125 31.640625 74.078125 
Q 43.0625 74.078125 50 63.671875 
Q 56.9375 53.265625 56.9375 36.140625 
Q 56.9375 19.046875 50 8.609375 
Q 43.0625 -1.8125 31.640625 -1.8125 
z
M 31.640625 5.421875 
Q 46.734375 5.421875 46.734375 36.140625 
Q 46.734375 66.84375 31.640625 66.84375 
Q 16.609375 66.84375 16.609375 36.140625 
Q 16.609375 5.421875 31.640625 5.421875 
z
" id="LucidaSansUnicode-48"/>
      </defs>
      <g transform="translate(45.843454 134.125625)scale(0.06 -0.06)">
       <use xlink:href="#LucidaSansUnicode-49"/>
       <use x="63.232422" xlink:href="#LucidaSansUnicode-57"/>
       <use x="126.464844" xlink:href="#LucidaSansUnicode-55"/>
       <use x="189.697266" xlink:href="#LucidaSansUnicode-48"/>
      </g>
     </g>
    </g>
    <g id="xtick_2">
     <g id="text_2">
      <!-- 1980 -->
      <defs>
       <path d="M 23 39.359375 
Q 17.046875 43.5 14.71875 47.0625 
Q 12.40625 50.640625 12.40625 55.671875 
Q 12.40625 63.875 18.40625 69 
Q 24.421875 74.125 34.078125 74.125 
Q 43.015625 74.125 48.5625 69.78125 
Q 54.109375 65.4375 54.109375 58.5 
Q 54.109375 48 40.625 39.359375 
Q 56.984375 31.34375 56.984375 18.703125 
Q 56.984375 9.671875 50.140625 3.921875 
Q 43.3125 -1.8125 32.5625 -1.8125 
Q 21.828125 -1.8125 15.234375 3.578125 
Q 8.640625 8.984375 8.640625 17.78125 
Q 8.640625 30.765625 23 39.359375 
z
M 35.25 42.390625 
Q 45.359375 49.03125 45.359375 57.171875 
Q 45.359375 61.53125 41.96875 64.1875 
Q 38.578125 66.84375 33.109375 66.84375 
Q 27.78125 66.84375 24.453125 64.234375 
Q 21.140625 61.625 21.140625 57.46875 
Q 21.140625 53.421875 24.140625 50.1875 
Q 27.15625 46.96875 35.25 42.390625 
z
M 28.21875 35.453125 
Q 22.40625 30.953125 20.328125 27.609375 
Q 18.265625 24.265625 18.265625 19.28125 
Q 18.265625 13.09375 22.265625 9.25 
Q 26.265625 5.421875 32.8125 5.421875 
Q 39.109375 5.421875 43.09375 8.6875 
Q 47.078125 11.96875 47.078125 17.1875 
Q 47.078125 21.390625 44.609375 24.296875 
Q 42.140625 27.203125 35.0625 31.390625 
z
" id="LucidaSansUnicode-56"/>
      </defs>
      <g transform="translate(75.211875 134.125625)scale(0.06 -0.06)">
       <use xlink:href="#LucidaSansUnicode-49"/>
       <use x="63.232422" xlink:href="#LucidaSansUnicode-57"/>
       <use x="126.464844" xlink:href="#LucidaSansUnicode-56"/>
       <use x="189.697266" xlink:href="#LucidaSansUnicode-48"/>
      </g>
     </g>
    </g>
    <g id="xtick_3">
     <g id="text_3">
      <!-- 1990 -->
      <g transform="translate(104.580296 134.125625)scale(0.06 -0.06)">
       <use xlink:href="#LucidaSansUnicode-49"/>
       <use x="63.232422" xlink:href="#LucidaSansUnicode-57"/>
       <use x="126.464844" xlink:href="#LucidaSansUnicode-57"/>
       <use x="189.697266" xlink:href="#LucidaSansUnicode-48"/>
      </g>
     </g>
    </g>
    <g id="xtick_4">
     <g id="text_4">
      <!-- 2000 -->
      <defs>
       <path d="M 8.296875 0 
L 8.296875 8.453125 
Q 12.5 18.265625 25.296875 29.828125 
L 30.8125 34.765625 
Q 41.453125 44.390625 41.453125 53.859375 
Q 41.453125 59.90625 37.8125 63.375 
Q 34.1875 66.84375 27.78125 66.84375 
Q 20.3125 66.84375 10.109375 61.03125 
L 10.109375 69.53125 
Q 19.734375 74.078125 29.25 74.078125 
Q 39.40625 74.078125 45.53125 68.609375 
Q 51.65625 63.140625 51.65625 54.109375 
Q 51.65625 47.609375 48.546875 42.578125 
Q 45.453125 37.546875 37.015625 30.375 
L 33.296875 27.203125 
Q 21.734375 17.390625 19.921875 8.453125 
L 51.3125 8.453125 
L 51.3125 0 
z
" id="LucidaSansUnicode-50"/>
      </defs>
      <g transform="translate(133.948717 134.125625)scale(0.06 -0.06)">
       <use xlink:href="#LucidaSansUnicode-50"/>
       <use x="63.232422" xlink:href="#LucidaSansUnicode-48"/>
       <use x="126.464844" xlink:href="#LucidaSansUnicode-48"/>
       <use x="189.697266" xlink:href="#LucidaSansUnicode-48"/>
      </g>
     </g>
    </g>
    <g id="xtick_5">
     <g id="text_5">
      <!-- 2010 -->
      <g transform="translate(163.317138 134.125625)scale(0.06 -0.06)">
       <use xlink:href="#LucidaSansUnicode-50"/>
       <use x="63.232422" xlink:href="#LucidaSansUnicode-48"/>
       <use x="126.464844" xlink:href="#LucidaSansUnicode-49"/>
       <use x="189.697266" xlink:href="#LucidaSansUnicode-48"/>
      </g>
     </g>
    </g>
    <g id="text_6">
     <!-- year -->
     <defs>
      <path d="M 12.703125 -19.28125 
L 21.296875 0 
L 0.78125 53.03125 
L 11.1875 53.03125 
L 26.375 13.09375 
L 42.578125 53.03125 
L 51.65625 53.03125 
L 22.703125 -19.28125 
z
" id="LucidaSansUnicode-121"/>
      <path d="M 48.484375 1.703125 
Q 38.8125 -1.21875 31.9375 -1.21875 
Q 20.171875 -1.21875 12.796875 6.5625 
Q 5.421875 14.359375 5.421875 26.765625 
Q 5.421875 38.8125 11.9375 46.53125 
Q 18.453125 54.25 28.609375 54.25 
Q 38.234375 54.25 43.484375 47.390625 
Q 48.734375 40.53125 48.734375 27.9375 
L 48.6875 25 
L 15.234375 25 
Q 17.328125 6.109375 33.734375 6.109375 
Q 39.75 6.109375 48.484375 9.328125 
z
M 15.671875 32.234375 
L 39.0625 32.234375 
Q 39.0625 47.015625 28.03125 47.015625 
Q 16.9375 47.015625 15.671875 32.234375 
z
" id="LucidaSansUnicode-101"/>
      <path d="M 36.96875 6.734375 
Q 28.328125 -1.21875 20.3125 -1.21875 
Q 13.71875 -1.21875 9.375 2.90625 
Q 5.03125 7.03125 5.03125 13.328125 
Q 5.03125 22.015625 12.328125 26.671875 
Q 19.625 31.34375 33.296875 31.34375 
L 35.546875 31.34375 
L 35.546875 37.75 
Q 35.546875 46.96875 25.921875 46.96875 
Q 18.453125 46.96875 9.625 42.28125 
L 9.625 50.25 
Q 19.34375 54.203125 27.9375 54.203125 
Q 36.765625 54.203125 40.96875 50.171875 
Q 45.171875 46.140625 45.171875 37.75 
L 45.171875 13.71875 
Q 45.171875 5.46875 50.25 5.46875 
Q 50.875 5.46875 52.09375 5.671875 
L 52.78125 0.34375 
Q 49.515625 -1.21875 45.5625 -1.21875 
Q 38.8125 -1.21875 36.96875 6.734375 
z
M 35.546875 11.96875 
L 35.546875 25.6875 
L 32.46875 25.78125 
Q 24.46875 25.78125 19.5625 22.796875 
Q 14.65625 19.828125 14.65625 14.890625 
Q 14.65625 11.421875 17.09375 9.03125 
Q 19.53125 6.640625 23.046875 6.640625 
Q 29.046875 6.640625 35.546875 11.96875 
z
" id="LucidaSansUnicode-97"/>
      <path d="M 9.625 0 
L 9.625 53.03125 
L 19.234375 53.03125 
L 19.234375 43.0625 
Q 24.953125 54.203125 35.84375 54.203125 
Q 37.3125 54.203125 38.921875 53.953125 
L 38.921875 44.96875 
Q 36.421875 45.796875 34.515625 45.796875 
Q 25.390625 45.796875 19.234375 34.96875 
L 19.234375 0 
z
" id="LucidaSansUnicode-114"/>
     </defs>
     <g style="fill:#262626;" transform="translate(104.576719 143.908125)scale(0.06 -0.06)">
      <use xlink:href="#LucidaSansUnicode-121"/>
      <use x="52.246094" xlink:href="#LucidaSansUnicode-101"/>
      <use x="107.958984" xlink:href="#LucidaSansUnicode-97"/>
      <use x="163.183594" xlink:href="#LucidaSansUnicode-114"/>
     </g>
    </g>
   </g>
   <g id="matplotlib.axis_2">
    <g id="ytick_1">
     <g id="text_7">
      <!-- 0 -->
      <g transform="translate(19.705938 128.312813)scale(0.06 -0.06)">
       <use xlink:href="#LucidaSansUnicode-48"/>
      </g>
     </g>
    </g>
    <g id="ytick_2">
     <g id="text_8">
      <!-- 2 -->
      <g transform="translate(19.705938 102.731636)scale(0.06 -0.06)">
       <use xlink:href="#LucidaSansUnicode-50"/>
      </g>
     </g>
    </g>
    <g id="ytick_3">
     <g id="text_9">
      <!-- 4 -->
      <defs>
       <path d="M 37.640625 0 
L 37.640625 20.453125 
L 5.125 20.453125 
L 5.125 27.734375 
L 37.640625 72.265625 
L 46.6875 72.265625 
L 46.6875 28.328125 
L 56.34375 28.328125 
L 56.34375 20.453125 
L 46.6875 20.453125 
L 46.6875 0 
z
M 14.546875 28.328125 
L 38.28125 28.328125 
L 38.28125 60.453125 
z
" id="LucidaSansUnicode-52"/>
      </defs>
      <g transform="translate(19.705938 77.15046)scale(0.06 -0.06)">
       <use xlink:href="#LucidaSansUnicode-52"/>
      </g>
     </g>
    </g>
    <g id="ytick_4">
     <g id="text_10">
      <!-- 6 -->
      <defs>
       <path d="M 17.1875 37.453125 
Q 24.078125 46.390625 34.515625 46.390625 
Q 44 46.390625 50.03125 40.109375 
Q 56.0625 33.84375 56.0625 24.03125 
Q 56.0625 12.75 49.296875 5.46875 
Q 42.53125 -1.8125 32.078125 -1.8125 
Q 20.171875 -1.8125 13.421875 7.828125 
Q 6.6875 17.484375 6.6875 34.515625 
Q 6.6875 57.46875 18.453125 68.21875 
Q 24.859375 74.125 36.140625 74.125 
Q 42.671875 74.125 52.34375 71.390625 
L 52.34375 62.984375 
Q 42.140625 66.890625 35.546875 66.890625 
Q 17.1875 66.890625 17.1875 37.453125 
z
M 46.390625 22.125 
Q 46.390625 30.125 42.671875 34.78125 
Q 38.96875 39.453125 32.515625 39.453125 
Q 26.375 39.453125 21.96875 35.34375 
Q 17.578125 31.25 17.578125 25.484375 
Q 17.578125 16.40625 21.75 10.90625 
Q 25.921875 5.421875 32.8125 5.421875 
Q 39.0625 5.421875 42.71875 9.90625 
Q 46.390625 14.40625 46.390625 22.125 
z
" id="LucidaSansUnicode-54"/>
      </defs>
      <g transform="translate(19.705938 51.569283)scale(0.06 -0.06)">
       <use xlink:href="#LucidaSansUnicode-54"/>
      </g>
     </g>
    </g>
    <g id="ytick_5">
     <g id="text_11">
      <!-- 8 -->
      <g transform="translate(19.705938 25.988107)scale(0.06 -0.06)">
       <use xlink:href="#LucidaSansUnicode-56"/>
      </g>
     </g>
    </g>
    <g id="text_12">
     <!-- mass of cattle product [10$^{11}$ kg] -->
     <defs>
      <path d="M 9.625 0 
L 9.625 53.03125 
L 19.234375 53.03125 
L 19.234375 43.0625 
Q 26.265625 54.203125 37.3125 54.203125 
Q 47.953125 54.203125 51.8125 43.0625 
Q 58.640625 54.25 69.578125 54.25 
Q 76.5625 54.25 80.4375 50.125 
Q 84.328125 46 84.328125 38.578125 
L 84.328125 0 
L 74.65625 0 
L 74.65625 37.0625 
Q 74.65625 46.140625 67.484375 46.140625 
Q 60.015625 46.140625 51.8125 35.546875 
L 51.8125 0 
L 42.140625 0 
L 42.140625 37.0625 
Q 42.140625 46.1875 34.8125 46.1875 
Q 27.546875 46.1875 19.234375 35.546875 
L 19.234375 0 
z
" id="LucidaSansUnicode-109"/>
      <path d="M 7.671875 1.859375 
L 7.671875 10.6875 
Q 17.09375 6 24.078125 6 
Q 28.21875 6 30.953125 8.25 
Q 33.6875 10.5 33.6875 13.875 
Q 33.6875 18.796875 26.03125 22.015625 
L 20.40625 24.421875 
Q 7.953125 29.59375 7.953125 39.3125 
Q 7.953125 46.234375 12.859375 50.21875 
Q 17.78125 54.203125 26.3125 54.203125 
Q 30.765625 54.203125 37.3125 52.984375 
L 39.3125 52.59375 
L 39.3125 44.578125 
Q 31.25 46.96875 26.46875 46.96875 
Q 22.265625 46.96875 19.75 45.140625 
Q 17.234375 43.3125 17.234375 40.234375 
Q 17.234375 35.890625 24.265625 32.90625 
L 28.90625 30.953125 
Q 36.765625 27.640625 40.03125 23.953125 
Q 43.3125 20.265625 43.3125 14.75 
Q 43.3125 7.765625 37.796875 3.265625 
Q 32.28125 -1.21875 23.6875 -1.21875 
Q 17.09375 -1.21875 7.671875 1.859375 
z
" id="LucidaSansUnicode-115"/>
      <path id="LucidaSansUnicode-32"/>
      <path d="M 30.71875 -1.21875 
Q 19.046875 -1.21875 12.234375 6.25 
Q 5.421875 13.71875 5.421875 26.515625 
Q 5.421875 39.3125 12.234375 46.75 
Q 19.046875 54.203125 30.71875 54.203125 
Q 42.390625 54.203125 49.1875 46.75 
Q 56 39.3125 56 26.515625 
Q 56 13.71875 49.1875 6.25 
Q 42.390625 -1.21875 30.71875 -1.21875 
z
M 30.71875 6 
Q 37.890625 6 41.84375 11.375 
Q 45.796875 16.75 45.796875 26.515625 
Q 45.796875 36.28125 41.84375 41.625 
Q 37.890625 46.96875 30.71875 46.96875 
Q 23.53125 46.96875 19.59375 41.625 
Q 15.671875 36.28125 15.671875 26.515625 
Q 15.671875 16.75 19.59375 11.375 
Q 23.53125 6 30.71875 6 
z
" id="LucidaSansUnicode-111"/>
      <path d="M 11.421875 0 
L 11.421875 45.796875 
L 3.90625 45.796875 
L 3.90625 53.03125 
L 11.421875 53.03125 
L 11.421875 59.375 
Q 11.421875 78.328125 28.71875 78.328125 
Q 33.546875 78.328125 39.703125 76.703125 
L 39.703125 69.09375 
Q 33.203125 71.09375 29.296875 71.09375 
Q 24.5625 71.09375 22.828125 68.8125 
Q 21.09375 66.546875 21.09375 60.40625 
L 21.09375 53.03125 
L 34.328125 53.03125 
L 34.328125 45.796875 
L 21.09375 45.796875 
L 21.09375 0 
z
" id="LucidaSansUnicode-102"/>
      <path d="M 46.4375 1.609375 
Q 37.109375 -1.21875 30.328125 -1.21875 
Q 19.578125 -1.21875 12.5 6.734375 
Q 5.421875 14.703125 5.421875 26.8125 
Q 5.421875 39.75 12.421875 46.96875 
Q 19.4375 54.203125 31.984375 54.203125 
Q 38.1875 54.203125 45.84375 52.484375 
L 45.84375 44.4375 
Q 37.703125 46.828125 32.5625 46.828125 
Q 25.140625 46.828125 20.703125 41.28125 
Q 16.265625 35.75 16.265625 26.515625 
Q 16.265625 17.578125 20.84375 12.0625 
Q 25.4375 6.546875 32.859375 6.546875 
Q 39.453125 6.546875 46.4375 9.90625 
z
" id="LucidaSansUnicode-99"/>
      <path d="M 33.25 0 
Q 28.8125 -1.21875 25.53125 -1.21875 
Q 18.21875 -1.21875 14.109375 2.96875 
Q 10.015625 7.171875 10.015625 14.65625 
L 10.015625 45.796875 
L 3.375 45.796875 
L 3.375 53.03125 
L 10.015625 53.03125 
L 10.015625 62.640625 
L 19.625 63.578125 
L 19.625 53.03125 
L 33.5 53.03125 
L 33.5 45.796875 
L 19.625 45.796875 
L 19.625 16.40625 
Q 19.625 6 28.609375 6 
Q 30.515625 6 33.25 6.640625 
z
" id="LucidaSansUnicode-116"/>
      <path d="M 9.625 0 
L 9.625 77.09375 
L 19.234375 77.09375 
L 19.234375 0 
z
" id="LucidaSansUnicode-108"/>
      <path d="M 9.625 -19.28125 
L 9.625 53.03125 
L 19.234375 53.03125 
L 19.234375 43.0625 
Q 25.140625 54.203125 36.96875 54.203125 
Q 46.53125 54.203125 52.015625 47.21875 
Q 57.515625 40.234375 57.515625 28.125 
Q 57.515625 14.9375 51.28125 6.859375 
Q 45.0625 -1.21875 34.90625 -1.21875 
Q 25.484375 -1.21875 19.234375 6 
L 19.234375 -19.28125 
z
M 19.234375 12.640625 
Q 26.65625 6 33.40625 6 
Q 40.046875 6 43.65625 11.546875 
Q 47.265625 17.09375 47.265625 27.15625 
Q 47.265625 45.796875 34.96875 45.796875 
Q 26.90625 45.796875 19.234375 37.0625 
z
" id="LucidaSansUnicode-112"/>
      <path d="M 43.65625 0 
L 43.65625 9.96875 
Q 37.796875 -1.21875 25.984375 -1.21875 
Q 16.40625 -1.21875 10.90625 5.765625 
Q 5.421875 12.75 5.421875 24.859375 
Q 5.421875 38.09375 11.640625 46.140625 
Q 17.875 54.203125 28.03125 54.203125 
Q 37.453125 54.203125 43.65625 46.96875 
L 43.65625 77.09375 
L 53.328125 77.09375 
L 53.328125 0 
z
M 43.65625 40.375 
Q 36.1875 46.96875 29.5 46.96875 
Q 22.90625 46.96875 19.28125 41.453125 
Q 15.671875 35.9375 15.671875 25.828125 
Q 15.671875 7.234375 27.984375 7.234375 
Q 35.984375 7.234375 43.65625 15.96875 
z
" id="LucidaSansUnicode-100"/>
      <path d="M 42.78125 0 
L 42.78125 9.96875 
Q 35.109375 -1.21875 24.171875 -1.21875 
Q 17.234375 -1.21875 13.125 3.140625 
Q 9.03125 7.515625 9.03125 14.9375 
L 9.03125 53.03125 
L 18.65625 53.03125 
L 18.65625 18.0625 
Q 18.65625 12.109375 20.390625 9.59375 
Q 22.125 7.078125 26.171875 7.078125 
Q 34.96875 7.078125 42.78125 18.65625 
L 42.78125 53.03125 
L 52.390625 53.03125 
L 52.390625 0 
z
" id="LucidaSansUnicode-117"/>
      <path d="M 9.625 -14.453125 
L 9.625 77.09375 
L 28.90625 77.09375 
L 28.90625 69.875 
L 18.0625 69.875 
L 18.0625 -7.234375 
L 28.90625 -7.234375 
L 28.90625 -14.453125 
z
" id="LucidaSansUnicode-91"/>
      <path d="M 30.203125 0 
L 22.296875 0 
L 22.296875 57 
Q 20.09375 56 15.75 53.75 
Q 11.40625 51.5 10.796875 51.203125 
L 10.796875 58.5 
L 28.796875 67.703125 
L 30.203125 67.203125 
z
" id="STIXGeneral-Regular-120803"/>
      <path d="M 9.625 0 
L 9.625 77.09375 
L 19.234375 77.09375 
L 19.234375 27.296875 
L 41.703125 53.03125 
L 52.046875 53.03125 
L 30.609375 28.265625 
L 56.5 0 
L 44.1875 0 
L 19.234375 27.203125 
L 19.234375 0 
z
" id="LucidaSansUnicode-107"/>
      <path d="M 9.8125 -17.625 
L 10.9375 -9.28125 
Q 19.28125 -13.234375 27.4375 -13.234375 
Q 43.65625 -13.234375 43.65625 4 
L 43.65625 12.359375 
Q 41.15625 7.078125 36.546875 4.140625 
Q 31.9375 1.21875 26.265625 1.21875 
Q 16.65625 1.21875 11.03125 8.125 
Q 5.421875 15.046875 5.421875 26.859375 
Q 5.421875 38.96875 11.8125 46.578125 
Q 18.21875 54.203125 28.375 54.203125 
Q 37.25 54.203125 43.65625 46.96875 
L 43.65625 53.03125 
L 53.328125 53.03125 
L 53.328125 14.453125 
Q 53.328125 2 52.03125 -3.984375 
Q 50.734375 -9.96875 47.171875 -13.765625 
Q 40.875 -20.453125 27.484375 -20.453125 
Q 18.3125 -20.453125 9.8125 -17.625 
z
M 43.65625 18.359375 
L 43.65625 40.375 
Q 37.3125 46.96875 29.828125 46.96875 
Q 23.1875 46.96875 19.421875 41.640625 
Q 15.671875 36.328125 15.671875 26.90625 
Q 15.671875 9.625 27.9375 9.625 
Q 36.28125 9.625 43.65625 18.359375 
z
" id="LucidaSansUnicode-103"/>
      <path d="M 22.90625 77.09375 
L 22.90625 -14.453125 
L 3.609375 -14.453125 
L 3.609375 -7.234375 
L 14.453125 -7.234375 
L 14.453125 69.875 
L 3.609375 69.875 
L 3.609375 77.09375 
z
" id="LucidaSansUnicode-93"/>
     </defs>
     <g style="fill:#262626;" transform="translate(14.445937 117.78)rotate(-90)scale(0.06 -0.06)">
      <use transform="translate(0 0.370312)" xlink:href="#LucidaSansUnicode-109"/>
      <use transform="translate(93.359375 0.370312)" xlink:href="#LucidaSansUnicode-97"/>
      <use transform="translate(148.583984 0.370312)" xlink:href="#LucidaSansUnicode-115"/>
      <use transform="translate(199.560547 0.370312)" xlink:href="#LucidaSansUnicode-115"/>
      <use transform="translate(250.537109 0.370312)" xlink:href="#LucidaSansUnicode-32"/>
      <use transform="translate(282.177734 0.370312)" xlink:href="#LucidaSansUnicode-111"/>
      <use transform="translate(343.603516 0.370312)" xlink:href="#LucidaSansUnicode-102"/>
      <use transform="translate(380.371094 0.370312)" xlink:href="#LucidaSansUnicode-32"/>
      <use transform="translate(412.011719 0.370312)" xlink:href="#LucidaSansUnicode-99"/>
      <use transform="translate(463.232422 0.370312)" xlink:href="#LucidaSansUnicode-97"/>
      <use transform="translate(518.457031 0.370312)" xlink:href="#LucidaSansUnicode-116"/>
      <use transform="translate(555.859375 0.370312)" xlink:href="#LucidaSansUnicode-116"/>
      <use transform="translate(593.261719 0.370312)" xlink:href="#LucidaSansUnicode-108"/>
      <use transform="translate(622.167969 0.370312)" xlink:href="#LucidaSansUnicode-101"/>
      <use transform="translate(677.880859 0.370312)" xlink:href="#LucidaSansUnicode-32"/>
      <use transform="translate(709.521484 0.370312)" xlink:href="#LucidaSansUnicode-112"/>
      <use transform="translate(772.460938 0.370312)" xlink:href="#LucidaSansUnicode-114"/>
      <use transform="translate(813.378906 0.370312)" xlink:href="#LucidaSansUnicode-111"/>
      <use transform="translate(874.804688 0.370312)" xlink:href="#LucidaSansUnicode-100"/>
      <use transform="translate(937.744141 0.370312)" xlink:href="#LucidaSansUnicode-117"/>
      <use transform="translate(999.804688 0.370312)" xlink:href="#LucidaSansUnicode-99"/>
      <use transform="translate(1051.025391 0.370312)" xlink:href="#LucidaSansUnicode-116"/>
      <use transform="translate(1088.427734 0.370312)" xlink:href="#LucidaSansUnicode-32"/>
      <use transform="translate(1120.068359 0.370312)" xlink:href="#LucidaSansUnicode-91"/>
      <use transform="translate(1152.587891 0.370312)" xlink:href="#LucidaSansUnicode-49"/>
      <use transform="translate(1215.820312 0.370312)" xlink:href="#LucidaSansUnicode-48"/>
      <use transform="translate(1279.84543 36.607813)scale(0.7)" xlink:href="#STIXGeneral-Regular-120803"/>
      <use transform="translate(1314.845419 36.607813)scale(0.7)" xlink:href="#STIXGeneral-Regular-120803"/>
      <use transform="translate(1352.110252 0.370312)" xlink:href="#LucidaSansUnicode-32"/>
      <use transform="translate(1383.750877 0.370312)" xlink:href="#LucidaSansUnicode-107"/>
      <use transform="translate(1442.198143 0.370312)" xlink:href="#LucidaSansUnicode-103"/>
      <use transform="translate(1504.551658 0.370312)" xlink:href="#LucidaSansUnicode-93"/>
     </g>
    </g>
   </g>
   <g id="LineCollection_1">
    <path clip-path="url(#p33ba42e900)" d="M 27 23.675294 
L 194.4 23.675294 
" style="fill:none;stroke:#000000;stroke-dasharray:2.775,1.2;stroke-dashoffset:0;stroke-width:0.75;"/>
   </g>
   <g id="line2d_1">
    <path clip-path="url(#p33ba42e900)" d="M 27 122.458982 
L 29.936842 122.264722 
L 32.873684 122.053369 
L 35.810526 121.99954 
L 38.747368 121.925114 
L 41.684211 121.708195 
L 44.621053 121.488859 
L 47.557895 121.271933 
L 50.494737 121.148648 
L 53.431579 121.094879 
L 56.368421 121.130208 
L 59.305263 121.070625 
L 62.242105 121.032204 
L 65.178947 120.647089 
L 68.115789 120.40606 
L 71.052632 120.104648 
L 73.989474 120.054112 
L 76.926316 119.989732 
L 79.863158 120.143816 
L 82.8 120.17174 
L 85.736842 120.122189 
L 88.673684 120.127187 
L 91.610526 119.96786 
L 94.547368 119.798497 
L 97.484211 119.693207 
L 100.421053 119.478756 
L 103.357895 119.484352 
L 106.294737 119.433232 
L 109.231579 119.405351 
L 112.168421 119.217228 
L 115.105263 119.150009 
L 118.042105 119.260424 
L 120.978947 119.336621 
L 123.915789 119.355196 
L 126.852632 119.264151 
L 129.789474 119.131115 
L 132.726316 118.997175 
L 135.663158 119.058109 
L 138.6 118.903883 
L 141.536842 118.858267 
L 144.473684 118.927191 
L 147.410526 118.793035 
L 150.347368 118.689924 
L 153.284211 118.48331 
L 156.221053 118.439576 
L 159.157895 118.278914 
L 162.094737 118.046427 
L 165.031579 118.036152 
L 167.968421 117.996828 
L 170.905263 117.986135 
L 173.842105 118.021991 
L 176.778947 117.949742 
L 179.715789 117.81801 
L 182.652632 117.753739 
L 185.589474 117.823794 
L 188.526316 117.741372 
L 191.463158 117.632966 
L 194.4 117.38504 
" style="fill:none;stroke:#d56c55;stroke-linecap:round;stroke-width:0.5;"/>
    <defs>
     <path d="M 0 0.5 
C 0.132602 0.5 0.25979 0.447317 0.353553 0.353553 
C 0.447317 0.25979 0.5 0.132602 0.5 0 
C 0.5 -0.132602 0.447317 -0.25979 0.353553 -0.353553 
C 0.25979 -0.447317 0.132602 -0.5 0 -0.5 
C -0.132602 -0.5 -0.25979 -0.447317 -0.353553 -0.353553 
C -0.447317 -0.25979 -0.5 -0.132602 -0.5 0 
C -0.5 0.132602 -0.447317 0.25979 -0.353553 0.353553 
C -0.25979 0.447317 -0.132602 0.5 0 0.5 
z
" id="me833a54ba6" style="stroke:#d56c55;"/>
    </defs>
    <g clip-path="url(#p33ba42e900)">
     <use style="fill:#d56c55;stroke:#d56c55;" x="27" xlink:href="#me833a54ba6" y="122.458982"/>
     <use style="fill:#d56c55;stroke:#d56c55;" x="29.936842" xlink:href="#me833a54ba6" y="122.264722"/>
     <use style="fill:#d56c55;stroke:#d56c55;" x="32.873684" xlink:href="#me833a54ba6" y="122.053369"/>
     <use style="fill:#d56c55;stroke:#d56c55;" x="35.810526" xlink:href="#me833a54ba6" y="121.99954"/>
     <use style="fill:#d56c55;stroke:#d56c55;" x="38.747368" xlink:href="#me833a54ba6" y="121.925114"/>
     <use style="fill:#d56c55;stroke:#d56c55;" x="41.684211" xlink:href="#me833a54ba6" y="121.708195"/>
     <use style="fill:#d56c55;stroke:#d56c55;" x="44.621053" xlink:href="#me833a54ba6" y="121.488859"/>
     <use style="fill:#d56c55;stroke:#d56c55;" x="47.557895" xlink:href="#me833a54ba6" y="121.271933"/>
     <use style="fill:#d56c55;stroke:#d56c55;" x="50.494737" xlink:href="#me833a54ba6" y="121.148648"/>
     <use style="fill:#d56c55;stroke:#d56c55;" x="53.431579" xlink:href="#me833a54ba6" y="121.094879"/>
     <use style="fill:#d56c55;stroke:#d56c55;" x="56.368421" xlink:href="#me833a54ba6" y="121.130208"/>
     <use style="fill:#d56c55;stroke:#d56c55;" x="59.305263" xlink:href="#me833a54ba6" y="121.070625"/>
     <use style="fill:#d56c55;stroke:#d56c55;" x="62.242105" xlink:href="#me833a54ba6" y="121.032204"/>
     <use style="fill:#d56c55;stroke:#d56c55;" x="65.178947" xlink:href="#me833a54ba6" y="120.647089"/>
     <use style="fill:#d56c55;stroke:#d56c55;" x="68.115789" xlink:href="#me833a54ba6" y="120.40606"/>
     <use style="fill:#d56c55;stroke:#d56c55;" x="71.052632" xlink:href="#me833a54ba6" y="120.104648"/>
     <use style="fill:#d56c55;stroke:#d56c55;" x="73.989474" xlink:href="#me833a54ba6" y="120.054112"/>
     <use style="fill:#d56c55;stroke:#d56c55;" x="76.926316" xlink:href="#me833a54ba6" y="119.989732"/>
     <use style="fill:#d56c55;stroke:#d56c55;" x="79.863158" xlink:href="#me833a54ba6" y="120.143816"/>
     <use style="fill:#d56c55;stroke:#d56c55;" x="82.8" xlink:href="#me833a54ba6" y="120.17174"/>
     <use style="fill:#d56c55;stroke:#d56c55;" x="85.736842" xlink:href="#me833a54ba6" y="120.122189"/>
     <use style="fill:#d56c55;stroke:#d56c55;" x="88.673684" xlink:href="#me833a54ba6" y="120.127187"/>
     <use style="fill:#d56c55;stroke:#d56c55;" x="91.610526" xlink:href="#me833a54ba6" y="119.96786"/>
     <use style="fill:#d56c55;stroke:#d56c55;" x="94.547368" xlink:href="#me833a54ba6" y="119.798497"/>
     <use style="fill:#d56c55;stroke:#d56c55;" x="97.484211" xlink:href="#me833a54ba6" y="119.693207"/>
     <use style="fill:#d56c55;stroke:#d56c55;" x="100.421053" xlink:href="#me833a54ba6" y="119.478756"/>
     <use style="fill:#d56c55;stroke:#d56c55;" x="103.357895" xlink:href="#me833a54ba6" y="119.484352"/>
     <use style="fill:#d56c55;stroke:#d56c55;" x="106.294737" xlink:href="#me833a54ba6" y="119.433232"/>
     <use style="fill:#d56c55;stroke:#d56c55;" x="109.231579" xlink:href="#me833a54ba6" y="119.405351"/>
     <use style="fill:#d56c55;stroke:#d56c55;" x="112.168421" xlink:href="#me833a54ba6" y="119.217228"/>
     <use style="fill:#d56c55;stroke:#d56c55;" x="115.105263" xlink:href="#me833a54ba6" y="119.150009"/>
     <use style="fill:#d56c55;stroke:#d56c55;" x="118.042105" xlink:href="#me833a54ba6" y="119.260424"/>
     <use style="fill:#d56c55;stroke:#d56c55;" x="120.978947" xlink:href="#me833a54ba6" y="119.336621"/>
     <use style="fill:#d56c55;stroke:#d56c55;" x="123.915789" xlink:href="#me833a54ba6" y="119.355196"/>
     <use style="fill:#d56c55;stroke:#d56c55;" x="126.852632" xlink:href="#me833a54ba6" y="119.264151"/>
     <use style="fill:#d56c55;stroke:#d56c55;" x="129.789474" xlink:href="#me833a54ba6" y="119.131115"/>
     <use style="fill:#d56c55;stroke:#d56c55;" x="132.726316" xlink:href="#me833a54ba6" y="118.997175"/>
     <use style="fill:#d56c55;stroke:#d56c55;" x="135.663158" xlink:href="#me833a54ba6" y="119.058109"/>
     <use style="fill:#d56c55;stroke:#d56c55;" x="138.6" xlink:href="#me833a54ba6" y="118.903883"/>
     <use style="fill:#d56c55;stroke:#d56c55;" x="141.536842" xlink:href="#me833a54ba6" y="118.858267"/>
     <use style="fill:#d56c55;stroke:#d56c55;" x="144.473684" xlink:href="#me833a54ba6" y="118.927191"/>
     <use style="fill:#d56c55;stroke:#d56c55;" x="147.410526" xlink:href="#me833a54ba6" y="118.793035"/>
     <use style="fill:#d56c55;stroke:#d56c55;" x="150.347368" xlink:href="#me833a54ba6" y="118.689924"/>
     <use style="fill:#d56c55;stroke:#d56c55;" x="153.284211" xlink:href="#me833a54ba6" y="118.48331"/>
     <use style="fill:#d56c55;stroke:#d56c55;" x="156.221053" xlink:href="#me833a54ba6" y="118.439576"/>
     <use style="fill:#d56c55;stroke:#d56c55;" x="159.157895" xlink:href="#me833a54ba6" y="118.278914"/>
     <use style="fill:#d56c55;stroke:#d56c55;" x="162.094737" xlink:href="#me833a54ba6" y="118.046427"/>
     <use style="fill:#d56c55;stroke:#d56c55;" x="165.031579" xlink:href="#me833a54ba6" y="118.036152"/>
     <use style="fill:#d56c55;stroke:#d56c55;" x="167.968421" xlink:href="#me833a54ba6" y="117.996828"/>
     <use style="fill:#d56c55;stroke:#d56c55;" x="170.905263" xlink:href="#me833a54ba6" y="117.986135"/>
     <use style="fill:#d56c55;stroke:#d56c55;" x="173.842105" xlink:href="#me833a54ba6" y="118.021991"/>
     <use style="fill:#d56c55;stroke:#d56c55;" x="176.778947" xlink:href="#me833a54ba6" y="117.949742"/>
     <use style="fill:#d56c55;stroke:#d56c55;" x="179.715789" xlink:href="#me833a54ba6" y="117.81801"/>
     <use style="fill:#d56c55;stroke:#d56c55;" x="182.652632" xlink:href="#me833a54ba6" y="117.753739"/>
     <use style="fill:#d56c55;stroke:#d56c55;" x="185.589474" xlink:href="#me833a54ba6" y="117.823794"/>
     <use style="fill:#d56c55;stroke:#d56c55;" x="188.526316" xlink:href="#me833a54ba6" y="117.741372"/>
     <use style="fill:#d56c55;stroke:#d56c55;" x="191.463158" xlink:href="#me833a54ba6" y="117.632966"/>
     <use style="fill:#d56c55;stroke:#d56c55;" x="194.4" xlink:href="#me833a54ba6" y="117.38504"/>
    </g>
   </g>
   <g id="line2d_2">
    <path clip-path="url(#p33ba42e900)" d="M 27 85.885311 
L 29.936842 85.576154 
L 32.873684 85.987923 
L 35.810526 85.375073 
L 38.747368 83.469537 
L 41.684211 82.396215 
L 44.621053 81.206524 
L 47.557895 80.267775 
L 50.494737 80.1742 
L 53.431579 80.045867 
L 56.368421 79.789781 
L 59.305263 78.536001 
L 62.242105 77.714639 
L 65.178947 76.812317 
L 68.115789 76.407393 
L 71.052632 75.486501 
L 73.989474 74.043442 
L 76.926316 73.343008 
L 79.863158 72.652003 
L 82.8 71.978802 
L 85.736842 71.770422 
L 88.673684 70.422789 
L 91.610526 68.475506 
L 94.547368 68.034505 
L 97.484211 67.316499 
L 100.421053 66.310156 
L 103.357895 66.424505 
L 106.294737 65.707868 
L 109.231579 65.019279 
L 112.168421 64.791932 
L 115.105263 66.008123 
L 118.042105 67.215184 
L 120.978947 67.258855 
L 123.915789 67.070166 
L 126.852632 66.738026 
L 129.789474 66.254065 
L 132.726316 66.078181 
L 135.663158 65.311922 
L 138.6 64.20297 
L 141.536842 63.342167 
L 144.473684 62.458684 
L 147.410526 60.828274 
L 150.347368 59.678891 
L 153.284211 58.530476 
L 156.221053 56.282709 
L 159.157895 54.202474 
L 162.094737 52.621312 
L 165.031579 51.020827 
L 167.968421 50.475284 
L 170.905263 49.0175 
L 173.842105 47.187288 
L 176.778947 45.387978 
L 179.715789 44.731239 
L 182.652632 42.190236 
L 185.589474 41.399141 
L 188.526316 40.866288 
L 191.463158 39.321933 
L 194.4 38.61252 
" style="fill:none;stroke:#ffffff;stroke-linecap:round;stroke-width:0.5;"/>
    <defs>
     <path d="M 0 0.5 
C 0.132602 0.5 0.25979 0.447317 0.353553 0.353553 
C 0.447317 0.25979 0.5 0.132602 0.5 0 
C 0.5 -0.132602 0.447317 -0.25979 0.353553 -0.353553 
C 0.25979 -0.447317 0.132602 -0.5 0 -0.5 
C -0.132602 -0.5 -0.25979 -0.447317 -0.353553 -0.353553 
C -0.447317 -0.25979 -0.5 -0.132602 -0.5 0 
C -0.5 0.132602 -0.447317 0.25979 -0.353553 0.353553 
C -0.25979 0.447317 -0.132602 0.5 0 0.5 
z
" id="mf28b9d05f8" style="stroke:#ffffff;"/>
    </defs>
    <g clip-path="url(#p33ba42e900)">
     <use style="fill:#ffffff;stroke:#ffffff;" x="27" xlink:href="#mf28b9d05f8" y="85.885311"/>
     <use style="fill:#ffffff;stroke:#ffffff;" x="29.936842" xlink:href="#mf28b9d05f8" y="85.576154"/>
     <use style="fill:#ffffff;stroke:#ffffff;" x="32.873684" xlink:href="#mf28b9d05f8" y="85.987923"/>
     <use style="fill:#ffffff;stroke:#ffffff;" x="35.810526" xlink:href="#mf28b9d05f8" y="85.375073"/>
     <use style="fill:#ffffff;stroke:#ffffff;" x="38.747368" xlink:href="#mf28b9d05f8" y="83.469537"/>
     <use style="fill:#ffffff;stroke:#ffffff;" x="41.684211" xlink:href="#mf28b9d05f8" y="82.396215"/>
     <use style="fill:#ffffff;stroke:#ffffff;" x="44.621053" xlink:href="#mf28b9d05f8" y="81.206524"/>
     <use style="fill:#ffffff;stroke:#ffffff;" x="47.557895" xlink:href="#mf28b9d05f8" y="80.267775"/>
     <use style="fill:#ffffff;stroke:#ffffff;" x="50.494737" xlink:href="#mf28b9d05f8" y="80.1742"/>
     <use style="fill:#ffffff;stroke:#ffffff;" x="53.431579" xlink:href="#mf28b9d05f8" y="80.045867"/>
     <use style="fill:#ffffff;stroke:#ffffff;" x="56.368421" xlink:href="#mf28b9d05f8" y="79.789781"/>
     <use style="fill:#ffffff;stroke:#ffffff;" x="59.305263" xlink:href="#mf28b9d05f8" y="78.536001"/>
     <use style="fill:#ffffff;stroke:#ffffff;" x="62.242105" xlink:href="#mf28b9d05f8" y="77.714639"/>
     <use style="fill:#ffffff;stroke:#ffffff;" x="65.178947" xlink:href="#mf28b9d05f8" y="76.812317"/>
     <use style="fill:#ffffff;stroke:#ffffff;" x="68.115789" xlink:href="#mf28b9d05f8" y="76.407393"/>
     <use style="fill:#ffffff;stroke:#ffffff;" x="71.052632" xlink:href="#mf28b9d05f8" y="75.486501"/>
     <use style="fill:#ffffff;stroke:#ffffff;" x="73.989474" xlink:href="#mf28b9d05f8" y="74.043442"/>
     <use style="fill:#ffffff;stroke:#ffffff;" x="76.926316" xlink:href="#mf28b9d05f8" y="73.343008"/>
     <use style="fill:#ffffff;stroke:#ffffff;" x="79.863158" xlink:href="#mf28b9d05f8" y="72.652003"/>
     <use style="fill:#ffffff;stroke:#ffffff;" x="82.8" xlink:href="#mf28b9d05f8" y="71.978802"/>
     <use style="fill:#ffffff;stroke:#ffffff;" x="85.736842" xlink:href="#mf28b9d05f8" y="71.770422"/>
     <use style="fill:#ffffff;stroke:#ffffff;" x="88.673684" xlink:href="#mf28b9d05f8" y="70.422789"/>
     <use style="fill:#ffffff;stroke:#ffffff;" x="91.610526" xlink:href="#mf28b9d05f8" y="68.475506"/>
     <use style="fill:#ffffff;stroke:#ffffff;" x="94.547368" xlink:href="#mf28b9d05f8" y="68.034505"/>
     <use style="fill:#ffffff;stroke:#ffffff;" x="97.484211" xlink:href="#mf28b9d05f8" y="67.316499"/>
     <use style="fill:#ffffff;stroke:#ffffff;" x="100.421053" xlink:href="#mf28b9d05f8" y="66.310156"/>
     <use style="fill:#ffffff;stroke:#ffffff;" x="103.357895" xlink:href="#mf28b9d05f8" y="66.424505"/>
     <use style="fill:#ffffff;stroke:#ffffff;" x="106.294737" xlink:href="#mf28b9d05f8" y="65.707868"/>
     <use style="fill:#ffffff;stroke:#ffffff;" x="109.231579" xlink:href="#mf28b9d05f8" y="65.019279"/>
     <use style="fill:#ffffff;stroke:#ffffff;" x="112.168421" xlink:href="#mf28b9d05f8" y="64.791932"/>
     <use style="fill:#ffffff;stroke:#ffffff;" x="115.105263" xlink:href="#mf28b9d05f8" y="66.008123"/>
     <use style="fill:#ffffff;stroke:#ffffff;" x="118.042105" xlink:href="#mf28b9d05f8" y="67.215184"/>
     <use style="fill:#ffffff;stroke:#ffffff;" x="120.978947" xlink:href="#mf28b9d05f8" y="67.258855"/>
     <use style="fill:#ffffff;stroke:#ffffff;" x="123.915789" xlink:href="#mf28b9d05f8" y="67.070166"/>
     <use style="fill:#ffffff;stroke:#ffffff;" x="126.852632" xlink:href="#mf28b9d05f8" y="66.738026"/>
     <use style="fill:#ffffff;stroke:#ffffff;" x="129.789474" xlink:href="#mf28b9d05f8" y="66.254065"/>
     <use style="fill:#ffffff;stroke:#ffffff;" x="132.726316" xlink:href="#mf28b9d05f8" y="66.078181"/>
     <use style="fill:#ffffff;stroke:#ffffff;" x="135.663158" xlink:href="#mf28b9d05f8" y="65.311922"/>
     <use style="fill:#ffffff;stroke:#ffffff;" x="138.6" xlink:href="#mf28b9d05f8" y="64.20297"/>
     <use style="fill:#ffffff;stroke:#ffffff;" x="141.536842" xlink:href="#mf28b9d05f8" y="63.342167"/>
     <use style="fill:#ffffff;stroke:#ffffff;" x="144.473684" xlink:href="#mf28b9d05f8" y="62.458684"/>
     <use style="fill:#ffffff;stroke:#ffffff;" x="147.410526" xlink:href="#mf28b9d05f8" y="60.828274"/>
     <use style="fill:#ffffff;stroke:#ffffff;" x="150.347368" xlink:href="#mf28b9d05f8" y="59.678891"/>
     <use style="fill:#ffffff;stroke:#ffffff;" x="153.284211" xlink:href="#mf28b9d05f8" y="58.530476"/>
     <use style="fill:#ffffff;stroke:#ffffff;" x="156.221053" xlink:href="#mf28b9d05f8" y="56.282709"/>
     <use style="fill:#ffffff;stroke:#ffffff;" x="159.157895" xlink:href="#mf28b9d05f8" y="54.202474"/>
     <use style="fill:#ffffff;stroke:#ffffff;" x="162.094737" xlink:href="#mf28b9d05f8" y="52.621312"/>
     <use style="fill:#ffffff;stroke:#ffffff;" x="165.031579" xlink:href="#mf28b9d05f8" y="51.020827"/>
     <use style="fill:#ffffff;stroke:#ffffff;" x="167.968421" xlink:href="#mf28b9d05f8" y="50.475284"/>
     <use style="fill:#ffffff;stroke:#ffffff;" x="170.905263" xlink:href="#mf28b9d05f8" y="49.0175"/>
     <use style="fill:#ffffff;stroke:#ffffff;" x="173.842105" xlink:href="#mf28b9d05f8" y="47.187288"/>
     <use style="fill:#ffffff;stroke:#ffffff;" x="176.778947" xlink:href="#mf28b9d05f8" y="45.387978"/>
     <use style="fill:#ffffff;stroke:#ffffff;" x="179.715789" xlink:href="#mf28b9d05f8" y="44.731239"/>
     <use style="fill:#ffffff;stroke:#ffffff;" x="182.652632" xlink:href="#mf28b9d05f8" y="42.190236"/>
     <use style="fill:#ffffff;stroke:#ffffff;" x="185.589474" xlink:href="#mf28b9d05f8" y="41.399141"/>
     <use style="fill:#ffffff;stroke:#ffffff;" x="188.526316" xlink:href="#mf28b9d05f8" y="40.866288"/>
     <use style="fill:#ffffff;stroke:#ffffff;" x="191.463158" xlink:href="#mf28b9d05f8" y="39.321933"/>
     <use style="fill:#ffffff;stroke:#ffffff;" x="194.4" xlink:href="#mf28b9d05f8" y="38.61252"/>
    </g>
   </g>
   <g id="line2d_3">
    <path clip-path="url(#p33ba42e900)" d="M 27 82.344292 
L 29.936842 81.840876 
L 32.873684 82.041293 
L 35.810526 81.374613 
L 38.747368 79.394652 
L 41.684211 78.10441 
L 44.621053 76.695383 
L 47.557895 75.539708 
L 50.494737 75.322848 
L 53.431579 75.140746 
L 56.368421 74.919989 
L 59.305263 73.606626 
L 62.242105 72.746842 
L 65.178947 71.459406 
L 68.115789 70.813453 
L 71.052632 69.591149 
L 73.989474 68.097554 
L 76.926316 67.33274 
L 79.863158 66.795819 
L 82.8 66.150542 
L 85.736842 65.892611 
L 88.673684 64.549976 
L 91.610526 62.443366 
L 94.547368 61.833001 
L 97.484211 61.009706 
L 100.421053 59.788912 
L 103.357895 59.908857 
L 106.294737 59.141099 
L 109.231579 58.42463 
L 112.168421 58.00916 
L 115.105263 59.158131 
L 118.042105 60.475608 
L 120.978947 60.595476 
L 123.915789 60.425363 
L 126.852632 60.002177 
L 129.789474 59.38518 
L 132.726316 59.075356 
L 135.663158 58.370031 
L 138.6 57.106853 
L 141.536842 56.200434 
L 144.473684 55.385875 
L 147.410526 53.621309 
L 150.347368 52.368815 
L 153.284211 51.013785 
L 156.221053 48.722285 
L 159.157895 46.481388 
L 162.094737 44.667739 
L 165.031579 43.056979 
L 167.968421 42.472112 
L 170.905263 41.003636 
L 173.842105 39.209279 
L 176.778947 37.337719 
L 179.715789 36.549249 
L 182.652632 33.943975 
L 185.589474 33.222935 
L 188.526316 32.60766 
L 191.463158 30.954899 
L 194.4 29.99756 
" style="fill:none;stroke:#7e9d90;stroke-linecap:round;stroke-width:0.5;"/>
    <defs>
     <path d="M 0 0.5 
C 0.132602 0.5 0.25979 0.447317 0.353553 0.353553 
C 0.447317 0.25979 0.5 0.132602 0.5 0 
C 0.5 -0.132602 0.447317 -0.25979 0.353553 -0.353553 
C 0.25979 -0.447317 0.132602 -0.5 0 -0.5 
C -0.132602 -0.5 -0.25979 -0.447317 -0.353553 -0.353553 
C -0.447317 -0.25979 -0.5 -0.132602 -0.5 0 
C -0.5 0.132602 -0.447317 0.25979 -0.353553 0.353553 
C -0.25979 0.447317 -0.132602 0.5 0 0.5 
z
" id="mba5e08ed66" style="stroke:#7e9d90;"/>
    </defs>
    <g clip-path="url(#p33ba42e900)">
     <use style="fill:#7e9d90;stroke:#7e9d90;" x="27" xlink:href="#mba5e08ed66" y="82.344292"/>
     <use style="fill:#7e9d90;stroke:#7e9d90;" x="29.936842" xlink:href="#mba5e08ed66" y="81.840876"/>
     <use style="fill:#7e9d90;stroke:#7e9d90;" x="32.873684" xlink:href="#mba5e08ed66" y="82.041293"/>
     <use style="fill:#7e9d90;stroke:#7e9d90;" x="35.810526" xlink:href="#mba5e08ed66" y="81.374613"/>
     <use style="fill:#7e9d90;stroke:#7e9d90;" x="38.747368" xlink:href="#mba5e08ed66" y="79.394652"/>
     <use style="fill:#7e9d90;stroke:#7e9d90;" x="41.684211" xlink:href="#mba5e08ed66" y="78.10441"/>
     <use style="fill:#7e9d90;stroke:#7e9d90;" x="44.621053" xlink:href="#mba5e08ed66" y="76.695383"/>
     <use style="fill:#7e9d90;stroke:#7e9d90;" x="47.557895" xlink:href="#mba5e08ed66" y="75.539708"/>
     <use style="fill:#7e9d90;stroke:#7e9d90;" x="50.494737" xlink:href="#mba5e08ed66" y="75.322848"/>
     <use style="fill:#7e9d90;stroke:#7e9d90;" x="53.431579" xlink:href="#mba5e08ed66" y="75.140746"/>
     <use style="fill:#7e9d90;stroke:#7e9d90;" x="56.368421" xlink:href="#mba5e08ed66" y="74.919989"/>
     <use style="fill:#7e9d90;stroke:#7e9d90;" x="59.305263" xlink:href="#mba5e08ed66" y="73.606626"/>
     <use style="fill:#7e9d90;stroke:#7e9d90;" x="62.242105" xlink:href="#mba5e08ed66" y="72.746842"/>
     <use style="fill:#7e9d90;stroke:#7e9d90;" x="65.178947" xlink:href="#mba5e08ed66" y="71.459406"/>
     <use style="fill:#7e9d90;stroke:#7e9d90;" x="68.115789" xlink:href="#mba5e08ed66" y="70.813453"/>
     <use style="fill:#7e9d90;stroke:#7e9d90;" x="71.052632" xlink:href="#mba5e08ed66" y="69.591149"/>
     <use style="fill:#7e9d90;stroke:#7e9d90;" x="73.989474" xlink:href="#mba5e08ed66" y="68.097554"/>
     <use style="fill:#7e9d90;stroke:#7e9d90;" x="76.926316" xlink:href="#mba5e08ed66" y="67.33274"/>
     <use style="fill:#7e9d90;stroke:#7e9d90;" x="79.863158" xlink:href="#mba5e08ed66" y="66.795819"/>
     <use style="fill:#7e9d90;stroke:#7e9d90;" x="82.8" xlink:href="#mba5e08ed66" y="66.150542"/>
     <use style="fill:#7e9d90;stroke:#7e9d90;" x="85.736842" xlink:href="#mba5e08ed66" y="65.892611"/>
     <use style="fill:#7e9d90;stroke:#7e9d90;" x="88.673684" xlink:href="#mba5e08ed66" y="64.549976"/>
     <use style="fill:#7e9d90;stroke:#7e9d90;" x="91.610526" xlink:href="#mba5e08ed66" y="62.443366"/>
     <use style="fill:#7e9d90;stroke:#7e9d90;" x="94.547368" xlink:href="#mba5e08ed66" y="61.833001"/>
     <use style="fill:#7e9d90;stroke:#7e9d90;" x="97.484211" xlink:href="#mba5e08ed66" y="61.009706"/>
     <use style="fill:#7e9d90;stroke:#7e9d90;" x="100.421053" xlink:href="#mba5e08ed66" y="59.788912"/>
     <use style="fill:#7e9d90;stroke:#7e9d90;" x="103.357895" xlink:href="#mba5e08ed66" y="59.908857"/>
     <use style="fill:#7e9d90;stroke:#7e9d90;" x="106.294737" xlink:href="#mba5e08ed66" y="59.141099"/>
     <use style="fill:#7e9d90;stroke:#7e9d90;" x="109.231579" xlink:href="#mba5e08ed66" y="58.42463"/>
     <use style="fill:#7e9d90;stroke:#7e9d90;" x="112.168421" xlink:href="#mba5e08ed66" y="58.00916"/>
     <use style="fill:#7e9d90;stroke:#7e9d90;" x="115.105263" xlink:href="#mba5e08ed66" y="59.158131"/>
     <use style="fill:#7e9d90;stroke:#7e9d90;" x="118.042105" xlink:href="#mba5e08ed66" y="60.475608"/>
     <use style="fill:#7e9d90;stroke:#7e9d90;" x="120.978947" xlink:href="#mba5e08ed66" y="60.595476"/>
     <use style="fill:#7e9d90;stroke:#7e9d90;" x="123.915789" xlink:href="#mba5e08ed66" y="60.425363"/>
     <use style="fill:#7e9d90;stroke:#7e9d90;" x="126.852632" xlink:href="#mba5e08ed66" y="60.002177"/>
     <use style="fill:#7e9d90;stroke:#7e9d90;" x="129.789474" xlink:href="#mba5e08ed66" y="59.38518"/>
     <use style="fill:#7e9d90;stroke:#7e9d90;" x="132.726316" xlink:href="#mba5e08ed66" y="59.075356"/>
     <use style="fill:#7e9d90;stroke:#7e9d90;" x="135.663158" xlink:href="#mba5e08ed66" y="58.370031"/>
     <use style="fill:#7e9d90;stroke:#7e9d90;" x="138.6" xlink:href="#mba5e08ed66" y="57.106853"/>
     <use style="fill:#7e9d90;stroke:#7e9d90;" x="141.536842" xlink:href="#mba5e08ed66" y="56.200434"/>
     <use style="fill:#7e9d90;stroke:#7e9d90;" x="144.473684" xlink:href="#mba5e08ed66" y="55.385875"/>
     <use style="fill:#7e9d90;stroke:#7e9d90;" x="147.410526" xlink:href="#mba5e08ed66" y="53.621309"/>
     <use style="fill:#7e9d90;stroke:#7e9d90;" x="150.347368" xlink:href="#mba5e08ed66" y="52.368815"/>
     <use style="fill:#7e9d90;stroke:#7e9d90;" x="153.284211" xlink:href="#mba5e08ed66" y="51.013785"/>
     <use style="fill:#7e9d90;stroke:#7e9d90;" x="156.221053" xlink:href="#mba5e08ed66" y="48.722285"/>
     <use style="fill:#7e9d90;stroke:#7e9d90;" x="159.157895" xlink:href="#mba5e08ed66" y="46.481388"/>
     <use style="fill:#7e9d90;stroke:#7e9d90;" x="162.094737" xlink:href="#mba5e08ed66" y="44.667739"/>
     <use style="fill:#7e9d90;stroke:#7e9d90;" x="165.031579" xlink:href="#mba5e08ed66" y="43.056979"/>
     <use style="fill:#7e9d90;stroke:#7e9d90;" x="167.968421" xlink:href="#mba5e08ed66" y="42.472112"/>
     <use style="fill:#7e9d90;stroke:#7e9d90;" x="170.905263" xlink:href="#mba5e08ed66" y="41.003636"/>
     <use style="fill:#7e9d90;stroke:#7e9d90;" x="173.842105" xlink:href="#mba5e08ed66" y="39.209279"/>
     <use style="fill:#7e9d90;stroke:#7e9d90;" x="176.778947" xlink:href="#mba5e08ed66" y="37.337719"/>
     <use style="fill:#7e9d90;stroke:#7e9d90;" x="179.715789" xlink:href="#mba5e08ed66" y="36.549249"/>
     <use style="fill:#7e9d90;stroke:#7e9d90;" x="182.652632" xlink:href="#mba5e08ed66" y="33.943975"/>
     <use style="fill:#7e9d90;stroke:#7e9d90;" x="185.589474" xlink:href="#mba5e08ed66" y="33.222935"/>
     <use style="fill:#7e9d90;stroke:#7e9d90;" x="188.526316" xlink:href="#mba5e08ed66" y="32.60766"/>
     <use style="fill:#7e9d90;stroke:#7e9d90;" x="191.463158" xlink:href="#mba5e08ed66" y="30.954899"/>
     <use style="fill:#7e9d90;stroke:#7e9d90;" x="194.4" xlink:href="#mba5e08ed66" y="29.99756"/>
    </g>
   </g>
   <g id="patch_3">
    <path d="M 27 126 
L 27 17.28 
" style="fill:none;stroke:#ffffff;stroke-linecap:square;stroke-linejoin:miter;stroke-width:0.8;"/>
   </g>
   <g id="patch_4">
    <path d="M 194.4 126 
L 194.4 17.28 
" style="fill:none;stroke:#ffffff;stroke-linecap:square;stroke-linejoin:miter;stroke-width:0.8;"/>
   </g>
   <g id="patch_5">
    <path d="M 27 126 
L 194.4 126 
" style="fill:none;stroke:#ffffff;stroke-linecap:square;stroke-linejoin:miter;stroke-width:0.8;"/>
   </g>
   <g id="patch_6">
    <path d="M 27 17.28 
L 194.4 17.28 
" style="fill:none;stroke:#ffffff;stroke-linecap:square;stroke-linejoin:miter;stroke-width:0.8;"/>
   </g>
   <g id="legend_1">
    <g id="patch_7">
     <path d="M 28.2 15.1056 
L 187.365 15.1056 
Q 188.565 15.1056 188.565 13.9056 
L 188.565 5.7231 
Q 188.565 4.5231 187.365 4.5231 
L 28.2 4.5231 
Q 27 4.5231 27 5.7231 
L 27 13.9056 
Q 27 15.1056 28.2 15.1056 
z
" style="fill:#e3dcd0;opacity:0.8;stroke:#cccccc;stroke-linejoin:miter;"/>
    </g>
    <g id="line2d_4">
     <path d="M 29.4 9.448725 
L 33.9 9.448725 
" style="fill:none;stroke:#d56c55;stroke-linecap:round;stroke-width:0.5;"/>
    </g>
    <g id="line2d_5">
     <g>
      <use style="fill:#d56c55;stroke:#d56c55;" x="31.65" xlink:href="#me833a54ba6" y="9.448725"/>
     </g>
    </g>
    <g id="text_13">
     <!-- beef -->
     <defs>
      <path d="M 9.625 -0.59375 
L 9.625 77.09375 
L 19.234375 77.09375 
L 19.234375 43.0625 
Q 25.140625 54.203125 36.96875 54.203125 
Q 46.53125 54.203125 52.015625 47.21875 
Q 57.515625 40.234375 57.515625 28.125 
Q 57.515625 14.9375 51.28125 6.859375 
Q 45.0625 -1.21875 34.90625 -1.21875 
Q 25.484375 -1.21875 19.234375 6 
L 18.0625 -0.59375 
z
M 19.234375 12.640625 
Q 26.65625 6 33.40625 6 
Q 40.046875 6 43.65625 11.546875 
Q 47.265625 17.09375 47.265625 27.15625 
Q 47.265625 45.796875 34.96875 45.796875 
Q 26.90625 45.796875 19.234375 37.0625 
z
" id="LucidaSansUnicode-98"/>
     </defs>
     <g style="fill:#262626;" transform="translate(38.7 11.548725)scale(0.06 -0.06)">
      <use xlink:href="#LucidaSansUnicode-98"/>
      <use x="62.939453" xlink:href="#LucidaSansUnicode-101"/>
      <use x="118.652344" xlink:href="#LucidaSansUnicode-101"/>
      <use x="174.365234" xlink:href="#LucidaSansUnicode-102"/>
     </g>
    </g>
    <g id="line2d_6">
     <path d="M 63.368437 9.448725 
L 67.868437 9.448725 
" style="fill:none;stroke:#ffffff;stroke-linecap:round;stroke-width:0.5;"/>
    </g>
    <g id="line2d_7">
     <g>
      <use style="fill:#ffffff;stroke:#ffffff;" x="65.618437" xlink:href="#mf28b9d05f8" y="9.448725"/>
     </g>
    </g>
    <g id="text_14">
     <!-- dairy (milk) -->
     <defs>
      <path d="M 9.625 0 
L 9.625 53.03125 
L 19.234375 53.03125 
L 19.234375 0 
z
M 9.625 62.640625 
L 9.625 72.265625 
L 19.234375 72.265625 
L 19.234375 62.640625 
z
" id="LucidaSansUnicode-105"/>
      <path d="M 28.90625 -7.8125 
L 28.90625 -14.453125 
Q 18.359375 -7.28125 12.171875 5.046875 
Q 6 17.390625 6 31.34375 
Q 6 45.265625 12.171875 57.59375 
Q 18.359375 69.921875 28.90625 77.09375 
L 28.90625 70.453125 
Q 21.734375 62.640625 18.671875 53.65625 
Q 15.625 44.671875 15.625 31.34375 
Q 15.625 17.96875 18.671875 8.984375 
Q 21.734375 0 28.90625 -7.8125 
z
" id="LucidaSansUnicode-40"/>
      <path d="M 3.609375 70.453125 
L 3.609375 77.09375 
Q 14.15625 69.921875 20.328125 57.59375 
Q 26.515625 45.265625 26.515625 31.34375 
Q 26.515625 17.390625 20.328125 5.046875 
Q 14.15625 -7.28125 3.609375 -14.453125 
L 3.609375 -7.8125 
Q 10.796875 0 13.8125 8.984375 
Q 16.84375 17.96875 16.84375 31.34375 
Q 16.84375 44.671875 13.8125 53.6875 
Q 10.796875 62.703125 3.609375 70.453125 
z
" id="LucidaSansUnicode-41"/>
     </defs>
     <g style="fill:#262626;" transform="translate(72.668437 11.548725)scale(0.06 -0.06)">
      <use xlink:href="#LucidaSansUnicode-100"/>
      <use x="62.939453" xlink:href="#LucidaSansUnicode-97"/>
      <use x="118.164062" xlink:href="#LucidaSansUnicode-105"/>
      <use x="147.070312" xlink:href="#LucidaSansUnicode-114"/>
      <use x="187.988281" xlink:href="#LucidaSansUnicode-121"/>
      <use x="240.234375" xlink:href="#LucidaSansUnicode-32"/>
      <use x="271.875" xlink:href="#LucidaSansUnicode-40"/>
      <use x="304.394531" xlink:href="#LucidaSansUnicode-109"/>
      <use x="397.753906" xlink:href="#LucidaSansUnicode-105"/>
      <use x="426.660156" xlink:href="#LucidaSansUnicode-108"/>
      <use x="455.566406" xlink:href="#LucidaSansUnicode-107"/>
      <use x="514.013672" xlink:href="#LucidaSansUnicode-41"/>
     </g>
    </g>
    <g id="line2d_8">
     <path d="M 117.460313 9.448725 
L 121.960313 9.448725 
" style="fill:none;stroke:#7e9d90;stroke-linecap:round;stroke-width:0.5;"/>
    </g>
    <g id="line2d_9">
     <g>
      <use style="fill:#7e9d90;stroke:#7e9d90;" x="119.710313" xlink:href="#mba5e08ed66" y="9.448725"/>
     </g>
    </g>
    <g id="text_15">
     <!-- total -->
     <g style="fill:#262626;" transform="translate(126.760313 11.548725)scale(0.06 -0.06)">
      <use xlink:href="#LucidaSansUnicode-116"/>
      <use x="37.402344" xlink:href="#LucidaSansUnicode-111"/>
      <use x="98.828125" xlink:href="#LucidaSansUnicode-116"/>
      <use x="136.230469" xlink:href="#LucidaSansUnicode-97"/>
      <use x="191.455078" xlink:href="#LucidaSansUnicode-108"/>
     </g>
    </g>
    <g id="line2d_10">
     <path d="M 151.981875 9.448725 
L 156.481875 9.448725 
" style="fill:none;stroke:#000000;stroke-dasharray:2.775,1.2;stroke-dashoffset:0;stroke-width:0.75;"/>
    </g>
    <g id="text_16">
     <!-- estimate -->
     <g style="fill:#262626;" transform="translate(161.281875 11.548725)scale(0.06 -0.06)">
      <use xlink:href="#LucidaSansUnicode-101"/>
      <use x="55.712891" xlink:href="#LucidaSansUnicode-115"/>
      <use x="106.689453" xlink:href="#LucidaSansUnicode-116"/>
      <use x="144.091797" xlink:href="#LucidaSansUnicode-105"/>
      <use x="172.998047" xlink:href="#LucidaSansUnicode-109"/>
      <use x="266.357422" xlink:href="#LucidaSansUnicode-97"/>
      <use x="321.582031" xlink:href="#LucidaSansUnicode-116"/>
      <use x="358.984375" xlink:href="#LucidaSansUnicode-101"/>
     </g>
    </g>
   </g>
  </g>
 </g>
 <defs>
  <clipPath id="p33ba42e900">
   <rect height="108.72" width="167.4" x="27" y="17.28"/>
  </clipPath>
 </defs>
</svg>
