<?xml version="1.0" encoding="utf-8" standalone="no"?>
<!DOCTYPE svg PUBLIC "-//W3C//DTD SVG 1.1//EN"
  "http://www.w3.org/Graphics/SVG/1.1/DTD/svg11.dtd">
<!-- Created with matplotlib (https://matplotlib.org/) -->
<svg height="144pt" version="1.1" viewBox="0 0 216 144" width="216pt" xmlns="http://www.w3.org/2000/svg" xmlns:xlink="http://www.w3.org/1999/xlink">
 <defs>
  <style type="text/css">
*{stroke-linecap:butt;stroke-linejoin:round;}
  </style>
 </defs>
 <g id="figure_1">
  <g id="patch_1">
   <path d="M 0 144 
L 216 144 
L 216 0 
L 0 0 
z
" style="fill:#ffffff;"/>
  </g>
  <g id="axes_1">
   <g id="patch_2">
    <path d="M 27 126 
L 194.4 126 
L 194.4 17.28 
L 27 17.28 
z
" style="fill:#e3dcd0;"/>
   </g>
   <g id="matplotlib.axis_1">
    <g id="xtick_1">
     <g id="text_1">
      <!-- 1970 -->
      <defs>
       <path d="M 26.171875 0 
L 26.171875 65.046875 
L 14.75 65.046875 
L 14.75 71.09375 
L 35.84375 72.90625 
L 35.84375 0 
z
" id="LucidaSansUnicode-49"/>
       <path d="M 11.375 0.4375 
L 11.375 8.59375 
Q 20.5625 5.421875 27 5.421875 
Q 35.984375 5.421875 41.03125 13.0625 
Q 46.09375 20.703125 46.09375 34.328125 
Q 38.765625 25.296875 29.4375 25.296875 
Q 20.3125 25.296875 13.96875 32 
Q 7.625 38.71875 7.625 48.390625 
Q 7.625 59.46875 14.375 66.765625 
Q 21.140625 74.078125 31.390625 74.078125 
Q 43.171875 74.078125 49.953125 64.625 
Q 56.734375 55.171875 56.734375 38.765625 
Q 56.734375 28.328125 53.46875 19.109375 
Q 50.203125 9.90625 44.671875 4.78125 
Q 37.59375 -1.8125 26.078125 -1.8125 
Q 20.40625 -1.8125 11.375 0.4375 
z
M 17.234375 50.046875 
Q 17.234375 41.796875 20.984375 37.015625 
Q 24.75 32.234375 31.15625 32.234375 
Q 37.3125 32.234375 41.625 36.375 
Q 45.953125 40.53125 45.953125 46.390625 
Q 45.953125 55.609375 41.765625 61.25 
Q 37.59375 66.890625 30.8125 66.890625 
Q 24.46875 66.890625 20.84375 62.390625 
Q 17.234375 57.90625 17.234375 50.046875 
z
" id="LucidaSansUnicode-57"/>
       <path d="M 15.046875 0 
Q 16.453125 8.453125 19.0625 14.59375 
Q 21.6875 20.75 28.328125 31.5 
L 48.046875 63.234375 
L 10.84375 63.234375 
L 10.84375 72.265625 
L 57.234375 72.265625 
L 57.234375 63.234375 
Q 29.4375 22.265625 26.125 0 
z
" id="LucidaSansUnicode-55"/>
       <path d="M 31.640625 -1.8125 
Q 20.265625 -1.8125 13.296875 8.609375 
Q 6.34375 19.046875 6.34375 36.140625 
Q 6.34375 53.21875 13.296875 63.640625 
Q 20.265625 74.078125 31.640625 74.078125 
Q 43.0625 74.078125 50 63.671875 
Q 56.9375 53.265625 56.9375 36.140625 
Q 56.9375 19.046875 50 8.609375 
Q 43.0625 -1.8125 31.640625 -1.8125 
z
M 31.640625 5.421875 
Q 46.734375 5.421875 46.734375 36.140625 
Q 46.734375 66.84375 31.640625 66.84375 
Q 16.609375 66.84375 16.609375 36.140625 
Q 16.609375 5.421875 31.640625 5.421875 
z
" id="LucidaSansUnicode-48"/>
      </defs>
      <g transform="translate(45.843454 134.125625)scale(0.06 -0.06)">
       <use xlink:href="#LucidaSansUnicode-49"/>
       <use x="63.232422" xlink:href="#LucidaSansUnicode-57"/>
       <use x="126.464844" xlink:href="#LucidaSansUnicode-55"/>
       <use x="189.697266" xlink:href="#LucidaSansUnicode-48"/>
      </g>
     </g>
    </g>
    <g id="xtick_2">
     <g id="text_2">
      <!-- 1980 -->
      <defs>
       <path d="M 23 39.359375 
Q 17.046875 43.5 14.71875 47.0625 
Q 12.40625 50.640625 12.40625 55.671875 
Q 12.40625 63.875 18.40625 69 
Q 24.421875 74.125 34.078125 74.125 
Q 43.015625 74.125 48.5625 69.78125 
Q 54.109375 65.4375 54.109375 58.5 
Q 54.109375 48 40.625 39.359375 
Q 56.984375 31.34375 56.984375 18.703125 
Q 56.984375 9.671875 50.140625 3.921875 
Q 43.3125 -1.8125 32.5625 -1.8125 
Q 21.828125 -1.8125 15.234375 3.578125 
Q 8.640625 8.984375 8.640625 17.78125 
Q 8.640625 30.765625 23 39.359375 
z
M 35.25 42.390625 
Q 45.359375 49.03125 45.359375 57.171875 
Q 45.359375 61.53125 41.96875 64.1875 
Q 38.578125 66.84375 33.109375 66.84375 
Q 27.78125 66.84375 24.453125 64.234375 
Q 21.140625 61.625 21.140625 57.46875 
Q 21.140625 53.421875 24.140625 50.1875 
Q 27.15625 46.96875 35.25 42.390625 
z
M 28.21875 35.453125 
Q 22.40625 30.953125 20.328125 27.609375 
Q 18.265625 24.265625 18.265625 19.28125 
Q 18.265625 13.09375 22.265625 9.25 
Q 26.265625 5.421875 32.8125 5.421875 
Q 39.109375 5.421875 43.09375 8.6875 
Q 47.078125 11.96875 47.078125 17.1875 
Q 47.078125 21.390625 44.609375 24.296875 
Q 42.140625 27.203125 35.0625 31.390625 
z
" id="LucidaSansUnicode-56"/>
      </defs>
      <g transform="translate(75.211875 134.125625)scale(0.06 -0.06)">
       <use xlink:href="#LucidaSansUnicode-49"/>
       <use x="63.232422" xlink:href="#LucidaSansUnicode-57"/>
       <use x="126.464844" xlink:href="#LucidaSansUnicode-56"/>
       <use x="189.697266" xlink:href="#LucidaSansUnicode-48"/>
      </g>
     </g>
    </g>
    <g id="xtick_3">
     <g id="text_3">
      <!-- 1990 -->
      <g transform="translate(104.580296 134.125625)scale(0.06 -0.06)">
       <use xlink:href="#LucidaSansUnicode-49"/>
       <use x="63.232422" xlink:href="#LucidaSansUnicode-57"/>
       <use x="126.464844" xlink:href="#LucidaSansUnicode-57"/>
       <use x="189.697266" xlink:href="#LucidaSansUnicode-48"/>
      </g>
     </g>
    </g>
    <g id="xtick_4">
     <g id="text_4">
      <!-- 2000 -->
      <defs>
       <path d="M 8.296875 0 
L 8.296875 8.453125 
Q 12.5 18.265625 25.296875 29.828125 
L 30.8125 34.765625 
Q 41.453125 44.390625 41.453125 53.859375 
Q 41.453125 59.90625 37.8125 63.375 
Q 34.1875 66.84375 27.78125 66.84375 
Q 20.3125 66.84375 10.109375 61.03125 
L 10.109375 69.53125 
Q 19.734375 74.078125 29.25 74.078125 
Q 39.40625 74.078125 45.53125 68.609375 
Q 51.65625 63.140625 51.65625 54.109375 
Q 51.65625 47.609375 48.546875 42.578125 
Q 45.453125 37.546875 37.015625 30.375 
L 33.296875 27.203125 
Q 21.734375 17.390625 19.921875 8.453125 
L 51.3125 8.453125 
L 51.3125 0 
z
" id="LucidaSansUnicode-50"/>
      </defs>
      <g transform="translate(133.948717 134.125625)scale(0.06 -0.06)">
       <use xlink:href="#LucidaSansUnicode-50"/>
       <use x="63.232422" xlink:href="#LucidaSansUnicode-48"/>
       <use x="126.464844" xlink:href="#LucidaSansUnicode-48"/>
       <use x="189.697266" xlink:href="#LucidaSansUnicode-48"/>
      </g>
     </g>
    </g>
    <g id="xtick_5">
     <g id="text_5">
      <!-- 2010 -->
      <g transform="translate(163.317138 134.125625)scale(0.06 -0.06)">
       <use xlink:href="#LucidaSansUnicode-50"/>
       <use x="63.232422" xlink:href="#LucidaSansUnicode-48"/>
       <use x="126.464844" xlink:href="#LucidaSansUnicode-49"/>
       <use x="189.697266" xlink:href="#LucidaSansUnicode-48"/>
      </g>
     </g>
    </g>
    <g id="text_6">
     <!-- year -->
     <defs>
      <path d="M 12.703125 -19.28125 
L 21.296875 0 
L 0.78125 53.03125 
L 11.1875 53.03125 
L 26.375 13.09375 
L 42.578125 53.03125 
L 51.65625 53.03125 
L 22.703125 -19.28125 
z
" id="LucidaSansUnicode-121"/>
      <path d="M 48.484375 1.703125 
Q 38.8125 -1.21875 31.9375 -1.21875 
Q 20.171875 -1.21875 12.796875 6.5625 
Q 5.421875 14.359375 5.421875 26.765625 
Q 5.421875 38.8125 11.9375 46.53125 
Q 18.453125 54.25 28.609375 54.25 
Q 38.234375 54.25 43.484375 47.390625 
Q 48.734375 40.53125 48.734375 27.9375 
L 48.6875 25 
L 15.234375 25 
Q 17.328125 6.109375 33.734375 6.109375 
Q 39.75 6.109375 48.484375 9.328125 
z
M 15.671875 32.234375 
L 39.0625 32.234375 
Q 39.0625 47.015625 28.03125 47.015625 
Q 16.9375 47.015625 15.671875 32.234375 
z
" id="LucidaSansUnicode-101"/>
      <path d="M 36.96875 6.734375 
Q 28.328125 -1.21875 20.3125 -1.21875 
Q 13.71875 -1.21875 9.375 2.90625 
Q 5.03125 7.03125 5.03125 13.328125 
Q 5.03125 22.015625 12.328125 26.671875 
Q 19.625 31.34375 33.296875 31.34375 
L 35.546875 31.34375 
L 35.546875 37.75 
Q 35.546875 46.96875 25.921875 46.96875 
Q 18.453125 46.96875 9.625 42.28125 
L 9.625 50.25 
Q 19.34375 54.203125 27.9375 54.203125 
Q 36.765625 54.203125 40.96875 50.171875 
Q 45.171875 46.140625 45.171875 37.75 
L 45.171875 13.71875 
Q 45.171875 5.46875 50.25 5.46875 
Q 50.875 5.46875 52.09375 5.671875 
L 52.78125 0.34375 
Q 49.515625 -1.21875 45.5625 -1.21875 
Q 38.8125 -1.21875 36.96875 6.734375 
z
M 35.546875 11.96875 
L 35.546875 25.6875 
L 32.46875 25.78125 
Q 24.46875 25.78125 19.5625 22.796875 
Q 14.65625 19.828125 14.65625 14.890625 
Q 14.65625 11.421875 17.09375 9.03125 
Q 19.53125 6.640625 23.046875 6.640625 
Q 29.046875 6.640625 35.546875 11.96875 
z
" id="LucidaSansUnicode-97"/>
      <path d="M 9.625 0 
L 9.625 53.03125 
L 19.234375 53.03125 
L 19.234375 43.0625 
Q 24.953125 54.203125 35.84375 54.203125 
Q 37.3125 54.203125 38.921875 53.953125 
L 38.921875 44.96875 
Q 36.421875 45.796875 34.515625 45.796875 
Q 25.390625 45.796875 19.234375 34.96875 
L 19.234375 0 
z
" id="LucidaSansUnicode-114"/>
     </defs>
     <g style="fill:#262626;" transform="translate(104.576719 143.908125)scale(0.06 -0.06)">
      <use xlink:href="#LucidaSansUnicode-121"/>
      <use x="52.246094" xlink:href="#LucidaSansUnicode-101"/>
      <use x="107.958984" xlink:href="#LucidaSansUnicode-97"/>
      <use x="163.183594" xlink:href="#LucidaSansUnicode-114"/>
     </g>
    </g>
   </g>
   <g id="matplotlib.axis_2">
    <g id="ytick_1">
     <g id="text_7">
      <!-- 0 -->
      <g transform="translate(19.705938 128.312813)scale(0.06 -0.06)">
       <use xlink:href="#LucidaSansUnicode-48"/>
      </g>
     </g>
    </g>
    <g id="ytick_2">
     <g id="text_8">
      <!-- 5 -->
      <defs>
       <path d="M 12.15625 -0.296875 
L 12.15625 8.296875 
Q 19.34375 5.421875 25.828125 5.421875 
Q 32.953125 5.421875 37.03125 9.609375 
Q 41.109375 13.8125 41.109375 21.1875 
Q 41.109375 29.109375 35.34375 33.28125 
Q 29.59375 37.453125 18.703125 37.453125 
Q 16.15625 37.453125 13.375 37.109375 
L 13.375 72.265625 
L 49.953125 72.265625 
L 49.953125 63.875 
L 21.828125 63.875 
L 21.828125 44.828125 
Q 35.75 44.828125 43.5625 38.421875 
Q 51.375 32.03125 51.375 20.703125 
Q 51.375 10.15625 44.265625 4.171875 
Q 37.15625 -1.8125 24.65625 -1.8125 
Q 19.09375 -1.8125 12.15625 -0.296875 
z
" id="LucidaSansUnicode-53"/>
      </defs>
      <g transform="translate(19.705938 108.898527)scale(0.06 -0.06)">
       <use xlink:href="#LucidaSansUnicode-53"/>
      </g>
     </g>
    </g>
    <g id="ytick_3">
     <g id="text_9">
      <!-- 10 -->
      <g transform="translate(15.911875 89.484241)scale(0.06 -0.06)">
       <use xlink:href="#LucidaSansUnicode-49"/>
       <use x="63.232422" xlink:href="#LucidaSansUnicode-48"/>
      </g>
     </g>
    </g>
    <g id="ytick_4">
     <g id="text_10">
      <!-- 15 -->
      <g transform="translate(15.911875 70.069955)scale(0.06 -0.06)">
       <use xlink:href="#LucidaSansUnicode-49"/>
       <use x="63.232422" xlink:href="#LucidaSansUnicode-53"/>
      </g>
     </g>
    </g>
    <g id="ytick_5">
     <g id="text_11">
      <!-- 20 -->
      <g transform="translate(15.911875 50.65567)scale(0.06 -0.06)">
       <use xlink:href="#LucidaSansUnicode-50"/>
       <use x="63.232422" xlink:href="#LucidaSansUnicode-48"/>
      </g>
     </g>
    </g>
    <g id="ytick_6">
     <g id="text_12">
      <!-- 25 -->
      <g transform="translate(15.911875 31.241384)scale(0.06 -0.06)">
       <use xlink:href="#LucidaSansUnicode-50"/>
       <use x="63.232422" xlink:href="#LucidaSansUnicode-53"/>
      </g>
     </g>
    </g>
    <g id="text_13">
     <!-- standing population [billions] -->
     <defs>
      <path d="M 7.671875 1.859375 
L 7.671875 10.6875 
Q 17.09375 6 24.078125 6 
Q 28.21875 6 30.953125 8.25 
Q 33.6875 10.5 33.6875 13.875 
Q 33.6875 18.796875 26.03125 22.015625 
L 20.40625 24.421875 
Q 7.953125 29.59375 7.953125 39.3125 
Q 7.953125 46.234375 12.859375 50.21875 
Q 17.78125 54.203125 26.3125 54.203125 
Q 30.765625 54.203125 37.3125 52.984375 
L 39.3125 52.59375 
L 39.3125 44.578125 
Q 31.25 46.96875 26.46875 46.96875 
Q 22.265625 46.96875 19.75 45.140625 
Q 17.234375 43.3125 17.234375 40.234375 
Q 17.234375 35.890625 24.265625 32.90625 
L 28.90625 30.953125 
Q 36.765625 27.640625 40.03125 23.953125 
Q 43.3125 20.265625 43.3125 14.75 
Q 43.3125 7.765625 37.796875 3.265625 
Q 32.28125 -1.21875 23.6875 -1.21875 
Q 17.09375 -1.21875 7.671875 1.859375 
z
" id="LucidaSansUnicode-115"/>
      <path d="M 33.25 0 
Q 28.8125 -1.21875 25.53125 -1.21875 
Q 18.21875 -1.21875 14.109375 2.96875 
Q 10.015625 7.171875 10.015625 14.65625 
L 10.015625 45.796875 
L 3.375 45.796875 
L 3.375 53.03125 
L 10.015625 53.03125 
L 10.015625 62.640625 
L 19.625 63.578125 
L 19.625 53.03125 
L 33.5 53.03125 
L 33.5 45.796875 
L 19.625 45.796875 
L 19.625 16.40625 
Q 19.625 6 28.609375 6 
Q 30.515625 6 33.25 6.640625 
z
" id="LucidaSansUnicode-116"/>
      <path d="M 9.625 0 
L 9.625 53.03125 
L 19.234375 53.03125 
L 19.234375 43.0625 
Q 26.859375 54.203125 37.890625 54.203125 
Q 44.828125 54.203125 48.90625 49.828125 
Q 52.984375 45.453125 52.984375 38.09375 
L 52.984375 0 
L 43.359375 0 
L 43.359375 34.96875 
Q 43.359375 40.875 41.625 43.390625 
Q 39.890625 45.90625 35.890625 45.90625 
Q 27.046875 45.90625 19.234375 34.328125 
L 19.234375 0 
z
" id="LucidaSansUnicode-110"/>
      <path d="M 43.65625 0 
L 43.65625 9.96875 
Q 37.796875 -1.21875 25.984375 -1.21875 
Q 16.40625 -1.21875 10.90625 5.765625 
Q 5.421875 12.75 5.421875 24.859375 
Q 5.421875 38.09375 11.640625 46.140625 
Q 17.875 54.203125 28.03125 54.203125 
Q 37.453125 54.203125 43.65625 46.96875 
L 43.65625 77.09375 
L 53.328125 77.09375 
L 53.328125 0 
z
M 43.65625 40.375 
Q 36.1875 46.96875 29.5 46.96875 
Q 22.90625 46.96875 19.28125 41.453125 
Q 15.671875 35.9375 15.671875 25.828125 
Q 15.671875 7.234375 27.984375 7.234375 
Q 35.984375 7.234375 43.65625 15.96875 
z
" id="LucidaSansUnicode-100"/>
      <path d="M 9.625 0 
L 9.625 53.03125 
L 19.234375 53.03125 
L 19.234375 0 
z
M 9.625 62.640625 
L 9.625 72.265625 
L 19.234375 72.265625 
L 19.234375 62.640625 
z
" id="LucidaSansUnicode-105"/>
      <path d="M 9.8125 -17.625 
L 10.9375 -9.28125 
Q 19.28125 -13.234375 27.4375 -13.234375 
Q 43.65625 -13.234375 43.65625 4 
L 43.65625 12.359375 
Q 41.15625 7.078125 36.546875 4.140625 
Q 31.9375 1.21875 26.265625 1.21875 
Q 16.65625 1.21875 11.03125 8.125 
Q 5.421875 15.046875 5.421875 26.859375 
Q 5.421875 38.96875 11.8125 46.578125 
Q 18.21875 54.203125 28.375 54.203125 
Q 37.25 54.203125 43.65625 46.96875 
L 43.65625 53.03125 
L 53.328125 53.03125 
L 53.328125 14.453125 
Q 53.328125 2 52.03125 -3.984375 
Q 50.734375 -9.96875 47.171875 -13.765625 
Q 40.875 -20.453125 27.484375 -20.453125 
Q 18.3125 -20.453125 9.8125 -17.625 
z
M 43.65625 18.359375 
L 43.65625 40.375 
Q 37.3125 46.96875 29.828125 46.96875 
Q 23.1875 46.96875 19.421875 41.640625 
Q 15.671875 36.328125 15.671875 26.90625 
Q 15.671875 9.625 27.9375 9.625 
Q 36.28125 9.625 43.65625 18.359375 
z
" id="LucidaSansUnicode-103"/>
      <path id="LucidaSansUnicode-32"/>
      <path d="M 9.625 -19.28125 
L 9.625 53.03125 
L 19.234375 53.03125 
L 19.234375 43.0625 
Q 25.140625 54.203125 36.96875 54.203125 
Q 46.53125 54.203125 52.015625 47.21875 
Q 57.515625 40.234375 57.515625 28.125 
Q 57.515625 14.9375 51.28125 6.859375 
Q 45.0625 -1.21875 34.90625 -1.21875 
Q 25.484375 -1.21875 19.234375 6 
L 19.234375 -19.28125 
z
M 19.234375 12.640625 
Q 26.65625 6 33.40625 6 
Q 40.046875 6 43.65625 11.546875 
Q 47.265625 17.09375 47.265625 27.15625 
Q 47.265625 45.796875 34.96875 45.796875 
Q 26.90625 45.796875 19.234375 37.0625 
z
" id="LucidaSansUnicode-112"/>
      <path d="M 30.71875 -1.21875 
Q 19.046875 -1.21875 12.234375 6.25 
Q 5.421875 13.71875 5.421875 26.515625 
Q 5.421875 39.3125 12.234375 46.75 
Q 19.046875 54.203125 30.71875 54.203125 
Q 42.390625 54.203125 49.1875 46.75 
Q 56 39.3125 56 26.515625 
Q 56 13.71875 49.1875 6.25 
Q 42.390625 -1.21875 30.71875 -1.21875 
z
M 30.71875 6 
Q 37.890625 6 41.84375 11.375 
Q 45.796875 16.75 45.796875 26.515625 
Q 45.796875 36.28125 41.84375 41.625 
Q 37.890625 46.96875 30.71875 46.96875 
Q 23.53125 46.96875 19.59375 41.625 
Q 15.671875 36.28125 15.671875 26.515625 
Q 15.671875 16.75 19.59375 11.375 
Q 23.53125 6 30.71875 6 
z
" id="LucidaSansUnicode-111"/>
      <path d="M 42.78125 0 
L 42.78125 9.96875 
Q 35.109375 -1.21875 24.171875 -1.21875 
Q 17.234375 -1.21875 13.125 3.140625 
Q 9.03125 7.515625 9.03125 14.9375 
L 9.03125 53.03125 
L 18.65625 53.03125 
L 18.65625 18.0625 
Q 18.65625 12.109375 20.390625 9.59375 
Q 22.125 7.078125 26.171875 7.078125 
Q 34.96875 7.078125 42.78125 18.65625 
L 42.78125 53.03125 
L 52.390625 53.03125 
L 52.390625 0 
z
" id="LucidaSansUnicode-117"/>
      <path d="M 9.625 0 
L 9.625 77.09375 
L 19.234375 77.09375 
L 19.234375 0 
z
" id="LucidaSansUnicode-108"/>
      <path d="M 9.625 -14.453125 
L 9.625 77.09375 
L 28.90625 77.09375 
L 28.90625 69.875 
L 18.0625 69.875 
L 18.0625 -7.234375 
L 28.90625 -7.234375 
L 28.90625 -14.453125 
z
" id="LucidaSansUnicode-91"/>
      <path d="M 9.625 -0.59375 
L 9.625 77.09375 
L 19.234375 77.09375 
L 19.234375 43.0625 
Q 25.140625 54.203125 36.96875 54.203125 
Q 46.53125 54.203125 52.015625 47.21875 
Q 57.515625 40.234375 57.515625 28.125 
Q 57.515625 14.9375 51.28125 6.859375 
Q 45.0625 -1.21875 34.90625 -1.21875 
Q 25.484375 -1.21875 19.234375 6 
L 18.0625 -0.59375 
z
M 19.234375 12.640625 
Q 26.65625 6 33.40625 6 
Q 40.046875 6 43.65625 11.546875 
Q 47.265625 17.09375 47.265625 27.15625 
Q 47.265625 45.796875 34.96875 45.796875 
Q 26.90625 45.796875 19.234375 37.0625 
z
" id="LucidaSansUnicode-98"/>
      <path d="M 22.90625 77.09375 
L 22.90625 -14.453125 
L 3.609375 -14.453125 
L 3.609375 -7.234375 
L 14.453125 -7.234375 
L 14.453125 69.875 
L 3.609375 69.875 
L 3.609375 77.09375 
z
" id="LucidaSansUnicode-93"/>
     </defs>
     <g style="fill:#262626;" transform="translate(10.684687 114.436875)rotate(-90)scale(0.06 -0.06)">
      <use xlink:href="#LucidaSansUnicode-115"/>
      <use x="50.976562" xlink:href="#LucidaSansUnicode-116"/>
      <use x="88.378906" xlink:href="#LucidaSansUnicode-97"/>
      <use x="143.603516" xlink:href="#LucidaSansUnicode-110"/>
      <use x="205.664062" xlink:href="#LucidaSansUnicode-100"/>
      <use x="268.603516" xlink:href="#LucidaSansUnicode-105"/>
      <use x="297.509766" xlink:href="#LucidaSansUnicode-110"/>
      <use x="359.570312" xlink:href="#LucidaSansUnicode-103"/>
      <use x="421.923828" xlink:href="#LucidaSansUnicode-32"/>
      <use x="453.564453" xlink:href="#LucidaSansUnicode-112"/>
      <use x="516.503906" xlink:href="#LucidaSansUnicode-111"/>
      <use x="577.929688" xlink:href="#LucidaSansUnicode-112"/>
      <use x="640.869141" xlink:href="#LucidaSansUnicode-117"/>
      <use x="702.929688" xlink:href="#LucidaSansUnicode-108"/>
      <use x="731.835938" xlink:href="#LucidaSansUnicode-97"/>
      <use x="787.060547" xlink:href="#LucidaSansUnicode-116"/>
      <use x="824.462891" xlink:href="#LucidaSansUnicode-105"/>
      <use x="853.369141" xlink:href="#LucidaSansUnicode-111"/>
      <use x="914.794922" xlink:href="#LucidaSansUnicode-110"/>
      <use x="976.855469" xlink:href="#LucidaSansUnicode-32"/>
      <use x="1008.496094" xlink:href="#LucidaSansUnicode-91"/>
      <use x="1041.015625" xlink:href="#LucidaSansUnicode-98"/>
      <use x="1103.955078" xlink:href="#LucidaSansUnicode-105"/>
      <use x="1132.861328" xlink:href="#LucidaSansUnicode-108"/>
      <use x="1161.767578" xlink:href="#LucidaSansUnicode-108"/>
      <use x="1190.673828" xlink:href="#LucidaSansUnicode-105"/>
      <use x="1219.580078" xlink:href="#LucidaSansUnicode-111"/>
      <use x="1281.005859" xlink:href="#LucidaSansUnicode-110"/>
      <use x="1343.066406" xlink:href="#LucidaSansUnicode-115"/>
      <use x="1394.042969" xlink:href="#LucidaSansUnicode-93"/>
     </g>
    </g>
   </g>
   <g id="LineCollection_1">
    <path clip-path="url(#p0d2b600513)" d="M 27 28.928571 
L 194.4 28.928571 
" style="fill:none;stroke:#000000;stroke-dasharray:2.775,1.2;stroke-dashoffset:0;stroke-width:0.75;"/>
   </g>
   <g id="line2d_1">
    <path clip-path="url(#p0d2b600513)" d="M 27 110.830881 
L 29.936842 110.279368 
L 32.873684 109.835157 
L 35.810526 109.570773 
L 38.747368 109.110837 
L 41.684211 108.738258 
L 44.621053 107.880604 
L 47.557895 107.27232 
L 50.494737 106.630608 
L 53.431579 105.771351 
L 56.368421 105.105802 
L 59.305263 104.493367 
L 62.242105 104.013803 
L 65.178947 103.464091 
L 68.115789 103.117325 
L 71.052632 102.463689 
L 73.989474 101.697318 
L 76.926316 100.421205 
L 79.863158 99.115179 
L 82.8 97.97118 
L 85.736842 96.824491 
L 88.673684 95.914866 
L 91.610526 95.097175 
L 94.547368 93.870006 
L 97.484211 92.552346 
L 100.421053 90.824727 
L 103.357895 88.880954 
L 106.294737 87.437474 
L 109.231579 86.189939 
L 112.168421 84.762784 
L 115.105263 83.070266 
L 118.042105 81.569506 
L 120.978947 79.624533 
L 123.915789 77.481642 
L 126.852632 76.239019 
L 129.789474 73.624311 
L 132.726316 71.183722 
L 135.663158 74.972567 
L 138.6 73.02533 
L 141.536842 70.120157 
L 144.473684 67.934655 
L 147.410526 63.412633 
L 150.347368 63.180186 
L 153.284211 60.992697 
L 156.221053 59.125567 
L 159.157895 57.692032 
L 162.094737 54.941808 
L 165.031579 52.34354 
L 167.968421 49.426966 
L 170.905263 47.392963 
L 173.842105 48.535909 
L 176.778947 46.441205 
L 179.715789 44.640231 
L 182.652632 43.998705 
L 185.589474 41.824499 
L 188.526316 37.366975 
L 191.463158 35.868926 
L 194.4 33.948585 
" style="fill:none;stroke:#738fc1;stroke-linecap:round;stroke-width:0.5;"/>
    <defs>
     <path d="M 0 0.5 
C 0.132602 0.5 0.25979 0.447317 0.353553 0.353553 
C 0.447317 0.25979 0.5 0.132602 0.5 0 
C 0.5 -0.132602 0.447317 -0.25979 0.353553 -0.353553 
C 0.25979 -0.447317 0.132602 -0.5 0 -0.5 
C -0.132602 -0.5 -0.25979 -0.447317 -0.353553 -0.353553 
C -0.447317 -0.25979 -0.5 -0.132602 -0.5 0 
C -0.5 0.132602 -0.447317 0.25979 -0.353553 0.353553 
C -0.25979 0.447317 -0.132602 0.5 0 0.5 
z
" id="med684639ac" style="stroke:#738fc1;"/>
    </defs>
    <g clip-path="url(#p0d2b600513)">
     <use style="fill:#738fc1;stroke:#738fc1;" x="27" xlink:href="#med684639ac" y="110.830881"/>
     <use style="fill:#738fc1;stroke:#738fc1;" x="29.936842" xlink:href="#med684639ac" y="110.279368"/>
     <use style="fill:#738fc1;stroke:#738fc1;" x="32.873684" xlink:href="#med684639ac" y="109.835157"/>
     <use style="fill:#738fc1;stroke:#738fc1;" x="35.810526" xlink:href="#med684639ac" y="109.570773"/>
     <use style="fill:#738fc1;stroke:#738fc1;" x="38.747368" xlink:href="#med684639ac" y="109.110837"/>
     <use style="fill:#738fc1;stroke:#738fc1;" x="41.684211" xlink:href="#med684639ac" y="108.738258"/>
     <use style="fill:#738fc1;stroke:#738fc1;" x="44.621053" xlink:href="#med684639ac" y="107.880604"/>
     <use style="fill:#738fc1;stroke:#738fc1;" x="47.557895" xlink:href="#med684639ac" y="107.27232"/>
     <use style="fill:#738fc1;stroke:#738fc1;" x="50.494737" xlink:href="#med684639ac" y="106.630608"/>
     <use style="fill:#738fc1;stroke:#738fc1;" x="53.431579" xlink:href="#med684639ac" y="105.771351"/>
     <use style="fill:#738fc1;stroke:#738fc1;" x="56.368421" xlink:href="#med684639ac" y="105.105802"/>
     <use style="fill:#738fc1;stroke:#738fc1;" x="59.305263" xlink:href="#med684639ac" y="104.493367"/>
     <use style="fill:#738fc1;stroke:#738fc1;" x="62.242105" xlink:href="#med684639ac" y="104.013803"/>
     <use style="fill:#738fc1;stroke:#738fc1;" x="65.178947" xlink:href="#med684639ac" y="103.464091"/>
     <use style="fill:#738fc1;stroke:#738fc1;" x="68.115789" xlink:href="#med684639ac" y="103.117325"/>
     <use style="fill:#738fc1;stroke:#738fc1;" x="71.052632" xlink:href="#med684639ac" y="102.463689"/>
     <use style="fill:#738fc1;stroke:#738fc1;" x="73.989474" xlink:href="#med684639ac" y="101.697318"/>
     <use style="fill:#738fc1;stroke:#738fc1;" x="76.926316" xlink:href="#med684639ac" y="100.421205"/>
     <use style="fill:#738fc1;stroke:#738fc1;" x="79.863158" xlink:href="#med684639ac" y="99.115179"/>
     <use style="fill:#738fc1;stroke:#738fc1;" x="82.8" xlink:href="#med684639ac" y="97.97118"/>
     <use style="fill:#738fc1;stroke:#738fc1;" x="85.736842" xlink:href="#med684639ac" y="96.824491"/>
     <use style="fill:#738fc1;stroke:#738fc1;" x="88.673684" xlink:href="#med684639ac" y="95.914866"/>
     <use style="fill:#738fc1;stroke:#738fc1;" x="91.610526" xlink:href="#med684639ac" y="95.097175"/>
     <use style="fill:#738fc1;stroke:#738fc1;" x="94.547368" xlink:href="#med684639ac" y="93.870006"/>
     <use style="fill:#738fc1;stroke:#738fc1;" x="97.484211" xlink:href="#med684639ac" y="92.552346"/>
     <use style="fill:#738fc1;stroke:#738fc1;" x="100.421053" xlink:href="#med684639ac" y="90.824727"/>
     <use style="fill:#738fc1;stroke:#738fc1;" x="103.357895" xlink:href="#med684639ac" y="88.880954"/>
     <use style="fill:#738fc1;stroke:#738fc1;" x="106.294737" xlink:href="#med684639ac" y="87.437474"/>
     <use style="fill:#738fc1;stroke:#738fc1;" x="109.231579" xlink:href="#med684639ac" y="86.189939"/>
     <use style="fill:#738fc1;stroke:#738fc1;" x="112.168421" xlink:href="#med684639ac" y="84.762784"/>
     <use style="fill:#738fc1;stroke:#738fc1;" x="115.105263" xlink:href="#med684639ac" y="83.070266"/>
     <use style="fill:#738fc1;stroke:#738fc1;" x="118.042105" xlink:href="#med684639ac" y="81.569506"/>
     <use style="fill:#738fc1;stroke:#738fc1;" x="120.978947" xlink:href="#med684639ac" y="79.624533"/>
     <use style="fill:#738fc1;stroke:#738fc1;" x="123.915789" xlink:href="#med684639ac" y="77.481642"/>
     <use style="fill:#738fc1;stroke:#738fc1;" x="126.852632" xlink:href="#med684639ac" y="76.239019"/>
     <use style="fill:#738fc1;stroke:#738fc1;" x="129.789474" xlink:href="#med684639ac" y="73.624311"/>
     <use style="fill:#738fc1;stroke:#738fc1;" x="132.726316" xlink:href="#med684639ac" y="71.183722"/>
     <use style="fill:#738fc1;stroke:#738fc1;" x="135.663158" xlink:href="#med684639ac" y="74.972567"/>
     <use style="fill:#738fc1;stroke:#738fc1;" x="138.6" xlink:href="#med684639ac" y="73.02533"/>
     <use style="fill:#738fc1;stroke:#738fc1;" x="141.536842" xlink:href="#med684639ac" y="70.120157"/>
     <use style="fill:#738fc1;stroke:#738fc1;" x="144.473684" xlink:href="#med684639ac" y="67.934655"/>
     <use style="fill:#738fc1;stroke:#738fc1;" x="147.410526" xlink:href="#med684639ac" y="63.412633"/>
     <use style="fill:#738fc1;stroke:#738fc1;" x="150.347368" xlink:href="#med684639ac" y="63.180186"/>
     <use style="fill:#738fc1;stroke:#738fc1;" x="153.284211" xlink:href="#med684639ac" y="60.992697"/>
     <use style="fill:#738fc1;stroke:#738fc1;" x="156.221053" xlink:href="#med684639ac" y="59.125567"/>
     <use style="fill:#738fc1;stroke:#738fc1;" x="159.157895" xlink:href="#med684639ac" y="57.692032"/>
     <use style="fill:#738fc1;stroke:#738fc1;" x="162.094737" xlink:href="#med684639ac" y="54.941808"/>
     <use style="fill:#738fc1;stroke:#738fc1;" x="165.031579" xlink:href="#med684639ac" y="52.34354"/>
     <use style="fill:#738fc1;stroke:#738fc1;" x="167.968421" xlink:href="#med684639ac" y="49.426966"/>
     <use style="fill:#738fc1;stroke:#738fc1;" x="170.905263" xlink:href="#med684639ac" y="47.392963"/>
     <use style="fill:#738fc1;stroke:#738fc1;" x="173.842105" xlink:href="#med684639ac" y="48.535909"/>
     <use style="fill:#738fc1;stroke:#738fc1;" x="176.778947" xlink:href="#med684639ac" y="46.441205"/>
     <use style="fill:#738fc1;stroke:#738fc1;" x="179.715789" xlink:href="#med684639ac" y="44.640231"/>
     <use style="fill:#738fc1;stroke:#738fc1;" x="182.652632" xlink:href="#med684639ac" y="43.998705"/>
     <use style="fill:#738fc1;stroke:#738fc1;" x="185.589474" xlink:href="#med684639ac" y="41.824499"/>
     <use style="fill:#738fc1;stroke:#738fc1;" x="188.526316" xlink:href="#med684639ac" y="37.366975"/>
     <use style="fill:#738fc1;stroke:#738fc1;" x="191.463158" xlink:href="#med684639ac" y="35.868926"/>
     <use style="fill:#738fc1;stroke:#738fc1;" x="194.4" xlink:href="#med684639ac" y="33.948585"/>
    </g>
   </g>
   <g id="patch_3">
    <path d="M 27 126 
L 27 17.28 
" style="fill:none;stroke:#ffffff;stroke-linecap:square;stroke-linejoin:miter;stroke-width:0.8;"/>
   </g>
   <g id="patch_4">
    <path d="M 194.4 126 
L 194.4 17.28 
" style="fill:none;stroke:#ffffff;stroke-linecap:square;stroke-linejoin:miter;stroke-width:0.8;"/>
   </g>
   <g id="patch_5">
    <path d="M 27 126 
L 194.4 126 
" style="fill:none;stroke:#ffffff;stroke-linecap:square;stroke-linejoin:miter;stroke-width:0.8;"/>
   </g>
   <g id="patch_6">
    <path d="M 27 17.28 
L 194.4 17.28 
" style="fill:none;stroke:#ffffff;stroke-linecap:square;stroke-linejoin:miter;stroke-width:0.8;"/>
   </g>
   <g id="legend_1">
    <g id="patch_7">
     <path d="M 31.2 39.645 
L 96.916875 39.645 
Q 98.116875 39.645 98.116875 38.445 
L 98.116875 21.48 
Q 98.116875 20.28 96.916875 20.28 
L 31.2 20.28 
Q 30 20.28 30 21.48 
L 30 38.445 
Q 30 39.645 31.2 39.645 
z
" style="fill:#e3dcd0;opacity:0.8;stroke:#cccccc;stroke-linejoin:miter;"/>
    </g>
    <g id="line2d_2">
     <path d="M 32.4 25.205625 
L 44.4 25.205625 
" style="fill:none;stroke:#738fc1;stroke-linecap:round;stroke-width:0.5;"/>
    </g>
    <g id="line2d_3">
     <g>
      <use style="fill:#738fc1;stroke:#738fc1;" x="38.4" xlink:href="#med684639ac" y="25.205625"/>
     </g>
    </g>
    <g id="text_14">
     <!-- total population -->
     <g style="fill:#262626;" transform="translate(49.2 27.305625)scale(0.06 -0.06)">
      <use xlink:href="#LucidaSansUnicode-116"/>
      <use x="37.402344" xlink:href="#LucidaSansUnicode-111"/>
      <use x="98.828125" xlink:href="#LucidaSansUnicode-116"/>
      <use x="136.230469" xlink:href="#LucidaSansUnicode-97"/>
      <use x="191.455078" xlink:href="#LucidaSansUnicode-108"/>
      <use x="220.361328" xlink:href="#LucidaSansUnicode-32"/>
      <use x="252.001953" xlink:href="#LucidaSansUnicode-112"/>
      <use x="314.941406" xlink:href="#LucidaSansUnicode-111"/>
      <use x="376.367188" xlink:href="#LucidaSansUnicode-112"/>
      <use x="439.306641" xlink:href="#LucidaSansUnicode-117"/>
      <use x="501.367188" xlink:href="#LucidaSansUnicode-108"/>
      <use x="530.273438" xlink:href="#LucidaSansUnicode-97"/>
      <use x="585.498047" xlink:href="#LucidaSansUnicode-116"/>
      <use x="622.900391" xlink:href="#LucidaSansUnicode-105"/>
      <use x="651.806641" xlink:href="#LucidaSansUnicode-111"/>
      <use x="713.232422" xlink:href="#LucidaSansUnicode-110"/>
     </g>
    </g>
    <g id="line2d_4">
     <path d="M 32.4 33.988125 
L 44.4 33.988125 
" style="fill:none;stroke:#000000;stroke-dasharray:2.775,1.2;stroke-dashoffset:0;stroke-width:0.75;"/>
    </g>
    <g id="text_15">
     <!-- estimate -->
     <defs>
      <path d="M 9.625 0 
L 9.625 53.03125 
L 19.234375 53.03125 
L 19.234375 43.0625 
Q 26.265625 54.203125 37.3125 54.203125 
Q 47.953125 54.203125 51.8125 43.0625 
Q 58.640625 54.25 69.578125 54.25 
Q 76.5625 54.25 80.4375 50.125 
Q 84.328125 46 84.328125 38.578125 
L 84.328125 0 
L 74.65625 0 
L 74.65625 37.0625 
Q 74.65625 46.140625 67.484375 46.140625 
Q 60.015625 46.140625 51.8125 35.546875 
L 51.8125 0 
L 42.140625 0 
L 42.140625 37.0625 
Q 42.140625 46.1875 34.8125 46.1875 
Q 27.546875 46.1875 19.234375 35.546875 
L 19.234375 0 
z
" id="LucidaSansUnicode-109"/>
     </defs>
     <g style="fill:#262626;" transform="translate(49.2 36.088125)scale(0.06 -0.06)">
      <use xlink:href="#LucidaSansUnicode-101"/>
      <use x="55.712891" xlink:href="#LucidaSansUnicode-115"/>
      <use x="106.689453" xlink:href="#LucidaSansUnicode-116"/>
      <use x="144.091797" xlink:href="#LucidaSansUnicode-105"/>
      <use x="172.998047" xlink:href="#LucidaSansUnicode-109"/>
      <use x="266.357422" xlink:href="#LucidaSansUnicode-97"/>
      <use x="321.582031" xlink:href="#LucidaSansUnicode-116"/>
      <use x="358.984375" xlink:href="#LucidaSansUnicode-101"/>
     </g>
    </g>
   </g>
  </g>
 </g>
 <defs>
  <clipPath id="p0d2b600513">
   <rect height="108.72" width="167.4" x="27" y="17.28"/>
  </clipPath>
 </defs>
</svg>
