<?xml version="1.0" encoding="utf-8" standalone="no"?>
<!DOCTYPE svg PUBLIC "-//W3C//DTD SVG 1.1//EN"
  "http://www.w3.org/Graphics/SVG/1.1/DTD/svg11.dtd">
<!-- Created with matplotlib (https://matplotlib.org/) -->
<svg height="144pt" version="1.1" viewBox="0 0 216 144" width="216pt" xmlns="http://www.w3.org/2000/svg" xmlns:xlink="http://www.w3.org/1999/xlink">
 <defs>
  <style type="text/css">
*{stroke-linecap:butt;stroke-linejoin:round;}
  </style>
 </defs>
 <g id="figure_1">
  <g id="patch_1">
   <path d="M 0 144 
L 216 144 
L 216 0 
L 0 0 
z
" style="fill:#ffffff;"/>
  </g>
  <g id="axes_1">
   <g id="patch_2">
    <path d="M 27 126 
L 194.4 126 
L 194.4 17.28 
L 27 17.28 
z
" style="fill:#e3dcd0;"/>
   </g>
   <g id="matplotlib.axis_1">
    <g id="xtick_1">
     <g id="text_1">
      <!-- 1970 -->
      <defs>
       <path d="M 26.171875 0 
L 26.171875 65.046875 
L 14.75 65.046875 
L 14.75 71.09375 
L 35.84375 72.90625 
L 35.84375 0 
z
" id="LucidaSansUnicode-49"/>
       <path d="M 11.375 0.4375 
L 11.375 8.59375 
Q 20.5625 5.421875 27 5.421875 
Q 35.984375 5.421875 41.03125 13.0625 
Q 46.09375 20.703125 46.09375 34.328125 
Q 38.765625 25.296875 29.4375 25.296875 
Q 20.3125 25.296875 13.96875 32 
Q 7.625 38.71875 7.625 48.390625 
Q 7.625 59.46875 14.375 66.765625 
Q 21.140625 74.078125 31.390625 74.078125 
Q 43.171875 74.078125 49.953125 64.625 
Q 56.734375 55.171875 56.734375 38.765625 
Q 56.734375 28.328125 53.46875 19.109375 
Q 50.203125 9.90625 44.671875 4.78125 
Q 37.59375 -1.8125 26.078125 -1.8125 
Q 20.40625 -1.8125 11.375 0.4375 
z
M 17.234375 50.046875 
Q 17.234375 41.796875 20.984375 37.015625 
Q 24.75 32.234375 31.15625 32.234375 
Q 37.3125 32.234375 41.625 36.375 
Q 45.953125 40.53125 45.953125 46.390625 
Q 45.953125 55.609375 41.765625 61.25 
Q 37.59375 66.890625 30.8125 66.890625 
Q 24.46875 66.890625 20.84375 62.390625 
Q 17.234375 57.90625 17.234375 50.046875 
z
" id="LucidaSansUnicode-57"/>
       <path d="M 15.046875 0 
Q 16.453125 8.453125 19.0625 14.59375 
Q 21.6875 20.75 28.328125 31.5 
L 48.046875 63.234375 
L 10.84375 63.234375 
L 10.84375 72.265625 
L 57.234375 72.265625 
L 57.234375 63.234375 
Q 29.4375 22.265625 26.125 0 
z
" id="LucidaSansUnicode-55"/>
       <path d="M 31.640625 -1.8125 
Q 20.265625 -1.8125 13.296875 8.609375 
Q 6.34375 19.046875 6.34375 36.140625 
Q 6.34375 53.21875 13.296875 63.640625 
Q 20.265625 74.078125 31.640625 74.078125 
Q 43.0625 74.078125 50 63.671875 
Q 56.9375 53.265625 56.9375 36.140625 
Q 56.9375 19.046875 50 8.609375 
Q 43.0625 -1.8125 31.640625 -1.8125 
z
M 31.640625 5.421875 
Q 46.734375 5.421875 46.734375 36.140625 
Q 46.734375 66.84375 31.640625 66.84375 
Q 16.609375 66.84375 16.609375 36.140625 
Q 16.609375 5.421875 31.640625 5.421875 
z
" id="LucidaSansUnicode-48"/>
      </defs>
      <g transform="translate(45.843454 134.125625)scale(0.06 -0.06)">
       <use xlink:href="#LucidaSansUnicode-49"/>
       <use x="63.232422" xlink:href="#LucidaSansUnicode-57"/>
       <use x="126.464844" xlink:href="#LucidaSansUnicode-55"/>
       <use x="189.697266" xlink:href="#LucidaSansUnicode-48"/>
      </g>
     </g>
    </g>
    <g id="xtick_2">
     <g id="text_2">
      <!-- 1980 -->
      <defs>
       <path d="M 23 39.359375 
Q 17.046875 43.5 14.71875 47.0625 
Q 12.40625 50.640625 12.40625 55.671875 
Q 12.40625 63.875 18.40625 69 
Q 24.421875 74.125 34.078125 74.125 
Q 43.015625 74.125 48.5625 69.78125 
Q 54.109375 65.4375 54.109375 58.5 
Q 54.109375 48 40.625 39.359375 
Q 56.984375 31.34375 56.984375 18.703125 
Q 56.984375 9.671875 50.140625 3.921875 
Q 43.3125 -1.8125 32.5625 -1.8125 
Q 21.828125 -1.8125 15.234375 3.578125 
Q 8.640625 8.984375 8.640625 17.78125 
Q 8.640625 30.765625 23 39.359375 
z
M 35.25 42.390625 
Q 45.359375 49.03125 45.359375 57.171875 
Q 45.359375 61.53125 41.96875 64.1875 
Q 38.578125 66.84375 33.109375 66.84375 
Q 27.78125 66.84375 24.453125 64.234375 
Q 21.140625 61.625 21.140625 57.46875 
Q 21.140625 53.421875 24.140625 50.1875 
Q 27.15625 46.96875 35.25 42.390625 
z
M 28.21875 35.453125 
Q 22.40625 30.953125 20.328125 27.609375 
Q 18.265625 24.265625 18.265625 19.28125 
Q 18.265625 13.09375 22.265625 9.25 
Q 26.265625 5.421875 32.8125 5.421875 
Q 39.109375 5.421875 43.09375 8.6875 
Q 47.078125 11.96875 47.078125 17.1875 
Q 47.078125 21.390625 44.609375 24.296875 
Q 42.140625 27.203125 35.0625 31.390625 
z
" id="LucidaSansUnicode-56"/>
      </defs>
      <g transform="translate(75.211875 134.125625)scale(0.06 -0.06)">
       <use xlink:href="#LucidaSansUnicode-49"/>
       <use x="63.232422" xlink:href="#LucidaSansUnicode-57"/>
       <use x="126.464844" xlink:href="#LucidaSansUnicode-56"/>
       <use x="189.697266" xlink:href="#LucidaSansUnicode-48"/>
      </g>
     </g>
    </g>
    <g id="xtick_3">
     <g id="text_3">
      <!-- 1990 -->
      <g transform="translate(104.580296 134.125625)scale(0.06 -0.06)">
       <use xlink:href="#LucidaSansUnicode-49"/>
       <use x="63.232422" xlink:href="#LucidaSansUnicode-57"/>
       <use x="126.464844" xlink:href="#LucidaSansUnicode-57"/>
       <use x="189.697266" xlink:href="#LucidaSansUnicode-48"/>
      </g>
     </g>
    </g>
    <g id="xtick_4">
     <g id="text_4">
      <!-- 2000 -->
      <defs>
       <path d="M 8.296875 0 
L 8.296875 8.453125 
Q 12.5 18.265625 25.296875 29.828125 
L 30.8125 34.765625 
Q 41.453125 44.390625 41.453125 53.859375 
Q 41.453125 59.90625 37.8125 63.375 
Q 34.1875 66.84375 27.78125 66.84375 
Q 20.3125 66.84375 10.109375 61.03125 
L 10.109375 69.53125 
Q 19.734375 74.078125 29.25 74.078125 
Q 39.40625 74.078125 45.53125 68.609375 
Q 51.65625 63.140625 51.65625 54.109375 
Q 51.65625 47.609375 48.546875 42.578125 
Q 45.453125 37.546875 37.015625 30.375 
L 33.296875 27.203125 
Q 21.734375 17.390625 19.921875 8.453125 
L 51.3125 8.453125 
L 51.3125 0 
z
" id="LucidaSansUnicode-50"/>
      </defs>
      <g transform="translate(133.948717 134.125625)scale(0.06 -0.06)">
       <use xlink:href="#LucidaSansUnicode-50"/>
       <use x="63.232422" xlink:href="#LucidaSansUnicode-48"/>
       <use x="126.464844" xlink:href="#LucidaSansUnicode-48"/>
       <use x="189.697266" xlink:href="#LucidaSansUnicode-48"/>
      </g>
     </g>
    </g>
    <g id="xtick_5">
     <g id="text_5">
      <!-- 2010 -->
      <g transform="translate(163.317138 134.125625)scale(0.06 -0.06)">
       <use xlink:href="#LucidaSansUnicode-50"/>
       <use x="63.232422" xlink:href="#LucidaSansUnicode-48"/>
       <use x="126.464844" xlink:href="#LucidaSansUnicode-49"/>
       <use x="189.697266" xlink:href="#LucidaSansUnicode-48"/>
      </g>
     </g>
    </g>
    <g id="text_6">
     <!-- year -->
     <defs>
      <path d="M 12.703125 -19.28125 
L 21.296875 0 
L 0.78125 53.03125 
L 11.1875 53.03125 
L 26.375 13.09375 
L 42.578125 53.03125 
L 51.65625 53.03125 
L 22.703125 -19.28125 
z
" id="LucidaSansUnicode-121"/>
      <path d="M 48.484375 1.703125 
Q 38.8125 -1.21875 31.9375 -1.21875 
Q 20.171875 -1.21875 12.796875 6.5625 
Q 5.421875 14.359375 5.421875 26.765625 
Q 5.421875 38.8125 11.9375 46.53125 
Q 18.453125 54.25 28.609375 54.25 
Q 38.234375 54.25 43.484375 47.390625 
Q 48.734375 40.53125 48.734375 27.9375 
L 48.6875 25 
L 15.234375 25 
Q 17.328125 6.109375 33.734375 6.109375 
Q 39.75 6.109375 48.484375 9.328125 
z
M 15.671875 32.234375 
L 39.0625 32.234375 
Q 39.0625 47.015625 28.03125 47.015625 
Q 16.9375 47.015625 15.671875 32.234375 
z
" id="LucidaSansUnicode-101"/>
      <path d="M 36.96875 6.734375 
Q 28.328125 -1.21875 20.3125 -1.21875 
Q 13.71875 -1.21875 9.375 2.90625 
Q 5.03125 7.03125 5.03125 13.328125 
Q 5.03125 22.015625 12.328125 26.671875 
Q 19.625 31.34375 33.296875 31.34375 
L 35.546875 31.34375 
L 35.546875 37.75 
Q 35.546875 46.96875 25.921875 46.96875 
Q 18.453125 46.96875 9.625 42.28125 
L 9.625 50.25 
Q 19.34375 54.203125 27.9375 54.203125 
Q 36.765625 54.203125 40.96875 50.171875 
Q 45.171875 46.140625 45.171875 37.75 
L 45.171875 13.71875 
Q 45.171875 5.46875 50.25 5.46875 
Q 50.875 5.46875 52.09375 5.671875 
L 52.78125 0.34375 
Q 49.515625 -1.21875 45.5625 -1.21875 
Q 38.8125 -1.21875 36.96875 6.734375 
z
M 35.546875 11.96875 
L 35.546875 25.6875 
L 32.46875 25.78125 
Q 24.46875 25.78125 19.5625 22.796875 
Q 14.65625 19.828125 14.65625 14.890625 
Q 14.65625 11.421875 17.09375 9.03125 
Q 19.53125 6.640625 23.046875 6.640625 
Q 29.046875 6.640625 35.546875 11.96875 
z
" id="LucidaSansUnicode-97"/>
      <path d="M 9.625 0 
L 9.625 53.03125 
L 19.234375 53.03125 
L 19.234375 43.0625 
Q 24.953125 54.203125 35.84375 54.203125 
Q 37.3125 54.203125 38.921875 53.953125 
L 38.921875 44.96875 
Q 36.421875 45.796875 34.515625 45.796875 
Q 25.390625 45.796875 19.234375 34.96875 
L 19.234375 0 
z
" id="LucidaSansUnicode-114"/>
     </defs>
     <g style="fill:#262626;" transform="translate(104.576719 143.908125)scale(0.06 -0.06)">
      <use xlink:href="#LucidaSansUnicode-121"/>
      <use x="52.246094" xlink:href="#LucidaSansUnicode-101"/>
      <use x="107.958984" xlink:href="#LucidaSansUnicode-97"/>
      <use x="163.183594" xlink:href="#LucidaSansUnicode-114"/>
     </g>
    </g>
   </g>
   <g id="matplotlib.axis_2">
    <g id="ytick_1">
     <g id="text_7">
      <!-- 0.0 -->
      <defs>
       <path d="M 9.765625 0 
L 9.765625 12.0625 
L 21.828125 12.0625 
L 21.828125 0 
z
" id="LucidaSansUnicode-46"/>
      </defs>
      <g transform="translate(14.013438 128.312813)scale(0.06 -0.06)">
       <use xlink:href="#LucidaSansUnicode-48"/>
       <use x="63.232422" xlink:href="#LucidaSansUnicode-46"/>
       <use x="94.873047" xlink:href="#LucidaSansUnicode-48"/>
      </g>
     </g>
    </g>
    <g id="ytick_2">
     <g id="text_8">
      <!-- 0.5 -->
      <defs>
       <path d="M 12.15625 -0.296875 
L 12.15625 8.296875 
Q 19.34375 5.421875 25.828125 5.421875 
Q 32.953125 5.421875 37.03125 9.609375 
Q 41.109375 13.8125 41.109375 21.1875 
Q 41.109375 29.109375 35.34375 33.28125 
Q 29.59375 37.453125 18.703125 37.453125 
Q 16.15625 37.453125 13.375 37.109375 
L 13.375 72.265625 
L 49.953125 72.265625 
L 49.953125 63.875 
L 21.828125 63.875 
L 21.828125 44.828125 
Q 35.75 44.828125 43.5625 38.421875 
Q 51.375 32.03125 51.375 20.703125 
Q 51.375 10.15625 44.265625 4.171875 
Q 37.15625 -1.8125 24.65625 -1.8125 
Q 19.09375 -1.8125 12.15625 -0.296875 
z
" id="LucidaSansUnicode-53"/>
      </defs>
      <g transform="translate(14.013438 104.152813)scale(0.06 -0.06)">
       <use xlink:href="#LucidaSansUnicode-48"/>
       <use x="63.232422" xlink:href="#LucidaSansUnicode-46"/>
       <use x="94.873047" xlink:href="#LucidaSansUnicode-53"/>
      </g>
     </g>
    </g>
    <g id="ytick_3">
     <g id="text_9">
      <!-- 1.0 -->
      <g transform="translate(14.013438 79.992813)scale(0.06 -0.06)">
       <use xlink:href="#LucidaSansUnicode-49"/>
       <use x="63.232422" xlink:href="#LucidaSansUnicode-46"/>
       <use x="94.873047" xlink:href="#LucidaSansUnicode-48"/>
      </g>
     </g>
    </g>
    <g id="ytick_4">
     <g id="text_10">
      <!-- 1.5 -->
      <g transform="translate(14.013438 55.832812)scale(0.06 -0.06)">
       <use xlink:href="#LucidaSansUnicode-49"/>
       <use x="63.232422" xlink:href="#LucidaSansUnicode-46"/>
       <use x="94.873047" xlink:href="#LucidaSansUnicode-53"/>
      </g>
     </g>
    </g>
    <g id="ytick_5">
     <g id="text_11">
      <!-- 2.0 -->
      <g transform="translate(14.013438 31.672812)scale(0.06 -0.06)">
       <use xlink:href="#LucidaSansUnicode-50"/>
       <use x="63.232422" xlink:href="#LucidaSansUnicode-46"/>
       <use x="94.873047" xlink:href="#LucidaSansUnicode-48"/>
      </g>
     </g>
    </g>
    <g id="text_12">
     <!-- mass of chicken product [10$^{11}$ kg] -->
     <defs>
      <path d="M 9.625 0 
L 9.625 53.03125 
L 19.234375 53.03125 
L 19.234375 43.0625 
Q 26.265625 54.203125 37.3125 54.203125 
Q 47.953125 54.203125 51.8125 43.0625 
Q 58.640625 54.25 69.578125 54.25 
Q 76.5625 54.25 80.4375 50.125 
Q 84.328125 46 84.328125 38.578125 
L 84.328125 0 
L 74.65625 0 
L 74.65625 37.0625 
Q 74.65625 46.140625 67.484375 46.140625 
Q 60.015625 46.140625 51.8125 35.546875 
L 51.8125 0 
L 42.140625 0 
L 42.140625 37.0625 
Q 42.140625 46.1875 34.8125 46.1875 
Q 27.546875 46.1875 19.234375 35.546875 
L 19.234375 0 
z
" id="LucidaSansUnicode-109"/>
      <path d="M 7.671875 1.859375 
L 7.671875 10.6875 
Q 17.09375 6 24.078125 6 
Q 28.21875 6 30.953125 8.25 
Q 33.6875 10.5 33.6875 13.875 
Q 33.6875 18.796875 26.03125 22.015625 
L 20.40625 24.421875 
Q 7.953125 29.59375 7.953125 39.3125 
Q 7.953125 46.234375 12.859375 50.21875 
Q 17.78125 54.203125 26.3125 54.203125 
Q 30.765625 54.203125 37.3125 52.984375 
L 39.3125 52.59375 
L 39.3125 44.578125 
Q 31.25 46.96875 26.46875 46.96875 
Q 22.265625 46.96875 19.75 45.140625 
Q 17.234375 43.3125 17.234375 40.234375 
Q 17.234375 35.890625 24.265625 32.90625 
L 28.90625 30.953125 
Q 36.765625 27.640625 40.03125 23.953125 
Q 43.3125 20.265625 43.3125 14.75 
Q 43.3125 7.765625 37.796875 3.265625 
Q 32.28125 -1.21875 23.6875 -1.21875 
Q 17.09375 -1.21875 7.671875 1.859375 
z
" id="LucidaSansUnicode-115"/>
      <path id="LucidaSansUnicode-32"/>
      <path d="M 30.71875 -1.21875 
Q 19.046875 -1.21875 12.234375 6.25 
Q 5.421875 13.71875 5.421875 26.515625 
Q 5.421875 39.3125 12.234375 46.75 
Q 19.046875 54.203125 30.71875 54.203125 
Q 42.390625 54.203125 49.1875 46.75 
Q 56 39.3125 56 26.515625 
Q 56 13.71875 49.1875 6.25 
Q 42.390625 -1.21875 30.71875 -1.21875 
z
M 30.71875 6 
Q 37.890625 6 41.84375 11.375 
Q 45.796875 16.75 45.796875 26.515625 
Q 45.796875 36.28125 41.84375 41.625 
Q 37.890625 46.96875 30.71875 46.96875 
Q 23.53125 46.96875 19.59375 41.625 
Q 15.671875 36.28125 15.671875 26.515625 
Q 15.671875 16.75 19.59375 11.375 
Q 23.53125 6 30.71875 6 
z
" id="LucidaSansUnicode-111"/>
      <path d="M 11.421875 0 
L 11.421875 45.796875 
L 3.90625 45.796875 
L 3.90625 53.03125 
L 11.421875 53.03125 
L 11.421875 59.375 
Q 11.421875 78.328125 28.71875 78.328125 
Q 33.546875 78.328125 39.703125 76.703125 
L 39.703125 69.09375 
Q 33.203125 71.09375 29.296875 71.09375 
Q 24.5625 71.09375 22.828125 68.8125 
Q 21.09375 66.546875 21.09375 60.40625 
L 21.09375 53.03125 
L 34.328125 53.03125 
L 34.328125 45.796875 
L 21.09375 45.796875 
L 21.09375 0 
z
" id="LucidaSansUnicode-102"/>
      <path d="M 46.4375 1.609375 
Q 37.109375 -1.21875 30.328125 -1.21875 
Q 19.578125 -1.21875 12.5 6.734375 
Q 5.421875 14.703125 5.421875 26.8125 
Q 5.421875 39.75 12.421875 46.96875 
Q 19.4375 54.203125 31.984375 54.203125 
Q 38.1875 54.203125 45.84375 52.484375 
L 45.84375 44.4375 
Q 37.703125 46.828125 32.5625 46.828125 
Q 25.140625 46.828125 20.703125 41.28125 
Q 16.265625 35.75 16.265625 26.515625 
Q 16.265625 17.578125 20.84375 12.0625 
Q 25.4375 6.546875 32.859375 6.546875 
Q 39.453125 6.546875 46.4375 9.90625 
z
" id="LucidaSansUnicode-99"/>
      <path d="M 9.625 0 
L 9.625 77.09375 
L 19.234375 77.09375 
L 19.234375 43.0625 
Q 26.859375 54.203125 37.890625 54.203125 
Q 44.828125 54.203125 48.90625 49.828125 
Q 52.984375 45.453125 52.984375 38.09375 
L 52.984375 0 
L 43.359375 0 
L 43.359375 34.96875 
Q 43.359375 40.875 41.625 43.390625 
Q 39.890625 45.90625 35.890625 45.90625 
Q 27.046875 45.90625 19.234375 34.328125 
L 19.234375 0 
z
" id="LucidaSansUnicode-104"/>
      <path d="M 9.625 0 
L 9.625 53.03125 
L 19.234375 53.03125 
L 19.234375 0 
z
M 9.625 62.640625 
L 9.625 72.265625 
L 19.234375 72.265625 
L 19.234375 62.640625 
z
" id="LucidaSansUnicode-105"/>
      <path d="M 9.625 0 
L 9.625 77.09375 
L 19.234375 77.09375 
L 19.234375 27.296875 
L 41.703125 53.03125 
L 52.046875 53.03125 
L 30.609375 28.265625 
L 56.5 0 
L 44.1875 0 
L 19.234375 27.203125 
L 19.234375 0 
z
" id="LucidaSansUnicode-107"/>
      <path d="M 9.625 0 
L 9.625 53.03125 
L 19.234375 53.03125 
L 19.234375 43.0625 
Q 26.859375 54.203125 37.890625 54.203125 
Q 44.828125 54.203125 48.90625 49.828125 
Q 52.984375 45.453125 52.984375 38.09375 
L 52.984375 0 
L 43.359375 0 
L 43.359375 34.96875 
Q 43.359375 40.875 41.625 43.390625 
Q 39.890625 45.90625 35.890625 45.90625 
Q 27.046875 45.90625 19.234375 34.328125 
L 19.234375 0 
z
" id="LucidaSansUnicode-110"/>
      <path d="M 9.625 -19.28125 
L 9.625 53.03125 
L 19.234375 53.03125 
L 19.234375 43.0625 
Q 25.140625 54.203125 36.96875 54.203125 
Q 46.53125 54.203125 52.015625 47.21875 
Q 57.515625 40.234375 57.515625 28.125 
Q 57.515625 14.9375 51.28125 6.859375 
Q 45.0625 -1.21875 34.90625 -1.21875 
Q 25.484375 -1.21875 19.234375 6 
L 19.234375 -19.28125 
z
M 19.234375 12.640625 
Q 26.65625 6 33.40625 6 
Q 40.046875 6 43.65625 11.546875 
Q 47.265625 17.09375 47.265625 27.15625 
Q 47.265625 45.796875 34.96875 45.796875 
Q 26.90625 45.796875 19.234375 37.0625 
z
" id="LucidaSansUnicode-112"/>
      <path d="M 43.65625 0 
L 43.65625 9.96875 
Q 37.796875 -1.21875 25.984375 -1.21875 
Q 16.40625 -1.21875 10.90625 5.765625 
Q 5.421875 12.75 5.421875 24.859375 
Q 5.421875 38.09375 11.640625 46.140625 
Q 17.875 54.203125 28.03125 54.203125 
Q 37.453125 54.203125 43.65625 46.96875 
L 43.65625 77.09375 
L 53.328125 77.09375 
L 53.328125 0 
z
M 43.65625 40.375 
Q 36.1875 46.96875 29.5 46.96875 
Q 22.90625 46.96875 19.28125 41.453125 
Q 15.671875 35.9375 15.671875 25.828125 
Q 15.671875 7.234375 27.984375 7.234375 
Q 35.984375 7.234375 43.65625 15.96875 
z
" id="LucidaSansUnicode-100"/>
      <path d="M 42.78125 0 
L 42.78125 9.96875 
Q 35.109375 -1.21875 24.171875 -1.21875 
Q 17.234375 -1.21875 13.125 3.140625 
Q 9.03125 7.515625 9.03125 14.9375 
L 9.03125 53.03125 
L 18.65625 53.03125 
L 18.65625 18.0625 
Q 18.65625 12.109375 20.390625 9.59375 
Q 22.125 7.078125 26.171875 7.078125 
Q 34.96875 7.078125 42.78125 18.65625 
L 42.78125 53.03125 
L 52.390625 53.03125 
L 52.390625 0 
z
" id="LucidaSansUnicode-117"/>
      <path d="M 33.25 0 
Q 28.8125 -1.21875 25.53125 -1.21875 
Q 18.21875 -1.21875 14.109375 2.96875 
Q 10.015625 7.171875 10.015625 14.65625 
L 10.015625 45.796875 
L 3.375 45.796875 
L 3.375 53.03125 
L 10.015625 53.03125 
L 10.015625 62.640625 
L 19.625 63.578125 
L 19.625 53.03125 
L 33.5 53.03125 
L 33.5 45.796875 
L 19.625 45.796875 
L 19.625 16.40625 
Q 19.625 6 28.609375 6 
Q 30.515625 6 33.25 6.640625 
z
" id="LucidaSansUnicode-116"/>
      <path d="M 9.625 -14.453125 
L 9.625 77.09375 
L 28.90625 77.09375 
L 28.90625 69.875 
L 18.0625 69.875 
L 18.0625 -7.234375 
L 28.90625 -7.234375 
L 28.90625 -14.453125 
z
" id="LucidaSansUnicode-91"/>
      <path d="M 30.203125 0 
L 22.296875 0 
L 22.296875 57 
Q 20.09375 56 15.75 53.75 
Q 11.40625 51.5 10.796875 51.203125 
L 10.796875 58.5 
L 28.796875 67.703125 
L 30.203125 67.203125 
z
" id="STIXGeneral-Regular-120803"/>
      <path d="M 9.8125 -17.625 
L 10.9375 -9.28125 
Q 19.28125 -13.234375 27.4375 -13.234375 
Q 43.65625 -13.234375 43.65625 4 
L 43.65625 12.359375 
Q 41.15625 7.078125 36.546875 4.140625 
Q 31.9375 1.21875 26.265625 1.21875 
Q 16.65625 1.21875 11.03125 8.125 
Q 5.421875 15.046875 5.421875 26.859375 
Q 5.421875 38.96875 11.8125 46.578125 
Q 18.21875 54.203125 28.375 54.203125 
Q 37.25 54.203125 43.65625 46.96875 
L 43.65625 53.03125 
L 53.328125 53.03125 
L 53.328125 14.453125 
Q 53.328125 2 52.03125 -3.984375 
Q 50.734375 -9.96875 47.171875 -13.765625 
Q 40.875 -20.453125 27.484375 -20.453125 
Q 18.3125 -20.453125 9.8125 -17.625 
z
M 43.65625 18.359375 
L 43.65625 40.375 
Q 37.3125 46.96875 29.828125 46.96875 
Q 23.1875 46.96875 19.421875 41.640625 
Q 15.671875 36.328125 15.671875 26.90625 
Q 15.671875 9.625 27.9375 9.625 
Q 36.28125 9.625 43.65625 18.359375 
z
" id="LucidaSansUnicode-103"/>
      <path d="M 22.90625 77.09375 
L 22.90625 -14.453125 
L 3.609375 -14.453125 
L 3.609375 -7.234375 
L 14.453125 -7.234375 
L 14.453125 69.875 
L 3.609375 69.875 
L 3.609375 77.09375 
z
" id="LucidaSansUnicode-93"/>
     </defs>
     <g style="fill:#262626;" transform="translate(8.753437 120.87)rotate(-90)scale(0.06 -0.06)">
      <use transform="translate(0 0.370312)" xlink:href="#LucidaSansUnicode-109"/>
      <use transform="translate(93.359375 0.370312)" xlink:href="#LucidaSansUnicode-97"/>
      <use transform="translate(148.583984 0.370312)" xlink:href="#LucidaSansUnicode-115"/>
      <use transform="translate(199.560547 0.370312)" xlink:href="#LucidaSansUnicode-115"/>
      <use transform="translate(250.537109 0.370312)" xlink:href="#LucidaSansUnicode-32"/>
      <use transform="translate(282.177734 0.370312)" xlink:href="#LucidaSansUnicode-111"/>
      <use transform="translate(343.603516 0.370312)" xlink:href="#LucidaSansUnicode-102"/>
      <use transform="translate(380.371094 0.370312)" xlink:href="#LucidaSansUnicode-32"/>
      <use transform="translate(412.011719 0.370312)" xlink:href="#LucidaSansUnicode-99"/>
      <use transform="translate(463.232422 0.370312)" xlink:href="#LucidaSansUnicode-104"/>
      <use transform="translate(525.292969 0.370312)" xlink:href="#LucidaSansUnicode-105"/>
      <use transform="translate(554.199219 0.370312)" xlink:href="#LucidaSansUnicode-99"/>
      <use transform="translate(605.419922 0.370312)" xlink:href="#LucidaSansUnicode-107"/>
      <use transform="translate(663.867188 0.370312)" xlink:href="#LucidaSansUnicode-101"/>
      <use transform="translate(719.580078 0.370312)" xlink:href="#LucidaSansUnicode-110"/>
      <use transform="translate(781.640625 0.370312)" xlink:href="#LucidaSansUnicode-32"/>
      <use transform="translate(813.28125 0.370312)" xlink:href="#LucidaSansUnicode-112"/>
      <use transform="translate(876.220703 0.370312)" xlink:href="#LucidaSansUnicode-114"/>
      <use transform="translate(917.138672 0.370312)" xlink:href="#LucidaSansUnicode-111"/>
      <use transform="translate(978.564453 0.370312)" xlink:href="#LucidaSansUnicode-100"/>
      <use transform="translate(1041.503906 0.370312)" xlink:href="#LucidaSansUnicode-117"/>
      <use transform="translate(1103.564453 0.370312)" xlink:href="#LucidaSansUnicode-99"/>
      <use transform="translate(1154.785156 0.370312)" xlink:href="#LucidaSansUnicode-116"/>
      <use transform="translate(1192.1875 0.370312)" xlink:href="#LucidaSansUnicode-32"/>
      <use transform="translate(1223.828125 0.370312)" xlink:href="#LucidaSansUnicode-91"/>
      <use transform="translate(1256.347656 0.370312)" xlink:href="#LucidaSansUnicode-49"/>
      <use transform="translate(1319.580078 0.370312)" xlink:href="#LucidaSansUnicode-48"/>
      <use transform="translate(1383.605195 36.607813)scale(0.7)" xlink:href="#STIXGeneral-Regular-120803"/>
      <use transform="translate(1418.605185 36.607813)scale(0.7)" xlink:href="#STIXGeneral-Regular-120803"/>
      <use transform="translate(1455.870018 0.370312)" xlink:href="#LucidaSansUnicode-32"/>
      <use transform="translate(1487.510643 0.370312)" xlink:href="#LucidaSansUnicode-107"/>
      <use transform="translate(1545.957908 0.370312)" xlink:href="#LucidaSansUnicode-103"/>
      <use transform="translate(1608.311424 0.370312)" xlink:href="#LucidaSansUnicode-93"/>
     </g>
    </g>
   </g>
   <g id="LineCollection_1">
    <path clip-path="url(#pc8a6072c4d)" d="M 27 29.36 
L 194.4 29.36 
" style="fill:none;stroke:#000000;stroke-dasharray:2.775,1.2;stroke-dashoffset:0;stroke-width:0.75;"/>
   </g>
   <g id="line2d_1">
    <path clip-path="url(#pc8a6072c4d)" d="M 27 122.348985 
L 29.936842 122.190233 
L 32.873684 121.954352 
L 35.810526 121.807034 
L 38.747368 121.450762 
L 41.684211 121.168683 
L 44.621053 120.894877 
L 47.557895 120.669413 
L 50.494737 120.229404 
L 53.431579 119.650537 
L 56.368421 119.40412 
L 59.305263 118.91939 
L 62.242105 118.60183 
L 65.178947 118.30371 
L 68.115789 118.079759 
L 71.052632 117.519995 
L 73.989474 116.974838 
L 76.926316 116.320068 
L 79.863158 115.524333 
L 82.8 114.936252 
L 85.736842 114.252393 
L 88.673684 113.830849 
L 91.610526 113.561995 
L 94.547368 113.306948 
L 97.484211 112.700506 
L 100.421053 111.845988 
L 103.357895 110.794334 
L 106.294737 110.096372 
L 109.231579 109.783801 
L 112.168421 108.886885 
L 115.105263 107.536819 
L 118.042105 106.731902 
L 120.978947 105.497823 
L 123.915789 104.35029 
L 126.852632 103.025219 
L 129.789474 102.252298 
L 132.726316 100.744896 
L 135.663158 99.676765 
L 138.6 98.522223 
L 141.536842 97.647564 
L 144.473684 96.523708 
L 147.410526 94.994192 
L 150.347368 94.185858 
L 153.284211 93.028186 
L 156.221053 91.882412 
L 159.157895 90.863338 
L 162.094737 88.778993 
L 165.031579 86.938166 
L 167.968421 85.879643 
L 170.905263 83.849691 
L 173.842105 82.07681 
L 176.778947 80.526197 
L 179.715789 78.823117 
L 182.652632 77.46852 
L 185.589474 75.872763 
L 188.526316 74.472273 
L 191.463158 72.73315 
L 194.4 70.786306 
" style="fill:none;stroke:#d56c55;stroke-linecap:round;stroke-width:0.5;"/>
    <defs>
     <path d="M 0 0.5 
C 0.132602 0.5 0.25979 0.447317 0.353553 0.353553 
C 0.447317 0.25979 0.5 0.132602 0.5 0 
C 0.5 -0.132602 0.447317 -0.25979 0.353553 -0.353553 
C 0.25979 -0.447317 0.132602 -0.5 0 -0.5 
C -0.132602 -0.5 -0.25979 -0.447317 -0.353553 -0.353553 
C -0.447317 -0.25979 -0.5 -0.132602 -0.5 0 
C -0.5 0.132602 -0.447317 0.25979 -0.353553 0.353553 
C -0.25979 0.447317 -0.132602 0.5 0 0.5 
z
" id="md4c545bbd6" style="stroke:#d56c55;"/>
    </defs>
    <g clip-path="url(#pc8a6072c4d)">
     <use style="fill:#d56c55;stroke:#d56c55;" x="27" xlink:href="#md4c545bbd6" y="122.348985"/>
     <use style="fill:#d56c55;stroke:#d56c55;" x="29.936842" xlink:href="#md4c545bbd6" y="122.190233"/>
     <use style="fill:#d56c55;stroke:#d56c55;" x="32.873684" xlink:href="#md4c545bbd6" y="121.954352"/>
     <use style="fill:#d56c55;stroke:#d56c55;" x="35.810526" xlink:href="#md4c545bbd6" y="121.807034"/>
     <use style="fill:#d56c55;stroke:#d56c55;" x="38.747368" xlink:href="#md4c545bbd6" y="121.450762"/>
     <use style="fill:#d56c55;stroke:#d56c55;" x="41.684211" xlink:href="#md4c545bbd6" y="121.168683"/>
     <use style="fill:#d56c55;stroke:#d56c55;" x="44.621053" xlink:href="#md4c545bbd6" y="120.894877"/>
     <use style="fill:#d56c55;stroke:#d56c55;" x="47.557895" xlink:href="#md4c545bbd6" y="120.669413"/>
     <use style="fill:#d56c55;stroke:#d56c55;" x="50.494737" xlink:href="#md4c545bbd6" y="120.229404"/>
     <use style="fill:#d56c55;stroke:#d56c55;" x="53.431579" xlink:href="#md4c545bbd6" y="119.650537"/>
     <use style="fill:#d56c55;stroke:#d56c55;" x="56.368421" xlink:href="#md4c545bbd6" y="119.40412"/>
     <use style="fill:#d56c55;stroke:#d56c55;" x="59.305263" xlink:href="#md4c545bbd6" y="118.91939"/>
     <use style="fill:#d56c55;stroke:#d56c55;" x="62.242105" xlink:href="#md4c545bbd6" y="118.60183"/>
     <use style="fill:#d56c55;stroke:#d56c55;" x="65.178947" xlink:href="#md4c545bbd6" y="118.30371"/>
     <use style="fill:#d56c55;stroke:#d56c55;" x="68.115789" xlink:href="#md4c545bbd6" y="118.079759"/>
     <use style="fill:#d56c55;stroke:#d56c55;" x="71.052632" xlink:href="#md4c545bbd6" y="117.519995"/>
     <use style="fill:#d56c55;stroke:#d56c55;" x="73.989474" xlink:href="#md4c545bbd6" y="116.974838"/>
     <use style="fill:#d56c55;stroke:#d56c55;" x="76.926316" xlink:href="#md4c545bbd6" y="116.320068"/>
     <use style="fill:#d56c55;stroke:#d56c55;" x="79.863158" xlink:href="#md4c545bbd6" y="115.524333"/>
     <use style="fill:#d56c55;stroke:#d56c55;" x="82.8" xlink:href="#md4c545bbd6" y="114.936252"/>
     <use style="fill:#d56c55;stroke:#d56c55;" x="85.736842" xlink:href="#md4c545bbd6" y="114.252393"/>
     <use style="fill:#d56c55;stroke:#d56c55;" x="88.673684" xlink:href="#md4c545bbd6" y="113.830849"/>
     <use style="fill:#d56c55;stroke:#d56c55;" x="91.610526" xlink:href="#md4c545bbd6" y="113.561995"/>
     <use style="fill:#d56c55;stroke:#d56c55;" x="94.547368" xlink:href="#md4c545bbd6" y="113.306948"/>
     <use style="fill:#d56c55;stroke:#d56c55;" x="97.484211" xlink:href="#md4c545bbd6" y="112.700506"/>
     <use style="fill:#d56c55;stroke:#d56c55;" x="100.421053" xlink:href="#md4c545bbd6" y="111.845988"/>
     <use style="fill:#d56c55;stroke:#d56c55;" x="103.357895" xlink:href="#md4c545bbd6" y="110.794334"/>
     <use style="fill:#d56c55;stroke:#d56c55;" x="106.294737" xlink:href="#md4c545bbd6" y="110.096372"/>
     <use style="fill:#d56c55;stroke:#d56c55;" x="109.231579" xlink:href="#md4c545bbd6" y="109.783801"/>
     <use style="fill:#d56c55;stroke:#d56c55;" x="112.168421" xlink:href="#md4c545bbd6" y="108.886885"/>
     <use style="fill:#d56c55;stroke:#d56c55;" x="115.105263" xlink:href="#md4c545bbd6" y="107.536819"/>
     <use style="fill:#d56c55;stroke:#d56c55;" x="118.042105" xlink:href="#md4c545bbd6" y="106.731902"/>
     <use style="fill:#d56c55;stroke:#d56c55;" x="120.978947" xlink:href="#md4c545bbd6" y="105.497823"/>
     <use style="fill:#d56c55;stroke:#d56c55;" x="123.915789" xlink:href="#md4c545bbd6" y="104.35029"/>
     <use style="fill:#d56c55;stroke:#d56c55;" x="126.852632" xlink:href="#md4c545bbd6" y="103.025219"/>
     <use style="fill:#d56c55;stroke:#d56c55;" x="129.789474" xlink:href="#md4c545bbd6" y="102.252298"/>
     <use style="fill:#d56c55;stroke:#d56c55;" x="132.726316" xlink:href="#md4c545bbd6" y="100.744896"/>
     <use style="fill:#d56c55;stroke:#d56c55;" x="135.663158" xlink:href="#md4c545bbd6" y="99.676765"/>
     <use style="fill:#d56c55;stroke:#d56c55;" x="138.6" xlink:href="#md4c545bbd6" y="98.522223"/>
     <use style="fill:#d56c55;stroke:#d56c55;" x="141.536842" xlink:href="#md4c545bbd6" y="97.647564"/>
     <use style="fill:#d56c55;stroke:#d56c55;" x="144.473684" xlink:href="#md4c545bbd6" y="96.523708"/>
     <use style="fill:#d56c55;stroke:#d56c55;" x="147.410526" xlink:href="#md4c545bbd6" y="94.994192"/>
     <use style="fill:#d56c55;stroke:#d56c55;" x="150.347368" xlink:href="#md4c545bbd6" y="94.185858"/>
     <use style="fill:#d56c55;stroke:#d56c55;" x="153.284211" xlink:href="#md4c545bbd6" y="93.028186"/>
     <use style="fill:#d56c55;stroke:#d56c55;" x="156.221053" xlink:href="#md4c545bbd6" y="91.882412"/>
     <use style="fill:#d56c55;stroke:#d56c55;" x="159.157895" xlink:href="#md4c545bbd6" y="90.863338"/>
     <use style="fill:#d56c55;stroke:#d56c55;" x="162.094737" xlink:href="#md4c545bbd6" y="88.778993"/>
     <use style="fill:#d56c55;stroke:#d56c55;" x="165.031579" xlink:href="#md4c545bbd6" y="86.938166"/>
     <use style="fill:#d56c55;stroke:#d56c55;" x="167.968421" xlink:href="#md4c545bbd6" y="85.879643"/>
     <use style="fill:#d56c55;stroke:#d56c55;" x="170.905263" xlink:href="#md4c545bbd6" y="83.849691"/>
     <use style="fill:#d56c55;stroke:#d56c55;" x="173.842105" xlink:href="#md4c545bbd6" y="82.07681"/>
     <use style="fill:#d56c55;stroke:#d56c55;" x="176.778947" xlink:href="#md4c545bbd6" y="80.526197"/>
     <use style="fill:#d56c55;stroke:#d56c55;" x="179.715789" xlink:href="#md4c545bbd6" y="78.823117"/>
     <use style="fill:#d56c55;stroke:#d56c55;" x="182.652632" xlink:href="#md4c545bbd6" y="77.46852"/>
     <use style="fill:#d56c55;stroke:#d56c55;" x="185.589474" xlink:href="#md4c545bbd6" y="75.872763"/>
     <use style="fill:#d56c55;stroke:#d56c55;" x="188.526316" xlink:href="#md4c545bbd6" y="74.472273"/>
     <use style="fill:#d56c55;stroke:#d56c55;" x="191.463158" xlink:href="#md4c545bbd6" y="72.73315"/>
     <use style="fill:#d56c55;stroke:#d56c55;" x="194.4" xlink:href="#md4c545bbd6" y="70.786306"/>
    </g>
   </g>
   <g id="line2d_2">
    <path clip-path="url(#pc8a6072c4d)" d="M 27 119.497565 
L 29.936842 119.336969 
L 32.873684 119.239688 
L 35.810526 118.943449 
L 38.747368 118.74378 
L 41.684211 118.551545 
L 44.621053 118.196463 
L 47.557895 117.988653 
L 50.494737 117.69172 
L 53.431579 117.316346 
L 56.368421 117.048006 
L 59.305263 116.791642 
L 62.242105 116.708488 
L 65.178947 116.486944 
L 68.115789 116.181505 
L 71.052632 116.018555 
L 73.989474 115.558154 
L 76.926316 115.11744 
L 79.863158 114.818428 
L 82.8 114.493025 
L 85.736842 114.219748 
L 88.673684 113.884905 
L 91.610526 113.67162 
L 94.547368 113.061616 
L 97.484211 112.377041 
L 100.421053 111.86972 
L 103.357895 111.492415 
L 106.294737 110.893327 
L 109.231579 110.800898 
L 112.168421 110.346786 
L 115.105263 109.705036 
L 118.042105 109.480636 
L 120.978947 108.917212 
L 123.915789 107.52438 
L 126.852632 106.733907 
L 129.789474 105.654308 
L 132.726316 105.11297 
L 135.663158 104.442582 
L 138.6 103.54294 
L 141.536842 102.895696 
L 144.473684 102.401609 
L 147.410526 101.728641 
L 150.347368 101.372027 
L 153.284211 100.770954 
L 156.221053 100.227569 
L 159.157895 99.709013 
L 162.094737 98.938427 
L 165.031579 97.942907 
L 167.968421 97.412648 
L 170.905263 96.878835 
L 173.842105 96.313454 
L 176.778947 95.654452 
L 179.715789 94.952334 
L 182.652632 95.223485 
L 185.589474 95.095732 
L 188.526316 94.139391 
L 191.463158 93.616526 
L 194.4 92.706617 
" style="fill:none;stroke:#ffffff;stroke-linecap:round;stroke-width:0.5;"/>
    <defs>
     <path d="M 0 0.5 
C 0.132602 0.5 0.25979 0.447317 0.353553 0.353553 
C 0.447317 0.25979 0.5 0.132602 0.5 0 
C 0.5 -0.132602 0.447317 -0.25979 0.353553 -0.353553 
C 0.25979 -0.447317 0.132602 -0.5 0 -0.5 
C -0.132602 -0.5 -0.25979 -0.447317 -0.353553 -0.353553 
C -0.447317 -0.25979 -0.5 -0.132602 -0.5 0 
C -0.5 0.132602 -0.447317 0.25979 -0.353553 0.353553 
C -0.25979 0.447317 -0.132602 0.5 0 0.5 
z
" id="m079ca97739" style="stroke:#ffffff;"/>
    </defs>
    <g clip-path="url(#pc8a6072c4d)">
     <use style="fill:#ffffff;stroke:#ffffff;" x="27" xlink:href="#m079ca97739" y="119.497565"/>
     <use style="fill:#ffffff;stroke:#ffffff;" x="29.936842" xlink:href="#m079ca97739" y="119.336969"/>
     <use style="fill:#ffffff;stroke:#ffffff;" x="32.873684" xlink:href="#m079ca97739" y="119.239688"/>
     <use style="fill:#ffffff;stroke:#ffffff;" x="35.810526" xlink:href="#m079ca97739" y="118.943449"/>
     <use style="fill:#ffffff;stroke:#ffffff;" x="38.747368" xlink:href="#m079ca97739" y="118.74378"/>
     <use style="fill:#ffffff;stroke:#ffffff;" x="41.684211" xlink:href="#m079ca97739" y="118.551545"/>
     <use style="fill:#ffffff;stroke:#ffffff;" x="44.621053" xlink:href="#m079ca97739" y="118.196463"/>
     <use style="fill:#ffffff;stroke:#ffffff;" x="47.557895" xlink:href="#m079ca97739" y="117.988653"/>
     <use style="fill:#ffffff;stroke:#ffffff;" x="50.494737" xlink:href="#m079ca97739" y="117.69172"/>
     <use style="fill:#ffffff;stroke:#ffffff;" x="53.431579" xlink:href="#m079ca97739" y="117.316346"/>
     <use style="fill:#ffffff;stroke:#ffffff;" x="56.368421" xlink:href="#m079ca97739" y="117.048006"/>
     <use style="fill:#ffffff;stroke:#ffffff;" x="59.305263" xlink:href="#m079ca97739" y="116.791642"/>
     <use style="fill:#ffffff;stroke:#ffffff;" x="62.242105" xlink:href="#m079ca97739" y="116.708488"/>
     <use style="fill:#ffffff;stroke:#ffffff;" x="65.178947" xlink:href="#m079ca97739" y="116.486944"/>
     <use style="fill:#ffffff;stroke:#ffffff;" x="68.115789" xlink:href="#m079ca97739" y="116.181505"/>
     <use style="fill:#ffffff;stroke:#ffffff;" x="71.052632" xlink:href="#m079ca97739" y="116.018555"/>
     <use style="fill:#ffffff;stroke:#ffffff;" x="73.989474" xlink:href="#m079ca97739" y="115.558154"/>
     <use style="fill:#ffffff;stroke:#ffffff;" x="76.926316" xlink:href="#m079ca97739" y="115.11744"/>
     <use style="fill:#ffffff;stroke:#ffffff;" x="79.863158" xlink:href="#m079ca97739" y="114.818428"/>
     <use style="fill:#ffffff;stroke:#ffffff;" x="82.8" xlink:href="#m079ca97739" y="114.493025"/>
     <use style="fill:#ffffff;stroke:#ffffff;" x="85.736842" xlink:href="#m079ca97739" y="114.219748"/>
     <use style="fill:#ffffff;stroke:#ffffff;" x="88.673684" xlink:href="#m079ca97739" y="113.884905"/>
     <use style="fill:#ffffff;stroke:#ffffff;" x="91.610526" xlink:href="#m079ca97739" y="113.67162"/>
     <use style="fill:#ffffff;stroke:#ffffff;" x="94.547368" xlink:href="#m079ca97739" y="113.061616"/>
     <use style="fill:#ffffff;stroke:#ffffff;" x="97.484211" xlink:href="#m079ca97739" y="112.377041"/>
     <use style="fill:#ffffff;stroke:#ffffff;" x="100.421053" xlink:href="#m079ca97739" y="111.86972"/>
     <use style="fill:#ffffff;stroke:#ffffff;" x="103.357895" xlink:href="#m079ca97739" y="111.492415"/>
     <use style="fill:#ffffff;stroke:#ffffff;" x="106.294737" xlink:href="#m079ca97739" y="110.893327"/>
     <use style="fill:#ffffff;stroke:#ffffff;" x="109.231579" xlink:href="#m079ca97739" y="110.800898"/>
     <use style="fill:#ffffff;stroke:#ffffff;" x="112.168421" xlink:href="#m079ca97739" y="110.346786"/>
     <use style="fill:#ffffff;stroke:#ffffff;" x="115.105263" xlink:href="#m079ca97739" y="109.705036"/>
     <use style="fill:#ffffff;stroke:#ffffff;" x="118.042105" xlink:href="#m079ca97739" y="109.480636"/>
     <use style="fill:#ffffff;stroke:#ffffff;" x="120.978947" xlink:href="#m079ca97739" y="108.917212"/>
     <use style="fill:#ffffff;stroke:#ffffff;" x="123.915789" xlink:href="#m079ca97739" y="107.52438"/>
     <use style="fill:#ffffff;stroke:#ffffff;" x="126.852632" xlink:href="#m079ca97739" y="106.733907"/>
     <use style="fill:#ffffff;stroke:#ffffff;" x="129.789474" xlink:href="#m079ca97739" y="105.654308"/>
     <use style="fill:#ffffff;stroke:#ffffff;" x="132.726316" xlink:href="#m079ca97739" y="105.11297"/>
     <use style="fill:#ffffff;stroke:#ffffff;" x="135.663158" xlink:href="#m079ca97739" y="104.442582"/>
     <use style="fill:#ffffff;stroke:#ffffff;" x="138.6" xlink:href="#m079ca97739" y="103.54294"/>
     <use style="fill:#ffffff;stroke:#ffffff;" x="141.536842" xlink:href="#m079ca97739" y="102.895696"/>
     <use style="fill:#ffffff;stroke:#ffffff;" x="144.473684" xlink:href="#m079ca97739" y="102.401609"/>
     <use style="fill:#ffffff;stroke:#ffffff;" x="147.410526" xlink:href="#m079ca97739" y="101.728641"/>
     <use style="fill:#ffffff;stroke:#ffffff;" x="150.347368" xlink:href="#m079ca97739" y="101.372027"/>
     <use style="fill:#ffffff;stroke:#ffffff;" x="153.284211" xlink:href="#m079ca97739" y="100.770954"/>
     <use style="fill:#ffffff;stroke:#ffffff;" x="156.221053" xlink:href="#m079ca97739" y="100.227569"/>
     <use style="fill:#ffffff;stroke:#ffffff;" x="159.157895" xlink:href="#m079ca97739" y="99.709013"/>
     <use style="fill:#ffffff;stroke:#ffffff;" x="162.094737" xlink:href="#m079ca97739" y="98.938427"/>
     <use style="fill:#ffffff;stroke:#ffffff;" x="165.031579" xlink:href="#m079ca97739" y="97.942907"/>
     <use style="fill:#ffffff;stroke:#ffffff;" x="167.968421" xlink:href="#m079ca97739" y="97.412648"/>
     <use style="fill:#ffffff;stroke:#ffffff;" x="170.905263" xlink:href="#m079ca97739" y="96.878835"/>
     <use style="fill:#ffffff;stroke:#ffffff;" x="173.842105" xlink:href="#m079ca97739" y="96.313454"/>
     <use style="fill:#ffffff;stroke:#ffffff;" x="176.778947" xlink:href="#m079ca97739" y="95.654452"/>
     <use style="fill:#ffffff;stroke:#ffffff;" x="179.715789" xlink:href="#m079ca97739" y="94.952334"/>
     <use style="fill:#ffffff;stroke:#ffffff;" x="182.652632" xlink:href="#m079ca97739" y="95.223485"/>
     <use style="fill:#ffffff;stroke:#ffffff;" x="185.589474" xlink:href="#m079ca97739" y="95.095732"/>
     <use style="fill:#ffffff;stroke:#ffffff;" x="188.526316" xlink:href="#m079ca97739" y="94.139391"/>
     <use style="fill:#ffffff;stroke:#ffffff;" x="191.463158" xlink:href="#m079ca97739" y="93.616526"/>
     <use style="fill:#ffffff;stroke:#ffffff;" x="194.4" xlink:href="#m079ca97739" y="92.706617"/>
    </g>
   </g>
   <g id="line2d_3">
    <path clip-path="url(#pc8a6072c4d)" d="M 27 115.846551 
L 29.936842 115.527203 
L 32.873684 115.194041 
L 35.810526 114.750483 
L 38.747368 114.194542 
L 41.684211 113.720228 
L 44.621053 113.09134 
L 47.557895 112.658067 
L 50.494737 111.921124 
L 53.431579 110.966883 
L 56.368421 110.452126 
L 59.305263 109.711032 
L 62.242105 109.310319 
L 65.178947 108.790654 
L 68.115789 108.261264 
L 71.052632 107.538549 
L 73.989474 106.532992 
L 76.926316 105.437508 
L 79.863158 104.34276 
L 82.8 103.429278 
L 85.736842 102.472142 
L 88.673684 101.715754 
L 91.610526 101.233615 
L 94.547368 100.368564 
L 97.484211 99.077547 
L 100.421053 97.715708 
L 103.357895 96.286749 
L 106.294737 94.989699 
L 109.231579 94.584699 
L 112.168421 93.233671 
L 115.105263 91.241855 
L 118.042105 90.212538 
L 120.978947 88.415035 
L 123.915789 85.87467 
L 126.852632 83.759126 
L 129.789474 81.906606 
L 132.726316 79.857865 
L 135.663158 78.119347 
L 138.6 76.065163 
L 141.536842 74.543259 
L 144.473684 72.925317 
L 147.410526 70.722833 
L 150.347368 69.557885 
L 153.284211 67.79914 
L 156.221053 66.109981 
L 159.157895 64.572352 
L 162.094737 61.717419 
L 165.031579 58.881073 
L 167.968421 57.29229 
L 170.905263 54.728526 
L 173.842105 52.390264 
L 176.778947 50.180649 
L 179.715789 47.775452 
L 182.652632 46.692006 
L 185.589474 44.968495 
L 188.526316 42.611664 
L 191.463158 40.349676 
L 194.4 37.492923 
" style="fill:none;stroke:#7e9d90;stroke-linecap:round;stroke-width:0.5;"/>
    <defs>
     <path d="M 0 0.5 
C 0.132602 0.5 0.25979 0.447317 0.353553 0.353553 
C 0.447317 0.25979 0.5 0.132602 0.5 0 
C 0.5 -0.132602 0.447317 -0.25979 0.353553 -0.353553 
C 0.25979 -0.447317 0.132602 -0.5 0 -0.5 
C -0.132602 -0.5 -0.25979 -0.447317 -0.353553 -0.353553 
C -0.447317 -0.25979 -0.5 -0.132602 -0.5 0 
C -0.5 0.132602 -0.447317 0.25979 -0.353553 0.353553 
C -0.25979 0.447317 -0.132602 0.5 0 0.5 
z
" id="m9be825f53c" style="stroke:#7e9d90;"/>
    </defs>
    <g clip-path="url(#pc8a6072c4d)">
     <use style="fill:#7e9d90;stroke:#7e9d90;" x="27" xlink:href="#m9be825f53c" y="115.846551"/>
     <use style="fill:#7e9d90;stroke:#7e9d90;" x="29.936842" xlink:href="#m9be825f53c" y="115.527203"/>
     <use style="fill:#7e9d90;stroke:#7e9d90;" x="32.873684" xlink:href="#m9be825f53c" y="115.194041"/>
     <use style="fill:#7e9d90;stroke:#7e9d90;" x="35.810526" xlink:href="#m9be825f53c" y="114.750483"/>
     <use style="fill:#7e9d90;stroke:#7e9d90;" x="38.747368" xlink:href="#m9be825f53c" y="114.194542"/>
     <use style="fill:#7e9d90;stroke:#7e9d90;" x="41.684211" xlink:href="#m9be825f53c" y="113.720228"/>
     <use style="fill:#7e9d90;stroke:#7e9d90;" x="44.621053" xlink:href="#m9be825f53c" y="113.09134"/>
     <use style="fill:#7e9d90;stroke:#7e9d90;" x="47.557895" xlink:href="#m9be825f53c" y="112.658067"/>
     <use style="fill:#7e9d90;stroke:#7e9d90;" x="50.494737" xlink:href="#m9be825f53c" y="111.921124"/>
     <use style="fill:#7e9d90;stroke:#7e9d90;" x="53.431579" xlink:href="#m9be825f53c" y="110.966883"/>
     <use style="fill:#7e9d90;stroke:#7e9d90;" x="56.368421" xlink:href="#m9be825f53c" y="110.452126"/>
     <use style="fill:#7e9d90;stroke:#7e9d90;" x="59.305263" xlink:href="#m9be825f53c" y="109.711032"/>
     <use style="fill:#7e9d90;stroke:#7e9d90;" x="62.242105" xlink:href="#m9be825f53c" y="109.310319"/>
     <use style="fill:#7e9d90;stroke:#7e9d90;" x="65.178947" xlink:href="#m9be825f53c" y="108.790654"/>
     <use style="fill:#7e9d90;stroke:#7e9d90;" x="68.115789" xlink:href="#m9be825f53c" y="108.261264"/>
     <use style="fill:#7e9d90;stroke:#7e9d90;" x="71.052632" xlink:href="#m9be825f53c" y="107.538549"/>
     <use style="fill:#7e9d90;stroke:#7e9d90;" x="73.989474" xlink:href="#m9be825f53c" y="106.532992"/>
     <use style="fill:#7e9d90;stroke:#7e9d90;" x="76.926316" xlink:href="#m9be825f53c" y="105.437508"/>
     <use style="fill:#7e9d90;stroke:#7e9d90;" x="79.863158" xlink:href="#m9be825f53c" y="104.34276"/>
     <use style="fill:#7e9d90;stroke:#7e9d90;" x="82.8" xlink:href="#m9be825f53c" y="103.429278"/>
     <use style="fill:#7e9d90;stroke:#7e9d90;" x="85.736842" xlink:href="#m9be825f53c" y="102.472142"/>
     <use style="fill:#7e9d90;stroke:#7e9d90;" x="88.673684" xlink:href="#m9be825f53c" y="101.715754"/>
     <use style="fill:#7e9d90;stroke:#7e9d90;" x="91.610526" xlink:href="#m9be825f53c" y="101.233615"/>
     <use style="fill:#7e9d90;stroke:#7e9d90;" x="94.547368" xlink:href="#m9be825f53c" y="100.368564"/>
     <use style="fill:#7e9d90;stroke:#7e9d90;" x="97.484211" xlink:href="#m9be825f53c" y="99.077547"/>
     <use style="fill:#7e9d90;stroke:#7e9d90;" x="100.421053" xlink:href="#m9be825f53c" y="97.715708"/>
     <use style="fill:#7e9d90;stroke:#7e9d90;" x="103.357895" xlink:href="#m9be825f53c" y="96.286749"/>
     <use style="fill:#7e9d90;stroke:#7e9d90;" x="106.294737" xlink:href="#m9be825f53c" y="94.989699"/>
     <use style="fill:#7e9d90;stroke:#7e9d90;" x="109.231579" xlink:href="#m9be825f53c" y="94.584699"/>
     <use style="fill:#7e9d90;stroke:#7e9d90;" x="112.168421" xlink:href="#m9be825f53c" y="93.233671"/>
     <use style="fill:#7e9d90;stroke:#7e9d90;" x="115.105263" xlink:href="#m9be825f53c" y="91.241855"/>
     <use style="fill:#7e9d90;stroke:#7e9d90;" x="118.042105" xlink:href="#m9be825f53c" y="90.212538"/>
     <use style="fill:#7e9d90;stroke:#7e9d90;" x="120.978947" xlink:href="#m9be825f53c" y="88.415035"/>
     <use style="fill:#7e9d90;stroke:#7e9d90;" x="123.915789" xlink:href="#m9be825f53c" y="85.87467"/>
     <use style="fill:#7e9d90;stroke:#7e9d90;" x="126.852632" xlink:href="#m9be825f53c" y="83.759126"/>
     <use style="fill:#7e9d90;stroke:#7e9d90;" x="129.789474" xlink:href="#m9be825f53c" y="81.906606"/>
     <use style="fill:#7e9d90;stroke:#7e9d90;" x="132.726316" xlink:href="#m9be825f53c" y="79.857865"/>
     <use style="fill:#7e9d90;stroke:#7e9d90;" x="135.663158" xlink:href="#m9be825f53c" y="78.119347"/>
     <use style="fill:#7e9d90;stroke:#7e9d90;" x="138.6" xlink:href="#m9be825f53c" y="76.065163"/>
     <use style="fill:#7e9d90;stroke:#7e9d90;" x="141.536842" xlink:href="#m9be825f53c" y="74.543259"/>
     <use style="fill:#7e9d90;stroke:#7e9d90;" x="144.473684" xlink:href="#m9be825f53c" y="72.925317"/>
     <use style="fill:#7e9d90;stroke:#7e9d90;" x="147.410526" xlink:href="#m9be825f53c" y="70.722833"/>
     <use style="fill:#7e9d90;stroke:#7e9d90;" x="150.347368" xlink:href="#m9be825f53c" y="69.557885"/>
     <use style="fill:#7e9d90;stroke:#7e9d90;" x="153.284211" xlink:href="#m9be825f53c" y="67.79914"/>
     <use style="fill:#7e9d90;stroke:#7e9d90;" x="156.221053" xlink:href="#m9be825f53c" y="66.109981"/>
     <use style="fill:#7e9d90;stroke:#7e9d90;" x="159.157895" xlink:href="#m9be825f53c" y="64.572352"/>
     <use style="fill:#7e9d90;stroke:#7e9d90;" x="162.094737" xlink:href="#m9be825f53c" y="61.717419"/>
     <use style="fill:#7e9d90;stroke:#7e9d90;" x="165.031579" xlink:href="#m9be825f53c" y="58.881073"/>
     <use style="fill:#7e9d90;stroke:#7e9d90;" x="167.968421" xlink:href="#m9be825f53c" y="57.29229"/>
     <use style="fill:#7e9d90;stroke:#7e9d90;" x="170.905263" xlink:href="#m9be825f53c" y="54.728526"/>
     <use style="fill:#7e9d90;stroke:#7e9d90;" x="173.842105" xlink:href="#m9be825f53c" y="52.390264"/>
     <use style="fill:#7e9d90;stroke:#7e9d90;" x="176.778947" xlink:href="#m9be825f53c" y="50.180649"/>
     <use style="fill:#7e9d90;stroke:#7e9d90;" x="179.715789" xlink:href="#m9be825f53c" y="47.775452"/>
     <use style="fill:#7e9d90;stroke:#7e9d90;" x="182.652632" xlink:href="#m9be825f53c" y="46.692006"/>
     <use style="fill:#7e9d90;stroke:#7e9d90;" x="185.589474" xlink:href="#m9be825f53c" y="44.968495"/>
     <use style="fill:#7e9d90;stroke:#7e9d90;" x="188.526316" xlink:href="#m9be825f53c" y="42.611664"/>
     <use style="fill:#7e9d90;stroke:#7e9d90;" x="191.463158" xlink:href="#m9be825f53c" y="40.349676"/>
     <use style="fill:#7e9d90;stroke:#7e9d90;" x="194.4" xlink:href="#m9be825f53c" y="37.492923"/>
    </g>
   </g>
   <g id="patch_3">
    <path d="M 27 126 
L 27 17.28 
" style="fill:none;stroke:#ffffff;stroke-linecap:square;stroke-linejoin:miter;stroke-width:0.8;"/>
   </g>
   <g id="patch_4">
    <path d="M 194.4 126 
L 194.4 17.28 
" style="fill:none;stroke:#ffffff;stroke-linecap:square;stroke-linejoin:miter;stroke-width:0.8;"/>
   </g>
   <g id="patch_5">
    <path d="M 27 126 
L 194.4 126 
" style="fill:none;stroke:#ffffff;stroke-linecap:square;stroke-linejoin:miter;stroke-width:0.8;"/>
   </g>
   <g id="patch_6">
    <path d="M 27 17.28 
L 194.4 17.28 
" style="fill:none;stroke:#ffffff;stroke-linecap:square;stroke-linejoin:miter;stroke-width:0.8;"/>
   </g>
   <g id="legend_1">
    <g id="patch_7">
     <path d="M 28.2 15.1056 
L 176.544375 15.1056 
Q 177.744375 15.1056 177.744375 13.9056 
L 177.744375 5.652787 
Q 177.744375 4.452787 176.544375 4.452787 
L 28.2 4.452787 
Q 27 4.452787 27 5.652787 
L 27 13.9056 
Q 27 15.1056 28.2 15.1056 
z
" style="fill:#e3dcd0;opacity:0.8;stroke:#cccccc;stroke-linejoin:miter;"/>
    </g>
    <g id="line2d_4">
     <path d="M 29.4 9.378412 
L 33.9 9.378412 
" style="fill:none;stroke:#d56c55;stroke-linecap:round;stroke-width:0.5;"/>
    </g>
    <g id="line2d_5">
     <g>
      <use style="fill:#d56c55;stroke:#d56c55;" x="31.65" xlink:href="#md4c545bbd6" y="9.378412"/>
     </g>
    </g>
    <g id="text_13">
     <!-- poultry -->
     <defs>
      <path d="M 9.625 0 
L 9.625 77.09375 
L 19.234375 77.09375 
L 19.234375 0 
z
" id="LucidaSansUnicode-108"/>
     </defs>
     <g style="fill:#262626;" transform="translate(38.7 11.478412)scale(0.06 -0.06)">
      <use xlink:href="#LucidaSansUnicode-112"/>
      <use x="62.939453" xlink:href="#LucidaSansUnicode-111"/>
      <use x="124.365234" xlink:href="#LucidaSansUnicode-117"/>
      <use x="186.425781" xlink:href="#LucidaSansUnicode-108"/>
      <use x="215.332031" xlink:href="#LucidaSansUnicode-116"/>
      <use x="252.734375" xlink:href="#LucidaSansUnicode-114"/>
      <use x="293.652344" xlink:href="#LucidaSansUnicode-121"/>
     </g>
    </g>
    <g id="line2d_6">
     <path d="M 71.454375 9.378412 
L 75.954375 9.378412 
" style="fill:none;stroke:#ffffff;stroke-linecap:round;stroke-width:0.5;"/>
    </g>
    <g id="line2d_7">
     <g>
      <use style="fill:#ffffff;stroke:#ffffff;" x="73.704375" xlink:href="#m079ca97739" y="9.378412"/>
     </g>
    </g>
    <g id="text_14">
     <!-- eggs -->
     <g style="fill:#262626;" transform="translate(80.754375 11.478412)scale(0.06 -0.06)">
      <use xlink:href="#LucidaSansUnicode-101"/>
      <use x="55.712891" xlink:href="#LucidaSansUnicode-103"/>
      <use x="118.066406" xlink:href="#LucidaSansUnicode-103"/>
      <use x="180.419922" xlink:href="#LucidaSansUnicode-115"/>
     </g>
    </g>
    <g id="line2d_8">
     <path d="M 106.639688 9.378412 
L 111.139688 9.378412 
" style="fill:none;stroke:#7e9d90;stroke-linecap:round;stroke-width:0.5;"/>
    </g>
    <g id="line2d_9">
     <g>
      <use style="fill:#7e9d90;stroke:#7e9d90;" x="108.889688" xlink:href="#m9be825f53c" y="9.378412"/>
     </g>
    </g>
    <g id="text_15">
     <!-- total -->
     <g style="fill:#262626;" transform="translate(115.939688 11.478412)scale(0.06 -0.06)">
      <use xlink:href="#LucidaSansUnicode-116"/>
      <use x="37.402344" xlink:href="#LucidaSansUnicode-111"/>
      <use x="98.828125" xlink:href="#LucidaSansUnicode-116"/>
      <use x="136.230469" xlink:href="#LucidaSansUnicode-97"/>
      <use x="191.455078" xlink:href="#LucidaSansUnicode-108"/>
     </g>
    </g>
    <g id="line2d_10">
     <path d="M 141.16125 9.378412 
L 145.66125 9.378412 
" style="fill:none;stroke:#000000;stroke-dasharray:2.775,1.2;stroke-dashoffset:0;stroke-width:0.75;"/>
    </g>
    <g id="text_16">
     <!-- estimate -->
     <g style="fill:#262626;" transform="translate(150.46125 11.478412)scale(0.06 -0.06)">
      <use xlink:href="#LucidaSansUnicode-101"/>
      <use x="55.712891" xlink:href="#LucidaSansUnicode-115"/>
      <use x="106.689453" xlink:href="#LucidaSansUnicode-116"/>
      <use x="144.091797" xlink:href="#LucidaSansUnicode-105"/>
      <use x="172.998047" xlink:href="#LucidaSansUnicode-109"/>
      <use x="266.357422" xlink:href="#LucidaSansUnicode-97"/>
      <use x="321.582031" xlink:href="#LucidaSansUnicode-116"/>
      <use x="358.984375" xlink:href="#LucidaSansUnicode-101"/>
     </g>
    </g>
   </g>
  </g>
 </g>
 <defs>
  <clipPath id="pc8a6072c4d">
   <rect height="108.72" width="167.4" x="27" y="17.28"/>
  </clipPath>
 </defs>
</svg>
