<?xml version="1.0" encoding="utf-8" standalone="no"?>
<!DOCTYPE svg PUBLIC "-//W3C//DTD SVG 1.1//EN"
  "http://www.w3.org/Graphics/SVG/1.1/DTD/svg11.dtd">
<!-- Created with matplotlib (https://matplotlib.org/) -->
<svg height="126pt" version="1.1" viewBox="0 0 216 126" width="216pt" xmlns="http://www.w3.org/2000/svg" xmlns:xlink="http://www.w3.org/1999/xlink">
 <defs>
  <style type="text/css">
*{stroke-linecap:butt;stroke-linejoin:round;}
  </style>
 </defs>
 <g id="figure_1">
  <g id="patch_1">
   <path d="M 0 126 
L 216 126 
L 216 0 
L 0 0 
z
" style="fill:#ffffff;"/>
  </g>
  <g id="axes_1">
   <g id="patch_2">
    <path d="M 27 110.25 
L 194.4 110.25 
L 194.4 15.12 
L 27 15.12 
z
" style="fill:#e3dcd0;"/>
   </g>
   <g id="matplotlib.axis_1">
    <g id="xtick_1">
     <g id="text_1">
      <!-- 1970 -->
      <defs>
       <path d="M 26.171875 0 
L 26.171875 65.046875 
L 14.75 65.046875 
L 14.75 71.09375 
L 35.84375 72.90625 
L 35.84375 0 
z
" id="LucidaSansUnicode-49"/>
       <path d="M 11.375 0.4375 
L 11.375 8.59375 
Q 20.5625 5.421875 27 5.421875 
Q 35.984375 5.421875 41.03125 13.0625 
Q 46.09375 20.703125 46.09375 34.328125 
Q 38.765625 25.296875 29.4375 25.296875 
Q 20.3125 25.296875 13.96875 32 
Q 7.625 38.71875 7.625 48.390625 
Q 7.625 59.46875 14.375 66.765625 
Q 21.140625 74.078125 31.390625 74.078125 
Q 43.171875 74.078125 49.953125 64.625 
Q 56.734375 55.171875 56.734375 38.765625 
Q 56.734375 28.328125 53.46875 19.109375 
Q 50.203125 9.90625 44.671875 4.78125 
Q 37.59375 -1.8125 26.078125 -1.8125 
Q 20.40625 -1.8125 11.375 0.4375 
z
M 17.234375 50.046875 
Q 17.234375 41.796875 20.984375 37.015625 
Q 24.75 32.234375 31.15625 32.234375 
Q 37.3125 32.234375 41.625 36.375 
Q 45.953125 40.53125 45.953125 46.390625 
Q 45.953125 55.609375 41.765625 61.25 
Q 37.59375 66.890625 30.8125 66.890625 
Q 24.46875 66.890625 20.84375 62.390625 
Q 17.234375 57.90625 17.234375 50.046875 
z
" id="LucidaSansUnicode-57"/>
       <path d="M 15.046875 0 
Q 16.453125 8.453125 19.0625 14.59375 
Q 21.6875 20.75 28.328125 31.5 
L 48.046875 63.234375 
L 10.84375 63.234375 
L 10.84375 72.265625 
L 57.234375 72.265625 
L 57.234375 63.234375 
Q 29.4375 22.265625 26.125 0 
z
" id="LucidaSansUnicode-55"/>
       <path d="M 31.640625 -1.8125 
Q 20.265625 -1.8125 13.296875 8.609375 
Q 6.34375 19.046875 6.34375 36.140625 
Q 6.34375 53.21875 13.296875 63.640625 
Q 20.265625 74.078125 31.640625 74.078125 
Q 43.0625 74.078125 50 63.671875 
Q 56.9375 53.265625 56.9375 36.140625 
Q 56.9375 19.046875 50 8.609375 
Q 43.0625 -1.8125 31.640625 -1.8125 
z
M 31.640625 5.421875 
Q 46.734375 5.421875 46.734375 36.140625 
Q 46.734375 66.84375 31.640625 66.84375 
Q 16.609375 66.84375 16.609375 36.140625 
Q 16.609375 5.421875 31.640625 5.421875 
z
" id="LucidaSansUnicode-48"/>
      </defs>
      <g transform="translate(45.843454 118.375625)scale(0.06 -0.06)">
       <use xlink:href="#LucidaSansUnicode-49"/>
       <use x="63.232422" xlink:href="#LucidaSansUnicode-57"/>
       <use x="126.464844" xlink:href="#LucidaSansUnicode-55"/>
       <use x="189.697266" xlink:href="#LucidaSansUnicode-48"/>
      </g>
     </g>
    </g>
    <g id="xtick_2">
     <g id="text_2">
      <!-- 1980 -->
      <defs>
       <path d="M 23 39.359375 
Q 17.046875 43.5 14.71875 47.0625 
Q 12.40625 50.640625 12.40625 55.671875 
Q 12.40625 63.875 18.40625 69 
Q 24.421875 74.125 34.078125 74.125 
Q 43.015625 74.125 48.5625 69.78125 
Q 54.109375 65.4375 54.109375 58.5 
Q 54.109375 48 40.625 39.359375 
Q 56.984375 31.34375 56.984375 18.703125 
Q 56.984375 9.671875 50.140625 3.921875 
Q 43.3125 -1.8125 32.5625 -1.8125 
Q 21.828125 -1.8125 15.234375 3.578125 
Q 8.640625 8.984375 8.640625 17.78125 
Q 8.640625 30.765625 23 39.359375 
z
M 35.25 42.390625 
Q 45.359375 49.03125 45.359375 57.171875 
Q 45.359375 61.53125 41.96875 64.1875 
Q 38.578125 66.84375 33.109375 66.84375 
Q 27.78125 66.84375 24.453125 64.234375 
Q 21.140625 61.625 21.140625 57.46875 
Q 21.140625 53.421875 24.140625 50.1875 
Q 27.15625 46.96875 35.25 42.390625 
z
M 28.21875 35.453125 
Q 22.40625 30.953125 20.328125 27.609375 
Q 18.265625 24.265625 18.265625 19.28125 
Q 18.265625 13.09375 22.265625 9.25 
Q 26.265625 5.421875 32.8125 5.421875 
Q 39.109375 5.421875 43.09375 8.6875 
Q 47.078125 11.96875 47.078125 17.1875 
Q 47.078125 21.390625 44.609375 24.296875 
Q 42.140625 27.203125 35.0625 31.390625 
z
" id="LucidaSansUnicode-56"/>
      </defs>
      <g transform="translate(75.211875 118.375625)scale(0.06 -0.06)">
       <use xlink:href="#LucidaSansUnicode-49"/>
       <use x="63.232422" xlink:href="#LucidaSansUnicode-57"/>
       <use x="126.464844" xlink:href="#LucidaSansUnicode-56"/>
       <use x="189.697266" xlink:href="#LucidaSansUnicode-48"/>
      </g>
     </g>
    </g>
    <g id="xtick_3">
     <g id="text_3">
      <!-- 1990 -->
      <g transform="translate(104.580296 118.375625)scale(0.06 -0.06)">
       <use xlink:href="#LucidaSansUnicode-49"/>
       <use x="63.232422" xlink:href="#LucidaSansUnicode-57"/>
       <use x="126.464844" xlink:href="#LucidaSansUnicode-57"/>
       <use x="189.697266" xlink:href="#LucidaSansUnicode-48"/>
      </g>
     </g>
    </g>
    <g id="xtick_4">
     <g id="text_4">
      <!-- 2000 -->
      <defs>
       <path d="M 8.296875 0 
L 8.296875 8.453125 
Q 12.5 18.265625 25.296875 29.828125 
L 30.8125 34.765625 
Q 41.453125 44.390625 41.453125 53.859375 
Q 41.453125 59.90625 37.8125 63.375 
Q 34.1875 66.84375 27.78125 66.84375 
Q 20.3125 66.84375 10.109375 61.03125 
L 10.109375 69.53125 
Q 19.734375 74.078125 29.25 74.078125 
Q 39.40625 74.078125 45.53125 68.609375 
Q 51.65625 63.140625 51.65625 54.109375 
Q 51.65625 47.609375 48.546875 42.578125 
Q 45.453125 37.546875 37.015625 30.375 
L 33.296875 27.203125 
Q 21.734375 17.390625 19.921875 8.453125 
L 51.3125 8.453125 
L 51.3125 0 
z
" id="LucidaSansUnicode-50"/>
      </defs>
      <g transform="translate(133.948717 118.375625)scale(0.06 -0.06)">
       <use xlink:href="#LucidaSansUnicode-50"/>
       <use x="63.232422" xlink:href="#LucidaSansUnicode-48"/>
       <use x="126.464844" xlink:href="#LucidaSansUnicode-48"/>
       <use x="189.697266" xlink:href="#LucidaSansUnicode-48"/>
      </g>
     </g>
    </g>
    <g id="xtick_5">
     <g id="text_5">
      <!-- 2010 -->
      <g transform="translate(163.317138 118.375625)scale(0.06 -0.06)">
       <use xlink:href="#LucidaSansUnicode-50"/>
       <use x="63.232422" xlink:href="#LucidaSansUnicode-48"/>
       <use x="126.464844" xlink:href="#LucidaSansUnicode-49"/>
       <use x="189.697266" xlink:href="#LucidaSansUnicode-48"/>
      </g>
     </g>
    </g>
    <g id="text_6">
     <!-- year -->
     <defs>
      <path d="M 12.703125 -19.28125 
L 21.296875 0 
L 0.78125 53.03125 
L 11.1875 53.03125 
L 26.375 13.09375 
L 42.578125 53.03125 
L 51.65625 53.03125 
L 22.703125 -19.28125 
z
" id="LucidaSansUnicode-121"/>
      <path d="M 48.484375 1.703125 
Q 38.8125 -1.21875 31.9375 -1.21875 
Q 20.171875 -1.21875 12.796875 6.5625 
Q 5.421875 14.359375 5.421875 26.765625 
Q 5.421875 38.8125 11.9375 46.53125 
Q 18.453125 54.25 28.609375 54.25 
Q 38.234375 54.25 43.484375 47.390625 
Q 48.734375 40.53125 48.734375 27.9375 
L 48.6875 25 
L 15.234375 25 
Q 17.328125 6.109375 33.734375 6.109375 
Q 39.75 6.109375 48.484375 9.328125 
z
M 15.671875 32.234375 
L 39.0625 32.234375 
Q 39.0625 47.015625 28.03125 47.015625 
Q 16.9375 47.015625 15.671875 32.234375 
z
" id="LucidaSansUnicode-101"/>
      <path d="M 36.96875 6.734375 
Q 28.328125 -1.21875 20.3125 -1.21875 
Q 13.71875 -1.21875 9.375 2.90625 
Q 5.03125 7.03125 5.03125 13.328125 
Q 5.03125 22.015625 12.328125 26.671875 
Q 19.625 31.34375 33.296875 31.34375 
L 35.546875 31.34375 
L 35.546875 37.75 
Q 35.546875 46.96875 25.921875 46.96875 
Q 18.453125 46.96875 9.625 42.28125 
L 9.625 50.25 
Q 19.34375 54.203125 27.9375 54.203125 
Q 36.765625 54.203125 40.96875 50.171875 
Q 45.171875 46.140625 45.171875 37.75 
L 45.171875 13.71875 
Q 45.171875 5.46875 50.25 5.46875 
Q 50.875 5.46875 52.09375 5.671875 
L 52.78125 0.34375 
Q 49.515625 -1.21875 45.5625 -1.21875 
Q 38.8125 -1.21875 36.96875 6.734375 
z
M 35.546875 11.96875 
L 35.546875 25.6875 
L 32.46875 25.78125 
Q 24.46875 25.78125 19.5625 22.796875 
Q 14.65625 19.828125 14.65625 14.890625 
Q 14.65625 11.421875 17.09375 9.03125 
Q 19.53125 6.640625 23.046875 6.640625 
Q 29.046875 6.640625 35.546875 11.96875 
z
" id="LucidaSansUnicode-97"/>
      <path d="M 9.625 0 
L 9.625 53.03125 
L 19.234375 53.03125 
L 19.234375 43.0625 
Q 24.953125 54.203125 35.84375 54.203125 
Q 37.3125 54.203125 38.921875 53.953125 
L 38.921875 44.96875 
Q 36.421875 45.796875 34.515625 45.796875 
Q 25.390625 45.796875 19.234375 34.96875 
L 19.234375 0 
z
" id="LucidaSansUnicode-114"/>
     </defs>
     <g style="fill:#262626;" transform="translate(104.576719 128.158125)scale(0.06 -0.06)">
      <use xlink:href="#LucidaSansUnicode-121"/>
      <use x="52.246094" xlink:href="#LucidaSansUnicode-101"/>
      <use x="107.958984" xlink:href="#LucidaSansUnicode-97"/>
      <use x="163.183594" xlink:href="#LucidaSansUnicode-114"/>
     </g>
    </g>
   </g>
   <g id="matplotlib.axis_2">
    <g id="ytick_1">
     <g id="text_7">
      <!-- 0.0 -->
      <defs>
       <path d="M 9.765625 0 
L 9.765625 12.0625 
L 21.828125 12.0625 
L 21.828125 0 
z
" id="LucidaSansUnicode-46"/>
      </defs>
      <g transform="translate(14.013438 112.562813)scale(0.06 -0.06)">
       <use xlink:href="#LucidaSansUnicode-48"/>
       <use x="63.232422" xlink:href="#LucidaSansUnicode-46"/>
       <use x="94.873047" xlink:href="#LucidaSansUnicode-48"/>
      </g>
     </g>
    </g>
    <g id="ytick_2">
     <g id="text_8">
      <!-- 0.5 -->
      <defs>
       <path d="M 12.15625 -0.296875 
L 12.15625 8.296875 
Q 19.34375 5.421875 25.828125 5.421875 
Q 32.953125 5.421875 37.03125 9.609375 
Q 41.109375 13.8125 41.109375 21.1875 
Q 41.109375 29.109375 35.34375 33.28125 
Q 29.59375 37.453125 18.703125 37.453125 
Q 16.15625 37.453125 13.375 37.109375 
L 13.375 72.265625 
L 49.953125 72.265625 
L 49.953125 63.875 
L 21.828125 63.875 
L 21.828125 44.828125 
Q 35.75 44.828125 43.5625 38.421875 
Q 51.375 32.03125 51.375 20.703125 
Q 51.375 10.15625 44.265625 4.171875 
Q 37.15625 -1.8125 24.65625 -1.8125 
Q 19.09375 -1.8125 12.15625 -0.296875 
z
" id="LucidaSansUnicode-53"/>
      </defs>
      <g transform="translate(14.013438 91.422812)scale(0.06 -0.06)">
       <use xlink:href="#LucidaSansUnicode-48"/>
       <use x="63.232422" xlink:href="#LucidaSansUnicode-46"/>
       <use x="94.873047" xlink:href="#LucidaSansUnicode-53"/>
      </g>
     </g>
    </g>
    <g id="ytick_3">
     <g id="text_9">
      <!-- 1.0 -->
      <g transform="translate(14.013438 70.282813)scale(0.06 -0.06)">
       <use xlink:href="#LucidaSansUnicode-49"/>
       <use x="63.232422" xlink:href="#LucidaSansUnicode-46"/>
       <use x="94.873047" xlink:href="#LucidaSansUnicode-48"/>
      </g>
     </g>
    </g>
    <g id="ytick_4">
     <g id="text_10">
      <!-- 1.5 -->
      <g transform="translate(14.013438 49.142813)scale(0.06 -0.06)">
       <use xlink:href="#LucidaSansUnicode-49"/>
       <use x="63.232422" xlink:href="#LucidaSansUnicode-46"/>
       <use x="94.873047" xlink:href="#LucidaSansUnicode-53"/>
      </g>
     </g>
    </g>
    <g id="ytick_5">
     <g id="text_11">
      <!-- 2.0 -->
      <g transform="translate(14.013438 28.002813)scale(0.06 -0.06)">
       <use xlink:href="#LucidaSansUnicode-50"/>
       <use x="63.232422" xlink:href="#LucidaSansUnicode-46"/>
       <use x="94.873047" xlink:href="#LucidaSansUnicode-48"/>
      </g>
     </g>
    </g>
    <g id="text_12">
     <!-- mass of chicken -->
     <defs>
      <path d="M 9.625 0 
L 9.625 53.03125 
L 19.234375 53.03125 
L 19.234375 43.0625 
Q 26.265625 54.203125 37.3125 54.203125 
Q 47.953125 54.203125 51.8125 43.0625 
Q 58.640625 54.25 69.578125 54.25 
Q 76.5625 54.25 80.4375 50.125 
Q 84.328125 46 84.328125 38.578125 
L 84.328125 0 
L 74.65625 0 
L 74.65625 37.0625 
Q 74.65625 46.140625 67.484375 46.140625 
Q 60.015625 46.140625 51.8125 35.546875 
L 51.8125 0 
L 42.140625 0 
L 42.140625 37.0625 
Q 42.140625 46.1875 34.8125 46.1875 
Q 27.546875 46.1875 19.234375 35.546875 
L 19.234375 0 
z
" id="LucidaSansUnicode-109"/>
      <path d="M 7.671875 1.859375 
L 7.671875 10.6875 
Q 17.09375 6 24.078125 6 
Q 28.21875 6 30.953125 8.25 
Q 33.6875 10.5 33.6875 13.875 
Q 33.6875 18.796875 26.03125 22.015625 
L 20.40625 24.421875 
Q 7.953125 29.59375 7.953125 39.3125 
Q 7.953125 46.234375 12.859375 50.21875 
Q 17.78125 54.203125 26.3125 54.203125 
Q 30.765625 54.203125 37.3125 52.984375 
L 39.3125 52.59375 
L 39.3125 44.578125 
Q 31.25 46.96875 26.46875 46.96875 
Q 22.265625 46.96875 19.75 45.140625 
Q 17.234375 43.3125 17.234375 40.234375 
Q 17.234375 35.890625 24.265625 32.90625 
L 28.90625 30.953125 
Q 36.765625 27.640625 40.03125 23.953125 
Q 43.3125 20.265625 43.3125 14.75 
Q 43.3125 7.765625 37.796875 3.265625 
Q 32.28125 -1.21875 23.6875 -1.21875 
Q 17.09375 -1.21875 7.671875 1.859375 
z
" id="LucidaSansUnicode-115"/>
      <path id="LucidaSansUnicode-32"/>
      <path d="M 30.71875 -1.21875 
Q 19.046875 -1.21875 12.234375 6.25 
Q 5.421875 13.71875 5.421875 26.515625 
Q 5.421875 39.3125 12.234375 46.75 
Q 19.046875 54.203125 30.71875 54.203125 
Q 42.390625 54.203125 49.1875 46.75 
Q 56 39.3125 56 26.515625 
Q 56 13.71875 49.1875 6.25 
Q 42.390625 -1.21875 30.71875 -1.21875 
z
M 30.71875 6 
Q 37.890625 6 41.84375 11.375 
Q 45.796875 16.75 45.796875 26.515625 
Q 45.796875 36.28125 41.84375 41.625 
Q 37.890625 46.96875 30.71875 46.96875 
Q 23.53125 46.96875 19.59375 41.625 
Q 15.671875 36.28125 15.671875 26.515625 
Q 15.671875 16.75 19.59375 11.375 
Q 23.53125 6 30.71875 6 
z
" id="LucidaSansUnicode-111"/>
      <path d="M 11.421875 0 
L 11.421875 45.796875 
L 3.90625 45.796875 
L 3.90625 53.03125 
L 11.421875 53.03125 
L 11.421875 59.375 
Q 11.421875 78.328125 28.71875 78.328125 
Q 33.546875 78.328125 39.703125 76.703125 
L 39.703125 69.09375 
Q 33.203125 71.09375 29.296875 71.09375 
Q 24.5625 71.09375 22.828125 68.8125 
Q 21.09375 66.546875 21.09375 60.40625 
L 21.09375 53.03125 
L 34.328125 53.03125 
L 34.328125 45.796875 
L 21.09375 45.796875 
L 21.09375 0 
z
" id="LucidaSansUnicode-102"/>
      <path d="M 46.4375 1.609375 
Q 37.109375 -1.21875 30.328125 -1.21875 
Q 19.578125 -1.21875 12.5 6.734375 
Q 5.421875 14.703125 5.421875 26.8125 
Q 5.421875 39.75 12.421875 46.96875 
Q 19.4375 54.203125 31.984375 54.203125 
Q 38.1875 54.203125 45.84375 52.484375 
L 45.84375 44.4375 
Q 37.703125 46.828125 32.5625 46.828125 
Q 25.140625 46.828125 20.703125 41.28125 
Q 16.265625 35.75 16.265625 26.515625 
Q 16.265625 17.578125 20.84375 12.0625 
Q 25.4375 6.546875 32.859375 6.546875 
Q 39.453125 6.546875 46.4375 9.90625 
z
" id="LucidaSansUnicode-99"/>
      <path d="M 9.625 0 
L 9.625 77.09375 
L 19.234375 77.09375 
L 19.234375 43.0625 
Q 26.859375 54.203125 37.890625 54.203125 
Q 44.828125 54.203125 48.90625 49.828125 
Q 52.984375 45.453125 52.984375 38.09375 
L 52.984375 0 
L 43.359375 0 
L 43.359375 34.96875 
Q 43.359375 40.875 41.625 43.390625 
Q 39.890625 45.90625 35.890625 45.90625 
Q 27.046875 45.90625 19.234375 34.328125 
L 19.234375 0 
z
" id="LucidaSansUnicode-104"/>
      <path d="M 9.625 0 
L 9.625 53.03125 
L 19.234375 53.03125 
L 19.234375 0 
z
M 9.625 62.640625 
L 9.625 72.265625 
L 19.234375 72.265625 
L 19.234375 62.640625 
z
" id="LucidaSansUnicode-105"/>
      <path d="M 9.625 0 
L 9.625 77.09375 
L 19.234375 77.09375 
L 19.234375 27.296875 
L 41.703125 53.03125 
L 52.046875 53.03125 
L 30.609375 28.265625 
L 56.5 0 
L 44.1875 0 
L 19.234375 27.203125 
L 19.234375 0 
z
" id="LucidaSansUnicode-107"/>
      <path d="M 9.625 0 
L 9.625 53.03125 
L 19.234375 53.03125 
L 19.234375 43.0625 
Q 26.859375 54.203125 37.890625 54.203125 
Q 44.828125 54.203125 48.90625 49.828125 
Q 52.984375 45.453125 52.984375 38.09375 
L 52.984375 0 
L 43.359375 0 
L 43.359375 34.96875 
Q 43.359375 40.875 41.625 43.390625 
Q 39.890625 45.90625 35.890625 45.90625 
Q 27.046875 45.90625 19.234375 34.328125 
L 19.234375 0 
z
" id="LucidaSansUnicode-110"/>
     </defs>
     <g style="fill:#262626;" transform="translate(1.548562 86.134687)rotate(-90)scale(0.06 -0.06)">
      <use xlink:href="#LucidaSansUnicode-109"/>
      <use x="93.359375" xlink:href="#LucidaSansUnicode-97"/>
      <use x="148.583984" xlink:href="#LucidaSansUnicode-115"/>
      <use x="199.560547" xlink:href="#LucidaSansUnicode-115"/>
      <use x="250.537109" xlink:href="#LucidaSansUnicode-32"/>
      <use x="282.177734" xlink:href="#LucidaSansUnicode-111"/>
      <use x="343.603516" xlink:href="#LucidaSansUnicode-102"/>
      <use x="380.371094" xlink:href="#LucidaSansUnicode-32"/>
      <use x="412.011719" xlink:href="#LucidaSansUnicode-99"/>
      <use x="463.232422" xlink:href="#LucidaSansUnicode-104"/>
      <use x="525.292969" xlink:href="#LucidaSansUnicode-105"/>
      <use x="554.199219" xlink:href="#LucidaSansUnicode-99"/>
      <use x="605.419922" xlink:href="#LucidaSansUnicode-107"/>
      <use x="663.867188" xlink:href="#LucidaSansUnicode-101"/>
      <use x="719.580078" xlink:href="#LucidaSansUnicode-110"/>
     </g>
     <!-- product [10$^{11}$ kg] -->
     <defs>
      <path d="M 9.625 -19.28125 
L 9.625 53.03125 
L 19.234375 53.03125 
L 19.234375 43.0625 
Q 25.140625 54.203125 36.96875 54.203125 
Q 46.53125 54.203125 52.015625 47.21875 
Q 57.515625 40.234375 57.515625 28.125 
Q 57.515625 14.9375 51.28125 6.859375 
Q 45.0625 -1.21875 34.90625 -1.21875 
Q 25.484375 -1.21875 19.234375 6 
L 19.234375 -19.28125 
z
M 19.234375 12.640625 
Q 26.65625 6 33.40625 6 
Q 40.046875 6 43.65625 11.546875 
Q 47.265625 17.09375 47.265625 27.15625 
Q 47.265625 45.796875 34.96875 45.796875 
Q 26.90625 45.796875 19.234375 37.0625 
z
" id="LucidaSansUnicode-112"/>
      <path d="M 43.65625 0 
L 43.65625 9.96875 
Q 37.796875 -1.21875 25.984375 -1.21875 
Q 16.40625 -1.21875 10.90625 5.765625 
Q 5.421875 12.75 5.421875 24.859375 
Q 5.421875 38.09375 11.640625 46.140625 
Q 17.875 54.203125 28.03125 54.203125 
Q 37.453125 54.203125 43.65625 46.96875 
L 43.65625 77.09375 
L 53.328125 77.09375 
L 53.328125 0 
z
M 43.65625 40.375 
Q 36.1875 46.96875 29.5 46.96875 
Q 22.90625 46.96875 19.28125 41.453125 
Q 15.671875 35.9375 15.671875 25.828125 
Q 15.671875 7.234375 27.984375 7.234375 
Q 35.984375 7.234375 43.65625 15.96875 
z
" id="LucidaSansUnicode-100"/>
      <path d="M 42.78125 0 
L 42.78125 9.96875 
Q 35.109375 -1.21875 24.171875 -1.21875 
Q 17.234375 -1.21875 13.125 3.140625 
Q 9.03125 7.515625 9.03125 14.9375 
L 9.03125 53.03125 
L 18.65625 53.03125 
L 18.65625 18.0625 
Q 18.65625 12.109375 20.390625 9.59375 
Q 22.125 7.078125 26.171875 7.078125 
Q 34.96875 7.078125 42.78125 18.65625 
L 42.78125 53.03125 
L 52.390625 53.03125 
L 52.390625 0 
z
" id="LucidaSansUnicode-117"/>
      <path d="M 33.25 0 
Q 28.8125 -1.21875 25.53125 -1.21875 
Q 18.21875 -1.21875 14.109375 2.96875 
Q 10.015625 7.171875 10.015625 14.65625 
L 10.015625 45.796875 
L 3.375 45.796875 
L 3.375 53.03125 
L 10.015625 53.03125 
L 10.015625 62.640625 
L 19.625 63.578125 
L 19.625 53.03125 
L 33.5 53.03125 
L 33.5 45.796875 
L 19.625 45.796875 
L 19.625 16.40625 
Q 19.625 6 28.609375 6 
Q 30.515625 6 33.25 6.640625 
z
" id="LucidaSansUnicode-116"/>
      <path d="M 9.625 -14.453125 
L 9.625 77.09375 
L 28.90625 77.09375 
L 28.90625 69.875 
L 18.0625 69.875 
L 18.0625 -7.234375 
L 28.90625 -7.234375 
L 28.90625 -14.453125 
z
" id="LucidaSansUnicode-91"/>
      <path d="M 30.203125 0 
L 22.296875 0 
L 22.296875 57 
Q 20.09375 56 15.75 53.75 
Q 11.40625 51.5 10.796875 51.203125 
L 10.796875 58.5 
L 28.796875 67.703125 
L 30.203125 67.203125 
z
" id="STIXGeneral-Regular-120803"/>
      <path d="M 9.8125 -17.625 
L 10.9375 -9.28125 
Q 19.28125 -13.234375 27.4375 -13.234375 
Q 43.65625 -13.234375 43.65625 4 
L 43.65625 12.359375 
Q 41.15625 7.078125 36.546875 4.140625 
Q 31.9375 1.21875 26.265625 1.21875 
Q 16.65625 1.21875 11.03125 8.125 
Q 5.421875 15.046875 5.421875 26.859375 
Q 5.421875 38.96875 11.8125 46.578125 
Q 18.21875 54.203125 28.375 54.203125 
Q 37.25 54.203125 43.65625 46.96875 
L 43.65625 53.03125 
L 53.328125 53.03125 
L 53.328125 14.453125 
Q 53.328125 2 52.03125 -3.984375 
Q 50.734375 -9.96875 47.171875 -13.765625 
Q 40.875 -20.453125 27.484375 -20.453125 
Q 18.3125 -20.453125 9.8125 -17.625 
z
M 43.65625 18.359375 
L 43.65625 40.375 
Q 37.3125 46.96875 29.828125 46.96875 
Q 23.1875 46.96875 19.421875 41.640625 
Q 15.671875 36.328125 15.671875 26.90625 
Q 15.671875 9.625 27.9375 9.625 
Q 36.28125 9.625 43.65625 18.359375 
z
" id="LucidaSansUnicode-103"/>
      <path d="M 22.90625 77.09375 
L 22.90625 -14.453125 
L 3.609375 -14.453125 
L 3.609375 -7.234375 
L 14.453125 -7.234375 
L 14.453125 69.875 
L 3.609375 69.875 
L 3.609375 77.09375 
z
" id="LucidaSansUnicode-93"/>
     </defs>
     <g style="fill:#262626;" transform="translate(8.753437 87.525)rotate(-90)scale(0.06 -0.06)">
      <use transform="translate(0 0.370312)" xlink:href="#LucidaSansUnicode-112"/>
      <use transform="translate(62.939453 0.370312)" xlink:href="#LucidaSansUnicode-114"/>
      <use transform="translate(103.857422 0.370312)" xlink:href="#LucidaSansUnicode-111"/>
      <use transform="translate(165.283203 0.370312)" xlink:href="#LucidaSansUnicode-100"/>
      <use transform="translate(228.222656 0.370312)" xlink:href="#LucidaSansUnicode-117"/>
      <use transform="translate(290.283203 0.370312)" xlink:href="#LucidaSansUnicode-99"/>
      <use transform="translate(341.503906 0.370312)" xlink:href="#LucidaSansUnicode-116"/>
      <use transform="translate(378.90625 0.370312)" xlink:href="#LucidaSansUnicode-32"/>
      <use transform="translate(410.546875 0.370312)" xlink:href="#LucidaSansUnicode-91"/>
      <use transform="translate(443.066406 0.370312)" xlink:href="#LucidaSansUnicode-49"/>
      <use transform="translate(506.298828 0.370312)" xlink:href="#LucidaSansUnicode-48"/>
      <use transform="translate(570.323945 36.607813)scale(0.7)" xlink:href="#STIXGeneral-Regular-120803"/>
      <use transform="translate(605.323935 36.607813)scale(0.7)" xlink:href="#STIXGeneral-Regular-120803"/>
      <use transform="translate(642.588768 0.370312)" xlink:href="#LucidaSansUnicode-32"/>
      <use transform="translate(674.229393 0.370312)" xlink:href="#LucidaSansUnicode-107"/>
      <use transform="translate(732.676658 0.370312)" xlink:href="#LucidaSansUnicode-103"/>
      <use transform="translate(795.030174 0.370312)" xlink:href="#LucidaSansUnicode-93"/>
     </g>
    </g>
   </g>
   <g id="LineCollection_1">
    <path clip-path="url(#p32954966db)" d="M 27 46.83 
L 194.4 46.83 
" style="fill:none;stroke:#000000;stroke-dasharray:2.775,1.2;stroke-dashoffset:0;stroke-width:0.75;"/>
   </g>
   <g id="line2d_1">
    <path clip-path="url(#p32954966db)" d="M 27 107.055362 
L 29.936842 106.916454 
L 32.873684 106.710058 
L 35.810526 106.581155 
L 38.747368 106.269417 
L 41.684211 106.022597 
L 44.621053 105.783018 
L 47.557895 105.585737 
L 50.494737 105.200729 
L 53.431579 104.69422 
L 56.368421 104.478605 
L 59.305263 104.054466 
L 62.242105 103.776601 
L 65.178947 103.515746 
L 68.115789 103.319789 
L 71.052632 102.829995 
L 73.989474 102.352983 
L 76.926316 101.780059 
L 79.863158 101.083791 
L 82.8 100.569221 
L 85.736842 99.970844 
L 88.673684 99.601993 
L 91.610526 99.366746 
L 94.547368 99.143579 
L 97.484211 98.612943 
L 100.421053 97.86524 
L 103.357895 96.945043 
L 106.294737 96.334325 
L 109.231579 96.060826 
L 112.168421 95.276024 
L 115.105263 94.094716 
L 118.042105 93.390415 
L 120.978947 92.310595 
L 123.915789 91.306504 
L 126.852632 90.147066 
L 129.789474 89.470761 
L 132.726316 88.151784 
L 135.663158 87.217169 
L 138.6 86.206945 
L 141.536842 85.441618 
L 144.473684 84.458245 
L 147.410526 83.119918 
L 150.347368 82.412626 
L 153.284211 81.399663 
L 156.221053 80.39711 
L 159.157895 79.505421 
L 162.094737 77.681619 
L 165.031579 76.070895 
L 167.968421 75.144687 
L 170.905263 73.36848 
L 173.842105 71.817209 
L 176.778947 70.460423 
L 179.715789 68.970228 
L 182.652632 67.784955 
L 185.589474 66.388668 
L 188.526316 65.163239 
L 191.463158 63.641506 
L 194.4 61.938018 
" style="fill:none;stroke:#d56c55;stroke-linecap:round;stroke-width:0.5;"/>
    <defs>
     <path d="M 0 0.5 
C 0.132602 0.5 0.25979 0.447317 0.353553 0.353553 
C 0.447317 0.25979 0.5 0.132602 0.5 0 
C 0.5 -0.132602 0.447317 -0.25979 0.353553 -0.353553 
C 0.25979 -0.447317 0.132602 -0.5 0 -0.5 
C -0.132602 -0.5 -0.25979 -0.447317 -0.353553 -0.353553 
C -0.447317 -0.25979 -0.5 -0.132602 -0.5 0 
C -0.5 0.132602 -0.447317 0.25979 -0.353553 0.353553 
C -0.25979 0.447317 -0.132602 0.5 0 0.5 
z
" id="m1b23a3c95e" style="stroke:#d56c55;"/>
    </defs>
    <g clip-path="url(#p32954966db)">
     <use style="fill:#d56c55;stroke:#d56c55;" x="27" xlink:href="#m1b23a3c95e" y="107.055362"/>
     <use style="fill:#d56c55;stroke:#d56c55;" x="29.936842" xlink:href="#m1b23a3c95e" y="106.916454"/>
     <use style="fill:#d56c55;stroke:#d56c55;" x="32.873684" xlink:href="#m1b23a3c95e" y="106.710058"/>
     <use style="fill:#d56c55;stroke:#d56c55;" x="35.810526" xlink:href="#m1b23a3c95e" y="106.581155"/>
     <use style="fill:#d56c55;stroke:#d56c55;" x="38.747368" xlink:href="#m1b23a3c95e" y="106.269417"/>
     <use style="fill:#d56c55;stroke:#d56c55;" x="41.684211" xlink:href="#m1b23a3c95e" y="106.022597"/>
     <use style="fill:#d56c55;stroke:#d56c55;" x="44.621053" xlink:href="#m1b23a3c95e" y="105.783018"/>
     <use style="fill:#d56c55;stroke:#d56c55;" x="47.557895" xlink:href="#m1b23a3c95e" y="105.585737"/>
     <use style="fill:#d56c55;stroke:#d56c55;" x="50.494737" xlink:href="#m1b23a3c95e" y="105.200729"/>
     <use style="fill:#d56c55;stroke:#d56c55;" x="53.431579" xlink:href="#m1b23a3c95e" y="104.69422"/>
     <use style="fill:#d56c55;stroke:#d56c55;" x="56.368421" xlink:href="#m1b23a3c95e" y="104.478605"/>
     <use style="fill:#d56c55;stroke:#d56c55;" x="59.305263" xlink:href="#m1b23a3c95e" y="104.054466"/>
     <use style="fill:#d56c55;stroke:#d56c55;" x="62.242105" xlink:href="#m1b23a3c95e" y="103.776601"/>
     <use style="fill:#d56c55;stroke:#d56c55;" x="65.178947" xlink:href="#m1b23a3c95e" y="103.515746"/>
     <use style="fill:#d56c55;stroke:#d56c55;" x="68.115789" xlink:href="#m1b23a3c95e" y="103.319789"/>
     <use style="fill:#d56c55;stroke:#d56c55;" x="71.052632" xlink:href="#m1b23a3c95e" y="102.829995"/>
     <use style="fill:#d56c55;stroke:#d56c55;" x="73.989474" xlink:href="#m1b23a3c95e" y="102.352983"/>
     <use style="fill:#d56c55;stroke:#d56c55;" x="76.926316" xlink:href="#m1b23a3c95e" y="101.780059"/>
     <use style="fill:#d56c55;stroke:#d56c55;" x="79.863158" xlink:href="#m1b23a3c95e" y="101.083791"/>
     <use style="fill:#d56c55;stroke:#d56c55;" x="82.8" xlink:href="#m1b23a3c95e" y="100.569221"/>
     <use style="fill:#d56c55;stroke:#d56c55;" x="85.736842" xlink:href="#m1b23a3c95e" y="99.970844"/>
     <use style="fill:#d56c55;stroke:#d56c55;" x="88.673684" xlink:href="#m1b23a3c95e" y="99.601993"/>
     <use style="fill:#d56c55;stroke:#d56c55;" x="91.610526" xlink:href="#m1b23a3c95e" y="99.366746"/>
     <use style="fill:#d56c55;stroke:#d56c55;" x="94.547368" xlink:href="#m1b23a3c95e" y="99.143579"/>
     <use style="fill:#d56c55;stroke:#d56c55;" x="97.484211" xlink:href="#m1b23a3c95e" y="98.612943"/>
     <use style="fill:#d56c55;stroke:#d56c55;" x="100.421053" xlink:href="#m1b23a3c95e" y="97.86524"/>
     <use style="fill:#d56c55;stroke:#d56c55;" x="103.357895" xlink:href="#m1b23a3c95e" y="96.945043"/>
     <use style="fill:#d56c55;stroke:#d56c55;" x="106.294737" xlink:href="#m1b23a3c95e" y="96.334325"/>
     <use style="fill:#d56c55;stroke:#d56c55;" x="109.231579" xlink:href="#m1b23a3c95e" y="96.060826"/>
     <use style="fill:#d56c55;stroke:#d56c55;" x="112.168421" xlink:href="#m1b23a3c95e" y="95.276024"/>
     <use style="fill:#d56c55;stroke:#d56c55;" x="115.105263" xlink:href="#m1b23a3c95e" y="94.094716"/>
     <use style="fill:#d56c55;stroke:#d56c55;" x="118.042105" xlink:href="#m1b23a3c95e" y="93.390415"/>
     <use style="fill:#d56c55;stroke:#d56c55;" x="120.978947" xlink:href="#m1b23a3c95e" y="92.310595"/>
     <use style="fill:#d56c55;stroke:#d56c55;" x="123.915789" xlink:href="#m1b23a3c95e" y="91.306504"/>
     <use style="fill:#d56c55;stroke:#d56c55;" x="126.852632" xlink:href="#m1b23a3c95e" y="90.147066"/>
     <use style="fill:#d56c55;stroke:#d56c55;" x="129.789474" xlink:href="#m1b23a3c95e" y="89.470761"/>
     <use style="fill:#d56c55;stroke:#d56c55;" x="132.726316" xlink:href="#m1b23a3c95e" y="88.151784"/>
     <use style="fill:#d56c55;stroke:#d56c55;" x="135.663158" xlink:href="#m1b23a3c95e" y="87.217169"/>
     <use style="fill:#d56c55;stroke:#d56c55;" x="138.6" xlink:href="#m1b23a3c95e" y="86.206945"/>
     <use style="fill:#d56c55;stroke:#d56c55;" x="141.536842" xlink:href="#m1b23a3c95e" y="85.441618"/>
     <use style="fill:#d56c55;stroke:#d56c55;" x="144.473684" xlink:href="#m1b23a3c95e" y="84.458245"/>
     <use style="fill:#d56c55;stroke:#d56c55;" x="147.410526" xlink:href="#m1b23a3c95e" y="83.119918"/>
     <use style="fill:#d56c55;stroke:#d56c55;" x="150.347368" xlink:href="#m1b23a3c95e" y="82.412626"/>
     <use style="fill:#d56c55;stroke:#d56c55;" x="153.284211" xlink:href="#m1b23a3c95e" y="81.399663"/>
     <use style="fill:#d56c55;stroke:#d56c55;" x="156.221053" xlink:href="#m1b23a3c95e" y="80.39711"/>
     <use style="fill:#d56c55;stroke:#d56c55;" x="159.157895" xlink:href="#m1b23a3c95e" y="79.505421"/>
     <use style="fill:#d56c55;stroke:#d56c55;" x="162.094737" xlink:href="#m1b23a3c95e" y="77.681619"/>
     <use style="fill:#d56c55;stroke:#d56c55;" x="165.031579" xlink:href="#m1b23a3c95e" y="76.070895"/>
     <use style="fill:#d56c55;stroke:#d56c55;" x="167.968421" xlink:href="#m1b23a3c95e" y="75.144687"/>
     <use style="fill:#d56c55;stroke:#d56c55;" x="170.905263" xlink:href="#m1b23a3c95e" y="73.36848"/>
     <use style="fill:#d56c55;stroke:#d56c55;" x="173.842105" xlink:href="#m1b23a3c95e" y="71.817209"/>
     <use style="fill:#d56c55;stroke:#d56c55;" x="176.778947" xlink:href="#m1b23a3c95e" y="70.460423"/>
     <use style="fill:#d56c55;stroke:#d56c55;" x="179.715789" xlink:href="#m1b23a3c95e" y="68.970228"/>
     <use style="fill:#d56c55;stroke:#d56c55;" x="182.652632" xlink:href="#m1b23a3c95e" y="67.784955"/>
     <use style="fill:#d56c55;stroke:#d56c55;" x="185.589474" xlink:href="#m1b23a3c95e" y="66.388668"/>
     <use style="fill:#d56c55;stroke:#d56c55;" x="188.526316" xlink:href="#m1b23a3c95e" y="65.163239"/>
     <use style="fill:#d56c55;stroke:#d56c55;" x="191.463158" xlink:href="#m1b23a3c95e" y="63.641506"/>
     <use style="fill:#d56c55;stroke:#d56c55;" x="194.4" xlink:href="#m1b23a3c95e" y="61.938018"/>
    </g>
   </g>
   <g id="line2d_2">
    <path clip-path="url(#p32954966db)" d="M 27 104.56037 
L 29.936842 104.419848 
L 32.873684 104.334727 
L 35.810526 104.075518 
L 38.747368 103.900807 
L 41.684211 103.732602 
L 44.621053 103.421905 
L 47.557895 103.240071 
L 50.494737 102.980255 
L 53.431579 102.651803 
L 56.368421 102.417005 
L 59.305263 102.192687 
L 62.242105 102.119927 
L 65.178947 101.926076 
L 68.115789 101.658817 
L 71.052632 101.516235 
L 73.989474 101.113385 
L 76.926316 100.72776 
L 79.863158 100.466124 
L 82.8 100.181397 
L 85.736842 99.94228 
L 88.673684 99.649292 
L 91.610526 99.462667 
L 94.547368 98.928914 
L 97.484211 98.329911 
L 100.421053 97.886005 
L 103.357895 97.555863 
L 106.294737 97.031661 
L 109.231579 96.950786 
L 112.168421 96.553438 
L 115.105263 95.991906 
L 118.042105 95.795557 
L 120.978947 95.302561 
L 123.915789 94.083833 
L 126.852632 93.392169 
L 129.789474 92.44752 
L 132.726316 91.973848 
L 135.663158 91.387259 
L 138.6 90.600072 
L 141.536842 90.033734 
L 144.473684 89.601408 
L 147.410526 89.012561 
L 150.347368 88.700524 
L 153.284211 88.174585 
L 156.221053 87.699123 
L 159.157895 87.245387 
L 162.094737 86.571123 
L 165.031579 85.700044 
L 167.968421 85.236067 
L 170.905263 84.768981 
L 173.842105 84.274272 
L 176.778947 83.697645 
L 179.715789 83.083292 
L 182.652632 83.32055 
L 185.589474 83.208766 
L 188.526316 82.371967 
L 191.463158 81.91446 
L 194.4 81.11829 
" style="fill:none;stroke:#ffffff;stroke-linecap:round;stroke-width:0.5;"/>
    <defs>
     <path d="M 0 0.5 
C 0.132602 0.5 0.25979 0.447317 0.353553 0.353553 
C 0.447317 0.25979 0.5 0.132602 0.5 0 
C 0.5 -0.132602 0.447317 -0.25979 0.353553 -0.353553 
C 0.25979 -0.447317 0.132602 -0.5 0 -0.5 
C -0.132602 -0.5 -0.25979 -0.447317 -0.353553 -0.353553 
C -0.447317 -0.25979 -0.5 -0.132602 -0.5 0 
C -0.5 0.132602 -0.447317 0.25979 -0.353553 0.353553 
C -0.25979 0.447317 -0.132602 0.5 0 0.5 
z
" id="me58630af99" style="stroke:#ffffff;"/>
    </defs>
    <g clip-path="url(#p32954966db)">
     <use style="fill:#ffffff;stroke:#ffffff;" x="27" xlink:href="#me58630af99" y="104.56037"/>
     <use style="fill:#ffffff;stroke:#ffffff;" x="29.936842" xlink:href="#me58630af99" y="104.419848"/>
     <use style="fill:#ffffff;stroke:#ffffff;" x="32.873684" xlink:href="#me58630af99" y="104.334727"/>
     <use style="fill:#ffffff;stroke:#ffffff;" x="35.810526" xlink:href="#me58630af99" y="104.075518"/>
     <use style="fill:#ffffff;stroke:#ffffff;" x="38.747368" xlink:href="#me58630af99" y="103.900807"/>
     <use style="fill:#ffffff;stroke:#ffffff;" x="41.684211" xlink:href="#me58630af99" y="103.732602"/>
     <use style="fill:#ffffff;stroke:#ffffff;" x="44.621053" xlink:href="#me58630af99" y="103.421905"/>
     <use style="fill:#ffffff;stroke:#ffffff;" x="47.557895" xlink:href="#me58630af99" y="103.240071"/>
     <use style="fill:#ffffff;stroke:#ffffff;" x="50.494737" xlink:href="#me58630af99" y="102.980255"/>
     <use style="fill:#ffffff;stroke:#ffffff;" x="53.431579" xlink:href="#me58630af99" y="102.651803"/>
     <use style="fill:#ffffff;stroke:#ffffff;" x="56.368421" xlink:href="#me58630af99" y="102.417005"/>
     <use style="fill:#ffffff;stroke:#ffffff;" x="59.305263" xlink:href="#me58630af99" y="102.192687"/>
     <use style="fill:#ffffff;stroke:#ffffff;" x="62.242105" xlink:href="#me58630af99" y="102.119927"/>
     <use style="fill:#ffffff;stroke:#ffffff;" x="65.178947" xlink:href="#me58630af99" y="101.926076"/>
     <use style="fill:#ffffff;stroke:#ffffff;" x="68.115789" xlink:href="#me58630af99" y="101.658817"/>
     <use style="fill:#ffffff;stroke:#ffffff;" x="71.052632" xlink:href="#me58630af99" y="101.516235"/>
     <use style="fill:#ffffff;stroke:#ffffff;" x="73.989474" xlink:href="#me58630af99" y="101.113385"/>
     <use style="fill:#ffffff;stroke:#ffffff;" x="76.926316" xlink:href="#me58630af99" y="100.72776"/>
     <use style="fill:#ffffff;stroke:#ffffff;" x="79.863158" xlink:href="#me58630af99" y="100.466124"/>
     <use style="fill:#ffffff;stroke:#ffffff;" x="82.8" xlink:href="#me58630af99" y="100.181397"/>
     <use style="fill:#ffffff;stroke:#ffffff;" x="85.736842" xlink:href="#me58630af99" y="99.94228"/>
     <use style="fill:#ffffff;stroke:#ffffff;" x="88.673684" xlink:href="#me58630af99" y="99.649292"/>
     <use style="fill:#ffffff;stroke:#ffffff;" x="91.610526" xlink:href="#me58630af99" y="99.462667"/>
     <use style="fill:#ffffff;stroke:#ffffff;" x="94.547368" xlink:href="#me58630af99" y="98.928914"/>
     <use style="fill:#ffffff;stroke:#ffffff;" x="97.484211" xlink:href="#me58630af99" y="98.329911"/>
     <use style="fill:#ffffff;stroke:#ffffff;" x="100.421053" xlink:href="#me58630af99" y="97.886005"/>
     <use style="fill:#ffffff;stroke:#ffffff;" x="103.357895" xlink:href="#me58630af99" y="97.555863"/>
     <use style="fill:#ffffff;stroke:#ffffff;" x="106.294737" xlink:href="#me58630af99" y="97.031661"/>
     <use style="fill:#ffffff;stroke:#ffffff;" x="109.231579" xlink:href="#me58630af99" y="96.950786"/>
     <use style="fill:#ffffff;stroke:#ffffff;" x="112.168421" xlink:href="#me58630af99" y="96.553438"/>
     <use style="fill:#ffffff;stroke:#ffffff;" x="115.105263" xlink:href="#me58630af99" y="95.991906"/>
     <use style="fill:#ffffff;stroke:#ffffff;" x="118.042105" xlink:href="#me58630af99" y="95.795557"/>
     <use style="fill:#ffffff;stroke:#ffffff;" x="120.978947" xlink:href="#me58630af99" y="95.302561"/>
     <use style="fill:#ffffff;stroke:#ffffff;" x="123.915789" xlink:href="#me58630af99" y="94.083833"/>
     <use style="fill:#ffffff;stroke:#ffffff;" x="126.852632" xlink:href="#me58630af99" y="93.392169"/>
     <use style="fill:#ffffff;stroke:#ffffff;" x="129.789474" xlink:href="#me58630af99" y="92.44752"/>
     <use style="fill:#ffffff;stroke:#ffffff;" x="132.726316" xlink:href="#me58630af99" y="91.973848"/>
     <use style="fill:#ffffff;stroke:#ffffff;" x="135.663158" xlink:href="#me58630af99" y="91.387259"/>
     <use style="fill:#ffffff;stroke:#ffffff;" x="138.6" xlink:href="#me58630af99" y="90.600072"/>
     <use style="fill:#ffffff;stroke:#ffffff;" x="141.536842" xlink:href="#me58630af99" y="90.033734"/>
     <use style="fill:#ffffff;stroke:#ffffff;" x="144.473684" xlink:href="#me58630af99" y="89.601408"/>
     <use style="fill:#ffffff;stroke:#ffffff;" x="147.410526" xlink:href="#me58630af99" y="89.012561"/>
     <use style="fill:#ffffff;stroke:#ffffff;" x="150.347368" xlink:href="#me58630af99" y="88.700524"/>
     <use style="fill:#ffffff;stroke:#ffffff;" x="153.284211" xlink:href="#me58630af99" y="88.174585"/>
     <use style="fill:#ffffff;stroke:#ffffff;" x="156.221053" xlink:href="#me58630af99" y="87.699123"/>
     <use style="fill:#ffffff;stroke:#ffffff;" x="159.157895" xlink:href="#me58630af99" y="87.245387"/>
     <use style="fill:#ffffff;stroke:#ffffff;" x="162.094737" xlink:href="#me58630af99" y="86.571123"/>
     <use style="fill:#ffffff;stroke:#ffffff;" x="165.031579" xlink:href="#me58630af99" y="85.700044"/>
     <use style="fill:#ffffff;stroke:#ffffff;" x="167.968421" xlink:href="#me58630af99" y="85.236067"/>
     <use style="fill:#ffffff;stroke:#ffffff;" x="170.905263" xlink:href="#me58630af99" y="84.768981"/>
     <use style="fill:#ffffff;stroke:#ffffff;" x="173.842105" xlink:href="#me58630af99" y="84.274272"/>
     <use style="fill:#ffffff;stroke:#ffffff;" x="176.778947" xlink:href="#me58630af99" y="83.697645"/>
     <use style="fill:#ffffff;stroke:#ffffff;" x="179.715789" xlink:href="#me58630af99" y="83.083292"/>
     <use style="fill:#ffffff;stroke:#ffffff;" x="182.652632" xlink:href="#me58630af99" y="83.32055"/>
     <use style="fill:#ffffff;stroke:#ffffff;" x="185.589474" xlink:href="#me58630af99" y="83.208766"/>
     <use style="fill:#ffffff;stroke:#ffffff;" x="188.526316" xlink:href="#me58630af99" y="82.371967"/>
     <use style="fill:#ffffff;stroke:#ffffff;" x="191.463158" xlink:href="#me58630af99" y="81.91446"/>
     <use style="fill:#ffffff;stroke:#ffffff;" x="194.4" xlink:href="#me58630af99" y="81.11829"/>
    </g>
   </g>
   <g id="line2d_3">
    <path clip-path="url(#p32954966db)" d="M 27 101.365732 
L 29.936842 101.086302 
L 32.873684 100.794786 
L 35.810526 100.406672 
L 38.747368 99.920224 
L 41.684211 99.505199 
L 44.621053 98.954923 
L 47.557895 98.575808 
L 50.494737 97.930984 
L 53.431579 97.096023 
L 56.368421 96.645611 
L 59.305263 95.997153 
L 62.242105 95.646529 
L 65.178947 95.191822 
L 68.115789 94.728606 
L 71.052632 94.096231 
L 73.989474 93.216368 
L 76.926316 92.257819 
L 79.863158 91.299915 
L 82.8 90.500618 
L 85.736842 89.663124 
L 88.673684 89.001285 
L 91.610526 88.579413 
L 94.547368 87.822494 
L 97.484211 86.692853 
L 100.421053 85.501245 
L 103.357895 84.250905 
L 106.294737 83.115987 
L 109.231579 82.761612 
L 112.168421 81.579462 
L 115.105263 79.836623 
L 118.042105 78.935971 
L 120.978947 77.363155 
L 123.915789 75.140336 
L 126.852632 73.289235 
L 129.789474 71.66828 
L 132.726316 69.875632 
L 135.663158 68.354428 
L 138.6 66.557017 
L 141.536842 65.225352 
L 144.473684 63.809653 
L 147.410526 61.882479 
L 150.347368 60.86315 
L 153.284211 59.324247 
L 156.221053 57.846233 
L 159.157895 56.500808 
L 162.094737 54.002742 
L 165.031579 51.520939 
L 167.968421 50.130754 
L 170.905263 47.88746 
L 173.842105 45.841481 
L 176.778947 43.908068 
L 179.715789 41.80352 
L 182.652632 40.855505 
L 185.589474 39.347433 
L 188.526316 37.285206 
L 191.463158 35.305966 
L 194.4 32.806308 
" style="fill:none;stroke:#7e9d90;stroke-linecap:round;stroke-width:0.5;"/>
    <defs>
     <path d="M 0 0.5 
C 0.132602 0.5 0.25979 0.447317 0.353553 0.353553 
C 0.447317 0.25979 0.5 0.132602 0.5 0 
C 0.5 -0.132602 0.447317 -0.25979 0.353553 -0.353553 
C 0.25979 -0.447317 0.132602 -0.5 0 -0.5 
C -0.132602 -0.5 -0.25979 -0.447317 -0.353553 -0.353553 
C -0.447317 -0.25979 -0.5 -0.132602 -0.5 0 
C -0.5 0.132602 -0.447317 0.25979 -0.353553 0.353553 
C -0.25979 0.447317 -0.132602 0.5 0 0.5 
z
" id="mbd6a1bd36e" style="stroke:#7e9d90;"/>
    </defs>
    <g clip-path="url(#p32954966db)">
     <use style="fill:#7e9d90;stroke:#7e9d90;" x="27" xlink:href="#mbd6a1bd36e" y="101.365732"/>
     <use style="fill:#7e9d90;stroke:#7e9d90;" x="29.936842" xlink:href="#mbd6a1bd36e" y="101.086302"/>
     <use style="fill:#7e9d90;stroke:#7e9d90;" x="32.873684" xlink:href="#mbd6a1bd36e" y="100.794786"/>
     <use style="fill:#7e9d90;stroke:#7e9d90;" x="35.810526" xlink:href="#mbd6a1bd36e" y="100.406672"/>
     <use style="fill:#7e9d90;stroke:#7e9d90;" x="38.747368" xlink:href="#mbd6a1bd36e" y="99.920224"/>
     <use style="fill:#7e9d90;stroke:#7e9d90;" x="41.684211" xlink:href="#mbd6a1bd36e" y="99.505199"/>
     <use style="fill:#7e9d90;stroke:#7e9d90;" x="44.621053" xlink:href="#mbd6a1bd36e" y="98.954923"/>
     <use style="fill:#7e9d90;stroke:#7e9d90;" x="47.557895" xlink:href="#mbd6a1bd36e" y="98.575808"/>
     <use style="fill:#7e9d90;stroke:#7e9d90;" x="50.494737" xlink:href="#mbd6a1bd36e" y="97.930984"/>
     <use style="fill:#7e9d90;stroke:#7e9d90;" x="53.431579" xlink:href="#mbd6a1bd36e" y="97.096023"/>
     <use style="fill:#7e9d90;stroke:#7e9d90;" x="56.368421" xlink:href="#mbd6a1bd36e" y="96.645611"/>
     <use style="fill:#7e9d90;stroke:#7e9d90;" x="59.305263" xlink:href="#mbd6a1bd36e" y="95.997153"/>
     <use style="fill:#7e9d90;stroke:#7e9d90;" x="62.242105" xlink:href="#mbd6a1bd36e" y="95.646529"/>
     <use style="fill:#7e9d90;stroke:#7e9d90;" x="65.178947" xlink:href="#mbd6a1bd36e" y="95.191822"/>
     <use style="fill:#7e9d90;stroke:#7e9d90;" x="68.115789" xlink:href="#mbd6a1bd36e" y="94.728606"/>
     <use style="fill:#7e9d90;stroke:#7e9d90;" x="71.052632" xlink:href="#mbd6a1bd36e" y="94.096231"/>
     <use style="fill:#7e9d90;stroke:#7e9d90;" x="73.989474" xlink:href="#mbd6a1bd36e" y="93.216368"/>
     <use style="fill:#7e9d90;stroke:#7e9d90;" x="76.926316" xlink:href="#mbd6a1bd36e" y="92.257819"/>
     <use style="fill:#7e9d90;stroke:#7e9d90;" x="79.863158" xlink:href="#mbd6a1bd36e" y="91.299915"/>
     <use style="fill:#7e9d90;stroke:#7e9d90;" x="82.8" xlink:href="#mbd6a1bd36e" y="90.500618"/>
     <use style="fill:#7e9d90;stroke:#7e9d90;" x="85.736842" xlink:href="#mbd6a1bd36e" y="89.663124"/>
     <use style="fill:#7e9d90;stroke:#7e9d90;" x="88.673684" xlink:href="#mbd6a1bd36e" y="89.001285"/>
     <use style="fill:#7e9d90;stroke:#7e9d90;" x="91.610526" xlink:href="#mbd6a1bd36e" y="88.579413"/>
     <use style="fill:#7e9d90;stroke:#7e9d90;" x="94.547368" xlink:href="#mbd6a1bd36e" y="87.822494"/>
     <use style="fill:#7e9d90;stroke:#7e9d90;" x="97.484211" xlink:href="#mbd6a1bd36e" y="86.692853"/>
     <use style="fill:#7e9d90;stroke:#7e9d90;" x="100.421053" xlink:href="#mbd6a1bd36e" y="85.501245"/>
     <use style="fill:#7e9d90;stroke:#7e9d90;" x="103.357895" xlink:href="#mbd6a1bd36e" y="84.250905"/>
     <use style="fill:#7e9d90;stroke:#7e9d90;" x="106.294737" xlink:href="#mbd6a1bd36e" y="83.115987"/>
     <use style="fill:#7e9d90;stroke:#7e9d90;" x="109.231579" xlink:href="#mbd6a1bd36e" y="82.761612"/>
     <use style="fill:#7e9d90;stroke:#7e9d90;" x="112.168421" xlink:href="#mbd6a1bd36e" y="81.579462"/>
     <use style="fill:#7e9d90;stroke:#7e9d90;" x="115.105263" xlink:href="#mbd6a1bd36e" y="79.836623"/>
     <use style="fill:#7e9d90;stroke:#7e9d90;" x="118.042105" xlink:href="#mbd6a1bd36e" y="78.935971"/>
     <use style="fill:#7e9d90;stroke:#7e9d90;" x="120.978947" xlink:href="#mbd6a1bd36e" y="77.363155"/>
     <use style="fill:#7e9d90;stroke:#7e9d90;" x="123.915789" xlink:href="#mbd6a1bd36e" y="75.140336"/>
     <use style="fill:#7e9d90;stroke:#7e9d90;" x="126.852632" xlink:href="#mbd6a1bd36e" y="73.289235"/>
     <use style="fill:#7e9d90;stroke:#7e9d90;" x="129.789474" xlink:href="#mbd6a1bd36e" y="71.66828"/>
     <use style="fill:#7e9d90;stroke:#7e9d90;" x="132.726316" xlink:href="#mbd6a1bd36e" y="69.875632"/>
     <use style="fill:#7e9d90;stroke:#7e9d90;" x="135.663158" xlink:href="#mbd6a1bd36e" y="68.354428"/>
     <use style="fill:#7e9d90;stroke:#7e9d90;" x="138.6" xlink:href="#mbd6a1bd36e" y="66.557017"/>
     <use style="fill:#7e9d90;stroke:#7e9d90;" x="141.536842" xlink:href="#mbd6a1bd36e" y="65.225352"/>
     <use style="fill:#7e9d90;stroke:#7e9d90;" x="144.473684" xlink:href="#mbd6a1bd36e" y="63.809653"/>
     <use style="fill:#7e9d90;stroke:#7e9d90;" x="147.410526" xlink:href="#mbd6a1bd36e" y="61.882479"/>
     <use style="fill:#7e9d90;stroke:#7e9d90;" x="150.347368" xlink:href="#mbd6a1bd36e" y="60.86315"/>
     <use style="fill:#7e9d90;stroke:#7e9d90;" x="153.284211" xlink:href="#mbd6a1bd36e" y="59.324247"/>
     <use style="fill:#7e9d90;stroke:#7e9d90;" x="156.221053" xlink:href="#mbd6a1bd36e" y="57.846233"/>
     <use style="fill:#7e9d90;stroke:#7e9d90;" x="159.157895" xlink:href="#mbd6a1bd36e" y="56.500808"/>
     <use style="fill:#7e9d90;stroke:#7e9d90;" x="162.094737" xlink:href="#mbd6a1bd36e" y="54.002742"/>
     <use style="fill:#7e9d90;stroke:#7e9d90;" x="165.031579" xlink:href="#mbd6a1bd36e" y="51.520939"/>
     <use style="fill:#7e9d90;stroke:#7e9d90;" x="167.968421" xlink:href="#mbd6a1bd36e" y="50.130754"/>
     <use style="fill:#7e9d90;stroke:#7e9d90;" x="170.905263" xlink:href="#mbd6a1bd36e" y="47.88746"/>
     <use style="fill:#7e9d90;stroke:#7e9d90;" x="173.842105" xlink:href="#mbd6a1bd36e" y="45.841481"/>
     <use style="fill:#7e9d90;stroke:#7e9d90;" x="176.778947" xlink:href="#mbd6a1bd36e" y="43.908068"/>
     <use style="fill:#7e9d90;stroke:#7e9d90;" x="179.715789" xlink:href="#mbd6a1bd36e" y="41.80352"/>
     <use style="fill:#7e9d90;stroke:#7e9d90;" x="182.652632" xlink:href="#mbd6a1bd36e" y="40.855505"/>
     <use style="fill:#7e9d90;stroke:#7e9d90;" x="185.589474" xlink:href="#mbd6a1bd36e" y="39.347433"/>
     <use style="fill:#7e9d90;stroke:#7e9d90;" x="188.526316" xlink:href="#mbd6a1bd36e" y="37.285206"/>
     <use style="fill:#7e9d90;stroke:#7e9d90;" x="191.463158" xlink:href="#mbd6a1bd36e" y="35.305966"/>
     <use style="fill:#7e9d90;stroke:#7e9d90;" x="194.4" xlink:href="#mbd6a1bd36e" y="32.806308"/>
    </g>
   </g>
   <g id="patch_3">
    <path d="M 27 110.25 
L 27 15.12 
" style="fill:none;stroke:#ffffff;stroke-linecap:square;stroke-linejoin:miter;stroke-width:0.8;"/>
   </g>
   <g id="patch_4">
    <path d="M 194.4 110.25 
L 194.4 15.12 
" style="fill:none;stroke:#ffffff;stroke-linecap:square;stroke-linejoin:miter;stroke-width:0.8;"/>
   </g>
   <g id="patch_5">
    <path d="M 27 110.25 
L 194.4 110.25 
" style="fill:none;stroke:#ffffff;stroke-linecap:square;stroke-linejoin:miter;stroke-width:0.8;"/>
   </g>
   <g id="patch_6">
    <path d="M 27 15.12 
L 194.4 15.12 
" style="fill:none;stroke:#ffffff;stroke-linecap:square;stroke-linejoin:miter;stroke-width:0.8;"/>
   </g>
   <g id="legend_1">
    <g id="patch_7">
     <path d="M 31.2 37.555312 
L 109.8375 37.555312 
Q 111.0375 37.555312 111.0375 36.355312 
L 111.0375 19.32 
Q 111.0375 18.12 109.8375 18.12 
L 31.2 18.12 
Q 30 18.12 30 19.32 
L 30 36.355312 
Q 30 37.555312 31.2 37.555312 
z
" style="fill:#e3dcd0;opacity:0.8;stroke:#cccccc;stroke-linejoin:miter;"/>
    </g>
    <g id="line2d_4">
     <path d="M 32.4 23.045625 
L 36.9 23.045625 
" style="fill:none;stroke:#d56c55;stroke-linecap:round;stroke-width:0.5;"/>
    </g>
    <g id="line2d_5">
     <g>
      <use style="fill:#d56c55;stroke:#d56c55;" x="34.65" xlink:href="#m1b23a3c95e" y="23.045625"/>
     </g>
    </g>
    <g id="text_13">
     <!-- poultry -->
     <defs>
      <path d="M 9.625 0 
L 9.625 77.09375 
L 19.234375 77.09375 
L 19.234375 0 
z
" id="LucidaSansUnicode-108"/>
     </defs>
     <g style="fill:#262626;" transform="translate(41.7 25.145625)scale(0.06 -0.06)">
      <use xlink:href="#LucidaSansUnicode-112"/>
      <use x="62.939453" xlink:href="#LucidaSansUnicode-111"/>
      <use x="124.365234" xlink:href="#LucidaSansUnicode-117"/>
      <use x="186.425781" xlink:href="#LucidaSansUnicode-108"/>
      <use x="215.332031" xlink:href="#LucidaSansUnicode-116"/>
      <use x="252.734375" xlink:href="#LucidaSansUnicode-114"/>
      <use x="293.652344" xlink:href="#LucidaSansUnicode-121"/>
     </g>
    </g>
    <g id="line2d_6">
     <path d="M 32.4 31.828125 
L 36.9 31.828125 
" style="fill:none;stroke:#ffffff;stroke-linecap:round;stroke-width:0.5;"/>
    </g>
    <g id="line2d_7">
     <g>
      <use style="fill:#ffffff;stroke:#ffffff;" x="34.65" xlink:href="#me58630af99" y="31.828125"/>
     </g>
    </g>
    <g id="text_14">
     <!-- eggs -->
     <g style="fill:#262626;" transform="translate(41.7 33.928125)scale(0.06 -0.06)">
      <use xlink:href="#LucidaSansUnicode-101"/>
      <use x="55.712891" xlink:href="#LucidaSansUnicode-103"/>
      <use x="118.066406" xlink:href="#LucidaSansUnicode-103"/>
      <use x="180.419922" xlink:href="#LucidaSansUnicode-115"/>
     </g>
    </g>
    <g id="line2d_8">
     <path d="M 74.454375 23.045625 
L 78.954375 23.045625 
" style="fill:none;stroke:#7e9d90;stroke-linecap:round;stroke-width:0.5;"/>
    </g>
    <g id="line2d_9">
     <g>
      <use style="fill:#7e9d90;stroke:#7e9d90;" x="76.704375" xlink:href="#mbd6a1bd36e" y="23.045625"/>
     </g>
    </g>
    <g id="text_15">
     <!-- total -->
     <g style="fill:#262626;" transform="translate(83.754375 25.145625)scale(0.06 -0.06)">
      <use xlink:href="#LucidaSansUnicode-116"/>
      <use x="37.402344" xlink:href="#LucidaSansUnicode-111"/>
      <use x="98.828125" xlink:href="#LucidaSansUnicode-116"/>
      <use x="136.230469" xlink:href="#LucidaSansUnicode-97"/>
      <use x="191.455078" xlink:href="#LucidaSansUnicode-108"/>
     </g>
    </g>
    <g id="line2d_10">
     <path d="M 74.454375 31.828125 
L 78.954375 31.828125 
" style="fill:none;stroke:#000000;stroke-dasharray:2.775,1.2;stroke-dashoffset:0;stroke-width:0.75;"/>
    </g>
    <g id="text_16">
     <!-- estimate -->
     <g style="fill:#262626;" transform="translate(83.754375 33.928125)scale(0.06 -0.06)">
      <use xlink:href="#LucidaSansUnicode-101"/>
      <use x="55.712891" xlink:href="#LucidaSansUnicode-115"/>
      <use x="106.689453" xlink:href="#LucidaSansUnicode-116"/>
      <use x="144.091797" xlink:href="#LucidaSansUnicode-105"/>
      <use x="172.998047" xlink:href="#LucidaSansUnicode-109"/>
      <use x="266.357422" xlink:href="#LucidaSansUnicode-97"/>
      <use x="321.582031" xlink:href="#LucidaSansUnicode-116"/>
      <use x="358.984375" xlink:href="#LucidaSansUnicode-101"/>
     </g>
    </g>
   </g>
  </g>
 </g>
 <defs>
  <clipPath id="p32954966db">
   <rect height="95.13" width="167.4" x="27" y="15.12"/>
  </clipPath>
 </defs>
</svg>
