<?xml version="1.0" encoding="utf-8" standalone="no"?>
<!DOCTYPE svg PUBLIC "-//W3C//DTD SVG 1.1//EN"
  "http://www.w3.org/Graphics/SVG/1.1/DTD/svg11.dtd">
<!-- Created with matplotlib (https://matplotlib.org/) -->
<svg height="144pt" version="1.1" viewBox="0 0 324 144" width="324pt" xmlns="http://www.w3.org/2000/svg" xmlns:xlink="http://www.w3.org/1999/xlink">
 <defs>
  <style type="text/css">
*{stroke-linecap:butt;stroke-linejoin:round;}
  </style>
 </defs>
 <g id="figure_1">
  <g id="patch_1">
   <path d="M 0 144 
L 324 144 
L 324 0 
L 0 0 
z
" style="fill:#ffffff;"/>
  </g>
  <g id="axes_1">
   <g id="patch_2">
    <path d="M 40.5 126 
L 291.6 126 
L 291.6 17.28 
L 40.5 17.28 
z
" style="fill:#e3dcd0;"/>
   </g>
   <g id="matplotlib.axis_1">
    <g id="xtick_1">
     <g id="text_1">
      <!-- 1800 -->
      <defs>
       <path d="M 26.171875 0 
L 26.171875 65.046875 
L 14.75 65.046875 
L 14.75 71.09375 
L 35.84375 72.90625 
L 35.84375 0 
z
" id="LucidaSansUnicode-49"/>
       <path d="M 23 39.359375 
Q 17.046875 43.5 14.71875 47.0625 
Q 12.40625 50.640625 12.40625 55.671875 
Q 12.40625 63.875 18.40625 69 
Q 24.421875 74.125 34.078125 74.125 
Q 43.015625 74.125 48.5625 69.78125 
Q 54.109375 65.4375 54.109375 58.5 
Q 54.109375 48 40.625 39.359375 
Q 56.984375 31.34375 56.984375 18.703125 
Q 56.984375 9.671875 50.140625 3.921875 
Q 43.3125 -1.8125 32.5625 -1.8125 
Q 21.828125 -1.8125 15.234375 3.578125 
Q 8.640625 8.984375 8.640625 17.78125 
Q 8.640625 30.765625 23 39.359375 
z
M 35.25 42.390625 
Q 45.359375 49.03125 45.359375 57.171875 
Q 45.359375 61.53125 41.96875 64.1875 
Q 38.578125 66.84375 33.109375 66.84375 
Q 27.78125 66.84375 24.453125 64.234375 
Q 21.140625 61.625 21.140625 57.46875 
Q 21.140625 53.421875 24.140625 50.1875 
Q 27.15625 46.96875 35.25 42.390625 
z
M 28.21875 35.453125 
Q 22.40625 30.953125 20.328125 27.609375 
Q 18.265625 24.265625 18.265625 19.28125 
Q 18.265625 13.09375 22.265625 9.25 
Q 26.265625 5.421875 32.8125 5.421875 
Q 39.109375 5.421875 43.09375 8.6875 
Q 47.078125 11.96875 47.078125 17.1875 
Q 47.078125 21.390625 44.609375 24.296875 
Q 42.140625 27.203125 35.0625 31.390625 
z
" id="LucidaSansUnicode-56"/>
       <path d="M 31.640625 -1.8125 
Q 20.265625 -1.8125 13.296875 8.609375 
Q 6.34375 19.046875 6.34375 36.140625 
Q 6.34375 53.21875 13.296875 63.640625 
Q 20.265625 74.078125 31.640625 74.078125 
Q 43.0625 74.078125 50 63.671875 
Q 56.9375 53.265625 56.9375 36.140625 
Q 56.9375 19.046875 50 8.609375 
Q 43.0625 -1.8125 31.640625 -1.8125 
z
M 31.640625 5.421875 
Q 46.734375 5.421875 46.734375 36.140625 
Q 46.734375 66.84375 31.640625 66.84375 
Q 16.609375 66.84375 16.609375 36.140625 
Q 16.609375 5.421875 31.640625 5.421875 
z
" id="LucidaSansUnicode-48"/>
      </defs>
      <g transform="translate(32.911875 134.125625)scale(0.06 -0.06)">
       <use xlink:href="#LucidaSansUnicode-49"/>
       <use x="63.232422" xlink:href="#LucidaSansUnicode-56"/>
       <use x="126.464844" xlink:href="#LucidaSansUnicode-48"/>
       <use x="189.697266" xlink:href="#LucidaSansUnicode-48"/>
      </g>
     </g>
    </g>
    <g id="xtick_2">
     <g id="text_2">
      <!-- 1825 -->
      <defs>
       <path d="M 8.296875 0 
L 8.296875 8.453125 
Q 12.5 18.265625 25.296875 29.828125 
L 30.8125 34.765625 
Q 41.453125 44.390625 41.453125 53.859375 
Q 41.453125 59.90625 37.8125 63.375 
Q 34.1875 66.84375 27.78125 66.84375 
Q 20.3125 66.84375 10.109375 61.03125 
L 10.109375 69.53125 
Q 19.734375 74.078125 29.25 74.078125 
Q 39.40625 74.078125 45.53125 68.609375 
Q 51.65625 63.140625 51.65625 54.109375 
Q 51.65625 47.609375 48.546875 42.578125 
Q 45.453125 37.546875 37.015625 30.375 
L 33.296875 27.203125 
Q 21.734375 17.390625 19.921875 8.453125 
L 51.3125 8.453125 
L 51.3125 0 
z
" id="LucidaSansUnicode-50"/>
       <path d="M 12.15625 -0.296875 
L 12.15625 8.296875 
Q 19.34375 5.421875 25.828125 5.421875 
Q 32.953125 5.421875 37.03125 9.609375 
Q 41.109375 13.8125 41.109375 21.1875 
Q 41.109375 29.109375 35.34375 33.28125 
Q 29.59375 37.453125 18.703125 37.453125 
Q 16.15625 37.453125 13.375 37.109375 
L 13.375 72.265625 
L 49.953125 72.265625 
L 49.953125 63.875 
L 21.828125 63.875 
L 21.828125 44.828125 
Q 35.75 44.828125 43.5625 38.421875 
Q 51.375 32.03125 51.375 20.703125 
Q 51.375 10.15625 44.265625 4.171875 
Q 37.15625 -1.8125 24.65625 -1.8125 
Q 19.09375 -1.8125 12.15625 -0.296875 
z
" id="LucidaSansUnicode-53"/>
      </defs>
      <g transform="translate(61.445966 134.125625)scale(0.06 -0.06)">
       <use xlink:href="#LucidaSansUnicode-49"/>
       <use x="63.232422" xlink:href="#LucidaSansUnicode-56"/>
       <use x="126.464844" xlink:href="#LucidaSansUnicode-50"/>
       <use x="189.697266" xlink:href="#LucidaSansUnicode-53"/>
      </g>
     </g>
    </g>
    <g id="xtick_3">
     <g id="text_3">
      <!-- 1850 -->
      <g transform="translate(89.980057 134.125625)scale(0.06 -0.06)">
       <use xlink:href="#LucidaSansUnicode-49"/>
       <use x="63.232422" xlink:href="#LucidaSansUnicode-56"/>
       <use x="126.464844" xlink:href="#LucidaSansUnicode-53"/>
       <use x="189.697266" xlink:href="#LucidaSansUnicode-48"/>
      </g>
     </g>
    </g>
    <g id="xtick_4">
     <g id="text_4">
      <!-- 1875 -->
      <defs>
       <path d="M 15.046875 0 
Q 16.453125 8.453125 19.0625 14.59375 
Q 21.6875 20.75 28.328125 31.5 
L 48.046875 63.234375 
L 10.84375 63.234375 
L 10.84375 72.265625 
L 57.234375 72.265625 
L 57.234375 63.234375 
Q 29.4375 22.265625 26.125 0 
z
" id="LucidaSansUnicode-55"/>
      </defs>
      <g transform="translate(118.514148 134.125625)scale(0.06 -0.06)">
       <use xlink:href="#LucidaSansUnicode-49"/>
       <use x="63.232422" xlink:href="#LucidaSansUnicode-56"/>
       <use x="126.464844" xlink:href="#LucidaSansUnicode-55"/>
       <use x="189.697266" xlink:href="#LucidaSansUnicode-53"/>
      </g>
     </g>
    </g>
    <g id="xtick_5">
     <g id="text_5">
      <!-- 1900 -->
      <defs>
       <path d="M 11.375 0.4375 
L 11.375 8.59375 
Q 20.5625 5.421875 27 5.421875 
Q 35.984375 5.421875 41.03125 13.0625 
Q 46.09375 20.703125 46.09375 34.328125 
Q 38.765625 25.296875 29.4375 25.296875 
Q 20.3125 25.296875 13.96875 32 
Q 7.625 38.71875 7.625 48.390625 
Q 7.625 59.46875 14.375 66.765625 
Q 21.140625 74.078125 31.390625 74.078125 
Q 43.171875 74.078125 49.953125 64.625 
Q 56.734375 55.171875 56.734375 38.765625 
Q 56.734375 28.328125 53.46875 19.109375 
Q 50.203125 9.90625 44.671875 4.78125 
Q 37.59375 -1.8125 26.078125 -1.8125 
Q 20.40625 -1.8125 11.375 0.4375 
z
M 17.234375 50.046875 
Q 17.234375 41.796875 20.984375 37.015625 
Q 24.75 32.234375 31.15625 32.234375 
Q 37.3125 32.234375 41.625 36.375 
Q 45.953125 40.53125 45.953125 46.390625 
Q 45.953125 55.609375 41.765625 61.25 
Q 37.59375 66.890625 30.8125 66.890625 
Q 24.46875 66.890625 20.84375 62.390625 
Q 17.234375 57.90625 17.234375 50.046875 
z
" id="LucidaSansUnicode-57"/>
      </defs>
      <g transform="translate(147.048239 134.125625)scale(0.06 -0.06)">
       <use xlink:href="#LucidaSansUnicode-49"/>
       <use x="63.232422" xlink:href="#LucidaSansUnicode-57"/>
       <use x="126.464844" xlink:href="#LucidaSansUnicode-48"/>
       <use x="189.697266" xlink:href="#LucidaSansUnicode-48"/>
      </g>
     </g>
    </g>
    <g id="xtick_6">
     <g id="text_6">
      <!-- 1925 -->
      <g transform="translate(175.58233 134.125625)scale(0.06 -0.06)">
       <use xlink:href="#LucidaSansUnicode-49"/>
       <use x="63.232422" xlink:href="#LucidaSansUnicode-57"/>
       <use x="126.464844" xlink:href="#LucidaSansUnicode-50"/>
       <use x="189.697266" xlink:href="#LucidaSansUnicode-53"/>
      </g>
     </g>
    </g>
    <g id="xtick_7">
     <g id="text_7">
      <!-- 1950 -->
      <g transform="translate(204.11642 134.125625)scale(0.06 -0.06)">
       <use xlink:href="#LucidaSansUnicode-49"/>
       <use x="63.232422" xlink:href="#LucidaSansUnicode-57"/>
       <use x="126.464844" xlink:href="#LucidaSansUnicode-53"/>
       <use x="189.697266" xlink:href="#LucidaSansUnicode-48"/>
      </g>
     </g>
    </g>
    <g id="xtick_8">
     <g id="text_8">
      <!-- 1975 -->
      <g transform="translate(232.650511 134.125625)scale(0.06 -0.06)">
       <use xlink:href="#LucidaSansUnicode-49"/>
       <use x="63.232422" xlink:href="#LucidaSansUnicode-57"/>
       <use x="126.464844" xlink:href="#LucidaSansUnicode-55"/>
       <use x="189.697266" xlink:href="#LucidaSansUnicode-53"/>
      </g>
     </g>
    </g>
    <g id="xtick_9">
     <g id="text_9">
      <!-- 2000 -->
      <g transform="translate(261.184602 134.125625)scale(0.06 -0.06)">
       <use xlink:href="#LucidaSansUnicode-50"/>
       <use x="63.232422" xlink:href="#LucidaSansUnicode-48"/>
       <use x="126.464844" xlink:href="#LucidaSansUnicode-48"/>
       <use x="189.697266" xlink:href="#LucidaSansUnicode-48"/>
      </g>
     </g>
    </g>
    <g id="text_10">
     <!-- year [C.E.] -->
     <defs>
      <path d="M 12.703125 -19.28125 
L 21.296875 0 
L 0.78125 53.03125 
L 11.1875 53.03125 
L 26.375 13.09375 
L 42.578125 53.03125 
L 51.65625 53.03125 
L 22.703125 -19.28125 
z
" id="LucidaSansUnicode-121"/>
      <path d="M 48.484375 1.703125 
Q 38.8125 -1.21875 31.9375 -1.21875 
Q 20.171875 -1.21875 12.796875 6.5625 
Q 5.421875 14.359375 5.421875 26.765625 
Q 5.421875 38.8125 11.9375 46.53125 
Q 18.453125 54.25 28.609375 54.25 
Q 38.234375 54.25 43.484375 47.390625 
Q 48.734375 40.53125 48.734375 27.9375 
L 48.6875 25 
L 15.234375 25 
Q 17.328125 6.109375 33.734375 6.109375 
Q 39.75 6.109375 48.484375 9.328125 
z
M 15.671875 32.234375 
L 39.0625 32.234375 
Q 39.0625 47.015625 28.03125 47.015625 
Q 16.9375 47.015625 15.671875 32.234375 
z
" id="LucidaSansUnicode-101"/>
      <path d="M 36.96875 6.734375 
Q 28.328125 -1.21875 20.3125 -1.21875 
Q 13.71875 -1.21875 9.375 2.90625 
Q 5.03125 7.03125 5.03125 13.328125 
Q 5.03125 22.015625 12.328125 26.671875 
Q 19.625 31.34375 33.296875 31.34375 
L 35.546875 31.34375 
L 35.546875 37.75 
Q 35.546875 46.96875 25.921875 46.96875 
Q 18.453125 46.96875 9.625 42.28125 
L 9.625 50.25 
Q 19.34375 54.203125 27.9375 54.203125 
Q 36.765625 54.203125 40.96875 50.171875 
Q 45.171875 46.140625 45.171875 37.75 
L 45.171875 13.71875 
Q 45.171875 5.46875 50.25 5.46875 
Q 50.875 5.46875 52.09375 5.671875 
L 52.78125 0.34375 
Q 49.515625 -1.21875 45.5625 -1.21875 
Q 38.8125 -1.21875 36.96875 6.734375 
z
M 35.546875 11.96875 
L 35.546875 25.6875 
L 32.46875 25.78125 
Q 24.46875 25.78125 19.5625 22.796875 
Q 14.65625 19.828125 14.65625 14.890625 
Q 14.65625 11.421875 17.09375 9.03125 
Q 19.53125 6.640625 23.046875 6.640625 
Q 29.046875 6.640625 35.546875 11.96875 
z
" id="LucidaSansUnicode-97"/>
      <path d="M 9.625 0 
L 9.625 53.03125 
L 19.234375 53.03125 
L 19.234375 43.0625 
Q 24.953125 54.203125 35.84375 54.203125 
Q 37.3125 54.203125 38.921875 53.953125 
L 38.921875 44.96875 
Q 36.421875 45.796875 34.515625 45.796875 
Q 25.390625 45.796875 19.234375 34.96875 
L 19.234375 0 
z
" id="LucidaSansUnicode-114"/>
      <path id="LucidaSansUnicode-32"/>
      <path d="M 9.625 -14.453125 
L 9.625 77.09375 
L 28.90625 77.09375 
L 28.90625 69.875 
L 18.0625 69.875 
L 18.0625 -7.234375 
L 28.90625 -7.234375 
L 28.90625 -14.453125 
z
" id="LucidaSansUnicode-91"/>
      <path d="M 63.625 3.71875 
Q 52.9375 -1.8125 40.28125 -1.8125 
Q 23.4375 -1.8125 14.25 8.046875 
Q 5.078125 17.921875 5.078125 36.078125 
Q 5.078125 54.203125 14.421875 64.140625 
Q 23.78125 74.078125 40.828125 74.078125 
Q 50.484375 74.078125 63.53125 70.90625 
L 63.53125 61.28125 
Q 48.6875 66.40625 40.625 66.40625 
Q 28.859375 66.40625 22.40625 58.4375 
Q 15.96875 50.484375 15.96875 35.984375 
Q 15.96875 22.125 22.84375 14.15625 
Q 29.734375 6.203125 41.703125 6.203125 
Q 51.90625 6.203125 63.625 12.5 
z
" id="LucidaSansUnicode-67"/>
      <path d="M 9.765625 0 
L 9.765625 12.0625 
L 21.828125 12.0625 
L 21.828125 0 
z
" id="LucidaSansUnicode-46"/>
      <path d="M 9.328125 0 
L 9.328125 72.265625 
L 49.703125 72.265625 
L 49.703125 64.59375 
L 19.578125 64.59375 
L 19.578125 41.40625 
L 44.828125 41.40625 
L 44.828125 33.84375 
L 19.578125 33.84375 
L 19.578125 7.671875 
L 51.8125 7.671875 
L 51.8125 0 
z
" id="LucidaSansUnicode-69"/>
      <path d="M 22.90625 77.09375 
L 22.90625 -14.453125 
L 3.609375 -14.453125 
L 3.609375 -7.234375 
L 14.453125 -7.234375 
L 14.453125 69.875 
L 3.609375 69.875 
L 3.609375 77.09375 
z
" id="LucidaSansUnicode-93"/>
     </defs>
     <g style="fill:#262626;" transform="translate(151.426406 143.908125)scale(0.06 -0.06)">
      <use xlink:href="#LucidaSansUnicode-121"/>
      <use x="52.246094" xlink:href="#LucidaSansUnicode-101"/>
      <use x="107.958984" xlink:href="#LucidaSansUnicode-97"/>
      <use x="163.183594" xlink:href="#LucidaSansUnicode-114"/>
      <use x="204.101562" xlink:href="#LucidaSansUnicode-32"/>
      <use x="235.742188" xlink:href="#LucidaSansUnicode-91"/>
      <use x="268.261719" xlink:href="#LucidaSansUnicode-67"/>
      <use x="337.451172" xlink:href="#LucidaSansUnicode-46"/>
      <use x="369.091797" xlink:href="#LucidaSansUnicode-69"/>
      <use x="423.291016" xlink:href="#LucidaSansUnicode-46"/>
      <use x="454.931641" xlink:href="#LucidaSansUnicode-93"/>
     </g>
    </g>
   </g>
   <g id="matplotlib.axis_2">
    <g id="ytick_1">
     <g id="text_11">
      <!-- 0 -->
      <g transform="translate(33.205937 123.370994)scale(0.06 -0.06)">
       <use xlink:href="#LucidaSansUnicode-48"/>
      </g>
     </g>
    </g>
    <g id="ytick_2">
     <g id="text_12">
      <!-- 20 -->
      <g transform="translate(29.411875 103.249078)scale(0.06 -0.06)">
       <use xlink:href="#LucidaSansUnicode-50"/>
       <use x="63.232422" xlink:href="#LucidaSansUnicode-48"/>
      </g>
     </g>
    </g>
    <g id="ytick_3">
     <g id="text_13">
      <!-- 40 -->
      <defs>
       <path d="M 37.640625 0 
L 37.640625 20.453125 
L 5.125 20.453125 
L 5.125 27.734375 
L 37.640625 72.265625 
L 46.6875 72.265625 
L 46.6875 28.328125 
L 56.34375 28.328125 
L 56.34375 20.453125 
L 46.6875 20.453125 
L 46.6875 0 
z
M 14.546875 28.328125 
L 38.28125 28.328125 
L 38.28125 60.453125 
z
" id="LucidaSansUnicode-52"/>
      </defs>
      <g transform="translate(29.411875 83.127161)scale(0.06 -0.06)">
       <use xlink:href="#LucidaSansUnicode-52"/>
       <use x="63.232422" xlink:href="#LucidaSansUnicode-48"/>
      </g>
     </g>
    </g>
    <g id="ytick_4">
     <g id="text_14">
      <!-- 60 -->
      <defs>
       <path d="M 17.1875 37.453125 
Q 24.078125 46.390625 34.515625 46.390625 
Q 44 46.390625 50.03125 40.109375 
Q 56.0625 33.84375 56.0625 24.03125 
Q 56.0625 12.75 49.296875 5.46875 
Q 42.53125 -1.8125 32.078125 -1.8125 
Q 20.171875 -1.8125 13.421875 7.828125 
Q 6.6875 17.484375 6.6875 34.515625 
Q 6.6875 57.46875 18.453125 68.21875 
Q 24.859375 74.125 36.140625 74.125 
Q 42.671875 74.125 52.34375 71.390625 
L 52.34375 62.984375 
Q 42.140625 66.890625 35.546875 66.890625 
Q 17.1875 66.890625 17.1875 37.453125 
z
M 46.390625 22.125 
Q 46.390625 30.125 42.671875 34.78125 
Q 38.96875 39.453125 32.515625 39.453125 
Q 26.375 39.453125 21.96875 35.34375 
Q 17.578125 31.25 17.578125 25.484375 
Q 17.578125 16.40625 21.75 10.90625 
Q 25.921875 5.421875 32.8125 5.421875 
Q 39.0625 5.421875 42.71875 9.90625 
Q 46.390625 14.40625 46.390625 22.125 
z
" id="LucidaSansUnicode-54"/>
      </defs>
      <g transform="translate(29.411875 63.005244)scale(0.06 -0.06)">
       <use xlink:href="#LucidaSansUnicode-54"/>
       <use x="63.232422" xlink:href="#LucidaSansUnicode-48"/>
      </g>
     </g>
    </g>
    <g id="ytick_5">
     <g id="text_15">
      <!-- 80 -->
      <g transform="translate(29.411875 42.883328)scale(0.06 -0.06)">
       <use xlink:href="#LucidaSansUnicode-56"/>
       <use x="63.232422" xlink:href="#LucidaSansUnicode-48"/>
      </g>
     </g>
    </g>
    <g id="ytick_6">
     <g id="text_16">
      <!-- 100 -->
      <g transform="translate(25.617812 22.761411)scale(0.06 -0.06)">
       <use xlink:href="#LucidaSansUnicode-49"/>
       <use x="63.232422" xlink:href="#LucidaSansUnicode-48"/>
       <use x="126.464844" xlink:href="#LucidaSansUnicode-48"/>
      </g>
     </g>
    </g>
    <g id="text_17">
     <!-- estimated energy usage [10$^{16}$ kJ] -->
     <defs>
      <path d="M 7.671875 1.859375 
L 7.671875 10.6875 
Q 17.09375 6 24.078125 6 
Q 28.21875 6 30.953125 8.25 
Q 33.6875 10.5 33.6875 13.875 
Q 33.6875 18.796875 26.03125 22.015625 
L 20.40625 24.421875 
Q 7.953125 29.59375 7.953125 39.3125 
Q 7.953125 46.234375 12.859375 50.21875 
Q 17.78125 54.203125 26.3125 54.203125 
Q 30.765625 54.203125 37.3125 52.984375 
L 39.3125 52.59375 
L 39.3125 44.578125 
Q 31.25 46.96875 26.46875 46.96875 
Q 22.265625 46.96875 19.75 45.140625 
Q 17.234375 43.3125 17.234375 40.234375 
Q 17.234375 35.890625 24.265625 32.90625 
L 28.90625 30.953125 
Q 36.765625 27.640625 40.03125 23.953125 
Q 43.3125 20.265625 43.3125 14.75 
Q 43.3125 7.765625 37.796875 3.265625 
Q 32.28125 -1.21875 23.6875 -1.21875 
Q 17.09375 -1.21875 7.671875 1.859375 
z
" id="LucidaSansUnicode-115"/>
      <path d="M 33.25 0 
Q 28.8125 -1.21875 25.53125 -1.21875 
Q 18.21875 -1.21875 14.109375 2.96875 
Q 10.015625 7.171875 10.015625 14.65625 
L 10.015625 45.796875 
L 3.375 45.796875 
L 3.375 53.03125 
L 10.015625 53.03125 
L 10.015625 62.640625 
L 19.625 63.578125 
L 19.625 53.03125 
L 33.5 53.03125 
L 33.5 45.796875 
L 19.625 45.796875 
L 19.625 16.40625 
Q 19.625 6 28.609375 6 
Q 30.515625 6 33.25 6.640625 
z
" id="LucidaSansUnicode-116"/>
      <path d="M 9.625 0 
L 9.625 53.03125 
L 19.234375 53.03125 
L 19.234375 0 
z
M 9.625 62.640625 
L 9.625 72.265625 
L 19.234375 72.265625 
L 19.234375 62.640625 
z
" id="LucidaSansUnicode-105"/>
      <path d="M 9.625 0 
L 9.625 53.03125 
L 19.234375 53.03125 
L 19.234375 43.0625 
Q 26.265625 54.203125 37.3125 54.203125 
Q 47.953125 54.203125 51.8125 43.0625 
Q 58.640625 54.25 69.578125 54.25 
Q 76.5625 54.25 80.4375 50.125 
Q 84.328125 46 84.328125 38.578125 
L 84.328125 0 
L 74.65625 0 
L 74.65625 37.0625 
Q 74.65625 46.140625 67.484375 46.140625 
Q 60.015625 46.140625 51.8125 35.546875 
L 51.8125 0 
L 42.140625 0 
L 42.140625 37.0625 
Q 42.140625 46.1875 34.8125 46.1875 
Q 27.546875 46.1875 19.234375 35.546875 
L 19.234375 0 
z
" id="LucidaSansUnicode-109"/>
      <path d="M 43.65625 0 
L 43.65625 9.96875 
Q 37.796875 -1.21875 25.984375 -1.21875 
Q 16.40625 -1.21875 10.90625 5.765625 
Q 5.421875 12.75 5.421875 24.859375 
Q 5.421875 38.09375 11.640625 46.140625 
Q 17.875 54.203125 28.03125 54.203125 
Q 37.453125 54.203125 43.65625 46.96875 
L 43.65625 77.09375 
L 53.328125 77.09375 
L 53.328125 0 
z
M 43.65625 40.375 
Q 36.1875 46.96875 29.5 46.96875 
Q 22.90625 46.96875 19.28125 41.453125 
Q 15.671875 35.9375 15.671875 25.828125 
Q 15.671875 7.234375 27.984375 7.234375 
Q 35.984375 7.234375 43.65625 15.96875 
z
" id="LucidaSansUnicode-100"/>
      <path d="M 9.625 0 
L 9.625 53.03125 
L 19.234375 53.03125 
L 19.234375 43.0625 
Q 26.859375 54.203125 37.890625 54.203125 
Q 44.828125 54.203125 48.90625 49.828125 
Q 52.984375 45.453125 52.984375 38.09375 
L 52.984375 0 
L 43.359375 0 
L 43.359375 34.96875 
Q 43.359375 40.875 41.625 43.390625 
Q 39.890625 45.90625 35.890625 45.90625 
Q 27.046875 45.90625 19.234375 34.328125 
L 19.234375 0 
z
" id="LucidaSansUnicode-110"/>
      <path d="M 9.8125 -17.625 
L 10.9375 -9.28125 
Q 19.28125 -13.234375 27.4375 -13.234375 
Q 43.65625 -13.234375 43.65625 4 
L 43.65625 12.359375 
Q 41.15625 7.078125 36.546875 4.140625 
Q 31.9375 1.21875 26.265625 1.21875 
Q 16.65625 1.21875 11.03125 8.125 
Q 5.421875 15.046875 5.421875 26.859375 
Q 5.421875 38.96875 11.8125 46.578125 
Q 18.21875 54.203125 28.375 54.203125 
Q 37.25 54.203125 43.65625 46.96875 
L 43.65625 53.03125 
L 53.328125 53.03125 
L 53.328125 14.453125 
Q 53.328125 2 52.03125 -3.984375 
Q 50.734375 -9.96875 47.171875 -13.765625 
Q 40.875 -20.453125 27.484375 -20.453125 
Q 18.3125 -20.453125 9.8125 -17.625 
z
M 43.65625 18.359375 
L 43.65625 40.375 
Q 37.3125 46.96875 29.828125 46.96875 
Q 23.1875 46.96875 19.421875 41.640625 
Q 15.671875 36.328125 15.671875 26.90625 
Q 15.671875 9.625 27.9375 9.625 
Q 36.28125 9.625 43.65625 18.359375 
z
" id="LucidaSansUnicode-103"/>
      <path d="M 42.78125 0 
L 42.78125 9.96875 
Q 35.109375 -1.21875 24.171875 -1.21875 
Q 17.234375 -1.21875 13.125 3.140625 
Q 9.03125 7.515625 9.03125 14.9375 
L 9.03125 53.03125 
L 18.65625 53.03125 
L 18.65625 18.0625 
Q 18.65625 12.109375 20.390625 9.59375 
Q 22.125 7.078125 26.171875 7.078125 
Q 34.96875 7.078125 42.78125 18.65625 
L 42.78125 53.03125 
L 52.390625 53.03125 
L 52.390625 0 
z
" id="LucidaSansUnicode-117"/>
      <path d="M 30.203125 0 
L 22.296875 0 
L 22.296875 57 
Q 20.09375 56 15.75 53.75 
Q 11.40625 51.5 10.796875 51.203125 
L 10.796875 58.5 
L 28.796875 67.703125 
L 30.203125 67.203125 
z
" id="STIXGeneral-Regular-120803"/>
      <path d="M 44.796875 66.796875 
L 43 61.5 
Q 31.59375 60.703125 23.640625 54.953125 
Q 15.703125 49.203125 12.203125 38.796875 
Q 18.09375 43.09375 25.90625 43.09375 
Q 34.5 43.09375 40.75 37.296875 
Q 47 31.5 47 22 
Q 47 12.296875 40.953125 5.4375 
Q 34.90625 -1.40625 25.703125 -1.40625 
Q 18 -1.40625 12.75 2.640625 
Q 7.5 6.703125 5.34375 12.75 
Q 3.203125 18.796875 3.203125 26.40625 
Q 3.203125 34.90625 6.203125 43.046875 
Q 9.203125 51.203125 14.296875 56.203125 
Q 21 62.796875 27.09375 65.046875 
Q 33.203125 67.296875 44.703125 68.40625 
z
M 39 20.703125 
Q 39 27.90625 34.890625 31.953125 
Q 30.796875 36 25.09375 36 
Q 19.90625 36 16 32.953125 
Q 12.09375 29.90625 11.203125 24 
Q 11.203125 15.90625 15.203125 10.796875 
Q 19.203125 5.703125 26 5.703125 
Q 31.5 5.703125 35.25 9.953125 
Q 39 14.203125 39 20.703125 
z
" id="STIXGeneral-Regular-120808"/>
      <path d="M 9.625 0 
L 9.625 77.09375 
L 19.234375 77.09375 
L 19.234375 27.296875 
L 41.703125 53.03125 
L 52.046875 53.03125 
L 30.609375 28.265625 
L 56.5 0 
L 44.1875 0 
L 19.234375 27.203125 
L 19.234375 0 
z
" id="LucidaSansUnicode-107"/>
      <path d="M -8.984375 -13.421875 
L -8.984375 -4.34375 
Q -3.125 -6.25 1.46875 -6.25 
Q 7.234375 -6.25 9.546875 -2.875 
Q 11.859375 0.484375 11.859375 8.796875 
L 11.859375 72.265625 
L 22.125 72.265625 
L 22.125 9.125 
Q 22.125 -14.453125 -0.203125 -14.453125 
Q -3.609375 -14.453125 -8.984375 -13.421875 
z
" id="LucidaSansUnicode-74"/>
     </defs>
     <g style="fill:#262626;" transform="translate(20.357812 118.86)rotate(-90)scale(0.06 -0.06)">
      <use transform="translate(0 0.878125)" xlink:href="#LucidaSansUnicode-101"/>
      <use transform="translate(55.712891 0.878125)" xlink:href="#LucidaSansUnicode-115"/>
      <use transform="translate(106.689453 0.878125)" xlink:href="#LucidaSansUnicode-116"/>
      <use transform="translate(144.091797 0.878125)" xlink:href="#LucidaSansUnicode-105"/>
      <use transform="translate(172.998047 0.878125)" xlink:href="#LucidaSansUnicode-109"/>
      <use transform="translate(266.357422 0.878125)" xlink:href="#LucidaSansUnicode-97"/>
      <use transform="translate(321.582031 0.878125)" xlink:href="#LucidaSansUnicode-116"/>
      <use transform="translate(358.984375 0.878125)" xlink:href="#LucidaSansUnicode-101"/>
      <use transform="translate(414.697266 0.878125)" xlink:href="#LucidaSansUnicode-100"/>
      <use transform="translate(477.636719 0.878125)" xlink:href="#LucidaSansUnicode-32"/>
      <use transform="translate(509.277344 0.878125)" xlink:href="#LucidaSansUnicode-101"/>
      <use transform="translate(564.990234 0.878125)" xlink:href="#LucidaSansUnicode-110"/>
      <use transform="translate(627.050781 0.878125)" xlink:href="#LucidaSansUnicode-101"/>
      <use transform="translate(682.763672 0.878125)" xlink:href="#LucidaSansUnicode-114"/>
      <use transform="translate(723.681641 0.878125)" xlink:href="#LucidaSansUnicode-103"/>
      <use transform="translate(786.035156 0.878125)" xlink:href="#LucidaSansUnicode-121"/>
      <use transform="translate(838.28125 0.878125)" xlink:href="#LucidaSansUnicode-32"/>
      <use transform="translate(869.921875 0.878125)" xlink:href="#LucidaSansUnicode-117"/>
      <use transform="translate(931.982422 0.878125)" xlink:href="#LucidaSansUnicode-115"/>
      <use transform="translate(982.958984 0.878125)" xlink:href="#LucidaSansUnicode-97"/>
      <use transform="translate(1038.183594 0.878125)" xlink:href="#LucidaSansUnicode-103"/>
      <use transform="translate(1100.537109 0.878125)" xlink:href="#LucidaSansUnicode-101"/>
      <use transform="translate(1156.25 0.878125)" xlink:href="#LucidaSansUnicode-32"/>
      <use transform="translate(1187.890625 0.878125)" xlink:href="#LucidaSansUnicode-91"/>
      <use transform="translate(1220.410156 0.878125)" xlink:href="#LucidaSansUnicode-49"/>
      <use transform="translate(1283.642578 0.878125)" xlink:href="#LucidaSansUnicode-48"/>
      <use transform="translate(1347.667695 37.115625)scale(0.7)" xlink:href="#STIXGeneral-Regular-120803"/>
      <use transform="translate(1382.667685 37.115625)scale(0.7)" xlink:href="#STIXGeneral-Regular-120808"/>
      <use transform="translate(1419.932518 0.878125)" xlink:href="#LucidaSansUnicode-32"/>
      <use transform="translate(1451.573143 0.878125)" xlink:href="#LucidaSansUnicode-107"/>
      <use transform="translate(1510.020408 0.878125)" xlink:href="#LucidaSansUnicode-74"/>
      <use transform="translate(1541.123924 0.878125)" xlink:href="#LucidaSansUnicode-93"/>
     </g>
    </g>
   </g>
   <g id="PolyCollection_1">
    <defs>
     <path d="M 40.5 -24.95401 
L 40.5 -22.941818 
L 41.641364 -22.941818 
L 42.782727 -22.941818 
L 43.924091 -22.941818 
L 45.065455 -22.941818 
L 46.206818 -22.941818 
L 47.348182 -22.941818 
L 48.489545 -22.941818 
L 49.630909 -22.941818 
L 50.772273 -22.941818 
L 51.913636 -22.941818 
L 53.055 -22.941818 
L 54.196364 -22.941818 
L 55.337727 -22.941818 
L 56.479091 -22.941818 
L 57.620455 -22.941818 
L 58.761818 -22.941818 
L 59.903182 -22.941818 
L 61.044545 -22.941818 
L 62.185909 -22.941818 
L 63.327273 -22.941818 
L 64.468636 -22.941818 
L 65.61 -22.941818 
L 66.751364 -22.941818 
L 67.892727 -22.941818 
L 69.034091 -22.941818 
L 70.175455 -22.941818 
L 71.316818 -22.941818 
L 72.458182 -22.941818 
L 73.599545 -22.941818 
L 74.740909 -22.941818 
L 75.882273 -22.941818 
L 77.023636 -22.941818 
L 78.165 -22.941818 
L 79.306364 -22.941818 
L 80.447727 -22.941818 
L 81.589091 -22.941818 
L 82.730455 -22.941818 
L 83.871818 -22.941818 
L 85.013182 -22.941818 
L 86.154545 -22.941818 
L 87.295909 -22.941818 
L 88.437273 -22.941818 
L 89.578636 -22.941818 
L 90.72 -22.941818 
L 91.861364 -22.941818 
L 93.002727 -22.941818 
L 94.144091 -22.941818 
L 95.285455 -22.941818 
L 96.426818 -22.941818 
L 97.568182 -22.941818 
L 98.709545 -22.941818 
L 99.850909 -22.941818 
L 100.992273 -22.941818 
L 102.133636 -22.941818 
L 103.275 -22.941818 
L 104.416364 -22.941818 
L 105.557727 -22.941818 
L 106.699091 -22.941818 
L 107.840455 -22.941818 
L 108.981818 -22.941818 
L 110.123182 -22.941818 
L 111.264545 -22.941818 
L 112.405909 -22.941818 
L 113.547273 -22.941818 
L 114.688636 -22.941818 
L 115.83 -22.941818 
L 116.971364 -22.941818 
L 118.112727 -22.941818 
L 119.254091 -22.941818 
L 120.395455 -22.941818 
L 121.536818 -22.941818 
L 122.678182 -22.941818 
L 123.819545 -22.941818 
L 124.960909 -22.941818 
L 126.102273 -22.941818 
L 127.243636 -22.941818 
L 128.385 -22.941818 
L 129.526364 -22.941818 
L 130.667727 -22.941818 
L 131.809091 -22.941818 
L 132.950455 -22.941818 
L 134.091818 -22.941818 
L 135.233182 -22.941818 
L 136.374545 -22.941818 
L 137.515909 -22.941818 
L 138.657273 -22.941818 
L 139.798636 -22.941818 
L 140.94 -22.941818 
L 142.081364 -22.941818 
L 143.222727 -22.941818 
L 144.364091 -22.941818 
L 145.505455 -22.941818 
L 146.646818 -22.941818 
L 147.788182 -22.941818 
L 148.929545 -22.941818 
L 150.070909 -22.941818 
L 151.212273 -22.941818 
L 152.353636 -22.941818 
L 153.495 -22.941818 
L 154.636364 -22.941818 
L 155.777727 -22.941818 
L 156.919091 -22.941818 
L 158.060455 -22.941818 
L 159.201818 -22.941818 
L 160.343182 -22.941818 
L 161.484545 -22.941818 
L 162.625909 -22.941818 
L 163.767273 -22.941818 
L 164.908636 -22.941818 
L 166.05 -22.941818 
L 167.191364 -22.941818 
L 168.332727 -22.941818 
L 169.474091 -22.941818 
L 170.615455 -22.941818 
L 171.756818 -22.941818 
L 172.898182 -22.941818 
L 174.039545 -22.941818 
L 175.180909 -22.941818 
L 176.322273 -22.941818 
L 177.463636 -22.941818 
L 178.605 -22.941818 
L 179.746364 -22.941818 
L 180.887727 -22.941818 
L 182.029091 -22.941818 
L 183.170455 -22.941818 
L 184.311818 -22.941818 
L 185.453182 -22.941818 
L 186.594545 -22.941818 
L 187.735909 -22.941818 
L 188.877273 -22.941818 
L 190.018636 -22.941818 
L 191.16 -22.941818 
L 192.301364 -22.941818 
L 193.442727 -22.941818 
L 194.584091 -22.941818 
L 195.725455 -22.941818 
L 196.866818 -22.941818 
L 198.008182 -22.941818 
L 199.149545 -22.941818 
L 200.290909 -22.941818 
L 201.432273 -22.941818 
L 202.573636 -22.941818 
L 203.715 -22.941818 
L 204.856364 -22.941818 
L 205.997727 -22.941818 
L 207.139091 -22.941818 
L 208.280455 -22.941818 
L 209.421818 -22.941818 
L 210.563182 -22.941818 
L 211.704545 -22.941818 
L 212.845909 -22.941818 
L 213.987273 -22.941818 
L 215.128636 -22.941818 
L 216.27 -22.941818 
L 217.411364 -22.941818 
L 218.552727 -22.941818 
L 219.694091 -22.941818 
L 220.835455 -22.941818 
L 221.976818 -22.941818 
L 223.118182 -22.941818 
L 224.259545 -22.941818 
L 225.400909 -22.941818 
L 226.542273 -22.941818 
L 227.683636 -22.941818 
L 228.825 -22.941818 
L 229.966364 -22.941818 
L 231.107727 -22.941818 
L 232.249091 -22.941818 
L 233.390455 -22.941818 
L 234.531818 -22.941818 
L 235.673182 -22.941818 
L 236.814545 -22.941818 
L 237.955909 -22.941818 
L 239.097273 -22.941818 
L 240.238636 -22.941818 
L 241.38 -22.941818 
L 242.521364 -22.941818 
L 243.662727 -22.941818 
L 244.804091 -22.941818 
L 245.945455 -22.941818 
L 247.086818 -22.941818 
L 248.228182 -22.941818 
L 249.369545 -22.941818 
L 250.510909 -22.941818 
L 251.652273 -22.941818 
L 252.793636 -22.941818 
L 253.935 -22.941818 
L 255.076364 -22.941818 
L 256.217727 -22.941818 
L 257.359091 -22.941818 
L 258.500455 -22.941818 
L 259.641818 -22.941818 
L 260.783182 -22.941818 
L 261.924545 -22.941818 
L 263.065909 -22.941818 
L 264.207273 -22.941818 
L 265.348636 -22.941818 
L 266.49 -22.941818 
L 267.631364 -22.941818 
L 268.772727 -22.941818 
L 269.914091 -22.941818 
L 271.055455 -22.941818 
L 272.196818 -22.941818 
L 273.338182 -22.941818 
L 274.479545 -22.941818 
L 275.620909 -22.941818 
L 276.762273 -22.941818 
L 277.903636 -22.941818 
L 279.045 -22.941818 
L 280.186364 -22.941818 
L 281.327727 -22.941818 
L 282.469091 -22.941818 
L 283.610455 -22.941818 
L 284.751818 -22.941818 
L 285.893182 -22.941818 
L 287.034545 -22.941818 
L 288.175909 -22.941818 
L 289.317273 -22.941818 
L 290.458636 -22.941818 
L 290.458636 -121.778182 
L 290.458636 -121.778182 
L 289.317273 -120.036215 
L 288.175909 -118.32495 
L 287.034545 -116.643845 
L 285.893182 -114.99237 
L 284.751818 -113.370001 
L 283.610455 -111.776226 
L 282.469091 -110.210541 
L 281.327727 -108.672451 
L 280.186364 -107.16147 
L 279.045 -105.677119 
L 277.903636 -104.218929 
L 276.762273 -102.78644 
L 275.620909 -101.379198 
L 274.479545 -99.996758 
L 273.338182 -98.638683 
L 272.196818 -97.304545 
L 271.055455 -95.993919 
L 269.914091 -94.706394 
L 268.772727 -93.441561 
L 267.631364 -92.19902 
L 266.49 -90.978378 
L 265.348636 -89.779251 
L 264.207273 -88.601257 
L 263.065909 -87.444025 
L 261.924545 -86.30719 
L 260.783182 -85.19039 
L 259.641818 -84.093274 
L 258.500455 -83.015495 
L 257.359091 -81.956711 
L 256.217727 -80.916588 
L 255.076364 -79.894796 
L 253.935 -78.891014 
L 252.793636 -77.904923 
L 251.652273 -76.936212 
L 250.510909 -75.984574 
L 249.369545 -75.049708 
L 248.228182 -74.131319 
L 247.086818 -73.229116 
L 245.945455 -72.342815 
L 244.804091 -71.472134 
L 243.662727 -70.616799 
L 242.521364 -69.776539 
L 241.38 -68.951089 
L 240.238636 -68.140187 
L 239.097273 -67.343576 
L 237.955909 -66.561006 
L 236.814545 -65.792229 
L 235.673182 -65.037 
L 234.531818 -64.295083 
L 233.390455 -63.566242 
L 232.249091 -62.850246 
L 231.107727 -62.14687 
L 229.966364 -61.45589 
L 228.825 -60.777089 
L 227.683636 -60.110252 
L 226.542273 -59.455167 
L 225.400909 -58.811628 
L 224.259545 -58.179431 
L 223.118182 -57.558377 
L 221.976818 -56.948269 
L 220.835455 -56.348913 
L 219.694091 -55.760121 
L 218.552727 -55.181707 
L 217.411364 -54.613486 
L 216.27 -54.055281 
L 215.128636 -53.506914 
L 213.987273 -52.968211 
L 212.845909 -52.439003 
L 211.704545 -51.919123 
L 210.563182 -51.408405 
L 209.421818 -50.906688 
L 208.280455 -50.413814 
L 207.139091 -49.929627 
L 205.997727 -49.453973 
L 204.856364 -48.986703 
L 203.715 -48.527668 
L 202.573636 -48.076724 
L 201.432273 -47.633727 
L 200.290909 -47.198538 
L 199.149545 -46.771019 
L 198.008182 -46.351035 
L 196.866818 -45.938454 
L 195.725455 -45.533144 
L 194.584091 -45.134977 
L 193.442727 -44.743828 
L 192.301364 -44.359573 
L 191.16 -43.98209 
L 190.018636 -43.61126 
L 188.877273 -43.246966 
L 187.735909 -42.889093 
L 186.594545 -42.537527 
L 185.453182 -42.192158 
L 184.311818 -41.852875 
L 183.170455 -41.519572 
L 182.029091 -41.192144 
L 180.887727 -40.870486 
L 179.746364 -40.554498 
L 178.605 -40.244079 
L 177.463636 -39.939131 
L 176.322273 -39.639557 
L 175.180909 -39.345263 
L 174.039545 -39.056157 
L 172.898182 -38.772145 
L 171.756818 -38.49314 
L 170.615455 -38.219051 
L 169.474091 -37.949794 
L 168.332727 -37.685282 
L 167.191364 -37.425432 
L 166.05 -37.170162 
L 164.908636 -36.919391 
L 163.767273 -36.673039 
L 162.625909 -36.43103 
L 161.484545 -36.193286 
L 160.343182 -35.959732 
L 159.201818 -35.730294 
L 158.060455 -35.504901 
L 156.919091 -35.283479 
L 155.777727 -35.065961 
L 154.636364 -34.852276 
L 153.495 -34.642357 
L 152.353636 -34.436137 
L 151.212273 -34.233553 
L 150.070909 -34.034539 
L 148.929545 -33.839032 
L 147.788182 -33.646972 
L 146.646818 -33.458296 
L 145.505455 -33.272945 
L 144.364091 -33.090862 
L 143.222727 -32.911987 
L 142.081364 -32.736266 
L 140.94 -32.563641 
L 139.798636 -32.394059 
L 138.657273 -32.227465 
L 137.515909 -32.063808 
L 136.374545 -31.903035 
L 135.233182 -31.745096 
L 134.091818 -31.58994 
L 132.950455 -31.437519 
L 131.809091 -31.287784 
L 130.667727 -31.140689 
L 129.526364 -30.996186 
L 128.385 -30.854229 
L 127.243636 -30.714775 
L 126.102273 -30.577779 
L 124.960909 -30.443197 
L 123.819545 -30.310987 
L 122.678182 -30.181107 
L 121.536818 -30.053516 
L 120.395455 -29.928174 
L 119.254091 -29.805041 
L 118.112727 -29.684079 
L 116.971364 -29.565248 
L 115.83 -29.448512 
L 114.688636 -29.333833 
L 113.547273 -29.221175 
L 112.405909 -29.110503 
L 111.264545 -29.001781 
L 110.123182 -28.894976 
L 108.981818 -28.790053 
L 107.840455 -28.686979 
L 106.699091 -28.585722 
L 105.557727 -28.48625 
L 104.416364 -28.38853 
L 103.275 -28.292534 
L 102.133636 -28.198228 
L 100.992273 -28.105585 
L 99.850909 -28.014575 
L 98.709545 -27.925169 
L 97.568182 -27.837339 
L 96.426818 -27.751057 
L 95.285455 -27.666295 
L 94.144091 -27.583027 
L 93.002727 -27.501227 
L 91.861364 -27.420868 
L 90.72 -27.341926 
L 89.578636 -27.264375 
L 88.437273 -27.188191 
L 87.295909 -27.11335 
L 86.154545 -27.039828 
L 85.013182 -26.967601 
L 83.871818 -26.896648 
L 82.730455 -26.826945 
L 81.589091 -26.758471 
L 80.447727 -26.691203 
L 79.306364 -26.625121 
L 78.165 -26.560204 
L 77.023636 -26.496431 
L 75.882273 -26.433781 
L 74.740909 -26.372236 
L 73.599545 -26.311776 
L 72.458182 -26.252381 
L 71.316818 -26.194034 
L 70.175455 -26.136714 
L 69.034091 -26.080405 
L 67.892727 -26.025088 
L 66.751364 -25.970746 
L 65.61 -25.917362 
L 64.468636 -25.864919 
L 63.327273 -25.8134 
L 62.185909 -25.762789 
L 61.044545 -25.71307 
L 59.903182 -25.664227 
L 58.761818 -25.616246 
L 57.620455 -25.569109 
L 56.479091 -25.522804 
L 55.337727 -25.477315 
L 54.196364 -25.432627 
L 53.055 -25.388727 
L 51.913636 -25.345601 
L 50.772273 -25.303235 
L 49.630909 -25.261616 
L 48.489545 -25.22073 
L 47.348182 -25.180565 
L 46.206818 -25.141107 
L 45.065455 -25.102345 
L 43.924091 -25.064266 
L 42.782727 -25.026859 
L 41.641364 -24.99011 
L 40.5 -24.95401 
z
" id="mc698df9e8d" style="stroke:#e8b19d;"/>
    </defs>
    <g clip-path="url(#p13c7077224)">
     <use style="fill:#e8b19d;stroke:#e8b19d;" x="0" xlink:href="#mc698df9e8d" y="144"/>
    </g>
   </g>
   <g id="line2d_1">
    <path clip-path="url(#p13c7077224)" d="M 40.5 119.04599 
L 61.044545 118.28693 
L 78.165 117.439796 
L 93.002727 116.498773 
L 106.699091 115.414278 
L 119.254091 114.194959 
L 130.667727 112.859311 
L 140.94 111.436359 
L 150.070909 109.965461 
L 159.201818 108.269706 
L 167.191364 106.574568 
L 175.180909 104.654737 
L 183.170455 102.480428 
L 190.018636 100.38874 
L 196.866818 98.061546 
L 203.715 95.472332 
L 209.421818 93.093312 
L 215.128636 90.493086 
L 220.835455 87.651087 
L 226.542273 84.544833 
L 232.249091 81.149754 
L 237.955909 77.438994 
L 242.521364 74.223461 
L 247.086818 70.770884 
L 251.652273 67.063788 
L 256.217727 63.083412 
L 260.783182 58.80961 
L 265.348636 54.220749 
L 269.914091 49.293606 
L 274.479545 44.003242 
L 279.045 38.322881 
L 283.610455 32.223774 
L 288.175909 25.67505 
L 290.458636 22.221818 
L 290.458636 22.221818 
" style="fill:none;stroke:#d56c55;stroke-linecap:round;stroke-width:0.75;"/>
   </g>
   <g id="line2d_2">
    <defs>
     <path d="M 0 1.5 
C 0.397805 1.5 0.77937 1.341951 1.06066 1.06066 
C 1.341951 0.77937 1.5 0.397805 1.5 0 
C 1.5 -0.397805 1.341951 -0.77937 1.06066 -1.06066 
C 0.77937 -1.341951 0.397805 -1.5 0 -1.5 
C -0.397805 -1.5 -0.77937 -1.341951 -1.06066 -1.06066 
C -1.341951 -0.77937 -1.5 -0.397805 -1.5 0 
C -1.5 0.397805 -1.341951 0.77937 -1.06066 1.06066 
C -0.77937 1.341951 -0.397805 1.5 0 1.5 
z
" id="m22758dd631" style="stroke:#738fc1;"/>
    </defs>
    <g clip-path="url(#p13c7077224)">
     <use style="fill:#738fc1;stroke:#738fc1;" x="51.913636" xlink:href="#m22758dd631" y="118.654399"/>
     <use style="fill:#738fc1;stroke:#738fc1;" x="74.740909" xlink:href="#m22758dd631" y="117.627764"/>
     <use style="fill:#738fc1;stroke:#738fc1;" x="97.568182" xlink:href="#m22758dd631" y="116.162661"/>
     <use style="fill:#738fc1;stroke:#738fc1;" x="120.395455" xlink:href="#m22758dd631" y="114.071826"/>
     <use style="fill:#738fc1;stroke:#738fc1;" x="143.222727" xlink:href="#m22758dd631" y="111.088013"/>
     <use style="fill:#738fc1;stroke:#738fc1;" x="166.05" xlink:href="#m22758dd631" y="106.829838"/>
     <use style="fill:#738fc1;stroke:#738fc1;" x="188.877273" xlink:href="#m22758dd631" y="100.753034"/>
     <use style="fill:#738fc1;stroke:#738fc1;" x="211.704545" xlink:href="#m22758dd631" y="92.080877"/>
     <use style="fill:#738fc1;stroke:#738fc1;" x="234.531818" xlink:href="#m22758dd631" y="79.704917"/>
     <use style="fill:#738fc1;stroke:#738fc1;" x="257.359091" xlink:href="#m22758dd631" y="62.043289"/>
     <use style="fill:#738fc1;stroke:#738fc1;" x="280.186364" xlink:href="#m22758dd631" y="36.83853"/>
    </g>
   </g>
   <g id="line2d_3"/>
   <g id="patch_3">
    <path d="M 40.5 126 
L 40.5 17.28 
" style="fill:none;stroke:#ffffff;stroke-linecap:square;stroke-linejoin:miter;stroke-width:0.8;"/>
   </g>
   <g id="patch_4">
    <path d="M 291.6 126 
L 291.6 17.28 
" style="fill:none;stroke:#ffffff;stroke-linecap:square;stroke-linejoin:miter;stroke-width:0.8;"/>
   </g>
   <g id="patch_5">
    <path d="M 40.5 126 
L 291.6 126 
" style="fill:none;stroke:#ffffff;stroke-linecap:square;stroke-linejoin:miter;stroke-width:0.8;"/>
   </g>
   <g id="patch_6">
    <path d="M 40.5 17.28 
L 291.6 17.28 
" style="fill:none;stroke:#ffffff;stroke-linecap:square;stroke-linejoin:miter;stroke-width:0.8;"/>
   </g>
   <g id="text_18">
    <!-- 50$\times 10^{16}$ kJ -->
    <defs>
     <path d="M 59.703125 2.203125 
L 55.09375 -2.5 
L 32 20.5 
L 8.90625 -2.5 
L 4.296875 2.09375 
L 27.296875 25.203125 
L 4.296875 48.296875 
L 9 52.90625 
L 32 29.90625 
L 55.09375 52.90625 
L 59.703125 48.40625 
L 36.703125 25.203125 
z
" id="STIXGeneral-Regular-215"/>
     <path d="M 47.703125 33 
Q 47.703125 23.796875 45.546875 16.34375 
Q 43.40625 8.90625 38.09375 3.75 
Q 32.796875 -1.40625 25 -1.40625 
Q 18.796875 -1.40625 14.25 1.6875 
Q 9.703125 4.796875 7.203125 10.046875 
Q 4.703125 15.296875 3.5 21.140625 
Q 2.296875 27 2.296875 33.59375 
Q 2.296875 42.90625 4.59375 50.34375 
Q 6.90625 57.796875 12.296875 62.6875 
Q 17.703125 67.59375 25.40625 67.59375 
Q 35.203125 67.59375 41.453125 57.9375 
Q 47.703125 48.296875 47.703125 33 
z
M 39.796875 33 
Q 39.796875 45.203125 35.75 52.84375 
Q 31.703125 60.5 25.203125 60.5 
Q 17.796875 60.5 14 52.75 
Q 10.203125 45 10.203125 33.40625 
Q 10.203125 28.203125 10.953125 23.546875 
Q 11.703125 18.90625 13.34375 14.75 
Q 15 10.59375 18 8.140625 
Q 21 5.703125 25 5.703125 
Q 30.09375 5.703125 33.546875 9.796875 
Q 37 13.90625 38.390625 19.84375 
Q 39.796875 25.796875 39.796875 33 
z
" id="STIXGeneral-Regular-120802"/>
    </defs>
    <g style="fill:#738fc1;" transform="translate(56.756761 137.880795)rotate(-90)scale(0.06 -0.06)">
     <use transform="translate(0 0.878125)" xlink:href="#LucidaSansUnicode-53"/>
     <use transform="translate(63.232422 0.878125)" xlink:href="#LucidaSansUnicode-48"/>
     <use transform="translate(126.464844 0.878125)" xlink:href="#STIXGeneral-Regular-215"/>
     <use transform="translate(190.464828 0.878125)" xlink:href="#STIXGeneral-Regular-120803"/>
     <use transform="translate(240.464813 0.878125)" xlink:href="#STIXGeneral-Regular-120802"/>
     <use transform="translate(291.257493 37.115625)scale(0.7)" xlink:href="#STIXGeneral-Regular-120803"/>
     <use transform="translate(326.257483 37.115625)scale(0.7)" xlink:href="#STIXGeneral-Regular-120808"/>
     <use transform="translate(363.522316 0.878125)" xlink:href="#LucidaSansUnicode-32"/>
     <use transform="translate(395.162941 0.878125)" xlink:href="#LucidaSansUnicode-107"/>
     <use transform="translate(453.610206 0.878125)" xlink:href="#LucidaSansUnicode-74"/>
    </g>
   </g>
   <g id="text_19">
    <!-- 70$\times 10^{16}$ kJ -->
    <g style="fill:#738fc1;" transform="translate(79.584034 136.854159)rotate(-90)scale(0.06 -0.06)">
     <use transform="translate(0 0.878125)" xlink:href="#LucidaSansUnicode-55"/>
     <use transform="translate(63.232422 0.878125)" xlink:href="#LucidaSansUnicode-48"/>
     <use transform="translate(126.464844 0.878125)" xlink:href="#STIXGeneral-Regular-215"/>
     <use transform="translate(190.464828 0.878125)" xlink:href="#STIXGeneral-Regular-120803"/>
     <use transform="translate(240.464813 0.878125)" xlink:href="#STIXGeneral-Regular-120802"/>
     <use transform="translate(291.257493 37.115625)scale(0.7)" xlink:href="#STIXGeneral-Regular-120803"/>
     <use transform="translate(326.257483 37.115625)scale(0.7)" xlink:href="#STIXGeneral-Regular-120808"/>
     <use transform="translate(363.522316 0.878125)" xlink:href="#LucidaSansUnicode-32"/>
     <use transform="translate(395.162941 0.878125)" xlink:href="#LucidaSansUnicode-107"/>
     <use transform="translate(453.610206 0.878125)" xlink:href="#LucidaSansUnicode-74"/>
    </g>
   </g>
   <g id="text_20">
    <!-- 100$\times 10^{16}$ kJ -->
    <g style="fill:#738fc1;" transform="translate(102.411307 139.169057)rotate(-90)scale(0.06 -0.06)">
     <use transform="translate(0 0.878125)" xlink:href="#LucidaSansUnicode-49"/>
     <use transform="translate(63.232422 0.878125)" xlink:href="#LucidaSansUnicode-48"/>
     <use transform="translate(126.464844 0.878125)" xlink:href="#LucidaSansUnicode-48"/>
     <use transform="translate(189.697266 0.878125)" xlink:href="#STIXGeneral-Regular-215"/>
     <use transform="translate(253.69725 0.878125)" xlink:href="#STIXGeneral-Regular-120803"/>
     <use transform="translate(303.697235 0.878125)" xlink:href="#STIXGeneral-Regular-120802"/>
     <use transform="translate(354.489915 37.115625)scale(0.7)" xlink:href="#STIXGeneral-Regular-120803"/>
     <use transform="translate(389.489904 37.115625)scale(0.7)" xlink:href="#STIXGeneral-Regular-120808"/>
     <use transform="translate(426.754738 0.878125)" xlink:href="#LucidaSansUnicode-32"/>
     <use transform="translate(458.395363 0.878125)" xlink:href="#LucidaSansUnicode-107"/>
     <use transform="translate(516.842628 0.878125)" xlink:href="#LucidaSansUnicode-74"/>
    </g>
   </g>
   <g id="text_21">
    <!-- 140$\times 10^{16}$ kJ -->
    <g style="fill:#738fc1;" transform="translate(125.23858 137.078222)rotate(-90)scale(0.06 -0.06)">
     <use transform="translate(0 0.878125)" xlink:href="#LucidaSansUnicode-49"/>
     <use transform="translate(63.232422 0.878125)" xlink:href="#LucidaSansUnicode-52"/>
     <use transform="translate(126.464844 0.878125)" xlink:href="#LucidaSansUnicode-48"/>
     <use transform="translate(189.697266 0.878125)" xlink:href="#STIXGeneral-Regular-215"/>
     <use transform="translate(253.69725 0.878125)" xlink:href="#STIXGeneral-Regular-120803"/>
     <use transform="translate(303.697235 0.878125)" xlink:href="#STIXGeneral-Regular-120802"/>
     <use transform="translate(354.489915 37.115625)scale(0.7)" xlink:href="#STIXGeneral-Regular-120803"/>
     <use transform="translate(389.489904 37.115625)scale(0.7)" xlink:href="#STIXGeneral-Regular-120808"/>
     <use transform="translate(426.754738 0.878125)" xlink:href="#LucidaSansUnicode-32"/>
     <use transform="translate(458.395363 0.878125)" xlink:href="#LucidaSansUnicode-107"/>
     <use transform="translate(516.842628 0.878125)" xlink:href="#LucidaSansUnicode-74"/>
    </g>
   </g>
   <g id="text_22">
    <!-- 200$\times 10^{16}$ kJ -->
    <g style="fill:#738fc1;" transform="translate(148.065852 134.094408)rotate(-90)scale(0.06 -0.06)">
     <use transform="translate(0 0.878125)" xlink:href="#LucidaSansUnicode-50"/>
     <use transform="translate(63.232422 0.878125)" xlink:href="#LucidaSansUnicode-48"/>
     <use transform="translate(126.464844 0.878125)" xlink:href="#LucidaSansUnicode-48"/>
     <use transform="translate(189.697266 0.878125)" xlink:href="#STIXGeneral-Regular-215"/>
     <use transform="translate(253.69725 0.878125)" xlink:href="#STIXGeneral-Regular-120803"/>
     <use transform="translate(303.697235 0.878125)" xlink:href="#STIXGeneral-Regular-120802"/>
     <use transform="translate(354.489915 37.115625)scale(0.7)" xlink:href="#STIXGeneral-Regular-120803"/>
     <use transform="translate(389.489904 37.115625)scale(0.7)" xlink:href="#STIXGeneral-Regular-120808"/>
     <use transform="translate(426.754738 0.878125)" xlink:href="#LucidaSansUnicode-32"/>
     <use transform="translate(458.395363 0.878125)" xlink:href="#LucidaSansUnicode-107"/>
     <use transform="translate(516.842628 0.878125)" xlink:href="#LucidaSansUnicode-74"/>
    </g>
   </g>
   <g id="text_23">
    <!-- 280$\times 10^{16}$ kJ -->
    <g style="fill:#738fc1;" transform="translate(170.893125 129.836234)rotate(-90)scale(0.06 -0.06)">
     <use transform="translate(0 0.878125)" xlink:href="#LucidaSansUnicode-50"/>
     <use transform="translate(63.232422 0.878125)" xlink:href="#LucidaSansUnicode-56"/>
     <use transform="translate(126.464844 0.878125)" xlink:href="#LucidaSansUnicode-48"/>
     <use transform="translate(189.697266 0.878125)" xlink:href="#STIXGeneral-Regular-215"/>
     <use transform="translate(253.69725 0.878125)" xlink:href="#STIXGeneral-Regular-120803"/>
     <use transform="translate(303.697235 0.878125)" xlink:href="#STIXGeneral-Regular-120802"/>
     <use transform="translate(354.489915 37.115625)scale(0.7)" xlink:href="#STIXGeneral-Regular-120803"/>
     <use transform="translate(389.489904 37.115625)scale(0.7)" xlink:href="#STIXGeneral-Regular-120808"/>
     <use transform="translate(426.754738 0.878125)" xlink:href="#LucidaSansUnicode-32"/>
     <use transform="translate(458.395363 0.878125)" xlink:href="#LucidaSansUnicode-107"/>
     <use transform="translate(516.842628 0.878125)" xlink:href="#LucidaSansUnicode-74"/>
    </g>
   </g>
   <g id="text_24">
    <!-- 400$\times 10^{16}$ kJ -->
    <g style="fill:#738fc1;" transform="translate(193.720398 123.759429)rotate(-90)scale(0.06 -0.06)">
     <use transform="translate(0 0.878125)" xlink:href="#LucidaSansUnicode-52"/>
     <use transform="translate(63.232422 0.878125)" xlink:href="#LucidaSansUnicode-48"/>
     <use transform="translate(126.464844 0.878125)" xlink:href="#LucidaSansUnicode-48"/>
     <use transform="translate(189.697266 0.878125)" xlink:href="#STIXGeneral-Regular-215"/>
     <use transform="translate(253.69725 0.878125)" xlink:href="#STIXGeneral-Regular-120803"/>
     <use transform="translate(303.697235 0.878125)" xlink:href="#STIXGeneral-Regular-120802"/>
     <use transform="translate(354.489915 37.115625)scale(0.7)" xlink:href="#STIXGeneral-Regular-120803"/>
     <use transform="translate(389.489904 37.115625)scale(0.7)" xlink:href="#STIXGeneral-Regular-120808"/>
     <use transform="translate(426.754738 0.878125)" xlink:href="#LucidaSansUnicode-32"/>
     <use transform="translate(458.395363 0.878125)" xlink:href="#LucidaSansUnicode-107"/>
     <use transform="translate(516.842628 0.878125)" xlink:href="#LucidaSansUnicode-74"/>
    </g>
   </g>
   <g id="text_25">
    <!-- 580$\times 10^{16}$ kJ -->
    <g style="fill:#738fc1;" transform="translate(216.54767 115.087273)rotate(-90)scale(0.06 -0.06)">
     <use transform="translate(0 0.878125)" xlink:href="#LucidaSansUnicode-53"/>
     <use transform="translate(63.232422 0.878125)" xlink:href="#LucidaSansUnicode-56"/>
     <use transform="translate(126.464844 0.878125)" xlink:href="#LucidaSansUnicode-48"/>
     <use transform="translate(189.697266 0.878125)" xlink:href="#STIXGeneral-Regular-215"/>
     <use transform="translate(253.69725 0.878125)" xlink:href="#STIXGeneral-Regular-120803"/>
     <use transform="translate(303.697235 0.878125)" xlink:href="#STIXGeneral-Regular-120802"/>
     <use transform="translate(354.489915 37.115625)scale(0.7)" xlink:href="#STIXGeneral-Regular-120803"/>
     <use transform="translate(389.489904 37.115625)scale(0.7)" xlink:href="#STIXGeneral-Regular-120808"/>
     <use transform="translate(426.754738 0.878125)" xlink:href="#LucidaSansUnicode-32"/>
     <use transform="translate(458.395363 0.878125)" xlink:href="#LucidaSansUnicode-107"/>
     <use transform="translate(516.842628 0.878125)" xlink:href="#LucidaSansUnicode-74"/>
    </g>
   </g>
   <g id="text_26">
    <!-- 820$\times 10^{16}$ kJ -->
    <g style="fill:#738fc1;" transform="translate(239.374943 102.711313)rotate(-90)scale(0.06 -0.06)">
     <use transform="translate(0 0.878125)" xlink:href="#LucidaSansUnicode-56"/>
     <use transform="translate(63.232422 0.878125)" xlink:href="#LucidaSansUnicode-50"/>
     <use transform="translate(126.464844 0.878125)" xlink:href="#LucidaSansUnicode-48"/>
     <use transform="translate(189.697266 0.878125)" xlink:href="#STIXGeneral-Regular-215"/>
     <use transform="translate(253.69725 0.878125)" xlink:href="#STIXGeneral-Regular-120803"/>
     <use transform="translate(303.697235 0.878125)" xlink:href="#STIXGeneral-Regular-120802"/>
     <use transform="translate(354.489915 37.115625)scale(0.7)" xlink:href="#STIXGeneral-Regular-120803"/>
     <use transform="translate(389.489904 37.115625)scale(0.7)" xlink:href="#STIXGeneral-Regular-120808"/>
     <use transform="translate(426.754738 0.878125)" xlink:href="#LucidaSansUnicode-32"/>
     <use transform="translate(458.395363 0.878125)" xlink:href="#LucidaSansUnicode-107"/>
     <use transform="translate(516.842628 0.878125)" xlink:href="#LucidaSansUnicode-74"/>
    </g>
   </g>
   <g id="text_27">
    <!-- 1170$\times 10^{16}$ kJ -->
    <g style="fill:#738fc1;" transform="translate(262.202216 88.889685)rotate(-90)scale(0.06 -0.06)">
     <use transform="translate(0 0.878125)" xlink:href="#LucidaSansUnicode-49"/>
     <use transform="translate(63.232422 0.878125)" xlink:href="#LucidaSansUnicode-49"/>
     <use transform="translate(126.464844 0.878125)" xlink:href="#LucidaSansUnicode-55"/>
     <use transform="translate(189.697266 0.878125)" xlink:href="#LucidaSansUnicode-48"/>
     <use transform="translate(252.929688 0.878125)" xlink:href="#STIXGeneral-Regular-215"/>
     <use transform="translate(316.929672 0.878125)" xlink:href="#STIXGeneral-Regular-120803"/>
     <use transform="translate(366.929657 0.878125)" xlink:href="#STIXGeneral-Regular-120802"/>
     <use transform="translate(417.722337 37.115625)scale(0.7)" xlink:href="#STIXGeneral-Regular-120803"/>
     <use transform="translate(452.722326 37.115625)scale(0.7)" xlink:href="#STIXGeneral-Regular-120808"/>
     <use transform="translate(489.987159 0.878125)" xlink:href="#LucidaSansUnicode-32"/>
     <use transform="translate(521.627784 0.878125)" xlink:href="#LucidaSansUnicode-107"/>
     <use transform="translate(580.07505 0.878125)" xlink:href="#LucidaSansUnicode-74"/>
    </g>
   </g>
   <g id="text_28">
    <!-- 1670$\times 10^{16}$ kJ -->
    <g style="fill:#738fc1;" transform="translate(285.029489 63.684926)rotate(-90)scale(0.06 -0.06)">
     <use transform="translate(0 0.878125)" xlink:href="#LucidaSansUnicode-49"/>
     <use transform="translate(63.232422 0.878125)" xlink:href="#LucidaSansUnicode-54"/>
     <use transform="translate(126.464844 0.878125)" xlink:href="#LucidaSansUnicode-55"/>
     <use transform="translate(189.697266 0.878125)" xlink:href="#LucidaSansUnicode-48"/>
     <use transform="translate(252.929688 0.878125)" xlink:href="#STIXGeneral-Regular-215"/>
     <use transform="translate(316.929672 0.878125)" xlink:href="#STIXGeneral-Regular-120803"/>
     <use transform="translate(366.929657 0.878125)" xlink:href="#STIXGeneral-Regular-120802"/>
     <use transform="translate(417.722337 37.115625)scale(0.7)" xlink:href="#STIXGeneral-Regular-120803"/>
     <use transform="translate(452.722326 37.115625)scale(0.7)" xlink:href="#STIXGeneral-Regular-120808"/>
     <use transform="translate(489.987159 0.878125)" xlink:href="#LucidaSansUnicode-32"/>
     <use transform="translate(521.627784 0.878125)" xlink:href="#LucidaSansUnicode-107"/>
     <use transform="translate(580.07505 0.878125)" xlink:href="#LucidaSansUnicode-74"/>
    </g>
   </g>
   <g id="legend_1">
    <g id="patch_7">
     <path d="M 44.7 39.785625 
L 134.664375 39.785625 
Q 135.864375 39.785625 135.864375 38.585625 
L 135.864375 21.48 
Q 135.864375 20.28 134.664375 20.28 
L 44.7 20.28 
Q 43.5 20.28 43.5 21.48 
L 43.5 38.585625 
Q 43.5 39.785625 44.7 39.785625 
z
" style="fill:#e3dcd0;opacity:0.8;stroke:#cccccc;stroke-linejoin:miter;"/>
    </g>
    <g id="line2d_4">
     <path d="M 45.9 25.205625 
L 57.9 25.205625 
" style="fill:none;stroke:#d56c55;stroke-linecap:round;stroke-width:0.75;"/>
    </g>
    <g id="line2d_5"/>
    <g id="text_29">
     <!-- exponential growth -->
     <defs>
      <path d="M 4.296875 0 
L 24.46875 27.390625 
L 4.890625 53.03125 
L 16.3125 53.03125 
L 31.78125 32.625 
L 45.796875 53.03125 
L 55.171875 53.03125 
L 36.8125 26.125 
L 56.78125 0 
L 45.359375 0 
L 29.390625 21 
L 13.96875 0 
z
" id="LucidaSansUnicode-120"/>
      <path d="M 9.625 -19.28125 
L 9.625 53.03125 
L 19.234375 53.03125 
L 19.234375 43.0625 
Q 25.140625 54.203125 36.96875 54.203125 
Q 46.53125 54.203125 52.015625 47.21875 
Q 57.515625 40.234375 57.515625 28.125 
Q 57.515625 14.9375 51.28125 6.859375 
Q 45.0625 -1.21875 34.90625 -1.21875 
Q 25.484375 -1.21875 19.234375 6 
L 19.234375 -19.28125 
z
M 19.234375 12.640625 
Q 26.65625 6 33.40625 6 
Q 40.046875 6 43.65625 11.546875 
Q 47.265625 17.09375 47.265625 27.15625 
Q 47.265625 45.796875 34.96875 45.796875 
Q 26.90625 45.796875 19.234375 37.0625 
z
" id="LucidaSansUnicode-112"/>
      <path d="M 30.71875 -1.21875 
Q 19.046875 -1.21875 12.234375 6.25 
Q 5.421875 13.71875 5.421875 26.515625 
Q 5.421875 39.3125 12.234375 46.75 
Q 19.046875 54.203125 30.71875 54.203125 
Q 42.390625 54.203125 49.1875 46.75 
Q 56 39.3125 56 26.515625 
Q 56 13.71875 49.1875 6.25 
Q 42.390625 -1.21875 30.71875 -1.21875 
z
M 30.71875 6 
Q 37.890625 6 41.84375 11.375 
Q 45.796875 16.75 45.796875 26.515625 
Q 45.796875 36.28125 41.84375 41.625 
Q 37.890625 46.96875 30.71875 46.96875 
Q 23.53125 46.96875 19.59375 41.625 
Q 15.671875 36.28125 15.671875 26.515625 
Q 15.671875 16.75 19.59375 11.375 
Q 23.53125 6 30.71875 6 
z
" id="LucidaSansUnicode-111"/>
      <path d="M 9.625 0 
L 9.625 77.09375 
L 19.234375 77.09375 
L 19.234375 0 
z
" id="LucidaSansUnicode-108"/>
      <path d="M 15.765625 0 
L 0.59375 53.03125 
L 10.015625 53.03125 
L 21.625 11.96875 
L 34.1875 53.03125 
L 43.796875 53.03125 
L 54.78125 11.96875 
L 68.109375 53.03125 
L 76.375 53.03125 
L 59.078125 0 
L 49.421875 0 
L 38.1875 41.0625 
L 25.484375 0 
z
" id="LucidaSansUnicode-119"/>
      <path d="M 9.625 0 
L 9.625 77.09375 
L 19.234375 77.09375 
L 19.234375 43.0625 
Q 26.859375 54.203125 37.890625 54.203125 
Q 44.828125 54.203125 48.90625 49.828125 
Q 52.984375 45.453125 52.984375 38.09375 
L 52.984375 0 
L 43.359375 0 
L 43.359375 34.96875 
Q 43.359375 40.875 41.625 43.390625 
Q 39.890625 45.90625 35.890625 45.90625 
Q 27.046875 45.90625 19.234375 34.328125 
L 19.234375 0 
z
" id="LucidaSansUnicode-104"/>
     </defs>
     <g style="fill:#262626;" transform="translate(62.7 27.305625)scale(0.06 -0.06)">
      <use xlink:href="#LucidaSansUnicode-101"/>
      <use x="55.712891" xlink:href="#LucidaSansUnicode-120"/>
      <use x="117.041016" xlink:href="#LucidaSansUnicode-112"/>
      <use x="179.980469" xlink:href="#LucidaSansUnicode-111"/>
      <use x="241.40625" xlink:href="#LucidaSansUnicode-110"/>
      <use x="303.466797" xlink:href="#LucidaSansUnicode-101"/>
      <use x="359.179688" xlink:href="#LucidaSansUnicode-110"/>
      <use x="421.240234" xlink:href="#LucidaSansUnicode-116"/>
      <use x="458.642578" xlink:href="#LucidaSansUnicode-105"/>
      <use x="487.548828" xlink:href="#LucidaSansUnicode-97"/>
      <use x="542.773438" xlink:href="#LucidaSansUnicode-108"/>
      <use x="571.679688" xlink:href="#LucidaSansUnicode-32"/>
      <use x="603.320312" xlink:href="#LucidaSansUnicode-103"/>
      <use x="665.673828" xlink:href="#LucidaSansUnicode-114"/>
      <use x="706.591797" xlink:href="#LucidaSansUnicode-111"/>
      <use x="768.017578" xlink:href="#LucidaSansUnicode-119"/>
      <use x="845.068359" xlink:href="#LucidaSansUnicode-116"/>
      <use x="882.470703" xlink:href="#LucidaSansUnicode-104"/>
     </g>
    </g>
    <g id="line2d_6">
     <path d="M 45.9 34.058437 
L 57.9 34.058437 
" style="fill:none;stroke:#738fc1;stroke-linecap:round;stroke-width:1.5;"/>
    </g>
    <g id="line2d_7">
     <g>
      <use style="fill:#738fc1;stroke:#738fc1;" x="51.9" xlink:href="#m22758dd631" y="34.058437"/>
     </g>
    </g>
    <g id="text_30">
     <!-- approximate integration -->
     <g style="fill:#262626;" transform="translate(62.7 36.158437)scale(0.06 -0.06)">
      <use xlink:href="#LucidaSansUnicode-97"/>
      <use x="55.224609" xlink:href="#LucidaSansUnicode-112"/>
      <use x="118.164062" xlink:href="#LucidaSansUnicode-112"/>
      <use x="181.103516" xlink:href="#LucidaSansUnicode-114"/>
      <use x="222.021484" xlink:href="#LucidaSansUnicode-111"/>
      <use x="283.447266" xlink:href="#LucidaSansUnicode-120"/>
      <use x="344.775391" xlink:href="#LucidaSansUnicode-105"/>
      <use x="373.681641" xlink:href="#LucidaSansUnicode-109"/>
      <use x="467.041016" xlink:href="#LucidaSansUnicode-97"/>
      <use x="522.265625" xlink:href="#LucidaSansUnicode-116"/>
      <use x="559.667969" xlink:href="#LucidaSansUnicode-101"/>
      <use x="615.380859" xlink:href="#LucidaSansUnicode-32"/>
      <use x="647.021484" xlink:href="#LucidaSansUnicode-105"/>
      <use x="675.927734" xlink:href="#LucidaSansUnicode-110"/>
      <use x="737.988281" xlink:href="#LucidaSansUnicode-116"/>
      <use x="775.390625" xlink:href="#LucidaSansUnicode-101"/>
      <use x="831.103516" xlink:href="#LucidaSansUnicode-103"/>
      <use x="893.457031" xlink:href="#LucidaSansUnicode-114"/>
      <use x="934.375" xlink:href="#LucidaSansUnicode-97"/>
      <use x="989.599609" xlink:href="#LucidaSansUnicode-116"/>
      <use x="1027.001953" xlink:href="#LucidaSansUnicode-105"/>
      <use x="1055.908203" xlink:href="#LucidaSansUnicode-111"/>
      <use x="1117.333984" xlink:href="#LucidaSansUnicode-110"/>
     </g>
    </g>
   </g>
   <g id="LineCollection_1">
    <path clip-path="url(#p13c7077224)" d="M 40.5 121.058182 
L 40.5 118.654399 
" style="fill:none;stroke:#738fc1;stroke-width:0.75;"/>
    <path clip-path="url(#p13c7077224)" d="M 63.327273 121.058182 
L 63.327273 117.627764 
" style="fill:none;stroke:#738fc1;stroke-width:0.75;"/>
    <path clip-path="url(#p13c7077224)" d="M 86.154545 121.058182 
L 86.154545 116.162661 
" style="fill:none;stroke:#738fc1;stroke-width:0.75;"/>
    <path clip-path="url(#p13c7077224)" d="M 108.981818 121.058182 
L 108.981818 114.071826 
" style="fill:none;stroke:#738fc1;stroke-width:0.75;"/>
    <path clip-path="url(#p13c7077224)" d="M 131.809091 121.058182 
L 131.809091 111.088013 
" style="fill:none;stroke:#738fc1;stroke-width:0.75;"/>
    <path clip-path="url(#p13c7077224)" d="M 154.636364 121.058182 
L 154.636364 106.829838 
" style="fill:none;stroke:#738fc1;stroke-width:0.75;"/>
    <path clip-path="url(#p13c7077224)" d="M 177.463636 121.058182 
L 177.463636 100.753034 
" style="fill:none;stroke:#738fc1;stroke-width:0.75;"/>
    <path clip-path="url(#p13c7077224)" d="M 200.290909 121.058182 
L 200.290909 92.080877 
" style="fill:none;stroke:#738fc1;stroke-width:0.75;"/>
    <path clip-path="url(#p13c7077224)" d="M 223.118182 121.058182 
L 223.118182 79.704917 
" style="fill:none;stroke:#738fc1;stroke-width:0.75;"/>
    <path clip-path="url(#p13c7077224)" d="M 245.945455 121.058182 
L 245.945455 62.043289 
" style="fill:none;stroke:#738fc1;stroke-width:0.75;"/>
    <path clip-path="url(#p13c7077224)" d="M 268.772727 121.058182 
L 268.772727 36.83853 
" style="fill:none;stroke:#738fc1;stroke-width:0.75;"/>
   </g>
   <g id="LineCollection_2">
    <path clip-path="url(#p13c7077224)" d="M 63.327273 121.058182 
L 63.327273 118.654399 
" style="fill:none;stroke:#738fc1;stroke-width:0.75;"/>
    <path clip-path="url(#p13c7077224)" d="M 86.154545 121.058182 
L 86.154545 117.627764 
" style="fill:none;stroke:#738fc1;stroke-width:0.75;"/>
    <path clip-path="url(#p13c7077224)" d="M 108.981818 121.058182 
L 108.981818 116.162661 
" style="fill:none;stroke:#738fc1;stroke-width:0.75;"/>
    <path clip-path="url(#p13c7077224)" d="M 131.809091 121.058182 
L 131.809091 114.071826 
" style="fill:none;stroke:#738fc1;stroke-width:0.75;"/>
    <path clip-path="url(#p13c7077224)" d="M 154.636364 121.058182 
L 154.636364 111.088013 
" style="fill:none;stroke:#738fc1;stroke-width:0.75;"/>
    <path clip-path="url(#p13c7077224)" d="M 177.463636 121.058182 
L 177.463636 106.829838 
" style="fill:none;stroke:#738fc1;stroke-width:0.75;"/>
    <path clip-path="url(#p13c7077224)" d="M 200.290909 121.058182 
L 200.290909 100.753034 
" style="fill:none;stroke:#738fc1;stroke-width:0.75;"/>
    <path clip-path="url(#p13c7077224)" d="M 223.118182 121.058182 
L 223.118182 92.080877 
" style="fill:none;stroke:#738fc1;stroke-width:0.75;"/>
    <path clip-path="url(#p13c7077224)" d="M 245.945455 121.058182 
L 245.945455 79.704917 
" style="fill:none;stroke:#738fc1;stroke-width:0.75;"/>
    <path clip-path="url(#p13c7077224)" d="M 268.772727 121.058182 
L 268.772727 62.043289 
" style="fill:none;stroke:#738fc1;stroke-width:0.75;"/>
    <path clip-path="url(#p13c7077224)" d="M 291.6 121.058182 
L 291.6 36.83853 
" style="fill:none;stroke:#738fc1;stroke-width:0.75;"/>
   </g>
   <g id="LineCollection_3">
    <path clip-path="url(#p13c7077224)" d="M 40.5 118.654399 
L 63.327273 118.654399 
" style="fill:none;stroke:#738fc1;stroke-width:0.75;"/>
    <path clip-path="url(#p13c7077224)" d="M 63.327273 117.627764 
L 86.154545 117.627764 
" style="fill:none;stroke:#738fc1;stroke-width:0.75;"/>
    <path clip-path="url(#p13c7077224)" d="M 86.154545 116.162661 
L 108.981818 116.162661 
" style="fill:none;stroke:#738fc1;stroke-width:0.75;"/>
    <path clip-path="url(#p13c7077224)" d="M 108.981818 114.071826 
L 131.809091 114.071826 
" style="fill:none;stroke:#738fc1;stroke-width:0.75;"/>
    <path clip-path="url(#p13c7077224)" d="M 131.809091 111.088013 
L 154.636364 111.088013 
" style="fill:none;stroke:#738fc1;stroke-width:0.75;"/>
    <path clip-path="url(#p13c7077224)" d="M 154.636364 106.829838 
L 177.463636 106.829838 
" style="fill:none;stroke:#738fc1;stroke-width:0.75;"/>
    <path clip-path="url(#p13c7077224)" d="M 177.463636 100.753034 
L 200.290909 100.753034 
" style="fill:none;stroke:#738fc1;stroke-width:0.75;"/>
    <path clip-path="url(#p13c7077224)" d="M 200.290909 92.080877 
L 223.118182 92.080877 
" style="fill:none;stroke:#738fc1;stroke-width:0.75;"/>
    <path clip-path="url(#p13c7077224)" d="M 223.118182 79.704917 
L 245.945455 79.704917 
" style="fill:none;stroke:#738fc1;stroke-width:0.75;"/>
    <path clip-path="url(#p13c7077224)" d="M 245.945455 62.043289 
L 268.772727 62.043289 
" style="fill:none;stroke:#738fc1;stroke-width:0.75;"/>
    <path clip-path="url(#p13c7077224)" d="M 268.772727 36.83853 
L 291.6 36.83853 
" style="fill:none;stroke:#738fc1;stroke-width:0.75;"/>
   </g>
  </g>
 </g>
 <defs>
  <clipPath id="p13c7077224">
   <rect height="108.72" width="251.1" x="40.5" y="17.28"/>
  </clipPath>
 </defs>
</svg>
