<?xml version="1.0" encoding="utf-8" standalone="no"?>
<!DOCTYPE svg PUBLIC "-//W3C//DTD SVG 1.1//EN"
  "http://www.w3.org/Graphics/SVG/1.1/DTD/svg11.dtd">
<!-- Created with matplotlib (https://matplotlib.org/) -->
<svg height="144pt" version="1.1" viewBox="0 0 432 144" width="432pt" xmlns="http://www.w3.org/2000/svg" xmlns:xlink="http://www.w3.org/1999/xlink">
 <defs>
  <style type="text/css">
*{stroke-linecap:butt;stroke-linejoin:round;}
  </style>
 </defs>
 <g id="figure_1">
  <g id="patch_1">
   <path d="M 0 144 
L 432 144 
L 432 0 
L 0 0 
z
" style="fill:#ffffff;"/>
  </g>
  <g id="axes_1">
   <g id="patch_2">
    <path d="M 39.09 112.74 
L 136.56 112.74 
L 136.56 23.227654 
L 39.09 23.227654 
z
" style="fill:#e3dcd0;"/>
   </g>
   <g id="matplotlib.axis_1">
    <g id="xtick_1">
     <g id="text_1">
      <!-- 0 -->
      <defs>
       <path d="M 31.640625 -1.8125 
Q 20.265625 -1.8125 13.296875 8.609375 
Q 6.34375 19.046875 6.34375 36.140625 
Q 6.34375 53.21875 13.296875 63.640625 
Q 20.265625 74.078125 31.640625 74.078125 
Q 43.0625 74.078125 50 63.671875 
Q 56.9375 53.265625 56.9375 36.140625 
Q 56.9375 19.046875 50 8.609375 
Q 43.0625 -1.8125 31.640625 -1.8125 
z
M 31.640625 5.421875 
Q 46.734375 5.421875 46.734375 36.140625 
Q 46.734375 66.84375 31.640625 66.84375 
Q 16.609375 66.84375 16.609375 36.140625 
Q 16.609375 5.421875 31.640625 5.421875 
z
" id="LucidaSansUnicode-48"/>
      </defs>
      <g transform="translate(41.579556 120.865625)scale(0.06 -0.06)">
       <use xlink:href="#LucidaSansUnicode-48"/>
      </g>
     </g>
    </g>
    <g id="xtick_2">
     <g id="text_2">
      <!-- 500 -->
      <defs>
       <path d="M 12.15625 -0.296875 
L 12.15625 8.296875 
Q 19.34375 5.421875 25.828125 5.421875 
Q 32.953125 5.421875 37.03125 9.609375 
Q 41.109375 13.8125 41.109375 21.1875 
Q 41.109375 29.109375 35.34375 33.28125 
Q 29.59375 37.453125 18.703125 37.453125 
Q 16.15625 37.453125 13.375 37.109375 
L 13.375 72.265625 
L 49.953125 72.265625 
L 49.953125 63.875 
L 21.828125 63.875 
L 21.828125 44.828125 
Q 35.75 44.828125 43.5625 38.421875 
Q 51.375 32.03125 51.375 20.703125 
Q 51.375 10.15625 44.265625 4.171875 
Q 37.15625 -1.8125 24.65625 -1.8125 
Q 19.09375 -1.8125 12.15625 -0.296875 
z
" id="LucidaSansUnicode-53"/>
      </defs>
      <g transform="translate(59.719341 120.865625)scale(0.06 -0.06)">
       <use xlink:href="#LucidaSansUnicode-53"/>
       <use x="63.232422" xlink:href="#LucidaSansUnicode-48"/>
       <use x="126.464844" xlink:href="#LucidaSansUnicode-48"/>
      </g>
     </g>
    </g>
    <g id="xtick_3">
     <g id="text_3">
      <!-- 1000 -->
      <defs>
       <path d="M 26.171875 0 
L 26.171875 65.046875 
L 14.75 65.046875 
L 14.75 71.09375 
L 35.84375 72.90625 
L 35.84375 0 
z
" id="LucidaSansUnicode-49"/>
      </defs>
      <g transform="translate(79.756158 120.865625)scale(0.06 -0.06)">
       <use xlink:href="#LucidaSansUnicode-49"/>
       <use x="63.232422" xlink:href="#LucidaSansUnicode-48"/>
       <use x="126.464844" xlink:href="#LucidaSansUnicode-48"/>
       <use x="189.697266" xlink:href="#LucidaSansUnicode-48"/>
      </g>
     </g>
    </g>
    <g id="xtick_4">
     <g id="text_4">
      <!-- 1500 -->
      <g transform="translate(101.690006 120.865625)scale(0.06 -0.06)">
       <use xlink:href="#LucidaSansUnicode-49"/>
       <use x="63.232422" xlink:href="#LucidaSansUnicode-53"/>
       <use x="126.464844" xlink:href="#LucidaSansUnicode-48"/>
       <use x="189.697266" xlink:href="#LucidaSansUnicode-48"/>
      </g>
     </g>
    </g>
    <g id="xtick_5">
     <g id="text_5">
      <!-- 2000 -->
      <defs>
       <path d="M 8.296875 0 
L 8.296875 8.453125 
Q 12.5 18.265625 25.296875 29.828125 
L 30.8125 34.765625 
Q 41.453125 44.390625 41.453125 53.859375 
Q 41.453125 59.90625 37.8125 63.375 
Q 34.1875 66.84375 27.78125 66.84375 
Q 20.3125 66.84375 10.109375 61.03125 
L 10.109375 69.53125 
Q 19.734375 74.078125 29.25 74.078125 
Q 39.40625 74.078125 45.53125 68.609375 
Q 51.65625 63.140625 51.65625 54.109375 
Q 51.65625 47.609375 48.546875 42.578125 
Q 45.453125 37.546875 37.015625 30.375 
L 33.296875 27.203125 
Q 21.734375 17.390625 19.921875 8.453125 
L 51.3125 8.453125 
L 51.3125 0 
z
" id="LucidaSansUnicode-50"/>
      </defs>
      <g transform="translate(123.623854 120.865625)scale(0.06 -0.06)">
       <use xlink:href="#LucidaSansUnicode-50"/>
       <use x="63.232422" xlink:href="#LucidaSansUnicode-48"/>
       <use x="126.464844" xlink:href="#LucidaSansUnicode-48"/>
       <use x="189.697266" xlink:href="#LucidaSansUnicode-48"/>
      </g>
     </g>
    </g>
    <g id="text_6">
     <!-- year [C.E.] -->
     <defs>
      <path d="M 12.703125 -19.28125 
L 21.296875 0 
L 0.78125 53.03125 
L 11.1875 53.03125 
L 26.375 13.09375 
L 42.578125 53.03125 
L 51.65625 53.03125 
L 22.703125 -19.28125 
z
" id="LucidaSansUnicode-121"/>
      <path d="M 48.484375 1.703125 
Q 38.8125 -1.21875 31.9375 -1.21875 
Q 20.171875 -1.21875 12.796875 6.5625 
Q 5.421875 14.359375 5.421875 26.765625 
Q 5.421875 38.8125 11.9375 46.53125 
Q 18.453125 54.25 28.609375 54.25 
Q 38.234375 54.25 43.484375 47.390625 
Q 48.734375 40.53125 48.734375 27.9375 
L 48.6875 25 
L 15.234375 25 
Q 17.328125 6.109375 33.734375 6.109375 
Q 39.75 6.109375 48.484375 9.328125 
z
M 15.671875 32.234375 
L 39.0625 32.234375 
Q 39.0625 47.015625 28.03125 47.015625 
Q 16.9375 47.015625 15.671875 32.234375 
z
" id="LucidaSansUnicode-101"/>
      <path d="M 36.96875 6.734375 
Q 28.328125 -1.21875 20.3125 -1.21875 
Q 13.71875 -1.21875 9.375 2.90625 
Q 5.03125 7.03125 5.03125 13.328125 
Q 5.03125 22.015625 12.328125 26.671875 
Q 19.625 31.34375 33.296875 31.34375 
L 35.546875 31.34375 
L 35.546875 37.75 
Q 35.546875 46.96875 25.921875 46.96875 
Q 18.453125 46.96875 9.625 42.28125 
L 9.625 50.25 
Q 19.34375 54.203125 27.9375 54.203125 
Q 36.765625 54.203125 40.96875 50.171875 
Q 45.171875 46.140625 45.171875 37.75 
L 45.171875 13.71875 
Q 45.171875 5.46875 50.25 5.46875 
Q 50.875 5.46875 52.09375 5.671875 
L 52.78125 0.34375 
Q 49.515625 -1.21875 45.5625 -1.21875 
Q 38.8125 -1.21875 36.96875 6.734375 
z
M 35.546875 11.96875 
L 35.546875 25.6875 
L 32.46875 25.78125 
Q 24.46875 25.78125 19.5625 22.796875 
Q 14.65625 19.828125 14.65625 14.890625 
Q 14.65625 11.421875 17.09375 9.03125 
Q 19.53125 6.640625 23.046875 6.640625 
Q 29.046875 6.640625 35.546875 11.96875 
z
" id="LucidaSansUnicode-97"/>
      <path d="M 9.625 0 
L 9.625 53.03125 
L 19.234375 53.03125 
L 19.234375 43.0625 
Q 24.953125 54.203125 35.84375 54.203125 
Q 37.3125 54.203125 38.921875 53.953125 
L 38.921875 44.96875 
Q 36.421875 45.796875 34.515625 45.796875 
Q 25.390625 45.796875 19.234375 34.96875 
L 19.234375 0 
z
" id="LucidaSansUnicode-114"/>
      <path id="LucidaSansUnicode-32"/>
      <path d="M 9.625 -14.453125 
L 9.625 77.09375 
L 28.90625 77.09375 
L 28.90625 69.875 
L 18.0625 69.875 
L 18.0625 -7.234375 
L 28.90625 -7.234375 
L 28.90625 -14.453125 
z
" id="LucidaSansUnicode-91"/>
      <path d="M 63.625 3.71875 
Q 52.9375 -1.8125 40.28125 -1.8125 
Q 23.4375 -1.8125 14.25 8.046875 
Q 5.078125 17.921875 5.078125 36.078125 
Q 5.078125 54.203125 14.421875 64.140625 
Q 23.78125 74.078125 40.828125 74.078125 
Q 50.484375 74.078125 63.53125 70.90625 
L 63.53125 61.28125 
Q 48.6875 66.40625 40.625 66.40625 
Q 28.859375 66.40625 22.40625 58.4375 
Q 15.96875 50.484375 15.96875 35.984375 
Q 15.96875 22.125 22.84375 14.15625 
Q 29.734375 6.203125 41.703125 6.203125 
Q 51.90625 6.203125 63.625 12.5 
z
" id="LucidaSansUnicode-67"/>
      <path d="M 9.765625 0 
L 9.765625 12.0625 
L 21.828125 12.0625 
L 21.828125 0 
z
" id="LucidaSansUnicode-46"/>
      <path d="M 9.328125 0 
L 9.328125 72.265625 
L 49.703125 72.265625 
L 49.703125 64.59375 
L 19.578125 64.59375 
L 19.578125 41.40625 
L 44.828125 41.40625 
L 44.828125 33.84375 
L 19.578125 33.84375 
L 19.578125 7.671875 
L 51.8125 7.671875 
L 51.8125 0 
z
" id="LucidaSansUnicode-69"/>
      <path d="M 22.90625 77.09375 
L 22.90625 -14.453125 
L 3.609375 -14.453125 
L 3.609375 -7.234375 
L 14.453125 -7.234375 
L 14.453125 69.875 
L 3.609375 69.875 
L 3.609375 77.09375 
z
" id="LucidaSansUnicode-93"/>
     </defs>
     <g style="fill:#262626;" transform="translate(73.201406 130.648125)scale(0.06 -0.06)">
      <use xlink:href="#LucidaSansUnicode-121"/>
      <use x="52.246094" xlink:href="#LucidaSansUnicode-101"/>
      <use x="107.958984" xlink:href="#LucidaSansUnicode-97"/>
      <use x="163.183594" xlink:href="#LucidaSansUnicode-114"/>
      <use x="204.101562" xlink:href="#LucidaSansUnicode-32"/>
      <use x="235.742188" xlink:href="#LucidaSansUnicode-91"/>
      <use x="268.261719" xlink:href="#LucidaSansUnicode-67"/>
      <use x="337.451172" xlink:href="#LucidaSansUnicode-46"/>
      <use x="369.091797" xlink:href="#LucidaSansUnicode-69"/>
      <use x="423.291016" xlink:href="#LucidaSansUnicode-46"/>
      <use x="454.931641" xlink:href="#LucidaSansUnicode-93"/>
     </g>
    </g>
   </g>
   <g id="matplotlib.axis_2">
    <g id="ytick_1">
     <g id="text_7">
      <!-- 275 -->
      <defs>
       <path d="M 15.046875 0 
Q 16.453125 8.453125 19.0625 14.59375 
Q 21.6875 20.75 28.328125 31.5 
L 48.046875 63.234375 
L 10.84375 63.234375 
L 10.84375 72.265625 
L 57.234375 72.265625 
L 57.234375 63.234375 
Q 29.4375 22.265625 26.125 0 
z
" id="LucidaSansUnicode-55"/>
      </defs>
      <g transform="translate(24.207813 109.057501)scale(0.06 -0.06)">
       <use xlink:href="#LucidaSansUnicode-50"/>
       <use x="63.232422" xlink:href="#LucidaSansUnicode-55"/>
       <use x="126.464844" xlink:href="#LucidaSansUnicode-53"/>
      </g>
     </g>
    </g>
    <g id="ytick_2">
     <g id="text_8">
      <!-- 300 -->
      <defs>
       <path d="M 10.15625 0.53125 
L 10.15625 9.515625 
Q 20.453125 5.421875 26.375 5.421875 
Q 33.34375 5.421875 37.671875 9.421875 
Q 42 13.421875 42 19.875 
Q 42 35.109375 20.65625 35.109375 
L 16.84375 35.109375 
L 16.84375 41.609375 
L 20.21875 41.65625 
Q 40.234375 41.65625 40.234375 55.765625 
Q 40.234375 66.84375 26.953125 66.84375 
Q 19.828125 66.84375 11.140625 62.796875 
L 11.140625 71.1875 
Q 19.671875 74.078125 27.59375 74.078125 
Q 38.375 74.078125 44.140625 69.78125 
Q 49.90625 65.484375 49.90625 57.328125 
Q 49.90625 44.578125 34.8125 39.15625 
Q 52.296875 35.109375 52.296875 20.015625 
Q 52.296875 9.8125 45.546875 4 
Q 38.8125 -1.8125 27.046875 -1.8125 
Q 20.359375 -1.8125 10.15625 0.53125 
z
" id="LucidaSansUnicode-51"/>
      </defs>
      <g transform="translate(24.207813 94.891555)scale(0.06 -0.06)">
       <use xlink:href="#LucidaSansUnicode-51"/>
       <use x="63.232422" xlink:href="#LucidaSansUnicode-48"/>
       <use x="126.464844" xlink:href="#LucidaSansUnicode-48"/>
      </g>
     </g>
    </g>
    <g id="ytick_3">
     <g id="text_9">
      <!-- 325 -->
      <g transform="translate(24.207813 80.725609)scale(0.06 -0.06)">
       <use xlink:href="#LucidaSansUnicode-51"/>
       <use x="63.232422" xlink:href="#LucidaSansUnicode-50"/>
       <use x="126.464844" xlink:href="#LucidaSansUnicode-53"/>
      </g>
     </g>
    </g>
    <g id="ytick_4">
     <g id="text_10">
      <!-- 350 -->
      <g transform="translate(24.207813 66.559663)scale(0.06 -0.06)">
       <use xlink:href="#LucidaSansUnicode-51"/>
       <use x="63.232422" xlink:href="#LucidaSansUnicode-53"/>
       <use x="126.464844" xlink:href="#LucidaSansUnicode-48"/>
      </g>
     </g>
    </g>
    <g id="ytick_5">
     <g id="text_11">
      <!-- 375 -->
      <g transform="translate(24.207813 52.393717)scale(0.06 -0.06)">
       <use xlink:href="#LucidaSansUnicode-51"/>
       <use x="63.232422" xlink:href="#LucidaSansUnicode-55"/>
       <use x="126.464844" xlink:href="#LucidaSansUnicode-53"/>
      </g>
     </g>
    </g>
    <g id="ytick_6">
     <g id="text_12">
      <!-- 400 -->
      <defs>
       <path d="M 37.640625 0 
L 37.640625 20.453125 
L 5.125 20.453125 
L 5.125 27.734375 
L 37.640625 72.265625 
L 46.6875 72.265625 
L 46.6875 28.328125 
L 56.34375 28.328125 
L 56.34375 20.453125 
L 46.6875 20.453125 
L 46.6875 0 
z
M 14.546875 28.328125 
L 38.28125 28.328125 
L 38.28125 60.453125 
z
" id="LucidaSansUnicode-52"/>
      </defs>
      <g transform="translate(24.207813 38.227771)scale(0.06 -0.06)">
       <use xlink:href="#LucidaSansUnicode-52"/>
       <use x="63.232422" xlink:href="#LucidaSansUnicode-48"/>
       <use x="126.464844" xlink:href="#LucidaSansUnicode-48"/>
      </g>
     </g>
    </g>
    <g id="text_13">
     <!-- CO$_2$ concentration [ppm] -->
     <defs>
      <path d="M 38.875 -1.8125 
Q 23.484375 -1.8125 14.28125 8.515625 
Q 5.078125 18.84375 5.078125 36.140625 
Q 5.078125 53.421875 14.28125 63.75 
Q 23.484375 74.078125 38.875 74.078125 
Q 54.25 74.078125 63.453125 63.75 
Q 72.65625 53.421875 72.65625 36.140625 
Q 72.65625 18.84375 63.453125 8.515625 
Q 54.25 -1.8125 38.875 -1.8125 
z
M 38.875 5.859375 
Q 49.65625 5.859375 55.703125 13.890625 
Q 61.765625 21.921875 61.765625 36.234375 
Q 61.765625 50.4375 55.703125 58.421875 
Q 49.65625 66.40625 38.875 66.40625 
Q 28.078125 66.40625 22.015625 58.421875 
Q 15.96875 50.4375 15.96875 36.234375 
Q 15.96875 21.921875 22.015625 13.890625 
Q 28.078125 5.859375 38.875 5.859375 
z
" id="LucidaSansUnicode-79"/>
      <path d="M 46.90625 7.09375 
L 44 0 
L 3.5 0 
L 3.5 2.09375 
L 21 23.5 
L 21 23.40625 
L 26.59375 30.203125 
Q 30.5 34.90625 32.09375 36.953125 
Q 33.703125 39 35.203125 41.953125 
Q 36.703125 44.90625 36.703125 47.5 
Q 36.703125 53.703125 33.34375 57.09375 
Q 30 60.5 24.203125 60.5 
Q 19.59375 60.5 15.75 56.703125 
Q 11.90625 52.90625 10.90625 45.90625 
L 3.703125 47.59375 
Q 5.296875 56.5 11.1875 62.046875 
Q 17.09375 67.59375 24.90625 67.59375 
Q 33.59375 67.59375 39.09375 62.1875 
Q 44.59375 56.796875 44.59375 49.09375 
Q 44.59375 43.5 42.5 39.453125 
Q 40.40625 35.40625 33.703125 27 
L 17.703125 7.09375 
z
" id="STIXGeneral-Regular-120804"/>
      <path d="M 46.4375 1.609375 
Q 37.109375 -1.21875 30.328125 -1.21875 
Q 19.578125 -1.21875 12.5 6.734375 
Q 5.421875 14.703125 5.421875 26.8125 
Q 5.421875 39.75 12.421875 46.96875 
Q 19.4375 54.203125 31.984375 54.203125 
Q 38.1875 54.203125 45.84375 52.484375 
L 45.84375 44.4375 
Q 37.703125 46.828125 32.5625 46.828125 
Q 25.140625 46.828125 20.703125 41.28125 
Q 16.265625 35.75 16.265625 26.515625 
Q 16.265625 17.578125 20.84375 12.0625 
Q 25.4375 6.546875 32.859375 6.546875 
Q 39.453125 6.546875 46.4375 9.90625 
z
" id="LucidaSansUnicode-99"/>
      <path d="M 30.71875 -1.21875 
Q 19.046875 -1.21875 12.234375 6.25 
Q 5.421875 13.71875 5.421875 26.515625 
Q 5.421875 39.3125 12.234375 46.75 
Q 19.046875 54.203125 30.71875 54.203125 
Q 42.390625 54.203125 49.1875 46.75 
Q 56 39.3125 56 26.515625 
Q 56 13.71875 49.1875 6.25 
Q 42.390625 -1.21875 30.71875 -1.21875 
z
M 30.71875 6 
Q 37.890625 6 41.84375 11.375 
Q 45.796875 16.75 45.796875 26.515625 
Q 45.796875 36.28125 41.84375 41.625 
Q 37.890625 46.96875 30.71875 46.96875 
Q 23.53125 46.96875 19.59375 41.625 
Q 15.671875 36.28125 15.671875 26.515625 
Q 15.671875 16.75 19.59375 11.375 
Q 23.53125 6 30.71875 6 
z
" id="LucidaSansUnicode-111"/>
      <path d="M 9.625 0 
L 9.625 53.03125 
L 19.234375 53.03125 
L 19.234375 43.0625 
Q 26.859375 54.203125 37.890625 54.203125 
Q 44.828125 54.203125 48.90625 49.828125 
Q 52.984375 45.453125 52.984375 38.09375 
L 52.984375 0 
L 43.359375 0 
L 43.359375 34.96875 
Q 43.359375 40.875 41.625 43.390625 
Q 39.890625 45.90625 35.890625 45.90625 
Q 27.046875 45.90625 19.234375 34.328125 
L 19.234375 0 
z
" id="LucidaSansUnicode-110"/>
      <path d="M 33.25 0 
Q 28.8125 -1.21875 25.53125 -1.21875 
Q 18.21875 -1.21875 14.109375 2.96875 
Q 10.015625 7.171875 10.015625 14.65625 
L 10.015625 45.796875 
L 3.375 45.796875 
L 3.375 53.03125 
L 10.015625 53.03125 
L 10.015625 62.640625 
L 19.625 63.578125 
L 19.625 53.03125 
L 33.5 53.03125 
L 33.5 45.796875 
L 19.625 45.796875 
L 19.625 16.40625 
Q 19.625 6 28.609375 6 
Q 30.515625 6 33.25 6.640625 
z
" id="LucidaSansUnicode-116"/>
      <path d="M 9.625 0 
L 9.625 53.03125 
L 19.234375 53.03125 
L 19.234375 0 
z
M 9.625 62.640625 
L 9.625 72.265625 
L 19.234375 72.265625 
L 19.234375 62.640625 
z
" id="LucidaSansUnicode-105"/>
      <path d="M 9.625 -19.28125 
L 9.625 53.03125 
L 19.234375 53.03125 
L 19.234375 43.0625 
Q 25.140625 54.203125 36.96875 54.203125 
Q 46.53125 54.203125 52.015625 47.21875 
Q 57.515625 40.234375 57.515625 28.125 
Q 57.515625 14.9375 51.28125 6.859375 
Q 45.0625 -1.21875 34.90625 -1.21875 
Q 25.484375 -1.21875 19.234375 6 
L 19.234375 -19.28125 
z
M 19.234375 12.640625 
Q 26.65625 6 33.40625 6 
Q 40.046875 6 43.65625 11.546875 
Q 47.265625 17.09375 47.265625 27.15625 
Q 47.265625 45.796875 34.96875 45.796875 
Q 26.90625 45.796875 19.234375 37.0625 
z
" id="LucidaSansUnicode-112"/>
      <path d="M 9.625 0 
L 9.625 53.03125 
L 19.234375 53.03125 
L 19.234375 43.0625 
Q 26.265625 54.203125 37.3125 54.203125 
Q 47.953125 54.203125 51.8125 43.0625 
Q 58.640625 54.25 69.578125 54.25 
Q 76.5625 54.25 80.4375 50.125 
Q 84.328125 46 84.328125 38.578125 
L 84.328125 0 
L 74.65625 0 
L 74.65625 37.0625 
Q 74.65625 46.140625 67.484375 46.140625 
Q 60.015625 46.140625 51.8125 35.546875 
L 51.8125 0 
L 42.140625 0 
L 42.140625 37.0625 
Q 42.140625 46.1875 34.8125 46.1875 
Q 27.546875 46.1875 19.234375 35.546875 
L 19.234375 0 
z
" id="LucidaSansUnicode-109"/>
     </defs>
     <g style="fill:#262626;" transform="translate(19.007812 103.983827)rotate(-90)scale(0.06 -0.06)">
      <use transform="translate(0 0.90625)" xlink:href="#LucidaSansUnicode-67"/>
      <use transform="translate(69.189453 0.90625)" xlink:href="#LucidaSansUnicode-79"/>
      <use transform="translate(147.667695 -12.682812)scale(0.7)" xlink:href="#STIXGeneral-Regular-120804"/>
      <use transform="translate(184.932528 0.90625)" xlink:href="#LucidaSansUnicode-32"/>
      <use transform="translate(216.573153 0.90625)" xlink:href="#LucidaSansUnicode-99"/>
      <use transform="translate(267.793857 0.90625)" xlink:href="#LucidaSansUnicode-111"/>
      <use transform="translate(329.219638 0.90625)" xlink:href="#LucidaSansUnicode-110"/>
      <use transform="translate(391.280185 0.90625)" xlink:href="#LucidaSansUnicode-99"/>
      <use transform="translate(442.500888 0.90625)" xlink:href="#LucidaSansUnicode-101"/>
      <use transform="translate(498.213778 0.90625)" xlink:href="#LucidaSansUnicode-110"/>
      <use transform="translate(560.274325 0.90625)" xlink:href="#LucidaSansUnicode-116"/>
      <use transform="translate(597.676669 0.90625)" xlink:href="#LucidaSansUnicode-114"/>
      <use transform="translate(638.594638 0.90625)" xlink:href="#LucidaSansUnicode-97"/>
      <use transform="translate(693.819247 0.90625)" xlink:href="#LucidaSansUnicode-116"/>
      <use transform="translate(731.221591 0.90625)" xlink:href="#LucidaSansUnicode-105"/>
      <use transform="translate(760.127841 0.90625)" xlink:href="#LucidaSansUnicode-111"/>
      <use transform="translate(821.553622 0.90625)" xlink:href="#LucidaSansUnicode-110"/>
      <use transform="translate(883.614169 0.90625)" xlink:href="#LucidaSansUnicode-32"/>
      <use transform="translate(915.254794 0.90625)" xlink:href="#LucidaSansUnicode-91"/>
      <use transform="translate(947.774325 0.90625)" xlink:href="#LucidaSansUnicode-112"/>
      <use transform="translate(1010.713778 0.90625)" xlink:href="#LucidaSansUnicode-112"/>
      <use transform="translate(1073.653232 0.90625)" xlink:href="#LucidaSansUnicode-109"/>
      <use transform="translate(1167.012607 0.90625)" xlink:href="#LucidaSansUnicode-93"/>
     </g>
    </g>
   </g>
   <g id="line2d_1">
    <path clip-path="url(#p57f031cbfc)" d="M 43.520455 105.781404 
L 43.871396 105.498085 
L 44.002999 105.441421 
L 44.266205 105.27143 
L 44.441676 105.214766 
L 44.661015 105.101439 
L 45.31903 105.158102 
L 45.538369 105.27143 
L 45.801575 105.328094 
L 45.977046 105.384758 
L 46.591193 105.441421 
L 46.722796 105.441421 
L 47.819489 105.384758 
L 47.99496 105.328094 
L 48.74071 105.27143 
L 48.916181 105.214766 
L 49.13552 105.158102 
L 49.398726 104.988111 
L 49.530329 104.931447 
L 49.925138 104.591465 
L 50.012874 104.534801 
L 50.495418 104.081491 
L 50.627021 104.024827 
L 50.934095 103.798172 
L 51.197301 103.741508 
L 51.372772 103.684844 
L 51.943052 103.62818 
L 52.118523 103.571516 
L 52.425597 103.514853 
L 52.688803 103.344861 
L 52.908142 103.288198 
L 53.171348 103.118206 
L 54.180305 103.17487 
L 54.443511 103.344861 
L 54.618982 103.401525 
L 54.882188 103.571516 
L 55.013791 103.62818 
L 55.233129 103.741508 
L 55.4086 103.798172 
L 55.627939 103.911499 
L 56.505293 103.968163 
L 56.680763 104.024827 
L 57.031705 104.081491 
L 57.251043 104.194818 
L 57.470382 104.251482 
L 57.733588 104.421473 
L 57.865191 104.478137 
L 58.216133 104.761456 
L 58.347736 104.81812 
L 58.742545 105.158102 
L 58.830281 105.214766 
L 59.137354 105.441421 
L 59.268958 105.498085 
L 59.488296 105.611413 
L 59.663767 105.668076 
L 59.883105 105.781404 
L 61.813284 105.72474 
L 61.988755 105.668076 
L 63.392521 105.72474 
L 63.567992 105.781404 
L 64.92789 105.838068 
L 65.103361 105.894732 
L 65.454303 105.951395 
L 65.629773 106.008059 
L 65.805244 106.064723 
L 66.024583 106.178051 
L 67.165143 106.121387 
L 67.516084 105.838068 
L 67.647688 105.781404 
L 68.042497 105.441421 
L 68.217968 105.384758 
L 68.437306 105.27143 
L 68.875983 105.328094 
L 69.139189 105.498085 
L 69.31466 105.554749 
L 69.533998 105.668076 
L 70.104279 105.611413 
L 70.367485 105.441421 
L 70.499088 105.384758 
L 70.850029 105.101439 
L 70.981632 105.044775 
L 71.288706 104.81812 
L 71.420309 104.761456 
L 71.639648 104.648128 
L 71.815119 104.591465 
L 72.034457 104.478137 
L 72.297663 104.421473 
L 72.517002 104.308146 
L 72.824076 104.251482 
L 72.999546 104.194818 
L 73.262753 104.138154 
L 73.438223 104.081491 
L 74.315577 104.138154 
L 74.578784 104.308146 
L 74.754254 104.364809 
L 75.01746 104.534801 
L 75.149064 104.591465 
L 75.368402 104.704792 
L 75.587741 104.761456 
L 75.763211 104.81812 
L 78.746215 104.761456 
L 78.921685 104.704792 
L 79.316495 104.648128 
L 79.491966 104.591465 
L 79.755172 104.534801 
L 79.930642 104.478137 
L 80.281584 104.421473 
L 80.457055 104.364809 
L 82.08016 104.421473 
L 82.25563 104.478137 
L 84.185809 104.421473 
L 84.36128 104.364809 
L 84.975428 104.421473 
L 85.150898 104.478137 
L 85.326369 104.534801 
L 85.545708 104.648128 
L 85.808914 104.704792 
L 85.984385 104.761456 
L 86.993342 104.704792 
L 87.300415 104.478137 
L 87.388151 104.421473 
L 88.221637 103.514853 
L 88.660314 103.571516 
L 88.92352 103.741508 
L 90.283419 102.154922 
L 90.546625 102.211586 
L 90.809831 102.381577 
L 90.941434 102.438241 
L 91.160773 102.551568 
L 91.643317 102.494905 
L 91.862656 102.381577 
L 91.994259 102.324913 
L 92.257465 102.154922 
L 92.432936 102.098258 
L 92.652274 101.984931 
L 92.827745 101.928267 
L 93.047084 101.814939 
L 93.529628 101.758275 
L 93.705099 101.701612 
L 96.205558 101.758275 
L 96.424896 101.871603 
L 96.556499 101.928267 
L 97.039044 102.381577 
L 97.126779 102.438241 
L 97.521589 102.778224 
L 97.653192 102.834887 
L 97.87253 102.948215 
L 98.311207 102.891551 
L 98.574413 102.72156 
L 98.83762 102.778224 
L 99.232429 103.118206 
L 99.320164 103.17487 
L 99.671106 103.458189 
L 100.460724 103.401525 
L 101.732888 101.928267 
L 102.215432 102.72156 
L 102.873448 104.138154 
L 103.180522 104.364809 
L 103.663066 104.308146 
L 103.97014 104.081491 
L 104.101743 104.024827 
L 104.364949 103.854835 
L 104.54042 103.798172 
L 104.715891 103.741508 
L 104.979097 103.798172 
L 105.724848 104.591465 
L 105.900319 104.534801 
L 106.031922 104.251482 
L 106.64607 102.211586 
L 106.733805 102.268249 
L 106.953143 102.72156 
L 107.435688 103.684844 
L 107.918233 104.138154 
L 108.181439 104.081491 
L 109.716808 102.268249 
L 109.892279 102.211586 
L 110.06775 102.154922 
L 111.339913 102.211586 
L 112.085664 103.004879 
L 112.305002 102.948215 
L 112.655944 102.664896 
L 112.875282 102.72156 
L 113.050753 103.118206 
L 114.235181 108.671257 
L 114.366784 108.614593 
L 114.586123 108.161283 
L 115.682815 105.554749 
L 116.209227 105.611413 
L 116.604037 105.951395 
L 116.691772 106.008059 
L 116.954978 106.178051 
L 117.481391 106.121387 
L 117.788464 105.894732 
L 118.621951 105.838068 
L 119.411569 104.988111 
L 119.58704 105.044775 
L 119.937982 105.668076 
L 120.113452 105.72474 
L 120.464394 105.781404 
L 120.683732 105.894732 
L 120.903071 105.838068 
L 121.29788 105.158102 
L 121.473351 104.931447 
L 121.692689 104.874784 
L 121.824292 104.534801 
L 122.087499 103.571516 
L 122.570043 102.098258 
L 122.877117 101.53162 
L 123.096456 101.588284 
L 123.447397 102.211586 
L 123.535133 102.154922 
L 124.017677 101.701612 
L 124.193148 101.644948 
L 124.675693 100.058362 
L 124.763428 100.115026 
L 124.982767 100.398345 
L 125.28984 100.341681 
L 125.465311 99.661715 
L 125.772385 98.52844 
L 126.123327 97.905138 
L 126.386533 96.545207 
L 126.693607 94.845294 
L 126.82521 94.78863 
L 126.956813 94.448647 
L 127.439358 92.23876 
L 127.878035 90.085536 
L 128.404447 87.648993 
L 128.711521 86.345726 
L 128.799256 86.40239 
L 128.886992 86.459054 
L 128.930859 86.40239 
L 129.062462 86.062407 
L 129.194065 85.325778 
L 129.325669 84.249166 
L 129.325669 84.249166 
" style="fill:none;stroke:#d56c55;stroke-linecap:round;stroke-width:0.5;"/>
   </g>
   <g id="line2d_2">
    <path clip-path="url(#p57f031cbfc)" d="M 129.380503 84.402158 
L 129.384159 83.988513 
L 129.387814 84.2435 
M 129.395126 83.971514 
L 129.398781 83.404876 
L 129.402437 83.46154 
M 129.409748 83.965847 
L 129.577908 81.716295 
L 129.596186 82.135607 
L 129.636398 81.512306 
M 129.651021 81.585968 
L 129.768001 79.954051 
L 129.694888 81.642632 
L 129.786279 80.163707 
L 129.789935 80.197706 
L 129.808213 79.693398 
L 129.826491 79.733063 
L 129.965406 77.472178 
L 130.371182 70.34954 
L 129.972717 77.636503 
L 130.382149 70.372206 
L 130.524719 67.352026 
L 130.542997 67.516351 
L 130.586865 66.377409 
L 130.59052 66.473737 
L 130.882972 60.331383 
L 130.893939 60.711031 
L 130.978018 59.203774 
L 131.570232 44.352196 
L 131.573888 44.805506 
L 131.577544 44.958499 
L 131.636034 42.958267 
L 131.818816 37.467546 
L 132.129545 27.296397 
L 132.129545 27.296397 
" style="fill:none;stroke:#d56c55;stroke-linecap:round;stroke-width:0.5;"/>
   </g>
   <g id="patch_3">
    <path d="M 39.09 112.74 
L 39.09 23.227654 
" style="fill:none;stroke:#ffffff;stroke-linecap:square;stroke-linejoin:miter;stroke-width:0.8;"/>
   </g>
   <g id="patch_4">
    <path d="M 136.56 112.74 
L 136.56 23.227654 
" style="fill:none;stroke:#ffffff;stroke-linecap:square;stroke-linejoin:miter;stroke-width:0.8;"/>
   </g>
   <g id="patch_5">
    <path d="M 39.09 112.74 
L 136.56 112.74 
" style="fill:none;stroke:#ffffff;stroke-linecap:square;stroke-linejoin:miter;stroke-width:0.8;"/>
   </g>
   <g id="patch_6">
    <path d="M 39.09 23.227654 
L 136.56 23.227654 
" style="fill:none;stroke:#ffffff;stroke-linecap:square;stroke-linejoin:miter;stroke-width:0.8;"/>
   </g>
  </g>
  <g id="axes_2">
   <g id="patch_7">
    <path d="M 181.41 112.74 
L 278.88 112.74 
L 278.88 23.227654 
L 181.41 23.227654 
z
" style="fill:#e3dcd0;"/>
   </g>
   <g id="matplotlib.axis_3">
    <g id="xtick_6">
     <g id="text_14">
      <!-- 1800 -->
      <defs>
       <path d="M 23 39.359375 
Q 17.046875 43.5 14.71875 47.0625 
Q 12.40625 50.640625 12.40625 55.671875 
Q 12.40625 63.875 18.40625 69 
Q 24.421875 74.125 34.078125 74.125 
Q 43.015625 74.125 48.5625 69.78125 
Q 54.109375 65.4375 54.109375 58.5 
Q 54.109375 48 40.625 39.359375 
Q 56.984375 31.34375 56.984375 18.703125 
Q 56.984375 9.671875 50.140625 3.921875 
Q 43.3125 -1.8125 32.5625 -1.8125 
Q 21.828125 -1.8125 15.234375 3.578125 
Q 8.640625 8.984375 8.640625 17.78125 
Q 8.640625 30.765625 23 39.359375 
z
M 35.25 42.390625 
Q 45.359375 49.03125 45.359375 57.171875 
Q 45.359375 61.53125 41.96875 64.1875 
Q 38.578125 66.84375 33.109375 66.84375 
Q 27.78125 66.84375 24.453125 64.234375 
Q 21.140625 61.625 21.140625 57.46875 
Q 21.140625 53.421875 24.140625 50.1875 
Q 27.15625 46.96875 35.25 42.390625 
z
M 28.21875 35.453125 
Q 22.40625 30.953125 20.328125 27.609375 
Q 18.265625 24.265625 18.265625 19.28125 
Q 18.265625 13.09375 22.265625 9.25 
Q 26.265625 5.421875 32.8125 5.421875 
Q 39.109375 5.421875 43.09375 8.6875 
Q 47.078125 11.96875 47.078125 17.1875 
Q 47.078125 21.390625 44.609375 24.296875 
Q 42.140625 27.203125 35.0625 31.390625 
z
" id="LucidaSansUnicode-56"/>
      </defs>
      <g transform="translate(173.821875 120.865625)scale(0.06 -0.06)">
       <use xlink:href="#LucidaSansUnicode-49"/>
       <use x="63.232422" xlink:href="#LucidaSansUnicode-56"/>
       <use x="126.464844" xlink:href="#LucidaSansUnicode-48"/>
       <use x="189.697266" xlink:href="#LucidaSansUnicode-48"/>
      </g>
     </g>
    </g>
    <g id="xtick_7">
     <g id="text_15">
      <!-- 1850 -->
      <g transform="translate(195.974148 120.865625)scale(0.06 -0.06)">
       <use xlink:href="#LucidaSansUnicode-49"/>
       <use x="63.232422" xlink:href="#LucidaSansUnicode-56"/>
       <use x="126.464844" xlink:href="#LucidaSansUnicode-53"/>
       <use x="189.697266" xlink:href="#LucidaSansUnicode-48"/>
      </g>
     </g>
    </g>
    <g id="xtick_8">
     <g id="text_16">
      <!-- 1900 -->
      <defs>
       <path d="M 11.375 0.4375 
L 11.375 8.59375 
Q 20.5625 5.421875 27 5.421875 
Q 35.984375 5.421875 41.03125 13.0625 
Q 46.09375 20.703125 46.09375 34.328125 
Q 38.765625 25.296875 29.4375 25.296875 
Q 20.3125 25.296875 13.96875 32 
Q 7.625 38.71875 7.625 48.390625 
Q 7.625 59.46875 14.375 66.765625 
Q 21.140625 74.078125 31.390625 74.078125 
Q 43.171875 74.078125 49.953125 64.625 
Q 56.734375 55.171875 56.734375 38.765625 
Q 56.734375 28.328125 53.46875 19.109375 
Q 50.203125 9.90625 44.671875 4.78125 
Q 37.59375 -1.8125 26.078125 -1.8125 
Q 20.40625 -1.8125 11.375 0.4375 
z
M 17.234375 50.046875 
Q 17.234375 41.796875 20.984375 37.015625 
Q 24.75 32.234375 31.15625 32.234375 
Q 37.3125 32.234375 41.625 36.375 
Q 45.953125 40.53125 45.953125 46.390625 
Q 45.953125 55.609375 41.765625 61.25 
Q 37.59375 66.890625 30.8125 66.890625 
Q 24.46875 66.890625 20.84375 62.390625 
Q 17.234375 57.90625 17.234375 50.046875 
z
" id="LucidaSansUnicode-57"/>
      </defs>
      <g transform="translate(218.12642 120.865625)scale(0.06 -0.06)">
       <use xlink:href="#LucidaSansUnicode-49"/>
       <use x="63.232422" xlink:href="#LucidaSansUnicode-57"/>
       <use x="126.464844" xlink:href="#LucidaSansUnicode-48"/>
       <use x="189.697266" xlink:href="#LucidaSansUnicode-48"/>
      </g>
     </g>
    </g>
    <g id="xtick_9">
     <g id="text_17">
      <!-- 1950 -->
      <g transform="translate(240.278693 120.865625)scale(0.06 -0.06)">
       <use xlink:href="#LucidaSansUnicode-49"/>
       <use x="63.232422" xlink:href="#LucidaSansUnicode-57"/>
       <use x="126.464844" xlink:href="#LucidaSansUnicode-53"/>
       <use x="189.697266" xlink:href="#LucidaSansUnicode-48"/>
      </g>
     </g>
    </g>
    <g id="xtick_10">
     <g id="text_18">
      <!-- 2000 -->
      <g transform="translate(262.430966 120.865625)scale(0.06 -0.06)">
       <use xlink:href="#LucidaSansUnicode-50"/>
       <use x="63.232422" xlink:href="#LucidaSansUnicode-48"/>
       <use x="126.464844" xlink:href="#LucidaSansUnicode-48"/>
       <use x="189.697266" xlink:href="#LucidaSansUnicode-48"/>
      </g>
     </g>
    </g>
    <g id="text_19">
     <!-- year [C.E.] -->
     <g style="fill:#262626;" transform="translate(215.521406 130.648125)scale(0.06 -0.06)">
      <use xlink:href="#LucidaSansUnicode-121"/>
      <use x="52.246094" xlink:href="#LucidaSansUnicode-101"/>
      <use x="107.958984" xlink:href="#LucidaSansUnicode-97"/>
      <use x="163.183594" xlink:href="#LucidaSansUnicode-114"/>
      <use x="204.101562" xlink:href="#LucidaSansUnicode-32"/>
      <use x="235.742188" xlink:href="#LucidaSansUnicode-91"/>
      <use x="268.261719" xlink:href="#LucidaSansUnicode-67"/>
      <use x="337.451172" xlink:href="#LucidaSansUnicode-46"/>
      <use x="369.091797" xlink:href="#LucidaSansUnicode-69"/>
      <use x="423.291016" xlink:href="#LucidaSansUnicode-46"/>
      <use x="454.931641" xlink:href="#LucidaSansUnicode-93"/>
     </g>
    </g>
   </g>
   <g id="matplotlib.axis_4">
    <g id="ytick_7">
     <g id="text_20">
      <!-- 275 -->
      <g transform="translate(166.527812 109.057501)scale(0.06 -0.06)">
       <use xlink:href="#LucidaSansUnicode-50"/>
       <use x="63.232422" xlink:href="#LucidaSansUnicode-55"/>
       <use x="126.464844" xlink:href="#LucidaSansUnicode-53"/>
      </g>
     </g>
    </g>
    <g id="ytick_8">
     <g id="text_21">
      <!-- 300 -->
      <g transform="translate(166.527812 94.891555)scale(0.06 -0.06)">
       <use xlink:href="#LucidaSansUnicode-51"/>
       <use x="63.232422" xlink:href="#LucidaSansUnicode-48"/>
       <use x="126.464844" xlink:href="#LucidaSansUnicode-48"/>
      </g>
     </g>
    </g>
    <g id="ytick_9">
     <g id="text_22">
      <!-- 325 -->
      <g transform="translate(166.527812 80.725609)scale(0.06 -0.06)">
       <use xlink:href="#LucidaSansUnicode-51"/>
       <use x="63.232422" xlink:href="#LucidaSansUnicode-50"/>
       <use x="126.464844" xlink:href="#LucidaSansUnicode-53"/>
      </g>
     </g>
    </g>
    <g id="ytick_10">
     <g id="text_23">
      <!-- 350 -->
      <g transform="translate(166.527812 66.559663)scale(0.06 -0.06)">
       <use xlink:href="#LucidaSansUnicode-51"/>
       <use x="63.232422" xlink:href="#LucidaSansUnicode-53"/>
       <use x="126.464844" xlink:href="#LucidaSansUnicode-48"/>
      </g>
     </g>
    </g>
    <g id="ytick_11">
     <g id="text_24">
      <!-- 375 -->
      <g transform="translate(166.527812 52.393717)scale(0.06 -0.06)">
       <use xlink:href="#LucidaSansUnicode-51"/>
       <use x="63.232422" xlink:href="#LucidaSansUnicode-55"/>
       <use x="126.464844" xlink:href="#LucidaSansUnicode-53"/>
      </g>
     </g>
    </g>
    <g id="ytick_12">
     <g id="text_25">
      <!-- 400 -->
      <g transform="translate(166.527812 38.227771)scale(0.06 -0.06)">
       <use xlink:href="#LucidaSansUnicode-52"/>
       <use x="63.232422" xlink:href="#LucidaSansUnicode-48"/>
       <use x="126.464844" xlink:href="#LucidaSansUnicode-48"/>
      </g>
     </g>
    </g>
    <g id="text_26">
     <!-- CO$_2$ concentration [ppm] -->
     <g style="fill:#262626;" transform="translate(161.327812 103.983827)rotate(-90)scale(0.06 -0.06)">
      <use transform="translate(0 0.90625)" xlink:href="#LucidaSansUnicode-67"/>
      <use transform="translate(69.189453 0.90625)" xlink:href="#LucidaSansUnicode-79"/>
      <use transform="translate(147.667695 -12.682812)scale(0.7)" xlink:href="#STIXGeneral-Regular-120804"/>
      <use transform="translate(184.932528 0.90625)" xlink:href="#LucidaSansUnicode-32"/>
      <use transform="translate(216.573153 0.90625)" xlink:href="#LucidaSansUnicode-99"/>
      <use transform="translate(267.793857 0.90625)" xlink:href="#LucidaSansUnicode-111"/>
      <use transform="translate(329.219638 0.90625)" xlink:href="#LucidaSansUnicode-110"/>
      <use transform="translate(391.280185 0.90625)" xlink:href="#LucidaSansUnicode-99"/>
      <use transform="translate(442.500888 0.90625)" xlink:href="#LucidaSansUnicode-101"/>
      <use transform="translate(498.213778 0.90625)" xlink:href="#LucidaSansUnicode-110"/>
      <use transform="translate(560.274325 0.90625)" xlink:href="#LucidaSansUnicode-116"/>
      <use transform="translate(597.676669 0.90625)" xlink:href="#LucidaSansUnicode-114"/>
      <use transform="translate(638.594638 0.90625)" xlink:href="#LucidaSansUnicode-97"/>
      <use transform="translate(693.819247 0.90625)" xlink:href="#LucidaSansUnicode-116"/>
      <use transform="translate(731.221591 0.90625)" xlink:href="#LucidaSansUnicode-105"/>
      <use transform="translate(760.127841 0.90625)" xlink:href="#LucidaSansUnicode-111"/>
      <use transform="translate(821.553622 0.90625)" xlink:href="#LucidaSansUnicode-110"/>
      <use transform="translate(883.614169 0.90625)" xlink:href="#LucidaSansUnicode-32"/>
      <use transform="translate(915.254794 0.90625)" xlink:href="#LucidaSansUnicode-91"/>
      <use transform="translate(947.774325 0.90625)" xlink:href="#LucidaSansUnicode-112"/>
      <use transform="translate(1010.713778 0.90625)" xlink:href="#LucidaSansUnicode-112"/>
      <use transform="translate(1073.653232 0.90625)" xlink:href="#LucidaSansUnicode-109"/>
      <use transform="translate(1167.012607 0.90625)" xlink:href="#LucidaSansUnicode-93"/>
     </g>
    </g>
   </g>
   <g id="line2d_3">
    <path clip-path="url(#p1ff886d950)" d="M 180.966955 102.551568 
L 184.954364 101.644948 
L 186.2835 101.53162 
L 188.055682 101.588284 
L 190.270909 102.041594 
L 192.043091 102.211586 
L 193.372227 101.984931 
L 195.144409 101.644948 
L 199.131818 101.644948 
L 200.460955 101.021646 
L 202.233136 100.228353 
L 204.005318 100.058362 
L 204.891409 100.115026 
L 206.220545 100.398345 
L 210.207955 100.341681 
L 211.537091 99.888371 
L 214.195364 98.585104 
L 215.5245 98.471776 
L 216.410591 98.471776 
L 219.068864 97.735147 
L 221.284091 96.545207 
L 222.613227 95.638587 
L 223.942364 94.901958 
L 224.828455 94.845294 
L 225.714545 94.78863 
L 226.600636 94.618639 
L 227.929773 94.052001 
L 229.258909 93.315372 
L 230.145 92.975389 
L 231.031091 92.69207 
L 232.803273 91.672122 
L 234.575455 90.652174 
L 239.005909 88.838933 
L 241.221136 87.818985 
L 242.107227 87.365674 
L 244.322455 86.345726 
L 245.651591 86.40239 
L 246.537682 86.459054 
L 247.866818 86.232399 
L 249.195955 85.665761 
L 250.968136 84.249166 
L 250.968136 84.249166 
" style="fill:none;stroke:#d56c55;stroke-linecap:round;stroke-width:0.5;"/>
   </g>
   <g id="line2d_4">
    <path clip-path="url(#p1ff886d950)" d="M 251.521943 84.402158 
L 251.558864 83.988513 
L 251.595784 84.2435 
M 251.669625 83.971514 
L 251.706545 83.404876 
L 251.743466 83.46154 
M 251.817307 83.965847 
L 251.928068 83.591866 
L 251.964989 83.863853 
L 252.03883 83.807189 
L 252.186511 83.098891 
L 252.297273 83.314214 
L 252.444955 83.115891 
L 252.555716 82.645581 
L 252.592636 82.832572 
L 252.777239 83.030895 
L 253.035682 82.339597 
L 253.072602 82.435925 
L 253.109523 82.197937 
L 253.146443 82.384928 
L 253.183364 82.503922 
L 253.257205 82.424592 
L 253.441807 81.846622 
L 253.552568 82.124274 
L 253.515648 81.716295 
L 253.589489 82.050611 
L 253.66333 81.982615 
L 253.70025 82.135607 
L 253.774091 81.789958 
L 253.811011 81.585968 
L 253.884852 81.778625 
L 254.069455 81.738961 
L 254.106375 81.512306 
M 254.254057 81.585968 
L 254.364818 81.240319 
L 254.5125 81.540637 
L 254.54942 81.585968 
L 254.660182 81.370646 
L 254.697102 81.642632 
L 254.734023 81.415977 
L 254.844784 80.809675 
L 254.955545 81.132658 
L 255.177068 80.356364 
L 255.250909 80.305367 
L 255.28783 80.339365 
L 255.32475 80.583019 
L 255.36167 80.282701 
L 255.435511 79.954051 
L 255.472432 80.197706 
L 255.509352 80.265702 
L 255.583193 80.05038 
L 255.620114 80.163707 
L 255.657034 80.197706 
L 255.841636 79.693398 
L 255.915477 79.829391 
L 255.952398 79.801059 
L 256.026239 79.733063 
L 256.10008 79.279752 
L 256.17392 79.364748 
L 256.247761 79.404413 
L 256.395443 78.803777 
L 256.432364 78.826442 
L 256.616966 78.203141 
L 256.653886 78.480793 
L 256.690807 78.53179 
L 256.727727 78.463794 
L 256.838489 78.067147 
L 256.875409 77.993485 
L 256.91233 78.322134 
L 256.98617 78.044482 
L 257.096932 77.744164 
L 257.170773 77.885823 
L 257.207693 77.772496 
L 257.281534 77.931154 
L 257.318455 78.197474 
L 257.355375 77.846159 
L 257.466136 77.42118 
L 257.503057 77.636503 
L 257.687659 77.290854 
L 257.72458 77.62517 
L 257.7615 77.115196 
L 257.835341 77.341851 
L 258.019943 76.457896 
L 258.056864 76.51456 
L 258.241466 75.845927 
L 258.352227 75.216959 
L 258.426068 75.398283 
L 258.53683 75.970587 
L 258.57375 75.551275 
L 258.647591 75.454947 
L 258.684511 75.505944 
L 258.721432 75.573941 
L 258.795273 75.165962 
L 258.869114 75.284956 
L 258.979875 75.375618 
L 259.164477 74.80898 
L 259.201398 74.899642 
L 259.238318 74.786314 
L 259.275239 74.66732 
L 259.34908 74.74665 
L 259.718284 74.231009 
L 259.755205 74.384002 
L 259.792125 74.282007 
L 260.419773 72.576427 
L 260.456693 72.740752 
L 260.567455 72.157115 
L 260.604375 72.270442 
L 260.715136 72.315773 
L 260.825898 71.839798 
L 260.862818 71.947459 
L 260.899739 71.919127 
L 261.0105 71.363822 
L 261.04742 71.607476 
L 261.121261 71.443151 
L 261.453545 70.485533 
L 261.490466 70.485533 
L 261.527386 70.34954 
L 261.601227 70.462868 
L 261.748909 69.901896 
L 261.896591 70.026557 
L 261.933511 70.02089 
L 262.155034 69.165267 
L 262.191955 69.306927 
L 262.524239 69.159601 
L 262.782682 67.782671 
L 262.819602 68.213315 
L 262.893443 68.105654 
L 263.078045 67.352026 
L 263.114966 67.431355 
L 263.151886 67.357692 
L 263.225727 67.255698 
L 263.262648 67.516351 
L 263.299568 67.306695 
L 263.48417 66.496403 
L 263.521091 66.60973 
L 263.668773 66.479404 
L 263.816455 66.292413 
L 263.890295 66.366076 
L 264.29642 65.391459 
L 264.333341 65.49912 
L 264.370261 65.368794 
L 264.591784 64.462173 
L 264.702545 64.360178 
L 264.887148 63.612216 
L 265.07175 63.01158 
L 265.145591 63.01158 
L 265.293273 62.6206 
L 265.330193 62.796258 
L 265.367114 62.677264 
L 265.514795 62.376946 
L 265.625557 62.195622 
L 265.773239 61.957634 
L 265.810159 62.053962 
L 265.84708 61.940635 
L 266.031682 61.379663 
L 266.068602 61.594986 
L 266.105523 61.38533 
L 266.216284 60.72803 
L 266.253205 60.91502 
L 266.363966 61.209672 
L 266.69625 60.331383 
L 266.807011 60.711031 
L 266.954693 60.473043 
L 266.991614 60.58637 
L 267.139295 60.155725 
L 267.176216 60.382381 
L 267.250057 60.32005 
L 267.5085 59.334101 
L 267.582341 59.396431 
L 268.062307 57.934505 
L 268.099227 58.081831 
L 268.136148 57.838177 
L 268.173068 57.940172 
L 268.35767 57.129879 
L 268.394591 57.401866 
L 268.431511 57.311204 
L 268.616114 56.891892 
L 268.653034 56.954222 
L 268.763795 56.7219 
L 268.800716 56.812562 
L 268.837636 56.461247 
L 268.911477 56.755898 
L 269.16992 55.588624 
L 269.354523 54.919992 
L 269.612966 53.990706 
L 269.723727 53.758384 
L 269.760648 54.160697 
L 269.834489 53.764051 
L 269.90833 54.087034 
L 269.94525 53.741385 
L 270.056011 53.429734 
L 270.203693 53.70172 
L 270.388295 52.829098 
L 270.535977 52.472116 
L 270.609818 52.7951 
L 270.646739 52.46645 
L 270.79442 52.188797 
L 270.942102 51.559829 
L 271.015943 51.752486 
L 271.126705 51.236846 
L 271.422068 50.137568 
L 271.458989 50.284894 
L 271.495909 50.086571 
L 271.53283 50.018575 
L 271.717432 49.25928 
L 271.902034 49.009959 
L 271.938955 48.494319 
L 272.012795 48.879633 
L 272.049716 48.936296 
L 272.382 47.604697 
L 272.41892 47.831353 
L 272.455841 47.468704 
L 272.714284 46.499754 
L 272.751205 46.516753 
L 272.788125 46.635747 
L 272.825045 46.295764 
L 272.898886 46.369427 
L 272.935807 46.397759 
L 273.120409 45.802789 
L 273.15733 45.814122 
L 273.268091 45.247484 
L 273.305011 45.474139 
L 273.637295 44.352196 
L 273.711136 44.958499 
L 273.895739 43.575902 
L 274.0065 43.847889 
L 274.117261 43.269918 
L 274.154182 43.36058 
L 274.191102 43.36058 
L 274.634148 41.638001 
L 274.671068 41.734329 
L 274.707989 41.841991 
L 274.929511 40.87304 
L 275.003352 41.043031 
L 275.040273 41.218689 
L 275.077193 41.037365 
L 276.258648 37.121897 
L 276.295568 37.416549 
L 276.332489 37.076566 
L 276.44325 36.611923 
L 276.48017 36.895242 
L 276.517091 36.640255 
L 276.627852 36.220943 
L 276.849375 35.495647 
L 276.886295 35.727968 
L 276.923216 35.455982 
L 276.960136 35.620307 
L 277.2555 33.212096 
L 277.329341 33.376421 
L 277.366261 33.8014 
L 277.440102 33.370755 
L 277.587784 32.503799 
L 277.624705 32.577462 
L 277.661625 32.787118 
L 277.698545 32.418803 
L 277.846227 32.078821 
L 277.883148 32.090153 
L 278.03083 31.381856 
L 278.141591 31.653842 
L 278.510795 29.738606 
L 278.547716 29.987927 
L 278.584636 29.834935 
L 278.732318 29.330627 
L 278.953841 28.361676 
L 278.990761 28.582665 
L 279.027682 28.350344 
L 279.286125 27.296397 
L 279.286125 27.296397 
" style="fill:none;stroke:#d56c55;stroke-linecap:round;stroke-width:0.5;"/>
   </g>
   <g id="patch_8">
    <path d="M 181.41 112.74 
L 181.41 23.227654 
" style="fill:none;stroke:#ffffff;stroke-linecap:square;stroke-linejoin:miter;stroke-width:0.8;"/>
   </g>
   <g id="patch_9">
    <path d="M 278.88 112.74 
L 278.88 23.227654 
" style="fill:none;stroke:#ffffff;stroke-linecap:square;stroke-linejoin:miter;stroke-width:0.8;"/>
   </g>
   <g id="patch_10">
    <path d="M 181.41 112.74 
L 278.88 112.74 
" style="fill:none;stroke:#ffffff;stroke-linecap:square;stroke-linejoin:miter;stroke-width:0.8;"/>
   </g>
   <g id="patch_11">
    <path d="M 181.41 23.227654 
L 278.88 23.227654 
" style="fill:none;stroke:#ffffff;stroke-linecap:square;stroke-linejoin:miter;stroke-width:0.8;"/>
   </g>
  </g>
  <g id="axes_3">
   <g id="patch_12">
    <path d="M 323.73 112.74 
L 421.2 112.74 
L 421.2 23.227654 
L 323.73 23.227654 
z
" style="fill:#e3dcd0;"/>
   </g>
   <g id="matplotlib.axis_5">
    <g id="xtick_11">
     <g id="text_27">
      <!-- 2017 -->
      <g transform="translate(326.376225 120.865625)scale(0.06 -0.06)">
       <use xlink:href="#LucidaSansUnicode-50"/>
       <use x="63.232422" xlink:href="#LucidaSansUnicode-48"/>
       <use x="126.464844" xlink:href="#LucidaSansUnicode-49"/>
       <use x="189.697266" xlink:href="#LucidaSansUnicode-55"/>
      </g>
     </g>
    </g>
    <g id="xtick_12">
     <g id="text_28">
      <!-- 2018 -->
      <g transform="translate(350.743725 120.865625)scale(0.06 -0.06)">
       <use xlink:href="#LucidaSansUnicode-50"/>
       <use x="63.232422" xlink:href="#LucidaSansUnicode-48"/>
       <use x="126.464844" xlink:href="#LucidaSansUnicode-49"/>
       <use x="189.697266" xlink:href="#LucidaSansUnicode-56"/>
      </g>
     </g>
    </g>
    <g id="xtick_13">
     <g id="text_29">
      <!-- 2019 -->
      <g transform="translate(375.111225 120.865625)scale(0.06 -0.06)">
       <use xlink:href="#LucidaSansUnicode-50"/>
       <use x="63.232422" xlink:href="#LucidaSansUnicode-48"/>
       <use x="126.464844" xlink:href="#LucidaSansUnicode-49"/>
       <use x="189.697266" xlink:href="#LucidaSansUnicode-57"/>
      </g>
     </g>
    </g>
    <g id="xtick_14">
     <g id="text_30">
      <!-- 2020 -->
      <g transform="translate(399.478725 120.865625)scale(0.06 -0.06)">
       <use xlink:href="#LucidaSansUnicode-50"/>
       <use x="63.232422" xlink:href="#LucidaSansUnicode-48"/>
       <use x="126.464844" xlink:href="#LucidaSansUnicode-50"/>
       <use x="189.697266" xlink:href="#LucidaSansUnicode-48"/>
      </g>
     </g>
    </g>
    <g id="text_31">
     <!-- year [C.E.] -->
     <g style="fill:#262626;" transform="translate(357.841406 130.648125)scale(0.06 -0.06)">
      <use xlink:href="#LucidaSansUnicode-121"/>
      <use x="52.246094" xlink:href="#LucidaSansUnicode-101"/>
      <use x="107.958984" xlink:href="#LucidaSansUnicode-97"/>
      <use x="163.183594" xlink:href="#LucidaSansUnicode-114"/>
      <use x="204.101562" xlink:href="#LucidaSansUnicode-32"/>
      <use x="235.742188" xlink:href="#LucidaSansUnicode-91"/>
      <use x="268.261719" xlink:href="#LucidaSansUnicode-67"/>
      <use x="337.451172" xlink:href="#LucidaSansUnicode-46"/>
      <use x="369.091797" xlink:href="#LucidaSansUnicode-69"/>
      <use x="423.291016" xlink:href="#LucidaSansUnicode-46"/>
      <use x="454.931641" xlink:href="#LucidaSansUnicode-93"/>
     </g>
    </g>
   </g>
   <g id="matplotlib.axis_6">
    <g id="ytick_13">
     <g id="text_32">
      <!-- 400 -->
      <g transform="translate(308.847812 115.052813)scale(0.06 -0.06)">
       <use xlink:href="#LucidaSansUnicode-52"/>
       <use x="63.232422" xlink:href="#LucidaSansUnicode-48"/>
       <use x="126.464844" xlink:href="#LucidaSansUnicode-48"/>
      </g>
     </g>
    </g>
    <g id="ytick_14">
     <g id="text_33">
      <!-- 405 -->
      <g transform="translate(308.847812 92.674726)scale(0.06 -0.06)">
       <use xlink:href="#LucidaSansUnicode-52"/>
       <use x="63.232422" xlink:href="#LucidaSansUnicode-48"/>
       <use x="126.464844" xlink:href="#LucidaSansUnicode-53"/>
      </g>
     </g>
    </g>
    <g id="ytick_15">
     <g id="text_34">
      <!-- 410 -->
      <g transform="translate(308.847812 70.29664)scale(0.06 -0.06)">
       <use xlink:href="#LucidaSansUnicode-52"/>
       <use x="63.232422" xlink:href="#LucidaSansUnicode-49"/>
       <use x="126.464844" xlink:href="#LucidaSansUnicode-48"/>
      </g>
     </g>
    </g>
    <g id="ytick_16">
     <g id="text_35">
      <!-- 415 -->
      <g transform="translate(308.847812 47.918553)scale(0.06 -0.06)">
       <use xlink:href="#LucidaSansUnicode-52"/>
       <use x="63.232422" xlink:href="#LucidaSansUnicode-49"/>
       <use x="126.464844" xlink:href="#LucidaSansUnicode-53"/>
      </g>
     </g>
    </g>
    <g id="ytick_17">
     <g id="text_36">
      <!-- 420 -->
      <g transform="translate(308.847812 25.540467)scale(0.06 -0.06)">
       <use xlink:href="#LucidaSansUnicode-52"/>
       <use x="63.232422" xlink:href="#LucidaSansUnicode-50"/>
       <use x="126.464844" xlink:href="#LucidaSansUnicode-48"/>
      </g>
     </g>
    </g>
    <g id="text_37">
     <!-- CO$_2$ concentration [ppm] -->
     <g style="fill:#262626;" transform="translate(303.647812 103.983827)rotate(-90)scale(0.06 -0.06)">
      <use transform="translate(0 0.90625)" xlink:href="#LucidaSansUnicode-67"/>
      <use transform="translate(69.189453 0.90625)" xlink:href="#LucidaSansUnicode-79"/>
      <use transform="translate(147.667695 -12.682812)scale(0.7)" xlink:href="#STIXGeneral-Regular-120804"/>
      <use transform="translate(184.932528 0.90625)" xlink:href="#LucidaSansUnicode-32"/>
      <use transform="translate(216.573153 0.90625)" xlink:href="#LucidaSansUnicode-99"/>
      <use transform="translate(267.793857 0.90625)" xlink:href="#LucidaSansUnicode-111"/>
      <use transform="translate(329.219638 0.90625)" xlink:href="#LucidaSansUnicode-110"/>
      <use transform="translate(391.280185 0.90625)" xlink:href="#LucidaSansUnicode-99"/>
      <use transform="translate(442.500888 0.90625)" xlink:href="#LucidaSansUnicode-101"/>
      <use transform="translate(498.213778 0.90625)" xlink:href="#LucidaSansUnicode-110"/>
      <use transform="translate(560.274325 0.90625)" xlink:href="#LucidaSansUnicode-116"/>
      <use transform="translate(597.676669 0.90625)" xlink:href="#LucidaSansUnicode-114"/>
      <use transform="translate(638.594638 0.90625)" xlink:href="#LucidaSansUnicode-97"/>
      <use transform="translate(693.819247 0.90625)" xlink:href="#LucidaSansUnicode-116"/>
      <use transform="translate(731.221591 0.90625)" xlink:href="#LucidaSansUnicode-105"/>
      <use transform="translate(760.127841 0.90625)" xlink:href="#LucidaSansUnicode-111"/>
      <use transform="translate(821.553622 0.90625)" xlink:href="#LucidaSansUnicode-110"/>
      <use transform="translate(883.614169 0.90625)" xlink:href="#LucidaSansUnicode-32"/>
      <use transform="translate(915.254794 0.90625)" xlink:href="#LucidaSansUnicode-91"/>
      <use transform="translate(947.774325 0.90625)" xlink:href="#LucidaSansUnicode-112"/>
      <use transform="translate(1010.713778 0.90625)" xlink:href="#LucidaSansUnicode-112"/>
      <use transform="translate(1073.653232 0.90625)" xlink:href="#LucidaSansUnicode-109"/>
      <use transform="translate(1167.012607 0.90625)" xlink:href="#LucidaSansUnicode-93"/>
     </g>
    </g>
   </g>
   <g id="line2d_5">
    <path clip-path="url(#p5c39af7b86)" d="M 172.510458 145 
L 173.544975 143.084685 
L 174.431704 145 
M 194.606211 145 
L 197.912475 138.340531 
L 199.9431 140.981145 
L 201.600726 145 
M 213.713065 145 
L 214.157475 143.756028 
L 216.1881 142.502855 
L 218.218725 137.982481 
L 220.24935 128.717954 
L 222.279975 126.748682 
L 224.3106 131.179543 
L 226.341225 137.266383 
L 228.11335 145 
M 234.298403 145 
L 234.463725 144.293102 
L 236.49435 138.11675 
L 240.5556 126.838194 
L 242.586225 125.003191 
L 244.61685 120.124769 
L 246.647475 112.829512 
L 248.6781 117.797448 
L 250.708725 124.510873 
L 254.769975 142.32383 
L 256.8006 140.936389 
L 258.831225 134.267719 
L 260.86185 126.972463 
L 262.892475 122.004528 
L 264.9231 121.243673 
L 266.953725 115.112077 
L 268.98435 106.787429 
L 271.014975 104.32584 
L 273.0456 106.876941 
L 275.076225 116.902324 
L 279.137475 133.32784 
L 281.1681 132.208935 
L 285.22935 118.155497 
L 287.259975 113.411343 
L 289.2906 111.352559 
L 291.321225 105.981818 
L 293.35185 97.29912 
L 295.382475 94.389969 
L 299.443725 105.534256 
L 301.47435 117.215617 
L 303.504975 123.929043 
L 305.5356 120.438062 
L 307.566225 111.665852 
L 309.59685 104.281083 
L 311.627475 100.879614 
L 313.6581 94.121432 
L 315.688725 91.033256 
L 317.71935 78.859577 
L 319.749975 78.456772 
L 321.7806 81.410679 
L 323.811225 92.599722 
L 325.84185 102.714617 
L 327.872475 108.219627 
L 329.9031 106.026574 
L 331.933725 96.448753 
L 333.96435 92.375941 
L 335.994975 85.573003 
L 338.0256 83.021901 
L 340.056225 81.142142 
L 342.08685 72.683225 
L 344.117475 68.386633 
L 346.1481 71.92237 
L 352.239975 98.104731 
L 354.2706 96.448753 
L 358.33185 82.529583 
L 360.362475 76.711281 
L 362.3931 75.413352 
L 364.423725 71.34054 
L 368.484975 62.165525 
L 370.5156 64.045284 
L 372.546225 72.907006 
L 374.57685 80.963117 
L 376.607475 87.721299 
L 378.6381 85.931052 
L 380.668725 76.397988 
L 382.69935 71.430052 
L 384.729975 63.866259 
L 386.7606 60.554302 
L 388.791225 59.032593 
L 390.82185 52.229654 
L 392.852475 46.366596 
L 394.8831 50.260383 
L 396.913725 59.703935 
L 398.94435 67.625778 
L 400.974975 74.473472 
L 403.0056 75.010546 
L 405.036225 66.685898 
L 409.097475 52.900997 
L 411.1281 49.678552 
L 413.158725 47.798793 
L 415.18935 40.324512 
L 417.219975 35.938407 
L 419.2506 39.787438 
L 423.31185 56.391978 
L 425.342475 62.389306 
L 427.3731 62.523574 
L 429.403725 54.780756 
L 429.403725 54.780756 
" style="fill:none;stroke:#d56c55;stroke-linecap:round;stroke-width:0.5;"/>
    <defs>
     <path d="M 0 0.75 
C 0.198902 0.75 0.389685 0.670975 0.53033 0.53033 
C 0.670975 0.389685 0.75 0.198902 0.75 0 
C 0.75 -0.198902 0.670975 -0.389685 0.53033 -0.53033 
C 0.389685 -0.670975 0.198902 -0.75 0 -0.75 
C -0.198902 -0.75 -0.389685 -0.670975 -0.53033 -0.53033 
C -0.670975 -0.389685 -0.75 -0.198902 -0.75 0 
C -0.75 0.198902 -0.670975 0.389685 -0.53033 0.53033 
C -0.389685 0.670975 -0.198902 0.75 0 0.75 
z
" id="mc185288b95" style="stroke:#d56c55;"/>
    </defs>
    <g clip-path="url(#p5c39af7b86)">
     <use style="fill:#d56c55;stroke:#d56c55;" x="-1" xlink:href="#mc185288b95" y="219.361172"/>
     <use style="fill:#d56c55;stroke:#d56c55;" x="0.94185" xlink:href="#mc185288b95" y="212.770046"/>
     <use style="fill:#d56c55;stroke:#d56c55;" x="2.972475" xlink:href="#mc185288b95" y="209.637114"/>
     <use style="fill:#d56c55;stroke:#d56c55;" x="5.0031" xlink:href="#mc185288b95" y="210.62175"/>
     <use style="fill:#d56c55;stroke:#d56c55;" x="7.033725" xlink:href="#mc185288b95" y="217.469444"/>
     <use style="fill:#d56c55;stroke:#d56c55;" x="9.06435" xlink:href="#mc185288b95" y="226.957753"/>
     <use style="fill:#d56c55;stroke:#d56c55;" x="11.094975" xlink:href="#mc185288b95" y="233.671179"/>
     <use style="fill:#d56c55;stroke:#d56c55;" x="13.1256" xlink:href="#mc185288b95" y="233.581667"/>
     <use style="fill:#d56c55;stroke:#d56c55;" x="15.156225" xlink:href="#mc185288b95" y="227.539583"/>
     <use style="fill:#d56c55;stroke:#d56c55;" x="17.18685" xlink:href="#mc185288b95" y="221.542256"/>
     <use style="fill:#d56c55;stroke:#d56c55;" x="19.217475" xlink:href="#mc185288b95" y="216.619077"/>
     <use style="fill:#d56c55;stroke:#d56c55;" x="21.2481" xlink:href="#mc185288b95" y="214.023219"/>
     <use style="fill:#d56c55;stroke:#d56c55;" x="23.278725" xlink:href="#mc185288b95" y="209.45809"/>
     <use style="fill:#d56c55;stroke:#d56c55;" x="25.30935" xlink:href="#mc185288b95" y="200.014537"/>
     <use style="fill:#d56c55;stroke:#d56c55;" x="27.339975" xlink:href="#mc185288b95" y="199.477463"/>
     <use style="fill:#d56c55;stroke:#d56c55;" x="29.3706" xlink:href="#mc185288b95" y="204.266373"/>
     <use style="fill:#d56c55;stroke:#d56c55;" x="31.401225" xlink:href="#mc185288b95" y="212.277728"/>
     <use style="fill:#d56c55;stroke:#d56c55;" x="33.43185" xlink:href="#mc185288b95" y="220.91567"/>
     <use style="fill:#d56c55;stroke:#d56c55;" x="35.462475" xlink:href="#mc185288b95" y="228.882269"/>
     <use style="fill:#d56c55;stroke:#d56c55;" x="37.4931" xlink:href="#mc185288b95" y="228.121414"/>
     <use style="fill:#d56c55;stroke:#d56c55;" x="39.523725" xlink:href="#mc185288b95" y="220.870914"/>
     <use style="fill:#d56c55;stroke:#d56c55;" x="41.55435" xlink:href="#mc185288b95" y="213.709926"/>
     <use style="fill:#d56c55;stroke:#d56c55;" x="43.584975" xlink:href="#mc185288b95" y="209.68187"/>
     <use style="fill:#d56c55;stroke:#d56c55;" x="45.6156" xlink:href="#mc185288b95" y="203.997836"/>
     <use style="fill:#d56c55;stroke:#d56c55;" x="47.646225" xlink:href="#mc185288b95" y="201.84954"/>
     <use style="fill:#d56c55;stroke:#d56c55;" x="49.67685" xlink:href="#mc185288b95" y="193.07733"/>
     <use style="fill:#d56c55;stroke:#d56c55;" x="51.707475" xlink:href="#mc185288b95" y="192.226963"/>
     <use style="fill:#d56c55;stroke:#d56c55;" x="53.7381" xlink:href="#mc185288b95" y="192.943062"/>
     <use style="fill:#d56c55;stroke:#d56c55;" x="55.768725" xlink:href="#mc185288b95" y="199.298438"/>
     <use style="fill:#d56c55;stroke:#d56c55;" x="57.79935" xlink:href="#mc185288b95" y="208.204917"/>
     <use style="fill:#d56c55;stroke:#d56c55;" x="59.829975" xlink:href="#mc185288b95" y="218.275056"/>
     <use style="fill:#d56c55;stroke:#d56c55;" x="61.8606" xlink:href="#mc185288b95" y="216.574321"/>
     <use style="fill:#d56c55;stroke:#d56c55;" x="63.891225" xlink:href="#mc185288b95" y="209.816139"/>
     <use style="fill:#d56c55;stroke:#d56c55;" x="65.92185" xlink:href="#mc185288b95" y="202.43137"/>
     <use style="fill:#d56c55;stroke:#d56c55;" x="67.952475" xlink:href="#mc185288b95" y="196.12075"/>
     <use style="fill:#d56c55;stroke:#d56c55;" x="69.9831" xlink:href="#mc185288b95" y="193.211599"/>
     <use style="fill:#d56c55;stroke:#d56c55;" x="72.013725" xlink:href="#mc185288b95" y="190.794765"/>
     <use style="fill:#d56c55;stroke:#d56c55;" x="74.04435" xlink:href="#mc185288b95" y="182.738654"/>
     <use style="fill:#d56c55;stroke:#d56c55;" x="76.074975" xlink:href="#mc185288b95" y="180.232309"/>
     <use style="fill:#d56c55;stroke:#d56c55;" x="78.1056" xlink:href="#mc185288b95" y="184.215608"/>
     <use style="fill:#d56c55;stroke:#d56c55;" x="80.136225" xlink:href="#mc185288b95" y="192.047938"/>
     <use style="fill:#d56c55;stroke:#d56c55;" x="82.16685" xlink:href="#mc185288b95" y="200.104049"/>
     <use style="fill:#d56c55;stroke:#d56c55;" x="84.197475" xlink:href="#mc185288b95" y="207.57833"/>
     <use style="fill:#d56c55;stroke:#d56c55;" x="86.2281" xlink:href="#mc185288b95" y="206.459426"/>
     <use style="fill:#d56c55;stroke:#d56c55;" x="88.258725" xlink:href="#mc185288b95" y="201.625759"/>
     <use style="fill:#d56c55;stroke:#d56c55;" x="90.28935" xlink:href="#mc185288b95" y="194.822821"/>
     <use style="fill:#d56c55;stroke:#d56c55;" x="92.319975" xlink:href="#mc185288b95" y="190.705253"/>
     <use style="fill:#d56c55;stroke:#d56c55;" x="94.3506" xlink:href="#mc185288b95" y="185.647806"/>
     <use style="fill:#d56c55;stroke:#d56c55;" x="96.381225" xlink:href="#mc185288b95" y="182.828167"/>
     <use style="fill:#d56c55;stroke:#d56c55;" x="98.41185" xlink:href="#mc185288b95" y="174.36925"/>
     <use style="fill:#d56c55;stroke:#d56c55;" x="100.442475" xlink:href="#mc185288b95" y="173.563639"/>
     <use style="fill:#d56c55;stroke:#d56c55;" x="102.4731" xlink:href="#mc185288b95" y="175.980472"/>
     <use style="fill:#d56c55;stroke:#d56c55;" x="104.503725" xlink:href="#mc185288b95" y="182.380605"/>
     <use style="fill:#d56c55;stroke:#d56c55;" x="106.53435" xlink:href="#mc185288b95" y="194.01721"/>
     <use style="fill:#d56c55;stroke:#d56c55;" x="108.564975" xlink:href="#mc185288b95" y="198.403315"/>
     <use style="fill:#d56c55;stroke:#d56c55;" x="110.5956" xlink:href="#mc185288b95" y="198.403315"/>
     <use style="fill:#d56c55;stroke:#d56c55;" x="112.626225" xlink:href="#mc185288b95" y="191.689889"/>
     <use style="fill:#d56c55;stroke:#d56c55;" x="114.65685" xlink:href="#mc185288b95" y="186.095367"/>
     <use style="fill:#d56c55;stroke:#d56c55;" x="116.687475" xlink:href="#mc185288b95" y="179.560966"/>
     <use style="fill:#d56c55;stroke:#d56c55;" x="118.7181" xlink:href="#mc185288b95" y="176.114741"/>
     <use style="fill:#d56c55;stroke:#d56c55;" x="120.748725" xlink:href="#mc185288b95" y="176.159497"/>
     <use style="fill:#d56c55;stroke:#d56c55;" x="122.77935" xlink:href="#mc185288b95" y="171.952417"/>
     <use style="fill:#d56c55;stroke:#d56c55;" x="124.809975" xlink:href="#mc185288b95" y="164.164843"/>
     <use style="fill:#d56c55;stroke:#d56c55;" x="126.8406" xlink:href="#mc185288b95" y="166.223627"/>
     <use style="fill:#d56c55;stroke:#d56c55;" x="128.871225" xlink:href="#mc185288b95" y="174.279738"/>
     <use style="fill:#d56c55;stroke:#d56c55;" x="130.90185" xlink:href="#mc185288b95" y="183.991827"/>
     <use style="fill:#d56c55;stroke:#d56c55;" x="132.932475" xlink:href="#mc185288b95" y="188.422688"/>
     <use style="fill:#d56c55;stroke:#d56c55;" x="134.9631" xlink:href="#mc185288b95" y="189.81013"/>
     <use style="fill:#d56c55;stroke:#d56c55;" x="136.993725" xlink:href="#mc185288b95" y="184.30512"/>
     <use style="fill:#d56c55;stroke:#d56c55;" x="139.02435" xlink:href="#mc185288b95" y="179.381941"/>
     <use style="fill:#d56c55;stroke:#d56c55;" x="141.054975" xlink:href="#mc185288b95" y="172.489491"/>
     <use style="fill:#d56c55;stroke:#d56c55;" x="143.0856" xlink:href="#mc185288b95" y="170.385951"/>
     <use style="fill:#d56c55;stroke:#d56c55;" x="145.116225" xlink:href="#mc185288b95" y="164.120086"/>
     <use style="fill:#d56c55;stroke:#d56c55;" x="147.14685" xlink:href="#mc185288b95" y="159.420688"/>
     <use style="fill:#d56c55;stroke:#d56c55;" x="149.177475" xlink:href="#mc185288b95" y="156.735318"/>
     <use style="fill:#d56c55;stroke:#d56c55;" x="151.2081" xlink:href="#mc185288b95" y="159.196907"/>
     <use style="fill:#d56c55;stroke:#d56c55;" x="153.238725" xlink:href="#mc185288b95" y="166.134114"/>
     <use style="fill:#d56c55;stroke:#d56c55;" x="155.26935" xlink:href="#mc185288b95" y="175.040593"/>
     <use style="fill:#d56c55;stroke:#d56c55;" x="157.299975" xlink:href="#mc185288b95" y="181.440725"/>
     <use style="fill:#d56c55;stroke:#d56c55;" x="159.3306" xlink:href="#mc185288b95" y="182.872923"/>
     <use style="fill:#d56c55;stroke:#d56c55;" x="161.361225" xlink:href="#mc185288b95" y="175.174861"/>
     <use style="fill:#d56c55;stroke:#d56c55;" x="163.39185" xlink:href="#mc185288b95" y="168.729972"/>
     <use style="fill:#d56c55;stroke:#d56c55;" x="165.422475" xlink:href="#mc185288b95" y="163.985818"/>
     <use style="fill:#d56c55;stroke:#d56c55;" x="167.4531" xlink:href="#mc185288b95" y="157.138123"/>
     <use style="fill:#d56c55;stroke:#d56c55;" x="169.483725" xlink:href="#mc185288b95" y="152.975799"/>
     <use style="fill:#d56c55;stroke:#d56c55;" x="171.51435" xlink:href="#mc185288b95" y="146.844204"/>
     <use style="fill:#d56c55;stroke:#d56c55;" x="173.544975" xlink:href="#mc185288b95" y="143.084685"/>
     <use style="fill:#d56c55;stroke:#d56c55;" x="175.5756" xlink:href="#mc185288b95" y="147.47079"/>
     <use style="fill:#d56c55;stroke:#d56c55;" x="177.606225" xlink:href="#mc185288b95" y="156.019219"/>
     <use style="fill:#d56c55;stroke:#d56c55;" x="179.63685" xlink:href="#mc185288b95" y="164.120086"/>
     <use style="fill:#d56c55;stroke:#d56c55;" x="181.667475" xlink:href="#mc185288b95" y="171.639123"/>
     <use style="fill:#d56c55;stroke:#d56c55;" x="183.6981" xlink:href="#mc185288b95" y="170.206926"/>
     <use style="fill:#d56c55;stroke:#d56c55;" x="185.728725" xlink:href="#mc185288b95" y="163.448744"/>
     <use style="fill:#d56c55;stroke:#d56c55;" x="187.75935" xlink:href="#mc185288b95" y="158.34654"/>
     <use style="fill:#d56c55;stroke:#d56c55;" x="189.789975" xlink:href="#mc185288b95" y="151.67787"/>
     <use style="fill:#d56c55;stroke:#d56c55;" x="191.8206" xlink:href="#mc185288b95" y="148.902988"/>
     <use style="fill:#d56c55;stroke:#d56c55;" x="193.851225" xlink:href="#mc185288b95" y="146.53091"/>
     <use style="fill:#d56c55;stroke:#d56c55;" x="195.88185" xlink:href="#mc185288b95" y="142.413343"/>
     <use style="fill:#d56c55;stroke:#d56c55;" x="197.912475" xlink:href="#mc185288b95" y="138.340531"/>
     <use style="fill:#d56c55;stroke:#d56c55;" x="199.9431" xlink:href="#mc185288b95" y="140.981145"/>
     <use style="fill:#d56c55;stroke:#d56c55;" x="201.973725" xlink:href="#mc185288b95" y="145.904324"/>
     <use style="fill:#d56c55;stroke:#d56c55;" x="204.00435" xlink:href="#mc185288b95" y="156.556293"/>
     <use style="fill:#d56c55;stroke:#d56c55;" x="206.034975" xlink:href="#mc185288b95" y="161.97179"/>
     <use style="fill:#d56c55;stroke:#d56c55;" x="208.0656" xlink:href="#mc185288b95" y="162.285083"/>
     <use style="fill:#d56c55;stroke:#d56c55;" x="210.096225" xlink:href="#mc185288b95" y="156.422025"/>
     <use style="fill:#d56c55;stroke:#d56c55;" x="212.12685" xlink:href="#mc185288b95" y="149.440062"/>
     <use style="fill:#d56c55;stroke:#d56c55;" x="214.157475" xlink:href="#mc185288b95" y="143.756028"/>
     <use style="fill:#d56c55;stroke:#d56c55;" x="216.1881" xlink:href="#mc185288b95" y="142.502855"/>
     <use style="fill:#d56c55;stroke:#d56c55;" x="218.218725" xlink:href="#mc185288b95" y="137.982481"/>
     <use style="fill:#d56c55;stroke:#d56c55;" x="220.24935" xlink:href="#mc185288b95" y="128.717954"/>
     <use style="fill:#d56c55;stroke:#d56c55;" x="222.279975" xlink:href="#mc185288b95" y="126.748682"/>
     <use style="fill:#d56c55;stroke:#d56c55;" x="224.3106" xlink:href="#mc185288b95" y="131.179543"/>
     <use style="fill:#d56c55;stroke:#d56c55;" x="226.341225" xlink:href="#mc185288b95" y="137.266383"/>
     <use style="fill:#d56c55;stroke:#d56c55;" x="228.37185" xlink:href="#mc185288b95" y="146.128105"/>
     <use style="fill:#d56c55;stroke:#d56c55;" x="230.402475" xlink:href="#mc185288b95" y="152.438725"/>
     <use style="fill:#d56c55;stroke:#d56c55;" x="232.4331" xlink:href="#mc185288b95" y="152.975799"/>
     <use style="fill:#d56c55;stroke:#d56c55;" x="234.463725" xlink:href="#mc185288b95" y="144.293102"/>
     <use style="fill:#d56c55;stroke:#d56c55;" x="236.49435" xlink:href="#mc185288b95" y="138.11675"/>
     <use style="fill:#d56c55;stroke:#d56c55;" x="238.524975" xlink:href="#mc185288b95" y="132.38796"/>
     <use style="fill:#d56c55;stroke:#d56c55;" x="240.5556" xlink:href="#mc185288b95" y="126.838194"/>
     <use style="fill:#d56c55;stroke:#d56c55;" x="242.586225" xlink:href="#mc185288b95" y="125.003191"/>
     <use style="fill:#d56c55;stroke:#d56c55;" x="244.61685" xlink:href="#mc185288b95" y="120.124769"/>
     <use style="fill:#d56c55;stroke:#d56c55;" x="246.647475" xlink:href="#mc185288b95" y="112.829512"/>
     <use style="fill:#d56c55;stroke:#d56c55;" x="248.6781" xlink:href="#mc185288b95" y="117.797448"/>
     <use style="fill:#d56c55;stroke:#d56c55;" x="250.708725" xlink:href="#mc185288b95" y="124.510873"/>
     <use style="fill:#d56c55;stroke:#d56c55;" x="252.73935" xlink:href="#mc185288b95" y="133.283083"/>
     <use style="fill:#d56c55;stroke:#d56c55;" x="254.769975" xlink:href="#mc185288b95" y="142.32383"/>
     <use style="fill:#d56c55;stroke:#d56c55;" x="256.8006" xlink:href="#mc185288b95" y="140.936389"/>
     <use style="fill:#d56c55;stroke:#d56c55;" x="258.831225" xlink:href="#mc185288b95" y="134.267719"/>
     <use style="fill:#d56c55;stroke:#d56c55;" x="260.86185" xlink:href="#mc185288b95" y="126.972463"/>
     <use style="fill:#d56c55;stroke:#d56c55;" x="262.892475" xlink:href="#mc185288b95" y="122.004528"/>
     <use style="fill:#d56c55;stroke:#d56c55;" x="264.9231" xlink:href="#mc185288b95" y="121.243673"/>
     <use style="fill:#d56c55;stroke:#d56c55;" x="266.953725" xlink:href="#mc185288b95" y="115.112077"/>
     <use style="fill:#d56c55;stroke:#d56c55;" x="268.98435" xlink:href="#mc185288b95" y="106.787429"/>
     <use style="fill:#d56c55;stroke:#d56c55;" x="271.014975" xlink:href="#mc185288b95" y="104.32584"/>
     <use style="fill:#d56c55;stroke:#d56c55;" x="273.0456" xlink:href="#mc185288b95" y="106.876941"/>
     <use style="fill:#d56c55;stroke:#d56c55;" x="275.076225" xlink:href="#mc185288b95" y="116.902324"/>
     <use style="fill:#d56c55;stroke:#d56c55;" x="277.10685" xlink:href="#mc185288b95" y="125.226972"/>
     <use style="fill:#d56c55;stroke:#d56c55;" x="279.137475" xlink:href="#mc185288b95" y="133.32784"/>
     <use style="fill:#d56c55;stroke:#d56c55;" x="281.1681" xlink:href="#mc185288b95" y="132.208935"/>
     <use style="fill:#d56c55;stroke:#d56c55;" x="283.198725" xlink:href="#mc185288b95" y="125.13746"/>
     <use style="fill:#d56c55;stroke:#d56c55;" x="285.22935" xlink:href="#mc185288b95" y="118.155497"/>
     <use style="fill:#d56c55;stroke:#d56c55;" x="287.259975" xlink:href="#mc185288b95" y="113.411343"/>
     <use style="fill:#d56c55;stroke:#d56c55;" x="289.2906" xlink:href="#mc185288b95" y="111.352559"/>
     <use style="fill:#d56c55;stroke:#d56c55;" x="291.321225" xlink:href="#mc185288b95" y="105.981818"/>
     <use style="fill:#d56c55;stroke:#d56c55;" x="293.35185" xlink:href="#mc185288b95" y="97.29912"/>
     <use style="fill:#d56c55;stroke:#d56c55;" x="295.382475" xlink:href="#mc185288b95" y="94.389969"/>
     <use style="fill:#d56c55;stroke:#d56c55;" x="297.4131" xlink:href="#mc185288b95" y="99.850222"/>
     <use style="fill:#d56c55;stroke:#d56c55;" x="299.443725" xlink:href="#mc185288b95" y="105.534256"/>
     <use style="fill:#d56c55;stroke:#d56c55;" x="301.47435" xlink:href="#mc185288b95" y="117.215617"/>
     <use style="fill:#d56c55;stroke:#d56c55;" x="303.504975" xlink:href="#mc185288b95" y="123.929043"/>
     <use style="fill:#d56c55;stroke:#d56c55;" x="305.5356" xlink:href="#mc185288b95" y="120.438062"/>
     <use style="fill:#d56c55;stroke:#d56c55;" x="307.566225" xlink:href="#mc185288b95" y="111.665852"/>
     <use style="fill:#d56c55;stroke:#d56c55;" x="309.59685" xlink:href="#mc185288b95" y="104.281083"/>
     <use style="fill:#d56c55;stroke:#d56c55;" x="311.627475" xlink:href="#mc185288b95" y="100.879614"/>
     <use style="fill:#d56c55;stroke:#d56c55;" x="313.6581" xlink:href="#mc185288b95" y="94.121432"/>
     <use style="fill:#d56c55;stroke:#d56c55;" x="315.688725" xlink:href="#mc185288b95" y="91.033256"/>
     <use style="fill:#d56c55;stroke:#d56c55;" x="317.71935" xlink:href="#mc185288b95" y="78.859577"/>
     <use style="fill:#d56c55;stroke:#d56c55;" x="319.749975" xlink:href="#mc185288b95" y="78.456772"/>
     <use style="fill:#d56c55;stroke:#d56c55;" x="321.7806" xlink:href="#mc185288b95" y="81.410679"/>
     <use style="fill:#d56c55;stroke:#d56c55;" x="323.811225" xlink:href="#mc185288b95" y="92.599722"/>
     <use style="fill:#d56c55;stroke:#d56c55;" x="325.84185" xlink:href="#mc185288b95" y="102.714617"/>
     <use style="fill:#d56c55;stroke:#d56c55;" x="327.872475" xlink:href="#mc185288b95" y="108.219627"/>
     <use style="fill:#d56c55;stroke:#d56c55;" x="329.9031" xlink:href="#mc185288b95" y="106.026574"/>
     <use style="fill:#d56c55;stroke:#d56c55;" x="331.933725" xlink:href="#mc185288b95" y="96.448753"/>
     <use style="fill:#d56c55;stroke:#d56c55;" x="333.96435" xlink:href="#mc185288b95" y="92.375941"/>
     <use style="fill:#d56c55;stroke:#d56c55;" x="335.994975" xlink:href="#mc185288b95" y="85.573003"/>
     <use style="fill:#d56c55;stroke:#d56c55;" x="338.0256" xlink:href="#mc185288b95" y="83.021901"/>
     <use style="fill:#d56c55;stroke:#d56c55;" x="340.056225" xlink:href="#mc185288b95" y="81.142142"/>
     <use style="fill:#d56c55;stroke:#d56c55;" x="342.08685" xlink:href="#mc185288b95" y="72.683225"/>
     <use style="fill:#d56c55;stroke:#d56c55;" x="344.117475" xlink:href="#mc185288b95" y="68.386633"/>
     <use style="fill:#d56c55;stroke:#d56c55;" x="346.1481" xlink:href="#mc185288b95" y="71.92237"/>
     <use style="fill:#d56c55;stroke:#d56c55;" x="348.178725" xlink:href="#mc185288b95" y="80.515556"/>
     <use style="fill:#d56c55;stroke:#d56c55;" x="350.20935" xlink:href="#mc185288b95" y="89.287765"/>
     <use style="fill:#d56c55;stroke:#d56c55;" x="352.239975" xlink:href="#mc185288b95" y="98.104731"/>
     <use style="fill:#d56c55;stroke:#d56c55;" x="354.2706" xlink:href="#mc185288b95" y="96.448753"/>
     <use style="fill:#d56c55;stroke:#d56c55;" x="356.301225" xlink:href="#mc185288b95" y="89.601059"/>
     <use style="fill:#d56c55;stroke:#d56c55;" x="358.33185" xlink:href="#mc185288b95" y="82.529583"/>
     <use style="fill:#d56c55;stroke:#d56c55;" x="360.362475" xlink:href="#mc185288b95" y="76.711281"/>
     <use style="fill:#d56c55;stroke:#d56c55;" x="362.3931" xlink:href="#mc185288b95" y="75.413352"/>
     <use style="fill:#d56c55;stroke:#d56c55;" x="364.423725" xlink:href="#mc185288b95" y="71.34054"/>
     <use style="fill:#d56c55;stroke:#d56c55;" x="366.45435" xlink:href="#mc185288b95" y="66.641142"/>
     <use style="fill:#d56c55;stroke:#d56c55;" x="368.484975" xlink:href="#mc185288b95" y="62.165525"/>
     <use style="fill:#d56c55;stroke:#d56c55;" x="370.5156" xlink:href="#mc185288b95" y="64.045284"/>
     <use style="fill:#d56c55;stroke:#d56c55;" x="372.546225" xlink:href="#mc185288b95" y="72.907006"/>
     <use style="fill:#d56c55;stroke:#d56c55;" x="374.57685" xlink:href="#mc185288b95" y="80.963117"/>
     <use style="fill:#d56c55;stroke:#d56c55;" x="376.607475" xlink:href="#mc185288b95" y="87.721299"/>
     <use style="fill:#d56c55;stroke:#d56c55;" x="378.6381" xlink:href="#mc185288b95" y="85.931052"/>
     <use style="fill:#d56c55;stroke:#d56c55;" x="380.668725" xlink:href="#mc185288b95" y="76.397988"/>
     <use style="fill:#d56c55;stroke:#d56c55;" x="382.69935" xlink:href="#mc185288b95" y="71.430052"/>
     <use style="fill:#d56c55;stroke:#d56c55;" x="384.729975" xlink:href="#mc185288b95" y="63.866259"/>
     <use style="fill:#d56c55;stroke:#d56c55;" x="386.7606" xlink:href="#mc185288b95" y="60.554302"/>
     <use style="fill:#d56c55;stroke:#d56c55;" x="388.791225" xlink:href="#mc185288b95" y="59.032593"/>
     <use style="fill:#d56c55;stroke:#d56c55;" x="390.82185" xlink:href="#mc185288b95" y="52.229654"/>
     <use style="fill:#d56c55;stroke:#d56c55;" x="392.852475" xlink:href="#mc185288b95" y="46.366596"/>
     <use style="fill:#d56c55;stroke:#d56c55;" x="394.8831" xlink:href="#mc185288b95" y="50.260383"/>
     <use style="fill:#d56c55;stroke:#d56c55;" x="396.913725" xlink:href="#mc185288b95" y="59.703935"/>
     <use style="fill:#d56c55;stroke:#d56c55;" x="398.94435" xlink:href="#mc185288b95" y="67.625778"/>
     <use style="fill:#d56c55;stroke:#d56c55;" x="400.974975" xlink:href="#mc185288b95" y="74.473472"/>
     <use style="fill:#d56c55;stroke:#d56c55;" x="403.0056" xlink:href="#mc185288b95" y="75.010546"/>
     <use style="fill:#d56c55;stroke:#d56c55;" x="405.036225" xlink:href="#mc185288b95" y="66.685898"/>
     <use style="fill:#d56c55;stroke:#d56c55;" x="407.06685" xlink:href="#mc185288b95" y="59.703935"/>
     <use style="fill:#d56c55;stroke:#d56c55;" x="409.097475" xlink:href="#mc185288b95" y="52.900997"/>
     <use style="fill:#d56c55;stroke:#d56c55;" x="411.1281" xlink:href="#mc185288b95" y="49.678552"/>
     <use style="fill:#d56c55;stroke:#d56c55;" x="413.158725" xlink:href="#mc185288b95" y="47.798793"/>
     <use style="fill:#d56c55;stroke:#d56c55;" x="415.18935" xlink:href="#mc185288b95" y="40.324512"/>
     <use style="fill:#d56c55;stroke:#d56c55;" x="417.219975" xlink:href="#mc185288b95" y="35.938407"/>
     <use style="fill:#d56c55;stroke:#d56c55;" x="419.2506" xlink:href="#mc185288b95" y="39.787438"/>
     <use style="fill:#d56c55;stroke:#d56c55;" x="421.281225" xlink:href="#mc185288b95" y="47.888306"/>
     <use style="fill:#d56c55;stroke:#d56c55;" x="423.31185" xlink:href="#mc185288b95" y="56.391978"/>
     <use style="fill:#d56c55;stroke:#d56c55;" x="425.342475" xlink:href="#mc185288b95" y="62.389306"/>
     <use style="fill:#d56c55;stroke:#d56c55;" x="427.3731" xlink:href="#mc185288b95" y="62.523574"/>
     <use style="fill:#d56c55;stroke:#d56c55;" x="429.403725" xlink:href="#mc185288b95" y="54.780756"/>
    </g>
   </g>
   <g id="patch_13">
    <path d="M 323.73 112.74 
L 323.73 23.227654 
" style="fill:none;stroke:#ffffff;stroke-linecap:square;stroke-linejoin:miter;stroke-width:0.8;"/>
   </g>
   <g id="patch_14">
    <path d="M 421.2 112.74 
L 421.2 23.227654 
" style="fill:none;stroke:#ffffff;stroke-linecap:square;stroke-linejoin:miter;stroke-width:0.8;"/>
   </g>
   <g id="patch_15">
    <path d="M 323.73 112.74 
L 421.2 112.74 
" style="fill:none;stroke:#ffffff;stroke-linecap:square;stroke-linejoin:miter;stroke-width:0.8;"/>
   </g>
   <g id="patch_16">
    <path d="M 323.73 23.227654 
L 421.2 23.227654 
" style="fill:none;stroke:#ffffff;stroke-linecap:square;stroke-linejoin:miter;stroke-width:0.8;"/>
   </g>
  </g>
  <g id="axes_4">
   <g id="patch_17">
    <path d="M 39.09 19.627654 
L 136.56 19.627654 
L 136.56 12.466667 
L 39.09 12.466667 
z
" style="fill:#ffedce;"/>
   </g>
   <g id="text_38">
    <!-- historical trend -->
    <defs>
     <path d="M 9.625 0 
L 9.625 77.09375 
L 19.234375 77.09375 
L 19.234375 43.0625 
Q 26.859375 54.203125 37.890625 54.203125 
Q 44.828125 54.203125 48.90625 49.828125 
Q 52.984375 45.453125 52.984375 38.09375 
L 52.984375 0 
L 43.359375 0 
L 43.359375 34.96875 
Q 43.359375 40.875 41.625 43.390625 
Q 39.890625 45.90625 35.890625 45.90625 
Q 27.046875 45.90625 19.234375 34.328125 
L 19.234375 0 
z
" id="LucidaSansUnicode-104"/>
     <path d="M 7.671875 1.859375 
L 7.671875 10.6875 
Q 17.09375 6 24.078125 6 
Q 28.21875 6 30.953125 8.25 
Q 33.6875 10.5 33.6875 13.875 
Q 33.6875 18.796875 26.03125 22.015625 
L 20.40625 24.421875 
Q 7.953125 29.59375 7.953125 39.3125 
Q 7.953125 46.234375 12.859375 50.21875 
Q 17.78125 54.203125 26.3125 54.203125 
Q 30.765625 54.203125 37.3125 52.984375 
L 39.3125 52.59375 
L 39.3125 44.578125 
Q 31.25 46.96875 26.46875 46.96875 
Q 22.265625 46.96875 19.75 45.140625 
Q 17.234375 43.3125 17.234375 40.234375 
Q 17.234375 35.890625 24.265625 32.90625 
L 28.90625 30.953125 
Q 36.765625 27.640625 40.03125 23.953125 
Q 43.3125 20.265625 43.3125 14.75 
Q 43.3125 7.765625 37.796875 3.265625 
Q 32.28125 -1.21875 23.6875 -1.21875 
Q 17.09375 -1.21875 7.671875 1.859375 
z
" id="LucidaSansUnicode-115"/>
     <path d="M 9.625 0 
L 9.625 77.09375 
L 19.234375 77.09375 
L 19.234375 0 
z
" id="LucidaSansUnicode-108"/>
     <path d="M 43.65625 0 
L 43.65625 9.96875 
Q 37.796875 -1.21875 25.984375 -1.21875 
Q 16.40625 -1.21875 10.90625 5.765625 
Q 5.421875 12.75 5.421875 24.859375 
Q 5.421875 38.09375 11.640625 46.140625 
Q 17.875 54.203125 28.03125 54.203125 
Q 37.453125 54.203125 43.65625 46.96875 
L 43.65625 77.09375 
L 53.328125 77.09375 
L 53.328125 0 
z
M 43.65625 40.375 
Q 36.1875 46.96875 29.5 46.96875 
Q 22.90625 46.96875 19.28125 41.453125 
Q 15.671875 35.9375 15.671875 25.828125 
Q 15.671875 7.234375 27.984375 7.234375 
Q 35.984375 7.234375 43.65625 15.96875 
z
" id="LucidaSansUnicode-100"/>
    </defs>
    <g transform="translate(65.725781 17.781535)scale(0.06 -0.06)">
     <use xlink:href="#LucidaSansUnicode-104"/>
     <use x="62.060547" xlink:href="#LucidaSansUnicode-105"/>
     <use x="90.966797" xlink:href="#LucidaSansUnicode-115"/>
     <use x="141.943359" xlink:href="#LucidaSansUnicode-116"/>
     <use x="179.345703" xlink:href="#LucidaSansUnicode-111"/>
     <use x="240.771484" xlink:href="#LucidaSansUnicode-114"/>
     <use x="281.689453" xlink:href="#LucidaSansUnicode-105"/>
     <use x="310.595703" xlink:href="#LucidaSansUnicode-99"/>
     <use x="361.816406" xlink:href="#LucidaSansUnicode-97"/>
     <use x="417.041016" xlink:href="#LucidaSansUnicode-108"/>
     <use x="445.947266" xlink:href="#LucidaSansUnicode-32"/>
     <use x="477.587891" xlink:href="#LucidaSansUnicode-116"/>
     <use x="514.990234" xlink:href="#LucidaSansUnicode-114"/>
     <use x="555.908203" xlink:href="#LucidaSansUnicode-101"/>
     <use x="611.621094" xlink:href="#LucidaSansUnicode-110"/>
     <use x="673.681641" xlink:href="#LucidaSansUnicode-100"/>
    </g>
   </g>
  </g>
  <g id="axes_5">
   <g id="patch_18">
    <path d="M 181.41 19.627654 
L 278.88 19.627654 
L 278.88 12.466667 
L 181.41 12.466667 
z
" style="fill:#ffedce;"/>
   </g>
   <g id="text_39">
    <!-- modern trend -->
    <g transform="translate(210.131719 17.781535)scale(0.06 -0.06)">
     <use xlink:href="#LucidaSansUnicode-109"/>
     <use x="93.359375" xlink:href="#LucidaSansUnicode-111"/>
     <use x="154.785156" xlink:href="#LucidaSansUnicode-100"/>
     <use x="217.724609" xlink:href="#LucidaSansUnicode-101"/>
     <use x="273.4375" xlink:href="#LucidaSansUnicode-114"/>
     <use x="314.355469" xlink:href="#LucidaSansUnicode-110"/>
     <use x="376.416016" xlink:href="#LucidaSansUnicode-32"/>
     <use x="408.056641" xlink:href="#LucidaSansUnicode-116"/>
     <use x="445.458984" xlink:href="#LucidaSansUnicode-114"/>
     <use x="486.376953" xlink:href="#LucidaSansUnicode-101"/>
     <use x="542.089844" xlink:href="#LucidaSansUnicode-110"/>
     <use x="604.150391" xlink:href="#LucidaSansUnicode-100"/>
    </g>
   </g>
  </g>
  <g id="axes_6">
   <g id="patch_19">
    <path d="M 323.73 19.627654 
L 421.2 19.627654 
L 421.2 12.466667 
L 323.73 12.466667 
z
" style="fill:#ffedce;"/>
   </g>
   <g id="text_40">
    <!-- seasonal trend -->
    <g transform="translate(351.128906 17.781535)scale(0.06 -0.06)">
     <use xlink:href="#LucidaSansUnicode-115"/>
     <use x="50.976562" xlink:href="#LucidaSansUnicode-101"/>
     <use x="106.689453" xlink:href="#LucidaSansUnicode-97"/>
     <use x="161.914062" xlink:href="#LucidaSansUnicode-115"/>
     <use x="212.890625" xlink:href="#LucidaSansUnicode-111"/>
     <use x="274.316406" xlink:href="#LucidaSansUnicode-110"/>
     <use x="336.376953" xlink:href="#LucidaSansUnicode-97"/>
     <use x="391.601562" xlink:href="#LucidaSansUnicode-108"/>
     <use x="420.507812" xlink:href="#LucidaSansUnicode-32"/>
     <use x="452.148438" xlink:href="#LucidaSansUnicode-116"/>
     <use x="489.550781" xlink:href="#LucidaSansUnicode-114"/>
     <use x="530.46875" xlink:href="#LucidaSansUnicode-101"/>
     <use x="586.181641" xlink:href="#LucidaSansUnicode-110"/>
     <use x="648.242188" xlink:href="#LucidaSansUnicode-100"/>
    </g>
   </g>
  </g>
 </g>
 <defs>
  <clipPath id="p57f031cbfc">
   <rect height="89.512346" width="97.47" x="39.09" y="23.227654"/>
  </clipPath>
  <clipPath id="p1ff886d950">
   <rect height="89.512346" width="97.47" x="181.41" y="23.227654"/>
  </clipPath>
  <clipPath id="p5c39af7b86">
   <rect height="89.512346" width="97.47" x="323.73" y="23.227654"/>
  </clipPath>
 </defs>
</svg>
