<?xml version="1.0" encoding="utf-8" standalone="no"?>
<!DOCTYPE svg PUBLIC "-//W3C//DTD SVG 1.1//EN"
  "http://www.w3.org/Graphics/SVG/1.1/DTD/svg11.dtd">
<!-- Created with matplotlib (https://matplotlib.org/) -->
<svg height="144pt" version="1.1" viewBox="0 0 432 144" width="432pt" xmlns="http://www.w3.org/2000/svg" xmlns:xlink="http://www.w3.org/1999/xlink">
 <defs>
  <style type="text/css">
*{stroke-linecap:butt;stroke-linejoin:round;}
  </style>
 </defs>
 <g id="figure_1">
  <g id="patch_1">
   <path d="M 0 144 
L 432 144 
L 432 0 
L 0 0 
z
" style="fill:#ffffff;"/>
  </g>
  <g id="axes_1">
   <g id="patch_2">
    <path d="M 38.55 115.7 
L 136.65 115.7 
L 136.65 22.835802 
L 38.55 22.835802 
z
" style="fill:#e3dcd0;"/>
   </g>
   <g id="matplotlib.axis_1">
    <g id="xtick_1">
     <g id="text_1">
      <!-- 0 -->
      <defs>
       <path d="M 31.640625 -1.8125 
Q 20.265625 -1.8125 13.296875 8.609375 
Q 6.34375 19.046875 6.34375 36.140625 
Q 6.34375 53.21875 13.296875 63.640625 
Q 20.265625 74.078125 31.640625 74.078125 
Q 43.0625 74.078125 50 63.671875 
Q 56.9375 53.265625 56.9375 36.140625 
Q 56.9375 19.046875 50 8.609375 
Q 43.0625 -1.8125 31.640625 -1.8125 
z
M 31.640625 5.421875 
Q 46.734375 5.421875 46.734375 36.140625 
Q 46.734375 66.84375 31.640625 66.84375 
Q 16.609375 66.84375 16.609375 36.140625 
Q 16.609375 5.421875 31.640625 5.421875 
z
" id="LucidaSansUnicode-48"/>
      </defs>
      <g transform="translate(41.067901 123.825625)scale(0.06 -0.06)">
       <use xlink:href="#LucidaSansUnicode-48"/>
      </g>
     </g>
    </g>
    <g id="xtick_2">
     <g id="text_2">
      <!-- 500 -->
      <defs>
       <path d="M 12.15625 -0.296875 
L 12.15625 8.296875 
Q 19.34375 5.421875 25.828125 5.421875 
Q 32.953125 5.421875 37.03125 9.609375 
Q 41.109375 13.8125 41.109375 21.1875 
Q 41.109375 29.109375 35.34375 33.28125 
Q 29.59375 37.453125 18.703125 37.453125 
Q 16.15625 37.453125 13.375 37.109375 
L 13.375 72.265625 
L 49.953125 72.265625 
L 49.953125 63.875 
L 21.828125 63.875 
L 21.828125 44.828125 
Q 35.75 44.828125 43.5625 38.421875 
Q 51.375 32.03125 51.375 20.703125 
Q 51.375 10.15625 44.265625 4.171875 
Q 37.15625 -1.8125 24.65625 -1.8125 
Q 19.09375 -1.8125 12.15625 -0.296875 
z
" id="LucidaSansUnicode-53"/>
      </defs>
      <g transform="translate(59.3531 123.825625)scale(0.06 -0.06)">
       <use xlink:href="#LucidaSansUnicode-53"/>
       <use x="63.232422" xlink:href="#LucidaSansUnicode-48"/>
       <use x="126.464844" xlink:href="#LucidaSansUnicode-48"/>
      </g>
     </g>
    </g>
    <g id="xtick_3">
     <g id="text_3">
      <!-- 1000 -->
      <defs>
       <path d="M 26.171875 0 
L 26.171875 65.046875 
L 14.75 65.046875 
L 14.75 71.09375 
L 35.84375 72.90625 
L 35.84375 0 
z
" id="LucidaSansUnicode-49"/>
      </defs>
      <g transform="translate(79.535331 123.825625)scale(0.06 -0.06)">
       <use xlink:href="#LucidaSansUnicode-49"/>
       <use x="63.232422" xlink:href="#LucidaSansUnicode-48"/>
       <use x="126.464844" xlink:href="#LucidaSansUnicode-48"/>
       <use x="189.697266" xlink:href="#LucidaSansUnicode-48"/>
      </g>
     </g>
    </g>
    <g id="xtick_4">
     <g id="text_4">
      <!-- 1500 -->
      <g transform="translate(101.614593 123.825625)scale(0.06 -0.06)">
       <use xlink:href="#LucidaSansUnicode-49"/>
       <use x="63.232422" xlink:href="#LucidaSansUnicode-53"/>
       <use x="126.464844" xlink:href="#LucidaSansUnicode-48"/>
       <use x="189.697266" xlink:href="#LucidaSansUnicode-48"/>
      </g>
     </g>
    </g>
    <g id="xtick_5">
     <g id="text_5">
      <!-- 2000 -->
      <defs>
       <path d="M 8.296875 0 
L 8.296875 8.453125 
Q 12.5 18.265625 25.296875 29.828125 
L 30.8125 34.765625 
Q 41.453125 44.390625 41.453125 53.859375 
Q 41.453125 59.90625 37.8125 63.375 
Q 34.1875 66.84375 27.78125 66.84375 
Q 20.3125 66.84375 10.109375 61.03125 
L 10.109375 69.53125 
Q 19.734375 74.078125 29.25 74.078125 
Q 39.40625 74.078125 45.53125 68.609375 
Q 51.65625 63.140625 51.65625 54.109375 
Q 51.65625 47.609375 48.546875 42.578125 
Q 45.453125 37.546875 37.015625 30.375 
L 33.296875 27.203125 
Q 21.734375 17.390625 19.921875 8.453125 
L 51.3125 8.453125 
L 51.3125 0 
z
" id="LucidaSansUnicode-50"/>
      </defs>
      <g transform="translate(123.693854 123.825625)scale(0.06 -0.06)">
       <use xlink:href="#LucidaSansUnicode-50"/>
       <use x="63.232422" xlink:href="#LucidaSansUnicode-48"/>
       <use x="126.464844" xlink:href="#LucidaSansUnicode-48"/>
       <use x="189.697266" xlink:href="#LucidaSansUnicode-48"/>
      </g>
     </g>
    </g>
    <g id="text_6">
     <!-- year [C.E.] -->
     <defs>
      <path d="M 12.703125 -19.28125 
L 21.296875 0 
L 0.78125 53.03125 
L 11.1875 53.03125 
L 26.375 13.09375 
L 42.578125 53.03125 
L 51.65625 53.03125 
L 22.703125 -19.28125 
z
" id="LucidaSansUnicode-121"/>
      <path d="M 48.484375 1.703125 
Q 38.8125 -1.21875 31.9375 -1.21875 
Q 20.171875 -1.21875 12.796875 6.5625 
Q 5.421875 14.359375 5.421875 26.765625 
Q 5.421875 38.8125 11.9375 46.53125 
Q 18.453125 54.25 28.609375 54.25 
Q 38.234375 54.25 43.484375 47.390625 
Q 48.734375 40.53125 48.734375 27.9375 
L 48.6875 25 
L 15.234375 25 
Q 17.328125 6.109375 33.734375 6.109375 
Q 39.75 6.109375 48.484375 9.328125 
z
M 15.671875 32.234375 
L 39.0625 32.234375 
Q 39.0625 47.015625 28.03125 47.015625 
Q 16.9375 47.015625 15.671875 32.234375 
z
" id="LucidaSansUnicode-101"/>
      <path d="M 36.96875 6.734375 
Q 28.328125 -1.21875 20.3125 -1.21875 
Q 13.71875 -1.21875 9.375 2.90625 
Q 5.03125 7.03125 5.03125 13.328125 
Q 5.03125 22.015625 12.328125 26.671875 
Q 19.625 31.34375 33.296875 31.34375 
L 35.546875 31.34375 
L 35.546875 37.75 
Q 35.546875 46.96875 25.921875 46.96875 
Q 18.453125 46.96875 9.625 42.28125 
L 9.625 50.25 
Q 19.34375 54.203125 27.9375 54.203125 
Q 36.765625 54.203125 40.96875 50.171875 
Q 45.171875 46.140625 45.171875 37.75 
L 45.171875 13.71875 
Q 45.171875 5.46875 50.25 5.46875 
Q 50.875 5.46875 52.09375 5.671875 
L 52.78125 0.34375 
Q 49.515625 -1.21875 45.5625 -1.21875 
Q 38.8125 -1.21875 36.96875 6.734375 
z
M 35.546875 11.96875 
L 35.546875 25.6875 
L 32.46875 25.78125 
Q 24.46875 25.78125 19.5625 22.796875 
Q 14.65625 19.828125 14.65625 14.890625 
Q 14.65625 11.421875 17.09375 9.03125 
Q 19.53125 6.640625 23.046875 6.640625 
Q 29.046875 6.640625 35.546875 11.96875 
z
" id="LucidaSansUnicode-97"/>
      <path d="M 9.625 0 
L 9.625 53.03125 
L 19.234375 53.03125 
L 19.234375 43.0625 
Q 24.953125 54.203125 35.84375 54.203125 
Q 37.3125 54.203125 38.921875 53.953125 
L 38.921875 44.96875 
Q 36.421875 45.796875 34.515625 45.796875 
Q 25.390625 45.796875 19.234375 34.96875 
L 19.234375 0 
z
" id="LucidaSansUnicode-114"/>
      <path id="LucidaSansUnicode-32"/>
      <path d="M 9.625 -14.453125 
L 9.625 77.09375 
L 28.90625 77.09375 
L 28.90625 69.875 
L 18.0625 69.875 
L 18.0625 -7.234375 
L 28.90625 -7.234375 
L 28.90625 -14.453125 
z
" id="LucidaSansUnicode-91"/>
      <path d="M 63.625 3.71875 
Q 52.9375 -1.8125 40.28125 -1.8125 
Q 23.4375 -1.8125 14.25 8.046875 
Q 5.078125 17.921875 5.078125 36.078125 
Q 5.078125 54.203125 14.421875 64.140625 
Q 23.78125 74.078125 40.828125 74.078125 
Q 50.484375 74.078125 63.53125 70.90625 
L 63.53125 61.28125 
Q 48.6875 66.40625 40.625 66.40625 
Q 28.859375 66.40625 22.40625 58.4375 
Q 15.96875 50.484375 15.96875 35.984375 
Q 15.96875 22.125 22.84375 14.15625 
Q 29.734375 6.203125 41.703125 6.203125 
Q 51.90625 6.203125 63.625 12.5 
z
" id="LucidaSansUnicode-67"/>
      <path d="M 9.765625 0 
L 9.765625 12.0625 
L 21.828125 12.0625 
L 21.828125 0 
z
" id="LucidaSansUnicode-46"/>
      <path d="M 9.328125 0 
L 9.328125 72.265625 
L 49.703125 72.265625 
L 49.703125 64.59375 
L 19.578125 64.59375 
L 19.578125 41.40625 
L 44.828125 41.40625 
L 44.828125 33.84375 
L 19.578125 33.84375 
L 19.578125 7.671875 
L 51.8125 7.671875 
L 51.8125 0 
z
" id="LucidaSansUnicode-69"/>
      <path d="M 22.90625 77.09375 
L 22.90625 -14.453125 
L 3.609375 -14.453125 
L 3.609375 -7.234375 
L 14.453125 -7.234375 
L 14.453125 69.875 
L 3.609375 69.875 
L 3.609375 77.09375 
z
" id="LucidaSansUnicode-93"/>
     </defs>
     <g style="fill:#262626;" transform="translate(72.976406 133.608125)scale(0.06 -0.06)">
      <use xlink:href="#LucidaSansUnicode-121"/>
      <use x="52.246094" xlink:href="#LucidaSansUnicode-101"/>
      <use x="107.958984" xlink:href="#LucidaSansUnicode-97"/>
      <use x="163.183594" xlink:href="#LucidaSansUnicode-114"/>
      <use x="204.101562" xlink:href="#LucidaSansUnicode-32"/>
      <use x="235.742188" xlink:href="#LucidaSansUnicode-91"/>
      <use x="268.261719" xlink:href="#LucidaSansUnicode-67"/>
      <use x="337.451172" xlink:href="#LucidaSansUnicode-46"/>
      <use x="369.091797" xlink:href="#LucidaSansUnicode-69"/>
      <use x="423.291016" xlink:href="#LucidaSansUnicode-46"/>
      <use x="454.931641" xlink:href="#LucidaSansUnicode-93"/>
     </g>
    </g>
   </g>
   <g id="matplotlib.axis_2">
    <g id="ytick_1">
     <g id="text_7">
      <!-- 275 -->
      <defs>
       <path d="M 15.046875 0 
Q 16.453125 8.453125 19.0625 14.59375 
Q 21.6875 20.75 28.328125 31.5 
L 48.046875 63.234375 
L 10.84375 63.234375 
L 10.84375 72.265625 
L 57.234375 72.265625 
L 57.234375 63.234375 
Q 29.4375 22.265625 26.125 0 
z
" id="LucidaSansUnicode-55"/>
      </defs>
      <g transform="translate(23.667813 111.817744)scale(0.06 -0.06)">
       <use xlink:href="#LucidaSansUnicode-50"/>
       <use x="63.232422" xlink:href="#LucidaSansUnicode-55"/>
       <use x="126.464844" xlink:href="#LucidaSansUnicode-53"/>
      </g>
     </g>
    </g>
    <g id="ytick_2">
     <g id="text_8">
      <!-- 300 -->
      <defs>
       <path d="M 10.15625 0.53125 
L 10.15625 9.515625 
Q 20.453125 5.421875 26.375 5.421875 
Q 33.34375 5.421875 37.671875 9.421875 
Q 42 13.421875 42 19.875 
Q 42 35.109375 20.65625 35.109375 
L 16.84375 35.109375 
L 16.84375 41.609375 
L 20.21875 41.65625 
Q 40.234375 41.65625 40.234375 55.765625 
Q 40.234375 66.84375 26.953125 66.84375 
Q 19.828125 66.84375 11.140625 62.796875 
L 11.140625 71.1875 
Q 19.671875 74.078125 27.59375 74.078125 
Q 38.375 74.078125 44.140625 69.78125 
Q 49.90625 65.484375 49.90625 57.328125 
Q 49.90625 44.578125 34.8125 39.15625 
Q 52.296875 35.109375 52.296875 20.015625 
Q 52.296875 9.8125 45.546875 4 
Q 38.8125 -1.8125 27.046875 -1.8125 
Q 20.359375 -1.8125 10.15625 0.53125 
z
" id="LucidaSansUnicode-51"/>
      </defs>
      <g transform="translate(23.667813 97.303268)scale(0.06 -0.06)">
       <use xlink:href="#LucidaSansUnicode-51"/>
       <use x="63.232422" xlink:href="#LucidaSansUnicode-48"/>
       <use x="126.464844" xlink:href="#LucidaSansUnicode-48"/>
      </g>
     </g>
    </g>
    <g id="ytick_3">
     <g id="text_9">
      <!-- 325 -->
      <g transform="translate(23.667813 82.788792)scale(0.06 -0.06)">
       <use xlink:href="#LucidaSansUnicode-51"/>
       <use x="63.232422" xlink:href="#LucidaSansUnicode-50"/>
       <use x="126.464844" xlink:href="#LucidaSansUnicode-53"/>
      </g>
     </g>
    </g>
    <g id="ytick_4">
     <g id="text_10">
      <!-- 350 -->
      <g transform="translate(23.667813 68.274316)scale(0.06 -0.06)">
       <use xlink:href="#LucidaSansUnicode-51"/>
       <use x="63.232422" xlink:href="#LucidaSansUnicode-53"/>
       <use x="126.464844" xlink:href="#LucidaSansUnicode-48"/>
      </g>
     </g>
    </g>
    <g id="ytick_5">
     <g id="text_11">
      <!-- 375 -->
      <g transform="translate(23.667813 53.75984)scale(0.06 -0.06)">
       <use xlink:href="#LucidaSansUnicode-51"/>
       <use x="63.232422" xlink:href="#LucidaSansUnicode-55"/>
       <use x="126.464844" xlink:href="#LucidaSansUnicode-53"/>
      </g>
     </g>
    </g>
    <g id="ytick_6">
     <g id="text_12">
      <!-- 400 -->
      <defs>
       <path d="M 37.640625 0 
L 37.640625 20.453125 
L 5.125 20.453125 
L 5.125 27.734375 
L 37.640625 72.265625 
L 46.6875 72.265625 
L 46.6875 28.328125 
L 56.34375 28.328125 
L 56.34375 20.453125 
L 46.6875 20.453125 
L 46.6875 0 
z
M 14.546875 28.328125 
L 38.28125 28.328125 
L 38.28125 60.453125 
z
" id="LucidaSansUnicode-52"/>
      </defs>
      <g transform="translate(23.667813 39.245364)scale(0.06 -0.06)">
       <use xlink:href="#LucidaSansUnicode-52"/>
       <use x="63.232422" xlink:href="#LucidaSansUnicode-48"/>
       <use x="126.464844" xlink:href="#LucidaSansUnicode-48"/>
      </g>
     </g>
    </g>
    <g id="ytick_7">
     <g id="text_13">
      <!-- 425 -->
      <g transform="translate(23.667813 24.730888)scale(0.06 -0.06)">
       <use xlink:href="#LucidaSansUnicode-52"/>
       <use x="63.232422" xlink:href="#LucidaSansUnicode-50"/>
       <use x="126.464844" xlink:href="#LucidaSansUnicode-53"/>
      </g>
     </g>
    </g>
    <g id="text_14">
     <!-- CO$_2$ concentration [ppm] -->
     <defs>
      <path d="M 38.875 -1.8125 
Q 23.484375 -1.8125 14.28125 8.515625 
Q 5.078125 18.84375 5.078125 36.140625 
Q 5.078125 53.421875 14.28125 63.75 
Q 23.484375 74.078125 38.875 74.078125 
Q 54.25 74.078125 63.453125 63.75 
Q 72.65625 53.421875 72.65625 36.140625 
Q 72.65625 18.84375 63.453125 8.515625 
Q 54.25 -1.8125 38.875 -1.8125 
z
M 38.875 5.859375 
Q 49.65625 5.859375 55.703125 13.890625 
Q 61.765625 21.921875 61.765625 36.234375 
Q 61.765625 50.4375 55.703125 58.421875 
Q 49.65625 66.40625 38.875 66.40625 
Q 28.078125 66.40625 22.015625 58.421875 
Q 15.96875 50.4375 15.96875 36.234375 
Q 15.96875 21.921875 22.015625 13.890625 
Q 28.078125 5.859375 38.875 5.859375 
z
" id="LucidaSansUnicode-79"/>
      <path d="M 46.90625 7.09375 
L 44 0 
L 3.5 0 
L 3.5 2.09375 
L 21 23.5 
L 21 23.40625 
L 26.59375 30.203125 
Q 30.5 34.90625 32.09375 36.953125 
Q 33.703125 39 35.203125 41.953125 
Q 36.703125 44.90625 36.703125 47.5 
Q 36.703125 53.703125 33.34375 57.09375 
Q 30 60.5 24.203125 60.5 
Q 19.59375 60.5 15.75 56.703125 
Q 11.90625 52.90625 10.90625 45.90625 
L 3.703125 47.59375 
Q 5.296875 56.5 11.1875 62.046875 
Q 17.09375 67.59375 24.90625 67.59375 
Q 33.59375 67.59375 39.09375 62.1875 
Q 44.59375 56.796875 44.59375 49.09375 
Q 44.59375 43.5 42.5 39.453125 
Q 40.40625 35.40625 33.703125 27 
L 17.703125 7.09375 
z
" id="STIXGeneral-Regular-120804"/>
      <path d="M 46.4375 1.609375 
Q 37.109375 -1.21875 30.328125 -1.21875 
Q 19.578125 -1.21875 12.5 6.734375 
Q 5.421875 14.703125 5.421875 26.8125 
Q 5.421875 39.75 12.421875 46.96875 
Q 19.4375 54.203125 31.984375 54.203125 
Q 38.1875 54.203125 45.84375 52.484375 
L 45.84375 44.4375 
Q 37.703125 46.828125 32.5625 46.828125 
Q 25.140625 46.828125 20.703125 41.28125 
Q 16.265625 35.75 16.265625 26.515625 
Q 16.265625 17.578125 20.84375 12.0625 
Q 25.4375 6.546875 32.859375 6.546875 
Q 39.453125 6.546875 46.4375 9.90625 
z
" id="LucidaSansUnicode-99"/>
      <path d="M 30.71875 -1.21875 
Q 19.046875 -1.21875 12.234375 6.25 
Q 5.421875 13.71875 5.421875 26.515625 
Q 5.421875 39.3125 12.234375 46.75 
Q 19.046875 54.203125 30.71875 54.203125 
Q 42.390625 54.203125 49.1875 46.75 
Q 56 39.3125 56 26.515625 
Q 56 13.71875 49.1875 6.25 
Q 42.390625 -1.21875 30.71875 -1.21875 
z
M 30.71875 6 
Q 37.890625 6 41.84375 11.375 
Q 45.796875 16.75 45.796875 26.515625 
Q 45.796875 36.28125 41.84375 41.625 
Q 37.890625 46.96875 30.71875 46.96875 
Q 23.53125 46.96875 19.59375 41.625 
Q 15.671875 36.28125 15.671875 26.515625 
Q 15.671875 16.75 19.59375 11.375 
Q 23.53125 6 30.71875 6 
z
" id="LucidaSansUnicode-111"/>
      <path d="M 9.625 0 
L 9.625 53.03125 
L 19.234375 53.03125 
L 19.234375 43.0625 
Q 26.859375 54.203125 37.890625 54.203125 
Q 44.828125 54.203125 48.90625 49.828125 
Q 52.984375 45.453125 52.984375 38.09375 
L 52.984375 0 
L 43.359375 0 
L 43.359375 34.96875 
Q 43.359375 40.875 41.625 43.390625 
Q 39.890625 45.90625 35.890625 45.90625 
Q 27.046875 45.90625 19.234375 34.328125 
L 19.234375 0 
z
" id="LucidaSansUnicode-110"/>
      <path d="M 33.25 0 
Q 28.8125 -1.21875 25.53125 -1.21875 
Q 18.21875 -1.21875 14.109375 2.96875 
Q 10.015625 7.171875 10.015625 14.65625 
L 10.015625 45.796875 
L 3.375 45.796875 
L 3.375 53.03125 
L 10.015625 53.03125 
L 10.015625 62.640625 
L 19.625 63.578125 
L 19.625 53.03125 
L 33.5 53.03125 
L 33.5 45.796875 
L 19.625 45.796875 
L 19.625 16.40625 
Q 19.625 6 28.609375 6 
Q 30.515625 6 33.25 6.640625 
z
" id="LucidaSansUnicode-116"/>
      <path d="M 9.625 0 
L 9.625 53.03125 
L 19.234375 53.03125 
L 19.234375 0 
z
M 9.625 62.640625 
L 9.625 72.265625 
L 19.234375 72.265625 
L 19.234375 62.640625 
z
" id="LucidaSansUnicode-105"/>
      <path d="M 9.625 -19.28125 
L 9.625 53.03125 
L 19.234375 53.03125 
L 19.234375 43.0625 
Q 25.140625 54.203125 36.96875 54.203125 
Q 46.53125 54.203125 52.015625 47.21875 
Q 57.515625 40.234375 57.515625 28.125 
Q 57.515625 14.9375 51.28125 6.859375 
Q 45.0625 -1.21875 34.90625 -1.21875 
Q 25.484375 -1.21875 19.234375 6 
L 19.234375 -19.28125 
z
M 19.234375 12.640625 
Q 26.65625 6 33.40625 6 
Q 40.046875 6 43.65625 11.546875 
Q 47.265625 17.09375 47.265625 27.15625 
Q 47.265625 45.796875 34.96875 45.796875 
Q 26.90625 45.796875 19.234375 37.0625 
z
" id="LucidaSansUnicode-112"/>
      <path d="M 9.625 0 
L 9.625 53.03125 
L 19.234375 53.03125 
L 19.234375 43.0625 
Q 26.265625 54.203125 37.3125 54.203125 
Q 47.953125 54.203125 51.8125 43.0625 
Q 58.640625 54.25 69.578125 54.25 
Q 76.5625 54.25 80.4375 50.125 
Q 84.328125 46 84.328125 38.578125 
L 84.328125 0 
L 74.65625 0 
L 74.65625 37.0625 
Q 74.65625 46.140625 67.484375 46.140625 
Q 60.015625 46.140625 51.8125 35.546875 
L 51.8125 0 
L 42.140625 0 
L 42.140625 37.0625 
Q 42.140625 46.1875 34.8125 46.1875 
Q 27.546875 46.1875 19.234375 35.546875 
L 19.234375 0 
z
" id="LucidaSansUnicode-109"/>
     </defs>
     <g style="fill:#262626;" transform="translate(18.467813 105.267901)rotate(-90)scale(0.06 -0.06)">
      <use transform="translate(0 0.90625)" xlink:href="#LucidaSansUnicode-67"/>
      <use transform="translate(69.189453 0.90625)" xlink:href="#LucidaSansUnicode-79"/>
      <use transform="translate(147.667695 -12.682812)scale(0.7)" xlink:href="#STIXGeneral-Regular-120804"/>
      <use transform="translate(184.932528 0.90625)" xlink:href="#LucidaSansUnicode-32"/>
      <use transform="translate(216.573153 0.90625)" xlink:href="#LucidaSansUnicode-99"/>
      <use transform="translate(267.793857 0.90625)" xlink:href="#LucidaSansUnicode-111"/>
      <use transform="translate(329.219638 0.90625)" xlink:href="#LucidaSansUnicode-110"/>
      <use transform="translate(391.280185 0.90625)" xlink:href="#LucidaSansUnicode-99"/>
      <use transform="translate(442.500888 0.90625)" xlink:href="#LucidaSansUnicode-101"/>
      <use transform="translate(498.213778 0.90625)" xlink:href="#LucidaSansUnicode-110"/>
      <use transform="translate(560.274325 0.90625)" xlink:href="#LucidaSansUnicode-116"/>
      <use transform="translate(597.676669 0.90625)" xlink:href="#LucidaSansUnicode-114"/>
      <use transform="translate(638.594638 0.90625)" xlink:href="#LucidaSansUnicode-97"/>
      <use transform="translate(693.819247 0.90625)" xlink:href="#LucidaSansUnicode-116"/>
      <use transform="translate(731.221591 0.90625)" xlink:href="#LucidaSansUnicode-105"/>
      <use transform="translate(760.127841 0.90625)" xlink:href="#LucidaSansUnicode-111"/>
      <use transform="translate(821.553622 0.90625)" xlink:href="#LucidaSansUnicode-110"/>
      <use transform="translate(883.614169 0.90625)" xlink:href="#LucidaSansUnicode-32"/>
      <use transform="translate(915.254794 0.90625)" xlink:href="#LucidaSansUnicode-91"/>
      <use transform="translate(947.774325 0.90625)" xlink:href="#LucidaSansUnicode-112"/>
      <use transform="translate(1010.713778 0.90625)" xlink:href="#LucidaSansUnicode-112"/>
      <use transform="translate(1073.653232 0.90625)" xlink:href="#LucidaSansUnicode-109"/>
      <use transform="translate(1167.012607 0.90625)" xlink:href="#LucidaSansUnicode-93"/>
     </g>
    </g>
   </g>
   <g id="line2d_1">
    <path clip-path="url(#p4731c46bd5)" d="M 43.009091 108.517947 
L 43.362359 108.227658 
L 43.494835 108.1696 
L 43.759786 107.995426 
L 43.93642 107.937368 
L 44.157213 107.821252 
L 44.81959 107.87931 
L 45.040383 107.995426 
L 45.305334 108.053484 
L 45.481968 108.111542 
L 46.100188 108.1696 
L 46.232663 108.1696 
L 47.336626 108.111542 
L 47.51326 108.053484 
L 48.263955 107.995426 
L 48.440589 107.937368 
L 48.661382 107.87931 
L 48.926333 107.705136 
L 49.058809 107.647078 
L 49.456235 107.298731 
L 49.544552 107.240673 
L 50.030296 106.77621 
L 50.162772 106.718152 
L 50.471881 106.48592 
L 50.736833 106.427862 
L 50.913467 106.369805 
L 51.487527 106.311747 
L 51.664162 106.253689 
L 51.973271 106.195631 
L 52.238222 106.021457 
L 52.459015 105.963399 
L 52.723966 105.789226 
L 53.739612 105.847283 
L 54.004563 106.021457 
L 54.181197 106.079515 
L 54.446149 106.253689 
L 54.578624 106.311747 
L 54.799417 106.427862 
L 54.976051 106.48592 
L 55.196843 106.602036 
L 56.080014 106.660094 
L 56.256648 106.718152 
L 56.609916 106.77621 
L 56.830709 106.892326 
L 57.051501 106.950384 
L 57.316453 107.124557 
L 57.448928 107.182615 
L 57.802196 107.472905 
L 57.934672 107.530963 
L 58.332099 107.87931 
L 58.420416 107.937368 
L 58.729525 108.1696 
L 58.862001 108.227658 
L 59.082793 108.343773 
L 59.259428 108.401831 
L 59.48022 108.517947 
L 61.423195 108.459889 
L 61.599829 108.401831 
L 63.012902 108.459889 
L 63.189536 108.517947 
L 64.55845 108.576005 
L 64.735084 108.634063 
L 65.088353 108.692121 
L 65.264987 108.750179 
L 65.441621 108.808237 
L 65.662413 108.924352 
L 66.810535 108.866294 
L 67.163803 108.576005 
L 67.296279 108.517947 
L 67.693706 108.1696 
L 67.87034 108.111542 
L 68.091132 107.995426 
L 68.532718 108.053484 
L 68.797669 108.227658 
L 68.974303 108.285715 
L 69.195095 108.401831 
L 69.769156 108.343773 
L 70.034107 108.1696 
L 70.166583 108.111542 
L 70.519851 107.821252 
L 70.652327 107.763194 
L 70.961436 107.530963 
L 71.093912 107.472905 
L 71.314705 107.356789 
L 71.491339 107.298731 
L 71.712131 107.182615 
L 71.977082 107.124557 
L 72.197875 107.008442 
L 72.506985 106.950384 
L 72.683619 106.892326 
L 72.94857 106.834268 
L 73.125204 106.77621 
L 74.008374 106.834268 
L 74.273326 107.008442 
L 74.44996 107.066499 
L 74.714911 107.240673 
L 74.847386 107.298731 
L 75.068179 107.414847 
L 75.288972 107.472905 
L 75.465606 107.530963 
L 78.468385 107.472905 
L 78.645019 107.414847 
L 79.042446 107.356789 
L 79.21908 107.298731 
L 79.484031 107.240673 
L 79.660665 107.182615 
L 80.013934 107.124557 
L 80.190568 107.066499 
L 81.824433 107.124557 
L 82.001067 107.182615 
L 83.944042 107.124557 
L 84.120676 107.066499 
L 84.738896 107.124557 
L 84.91553 107.182615 
L 85.092164 107.240673 
L 85.312956 107.356789 
L 85.577908 107.414847 
L 85.754542 107.472905 
L 86.770188 107.414847 
L 87.079297 107.182615 
L 87.167614 107.124557 
L 88.006626 106.195631 
L 88.448212 106.253689 
L 88.713163 106.427862 
L 90.082077 104.802241 
L 90.347028 104.860299 
L 90.611979 105.034473 
L 90.744455 105.092531 
L 90.965247 105.208647 
L 91.450991 105.150589 
L 91.671784 105.034473 
L 91.804259 104.976415 
L 92.069211 104.802241 
L 92.245845 104.744183 
L 92.466637 104.628067 
L 92.643271 104.57001 
L 92.864064 104.453894 
L 93.349808 104.395836 
L 93.526442 104.337778 
L 96.043478 104.395836 
L 96.26427 104.511952 
L 96.396746 104.57001 
L 96.88249 105.034473 
L 96.970807 105.092531 
L 97.368233 105.440878 
L 97.500709 105.498936 
L 97.721502 105.615052 
L 98.163087 105.556994 
L 98.428038 105.38282 
L 98.692989 105.440878 
L 99.090416 105.789226 
L 99.178733 105.847283 
L 99.532001 106.137573 
L 100.326854 106.079515 
L 101.607452 104.57001 
L 102.093195 105.38282 
L 102.755573 106.834268 
L 103.064683 107.066499 
L 103.550427 107.008442 
L 103.859536 106.77621 
L 103.992012 106.718152 
L 104.256963 106.543978 
L 104.433597 106.48592 
L 104.610231 106.427862 
L 104.875182 106.48592 
L 105.625877 107.298731 
L 105.802511 107.240673 
L 105.934987 106.950384 
L 106.553206 104.860299 
L 106.641523 104.918357 
L 106.862316 105.38282 
L 107.34806 106.369805 
L 107.833803 106.834268 
L 108.098755 106.77621 
L 109.644303 104.918357 
L 109.820937 104.860299 
L 109.997571 104.802241 
L 111.278168 104.860299 
L 112.028863 105.67311 
L 112.249656 105.615052 
L 112.602924 105.324762 
L 112.823717 105.38282 
L 113.000351 105.789226 
L 114.192631 111.4789 
L 114.325106 111.420842 
L 114.545899 110.956379 
L 115.649862 108.285715 
L 116.179764 108.343773 
L 116.577191 108.692121 
L 116.665508 108.750179 
L 116.930459 108.924352 
L 117.460362 108.866294 
L 117.769471 108.634063 
L 118.608483 108.576005 
L 119.403337 107.705136 
L 119.579971 107.763194 
L 119.933239 108.401831 
L 120.109873 108.459889 
L 120.463141 108.517947 
L 120.683934 108.634063 
L 120.904726 108.576005 
L 121.302153 107.87931 
L 121.478787 107.647078 
L 121.69958 107.589021 
L 121.832055 107.240673 
L 122.097007 106.253689 
L 122.58275 104.744183 
L 122.89186 104.163604 
L 123.112653 104.221662 
L 123.465921 104.860299 
L 123.554238 104.802241 
L 124.039982 104.337778 
L 124.216616 104.27972 
L 124.702359 102.654099 
L 124.790677 102.712157 
L 125.011469 103.002446 
L 125.320579 102.944388 
L 125.497213 102.247693 
L 125.806323 101.086535 
L 126.159591 100.447898 
L 126.424542 99.054509 
L 126.733652 97.312772 
L 126.866127 97.254714 
L 126.998603 96.906366 
L 127.484346 94.642108 
L 127.925932 92.435908 
L 128.455834 89.939418 
L 128.764944 88.604086 
L 128.853261 88.662144 
L 128.941578 88.720202 
L 128.985736 88.662144 
L 129.118212 88.313797 
L 129.250687 87.559044 
L 129.383163 86.455944 
L 129.383163 86.455944 
" style="fill:none;stroke:#d56c55;stroke-linecap:round;stroke-width:0.5;"/>
   </g>
   <g id="line2d_2">
    <path clip-path="url(#p4731c46bd5)" d="M 129.438361 85.590881 
L 129.534038 83.56466 
L 129.46412 87.768052 
L 129.545078 85.88117 
L 129.552437 86.810097 
L 129.622355 82.670568 
L 129.648114 84.563256 
L 129.754831 81.770671 
L 129.684913 85.608298 
L 129.76219 82.937635 
L 129.76955 84.911603 
L 129.843148 80.534037 
L 129.868907 82.380279 
L 129.975623 78.46137 
L 129.902026 83.169866 
L 129.986663 80.812715 
L 129.994023 81.759059 
L 130.06394 77.480192 
L 130.089699 78.890999 
L 130.196416 75.268186 
L 130.126498 79.384491 
L 130.207455 77.619531 
L 130.214815 78.548457 
L 130.284733 73.729651 
L 130.306812 76.046161 
L 130.417208 70.896425 
L 130.428248 73.236159 
L 130.431928 74.153474 
L 130.505525 69.444978 
L 130.531285 71.297025 
L 130.638001 66.658198 
L 130.564403 71.744071 
L 130.649041 69.09663 
L 130.6564 70.066197 
L 130.726318 64.94549 
L 130.748397 67.174914 
L 130.858794 61.839392 
L 130.869833 64.272019 
L 130.873513 65.229974 
L 130.947111 60.475032 
L 130.97287 62.634786 
L 131.079586 57.92629 
L 131.005989 63.598547 
L 131.090626 60.335693 
L 131.094306 61.293648 
L 131.167903 56.248416 
L 131.189983 58.669431 
L 131.300379 52.927504 
L 131.311418 55.435606 
L 131.315098 56.410978 
L 131.388696 50.895478 
L 131.410775 53.235211 
L 131.521171 47.05785 
L 131.532211 49.455642 
L 131.535891 50.419403 
L 131.609489 44.700699 
L 131.631568 47.313305 
L 131.741964 41.054663 
L 131.753004 43.562764 
L 131.756684 44.572972 
L 131.830281 38.743958 
L 131.85236 41.147556 
L 131.962757 34.685711 
L 131.973796 37.112531 
L 131.977476 38.053069 
L 132.051074 31.312547 
L 132.069473 34.917943 
L 132.183549 27.056902 
L 132.190909 28.403846 
" style="fill:none;stroke:#d56c55;stroke-linecap:round;stroke-width:0.5;"/>
   </g>
   <g id="patch_3">
    <path d="M 38.55 115.7 
L 38.55 22.835802 
" style="fill:none;stroke:#ffffff;stroke-linecap:square;stroke-linejoin:miter;stroke-width:0.8;"/>
   </g>
   <g id="patch_4">
    <path d="M 136.65 115.7 
L 136.65 22.835802 
" style="fill:none;stroke:#ffffff;stroke-linecap:square;stroke-linejoin:miter;stroke-width:0.8;"/>
   </g>
   <g id="patch_5">
    <path d="M 38.55 115.7 
L 136.65 115.7 
" style="fill:none;stroke:#ffffff;stroke-linecap:square;stroke-linejoin:miter;stroke-width:0.8;"/>
   </g>
   <g id="patch_6">
    <path d="M 38.55 22.835802 
L 136.65 22.835802 
" style="fill:none;stroke:#ffffff;stroke-linecap:square;stroke-linejoin:miter;stroke-width:0.8;"/>
   </g>
  </g>
  <g id="axes_2">
   <g id="patch_7">
    <path d="M 180.825 115.7 
L 278.925 115.7 
L 278.925 22.835802 
L 180.825 22.835802 
z
" style="fill:#e3dcd0;"/>
   </g>
   <g id="matplotlib.axis_3">
    <g id="xtick_6">
     <g id="text_15">
      <!-- 1800 -->
      <defs>
       <path d="M 23 39.359375 
Q 17.046875 43.5 14.71875 47.0625 
Q 12.40625 50.640625 12.40625 55.671875 
Q 12.40625 63.875 18.40625 69 
Q 24.421875 74.125 34.078125 74.125 
Q 43.015625 74.125 48.5625 69.78125 
Q 54.109375 65.4375 54.109375 58.5 
Q 54.109375 48 40.625 39.359375 
Q 56.984375 31.34375 56.984375 18.703125 
Q 56.984375 9.671875 50.140625 3.921875 
Q 43.3125 -1.8125 32.5625 -1.8125 
Q 21.828125 -1.8125 15.234375 3.578125 
Q 8.640625 8.984375 8.640625 17.78125 
Q 8.640625 30.765625 23 39.359375 
z
M 35.25 42.390625 
Q 45.359375 49.03125 45.359375 57.171875 
Q 45.359375 61.53125 41.96875 64.1875 
Q 38.578125 66.84375 33.109375 66.84375 
Q 27.78125 66.84375 24.453125 64.234375 
Q 21.140625 61.625 21.140625 57.46875 
Q 21.140625 53.421875 24.140625 50.1875 
Q 27.15625 46.96875 35.25 42.390625 
z
M 28.21875 35.453125 
Q 22.40625 30.953125 20.328125 27.609375 
Q 18.265625 24.265625 18.265625 19.28125 
Q 18.265625 13.09375 22.265625 9.25 
Q 26.265625 5.421875 32.8125 5.421875 
Q 39.109375 5.421875 43.09375 8.6875 
Q 47.078125 11.96875 47.078125 17.1875 
Q 47.078125 21.390625 44.609375 24.296875 
Q 42.140625 27.203125 35.0625 31.390625 
z
" id="LucidaSansUnicode-56"/>
      </defs>
      <g transform="translate(173.236875 123.825625)scale(0.06 -0.06)">
       <use xlink:href="#LucidaSansUnicode-49"/>
       <use x="63.232422" xlink:href="#LucidaSansUnicode-56"/>
       <use x="126.464844" xlink:href="#LucidaSansUnicode-48"/>
       <use x="189.697266" xlink:href="#LucidaSansUnicode-48"/>
      </g>
     </g>
    </g>
    <g id="xtick_7">
     <g id="text_16">
      <!-- 1850 -->
      <g transform="translate(195.53233 123.825625)scale(0.06 -0.06)">
       <use xlink:href="#LucidaSansUnicode-49"/>
       <use x="63.232422" xlink:href="#LucidaSansUnicode-56"/>
       <use x="126.464844" xlink:href="#LucidaSansUnicode-53"/>
       <use x="189.697266" xlink:href="#LucidaSansUnicode-48"/>
      </g>
     </g>
    </g>
    <g id="xtick_8">
     <g id="text_17">
      <!-- 1900 -->
      <defs>
       <path d="M 11.375 0.4375 
L 11.375 8.59375 
Q 20.5625 5.421875 27 5.421875 
Q 35.984375 5.421875 41.03125 13.0625 
Q 46.09375 20.703125 46.09375 34.328125 
Q 38.765625 25.296875 29.4375 25.296875 
Q 20.3125 25.296875 13.96875 32 
Q 7.625 38.71875 7.625 48.390625 
Q 7.625 59.46875 14.375 66.765625 
Q 21.140625 74.078125 31.390625 74.078125 
Q 43.171875 74.078125 49.953125 64.625 
Q 56.734375 55.171875 56.734375 38.765625 
Q 56.734375 28.328125 53.46875 19.109375 
Q 50.203125 9.90625 44.671875 4.78125 
Q 37.59375 -1.8125 26.078125 -1.8125 
Q 20.40625 -1.8125 11.375 0.4375 
z
M 17.234375 50.046875 
Q 17.234375 41.796875 20.984375 37.015625 
Q 24.75 32.234375 31.15625 32.234375 
Q 37.3125 32.234375 41.625 36.375 
Q 45.953125 40.53125 45.953125 46.390625 
Q 45.953125 55.609375 41.765625 61.25 
Q 37.59375 66.890625 30.8125 66.890625 
Q 24.46875 66.890625 20.84375 62.390625 
Q 17.234375 57.90625 17.234375 50.046875 
z
" id="LucidaSansUnicode-57"/>
      </defs>
      <g transform="translate(217.827784 123.825625)scale(0.06 -0.06)">
       <use xlink:href="#LucidaSansUnicode-49"/>
       <use x="63.232422" xlink:href="#LucidaSansUnicode-57"/>
       <use x="126.464844" xlink:href="#LucidaSansUnicode-48"/>
       <use x="189.697266" xlink:href="#LucidaSansUnicode-48"/>
      </g>
     </g>
    </g>
    <g id="xtick_9">
     <g id="text_18">
      <!-- 1950 -->
      <g transform="translate(240.123239 123.825625)scale(0.06 -0.06)">
       <use xlink:href="#LucidaSansUnicode-49"/>
       <use x="63.232422" xlink:href="#LucidaSansUnicode-57"/>
       <use x="126.464844" xlink:href="#LucidaSansUnicode-53"/>
       <use x="189.697266" xlink:href="#LucidaSansUnicode-48"/>
      </g>
     </g>
    </g>
    <g id="xtick_10">
     <g id="text_19">
      <!-- 2000 -->
      <g transform="translate(262.418693 123.825625)scale(0.06 -0.06)">
       <use xlink:href="#LucidaSansUnicode-50"/>
       <use x="63.232422" xlink:href="#LucidaSansUnicode-48"/>
       <use x="126.464844" xlink:href="#LucidaSansUnicode-48"/>
       <use x="189.697266" xlink:href="#LucidaSansUnicode-48"/>
      </g>
     </g>
    </g>
    <g id="text_20">
     <!-- year [C.E.] -->
     <g style="fill:#262626;" transform="translate(215.251406 133.608125)scale(0.06 -0.06)">
      <use xlink:href="#LucidaSansUnicode-121"/>
      <use x="52.246094" xlink:href="#LucidaSansUnicode-101"/>
      <use x="107.958984" xlink:href="#LucidaSansUnicode-97"/>
      <use x="163.183594" xlink:href="#LucidaSansUnicode-114"/>
      <use x="204.101562" xlink:href="#LucidaSansUnicode-32"/>
      <use x="235.742188" xlink:href="#LucidaSansUnicode-91"/>
      <use x="268.261719" xlink:href="#LucidaSansUnicode-67"/>
      <use x="337.451172" xlink:href="#LucidaSansUnicode-46"/>
      <use x="369.091797" xlink:href="#LucidaSansUnicode-69"/>
      <use x="423.291016" xlink:href="#LucidaSansUnicode-46"/>
      <use x="454.931641" xlink:href="#LucidaSansUnicode-93"/>
     </g>
    </g>
   </g>
   <g id="matplotlib.axis_4">
    <g id="ytick_8">
     <g id="text_21">
      <!-- 275 -->
      <g transform="translate(165.942812 111.817744)scale(0.06 -0.06)">
       <use xlink:href="#LucidaSansUnicode-50"/>
       <use x="63.232422" xlink:href="#LucidaSansUnicode-55"/>
       <use x="126.464844" xlink:href="#LucidaSansUnicode-53"/>
      </g>
     </g>
    </g>
    <g id="ytick_9">
     <g id="text_22">
      <!-- 300 -->
      <g transform="translate(165.942812 97.303268)scale(0.06 -0.06)">
       <use xlink:href="#LucidaSansUnicode-51"/>
       <use x="63.232422" xlink:href="#LucidaSansUnicode-48"/>
       <use x="126.464844" xlink:href="#LucidaSansUnicode-48"/>
      </g>
     </g>
    </g>
    <g id="ytick_10">
     <g id="text_23">
      <!-- 325 -->
      <g transform="translate(165.942812 82.788792)scale(0.06 -0.06)">
       <use xlink:href="#LucidaSansUnicode-51"/>
       <use x="63.232422" xlink:href="#LucidaSansUnicode-50"/>
       <use x="126.464844" xlink:href="#LucidaSansUnicode-53"/>
      </g>
     </g>
    </g>
    <g id="ytick_11">
     <g id="text_24">
      <!-- 350 -->
      <g transform="translate(165.942812 68.274316)scale(0.06 -0.06)">
       <use xlink:href="#LucidaSansUnicode-51"/>
       <use x="63.232422" xlink:href="#LucidaSansUnicode-53"/>
       <use x="126.464844" xlink:href="#LucidaSansUnicode-48"/>
      </g>
     </g>
    </g>
    <g id="ytick_12">
     <g id="text_25">
      <!-- 375 -->
      <g transform="translate(165.942812 53.75984)scale(0.06 -0.06)">
       <use xlink:href="#LucidaSansUnicode-51"/>
       <use x="63.232422" xlink:href="#LucidaSansUnicode-55"/>
       <use x="126.464844" xlink:href="#LucidaSansUnicode-53"/>
      </g>
     </g>
    </g>
    <g id="ytick_13">
     <g id="text_26">
      <!-- 400 -->
      <g transform="translate(165.942812 39.245364)scale(0.06 -0.06)">
       <use xlink:href="#LucidaSansUnicode-52"/>
       <use x="63.232422" xlink:href="#LucidaSansUnicode-48"/>
       <use x="126.464844" xlink:href="#LucidaSansUnicode-48"/>
      </g>
     </g>
    </g>
    <g id="ytick_14">
     <g id="text_27">
      <!-- 425 -->
      <g transform="translate(165.942812 24.730888)scale(0.06 -0.06)">
       <use xlink:href="#LucidaSansUnicode-52"/>
       <use x="63.232422" xlink:href="#LucidaSansUnicode-50"/>
       <use x="126.464844" xlink:href="#LucidaSansUnicode-53"/>
      </g>
     </g>
    </g>
    <g id="text_28">
     <!-- CO$_2$ concentration [ppm] -->
     <g style="fill:#262626;" transform="translate(160.742812 105.267901)rotate(-90)scale(0.06 -0.06)">
      <use transform="translate(0 0.90625)" xlink:href="#LucidaSansUnicode-67"/>
      <use transform="translate(69.189453 0.90625)" xlink:href="#LucidaSansUnicode-79"/>
      <use transform="translate(147.667695 -12.682812)scale(0.7)" xlink:href="#STIXGeneral-Regular-120804"/>
      <use transform="translate(184.932528 0.90625)" xlink:href="#LucidaSansUnicode-32"/>
      <use transform="translate(216.573153 0.90625)" xlink:href="#LucidaSansUnicode-99"/>
      <use transform="translate(267.793857 0.90625)" xlink:href="#LucidaSansUnicode-111"/>
      <use transform="translate(329.219638 0.90625)" xlink:href="#LucidaSansUnicode-110"/>
      <use transform="translate(391.280185 0.90625)" xlink:href="#LucidaSansUnicode-99"/>
      <use transform="translate(442.500888 0.90625)" xlink:href="#LucidaSansUnicode-101"/>
      <use transform="translate(498.213778 0.90625)" xlink:href="#LucidaSansUnicode-110"/>
      <use transform="translate(560.274325 0.90625)" xlink:href="#LucidaSansUnicode-116"/>
      <use transform="translate(597.676669 0.90625)" xlink:href="#LucidaSansUnicode-114"/>
      <use transform="translate(638.594638 0.90625)" xlink:href="#LucidaSansUnicode-97"/>
      <use transform="translate(693.819247 0.90625)" xlink:href="#LucidaSansUnicode-116"/>
      <use transform="translate(731.221591 0.90625)" xlink:href="#LucidaSansUnicode-105"/>
      <use transform="translate(760.127841 0.90625)" xlink:href="#LucidaSansUnicode-111"/>
      <use transform="translate(821.553622 0.90625)" xlink:href="#LucidaSansUnicode-110"/>
      <use transform="translate(883.614169 0.90625)" xlink:href="#LucidaSansUnicode-32"/>
      <use transform="translate(915.254794 0.90625)" xlink:href="#LucidaSansUnicode-91"/>
      <use transform="translate(947.774325 0.90625)" xlink:href="#LucidaSansUnicode-112"/>
      <use transform="translate(1010.713778 0.90625)" xlink:href="#LucidaSansUnicode-112"/>
      <use transform="translate(1073.653232 0.90625)" xlink:href="#LucidaSansUnicode-109"/>
      <use transform="translate(1167.012607 0.90625)" xlink:href="#LucidaSansUnicode-93"/>
     </g>
    </g>
   </g>
   <g id="line2d_3">
    <path clip-path="url(#p843775b67b)" d="M 180.379091 105.208647 
L 183.946364 104.337778 
L 185.73 104.163604 
L 187.513636 104.221662 
L 188.851364 104.511952 
L 191.526818 104.860299 
L 192.864545 104.628067 
L 194.202273 104.337778 
L 195.094091 104.27972 
L 198.661364 104.27972 
L 199.999091 103.641083 
L 201.782727 102.828272 
L 203.566364 102.654099 
L 204.458182 102.712157 
L 205.795909 103.002446 
L 209.809091 102.944388 
L 210.700909 102.654099 
L 212.038636 102.015462 
L 213.822273 101.144593 
L 215.16 101.028477 
L 216.051818 101.028477 
L 218.727273 100.273725 
L 220.956818 99.054509 
L 222.294545 98.125582 
L 223.632273 97.37083 
L 224.524091 97.312772 
L 225.415909 97.254714 
L 226.307727 97.08054 
L 227.645455 96.499961 
L 228.983182 95.745208 
L 229.875 95.396861 
L 230.766818 95.106571 
L 232.550455 94.061529 
L 234.334091 93.016487 
L 238.793182 91.158634 
L 241.022727 90.113592 
L 241.914545 89.649128 
L 244.144091 88.604086 
L 245.481818 88.662144 
L 246.373636 88.720202 
L 247.711364 88.48797 
L 249.049091 87.907391 
L 250.832727 86.455944 
L 250.832727 86.455944 
" style="fill:none;stroke:#d56c55;stroke-linecap:round;stroke-width:0.5;"/>
   </g>
   <g id="line2d_4">
    <path clip-path="url(#p843775b67b)" d="M 251.390114 85.590881 
L 251.464432 84.621314 
L 251.501591 84.981273 
L 251.650227 87.768052 
L 251.687386 87.088775 
L 251.910341 84.162656 
L 251.984659 85.312203 
L 252.058977 87.262948 
L 252.133295 86.548836 
L 252.35625 83.56466 
L 252.430568 84.77807 
L 252.542045 86.810097 
L 252.579205 86.130819 
L 252.802159 83.187284 
L 252.876477 84.348442 
L 252.987955 86.328216 
L 253.025114 85.625716 
L 253.248068 82.670568 
L 253.322386 83.866561 
L 253.433864 85.916005 
L 253.471023 85.230922 
L 253.693977 82.328027 
L 253.768295 83.547243 
L 253.879773 85.608298 
L 253.916932 84.917409 
L 254.139886 82.02032 
L 254.251364 84.4065 
L 254.325682 85.358649 
L 254.362841 84.679372 
L 254.585795 81.770671 
L 254.660114 82.937635 
L 254.734432 84.911603 
L 254.80875 84.156851 
L 255.031705 80.998501 
L 255.106023 82.182882 
L 255.2175 84.214909 
L 255.254659 83.506602 
L 255.477614 80.534037 
L 255.551932 81.753253 
L 255.663409 83.796892 
L 255.700568 83.076974 
L 255.923523 79.999905 
L 255.997841 81.184286 
L 256.072159 83.169866 
L 256.146477 82.386085 
L 256.369432 79.111619 
L 256.44375 80.266971 
L 256.518068 82.275775 
L 256.592386 81.544245 
L 256.815341 78.46137 
L 256.889659 79.680586 
L 257.001136 81.759059 
L 257.038295 81.050753 
L 257.26125 78.083994 
L 257.335568 79.314821 
L 257.447045 81.381683 
L 257.484205 80.655959 
L 257.707159 77.480192 
L 257.781477 78.623932 
L 257.855795 80.557261 
L 257.892955 80.481785 
L 258.153068 76.168083 
L 258.227386 77.311824 
L 258.338864 79.384491 
L 258.376023 78.676185 
L 258.598977 75.726843 
L 258.710455 78.159469 
L 258.784773 79.129036 
L 258.821932 78.403312 
L 259.044886 75.268186 
L 259.119205 76.481596 
L 259.230682 78.548457 
L 259.267841 77.805316 
L 259.490795 74.670189 
L 259.565114 75.918434 
L 259.639432 77.97949 
L 259.71375 77.184096 
L 259.936705 73.729651 
L 259.973864 74.054775 
L 260.085341 76.864778 
L 260.159659 76.046161 
L 260.382614 72.713638 
L 260.456932 73.927048 
L 260.53125 76.005521 
L 260.605568 75.244962 
L 260.828523 71.953079 
L 260.902841 73.143266 
L 260.977159 75.186905 
L 261.051477 74.356676 
L 261.274432 70.896425 
L 261.34875 72.098224 
L 261.423068 74.153474 
L 261.497386 73.363886 
L 261.720341 70.11845 
L 261.794659 71.378306 
L 261.868977 73.491614 
L 261.943295 72.707832 
L 262.16625 69.444978 
L 262.240568 70.716446 
L 262.314886 72.847171 
L 262.389205 72.063389 
L 262.612159 68.550886 
L 262.649318 68.881816 
L 262.760795 71.744071 
L 262.835114 70.913843 
L 263.058068 67.517455 
L 263.132386 68.759895 
L 263.206705 70.855785 
L 263.281023 70.037168 
L 263.503977 66.658198 
L 263.578295 67.918055 
L 263.689773 70.066197 
L 263.726932 69.294027 
L 263.949886 65.955698 
L 264.024205 67.186525 
L 264.098523 69.294027 
L 264.172841 68.475411 
L 264.395795 64.94549 
L 264.432955 65.282226 
L 264.544432 68.10384 
L 264.61875 67.174914 
L 264.841705 63.459208 
L 264.878864 63.813361 
L 264.990341 66.727868 
L 265.064659 65.891834 
L 265.287614 62.536087 
L 265.361932 63.813361 
L 265.43625 65.978921 
L 265.510568 65.189334 
L 265.733523 61.839392 
L 265.807841 63.099249 
L 265.882159 65.229974 
L 265.956477 64.382329 
L 266.179432 60.927883 
L 266.25375 62.245798 
L 266.365227 64.486833 
L 266.402386 63.720469 
L 266.625341 60.475032 
L 266.736818 63.087637 
L 266.811136 64.121068 
L 266.848295 63.372121 
L 267.07125 60.126684 
L 267.145568 61.427181 
L 267.219886 63.598547 
L 267.294205 62.745096 
L 267.517159 59.1397 
L 267.554318 59.505465 
L 267.665795 62.478029 
L 267.740114 61.578132 
L 267.963068 57.92629 
L 268.037386 59.157117 
L 268.111705 61.293648 
L 268.186023 60.42278 
L 268.408977 56.892859 
L 268.483295 58.204968 
L 268.594773 60.42278 
L 268.631932 59.633192 
L 268.854886 56.248416 
L 268.929205 57.508273 
L 269.003523 59.627386 
L 269.040682 59.557717 
L 269.300795 54.675047 
L 269.337955 54.98856 
L 269.449432 57.897261 
L 269.52375 56.985752 
L 269.746705 53.531306 
L 269.821023 54.889861 
L 269.9325 57.165731 
L 269.969659 56.364532 
L 270.192614 52.927504 
L 270.266932 54.228001 
L 270.34125 56.410978 
L 270.415568 55.534304 
L 270.638523 52.015995 
L 270.712841 53.304881 
L 270.787159 55.499469 
L 270.861477 54.611183 
L 271.084432 50.895478 
L 271.121591 51.243825 
L 271.233068 54.204778 
L 271.307386 53.235211 
L 271.530341 49.368555 
L 271.5675 49.722708 
L 271.678977 52.759136 
L 271.753295 51.865045 
L 271.97625 48.282872 
L 272.050568 49.618204 
L 272.124886 51.83021 
L 272.199205 50.912895 
L 272.422159 47.05785 
L 272.459318 47.406198 
L 272.570795 50.419403 
L 272.645114 49.478865 
L 272.868068 45.751547 
L 272.942386 47.046239 
L 273.016705 49.281468 
L 273.091023 48.393182 
L 273.313977 44.700699 
L 273.388295 45.989585 
L 273.462614 48.207397 
L 273.536932 47.313305 
L 273.759886 43.626628 
L 273.834205 44.921319 
L 273.908523 47.133325 
L 273.982841 46.227622 
L 274.205795 42.500305 
L 274.242955 42.877681 
L 274.354432 45.95475 
L 274.42875 44.985183 
L 274.651705 41.054663 
L 274.688864 41.432039 
L 274.800341 44.572972 
L 274.874659 43.673074 
L 275.097614 40.009621 
L 275.171932 41.310118 
L 275.24625 43.545347 
L 275.320568 42.616421 
L 275.543523 38.743958 
L 275.580682 39.115529 
L 275.692159 42.163569 
L 275.766477 41.147556 
L 275.989432 37.170589 
L 276.026591 37.54216 
L 276.138068 40.677287 
L 276.212386 39.736749 
L 276.435341 35.933956 
L 276.509659 37.25187 
L 276.583977 39.52774 
L 276.658295 38.598814 
L 276.88125 34.685711 
L 276.918409 35.039864 
L 277.029886 38.053069 
L 277.104205 36.961581 
L 277.327159 32.694325 
L 277.364318 33.06009 
L 277.475795 36.166187 
L 277.550114 35.173397 
L 277.773068 31.312547 
L 277.847386 32.642073 
L 277.921705 34.952777 
L 277.996023 34.035462 
L 278.218977 30.197835 
L 278.256136 30.5636 
L 278.367614 33.640669 
L 278.441932 32.584015 
L 278.664886 28.473515 
L 278.702045 28.845086 
L 278.813523 31.991824 
L 278.887841 30.999034 
L 279.110795 27.056902 
L 279.185114 28.403846 
L 279.185114 28.403846 
" style="fill:none;stroke:#d56c55;stroke-linecap:round;stroke-width:0.5;"/>
   </g>
   <g id="patch_8">
    <path d="M 180.825 115.7 
L 180.825 22.835802 
" style="fill:none;stroke:#ffffff;stroke-linecap:square;stroke-linejoin:miter;stroke-width:0.8;"/>
   </g>
   <g id="patch_9">
    <path d="M 278.925 115.7 
L 278.925 22.835802 
" style="fill:none;stroke:#ffffff;stroke-linecap:square;stroke-linejoin:miter;stroke-width:0.8;"/>
   </g>
   <g id="patch_10">
    <path d="M 180.825 115.7 
L 278.925 115.7 
" style="fill:none;stroke:#ffffff;stroke-linecap:square;stroke-linejoin:miter;stroke-width:0.8;"/>
   </g>
   <g id="patch_11">
    <path d="M 180.825 22.835802 
L 278.925 22.835802 
" style="fill:none;stroke:#ffffff;stroke-linecap:square;stroke-linejoin:miter;stroke-width:0.8;"/>
   </g>
  </g>
  <g id="axes_3">
   <g id="patch_12">
    <path d="M 323.1 115.7 
L 421.2 115.7 
L 421.2 22.835802 
L 323.1 22.835802 
z
" style="fill:#e3dcd0;"/>
   </g>
   <g id="matplotlib.axis_5">
    <g id="xtick_11">
     <g id="text_29">
      <!-- 2017 -->
      <g transform="translate(325.812375 123.825625)scale(0.06 -0.06)">
       <use xlink:href="#LucidaSansUnicode-50"/>
       <use x="63.232422" xlink:href="#LucidaSansUnicode-48"/>
       <use x="126.464844" xlink:href="#LucidaSansUnicode-49"/>
       <use x="189.697266" xlink:href="#LucidaSansUnicode-55"/>
      </g>
     </g>
    </g>
    <g id="xtick_12">
     <g id="text_30">
      <!-- 2018 -->
      <g transform="translate(350.337375 123.825625)scale(0.06 -0.06)">
       <use xlink:href="#LucidaSansUnicode-50"/>
       <use x="63.232422" xlink:href="#LucidaSansUnicode-48"/>
       <use x="126.464844" xlink:href="#LucidaSansUnicode-49"/>
       <use x="189.697266" xlink:href="#LucidaSansUnicode-56"/>
      </g>
     </g>
    </g>
    <g id="xtick_13">
     <g id="text_31">
      <!-- 2019 -->
      <g transform="translate(374.862375 123.825625)scale(0.06 -0.06)">
       <use xlink:href="#LucidaSansUnicode-50"/>
       <use x="63.232422" xlink:href="#LucidaSansUnicode-48"/>
       <use x="126.464844" xlink:href="#LucidaSansUnicode-49"/>
       <use x="189.697266" xlink:href="#LucidaSansUnicode-57"/>
      </g>
     </g>
    </g>
    <g id="xtick_14">
     <g id="text_32">
      <!-- 2020 -->
      <g transform="translate(399.387375 123.825625)scale(0.06 -0.06)">
       <use xlink:href="#LucidaSansUnicode-50"/>
       <use x="63.232422" xlink:href="#LucidaSansUnicode-48"/>
       <use x="126.464844" xlink:href="#LucidaSansUnicode-50"/>
       <use x="189.697266" xlink:href="#LucidaSansUnicode-48"/>
      </g>
     </g>
    </g>
    <g id="text_33">
     <!-- year [C.E.] -->
     <g style="fill:#262626;" transform="translate(357.526406 133.608125)scale(0.06 -0.06)">
      <use xlink:href="#LucidaSansUnicode-121"/>
      <use x="52.246094" xlink:href="#LucidaSansUnicode-101"/>
      <use x="107.958984" xlink:href="#LucidaSansUnicode-97"/>
      <use x="163.183594" xlink:href="#LucidaSansUnicode-114"/>
      <use x="204.101562" xlink:href="#LucidaSansUnicode-32"/>
      <use x="235.742188" xlink:href="#LucidaSansUnicode-91"/>
      <use x="268.261719" xlink:href="#LucidaSansUnicode-67"/>
      <use x="337.451172" xlink:href="#LucidaSansUnicode-46"/>
      <use x="369.091797" xlink:href="#LucidaSansUnicode-69"/>
      <use x="423.291016" xlink:href="#LucidaSansUnicode-46"/>
      <use x="454.931641" xlink:href="#LucidaSansUnicode-93"/>
     </g>
    </g>
   </g>
   <g id="matplotlib.axis_6">
    <g id="ytick_15">
     <g id="text_34">
      <!-- 400 -->
      <g transform="translate(308.217812 118.012813)scale(0.06 -0.06)">
       <use xlink:href="#LucidaSansUnicode-52"/>
       <use x="63.232422" xlink:href="#LucidaSansUnicode-48"/>
       <use x="126.464844" xlink:href="#LucidaSansUnicode-48"/>
      </g>
     </g>
    </g>
    <g id="ytick_16">
     <g id="text_35">
      <!-- 405 -->
      <g transform="translate(308.217812 94.796763)scale(0.06 -0.06)">
       <use xlink:href="#LucidaSansUnicode-52"/>
       <use x="63.232422" xlink:href="#LucidaSansUnicode-48"/>
       <use x="126.464844" xlink:href="#LucidaSansUnicode-53"/>
      </g>
     </g>
    </g>
    <g id="ytick_17">
     <g id="text_36">
      <!-- 410 -->
      <g transform="translate(308.217812 71.580714)scale(0.06 -0.06)">
       <use xlink:href="#LucidaSansUnicode-52"/>
       <use x="63.232422" xlink:href="#LucidaSansUnicode-49"/>
       <use x="126.464844" xlink:href="#LucidaSansUnicode-48"/>
      </g>
     </g>
    </g>
    <g id="ytick_18">
     <g id="text_37">
      <!-- 415 -->
      <g transform="translate(308.217812 48.364664)scale(0.06 -0.06)">
       <use xlink:href="#LucidaSansUnicode-52"/>
       <use x="63.232422" xlink:href="#LucidaSansUnicode-49"/>
       <use x="126.464844" xlink:href="#LucidaSansUnicode-53"/>
      </g>
     </g>
    </g>
    <g id="ytick_19">
     <g id="text_38">
      <!-- 420 -->
      <g transform="translate(308.217812 25.148615)scale(0.06 -0.06)">
       <use xlink:href="#LucidaSansUnicode-52"/>
       <use x="63.232422" xlink:href="#LucidaSansUnicode-50"/>
       <use x="126.464844" xlink:href="#LucidaSansUnicode-48"/>
      </g>
     </g>
    </g>
    <g id="text_39">
     <!-- CO$_2$ concentration [ppm] -->
     <g style="fill:#262626;" transform="translate(303.017812 105.267901)rotate(-90)scale(0.06 -0.06)">
      <use transform="translate(0 0.90625)" xlink:href="#LucidaSansUnicode-67"/>
      <use transform="translate(69.189453 0.90625)" xlink:href="#LucidaSansUnicode-79"/>
      <use transform="translate(147.667695 -12.682812)scale(0.7)" xlink:href="#STIXGeneral-Regular-120804"/>
      <use transform="translate(184.932528 0.90625)" xlink:href="#LucidaSansUnicode-32"/>
      <use transform="translate(216.573153 0.90625)" xlink:href="#LucidaSansUnicode-99"/>
      <use transform="translate(267.793857 0.90625)" xlink:href="#LucidaSansUnicode-111"/>
      <use transform="translate(329.219638 0.90625)" xlink:href="#LucidaSansUnicode-110"/>
      <use transform="translate(391.280185 0.90625)" xlink:href="#LucidaSansUnicode-99"/>
      <use transform="translate(442.500888 0.90625)" xlink:href="#LucidaSansUnicode-101"/>
      <use transform="translate(498.213778 0.90625)" xlink:href="#LucidaSansUnicode-110"/>
      <use transform="translate(560.274325 0.90625)" xlink:href="#LucidaSansUnicode-116"/>
      <use transform="translate(597.676669 0.90625)" xlink:href="#LucidaSansUnicode-114"/>
      <use transform="translate(638.594638 0.90625)" xlink:href="#LucidaSansUnicode-97"/>
      <use transform="translate(693.819247 0.90625)" xlink:href="#LucidaSansUnicode-116"/>
      <use transform="translate(731.221591 0.90625)" xlink:href="#LucidaSansUnicode-105"/>
      <use transform="translate(760.127841 0.90625)" xlink:href="#LucidaSansUnicode-111"/>
      <use transform="translate(821.553622 0.90625)" xlink:href="#LucidaSansUnicode-110"/>
      <use transform="translate(883.614169 0.90625)" xlink:href="#LucidaSansUnicode-32"/>
      <use transform="translate(915.254794 0.90625)" xlink:href="#LucidaSansUnicode-91"/>
      <use transform="translate(947.774325 0.90625)" xlink:href="#LucidaSansUnicode-112"/>
      <use transform="translate(1010.713778 0.90625)" xlink:href="#LucidaSansUnicode-112"/>
      <use transform="translate(1073.653232 0.90625)" xlink:href="#LucidaSansUnicode-109"/>
      <use transform="translate(1167.012607 0.90625)" xlink:href="#LucidaSansUnicode-93"/>
     </g>
    </g>
   </g>
   <g id="line2d_5">
    <path clip-path="url(#p34680908f0)" d="M 193.989265 145 
L 194.4255 143.652123 
L 196.46925 140.309012 
L 198.513 143.466395 
L 198.945711 145 
M 214.815878 145 
L 214.863 144.90579 
L 216.90675 140.309012 
L 218.9505 133.669222 
L 220.99425 130.186815 
L 223.038 133.158469 
L 225.08175 140.26258 
L 226.089101 145 
M 234.51712 145 
L 235.3005 142.25916 
L 237.34425 136.780173 
L 239.388 132.50842 
L 241.43175 127.958074 
L 243.4755 121.271852 
L 245.51925 117.603716 
L 247.563 120.57537 
L 249.60675 127.772346 
L 251.6505 137.615951 
L 253.529202 145 
M 255.804402 145 
L 259.8255 131.254753 
L 261.86925 126.007926 
L 265.95675 117.69658 
L 268.0005 111.149654 
L 270.04425 107.713679 
L 272.088 110.871062 
L 274.13175 118.253765 
L 276.1755 128.283099 
L 278.21925 136.455148 
L 280.263 136.083691 
L 284.3505 122.10763 
L 286.39425 116.767938 
L 288.438 112.635481 
L 290.48175 108.178 
L 292.5255 101.445346 
L 294.56925 97.730778 
L 296.613 100.563136 
L 298.65675 107.574383 
L 300.7005 117.139395 
L 302.74425 124.661395 
L 304.788 123.686321 
L 308.8755 108.317296 
L 310.91925 102.373988 
L 312.963 97.684346 
L 315.00675 92.623247 
L 317.0505 85.565568 
L 319.09425 81.804568 
L 321.138 84.72979 
L 323.18175 91.880333 
L 325.2255 101.677506 
L 327.26925 109.570963 
L 329.313 108.920914 
L 333.4005 94.619827 
L 335.44425 89.233704 
L 337.488 85.147679 
L 339.53175 80.783062 
L 341.5755 74.189704 
L 343.61925 70.753728 
L 345.663 73.957543 
L 347.70675 81.386679 
L 349.7505 91.555309 
L 351.79425 99.866654 
L 353.838 99.588062 
L 357.9255 85.658432 
L 359.96925 80.458037 
L 362.013 76.464877 
L 364.05675 72.146691 
L 366.1005 65.460469 
L 368.14425 61.838765 
L 370.188 64.763988 
L 372.23175 71.868099 
L 374.2755 81.61884 
L 376.31925 89.373 
L 378.363 88.537222 
L 382.4505 73.493222 
L 384.49425 67.782074 
L 388.58175 58.727815 
L 390.6255 51.809432 
L 392.66925 48.048432 
L 394.713 51.020086 
L 396.75675 58.263494 
L 398.8005 68.153531 
L 400.84425 76.186284 
L 402.888 75.629099 
L 406.9755 61.095852 
L 409.01925 55.616864 
L 411.063 51.437975 
L 413.10675 46.794765 
L 415.1505 40.108543 
L 417.19425 36.719 
L 419.238 39.969247 
L 421.28175 47.491247 
L 421.28175 47.491247 
" style="fill:none;stroke:#d56c55;stroke-linecap:round;stroke-width:0.5;"/>
    <defs>
     <path d="M 0 0.75 
C 0.198902 0.75 0.389685 0.670975 0.53033 0.53033 
C 0.670975 0.389685 0.75 0.198902 0.75 0 
C 0.75 -0.198902 0.670975 -0.389685 0.53033 -0.53033 
C 0.389685 -0.670975 0.198902 -0.75 0 -0.75 
C -0.198902 -0.75 -0.389685 -0.670975 -0.53033 -0.53033 
C -0.670975 -0.389685 -0.75 -0.198902 -0.75 0 
C -0.75 0.198902 -0.670975 0.389685 -0.53033 0.53033 
C -0.389685 0.670975 -0.198902 0.75 0 0.75 
z
" id="m73ea65c9ec" style="stroke:#d56c55;"/>
    </defs>
    <g clip-path="url(#p34680908f0)">
     <use style="fill:#d56c55;stroke:#d56c55;" x="-1" xlink:href="#m73ea65c9ec" y="217.377941"/>
     <use style="fill:#d56c55;stroke:#d56c55;" x="0.26925" xlink:href="#m73ea65c9ec" y="215.157556"/>
     <use style="fill:#d56c55;stroke:#d56c55;" x="2.313" xlink:href="#m73ea65c9ec" y="217.989914"/>
     <use style="fill:#d56c55;stroke:#d56c55;" x="4.35675" xlink:href="#m73ea65c9ec" y="224.954728"/>
     <use style="fill:#d56c55;stroke:#d56c55;" x="6.4005" xlink:href="#m73ea65c9ec" y="234.473309"/>
     <use style="fill:#d56c55;stroke:#d56c55;" x="8.44425" xlink:href="#m73ea65c9ec" y="242.273901"/>
     <use style="fill:#d56c55;stroke:#d56c55;" x="10.488" xlink:href="#m73ea65c9ec" y="241.902444"/>
     <use style="fill:#d56c55;stroke:#d56c55;" x="12.53175" xlink:href="#m73ea65c9ec" y="235.123358"/>
     <use style="fill:#d56c55;stroke:#d56c55;" x="14.5755" xlink:href="#m73ea65c9ec" y="228.53"/>
     <use style="fill:#d56c55;stroke:#d56c55;" x="16.61925" xlink:href="#m73ea65c9ec" y="223.561765"/>
     <use style="fill:#d56c55;stroke:#d56c55;" x="18.663" xlink:href="#m73ea65c9ec" y="219.800765"/>
     <use style="fill:#d56c55;stroke:#d56c55;" x="20.70675" xlink:href="#m73ea65c9ec" y="215.621877"/>
     <use style="fill:#d56c55;stroke:#d56c55;" x="22.7505" xlink:href="#m73ea65c9ec" y="209.49284"/>
     <use style="fill:#d56c55;stroke:#d56c55;" x="24.79425" xlink:href="#m73ea65c9ec" y="206.474753"/>
     <use style="fill:#d56c55;stroke:#d56c55;" x="26.838" xlink:href="#m73ea65c9ec" y="209.817864"/>
     <use style="fill:#d56c55;stroke:#d56c55;" x="28.88175" xlink:href="#m73ea65c9ec" y="217.154136"/>
     <use style="fill:#d56c55;stroke:#d56c55;" x="30.9255" xlink:href="#m73ea65c9ec" y="226.997741"/>
     <use style="fill:#d56c55;stroke:#d56c55;" x="32.96925" xlink:href="#m73ea65c9ec" y="234.844765"/>
     <use style="fill:#d56c55;stroke:#d56c55;" x="35.013" xlink:href="#m73ea65c9ec" y="234.426877"/>
     <use style="fill:#d56c55;stroke:#d56c55;" x="37.05675" xlink:href="#m73ea65c9ec" y="227.508494"/>
     <use style="fill:#d56c55;stroke:#d56c55;" x="39.1005" xlink:href="#m73ea65c9ec" y="220.729407"/>
     <use style="fill:#d56c55;stroke:#d56c55;" x="41.14425" xlink:href="#m73ea65c9ec" y="215.48258"/>
     <use style="fill:#d56c55;stroke:#d56c55;" x="43.188" xlink:href="#m73ea65c9ec" y="211.350123"/>
     <use style="fill:#d56c55;stroke:#d56c55;" x="45.23175" xlink:href="#m73ea65c9ec" y="206.939074"/>
     <use style="fill:#d56c55;stroke:#d56c55;" x="47.2755" xlink:href="#m73ea65c9ec" y="200.299284"/>
     <use style="fill:#d56c55;stroke:#d56c55;" x="49.31925" xlink:href="#m73ea65c9ec" y="196.67758"/>
     <use style="fill:#d56c55;stroke:#d56c55;" x="51.363" xlink:href="#m73ea65c9ec" y="199.463506"/>
     <use style="fill:#d56c55;stroke:#d56c55;" x="53.40675" xlink:href="#m73ea65c9ec" y="206.381889"/>
     <use style="fill:#d56c55;stroke:#d56c55;" x="55.4505" xlink:href="#m73ea65c9ec" y="215.854037"/>
     <use style="fill:#d56c55;stroke:#d56c55;" x="57.49425" xlink:href="#m73ea65c9ec" y="223.561765"/>
     <use style="fill:#d56c55;stroke:#d56c55;" x="59.538" xlink:href="#m73ea65c9ec" y="223.051012"/>
     <use style="fill:#d56c55;stroke:#d56c55;" x="61.58175" xlink:href="#m73ea65c9ec" y="216.039765"/>
     <use style="fill:#d56c55;stroke:#d56c55;" x="63.6255" xlink:href="#m73ea65c9ec" y="209.214247"/>
     <use style="fill:#d56c55;stroke:#d56c55;" x="65.66925" xlink:href="#m73ea65c9ec" y="204.013852"/>
     <use style="fill:#d56c55;stroke:#d56c55;" x="67.713" xlink:href="#m73ea65c9ec" y="200.067123"/>
     <use style="fill:#d56c55;stroke:#d56c55;" x="69.75675" xlink:href="#m73ea65c9ec" y="195.888235"/>
     <use style="fill:#d56c55;stroke:#d56c55;" x="71.8005" xlink:href="#m73ea65c9ec" y="189.527037"/>
     <use style="fill:#d56c55;stroke:#d56c55;" x="73.84425" xlink:href="#m73ea65c9ec" y="186.230358"/>
     <use style="fill:#d56c55;stroke:#d56c55;" x="75.888" xlink:href="#m73ea65c9ec" y="189.341309"/>
     <use style="fill:#d56c55;stroke:#d56c55;" x="77.93175" xlink:href="#m73ea65c9ec" y="196.584716"/>
     <use style="fill:#d56c55;stroke:#d56c55;" x="79.9755" xlink:href="#m73ea65c9ec" y="206.428321"/>
     <use style="fill:#d56c55;stroke:#d56c55;" x="82.01925" xlink:href="#m73ea65c9ec" y="214.461074"/>
     <use style="fill:#d56c55;stroke:#d56c55;" x="84.063" xlink:href="#m73ea65c9ec" y="214.182481"/>
     <use style="fill:#d56c55;stroke:#d56c55;" x="86.10675" xlink:href="#m73ea65c9ec" y="207.356963"/>
     <use style="fill:#d56c55;stroke:#d56c55;" x="88.1505" xlink:href="#m73ea65c9ec" y="200.717173"/>
     <use style="fill:#d56c55;stroke:#d56c55;" x="90.19425" xlink:href="#m73ea65c9ec" y="195.656074"/>
     <use style="fill:#d56c55;stroke:#d56c55;" x="92.238" xlink:href="#m73ea65c9ec" y="191.755778"/>
     <use style="fill:#d56c55;stroke:#d56c55;" x="94.28175" xlink:href="#m73ea65c9ec" y="187.576889"/>
     <use style="fill:#d56c55;stroke:#d56c55;" x="96.3255" xlink:href="#m73ea65c9ec" y="181.215691"/>
     <use style="fill:#d56c55;stroke:#d56c55;" x="98.36925" xlink:href="#m73ea65c9ec" y="177.826148"/>
     <use style="fill:#d56c55;stroke:#d56c55;" x="100.413" xlink:href="#m73ea65c9ec" y="180.937099"/>
     <use style="fill:#d56c55;stroke:#d56c55;" x="102.45675" xlink:href="#m73ea65c9ec" y="188.134074"/>
     <use style="fill:#d56c55;stroke:#d56c55;" x="104.5005" xlink:href="#m73ea65c9ec" y="197.931247"/>
     <use style="fill:#d56c55;stroke:#d56c55;" x="106.54425" xlink:href="#m73ea65c9ec" y="205.871136"/>
     <use style="fill:#d56c55;stroke:#d56c55;" x="108.588" xlink:href="#m73ea65c9ec" y="205.592543"/>
     <use style="fill:#d56c55;stroke:#d56c55;" x="110.63175" xlink:href="#m73ea65c9ec" y="198.720593"/>
     <use style="fill:#d56c55;stroke:#d56c55;" x="112.6755" xlink:href="#m73ea65c9ec" y="192.03437"/>
     <use style="fill:#d56c55;stroke:#d56c55;" x="114.71925" xlink:href="#m73ea65c9ec" y="186.973272"/>
     <use style="fill:#d56c55;stroke:#d56c55;" x="116.763" xlink:href="#m73ea65c9ec" y="183.16584"/>
     <use style="fill:#d56c55;stroke:#d56c55;" x="118.80675" xlink:href="#m73ea65c9ec" y="178.847654"/>
     <use style="fill:#d56c55;stroke:#d56c55;" x="120.8505" xlink:href="#m73ea65c9ec" y="172.486457"/>
     <use style="fill:#d56c55;stroke:#d56c55;" x="122.89425" xlink:href="#m73ea65c9ec" y="169.23621"/>
     <use style="fill:#d56c55;stroke:#d56c55;" x="124.938" xlink:href="#m73ea65c9ec" y="172.393593"/>
     <use style="fill:#d56c55;stroke:#d56c55;" x="126.98175" xlink:href="#m73ea65c9ec" y="179.590568"/>
     <use style="fill:#d56c55;stroke:#d56c55;" x="129.0255" xlink:href="#m73ea65c9ec" y="189.387741"/>
     <use style="fill:#d56c55;stroke:#d56c55;" x="131.06925" xlink:href="#m73ea65c9ec" y="197.281198"/>
     <use style="fill:#d56c55;stroke:#d56c55;" x="133.113" xlink:href="#m73ea65c9ec" y="196.909741"/>
     <use style="fill:#d56c55;stroke:#d56c55;" x="135.15675" xlink:href="#m73ea65c9ec" y="190.03779"/>
     <use style="fill:#d56c55;stroke:#d56c55;" x="137.2005" xlink:href="#m73ea65c9ec" y="183.351568"/>
     <use style="fill:#d56c55;stroke:#d56c55;" x="139.24425" xlink:href="#m73ea65c9ec" y="178.244037"/>
     <use style="fill:#d56c55;stroke:#d56c55;" x="141.288" xlink:href="#m73ea65c9ec" y="174.343741"/>
     <use style="fill:#d56c55;stroke:#d56c55;" x="143.33175" xlink:href="#m73ea65c9ec" y="170.11842"/>
     <use style="fill:#d56c55;stroke:#d56c55;" x="145.3755" xlink:href="#m73ea65c9ec" y="163.664358"/>
     <use style="fill:#d56c55;stroke:#d56c55;" x="147.41925" xlink:href="#m73ea65c9ec" y="160.228383"/>
     <use style="fill:#d56c55;stroke:#d56c55;" x="149.463" xlink:href="#m73ea65c9ec" y="163.246469"/>
     <use style="fill:#d56c55;stroke:#d56c55;" x="151.50675" xlink:href="#m73ea65c9ec" y="170.35058"/>
     <use style="fill:#d56c55;stroke:#d56c55;" x="153.5505" xlink:href="#m73ea65c9ec" y="180.054889"/>
     <use style="fill:#d56c55;stroke:#d56c55;" x="155.59425" xlink:href="#m73ea65c9ec" y="187.855481"/>
     <use style="fill:#d56c55;stroke:#d56c55;" x="157.638" xlink:href="#m73ea65c9ec" y="187.298296"/>
     <use style="fill:#d56c55;stroke:#d56c55;" x="159.68175" xlink:href="#m73ea65c9ec" y="180.101321"/>
     <use style="fill:#d56c55;stroke:#d56c55;" x="161.7255" xlink:href="#m73ea65c9ec" y="173.043642"/>
     <use style="fill:#d56c55;stroke:#d56c55;" x="163.76925" xlink:href="#m73ea65c9ec" y="167.564654"/>
     <use style="fill:#d56c55;stroke:#d56c55;" x="165.813" xlink:href="#m73ea65c9ec" y="163.339333"/>
     <use style="fill:#d56c55;stroke:#d56c55;" x="167.85675" xlink:href="#m73ea65c9ec" y="158.881852"/>
     <use style="fill:#d56c55;stroke:#d56c55;" x="169.9005" xlink:href="#m73ea65c9ec" y="152.242062"/>
     <use style="fill:#d56c55;stroke:#d56c55;" x="171.94425" xlink:href="#m73ea65c9ec" y="148.66679"/>
     <use style="fill:#d56c55;stroke:#d56c55;" x="173.988" xlink:href="#m73ea65c9ec" y="151.684877"/>
     <use style="fill:#d56c55;stroke:#d56c55;" x="176.03175" xlink:href="#m73ea65c9ec" y="158.881852"/>
     <use style="fill:#d56c55;stroke:#d56c55;" x="178.0755" xlink:href="#m73ea65c9ec" y="168.725457"/>
     <use style="fill:#d56c55;stroke:#d56c55;" x="180.11925" xlink:href="#m73ea65c9ec" y="176.804642"/>
     <use style="fill:#d56c55;stroke:#d56c55;" x="182.163" xlink:href="#m73ea65c9ec" y="176.479617"/>
     <use style="fill:#d56c55;stroke:#d56c55;" x="184.20675" xlink:href="#m73ea65c9ec" y="169.607667"/>
     <use style="fill:#d56c55;stroke:#d56c55;" x="186.2505" xlink:href="#m73ea65c9ec" y="162.921444"/>
     <use style="fill:#d56c55;stroke:#d56c55;" x="188.29425" xlink:href="#m73ea65c9ec" y="157.906778"/>
     <use style="fill:#d56c55;stroke:#d56c55;" x="190.338" xlink:href="#m73ea65c9ec" y="154.099346"/>
     <use style="fill:#d56c55;stroke:#d56c55;" x="192.38175" xlink:href="#m73ea65c9ec" y="149.966889"/>
     <use style="fill:#d56c55;stroke:#d56c55;" x="194.4255" xlink:href="#m73ea65c9ec" y="143.652123"/>
     <use style="fill:#d56c55;stroke:#d56c55;" x="196.46925" xlink:href="#m73ea65c9ec" y="140.309012"/>
     <use style="fill:#d56c55;stroke:#d56c55;" x="198.513" xlink:href="#m73ea65c9ec" y="143.466395"/>
     <use style="fill:#d56c55;stroke:#d56c55;" x="200.55675" xlink:href="#m73ea65c9ec" y="150.709802"/>
     <use style="fill:#d56c55;stroke:#d56c55;" x="202.6005" xlink:href="#m73ea65c9ec" y="160.59984"/>
     <use style="fill:#d56c55;stroke:#d56c55;" x="204.64425" xlink:href="#m73ea65c9ec" y="168.58616"/>
     <use style="fill:#d56c55;stroke:#d56c55;" x="206.688" xlink:href="#m73ea65c9ec" y="168.214704"/>
     <use style="fill:#d56c55;stroke:#d56c55;" x="208.73175" xlink:href="#m73ea65c9ec" y="161.157025"/>
     <use style="fill:#d56c55;stroke:#d56c55;" x="210.7755" xlink:href="#m73ea65c9ec" y="154.238642"/>
     <use style="fill:#d56c55;stroke:#d56c55;" x="212.81925" xlink:href="#m73ea65c9ec" y="148.991815"/>
     <use style="fill:#d56c55;stroke:#d56c55;" x="214.863" xlink:href="#m73ea65c9ec" y="144.90579"/>
     <use style="fill:#d56c55;stroke:#d56c55;" x="216.90675" xlink:href="#m73ea65c9ec" y="140.309012"/>
     <use style="fill:#d56c55;stroke:#d56c55;" x="218.9505" xlink:href="#m73ea65c9ec" y="133.669222"/>
     <use style="fill:#d56c55;stroke:#d56c55;" x="220.99425" xlink:href="#m73ea65c9ec" y="130.186815"/>
     <use style="fill:#d56c55;stroke:#d56c55;" x="223.038" xlink:href="#m73ea65c9ec" y="133.158469"/>
     <use style="fill:#d56c55;stroke:#d56c55;" x="225.08175" xlink:href="#m73ea65c9ec" y="140.26258"/>
     <use style="fill:#d56c55;stroke:#d56c55;" x="227.1255" xlink:href="#m73ea65c9ec" y="149.874025"/>
     <use style="fill:#d56c55;stroke:#d56c55;" x="229.16925" xlink:href="#m73ea65c9ec" y="157.535321"/>
     <use style="fill:#d56c55;stroke:#d56c55;" x="231.213" xlink:href="#m73ea65c9ec" y="156.792407"/>
     <use style="fill:#d56c55;stroke:#d56c55;" x="233.25675" xlink:href="#m73ea65c9ec" y="149.409704"/>
     <use style="fill:#d56c55;stroke:#d56c55;" x="235.3005" xlink:href="#m73ea65c9ec" y="142.25916"/>
     <use style="fill:#d56c55;stroke:#d56c55;" x="237.34425" xlink:href="#m73ea65c9ec" y="136.780173"/>
     <use style="fill:#d56c55;stroke:#d56c55;" x="239.388" xlink:href="#m73ea65c9ec" y="132.50842"/>
     <use style="fill:#d56c55;stroke:#d56c55;" x="241.43175" xlink:href="#m73ea65c9ec" y="127.958074"/>
     <use style="fill:#d56c55;stroke:#d56c55;" x="243.4755" xlink:href="#m73ea65c9ec" y="121.271852"/>
     <use style="fill:#d56c55;stroke:#d56c55;" x="245.51925" xlink:href="#m73ea65c9ec" y="117.603716"/>
     <use style="fill:#d56c55;stroke:#d56c55;" x="247.563" xlink:href="#m73ea65c9ec" y="120.57537"/>
     <use style="fill:#d56c55;stroke:#d56c55;" x="249.60675" xlink:href="#m73ea65c9ec" y="127.772346"/>
     <use style="fill:#d56c55;stroke:#d56c55;" x="251.6505" xlink:href="#m73ea65c9ec" y="137.615951"/>
     <use style="fill:#d56c55;stroke:#d56c55;" x="253.69425" xlink:href="#m73ea65c9ec" y="145.648704"/>
     <use style="fill:#d56c55;stroke:#d56c55;" x="255.738" xlink:href="#m73ea65c9ec" y="145.230815"/>
     <use style="fill:#d56c55;stroke:#d56c55;" x="257.78175" xlink:href="#m73ea65c9ec" y="138.126704"/>
     <use style="fill:#d56c55;stroke:#d56c55;" x="259.8255" xlink:href="#m73ea65c9ec" y="131.254753"/>
     <use style="fill:#d56c55;stroke:#d56c55;" x="261.86925" xlink:href="#m73ea65c9ec" y="126.007926"/>
     <use style="fill:#d56c55;stroke:#d56c55;" x="263.913" xlink:href="#m73ea65c9ec" y="121.968333"/>
     <use style="fill:#d56c55;stroke:#d56c55;" x="265.95675" xlink:href="#m73ea65c9ec" y="117.69658"/>
     <use style="fill:#d56c55;stroke:#d56c55;" x="268.0005" xlink:href="#m73ea65c9ec" y="111.149654"/>
     <use style="fill:#d56c55;stroke:#d56c55;" x="270.04425" xlink:href="#m73ea65c9ec" y="107.713679"/>
     <use style="fill:#d56c55;stroke:#d56c55;" x="272.088" xlink:href="#m73ea65c9ec" y="110.871062"/>
     <use style="fill:#d56c55;stroke:#d56c55;" x="274.13175" xlink:href="#m73ea65c9ec" y="118.253765"/>
     <use style="fill:#d56c55;stroke:#d56c55;" x="276.1755" xlink:href="#m73ea65c9ec" y="128.283099"/>
     <use style="fill:#d56c55;stroke:#d56c55;" x="278.21925" xlink:href="#m73ea65c9ec" y="136.455148"/>
     <use style="fill:#d56c55;stroke:#d56c55;" x="280.263" xlink:href="#m73ea65c9ec" y="136.083691"/>
     <use style="fill:#d56c55;stroke:#d56c55;" x="282.30675" xlink:href="#m73ea65c9ec" y="129.026012"/>
     <use style="fill:#d56c55;stroke:#d56c55;" x="284.3505" xlink:href="#m73ea65c9ec" y="122.10763"/>
     <use style="fill:#d56c55;stroke:#d56c55;" x="286.39425" xlink:href="#m73ea65c9ec" y="116.767938"/>
     <use style="fill:#d56c55;stroke:#d56c55;" x="288.438" xlink:href="#m73ea65c9ec" y="112.635481"/>
     <use style="fill:#d56c55;stroke:#d56c55;" x="290.48175" xlink:href="#m73ea65c9ec" y="108.178"/>
     <use style="fill:#d56c55;stroke:#d56c55;" x="292.5255" xlink:href="#m73ea65c9ec" y="101.445346"/>
     <use style="fill:#d56c55;stroke:#d56c55;" x="294.56925" xlink:href="#m73ea65c9ec" y="97.730778"/>
     <use style="fill:#d56c55;stroke:#d56c55;" x="296.613" xlink:href="#m73ea65c9ec" y="100.563136"/>
     <use style="fill:#d56c55;stroke:#d56c55;" x="298.65675" xlink:href="#m73ea65c9ec" y="107.574383"/>
     <use style="fill:#d56c55;stroke:#d56c55;" x="300.7005" xlink:href="#m73ea65c9ec" y="117.139395"/>
     <use style="fill:#d56c55;stroke:#d56c55;" x="302.74425" xlink:href="#m73ea65c9ec" y="124.661395"/>
     <use style="fill:#d56c55;stroke:#d56c55;" x="304.788" xlink:href="#m73ea65c9ec" y="123.686321"/>
     <use style="fill:#d56c55;stroke:#d56c55;" x="306.83175" xlink:href="#m73ea65c9ec" y="115.93216"/>
     <use style="fill:#d56c55;stroke:#d56c55;" x="308.8755" xlink:href="#m73ea65c9ec" y="108.317296"/>
     <use style="fill:#d56c55;stroke:#d56c55;" x="310.91925" xlink:href="#m73ea65c9ec" y="102.373988"/>
     <use style="fill:#d56c55;stroke:#d56c55;" x="312.963" xlink:href="#m73ea65c9ec" y="97.684346"/>
     <use style="fill:#d56c55;stroke:#d56c55;" x="315.00675" xlink:href="#m73ea65c9ec" y="92.623247"/>
     <use style="fill:#d56c55;stroke:#d56c55;" x="317.0505" xlink:href="#m73ea65c9ec" y="85.565568"/>
     <use style="fill:#d56c55;stroke:#d56c55;" x="319.09425" xlink:href="#m73ea65c9ec" y="81.804568"/>
     <use style="fill:#d56c55;stroke:#d56c55;" x="321.138" xlink:href="#m73ea65c9ec" y="84.72979"/>
     <use style="fill:#d56c55;stroke:#d56c55;" x="323.18175" xlink:href="#m73ea65c9ec" y="91.880333"/>
     <use style="fill:#d56c55;stroke:#d56c55;" x="325.2255" xlink:href="#m73ea65c9ec" y="101.677506"/>
     <use style="fill:#d56c55;stroke:#d56c55;" x="327.26925" xlink:href="#m73ea65c9ec" y="109.570963"/>
     <use style="fill:#d56c55;stroke:#d56c55;" x="329.313" xlink:href="#m73ea65c9ec" y="108.920914"/>
     <use style="fill:#d56c55;stroke:#d56c55;" x="331.35675" xlink:href="#m73ea65c9ec" y="101.631074"/>
     <use style="fill:#d56c55;stroke:#d56c55;" x="333.4005" xlink:href="#m73ea65c9ec" y="94.619827"/>
     <use style="fill:#d56c55;stroke:#d56c55;" x="335.44425" xlink:href="#m73ea65c9ec" y="89.233704"/>
     <use style="fill:#d56c55;stroke:#d56c55;" x="337.488" xlink:href="#m73ea65c9ec" y="85.147679"/>
     <use style="fill:#d56c55;stroke:#d56c55;" x="339.53175" xlink:href="#m73ea65c9ec" y="80.783062"/>
     <use style="fill:#d56c55;stroke:#d56c55;" x="341.5755" xlink:href="#m73ea65c9ec" y="74.189704"/>
     <use style="fill:#d56c55;stroke:#d56c55;" x="343.61925" xlink:href="#m73ea65c9ec" y="70.753728"/>
     <use style="fill:#d56c55;stroke:#d56c55;" x="345.663" xlink:href="#m73ea65c9ec" y="73.957543"/>
     <use style="fill:#d56c55;stroke:#d56c55;" x="347.70675" xlink:href="#m73ea65c9ec" y="81.386679"/>
     <use style="fill:#d56c55;stroke:#d56c55;" x="349.7505" xlink:href="#m73ea65c9ec" y="91.555309"/>
     <use style="fill:#d56c55;stroke:#d56c55;" x="351.79425" xlink:href="#m73ea65c9ec" y="99.866654"/>
     <use style="fill:#d56c55;stroke:#d56c55;" x="353.838" xlink:href="#m73ea65c9ec" y="99.588062"/>
     <use style="fill:#d56c55;stroke:#d56c55;" x="355.88175" xlink:href="#m73ea65c9ec" y="92.530383"/>
     <use style="fill:#d56c55;stroke:#d56c55;" x="357.9255" xlink:href="#m73ea65c9ec" y="85.658432"/>
     <use style="fill:#d56c55;stroke:#d56c55;" x="359.96925" xlink:href="#m73ea65c9ec" y="80.458037"/>
     <use style="fill:#d56c55;stroke:#d56c55;" x="362.013" xlink:href="#m73ea65c9ec" y="76.464877"/>
     <use style="fill:#d56c55;stroke:#d56c55;" x="364.05675" xlink:href="#m73ea65c9ec" y="72.146691"/>
     <use style="fill:#d56c55;stroke:#d56c55;" x="366.1005" xlink:href="#m73ea65c9ec" y="65.460469"/>
     <use style="fill:#d56c55;stroke:#d56c55;" x="368.14425" xlink:href="#m73ea65c9ec" y="61.838765"/>
     <use style="fill:#d56c55;stroke:#d56c55;" x="370.188" xlink:href="#m73ea65c9ec" y="64.763988"/>
     <use style="fill:#d56c55;stroke:#d56c55;" x="372.23175" xlink:href="#m73ea65c9ec" y="71.868099"/>
     <use style="fill:#d56c55;stroke:#d56c55;" x="374.2755" xlink:href="#m73ea65c9ec" y="81.61884"/>
     <use style="fill:#d56c55;stroke:#d56c55;" x="376.31925" xlink:href="#m73ea65c9ec" y="89.373"/>
     <use style="fill:#d56c55;stroke:#d56c55;" x="378.363" xlink:href="#m73ea65c9ec" y="88.537222"/>
     <use style="fill:#d56c55;stroke:#d56c55;" x="380.40675" xlink:href="#m73ea65c9ec" y="80.922358"/>
     <use style="fill:#d56c55;stroke:#d56c55;" x="382.4505" xlink:href="#m73ea65c9ec" y="73.493222"/>
     <use style="fill:#d56c55;stroke:#d56c55;" x="384.49425" xlink:href="#m73ea65c9ec" y="67.782074"/>
     <use style="fill:#d56c55;stroke:#d56c55;" x="386.538" xlink:href="#m73ea65c9ec" y="63.371025"/>
     <use style="fill:#d56c55;stroke:#d56c55;" x="388.58175" xlink:href="#m73ea65c9ec" y="58.727815"/>
     <use style="fill:#d56c55;stroke:#d56c55;" x="390.6255" xlink:href="#m73ea65c9ec" y="51.809432"/>
     <use style="fill:#d56c55;stroke:#d56c55;" x="392.66925" xlink:href="#m73ea65c9ec" y="48.048432"/>
     <use style="fill:#d56c55;stroke:#d56c55;" x="394.713" xlink:href="#m73ea65c9ec" y="51.020086"/>
     <use style="fill:#d56c55;stroke:#d56c55;" x="396.75675" xlink:href="#m73ea65c9ec" y="58.263494"/>
     <use style="fill:#d56c55;stroke:#d56c55;" x="398.8005" xlink:href="#m73ea65c9ec" y="68.153531"/>
     <use style="fill:#d56c55;stroke:#d56c55;" x="400.84425" xlink:href="#m73ea65c9ec" y="76.186284"/>
     <use style="fill:#d56c55;stroke:#d56c55;" x="402.888" xlink:href="#m73ea65c9ec" y="75.629099"/>
     <use style="fill:#d56c55;stroke:#d56c55;" x="404.93175" xlink:href="#m73ea65c9ec" y="68.246395"/>
     <use style="fill:#d56c55;stroke:#d56c55;" x="406.9755" xlink:href="#m73ea65c9ec" y="61.095852"/>
     <use style="fill:#d56c55;stroke:#d56c55;" x="409.01925" xlink:href="#m73ea65c9ec" y="55.616864"/>
     <use style="fill:#d56c55;stroke:#d56c55;" x="411.063" xlink:href="#m73ea65c9ec" y="51.437975"/>
     <use style="fill:#d56c55;stroke:#d56c55;" x="413.10675" xlink:href="#m73ea65c9ec" y="46.794765"/>
     <use style="fill:#d56c55;stroke:#d56c55;" x="415.1505" xlink:href="#m73ea65c9ec" y="40.108543"/>
     <use style="fill:#d56c55;stroke:#d56c55;" x="417.19425" xlink:href="#m73ea65c9ec" y="36.719"/>
     <use style="fill:#d56c55;stroke:#d56c55;" x="419.238" xlink:href="#m73ea65c9ec" y="39.969247"/>
     <use style="fill:#d56c55;stroke:#d56c55;" x="421.28175" xlink:href="#m73ea65c9ec" y="47.491247"/>
    </g>
   </g>
   <g id="patch_13">
    <path d="M 323.1 115.7 
L 323.1 22.835802 
" style="fill:none;stroke:#ffffff;stroke-linecap:square;stroke-linejoin:miter;stroke-width:0.8;"/>
   </g>
   <g id="patch_14">
    <path d="M 421.2 115.7 
L 421.2 22.835802 
" style="fill:none;stroke:#ffffff;stroke-linecap:square;stroke-linejoin:miter;stroke-width:0.8;"/>
   </g>
   <g id="patch_15">
    <path d="M 323.1 115.7 
L 421.2 115.7 
" style="fill:none;stroke:#ffffff;stroke-linecap:square;stroke-linejoin:miter;stroke-width:0.8;"/>
   </g>
   <g id="patch_16">
    <path d="M 323.1 22.835802 
L 421.2 22.835802 
" style="fill:none;stroke:#ffffff;stroke-linecap:square;stroke-linejoin:miter;stroke-width:0.8;"/>
   </g>
  </g>
  <g id="axes_4">
   <g id="patch_17">
    <path d="M 38.55 19.235802 
L 136.65 19.235802 
L 136.65 11.806667 
L 38.55 11.806667 
z
" style="fill:#ffedce;"/>
   </g>
   <g id="text_40">
    <!-- historical trend -->
    <defs>
     <path d="M 9.625 0 
L 9.625 77.09375 
L 19.234375 77.09375 
L 19.234375 43.0625 
Q 26.859375 54.203125 37.890625 54.203125 
Q 44.828125 54.203125 48.90625 49.828125 
Q 52.984375 45.453125 52.984375 38.09375 
L 52.984375 0 
L 43.359375 0 
L 43.359375 34.96875 
Q 43.359375 40.875 41.625 43.390625 
Q 39.890625 45.90625 35.890625 45.90625 
Q 27.046875 45.90625 19.234375 34.328125 
L 19.234375 0 
z
" id="LucidaSansUnicode-104"/>
     <path d="M 7.671875 1.859375 
L 7.671875 10.6875 
Q 17.09375 6 24.078125 6 
Q 28.21875 6 30.953125 8.25 
Q 33.6875 10.5 33.6875 13.875 
Q 33.6875 18.796875 26.03125 22.015625 
L 20.40625 24.421875 
Q 7.953125 29.59375 7.953125 39.3125 
Q 7.953125 46.234375 12.859375 50.21875 
Q 17.78125 54.203125 26.3125 54.203125 
Q 30.765625 54.203125 37.3125 52.984375 
L 39.3125 52.59375 
L 39.3125 44.578125 
Q 31.25 46.96875 26.46875 46.96875 
Q 22.265625 46.96875 19.75 45.140625 
Q 17.234375 43.3125 17.234375 40.234375 
Q 17.234375 35.890625 24.265625 32.90625 
L 28.90625 30.953125 
Q 36.765625 27.640625 40.03125 23.953125 
Q 43.3125 20.265625 43.3125 14.75 
Q 43.3125 7.765625 37.796875 3.265625 
Q 32.28125 -1.21875 23.6875 -1.21875 
Q 17.09375 -1.21875 7.671875 1.859375 
z
" id="LucidaSansUnicode-115"/>
     <path d="M 9.625 0 
L 9.625 77.09375 
L 19.234375 77.09375 
L 19.234375 0 
z
" id="LucidaSansUnicode-108"/>
     <path d="M 43.65625 0 
L 43.65625 9.96875 
Q 37.796875 -1.21875 25.984375 -1.21875 
Q 16.40625 -1.21875 10.90625 5.765625 
Q 5.421875 12.75 5.421875 24.859375 
Q 5.421875 38.09375 11.640625 46.140625 
Q 17.875 54.203125 28.03125 54.203125 
Q 37.453125 54.203125 43.65625 46.96875 
L 43.65625 77.09375 
L 53.328125 77.09375 
L 53.328125 0 
z
M 43.65625 40.375 
Q 36.1875 46.96875 29.5 46.96875 
Q 22.90625 46.96875 19.28125 41.453125 
Q 15.671875 35.9375 15.671875 25.828125 
Q 15.671875 7.234375 27.984375 7.234375 
Q 35.984375 7.234375 43.65625 15.96875 
z
" id="LucidaSansUnicode-100"/>
    </defs>
    <g transform="translate(65.500781 17.25561)scale(0.06 -0.06)">
     <use xlink:href="#LucidaSansUnicode-104"/>
     <use x="62.060547" xlink:href="#LucidaSansUnicode-105"/>
     <use x="90.966797" xlink:href="#LucidaSansUnicode-115"/>
     <use x="141.943359" xlink:href="#LucidaSansUnicode-116"/>
     <use x="179.345703" xlink:href="#LucidaSansUnicode-111"/>
     <use x="240.771484" xlink:href="#LucidaSansUnicode-114"/>
     <use x="281.689453" xlink:href="#LucidaSansUnicode-105"/>
     <use x="310.595703" xlink:href="#LucidaSansUnicode-99"/>
     <use x="361.816406" xlink:href="#LucidaSansUnicode-97"/>
     <use x="417.041016" xlink:href="#LucidaSansUnicode-108"/>
     <use x="445.947266" xlink:href="#LucidaSansUnicode-32"/>
     <use x="477.587891" xlink:href="#LucidaSansUnicode-116"/>
     <use x="514.990234" xlink:href="#LucidaSansUnicode-114"/>
     <use x="555.908203" xlink:href="#LucidaSansUnicode-101"/>
     <use x="611.621094" xlink:href="#LucidaSansUnicode-110"/>
     <use x="673.681641" xlink:href="#LucidaSansUnicode-100"/>
    </g>
   </g>
  </g>
  <g id="axes_5">
   <g id="patch_18">
    <path d="M 180.825 19.235802 
L 278.925 19.235802 
L 278.925 11.806667 
L 180.825 11.806667 
z
" style="fill:#ffedce;"/>
   </g>
   <g id="text_41">
    <!-- modern trend -->
    <g transform="translate(209.861719 17.25561)scale(0.06 -0.06)">
     <use xlink:href="#LucidaSansUnicode-109"/>
     <use x="93.359375" xlink:href="#LucidaSansUnicode-111"/>
     <use x="154.785156" xlink:href="#LucidaSansUnicode-100"/>
     <use x="217.724609" xlink:href="#LucidaSansUnicode-101"/>
     <use x="273.4375" xlink:href="#LucidaSansUnicode-114"/>
     <use x="314.355469" xlink:href="#LucidaSansUnicode-110"/>
     <use x="376.416016" xlink:href="#LucidaSansUnicode-32"/>
     <use x="408.056641" xlink:href="#LucidaSansUnicode-116"/>
     <use x="445.458984" xlink:href="#LucidaSansUnicode-114"/>
     <use x="486.376953" xlink:href="#LucidaSansUnicode-101"/>
     <use x="542.089844" xlink:href="#LucidaSansUnicode-110"/>
     <use x="604.150391" xlink:href="#LucidaSansUnicode-100"/>
    </g>
   </g>
  </g>
  <g id="axes_6">
   <g id="patch_19">
    <path d="M 323.1 19.235802 
L 421.2 19.235802 
L 421.2 11.806667 
L 323.1 11.806667 
z
" style="fill:#ffedce;"/>
   </g>
   <g id="text_42">
    <!-- seasonal trend -->
    <g transform="translate(350.813906 17.25561)scale(0.06 -0.06)">
     <use xlink:href="#LucidaSansUnicode-115"/>
     <use x="50.976562" xlink:href="#LucidaSansUnicode-101"/>
     <use x="106.689453" xlink:href="#LucidaSansUnicode-97"/>
     <use x="161.914062" xlink:href="#LucidaSansUnicode-115"/>
     <use x="212.890625" xlink:href="#LucidaSansUnicode-111"/>
     <use x="274.316406" xlink:href="#LucidaSansUnicode-110"/>
     <use x="336.376953" xlink:href="#LucidaSansUnicode-97"/>
     <use x="391.601562" xlink:href="#LucidaSansUnicode-108"/>
     <use x="420.507812" xlink:href="#LucidaSansUnicode-32"/>
     <use x="452.148438" xlink:href="#LucidaSansUnicode-116"/>
     <use x="489.550781" xlink:href="#LucidaSansUnicode-114"/>
     <use x="530.46875" xlink:href="#LucidaSansUnicode-101"/>
     <use x="586.181641" xlink:href="#LucidaSansUnicode-110"/>
     <use x="648.242188" xlink:href="#LucidaSansUnicode-100"/>
    </g>
   </g>
  </g>
 </g>
 <defs>
  <clipPath id="p4731c46bd5">
   <rect height="92.864198" width="98.1" x="38.55" y="22.835802"/>
  </clipPath>
  <clipPath id="p843775b67b">
   <rect height="92.864198" width="98.1" x="180.825" y="22.835802"/>
  </clipPath>
  <clipPath id="p34680908f0">
   <rect height="92.864198" width="98.1" x="323.1" y="22.835802"/>
  </clipPath>
 </defs>
</svg>
