<?xml version="1.0" encoding="utf-8" standalone="no"?>
<!DOCTYPE svg PUBLIC "-//W3C//DTD SVG 1.1//EN"
  "http://www.w3.org/Graphics/SVG/1.1/DTD/svg11.dtd">
<!-- Created with matplotlib (https://matplotlib.org/) -->
<svg height="108pt" version="1.1" viewBox="0 0 216 108" width="216pt" xmlns="http://www.w3.org/2000/svg" xmlns:xlink="http://www.w3.org/1999/xlink">
 <defs>
  <style type="text/css">
*{stroke-linecap:butt;stroke-linejoin:round;}
  </style>
 </defs>
 <g id="figure_1">
  <g id="patch_1">
   <path d="M 0 108 
L 216 108 
L 216 0 
L 0 0 
z
" style="fill:#ffffff;"/>
  </g>
  <g id="axes_1">
   <g id="patch_2">
    <path d="M 27 94.5 
L 194.4 94.5 
L 194.4 12.96 
L 27 12.96 
z
" style="fill:#e3dcd0;"/>
   </g>
   <g id="matplotlib.axis_1">
    <g id="xtick_1">
     <g id="text_1">
      <!-- Manila Clam -->
      <defs>
       <path d="M 9.328125 0 
L 9.328125 72.265625 
L 23.53125 72.265625 
L 43.5625 16.359375 
L 64.15625 72.265625 
L 76.859375 72.265625 
L 76.859375 0 
L 67.28125 0 
L 67.28125 58.796875 
L 47.359375 4.828125 
L 37.453125 4.828125 
L 18.109375 58.9375 
L 18.109375 0 
z
" id="LucidaSansUnicode-77"/>
       <path d="M 36.96875 6.734375 
Q 28.328125 -1.21875 20.3125 -1.21875 
Q 13.71875 -1.21875 9.375 2.90625 
Q 5.03125 7.03125 5.03125 13.328125 
Q 5.03125 22.015625 12.328125 26.671875 
Q 19.625 31.34375 33.296875 31.34375 
L 35.546875 31.34375 
L 35.546875 37.75 
Q 35.546875 46.96875 25.921875 46.96875 
Q 18.453125 46.96875 9.625 42.28125 
L 9.625 50.25 
Q 19.34375 54.203125 27.9375 54.203125 
Q 36.765625 54.203125 40.96875 50.171875 
Q 45.171875 46.140625 45.171875 37.75 
L 45.171875 13.71875 
Q 45.171875 5.46875 50.25 5.46875 
Q 50.875 5.46875 52.09375 5.671875 
L 52.78125 0.34375 
Q 49.515625 -1.21875 45.5625 -1.21875 
Q 38.8125 -1.21875 36.96875 6.734375 
z
M 35.546875 11.96875 
L 35.546875 25.6875 
L 32.46875 25.78125 
Q 24.46875 25.78125 19.5625 22.796875 
Q 14.65625 19.828125 14.65625 14.890625 
Q 14.65625 11.421875 17.09375 9.03125 
Q 19.53125 6.640625 23.046875 6.640625 
Q 29.046875 6.640625 35.546875 11.96875 
z
" id="LucidaSansUnicode-97"/>
       <path d="M 9.625 0 
L 9.625 53.03125 
L 19.234375 53.03125 
L 19.234375 43.0625 
Q 26.859375 54.203125 37.890625 54.203125 
Q 44.828125 54.203125 48.90625 49.828125 
Q 52.984375 45.453125 52.984375 38.09375 
L 52.984375 0 
L 43.359375 0 
L 43.359375 34.96875 
Q 43.359375 40.875 41.625 43.390625 
Q 39.890625 45.90625 35.890625 45.90625 
Q 27.046875 45.90625 19.234375 34.328125 
L 19.234375 0 
z
" id="LucidaSansUnicode-110"/>
       <path d="M 9.625 0 
L 9.625 53.03125 
L 19.234375 53.03125 
L 19.234375 0 
z
M 9.625 62.640625 
L 9.625 72.265625 
L 19.234375 72.265625 
L 19.234375 62.640625 
z
" id="LucidaSansUnicode-105"/>
       <path d="M 9.625 0 
L 9.625 77.09375 
L 19.234375 77.09375 
L 19.234375 0 
z
" id="LucidaSansUnicode-108"/>
       <path id="LucidaSansUnicode-32"/>
       <path d="M 63.625 3.71875 
Q 52.9375 -1.8125 40.28125 -1.8125 
Q 23.4375 -1.8125 14.25 8.046875 
Q 5.078125 17.921875 5.078125 36.078125 
Q 5.078125 54.203125 14.421875 64.140625 
Q 23.78125 74.078125 40.828125 74.078125 
Q 50.484375 74.078125 63.53125 70.90625 
L 63.53125 61.28125 
Q 48.6875 66.40625 40.625 66.40625 
Q 28.859375 66.40625 22.40625 58.4375 
Q 15.96875 50.484375 15.96875 35.984375 
Q 15.96875 22.125 22.84375 14.15625 
Q 29.734375 6.203125 41.703125 6.203125 
Q 51.90625 6.203125 63.625 12.5 
z
" id="LucidaSansUnicode-67"/>
       <path d="M 9.625 0 
L 9.625 53.03125 
L 19.234375 53.03125 
L 19.234375 43.0625 
Q 26.265625 54.203125 37.3125 54.203125 
Q 47.953125 54.203125 51.8125 43.0625 
Q 58.640625 54.25 69.578125 54.25 
Q 76.5625 54.25 80.4375 50.125 
Q 84.328125 46 84.328125 38.578125 
L 84.328125 0 
L 74.65625 0 
L 74.65625 37.0625 
Q 74.65625 46.140625 67.484375 46.140625 
Q 60.015625 46.140625 51.8125 35.546875 
L 51.8125 0 
L 42.140625 0 
L 42.140625 37.0625 
Q 42.140625 46.1875 34.8125 46.1875 
Q 27.546875 46.1875 19.234375 35.546875 
L 19.234375 0 
z
" id="LucidaSansUnicode-109"/>
      </defs>
      <g transform="translate(36.343466 133.685937)rotate(-90)scale(0.06 -0.06)">
       <use xlink:href="#LucidaSansUnicode-77"/>
       <use x="86.132812" xlink:href="#LucidaSansUnicode-97"/>
       <use x="141.357422" xlink:href="#LucidaSansUnicode-110"/>
       <use x="203.417969" xlink:href="#LucidaSansUnicode-105"/>
       <use x="232.324219" xlink:href="#LucidaSansUnicode-108"/>
       <use x="261.230469" xlink:href="#LucidaSansUnicode-97"/>
       <use x="316.455078" xlink:href="#LucidaSansUnicode-32"/>
       <use x="348.095703" xlink:href="#LucidaSansUnicode-67"/>
       <use x="417.285156" xlink:href="#LucidaSansUnicode-108"/>
       <use x="446.191406" xlink:href="#LucidaSansUnicode-97"/>
       <use x="501.416016" xlink:href="#LucidaSansUnicode-109"/>
      </g>
     </g>
    </g>
    <g id="xtick_2">
     <g id="text_2">
      <!-- Whiteleg Shrimp -->
      <defs>
       <path d="M 18.703125 0 
L 0.09375 72.265625 
L 9.96875 72.265625 
L 24.75 15.1875 
L 38.375 72.265625 
L 48.25 72.265625 
L 61.140625 15.96875 
L 77.046875 72.265625 
L 85.40625 72.265625 
L 65.140625 0 
L 54.9375 0 
L 42.1875 55.71875 
L 28.859375 0 
z
" id="LucidaSansUnicode-87"/>
       <path d="M 9.625 0 
L 9.625 77.09375 
L 19.234375 77.09375 
L 19.234375 43.0625 
Q 26.859375 54.203125 37.890625 54.203125 
Q 44.828125 54.203125 48.90625 49.828125 
Q 52.984375 45.453125 52.984375 38.09375 
L 52.984375 0 
L 43.359375 0 
L 43.359375 34.96875 
Q 43.359375 40.875 41.625 43.390625 
Q 39.890625 45.90625 35.890625 45.90625 
Q 27.046875 45.90625 19.234375 34.328125 
L 19.234375 0 
z
" id="LucidaSansUnicode-104"/>
       <path d="M 33.25 0 
Q 28.8125 -1.21875 25.53125 -1.21875 
Q 18.21875 -1.21875 14.109375 2.96875 
Q 10.015625 7.171875 10.015625 14.65625 
L 10.015625 45.796875 
L 3.375 45.796875 
L 3.375 53.03125 
L 10.015625 53.03125 
L 10.015625 62.640625 
L 19.625 63.578125 
L 19.625 53.03125 
L 33.5 53.03125 
L 33.5 45.796875 
L 19.625 45.796875 
L 19.625 16.40625 
Q 19.625 6 28.609375 6 
Q 30.515625 6 33.25 6.640625 
z
" id="LucidaSansUnicode-116"/>
       <path d="M 48.484375 1.703125 
Q 38.8125 -1.21875 31.9375 -1.21875 
Q 20.171875 -1.21875 12.796875 6.5625 
Q 5.421875 14.359375 5.421875 26.765625 
Q 5.421875 38.8125 11.9375 46.53125 
Q 18.453125 54.25 28.609375 54.25 
Q 38.234375 54.25 43.484375 47.390625 
Q 48.734375 40.53125 48.734375 27.9375 
L 48.6875 25 
L 15.234375 25 
Q 17.328125 6.109375 33.734375 6.109375 
Q 39.75 6.109375 48.484375 9.328125 
z
M 15.671875 32.234375 
L 39.0625 32.234375 
Q 39.0625 47.015625 28.03125 47.015625 
Q 16.9375 47.015625 15.671875 32.234375 
z
" id="LucidaSansUnicode-101"/>
       <path d="M 9.8125 -17.625 
L 10.9375 -9.28125 
Q 19.28125 -13.234375 27.4375 -13.234375 
Q 43.65625 -13.234375 43.65625 4 
L 43.65625 12.359375 
Q 41.15625 7.078125 36.546875 4.140625 
Q 31.9375 1.21875 26.265625 1.21875 
Q 16.65625 1.21875 11.03125 8.125 
Q 5.421875 15.046875 5.421875 26.859375 
Q 5.421875 38.96875 11.8125 46.578125 
Q 18.21875 54.203125 28.375 54.203125 
Q 37.25 54.203125 43.65625 46.96875 
L 43.65625 53.03125 
L 53.328125 53.03125 
L 53.328125 14.453125 
Q 53.328125 2 52.03125 -3.984375 
Q 50.734375 -9.96875 47.171875 -13.765625 
Q 40.875 -20.453125 27.484375 -20.453125 
Q 18.3125 -20.453125 9.8125 -17.625 
z
M 43.65625 18.359375 
L 43.65625 40.375 
Q 37.3125 46.96875 29.828125 46.96875 
Q 23.1875 46.96875 19.421875 41.640625 
Q 15.671875 36.328125 15.671875 26.90625 
Q 15.671875 9.625 27.9375 9.625 
Q 36.28125 9.625 43.65625 18.359375 
z
" id="LucidaSansUnicode-103"/>
       <path d="M 4.890625 1.375 
L 4.890625 11.53125 
Q 17.09375 5.859375 25 5.859375 
Q 31 5.859375 34.6875 9.046875 
Q 38.375 12.25 38.375 17.390625 
Q 38.375 21.625 35.953125 24.609375 
Q 33.546875 27.59375 27.046875 31.25 
L 22.078125 34.125 
Q 12.84375 39.40625 9.0625 44.0625 
Q 5.28125 48.734375 5.28125 54.890625 
Q 5.28125 63.28125 11.328125 68.671875 
Q 17.390625 74.078125 26.765625 74.078125 
Q 35.109375 74.078125 44.390625 71.296875 
L 44.390625 61.921875 
Q 32.953125 66.40625 27.34375 66.40625 
Q 22.015625 66.40625 18.546875 63.578125 
Q 15.09375 60.75 15.09375 56.453125 
Q 15.09375 52.828125 17.625 50.046875 
Q 20.171875 47.265625 26.90625 43.40625 
L 32.078125 40.484375 
Q 41.453125 35.15625 45.15625 30.421875 
Q 48.875 25.6875 48.875 19.046875 
Q 48.875 9.625 41.9375 3.90625 
Q 35.015625 -1.8125 23.53125 -1.8125 
Q 16.21875 -1.8125 4.890625 1.375 
z
" id="LucidaSansUnicode-83"/>
       <path d="M 9.625 0 
L 9.625 53.03125 
L 19.234375 53.03125 
L 19.234375 43.0625 
Q 24.953125 54.203125 35.84375 54.203125 
Q 37.3125 54.203125 38.921875 53.953125 
L 38.921875 44.96875 
Q 36.421875 45.796875 34.515625 45.796875 
Q 25.390625 45.796875 19.234375 34.96875 
L 19.234375 0 
z
" id="LucidaSansUnicode-114"/>
       <path d="M 9.625 -19.28125 
L 9.625 53.03125 
L 19.234375 53.03125 
L 19.234375 43.0625 
Q 25.140625 54.203125 36.96875 54.203125 
Q 46.53125 54.203125 52.015625 47.21875 
Q 57.515625 40.234375 57.515625 28.125 
Q 57.515625 14.9375 51.28125 6.859375 
Q 45.0625 -1.21875 34.90625 -1.21875 
Q 25.484375 -1.21875 19.234375 6 
L 19.234375 -19.28125 
z
M 19.234375 12.640625 
Q 26.65625 6 33.40625 6 
Q 40.046875 6 43.65625 11.546875 
Q 47.265625 17.09375 47.265625 27.15625 
Q 47.265625 45.796875 34.96875 45.796875 
Q 26.90625 45.796875 19.234375 37.0625 
z
" id="LucidaSansUnicode-112"/>
      </defs>
      <g transform="translate(58.048569 145.41875)rotate(-90)scale(0.06 -0.06)">
       <use xlink:href="#LucidaSansUnicode-87"/>
       <use x="85.546875" xlink:href="#LucidaSansUnicode-104"/>
       <use x="147.607422" xlink:href="#LucidaSansUnicode-105"/>
       <use x="176.513672" xlink:href="#LucidaSansUnicode-116"/>
       <use x="213.916016" xlink:href="#LucidaSansUnicode-101"/>
       <use x="269.628906" xlink:href="#LucidaSansUnicode-108"/>
       <use x="298.535156" xlink:href="#LucidaSansUnicode-101"/>
       <use x="354.248047" xlink:href="#LucidaSansUnicode-103"/>
       <use x="416.601562" xlink:href="#LucidaSansUnicode-32"/>
       <use x="448.242188" xlink:href="#LucidaSansUnicode-83"/>
       <use x="502.099609" xlink:href="#LucidaSansUnicode-104"/>
       <use x="564.160156" xlink:href="#LucidaSansUnicode-114"/>
       <use x="605.078125" xlink:href="#LucidaSansUnicode-105"/>
       <use x="633.984375" xlink:href="#LucidaSansUnicode-109"/>
       <use x="727.34375" xlink:href="#LucidaSansUnicode-112"/>
      </g>
     </g>
    </g>
    <g id="xtick_3">
     <g id="text_3">
      <!-- Nile Tilapia -->
      <defs>
       <path d="M 9.328125 0 
L 9.328125 72.265625 
L 19.390625 72.265625 
L 55.765625 16.453125 
L 55.765625 72.265625 
L 64.546875 72.265625 
L 64.546875 0 
L 54.546875 0 
L 18.109375 55.8125 
L 18.109375 0 
z
" id="LucidaSansUnicode-78"/>
       <path d="M 26.515625 0 
L 26.515625 64.59375 
L 0.875 64.59375 
L 0.875 72.265625 
L 62.40625 72.265625 
L 62.40625 64.59375 
L 36.765625 64.59375 
L 36.765625 0 
z
" id="LucidaSansUnicode-84"/>
      </defs>
      <g transform="translate(79.823985 130.5425)rotate(-90)scale(0.06 -0.06)">
       <use xlink:href="#LucidaSansUnicode-78"/>
       <use x="73.876953" xlink:href="#LucidaSansUnicode-105"/>
       <use x="102.783203" xlink:href="#LucidaSansUnicode-108"/>
       <use x="131.689453" xlink:href="#LucidaSansUnicode-101"/>
       <use x="187.402344" xlink:href="#LucidaSansUnicode-32"/>
       <use x="219.042969" xlink:href="#LucidaSansUnicode-84"/>
       <use x="282.275391" xlink:href="#LucidaSansUnicode-105"/>
       <use x="311.181641" xlink:href="#LucidaSansUnicode-108"/>
       <use x="340.087891" xlink:href="#LucidaSansUnicode-97"/>
       <use x="395.3125" xlink:href="#LucidaSansUnicode-112"/>
       <use x="458.251953" xlink:href="#LucidaSansUnicode-105"/>
       <use x="487.158203" xlink:href="#LucidaSansUnicode-97"/>
      </g>
     </g>
    </g>
    <g id="xtick_4">
     <g id="text_4">
      <!-- Grass Carp -->
      <defs>
       <path d="M 63.625 1.953125 
Q 50.484375 -1.8125 40.71875 -1.8125 
Q 23.484375 -1.8125 14.28125 7.984375 
Q 5.078125 17.78125 5.078125 36.140625 
Q 5.078125 54.203125 14.421875 64.140625 
Q 23.78125 74.078125 40.71875 74.078125 
Q 51.609375 74.078125 63.53125 70.796875 
L 63.53125 61.328125 
Q 48.578125 66.40625 40.625 66.40625 
Q 28.90625 66.40625 22.4375 58.46875 
Q 15.96875 50.53125 15.96875 36.078125 
Q 15.96875 21.78125 22.890625 13.8125 
Q 29.828125 5.859375 42.328125 5.859375 
Q 47.46875 5.859375 53.421875 7.671875 
L 53.421875 31.203125 
L 63.625 31.203125 
z
" id="LucidaSansUnicode-71"/>
       <path d="M 7.671875 1.859375 
L 7.671875 10.6875 
Q 17.09375 6 24.078125 6 
Q 28.21875 6 30.953125 8.25 
Q 33.6875 10.5 33.6875 13.875 
Q 33.6875 18.796875 26.03125 22.015625 
L 20.40625 24.421875 
Q 7.953125 29.59375 7.953125 39.3125 
Q 7.953125 46.234375 12.859375 50.21875 
Q 17.78125 54.203125 26.3125 54.203125 
Q 30.765625 54.203125 37.3125 52.984375 
L 39.3125 52.59375 
L 39.3125 44.578125 
Q 31.25 46.96875 26.46875 46.96875 
Q 22.265625 46.96875 19.75 45.140625 
Q 17.234375 43.3125 17.234375 40.234375 
Q 17.234375 35.890625 24.265625 32.90625 
L 28.90625 30.953125 
Q 36.765625 27.640625 40.03125 23.953125 
Q 43.3125 20.265625 43.3125 14.75 
Q 43.3125 7.765625 37.796875 3.265625 
Q 32.28125 -1.21875 23.6875 -1.21875 
Q 17.09375 -1.21875 7.671875 1.859375 
z
" id="LucidaSansUnicode-115"/>
      </defs>
      <g transform="translate(101.564245 129.816875)rotate(-90)scale(0.06 -0.06)">
       <use xlink:href="#LucidaSansUnicode-71"/>
       <use x="72.265625" xlink:href="#LucidaSansUnicode-114"/>
       <use x="113.183594" xlink:href="#LucidaSansUnicode-97"/>
       <use x="168.408203" xlink:href="#LucidaSansUnicode-115"/>
       <use x="219.384766" xlink:href="#LucidaSansUnicode-115"/>
       <use x="270.361328" xlink:href="#LucidaSansUnicode-32"/>
       <use x="302.001953" xlink:href="#LucidaSansUnicode-67"/>
       <use x="371.191406" xlink:href="#LucidaSansUnicode-97"/>
       <use x="426.416016" xlink:href="#LucidaSansUnicode-114"/>
       <use x="467.333984" xlink:href="#LucidaSansUnicode-112"/>
      </g>
     </g>
    </g>
    <g id="xtick_5">
     <g id="text_5">
      <!-- Common Carp -->
      <defs>
       <path d="M 30.71875 -1.21875 
Q 19.046875 -1.21875 12.234375 6.25 
Q 5.421875 13.71875 5.421875 26.515625 
Q 5.421875 39.3125 12.234375 46.75 
Q 19.046875 54.203125 30.71875 54.203125 
Q 42.390625 54.203125 49.1875 46.75 
Q 56 39.3125 56 26.515625 
Q 56 13.71875 49.1875 6.25 
Q 42.390625 -1.21875 30.71875 -1.21875 
z
M 30.71875 6 
Q 37.890625 6 41.84375 11.375 
Q 45.796875 16.75 45.796875 26.515625 
Q 45.796875 36.28125 41.84375 41.625 
Q 37.890625 46.96875 30.71875 46.96875 
Q 23.53125 46.96875 19.59375 41.625 
Q 15.671875 36.28125 15.671875 26.515625 
Q 15.671875 16.75 19.59375 11.375 
Q 23.53125 6 30.71875 6 
z
" id="LucidaSansUnicode-111"/>
      </defs>
      <g transform="translate(123.304505 140.043125)rotate(-90)scale(0.06 -0.06)">
       <use xlink:href="#LucidaSansUnicode-67"/>
       <use x="69.189453" xlink:href="#LucidaSansUnicode-111"/>
       <use x="130.615234" xlink:href="#LucidaSansUnicode-109"/>
       <use x="223.974609" xlink:href="#LucidaSansUnicode-109"/>
       <use x="317.333984" xlink:href="#LucidaSansUnicode-111"/>
       <use x="378.759766" xlink:href="#LucidaSansUnicode-110"/>
       <use x="440.820312" xlink:href="#LucidaSansUnicode-32"/>
       <use x="472.460938" xlink:href="#LucidaSansUnicode-67"/>
       <use x="541.650391" xlink:href="#LucidaSansUnicode-97"/>
       <use x="596.875" xlink:href="#LucidaSansUnicode-114"/>
       <use x="637.792969" xlink:href="#LucidaSansUnicode-112"/>
      </g>
     </g>
    </g>
    <g id="xtick_6">
     <g id="text_6">
      <!-- Silver Carp -->
      <defs>
       <path d="M 20.609375 0 
L 0.875 53.03125 
L 10.5 53.03125 
L 25.921875 11.765625 
L 42.1875 53.03125 
L 51.171875 53.03125 
L 30.21875 0 
z
" id="LucidaSansUnicode-118"/>
      </defs>
      <g transform="translate(145.044765 129.199062)rotate(-90)scale(0.06 -0.06)">
       <use xlink:href="#LucidaSansUnicode-83"/>
       <use x="53.857422" xlink:href="#LucidaSansUnicode-105"/>
       <use x="82.763672" xlink:href="#LucidaSansUnicode-108"/>
       <use x="111.669922" xlink:href="#LucidaSansUnicode-118"/>
       <use x="163.427734" xlink:href="#LucidaSansUnicode-101"/>
       <use x="219.140625" xlink:href="#LucidaSansUnicode-114"/>
       <use x="260.058594" xlink:href="#LucidaSansUnicode-32"/>
       <use x="291.699219" xlink:href="#LucidaSansUnicode-67"/>
       <use x="360.888672" xlink:href="#LucidaSansUnicode-97"/>
       <use x="416.113281" xlink:href="#LucidaSansUnicode-114"/>
       <use x="457.03125" xlink:href="#LucidaSansUnicode-112"/>
      </g>
     </g>
    </g>
    <g id="xtick_7">
     <g id="text_7">
      <!-- Bighead Carp -->
      <defs>
       <path d="M 9.328125 0 
L 9.328125 72.265625 
L 28.078125 72.265625 
Q 38.921875 72.265625 44.703125 68.15625 
Q 50.484375 64.0625 50.484375 56.34375 
Q 50.484375 50.09375 46.625 45.203125 
Q 42.78125 40.328125 35.640625 37.640625 
Q 53.375 32.234375 53.375 18.0625 
Q 53.375 11.71875 49.46875 6.78125 
Q 46.484375 3.03125 42.28125 1.515625 
Q 38.09375 0 30.609375 0 
z
M 19.484375 7.671875 
L 21.578125 7.671875 
Q 32.859375 7.671875 36.1875 9.078125 
Q 42.53125 11.765625 42.53125 19.046875 
Q 42.53125 25.484375 36.765625 29.75 
Q 31 34.03125 22.359375 34.03125 
L 19.484375 34.03125 
z
M 19.484375 40.53125 
L 22.75 40.53125 
Q 31 40.53125 35.484375 44.046875 
Q 39.984375 47.5625 39.984375 54.046875 
Q 39.984375 64.59375 23.484375 64.59375 
L 19.484375 64.59375 
z
" id="LucidaSansUnicode-66"/>
       <path d="M 43.65625 0 
L 43.65625 9.96875 
Q 37.796875 -1.21875 25.984375 -1.21875 
Q 16.40625 -1.21875 10.90625 5.765625 
Q 5.421875 12.75 5.421875 24.859375 
Q 5.421875 38.09375 11.640625 46.140625 
Q 17.875 54.203125 28.03125 54.203125 
Q 37.453125 54.203125 43.65625 46.96875 
L 43.65625 77.09375 
L 53.328125 77.09375 
L 53.328125 0 
z
M 43.65625 40.375 
Q 36.1875 46.96875 29.5 46.96875 
Q 22.90625 46.96875 19.28125 41.453125 
Q 15.671875 35.9375 15.671875 25.828125 
Q 15.671875 7.234375 27.984375 7.234375 
Q 35.984375 7.234375 43.65625 15.96875 
z
" id="LucidaSansUnicode-100"/>
      </defs>
      <g transform="translate(166.749868 136.6775)rotate(-90)scale(0.06 -0.06)">
       <use xlink:href="#LucidaSansUnicode-66"/>
       <use x="57.519531" xlink:href="#LucidaSansUnicode-105"/>
       <use x="86.425781" xlink:href="#LucidaSansUnicode-103"/>
       <use x="148.779297" xlink:href="#LucidaSansUnicode-104"/>
       <use x="210.839844" xlink:href="#LucidaSansUnicode-101"/>
       <use x="266.552734" xlink:href="#LucidaSansUnicode-97"/>
       <use x="321.777344" xlink:href="#LucidaSansUnicode-100"/>
       <use x="384.716797" xlink:href="#LucidaSansUnicode-32"/>
       <use x="416.357422" xlink:href="#LucidaSansUnicode-67"/>
       <use x="485.546875" xlink:href="#LucidaSansUnicode-97"/>
       <use x="540.771484" xlink:href="#LucidaSansUnicode-114"/>
       <use x="581.689453" xlink:href="#LucidaSansUnicode-112"/>
      </g>
     </g>
    </g>
    <g id="xtick_8">
     <g id="text_8">
      <!-- other -->
      <g transform="translate(188.525284 113.451875)rotate(-90)scale(0.06 -0.06)">
       <use xlink:href="#LucidaSansUnicode-111"/>
       <use x="61.425781" xlink:href="#LucidaSansUnicode-116"/>
       <use x="98.828125" xlink:href="#LucidaSansUnicode-104"/>
       <use x="160.888672" xlink:href="#LucidaSansUnicode-101"/>
       <use x="216.601562" xlink:href="#LucidaSansUnicode-114"/>
      </g>
     </g>
    </g>
   </g>
   <g id="matplotlib.axis_2">
    <g id="ytick_1">
     <g id="text_9">
      <!-- 0 -->
      <defs>
       <path d="M 31.640625 -1.8125 
Q 20.265625 -1.8125 13.296875 8.609375 
Q 6.34375 19.046875 6.34375 36.140625 
Q 6.34375 53.21875 13.296875 63.640625 
Q 20.265625 74.078125 31.640625 74.078125 
Q 43.0625 74.078125 50 63.671875 
Q 56.9375 53.265625 56.9375 36.140625 
Q 56.9375 19.046875 50 8.609375 
Q 43.0625 -1.8125 31.640625 -1.8125 
z
M 31.640625 5.421875 
Q 46.734375 5.421875 46.734375 36.140625 
Q 46.734375 66.84375 31.640625 66.84375 
Q 16.609375 66.84375 16.609375 36.140625 
Q 16.609375 5.421875 31.640625 5.421875 
z
" id="LucidaSansUnicode-48"/>
      </defs>
      <g transform="translate(19.705938 93.106449)scale(0.06 -0.06)">
       <use xlink:href="#LucidaSansUnicode-48"/>
      </g>
     </g>
    </g>
    <g id="ytick_2">
     <g id="text_10">
      <!-- 25 -->
      <defs>
       <path d="M 8.296875 0 
L 8.296875 8.453125 
Q 12.5 18.265625 25.296875 29.828125 
L 30.8125 34.765625 
Q 41.453125 44.390625 41.453125 53.859375 
Q 41.453125 59.90625 37.8125 63.375 
Q 34.1875 66.84375 27.78125 66.84375 
Q 20.3125 66.84375 10.109375 61.03125 
L 10.109375 69.53125 
Q 19.734375 74.078125 29.25 74.078125 
Q 39.40625 74.078125 45.53125 68.609375 
Q 51.65625 63.140625 51.65625 54.109375 
Q 51.65625 47.609375 48.546875 42.578125 
Q 45.453125 37.546875 37.015625 30.375 
L 33.296875 27.203125 
Q 21.734375 17.390625 19.921875 8.453125 
L 51.3125 8.453125 
L 51.3125 0 
z
" id="LucidaSansUnicode-50"/>
       <path d="M 12.15625 -0.296875 
L 12.15625 8.296875 
Q 19.34375 5.421875 25.828125 5.421875 
Q 32.953125 5.421875 37.03125 9.609375 
Q 41.109375 13.8125 41.109375 21.1875 
Q 41.109375 29.109375 35.34375 33.28125 
Q 29.59375 37.453125 18.703125 37.453125 
Q 16.15625 37.453125 13.375 37.109375 
L 13.375 72.265625 
L 49.953125 72.265625 
L 49.953125 63.875 
L 21.828125 63.875 
L 21.828125 44.828125 
Q 35.75 44.828125 43.5625 38.421875 
Q 51.375 32.03125 51.375 20.703125 
Q 51.375 10.15625 44.265625 4.171875 
Q 37.15625 -1.8125 24.65625 -1.8125 
Q 19.09375 -1.8125 12.15625 -0.296875 
z
" id="LucidaSansUnicode-53"/>
      </defs>
      <g transform="translate(15.911875 78.182462)scale(0.06 -0.06)">
       <use xlink:href="#LucidaSansUnicode-50"/>
       <use x="63.232422" xlink:href="#LucidaSansUnicode-53"/>
      </g>
     </g>
    </g>
    <g id="ytick_3">
     <g id="text_11">
      <!-- 50 -->
      <g transform="translate(15.911875 63.258475)scale(0.06 -0.06)">
       <use xlink:href="#LucidaSansUnicode-53"/>
       <use x="63.232422" xlink:href="#LucidaSansUnicode-48"/>
      </g>
     </g>
    </g>
    <g id="ytick_4">
     <g id="text_12">
      <!-- 75 -->
      <defs>
       <path d="M 15.046875 0 
Q 16.453125 8.453125 19.0625 14.59375 
Q 21.6875 20.75 28.328125 31.5 
L 48.046875 63.234375 
L 10.84375 63.234375 
L 10.84375 72.265625 
L 57.234375 72.265625 
L 57.234375 63.234375 
Q 29.4375 22.265625 26.125 0 
z
" id="LucidaSansUnicode-55"/>
      </defs>
      <g transform="translate(15.911875 48.334488)scale(0.06 -0.06)">
       <use xlink:href="#LucidaSansUnicode-55"/>
       <use x="63.232422" xlink:href="#LucidaSansUnicode-53"/>
      </g>
     </g>
    </g>
    <g id="ytick_5">
     <g id="text_13">
      <!-- 100 -->
      <defs>
       <path d="M 26.171875 0 
L 26.171875 65.046875 
L 14.75 65.046875 
L 14.75 71.09375 
L 35.84375 72.90625 
L 35.84375 0 
z
" id="LucidaSansUnicode-49"/>
      </defs>
      <g transform="translate(12.117813 33.410501)scale(0.06 -0.06)">
       <use xlink:href="#LucidaSansUnicode-49"/>
       <use x="63.232422" xlink:href="#LucidaSansUnicode-48"/>
       <use x="126.464844" xlink:href="#LucidaSansUnicode-48"/>
      </g>
     </g>
    </g>
    <g id="ytick_6">
     <g id="text_14">
      <!-- 125 -->
      <g transform="translate(12.117813 18.486514)scale(0.06 -0.06)">
       <use xlink:href="#LucidaSansUnicode-49"/>
       <use x="63.232422" xlink:href="#LucidaSansUnicode-50"/>
       <use x="126.464844" xlink:href="#LucidaSansUnicode-53"/>
      </g>
     </g>
    </g>
    <g id="text_15">
     <!-- estimated processed -->
     <defs>
      <path d="M 46.4375 1.609375 
Q 37.109375 -1.21875 30.328125 -1.21875 
Q 19.578125 -1.21875 12.5 6.734375 
Q 5.421875 14.703125 5.421875 26.8125 
Q 5.421875 39.75 12.421875 46.96875 
Q 19.4375 54.203125 31.984375 54.203125 
Q 38.1875 54.203125 45.84375 52.484375 
L 45.84375 44.4375 
Q 37.703125 46.828125 32.5625 46.828125 
Q 25.140625 46.828125 20.703125 41.28125 
Q 16.265625 35.75 16.265625 26.515625 
Q 16.265625 17.578125 20.84375 12.0625 
Q 25.4375 6.546875 32.859375 6.546875 
Q 39.453125 6.546875 46.4375 9.90625 
z
" id="LucidaSansUnicode-99"/>
     </defs>
     <g style="fill:#262626;" transform="translate(0.253313 83.794219)rotate(-90)scale(0.06 -0.06)">
      <use xlink:href="#LucidaSansUnicode-101"/>
      <use x="55.712891" xlink:href="#LucidaSansUnicode-115"/>
      <use x="106.689453" xlink:href="#LucidaSansUnicode-116"/>
      <use x="144.091797" xlink:href="#LucidaSansUnicode-105"/>
      <use x="172.998047" xlink:href="#LucidaSansUnicode-109"/>
      <use x="266.357422" xlink:href="#LucidaSansUnicode-97"/>
      <use x="321.582031" xlink:href="#LucidaSansUnicode-116"/>
      <use x="358.984375" xlink:href="#LucidaSansUnicode-101"/>
      <use x="414.697266" xlink:href="#LucidaSansUnicode-100"/>
      <use x="477.636719" xlink:href="#LucidaSansUnicode-32"/>
      <use x="509.277344" xlink:href="#LucidaSansUnicode-112"/>
      <use x="572.216797" xlink:href="#LucidaSansUnicode-114"/>
      <use x="613.134766" xlink:href="#LucidaSansUnicode-111"/>
      <use x="674.560547" xlink:href="#LucidaSansUnicode-99"/>
      <use x="725.78125" xlink:href="#LucidaSansUnicode-101"/>
      <use x="781.494141" xlink:href="#LucidaSansUnicode-115"/>
      <use x="832.470703" xlink:href="#LucidaSansUnicode-115"/>
      <use x="883.447266" xlink:href="#LucidaSansUnicode-101"/>
      <use x="939.160156" xlink:href="#LucidaSansUnicode-100"/>
     </g>
     <!-- population [billions] -->
     <defs>
      <path d="M 42.78125 0 
L 42.78125 9.96875 
Q 35.109375 -1.21875 24.171875 -1.21875 
Q 17.234375 -1.21875 13.125 3.140625 
Q 9.03125 7.515625 9.03125 14.9375 
L 9.03125 53.03125 
L 18.65625 53.03125 
L 18.65625 18.0625 
Q 18.65625 12.109375 20.390625 9.59375 
Q 22.125 7.078125 26.171875 7.078125 
Q 34.96875 7.078125 42.78125 18.65625 
L 42.78125 53.03125 
L 52.390625 53.03125 
L 52.390625 0 
z
" id="LucidaSansUnicode-117"/>
      <path d="M 9.625 -14.453125 
L 9.625 77.09375 
L 28.90625 77.09375 
L 28.90625 69.875 
L 18.0625 69.875 
L 18.0625 -7.234375 
L 28.90625 -7.234375 
L 28.90625 -14.453125 
z
" id="LucidaSansUnicode-91"/>
      <path d="M 9.625 -0.59375 
L 9.625 77.09375 
L 19.234375 77.09375 
L 19.234375 43.0625 
Q 25.140625 54.203125 36.96875 54.203125 
Q 46.53125 54.203125 52.015625 47.21875 
Q 57.515625 40.234375 57.515625 28.125 
Q 57.515625 14.9375 51.28125 6.859375 
Q 45.0625 -1.21875 34.90625 -1.21875 
Q 25.484375 -1.21875 19.234375 6 
L 18.0625 -0.59375 
z
M 19.234375 12.640625 
Q 26.65625 6 33.40625 6 
Q 40.046875 6 43.65625 11.546875 
Q 47.265625 17.09375 47.265625 27.15625 
Q 47.265625 45.796875 34.96875 45.796875 
Q 26.90625 45.796875 19.234375 37.0625 
z
" id="LucidaSansUnicode-98"/>
      <path d="M 22.90625 77.09375 
L 22.90625 -14.453125 
L 3.609375 -14.453125 
L 3.609375 -7.234375 
L 14.453125 -7.234375 
L 14.453125 69.875 
L 3.609375 69.875 
L 3.609375 77.09375 
z
" id="LucidaSansUnicode-93"/>
     </defs>
     <g style="fill:#262626;" transform="translate(6.960938 82.919531)rotate(-90)scale(0.06 -0.06)">
      <use xlink:href="#LucidaSansUnicode-112"/>
      <use x="62.939453" xlink:href="#LucidaSansUnicode-111"/>
      <use x="124.365234" xlink:href="#LucidaSansUnicode-112"/>
      <use x="187.304688" xlink:href="#LucidaSansUnicode-117"/>
      <use x="249.365234" xlink:href="#LucidaSansUnicode-108"/>
      <use x="278.271484" xlink:href="#LucidaSansUnicode-97"/>
      <use x="333.496094" xlink:href="#LucidaSansUnicode-116"/>
      <use x="370.898438" xlink:href="#LucidaSansUnicode-105"/>
      <use x="399.804688" xlink:href="#LucidaSansUnicode-111"/>
      <use x="461.230469" xlink:href="#LucidaSansUnicode-110"/>
      <use x="523.291016" xlink:href="#LucidaSansUnicode-32"/>
      <use x="554.931641" xlink:href="#LucidaSansUnicode-91"/>
      <use x="587.451172" xlink:href="#LucidaSansUnicode-98"/>
      <use x="650.390625" xlink:href="#LucidaSansUnicode-105"/>
      <use x="679.296875" xlink:href="#LucidaSansUnicode-108"/>
      <use x="708.203125" xlink:href="#LucidaSansUnicode-108"/>
      <use x="737.109375" xlink:href="#LucidaSansUnicode-105"/>
      <use x="766.015625" xlink:href="#LucidaSansUnicode-111"/>
      <use x="827.441406" xlink:href="#LucidaSansUnicode-110"/>
      <use x="889.501953" xlink:href="#LucidaSansUnicode-115"/>
      <use x="940.478516" xlink:href="#LucidaSansUnicode-93"/>
     </g>
    </g>
   </g>
   <g id="LineCollection_1">
    <path clip-path="url(#p7a7ec5c837)" d="M 34.609091 90.793636 
L 34.609091 16.666364 
" style="fill:none;stroke:#738fc1;"/>
    <path clip-path="url(#p7a7ec5c837)" d="M 56.349351 90.793636 
L 56.349351 61.147193 
" style="fill:none;stroke:#738fc1;"/>
    <path clip-path="url(#p7a7ec5c837)" d="M 78.08961 90.793636 
L 78.08961 89.442887 
" style="fill:none;stroke:#738fc1;"/>
    <path clip-path="url(#p7a7ec5c837)" d="M 99.82987 90.793636 
L 99.82987 89.885629 
" style="fill:none;stroke:#738fc1;"/>
    <path clip-path="url(#p7a7ec5c837)" d="M 121.57013 90.793636 
L 121.57013 90.293441 
" style="fill:none;stroke:#738fc1;"/>
    <path clip-path="url(#p7a7ec5c837)" d="M 143.31039 90.793636 
L 143.31039 90.564953 
" style="fill:none;stroke:#738fc1;"/>
    <path clip-path="url(#p7a7ec5c837)" d="M 165.050649 90.793636 
L 165.050649 90.699803 
" style="fill:none;stroke:#738fc1;"/>
    <path clip-path="url(#p7a7ec5c837)" d="M 186.790909 90.793636 
L 186.790909 80.717252 
" style="fill:none;stroke:#738fc1;"/>
   </g>
   <g id="line2d_1">
    <defs>
     <path d="M 0 1.5 
C 0.397805 1.5 0.77937 1.341951 1.06066 1.06066 
C 1.341951 0.77937 1.5 0.397805 1.5 0 
C 1.5 -0.397805 1.341951 -0.77937 1.06066 -1.06066 
C 0.77937 -1.341951 0.397805 -1.5 0 -1.5 
C -0.397805 -1.5 -0.77937 -1.341951 -1.06066 -1.06066 
C -1.341951 -0.77937 -1.5 -0.397805 -1.5 0 
C -1.5 0.397805 -1.341951 0.77937 -1.06066 1.06066 
C -0.77937 1.341951 -0.397805 1.5 0 1.5 
z
" id="m5edaf4bbee" style="stroke:#738fc1;"/>
    </defs>
    <g clip-path="url(#p7a7ec5c837)">
     <use style="fill:#738fc1;stroke:#738fc1;" x="34.609091" xlink:href="#m5edaf4bbee" y="16.666364"/>
     <use style="fill:#738fc1;stroke:#738fc1;" x="56.349351" xlink:href="#m5edaf4bbee" y="61.147193"/>
     <use style="fill:#738fc1;stroke:#738fc1;" x="78.08961" xlink:href="#m5edaf4bbee" y="89.442887"/>
     <use style="fill:#738fc1;stroke:#738fc1;" x="99.82987" xlink:href="#m5edaf4bbee" y="89.885629"/>
     <use style="fill:#738fc1;stroke:#738fc1;" x="121.57013" xlink:href="#m5edaf4bbee" y="90.293441"/>
     <use style="fill:#738fc1;stroke:#738fc1;" x="143.31039" xlink:href="#m5edaf4bbee" y="90.564953"/>
     <use style="fill:#738fc1;stroke:#738fc1;" x="165.050649" xlink:href="#m5edaf4bbee" y="90.699803"/>
     <use style="fill:#738fc1;stroke:#738fc1;" x="186.790909" xlink:href="#m5edaf4bbee" y="80.717252"/>
    </g>
   </g>
   <g id="patch_3">
    <path d="M 27 94.5 
L 27 12.96 
" style="fill:none;stroke:#ffffff;stroke-linecap:square;stroke-linejoin:miter;stroke-width:0.8;"/>
   </g>
   <g id="patch_4">
    <path d="M 194.4 94.5 
L 194.4 12.96 
" style="fill:none;stroke:#ffffff;stroke-linecap:square;stroke-linejoin:miter;stroke-width:0.8;"/>
   </g>
   <g id="patch_5">
    <path d="M 27 94.5 
L 194.4 94.5 
" style="fill:none;stroke:#ffffff;stroke-linecap:square;stroke-linejoin:miter;stroke-width:0.8;"/>
   </g>
   <g id="patch_6">
    <path d="M 27 12.96 
L 194.4 12.96 
" style="fill:none;stroke:#ffffff;stroke-linecap:square;stroke-linejoin:miter;stroke-width:0.8;"/>
   </g>
  </g>
 </g>
 <defs>
  <clipPath id="p7a7ec5c837">
   <rect height="81.54" width="167.4" x="27" y="12.96"/>
  </clipPath>
 </defs>
</svg>
