<?xml version="1.0" encoding="utf-8" standalone="no"?>
<!DOCTYPE svg PUBLIC "-//W3C//DTD SVG 1.1//EN"
  "http://www.w3.org/Graphics/SVG/1.1/DTD/svg11.dtd">
<!-- Created with matplotlib (https://matplotlib.org/) -->
<svg height="128.595pt" version="1.1" viewBox="0 0 211.773938 128.595" width="211.773938pt" xmlns="http://www.w3.org/2000/svg" xmlns:xlink="http://www.w3.org/1999/xlink">
 <defs>
  <style type="text/css">
*{stroke-linecap:butt;stroke-linejoin:round;}
  </style>
 </defs>
 <g id="figure_1">
  <g id="patch_1">
   <path d="M 0 128.595 
L 211.773938 128.595 
L 211.773938 0 
L 0 0 
z
" style="fill:#ffffff;"/>
  </g>
  <g id="axes_1">
   <g id="patch_2">
    <path d="M 37.173938 102.33 
L 204.573937 102.33 
L 204.573937 7.2 
L 37.173938 7.2 
z
" style="fill:#e3dcd0;"/>
   </g>
   <g id="matplotlib.axis_1">
    <g id="xtick_1">
     <g id="text_1">
      <!-- 1960 -->
      <defs>
       <path d="M 26.171875 0 
L 26.171875 65.046875 
L 14.75 65.046875 
L 14.75 71.09375 
L 35.84375 72.90625 
L 35.84375 0 
z
" id="LucidaSansUnicode-49"/>
       <path d="M 11.375 0.4375 
L 11.375 8.59375 
Q 20.5625 5.421875 27 5.421875 
Q 35.984375 5.421875 41.03125 13.0625 
Q 46.09375 20.703125 46.09375 34.328125 
Q 38.765625 25.296875 29.4375 25.296875 
Q 20.3125 25.296875 13.96875 32 
Q 7.625 38.71875 7.625 48.390625 
Q 7.625 59.46875 14.375 66.765625 
Q 21.140625 74.078125 31.390625 74.078125 
Q 43.171875 74.078125 49.953125 64.625 
Q 56.734375 55.171875 56.734375 38.765625 
Q 56.734375 28.328125 53.46875 19.109375 
Q 50.203125 9.90625 44.671875 4.78125 
Q 37.59375 -1.8125 26.078125 -1.8125 
Q 20.40625 -1.8125 11.375 0.4375 
z
M 17.234375 50.046875 
Q 17.234375 41.796875 20.984375 37.015625 
Q 24.75 32.234375 31.15625 32.234375 
Q 37.3125 32.234375 41.625 36.375 
Q 45.953125 40.53125 45.953125 46.390625 
Q 45.953125 55.609375 41.765625 61.25 
Q 37.59375 66.890625 30.8125 66.890625 
Q 24.46875 66.890625 20.84375 62.390625 
Q 17.234375 57.90625 17.234375 50.046875 
z
" id="LucidaSansUnicode-57"/>
       <path d="M 17.1875 37.453125 
Q 24.078125 46.390625 34.515625 46.390625 
Q 44 46.390625 50.03125 40.109375 
Q 56.0625 33.84375 56.0625 24.03125 
Q 56.0625 12.75 49.296875 5.46875 
Q 42.53125 -1.8125 32.078125 -1.8125 
Q 20.171875 -1.8125 13.421875 7.828125 
Q 6.6875 17.484375 6.6875 34.515625 
Q 6.6875 57.46875 18.453125 68.21875 
Q 24.859375 74.125 36.140625 74.125 
Q 42.671875 74.125 52.34375 71.390625 
L 52.34375 62.984375 
Q 42.140625 66.890625 35.546875 66.890625 
Q 17.1875 66.890625 17.1875 37.453125 
z
M 46.390625 22.125 
Q 46.390625 30.125 42.671875 34.78125 
Q 38.96875 39.453125 32.515625 39.453125 
Q 26.375 39.453125 21.96875 35.34375 
Q 17.578125 31.25 17.578125 25.484375 
Q 17.578125 16.40625 21.75 10.90625 
Q 25.921875 5.421875 32.8125 5.421875 
Q 39.0625 5.421875 42.71875 9.90625 
Q 46.390625 14.40625 46.390625 22.125 
z
" id="LucidaSansUnicode-54"/>
       <path d="M 31.640625 -1.8125 
Q 20.265625 -1.8125 13.296875 8.609375 
Q 6.34375 19.046875 6.34375 36.140625 
Q 6.34375 53.21875 13.296875 63.640625 
Q 20.265625 74.078125 31.640625 74.078125 
Q 43.0625 74.078125 50 63.671875 
Q 56.9375 53.265625 56.9375 36.140625 
Q 56.9375 19.046875 50 8.609375 
Q 43.0625 -1.8125 31.640625 -1.8125 
z
M 31.640625 5.421875 
Q 46.734375 5.421875 46.734375 36.140625 
Q 46.734375 66.84375 31.640625 66.84375 
Q 16.609375 66.84375 16.609375 36.140625 
Q 16.609375 5.421875 31.640625 5.421875 
z
" id="LucidaSansUnicode-48"/>
      </defs>
      <g transform="translate(52.07238 110.455625)scale(0.06 -0.06)">
       <use xlink:href="#LucidaSansUnicode-49"/>
       <use x="63.232422" xlink:href="#LucidaSansUnicode-57"/>
       <use x="126.464844" xlink:href="#LucidaSansUnicode-54"/>
       <use x="189.697266" xlink:href="#LucidaSansUnicode-48"/>
      </g>
     </g>
    </g>
    <g id="xtick_2">
     <g id="text_2">
      <!-- 1970 -->
      <defs>
       <path d="M 15.046875 0 
Q 16.453125 8.453125 19.0625 14.59375 
Q 21.6875 20.75 28.328125 31.5 
L 48.046875 63.234375 
L 10.84375 63.234375 
L 10.84375 72.265625 
L 57.234375 72.265625 
L 57.234375 63.234375 
Q 29.4375 22.265625 26.125 0 
z
" id="LucidaSansUnicode-55"/>
      </defs>
      <g transform="translate(77.057454 110.455625)scale(0.06 -0.06)">
       <use xlink:href="#LucidaSansUnicode-49"/>
       <use x="63.232422" xlink:href="#LucidaSansUnicode-57"/>
       <use x="126.464844" xlink:href="#LucidaSansUnicode-55"/>
       <use x="189.697266" xlink:href="#LucidaSansUnicode-48"/>
      </g>
     </g>
    </g>
    <g id="xtick_3">
     <g id="text_3">
      <!-- 1980 -->
      <defs>
       <path d="M 23 39.359375 
Q 17.046875 43.5 14.71875 47.0625 
Q 12.40625 50.640625 12.40625 55.671875 
Q 12.40625 63.875 18.40625 69 
Q 24.421875 74.125 34.078125 74.125 
Q 43.015625 74.125 48.5625 69.78125 
Q 54.109375 65.4375 54.109375 58.5 
Q 54.109375 48 40.625 39.359375 
Q 56.984375 31.34375 56.984375 18.703125 
Q 56.984375 9.671875 50.140625 3.921875 
Q 43.3125 -1.8125 32.5625 -1.8125 
Q 21.828125 -1.8125 15.234375 3.578125 
Q 8.640625 8.984375 8.640625 17.78125 
Q 8.640625 30.765625 23 39.359375 
z
M 35.25 42.390625 
Q 45.359375 49.03125 45.359375 57.171875 
Q 45.359375 61.53125 41.96875 64.1875 
Q 38.578125 66.84375 33.109375 66.84375 
Q 27.78125 66.84375 24.453125 64.234375 
Q 21.140625 61.625 21.140625 57.46875 
Q 21.140625 53.421875 24.140625 50.1875 
Q 27.15625 46.96875 35.25 42.390625 
z
M 28.21875 35.453125 
Q 22.40625 30.953125 20.328125 27.609375 
Q 18.265625 24.265625 18.265625 19.28125 
Q 18.265625 13.09375 22.265625 9.25 
Q 26.265625 5.421875 32.8125 5.421875 
Q 39.109375 5.421875 43.09375 8.6875 
Q 47.078125 11.96875 47.078125 17.1875 
Q 47.078125 21.390625 44.609375 24.296875 
Q 42.140625 27.203125 35.0625 31.390625 
z
" id="LucidaSansUnicode-56"/>
      </defs>
      <g transform="translate(102.042529 110.455625)scale(0.06 -0.06)">
       <use xlink:href="#LucidaSansUnicode-49"/>
       <use x="63.232422" xlink:href="#LucidaSansUnicode-57"/>
       <use x="126.464844" xlink:href="#LucidaSansUnicode-56"/>
       <use x="189.697266" xlink:href="#LucidaSansUnicode-48"/>
      </g>
     </g>
    </g>
    <g id="xtick_4">
     <g id="text_4">
      <!-- 1990 -->
      <g transform="translate(127.027604 110.455625)scale(0.06 -0.06)">
       <use xlink:href="#LucidaSansUnicode-49"/>
       <use x="63.232422" xlink:href="#LucidaSansUnicode-57"/>
       <use x="126.464844" xlink:href="#LucidaSansUnicode-57"/>
       <use x="189.697266" xlink:href="#LucidaSansUnicode-48"/>
      </g>
     </g>
    </g>
    <g id="xtick_5">
     <g id="text_5">
      <!-- 2000 -->
      <defs>
       <path d="M 8.296875 0 
L 8.296875 8.453125 
Q 12.5 18.265625 25.296875 29.828125 
L 30.8125 34.765625 
Q 41.453125 44.390625 41.453125 53.859375 
Q 41.453125 59.90625 37.8125 63.375 
Q 34.1875 66.84375 27.78125 66.84375 
Q 20.3125 66.84375 10.109375 61.03125 
L 10.109375 69.53125 
Q 19.734375 74.078125 29.25 74.078125 
Q 39.40625 74.078125 45.53125 68.609375 
Q 51.65625 63.140625 51.65625 54.109375 
Q 51.65625 47.609375 48.546875 42.578125 
Q 45.453125 37.546875 37.015625 30.375 
L 33.296875 27.203125 
Q 21.734375 17.390625 19.921875 8.453125 
L 51.3125 8.453125 
L 51.3125 0 
z
" id="LucidaSansUnicode-50"/>
      </defs>
      <g transform="translate(152.012678 110.455625)scale(0.06 -0.06)">
       <use xlink:href="#LucidaSansUnicode-50"/>
       <use x="63.232422" xlink:href="#LucidaSansUnicode-48"/>
       <use x="126.464844" xlink:href="#LucidaSansUnicode-48"/>
       <use x="189.697266" xlink:href="#LucidaSansUnicode-48"/>
      </g>
     </g>
    </g>
    <g id="xtick_6">
     <g id="text_6">
      <!-- 2010 -->
      <g transform="translate(176.997753 110.455625)scale(0.06 -0.06)">
       <use xlink:href="#LucidaSansUnicode-50"/>
       <use x="63.232422" xlink:href="#LucidaSansUnicode-48"/>
       <use x="126.464844" xlink:href="#LucidaSansUnicode-49"/>
       <use x="189.697266" xlink:href="#LucidaSansUnicode-48"/>
      </g>
     </g>
    </g>
    <g id="text_7">
     <!-- year -->
     <defs>
      <path d="M 12.703125 -19.28125 
L 21.296875 0 
L 0.78125 53.03125 
L 11.1875 53.03125 
L 26.375 13.09375 
L 42.578125 53.03125 
L 51.65625 53.03125 
L 22.703125 -19.28125 
z
" id="LucidaSansUnicode-121"/>
      <path d="M 48.484375 1.703125 
Q 38.8125 -1.21875 31.9375 -1.21875 
Q 20.171875 -1.21875 12.796875 6.5625 
Q 5.421875 14.359375 5.421875 26.765625 
Q 5.421875 38.8125 11.9375 46.53125 
Q 18.453125 54.25 28.609375 54.25 
Q 38.234375 54.25 43.484375 47.390625 
Q 48.734375 40.53125 48.734375 27.9375 
L 48.6875 25 
L 15.234375 25 
Q 17.328125 6.109375 33.734375 6.109375 
Q 39.75 6.109375 48.484375 9.328125 
z
M 15.671875 32.234375 
L 39.0625 32.234375 
Q 39.0625 47.015625 28.03125 47.015625 
Q 16.9375 47.015625 15.671875 32.234375 
z
" id="LucidaSansUnicode-101"/>
      <path d="M 36.96875 6.734375 
Q 28.328125 -1.21875 20.3125 -1.21875 
Q 13.71875 -1.21875 9.375 2.90625 
Q 5.03125 7.03125 5.03125 13.328125 
Q 5.03125 22.015625 12.328125 26.671875 
Q 19.625 31.34375 33.296875 31.34375 
L 35.546875 31.34375 
L 35.546875 37.75 
Q 35.546875 46.96875 25.921875 46.96875 
Q 18.453125 46.96875 9.625 42.28125 
L 9.625 50.25 
Q 19.34375 54.203125 27.9375 54.203125 
Q 36.765625 54.203125 40.96875 50.171875 
Q 45.171875 46.140625 45.171875 37.75 
L 45.171875 13.71875 
Q 45.171875 5.46875 50.25 5.46875 
Q 50.875 5.46875 52.09375 5.671875 
L 52.78125 0.34375 
Q 49.515625 -1.21875 45.5625 -1.21875 
Q 38.8125 -1.21875 36.96875 6.734375 
z
M 35.546875 11.96875 
L 35.546875 25.6875 
L 32.46875 25.78125 
Q 24.46875 25.78125 19.5625 22.796875 
Q 14.65625 19.828125 14.65625 14.890625 
Q 14.65625 11.421875 17.09375 9.03125 
Q 19.53125 6.640625 23.046875 6.640625 
Q 29.046875 6.640625 35.546875 11.96875 
z
" id="LucidaSansUnicode-97"/>
      <path d="M 9.625 0 
L 9.625 53.03125 
L 19.234375 53.03125 
L 19.234375 43.0625 
Q 24.953125 54.203125 35.84375 54.203125 
Q 37.3125 54.203125 38.921875 53.953125 
L 38.921875 44.96875 
Q 36.421875 45.796875 34.515625 45.796875 
Q 25.390625 45.796875 19.234375 34.96875 
L 19.234375 0 
z
" id="LucidaSansUnicode-114"/>
     </defs>
     <g style="fill:#262626;" transform="translate(114.750656 120.238125)scale(0.06 -0.06)">
      <use xlink:href="#LucidaSansUnicode-121"/>
      <use x="52.246094" xlink:href="#LucidaSansUnicode-101"/>
      <use x="107.958984" xlink:href="#LucidaSansUnicode-97"/>
      <use x="163.183594" xlink:href="#LucidaSansUnicode-114"/>
     </g>
    </g>
   </g>
   <g id="matplotlib.axis_2">
    <g id="ytick_1">
     <g id="text_8">
      <!-- 0.0 -->
      <defs>
       <path d="M 9.765625 0 
L 9.765625 12.0625 
L 21.828125 12.0625 
L 21.828125 0 
z
" id="LucidaSansUnicode-46"/>
      </defs>
      <g transform="translate(24.187375 104.642813)scale(0.06 -0.06)">
       <use xlink:href="#LucidaSansUnicode-48"/>
       <use x="63.232422" xlink:href="#LucidaSansUnicode-46"/>
       <use x="94.873047" xlink:href="#LucidaSansUnicode-48"/>
      </g>
     </g>
    </g>
    <g id="ytick_2">
     <g id="text_9">
      <!-- 0.5 -->
      <defs>
       <path d="M 12.15625 -0.296875 
L 12.15625 8.296875 
Q 19.34375 5.421875 25.828125 5.421875 
Q 32.953125 5.421875 37.03125 9.609375 
Q 41.109375 13.8125 41.109375 21.1875 
Q 41.109375 29.109375 35.34375 33.28125 
Q 29.59375 37.453125 18.703125 37.453125 
Q 16.15625 37.453125 13.375 37.109375 
L 13.375 72.265625 
L 49.953125 72.265625 
L 49.953125 63.875 
L 21.828125 63.875 
L 21.828125 44.828125 
Q 35.75 44.828125 43.5625 38.421875 
Q 51.375 32.03125 51.375 20.703125 
Q 51.375 10.15625 44.265625 4.171875 
Q 37.15625 -1.8125 24.65625 -1.8125 
Q 19.09375 -1.8125 12.15625 -0.296875 
z
" id="LucidaSansUnicode-53"/>
      </defs>
      <g transform="translate(24.187375 83.502813)scale(0.06 -0.06)">
       <use xlink:href="#LucidaSansUnicode-48"/>
       <use x="63.232422" xlink:href="#LucidaSansUnicode-46"/>
       <use x="94.873047" xlink:href="#LucidaSansUnicode-53"/>
      </g>
     </g>
    </g>
    <g id="ytick_3">
     <g id="text_10">
      <!-- 1.0 -->
      <g transform="translate(24.187375 62.362813)scale(0.06 -0.06)">
       <use xlink:href="#LucidaSansUnicode-49"/>
       <use x="63.232422" xlink:href="#LucidaSansUnicode-46"/>
       <use x="94.873047" xlink:href="#LucidaSansUnicode-48"/>
      </g>
     </g>
    </g>
    <g id="ytick_4">
     <g id="text_11">
      <!-- 1.5 -->
      <g transform="translate(24.187375 41.222813)scale(0.06 -0.06)">
       <use xlink:href="#LucidaSansUnicode-49"/>
       <use x="63.232422" xlink:href="#LucidaSansUnicode-46"/>
       <use x="94.873047" xlink:href="#LucidaSansUnicode-53"/>
      </g>
     </g>
    </g>
    <g id="ytick_5">
     <g id="text_12">
      <!-- 2.0 -->
      <g transform="translate(24.187375 20.082813)scale(0.06 -0.06)">
       <use xlink:href="#LucidaSansUnicode-50"/>
       <use x="63.232422" xlink:href="#LucidaSansUnicode-46"/>
       <use x="94.873047" xlink:href="#LucidaSansUnicode-48"/>
      </g>
     </g>
    </g>
    <g id="text_13">
     <!-- seafood (animal) -->
     <defs>
      <path d="M 7.671875 1.859375 
L 7.671875 10.6875 
Q 17.09375 6 24.078125 6 
Q 28.21875 6 30.953125 8.25 
Q 33.6875 10.5 33.6875 13.875 
Q 33.6875 18.796875 26.03125 22.015625 
L 20.40625 24.421875 
Q 7.953125 29.59375 7.953125 39.3125 
Q 7.953125 46.234375 12.859375 50.21875 
Q 17.78125 54.203125 26.3125 54.203125 
Q 30.765625 54.203125 37.3125 52.984375 
L 39.3125 52.59375 
L 39.3125 44.578125 
Q 31.25 46.96875 26.46875 46.96875 
Q 22.265625 46.96875 19.75 45.140625 
Q 17.234375 43.3125 17.234375 40.234375 
Q 17.234375 35.890625 24.265625 32.90625 
L 28.90625 30.953125 
Q 36.765625 27.640625 40.03125 23.953125 
Q 43.3125 20.265625 43.3125 14.75 
Q 43.3125 7.765625 37.796875 3.265625 
Q 32.28125 -1.21875 23.6875 -1.21875 
Q 17.09375 -1.21875 7.671875 1.859375 
z
" id="LucidaSansUnicode-115"/>
      <path d="M 11.421875 0 
L 11.421875 45.796875 
L 3.90625 45.796875 
L 3.90625 53.03125 
L 11.421875 53.03125 
L 11.421875 59.375 
Q 11.421875 78.328125 28.71875 78.328125 
Q 33.546875 78.328125 39.703125 76.703125 
L 39.703125 69.09375 
Q 33.203125 71.09375 29.296875 71.09375 
Q 24.5625 71.09375 22.828125 68.8125 
Q 21.09375 66.546875 21.09375 60.40625 
L 21.09375 53.03125 
L 34.328125 53.03125 
L 34.328125 45.796875 
L 21.09375 45.796875 
L 21.09375 0 
z
" id="LucidaSansUnicode-102"/>
      <path d="M 30.71875 -1.21875 
Q 19.046875 -1.21875 12.234375 6.25 
Q 5.421875 13.71875 5.421875 26.515625 
Q 5.421875 39.3125 12.234375 46.75 
Q 19.046875 54.203125 30.71875 54.203125 
Q 42.390625 54.203125 49.1875 46.75 
Q 56 39.3125 56 26.515625 
Q 56 13.71875 49.1875 6.25 
Q 42.390625 -1.21875 30.71875 -1.21875 
z
M 30.71875 6 
Q 37.890625 6 41.84375 11.375 
Q 45.796875 16.75 45.796875 26.515625 
Q 45.796875 36.28125 41.84375 41.625 
Q 37.890625 46.96875 30.71875 46.96875 
Q 23.53125 46.96875 19.59375 41.625 
Q 15.671875 36.28125 15.671875 26.515625 
Q 15.671875 16.75 19.59375 11.375 
Q 23.53125 6 30.71875 6 
z
" id="LucidaSansUnicode-111"/>
      <path d="M 43.65625 0 
L 43.65625 9.96875 
Q 37.796875 -1.21875 25.984375 -1.21875 
Q 16.40625 -1.21875 10.90625 5.765625 
Q 5.421875 12.75 5.421875 24.859375 
Q 5.421875 38.09375 11.640625 46.140625 
Q 17.875 54.203125 28.03125 54.203125 
Q 37.453125 54.203125 43.65625 46.96875 
L 43.65625 77.09375 
L 53.328125 77.09375 
L 53.328125 0 
z
M 43.65625 40.375 
Q 36.1875 46.96875 29.5 46.96875 
Q 22.90625 46.96875 19.28125 41.453125 
Q 15.671875 35.9375 15.671875 25.828125 
Q 15.671875 7.234375 27.984375 7.234375 
Q 35.984375 7.234375 43.65625 15.96875 
z
" id="LucidaSansUnicode-100"/>
      <path id="LucidaSansUnicode-32"/>
      <path d="M 28.90625 -7.8125 
L 28.90625 -14.453125 
Q 18.359375 -7.28125 12.171875 5.046875 
Q 6 17.390625 6 31.34375 
Q 6 45.265625 12.171875 57.59375 
Q 18.359375 69.921875 28.90625 77.09375 
L 28.90625 70.453125 
Q 21.734375 62.640625 18.671875 53.65625 
Q 15.625 44.671875 15.625 31.34375 
Q 15.625 17.96875 18.671875 8.984375 
Q 21.734375 0 28.90625 -7.8125 
z
" id="LucidaSansUnicode-40"/>
      <path d="M 9.625 0 
L 9.625 53.03125 
L 19.234375 53.03125 
L 19.234375 43.0625 
Q 26.859375 54.203125 37.890625 54.203125 
Q 44.828125 54.203125 48.90625 49.828125 
Q 52.984375 45.453125 52.984375 38.09375 
L 52.984375 0 
L 43.359375 0 
L 43.359375 34.96875 
Q 43.359375 40.875 41.625 43.390625 
Q 39.890625 45.90625 35.890625 45.90625 
Q 27.046875 45.90625 19.234375 34.328125 
L 19.234375 0 
z
" id="LucidaSansUnicode-110"/>
      <path d="M 9.625 0 
L 9.625 53.03125 
L 19.234375 53.03125 
L 19.234375 0 
z
M 9.625 62.640625 
L 9.625 72.265625 
L 19.234375 72.265625 
L 19.234375 62.640625 
z
" id="LucidaSansUnicode-105"/>
      <path d="M 9.625 0 
L 9.625 53.03125 
L 19.234375 53.03125 
L 19.234375 43.0625 
Q 26.265625 54.203125 37.3125 54.203125 
Q 47.953125 54.203125 51.8125 43.0625 
Q 58.640625 54.25 69.578125 54.25 
Q 76.5625 54.25 80.4375 50.125 
Q 84.328125 46 84.328125 38.578125 
L 84.328125 0 
L 74.65625 0 
L 74.65625 37.0625 
Q 74.65625 46.140625 67.484375 46.140625 
Q 60.015625 46.140625 51.8125 35.546875 
L 51.8125 0 
L 42.140625 0 
L 42.140625 37.0625 
Q 42.140625 46.1875 34.8125 46.1875 
Q 27.546875 46.1875 19.234375 35.546875 
L 19.234375 0 
z
" id="LucidaSansUnicode-109"/>
      <path d="M 9.625 0 
L 9.625 77.09375 
L 19.234375 77.09375 
L 19.234375 0 
z
" id="LucidaSansUnicode-108"/>
      <path d="M 3.609375 70.453125 
L 3.609375 77.09375 
Q 14.15625 69.921875 20.328125 57.59375 
Q 26.515625 45.265625 26.515625 31.34375 
Q 26.515625 17.390625 20.328125 5.046875 
Q 14.15625 -7.28125 3.609375 -14.453125 
L 3.609375 -7.8125 
Q 10.796875 0 13.8125 8.984375 
Q 16.84375 17.96875 16.84375 31.34375 
Q 16.84375 44.671875 13.8125 53.6875 
Q 10.796875 62.703125 3.609375 70.453125 
z
" id="LucidaSansUnicode-41"/>
     </defs>
     <g style="fill:#262626;" transform="translate(11.7225 78.909375)rotate(-90)scale(0.06 -0.06)">
      <use xlink:href="#LucidaSansUnicode-115"/>
      <use x="50.976562" xlink:href="#LucidaSansUnicode-101"/>
      <use x="106.689453" xlink:href="#LucidaSansUnicode-97"/>
      <use x="161.914062" xlink:href="#LucidaSansUnicode-102"/>
      <use x="198.681641" xlink:href="#LucidaSansUnicode-111"/>
      <use x="260.107422" xlink:href="#LucidaSansUnicode-111"/>
      <use x="321.533203" xlink:href="#LucidaSansUnicode-100"/>
      <use x="384.472656" xlink:href="#LucidaSansUnicode-32"/>
      <use x="416.113281" xlink:href="#LucidaSansUnicode-40"/>
      <use x="448.632812" xlink:href="#LucidaSansUnicode-97"/>
      <use x="503.857422" xlink:href="#LucidaSansUnicode-110"/>
      <use x="565.917969" xlink:href="#LucidaSansUnicode-105"/>
      <use x="594.824219" xlink:href="#LucidaSansUnicode-109"/>
      <use x="688.183594" xlink:href="#LucidaSansUnicode-97"/>
      <use x="743.408203" xlink:href="#LucidaSansUnicode-108"/>
      <use x="772.314453" xlink:href="#LucidaSansUnicode-41"/>
     </g>
     <!-- mass produced [10$^{11}$ kg] -->
     <defs>
      <path d="M 9.625 -19.28125 
L 9.625 53.03125 
L 19.234375 53.03125 
L 19.234375 43.0625 
Q 25.140625 54.203125 36.96875 54.203125 
Q 46.53125 54.203125 52.015625 47.21875 
Q 57.515625 40.234375 57.515625 28.125 
Q 57.515625 14.9375 51.28125 6.859375 
Q 45.0625 -1.21875 34.90625 -1.21875 
Q 25.484375 -1.21875 19.234375 6 
L 19.234375 -19.28125 
z
M 19.234375 12.640625 
Q 26.65625 6 33.40625 6 
Q 40.046875 6 43.65625 11.546875 
Q 47.265625 17.09375 47.265625 27.15625 
Q 47.265625 45.796875 34.96875 45.796875 
Q 26.90625 45.796875 19.234375 37.0625 
z
" id="LucidaSansUnicode-112"/>
      <path d="M 42.78125 0 
L 42.78125 9.96875 
Q 35.109375 -1.21875 24.171875 -1.21875 
Q 17.234375 -1.21875 13.125 3.140625 
Q 9.03125 7.515625 9.03125 14.9375 
L 9.03125 53.03125 
L 18.65625 53.03125 
L 18.65625 18.0625 
Q 18.65625 12.109375 20.390625 9.59375 
Q 22.125 7.078125 26.171875 7.078125 
Q 34.96875 7.078125 42.78125 18.65625 
L 42.78125 53.03125 
L 52.390625 53.03125 
L 52.390625 0 
z
" id="LucidaSansUnicode-117"/>
      <path d="M 46.4375 1.609375 
Q 37.109375 -1.21875 30.328125 -1.21875 
Q 19.578125 -1.21875 12.5 6.734375 
Q 5.421875 14.703125 5.421875 26.8125 
Q 5.421875 39.75 12.421875 46.96875 
Q 19.4375 54.203125 31.984375 54.203125 
Q 38.1875 54.203125 45.84375 52.484375 
L 45.84375 44.4375 
Q 37.703125 46.828125 32.5625 46.828125 
Q 25.140625 46.828125 20.703125 41.28125 
Q 16.265625 35.75 16.265625 26.515625 
Q 16.265625 17.578125 20.84375 12.0625 
Q 25.4375 6.546875 32.859375 6.546875 
Q 39.453125 6.546875 46.4375 9.90625 
z
" id="LucidaSansUnicode-99"/>
      <path d="M 9.625 -14.453125 
L 9.625 77.09375 
L 28.90625 77.09375 
L 28.90625 69.875 
L 18.0625 69.875 
L 18.0625 -7.234375 
L 28.90625 -7.234375 
L 28.90625 -14.453125 
z
" id="LucidaSansUnicode-91"/>
      <path d="M 30.203125 0 
L 22.296875 0 
L 22.296875 57 
Q 20.09375 56 15.75 53.75 
Q 11.40625 51.5 10.796875 51.203125 
L 10.796875 58.5 
L 28.796875 67.703125 
L 30.203125 67.203125 
z
" id="STIXGeneral-Regular-120803"/>
      <path d="M 9.625 0 
L 9.625 77.09375 
L 19.234375 77.09375 
L 19.234375 27.296875 
L 41.703125 53.03125 
L 52.046875 53.03125 
L 30.609375 28.265625 
L 56.5 0 
L 44.1875 0 
L 19.234375 27.203125 
L 19.234375 0 
z
" id="LucidaSansUnicode-107"/>
      <path d="M 9.8125 -17.625 
L 10.9375 -9.28125 
Q 19.28125 -13.234375 27.4375 -13.234375 
Q 43.65625 -13.234375 43.65625 4 
L 43.65625 12.359375 
Q 41.15625 7.078125 36.546875 4.140625 
Q 31.9375 1.21875 26.265625 1.21875 
Q 16.65625 1.21875 11.03125 8.125 
Q 5.421875 15.046875 5.421875 26.859375 
Q 5.421875 38.96875 11.8125 46.578125 
Q 18.21875 54.203125 28.375 54.203125 
Q 37.25 54.203125 43.65625 46.96875 
L 43.65625 53.03125 
L 53.328125 53.03125 
L 53.328125 14.453125 
Q 53.328125 2 52.03125 -3.984375 
Q 50.734375 -9.96875 47.171875 -13.765625 
Q 40.875 -20.453125 27.484375 -20.453125 
Q 18.3125 -20.453125 9.8125 -17.625 
z
M 43.65625 18.359375 
L 43.65625 40.375 
Q 37.3125 46.96875 29.828125 46.96875 
Q 23.1875 46.96875 19.421875 41.640625 
Q 15.671875 36.328125 15.671875 26.90625 
Q 15.671875 9.625 27.9375 9.625 
Q 36.28125 9.625 43.65625 18.359375 
z
" id="LucidaSansUnicode-103"/>
      <path d="M 22.90625 77.09375 
L 22.90625 -14.453125 
L 3.609375 -14.453125 
L 3.609375 -7.234375 
L 14.453125 -7.234375 
L 14.453125 69.875 
L 3.609375 69.875 
L 3.609375 77.09375 
z
" id="LucidaSansUnicode-93"/>
     </defs>
     <g style="fill:#262626;" transform="translate(18.927375 90.495)rotate(-90)scale(0.06 -0.06)">
      <use transform="translate(0 0.370312)" xlink:href="#LucidaSansUnicode-109"/>
      <use transform="translate(93.359375 0.370312)" xlink:href="#LucidaSansUnicode-97"/>
      <use transform="translate(148.583984 0.370312)" xlink:href="#LucidaSansUnicode-115"/>
      <use transform="translate(199.560547 0.370312)" xlink:href="#LucidaSansUnicode-115"/>
      <use transform="translate(250.537109 0.370312)" xlink:href="#LucidaSansUnicode-32"/>
      <use transform="translate(282.177734 0.370312)" xlink:href="#LucidaSansUnicode-112"/>
      <use transform="translate(345.117188 0.370312)" xlink:href="#LucidaSansUnicode-114"/>
      <use transform="translate(386.035156 0.370312)" xlink:href="#LucidaSansUnicode-111"/>
      <use transform="translate(447.460938 0.370312)" xlink:href="#LucidaSansUnicode-100"/>
      <use transform="translate(510.400391 0.370312)" xlink:href="#LucidaSansUnicode-117"/>
      <use transform="translate(572.460938 0.370312)" xlink:href="#LucidaSansUnicode-99"/>
      <use transform="translate(623.681641 0.370312)" xlink:href="#LucidaSansUnicode-101"/>
      <use transform="translate(679.394531 0.370312)" xlink:href="#LucidaSansUnicode-100"/>
      <use transform="translate(742.333984 0.370312)" xlink:href="#LucidaSansUnicode-32"/>
      <use transform="translate(773.974609 0.370312)" xlink:href="#LucidaSansUnicode-91"/>
      <use transform="translate(806.494141 0.370312)" xlink:href="#LucidaSansUnicode-49"/>
      <use transform="translate(869.726562 0.370312)" xlink:href="#LucidaSansUnicode-48"/>
      <use transform="translate(933.75168 36.607813)scale(0.7)" xlink:href="#STIXGeneral-Regular-120803"/>
      <use transform="translate(968.751669 36.607813)scale(0.7)" xlink:href="#STIXGeneral-Regular-120803"/>
      <use transform="translate(1006.016502 0.370312)" xlink:href="#LucidaSansUnicode-32"/>
      <use transform="translate(1037.657127 0.370312)" xlink:href="#LucidaSansUnicode-107"/>
      <use transform="translate(1096.104393 0.370312)" xlink:href="#LucidaSansUnicode-103"/>
      <use transform="translate(1158.457908 0.370312)" xlink:href="#LucidaSansUnicode-93"/>
     </g>
    </g>
   </g>
   <g id="LineCollection_1">
    <path clip-path="url(#p3c1ec062b0)" d="M 37.173938 17.77 
L 204.573938 17.77 
" style="fill:none;stroke:#000000;stroke-dasharray:2.775,1.2;stroke-dashoffset:0;stroke-width:0.75;"/>
   </g>
   <g id="line2d_1">
    <path clip-path="url(#p3c1ec062b0)" d="M 34.67543 94.416965 
L 37.173938 93.382247 
L 39.672445 92.616082 
L 42.170952 92.429089 
L 44.66946 91.606725 
L 47.167967 91.01831 
L 49.666475 90.298294 
L 52.164982 90.237879 
L 54.66349 89.987953 
L 57.161997 88.974343 
L 59.660505 87.987026 
L 62.159012 86.384605 
L 64.65752 84.976431 
L 67.156027 84.532623 
L 69.654535 82.593073 
L 72.153042 82.178635 
L 74.651549 80.545153 
L 77.150057 79.131805 
L 79.648564 77.721959 
L 82.147072 78.314946 
L 84.645579 75.762454 
L 87.144087 75.776659 
L 89.642594 77.543938 
L 92.141102 77.314028 
L 94.639609 75.969079 
L 97.138117 76.175921 
L 99.636624 74.744891 
L 102.135132 75.309816 
L 104.633639 74.411718 
L 107.132146 74.218398 
L 109.630654 73.91274 
L 112.129161 72.984725 
L 114.627669 72.274896 
L 117.126176 72.285076 
L 119.624684 69.914565 
L 122.123191 69.246077 
L 124.621699 66.917526 
L 127.120206 66.661946 
L 129.618714 65.19251 
L 132.117221 64.986016 
L 134.615729 66.53426 
L 137.114236 66.937588 
L 139.612743 66.306834 
L 142.111251 65.723039 
L 144.609758 63.37789 
L 147.108266 63.326078 
L 149.606773 62.664434 
L 152.105281 62.933145 
L 154.603788 66.030476 
L 157.102296 63.548325 
L 159.600803 62.771017 
L 162.099311 63.943088 
L 164.597818 63.822989 
L 167.096326 64.997409 
L 169.594833 63.070642 
L 172.09334 63.229539 
L 174.591848 64.197573 
L 177.090355 64.074602 
L 179.588863 64.492662 
L 182.08737 64.678048 
L 184.585878 65.492082 
L 187.084385 63.591014 
L 189.582893 64.855403 
L 192.0814 64.390902 
L 194.579908 64.11772 
L 197.078415 63.577565 
L 199.576923 64.431282 
L 202.07543 62.960497 
L 204.573938 61.557805 
" style="fill:none;stroke:#738fc1;stroke-linecap:round;stroke-width:0.5;"/>
    <defs>
     <path d="M 0 0.5 
C 0.132602 0.5 0.25979 0.447317 0.353553 0.353553 
C 0.447317 0.25979 0.5 0.132602 0.5 0 
C 0.5 -0.132602 0.447317 -0.25979 0.353553 -0.353553 
C 0.25979 -0.447317 0.132602 -0.5 0 -0.5 
C -0.132602 -0.5 -0.25979 -0.447317 -0.353553 -0.353553 
C -0.447317 -0.25979 -0.5 -0.132602 -0.5 0 
C -0.5 0.132602 -0.447317 0.25979 -0.353553 0.353553 
C -0.25979 0.447317 -0.132602 0.5 0 0.5 
z
" id="m979c4247bf" style="stroke:#738fc1;"/>
    </defs>
    <g clip-path="url(#p3c1ec062b0)">
     <use style="fill:#738fc1;stroke:#738fc1;" x="34.67543" xlink:href="#m979c4247bf" y="94.416965"/>
     <use style="fill:#738fc1;stroke:#738fc1;" x="37.173938" xlink:href="#m979c4247bf" y="93.382247"/>
     <use style="fill:#738fc1;stroke:#738fc1;" x="39.672445" xlink:href="#m979c4247bf" y="92.616082"/>
     <use style="fill:#738fc1;stroke:#738fc1;" x="42.170952" xlink:href="#m979c4247bf" y="92.429089"/>
     <use style="fill:#738fc1;stroke:#738fc1;" x="44.66946" xlink:href="#m979c4247bf" y="91.606725"/>
     <use style="fill:#738fc1;stroke:#738fc1;" x="47.167967" xlink:href="#m979c4247bf" y="91.01831"/>
     <use style="fill:#738fc1;stroke:#738fc1;" x="49.666475" xlink:href="#m979c4247bf" y="90.298294"/>
     <use style="fill:#738fc1;stroke:#738fc1;" x="52.164982" xlink:href="#m979c4247bf" y="90.237879"/>
     <use style="fill:#738fc1;stroke:#738fc1;" x="54.66349" xlink:href="#m979c4247bf" y="89.987953"/>
     <use style="fill:#738fc1;stroke:#738fc1;" x="57.161997" xlink:href="#m979c4247bf" y="88.974343"/>
     <use style="fill:#738fc1;stroke:#738fc1;" x="59.660505" xlink:href="#m979c4247bf" y="87.987026"/>
     <use style="fill:#738fc1;stroke:#738fc1;" x="62.159012" xlink:href="#m979c4247bf" y="86.384605"/>
     <use style="fill:#738fc1;stroke:#738fc1;" x="64.65752" xlink:href="#m979c4247bf" y="84.976431"/>
     <use style="fill:#738fc1;stroke:#738fc1;" x="67.156027" xlink:href="#m979c4247bf" y="84.532623"/>
     <use style="fill:#738fc1;stroke:#738fc1;" x="69.654535" xlink:href="#m979c4247bf" y="82.593073"/>
     <use style="fill:#738fc1;stroke:#738fc1;" x="72.153042" xlink:href="#m979c4247bf" y="82.178635"/>
     <use style="fill:#738fc1;stroke:#738fc1;" x="74.651549" xlink:href="#m979c4247bf" y="80.545153"/>
     <use style="fill:#738fc1;stroke:#738fc1;" x="77.150057" xlink:href="#m979c4247bf" y="79.131805"/>
     <use style="fill:#738fc1;stroke:#738fc1;" x="79.648564" xlink:href="#m979c4247bf" y="77.721959"/>
     <use style="fill:#738fc1;stroke:#738fc1;" x="82.147072" xlink:href="#m979c4247bf" y="78.314946"/>
     <use style="fill:#738fc1;stroke:#738fc1;" x="84.645579" xlink:href="#m979c4247bf" y="75.762454"/>
     <use style="fill:#738fc1;stroke:#738fc1;" x="87.144087" xlink:href="#m979c4247bf" y="75.776659"/>
     <use style="fill:#738fc1;stroke:#738fc1;" x="89.642594" xlink:href="#m979c4247bf" y="77.543938"/>
     <use style="fill:#738fc1;stroke:#738fc1;" x="92.141102" xlink:href="#m979c4247bf" y="77.314028"/>
     <use style="fill:#738fc1;stroke:#738fc1;" x="94.639609" xlink:href="#m979c4247bf" y="75.969079"/>
     <use style="fill:#738fc1;stroke:#738fc1;" x="97.138117" xlink:href="#m979c4247bf" y="76.175921"/>
     <use style="fill:#738fc1;stroke:#738fc1;" x="99.636624" xlink:href="#m979c4247bf" y="74.744891"/>
     <use style="fill:#738fc1;stroke:#738fc1;" x="102.135132" xlink:href="#m979c4247bf" y="75.309816"/>
     <use style="fill:#738fc1;stroke:#738fc1;" x="104.633639" xlink:href="#m979c4247bf" y="74.411718"/>
     <use style="fill:#738fc1;stroke:#738fc1;" x="107.132146" xlink:href="#m979c4247bf" y="74.218398"/>
     <use style="fill:#738fc1;stroke:#738fc1;" x="109.630654" xlink:href="#m979c4247bf" y="73.91274"/>
     <use style="fill:#738fc1;stroke:#738fc1;" x="112.129161" xlink:href="#m979c4247bf" y="72.984725"/>
     <use style="fill:#738fc1;stroke:#738fc1;" x="114.627669" xlink:href="#m979c4247bf" y="72.274896"/>
     <use style="fill:#738fc1;stroke:#738fc1;" x="117.126176" xlink:href="#m979c4247bf" y="72.285076"/>
     <use style="fill:#738fc1;stroke:#738fc1;" x="119.624684" xlink:href="#m979c4247bf" y="69.914565"/>
     <use style="fill:#738fc1;stroke:#738fc1;" x="122.123191" xlink:href="#m979c4247bf" y="69.246077"/>
     <use style="fill:#738fc1;stroke:#738fc1;" x="124.621699" xlink:href="#m979c4247bf" y="66.917526"/>
     <use style="fill:#738fc1;stroke:#738fc1;" x="127.120206" xlink:href="#m979c4247bf" y="66.661946"/>
     <use style="fill:#738fc1;stroke:#738fc1;" x="129.618714" xlink:href="#m979c4247bf" y="65.19251"/>
     <use style="fill:#738fc1;stroke:#738fc1;" x="132.117221" xlink:href="#m979c4247bf" y="64.986016"/>
     <use style="fill:#738fc1;stroke:#738fc1;" x="134.615729" xlink:href="#m979c4247bf" y="66.53426"/>
     <use style="fill:#738fc1;stroke:#738fc1;" x="137.114236" xlink:href="#m979c4247bf" y="66.937588"/>
     <use style="fill:#738fc1;stroke:#738fc1;" x="139.612743" xlink:href="#m979c4247bf" y="66.306834"/>
     <use style="fill:#738fc1;stroke:#738fc1;" x="142.111251" xlink:href="#m979c4247bf" y="65.723039"/>
     <use style="fill:#738fc1;stroke:#738fc1;" x="144.609758" xlink:href="#m979c4247bf" y="63.37789"/>
     <use style="fill:#738fc1;stroke:#738fc1;" x="147.108266" xlink:href="#m979c4247bf" y="63.326078"/>
     <use style="fill:#738fc1;stroke:#738fc1;" x="149.606773" xlink:href="#m979c4247bf" y="62.664434"/>
     <use style="fill:#738fc1;stroke:#738fc1;" x="152.105281" xlink:href="#m979c4247bf" y="62.933145"/>
     <use style="fill:#738fc1;stroke:#738fc1;" x="154.603788" xlink:href="#m979c4247bf" y="66.030476"/>
     <use style="fill:#738fc1;stroke:#738fc1;" x="157.102296" xlink:href="#m979c4247bf" y="63.548325"/>
     <use style="fill:#738fc1;stroke:#738fc1;" x="159.600803" xlink:href="#m979c4247bf" y="62.771017"/>
     <use style="fill:#738fc1;stroke:#738fc1;" x="162.099311" xlink:href="#m979c4247bf" y="63.943088"/>
     <use style="fill:#738fc1;stroke:#738fc1;" x="164.597818" xlink:href="#m979c4247bf" y="63.822989"/>
     <use style="fill:#738fc1;stroke:#738fc1;" x="167.096326" xlink:href="#m979c4247bf" y="64.997409"/>
     <use style="fill:#738fc1;stroke:#738fc1;" x="169.594833" xlink:href="#m979c4247bf" y="63.070642"/>
     <use style="fill:#738fc1;stroke:#738fc1;" x="172.09334" xlink:href="#m979c4247bf" y="63.229539"/>
     <use style="fill:#738fc1;stroke:#738fc1;" x="174.591848" xlink:href="#m979c4247bf" y="64.197573"/>
     <use style="fill:#738fc1;stroke:#738fc1;" x="177.090355" xlink:href="#m979c4247bf" y="64.074602"/>
     <use style="fill:#738fc1;stroke:#738fc1;" x="179.588863" xlink:href="#m979c4247bf" y="64.492662"/>
     <use style="fill:#738fc1;stroke:#738fc1;" x="182.08737" xlink:href="#m979c4247bf" y="64.678048"/>
     <use style="fill:#738fc1;stroke:#738fc1;" x="184.585878" xlink:href="#m979c4247bf" y="65.492082"/>
     <use style="fill:#738fc1;stroke:#738fc1;" x="187.084385" xlink:href="#m979c4247bf" y="63.591014"/>
     <use style="fill:#738fc1;stroke:#738fc1;" x="189.582893" xlink:href="#m979c4247bf" y="64.855403"/>
     <use style="fill:#738fc1;stroke:#738fc1;" x="192.0814" xlink:href="#m979c4247bf" y="64.390902"/>
     <use style="fill:#738fc1;stroke:#738fc1;" x="194.579908" xlink:href="#m979c4247bf" y="64.11772"/>
     <use style="fill:#738fc1;stroke:#738fc1;" x="197.078415" xlink:href="#m979c4247bf" y="63.577565"/>
     <use style="fill:#738fc1;stroke:#738fc1;" x="199.576923" xlink:href="#m979c4247bf" y="64.431282"/>
     <use style="fill:#738fc1;stroke:#738fc1;" x="202.07543" xlink:href="#m979c4247bf" y="62.960497"/>
     <use style="fill:#738fc1;stroke:#738fc1;" x="204.573938" xlink:href="#m979c4247bf" y="61.557805"/>
    </g>
   </g>
   <g id="line2d_2">
    <path clip-path="url(#p3c1ec062b0)" d="M 34.67543 102.074704 
L 37.173938 102.021866 
L 39.672445 101.982381 
L 42.170952 101.923144 
L 44.66946 101.868932 
L 47.167967 101.815214 
L 49.666475 101.818694 
L 52.164982 101.670106 
L 54.66349 101.687668 
L 57.161997 101.631728 
L 59.660505 101.63013 
L 62.159012 101.685485 
L 64.65752 101.662551 
L 67.156027 101.585152 
L 69.654535 101.548983 
L 72.153042 101.475667 
L 74.651549 101.448997 
L 77.150057 101.423438 
L 79.648564 101.36521 
L 82.147072 101.331666 
L 84.645579 101.244697 
L 87.144087 101.172078 
L 89.642594 101.080967 
L 92.141102 101.027419 
L 94.639609 100.952594 
L 97.138117 100.800665 
L 99.636624 100.753124 
L 102.135132 100.587161 
L 104.633639 100.55234 
L 107.132146 100.49444 
L 109.630654 100.340299 
L 112.129161 100.113206 
L 114.627669 99.932009 
L 117.126176 99.698722 
L 119.624684 99.39383 
L 122.123191 98.938313 
L 124.621699 98.455456 
L 127.120206 97.86285 
L 129.618714 97.390907 
L 132.117221 97.121612 
L 134.615729 96.797648 
L 137.114236 96.526456 
L 139.612743 95.814704 
L 142.111251 94.804461 
L 144.609758 93.518867 
L 147.108266 92.021093 
L 149.606773 91.108356 
L 152.105281 90.778364 
L 154.603788 90.317169 
L 157.102296 89.336866 
L 159.600803 88.623785 
L 162.099311 87.695293 
L 164.597818 86.776776 
L 167.096326 85.877491 
L 169.594833 84.610867 
L 172.09334 83.600795 
L 174.591848 82.349813 
L 177.090355 81.21493 
L 179.588863 79.957537 
L 182.08737 79.009632 
L 184.585878 77.915862 
L 187.084385 77.051321 
L 189.582893 75.490599 
L 192.0814 74.022834 
L 194.579908 72.520096 
L 197.078415 71.562292 
L 199.576923 69.984217 
L 202.07543 68.698426 
L 204.573938 67.620211 
" style="fill:none;stroke:#d56c55;stroke-linecap:round;stroke-width:0.5;"/>
    <defs>
     <path d="M 0 0.5 
C 0.132602 0.5 0.25979 0.447317 0.353553 0.353553 
C 0.447317 0.25979 0.5 0.132602 0.5 0 
C 0.5 -0.132602 0.447317 -0.25979 0.353553 -0.353553 
C 0.25979 -0.447317 0.132602 -0.5 0 -0.5 
C -0.132602 -0.5 -0.25979 -0.447317 -0.353553 -0.353553 
C -0.447317 -0.25979 -0.5 -0.132602 -0.5 0 
C -0.5 0.132602 -0.447317 0.25979 -0.353553 0.353553 
C -0.25979 0.447317 -0.132602 0.5 0 0.5 
z
" id="m7c8efad93d" style="stroke:#d56c55;"/>
    </defs>
    <g clip-path="url(#p3c1ec062b0)">
     <use style="fill:#d56c55;stroke:#d56c55;" x="34.67543" xlink:href="#m7c8efad93d" y="102.074704"/>
     <use style="fill:#d56c55;stroke:#d56c55;" x="37.173938" xlink:href="#m7c8efad93d" y="102.021866"/>
     <use style="fill:#d56c55;stroke:#d56c55;" x="39.672445" xlink:href="#m7c8efad93d" y="101.982381"/>
     <use style="fill:#d56c55;stroke:#d56c55;" x="42.170952" xlink:href="#m7c8efad93d" y="101.923144"/>
     <use style="fill:#d56c55;stroke:#d56c55;" x="44.66946" xlink:href="#m7c8efad93d" y="101.868932"/>
     <use style="fill:#d56c55;stroke:#d56c55;" x="47.167967" xlink:href="#m7c8efad93d" y="101.815214"/>
     <use style="fill:#d56c55;stroke:#d56c55;" x="49.666475" xlink:href="#m7c8efad93d" y="101.818694"/>
     <use style="fill:#d56c55;stroke:#d56c55;" x="52.164982" xlink:href="#m7c8efad93d" y="101.670106"/>
     <use style="fill:#d56c55;stroke:#d56c55;" x="54.66349" xlink:href="#m7c8efad93d" y="101.687668"/>
     <use style="fill:#d56c55;stroke:#d56c55;" x="57.161997" xlink:href="#m7c8efad93d" y="101.631728"/>
     <use style="fill:#d56c55;stroke:#d56c55;" x="59.660505" xlink:href="#m7c8efad93d" y="101.63013"/>
     <use style="fill:#d56c55;stroke:#d56c55;" x="62.159012" xlink:href="#m7c8efad93d" y="101.685485"/>
     <use style="fill:#d56c55;stroke:#d56c55;" x="64.65752" xlink:href="#m7c8efad93d" y="101.662551"/>
     <use style="fill:#d56c55;stroke:#d56c55;" x="67.156027" xlink:href="#m7c8efad93d" y="101.585152"/>
     <use style="fill:#d56c55;stroke:#d56c55;" x="69.654535" xlink:href="#m7c8efad93d" y="101.548983"/>
     <use style="fill:#d56c55;stroke:#d56c55;" x="72.153042" xlink:href="#m7c8efad93d" y="101.475667"/>
     <use style="fill:#d56c55;stroke:#d56c55;" x="74.651549" xlink:href="#m7c8efad93d" y="101.448997"/>
     <use style="fill:#d56c55;stroke:#d56c55;" x="77.150057" xlink:href="#m7c8efad93d" y="101.423438"/>
     <use style="fill:#d56c55;stroke:#d56c55;" x="79.648564" xlink:href="#m7c8efad93d" y="101.36521"/>
     <use style="fill:#d56c55;stroke:#d56c55;" x="82.147072" xlink:href="#m7c8efad93d" y="101.331666"/>
     <use style="fill:#d56c55;stroke:#d56c55;" x="84.645579" xlink:href="#m7c8efad93d" y="101.244697"/>
     <use style="fill:#d56c55;stroke:#d56c55;" x="87.144087" xlink:href="#m7c8efad93d" y="101.172078"/>
     <use style="fill:#d56c55;stroke:#d56c55;" x="89.642594" xlink:href="#m7c8efad93d" y="101.080967"/>
     <use style="fill:#d56c55;stroke:#d56c55;" x="92.141102" xlink:href="#m7c8efad93d" y="101.027419"/>
     <use style="fill:#d56c55;stroke:#d56c55;" x="94.639609" xlink:href="#m7c8efad93d" y="100.952594"/>
     <use style="fill:#d56c55;stroke:#d56c55;" x="97.138117" xlink:href="#m7c8efad93d" y="100.800665"/>
     <use style="fill:#d56c55;stroke:#d56c55;" x="99.636624" xlink:href="#m7c8efad93d" y="100.753124"/>
     <use style="fill:#d56c55;stroke:#d56c55;" x="102.135132" xlink:href="#m7c8efad93d" y="100.587161"/>
     <use style="fill:#d56c55;stroke:#d56c55;" x="104.633639" xlink:href="#m7c8efad93d" y="100.55234"/>
     <use style="fill:#d56c55;stroke:#d56c55;" x="107.132146" xlink:href="#m7c8efad93d" y="100.49444"/>
     <use style="fill:#d56c55;stroke:#d56c55;" x="109.630654" xlink:href="#m7c8efad93d" y="100.340299"/>
     <use style="fill:#d56c55;stroke:#d56c55;" x="112.129161" xlink:href="#m7c8efad93d" y="100.113206"/>
     <use style="fill:#d56c55;stroke:#d56c55;" x="114.627669" xlink:href="#m7c8efad93d" y="99.932009"/>
     <use style="fill:#d56c55;stroke:#d56c55;" x="117.126176" xlink:href="#m7c8efad93d" y="99.698722"/>
     <use style="fill:#d56c55;stroke:#d56c55;" x="119.624684" xlink:href="#m7c8efad93d" y="99.39383"/>
     <use style="fill:#d56c55;stroke:#d56c55;" x="122.123191" xlink:href="#m7c8efad93d" y="98.938313"/>
     <use style="fill:#d56c55;stroke:#d56c55;" x="124.621699" xlink:href="#m7c8efad93d" y="98.455456"/>
     <use style="fill:#d56c55;stroke:#d56c55;" x="127.120206" xlink:href="#m7c8efad93d" y="97.86285"/>
     <use style="fill:#d56c55;stroke:#d56c55;" x="129.618714" xlink:href="#m7c8efad93d" y="97.390907"/>
     <use style="fill:#d56c55;stroke:#d56c55;" x="132.117221" xlink:href="#m7c8efad93d" y="97.121612"/>
     <use style="fill:#d56c55;stroke:#d56c55;" x="134.615729" xlink:href="#m7c8efad93d" y="96.797648"/>
     <use style="fill:#d56c55;stroke:#d56c55;" x="137.114236" xlink:href="#m7c8efad93d" y="96.526456"/>
     <use style="fill:#d56c55;stroke:#d56c55;" x="139.612743" xlink:href="#m7c8efad93d" y="95.814704"/>
     <use style="fill:#d56c55;stroke:#d56c55;" x="142.111251" xlink:href="#m7c8efad93d" y="94.804461"/>
     <use style="fill:#d56c55;stroke:#d56c55;" x="144.609758" xlink:href="#m7c8efad93d" y="93.518867"/>
     <use style="fill:#d56c55;stroke:#d56c55;" x="147.108266" xlink:href="#m7c8efad93d" y="92.021093"/>
     <use style="fill:#d56c55;stroke:#d56c55;" x="149.606773" xlink:href="#m7c8efad93d" y="91.108356"/>
     <use style="fill:#d56c55;stroke:#d56c55;" x="152.105281" xlink:href="#m7c8efad93d" y="90.778364"/>
     <use style="fill:#d56c55;stroke:#d56c55;" x="154.603788" xlink:href="#m7c8efad93d" y="90.317169"/>
     <use style="fill:#d56c55;stroke:#d56c55;" x="157.102296" xlink:href="#m7c8efad93d" y="89.336866"/>
     <use style="fill:#d56c55;stroke:#d56c55;" x="159.600803" xlink:href="#m7c8efad93d" y="88.623785"/>
     <use style="fill:#d56c55;stroke:#d56c55;" x="162.099311" xlink:href="#m7c8efad93d" y="87.695293"/>
     <use style="fill:#d56c55;stroke:#d56c55;" x="164.597818" xlink:href="#m7c8efad93d" y="86.776776"/>
     <use style="fill:#d56c55;stroke:#d56c55;" x="167.096326" xlink:href="#m7c8efad93d" y="85.877491"/>
     <use style="fill:#d56c55;stroke:#d56c55;" x="169.594833" xlink:href="#m7c8efad93d" y="84.610867"/>
     <use style="fill:#d56c55;stroke:#d56c55;" x="172.09334" xlink:href="#m7c8efad93d" y="83.600795"/>
     <use style="fill:#d56c55;stroke:#d56c55;" x="174.591848" xlink:href="#m7c8efad93d" y="82.349813"/>
     <use style="fill:#d56c55;stroke:#d56c55;" x="177.090355" xlink:href="#m7c8efad93d" y="81.21493"/>
     <use style="fill:#d56c55;stroke:#d56c55;" x="179.588863" xlink:href="#m7c8efad93d" y="79.957537"/>
     <use style="fill:#d56c55;stroke:#d56c55;" x="182.08737" xlink:href="#m7c8efad93d" y="79.009632"/>
     <use style="fill:#d56c55;stroke:#d56c55;" x="184.585878" xlink:href="#m7c8efad93d" y="77.915862"/>
     <use style="fill:#d56c55;stroke:#d56c55;" x="187.084385" xlink:href="#m7c8efad93d" y="77.051321"/>
     <use style="fill:#d56c55;stroke:#d56c55;" x="189.582893" xlink:href="#m7c8efad93d" y="75.490599"/>
     <use style="fill:#d56c55;stroke:#d56c55;" x="192.0814" xlink:href="#m7c8efad93d" y="74.022834"/>
     <use style="fill:#d56c55;stroke:#d56c55;" x="194.579908" xlink:href="#m7c8efad93d" y="72.520096"/>
     <use style="fill:#d56c55;stroke:#d56c55;" x="197.078415" xlink:href="#m7c8efad93d" y="71.562292"/>
     <use style="fill:#d56c55;stroke:#d56c55;" x="199.576923" xlink:href="#m7c8efad93d" y="69.984217"/>
     <use style="fill:#d56c55;stroke:#d56c55;" x="202.07543" xlink:href="#m7c8efad93d" y="68.698426"/>
     <use style="fill:#d56c55;stroke:#d56c55;" x="204.573938" xlink:href="#m7c8efad93d" y="67.620211"/>
    </g>
   </g>
   <g id="line2d_3">
    <path clip-path="url(#p3c1ec062b0)" d="M 34.67543 94.16167 
L 37.173938 93.074113 
L 39.672445 92.268463 
L 42.170952 92.022233 
L 44.66946 91.145657 
L 47.167967 90.503524 
L 49.666475 89.786987 
L 52.164982 89.577985 
L 54.66349 89.345621 
L 57.161997 88.276071 
L 59.660505 87.287156 
L 62.159012 85.74009 
L 64.65752 84.308982 
L 67.156027 83.787775 
L 69.654535 81.812056 
L 72.153042 81.324303 
L 74.651549 79.66415 
L 77.150057 78.225243 
L 79.648564 76.757169 
L 82.147072 77.316612 
L 84.645579 74.677151 
L 87.144087 74.618738 
L 89.642594 76.294905 
L 92.141102 76.011446 
L 94.639609 74.591673 
L 97.138117 74.646586 
L 99.636624 73.168015 
L 102.135132 73.566977 
L 104.633639 72.634059 
L 107.132146 72.382838 
L 109.630654 71.923038 
L 112.129161 70.767931 
L 114.627669 69.876906 
L 117.126176 69.653798 
L 119.624684 66.978395 
L 122.123191 65.85439 
L 124.621699 63.042982 
L 127.120206 62.194796 
L 129.618714 60.253418 
L 132.117221 59.777628 
L 134.615729 61.001908 
L 137.114236 61.134044 
L 139.612743 59.791538 
L 142.111251 58.197501 
L 144.609758 54.566757 
L 147.108266 53.017171 
L 149.606773 51.442789 
L 152.105281 51.381509 
L 154.603788 54.017644 
L 157.102296 50.555191 
L 159.600803 49.064802 
L 162.099311 49.308381 
L 164.597818 48.269765 
L 167.096326 48.5449 
L 169.594833 45.351509 
L 172.09334 44.500334 
L 174.591848 44.217387 
L 177.090355 42.959532 
L 179.588863 42.120199 
L 182.08737 41.357681 
L 184.585878 41.077943 
L 187.084385 38.312335 
L 189.582893 38.016002 
L 192.0814 36.083736 
L 194.579908 34.307816 
L 197.078415 32.809857 
L 199.576923 32.0855 
L 202.07543 29.328924 
L 204.573938 26.848016 
" style="fill:none;stroke:#7e9d90;stroke-linecap:round;stroke-width:0.5;"/>
    <defs>
     <path d="M 0 0.5 
C 0.132602 0.5 0.25979 0.447317 0.353553 0.353553 
C 0.447317 0.25979 0.5 0.132602 0.5 0 
C 0.5 -0.132602 0.447317 -0.25979 0.353553 -0.353553 
C 0.25979 -0.447317 0.132602 -0.5 0 -0.5 
C -0.132602 -0.5 -0.25979 -0.447317 -0.353553 -0.353553 
C -0.447317 -0.25979 -0.5 -0.132602 -0.5 0 
C -0.5 0.132602 -0.447317 0.25979 -0.353553 0.353553 
C -0.25979 0.447317 -0.132602 0.5 0 0.5 
z
" id="m3e191d78a5" style="stroke:#7e9d90;"/>
    </defs>
    <g clip-path="url(#p3c1ec062b0)">
     <use style="fill:#7e9d90;stroke:#7e9d90;" x="34.67543" xlink:href="#m3e191d78a5" y="94.16167"/>
     <use style="fill:#7e9d90;stroke:#7e9d90;" x="37.173938" xlink:href="#m3e191d78a5" y="93.074113"/>
     <use style="fill:#7e9d90;stroke:#7e9d90;" x="39.672445" xlink:href="#m3e191d78a5" y="92.268463"/>
     <use style="fill:#7e9d90;stroke:#7e9d90;" x="42.170952" xlink:href="#m3e191d78a5" y="92.022233"/>
     <use style="fill:#7e9d90;stroke:#7e9d90;" x="44.66946" xlink:href="#m3e191d78a5" y="91.145657"/>
     <use style="fill:#7e9d90;stroke:#7e9d90;" x="47.167967" xlink:href="#m3e191d78a5" y="90.503524"/>
     <use style="fill:#7e9d90;stroke:#7e9d90;" x="49.666475" xlink:href="#m3e191d78a5" y="89.786987"/>
     <use style="fill:#7e9d90;stroke:#7e9d90;" x="52.164982" xlink:href="#m3e191d78a5" y="89.577985"/>
     <use style="fill:#7e9d90;stroke:#7e9d90;" x="54.66349" xlink:href="#m3e191d78a5" y="89.345621"/>
     <use style="fill:#7e9d90;stroke:#7e9d90;" x="57.161997" xlink:href="#m3e191d78a5" y="88.276071"/>
     <use style="fill:#7e9d90;stroke:#7e9d90;" x="59.660505" xlink:href="#m3e191d78a5" y="87.287156"/>
     <use style="fill:#7e9d90;stroke:#7e9d90;" x="62.159012" xlink:href="#m3e191d78a5" y="85.74009"/>
     <use style="fill:#7e9d90;stroke:#7e9d90;" x="64.65752" xlink:href="#m3e191d78a5" y="84.308982"/>
     <use style="fill:#7e9d90;stroke:#7e9d90;" x="67.156027" xlink:href="#m3e191d78a5" y="83.787775"/>
     <use style="fill:#7e9d90;stroke:#7e9d90;" x="69.654535" xlink:href="#m3e191d78a5" y="81.812056"/>
     <use style="fill:#7e9d90;stroke:#7e9d90;" x="72.153042" xlink:href="#m3e191d78a5" y="81.324303"/>
     <use style="fill:#7e9d90;stroke:#7e9d90;" x="74.651549" xlink:href="#m3e191d78a5" y="79.66415"/>
     <use style="fill:#7e9d90;stroke:#7e9d90;" x="77.150057" xlink:href="#m3e191d78a5" y="78.225243"/>
     <use style="fill:#7e9d90;stroke:#7e9d90;" x="79.648564" xlink:href="#m3e191d78a5" y="76.757169"/>
     <use style="fill:#7e9d90;stroke:#7e9d90;" x="82.147072" xlink:href="#m3e191d78a5" y="77.316612"/>
     <use style="fill:#7e9d90;stroke:#7e9d90;" x="84.645579" xlink:href="#m3e191d78a5" y="74.677151"/>
     <use style="fill:#7e9d90;stroke:#7e9d90;" x="87.144087" xlink:href="#m3e191d78a5" y="74.618738"/>
     <use style="fill:#7e9d90;stroke:#7e9d90;" x="89.642594" xlink:href="#m3e191d78a5" y="76.294905"/>
     <use style="fill:#7e9d90;stroke:#7e9d90;" x="92.141102" xlink:href="#m3e191d78a5" y="76.011446"/>
     <use style="fill:#7e9d90;stroke:#7e9d90;" x="94.639609" xlink:href="#m3e191d78a5" y="74.591673"/>
     <use style="fill:#7e9d90;stroke:#7e9d90;" x="97.138117" xlink:href="#m3e191d78a5" y="74.646586"/>
     <use style="fill:#7e9d90;stroke:#7e9d90;" x="99.636624" xlink:href="#m3e191d78a5" y="73.168015"/>
     <use style="fill:#7e9d90;stroke:#7e9d90;" x="102.135132" xlink:href="#m3e191d78a5" y="73.566977"/>
     <use style="fill:#7e9d90;stroke:#7e9d90;" x="104.633639" xlink:href="#m3e191d78a5" y="72.634059"/>
     <use style="fill:#7e9d90;stroke:#7e9d90;" x="107.132146" xlink:href="#m3e191d78a5" y="72.382838"/>
     <use style="fill:#7e9d90;stroke:#7e9d90;" x="109.630654" xlink:href="#m3e191d78a5" y="71.923038"/>
     <use style="fill:#7e9d90;stroke:#7e9d90;" x="112.129161" xlink:href="#m3e191d78a5" y="70.767931"/>
     <use style="fill:#7e9d90;stroke:#7e9d90;" x="114.627669" xlink:href="#m3e191d78a5" y="69.876906"/>
     <use style="fill:#7e9d90;stroke:#7e9d90;" x="117.126176" xlink:href="#m3e191d78a5" y="69.653798"/>
     <use style="fill:#7e9d90;stroke:#7e9d90;" x="119.624684" xlink:href="#m3e191d78a5" y="66.978395"/>
     <use style="fill:#7e9d90;stroke:#7e9d90;" x="122.123191" xlink:href="#m3e191d78a5" y="65.85439"/>
     <use style="fill:#7e9d90;stroke:#7e9d90;" x="124.621699" xlink:href="#m3e191d78a5" y="63.042982"/>
     <use style="fill:#7e9d90;stroke:#7e9d90;" x="127.120206" xlink:href="#m3e191d78a5" y="62.194796"/>
     <use style="fill:#7e9d90;stroke:#7e9d90;" x="129.618714" xlink:href="#m3e191d78a5" y="60.253418"/>
     <use style="fill:#7e9d90;stroke:#7e9d90;" x="132.117221" xlink:href="#m3e191d78a5" y="59.777628"/>
     <use style="fill:#7e9d90;stroke:#7e9d90;" x="134.615729" xlink:href="#m3e191d78a5" y="61.001908"/>
     <use style="fill:#7e9d90;stroke:#7e9d90;" x="137.114236" xlink:href="#m3e191d78a5" y="61.134044"/>
     <use style="fill:#7e9d90;stroke:#7e9d90;" x="139.612743" xlink:href="#m3e191d78a5" y="59.791538"/>
     <use style="fill:#7e9d90;stroke:#7e9d90;" x="142.111251" xlink:href="#m3e191d78a5" y="58.197501"/>
     <use style="fill:#7e9d90;stroke:#7e9d90;" x="144.609758" xlink:href="#m3e191d78a5" y="54.566757"/>
     <use style="fill:#7e9d90;stroke:#7e9d90;" x="147.108266" xlink:href="#m3e191d78a5" y="53.017171"/>
     <use style="fill:#7e9d90;stroke:#7e9d90;" x="149.606773" xlink:href="#m3e191d78a5" y="51.442789"/>
     <use style="fill:#7e9d90;stroke:#7e9d90;" x="152.105281" xlink:href="#m3e191d78a5" y="51.381509"/>
     <use style="fill:#7e9d90;stroke:#7e9d90;" x="154.603788" xlink:href="#m3e191d78a5" y="54.017644"/>
     <use style="fill:#7e9d90;stroke:#7e9d90;" x="157.102296" xlink:href="#m3e191d78a5" y="50.555191"/>
     <use style="fill:#7e9d90;stroke:#7e9d90;" x="159.600803" xlink:href="#m3e191d78a5" y="49.064802"/>
     <use style="fill:#7e9d90;stroke:#7e9d90;" x="162.099311" xlink:href="#m3e191d78a5" y="49.308381"/>
     <use style="fill:#7e9d90;stroke:#7e9d90;" x="164.597818" xlink:href="#m3e191d78a5" y="48.269765"/>
     <use style="fill:#7e9d90;stroke:#7e9d90;" x="167.096326" xlink:href="#m3e191d78a5" y="48.5449"/>
     <use style="fill:#7e9d90;stroke:#7e9d90;" x="169.594833" xlink:href="#m3e191d78a5" y="45.351509"/>
     <use style="fill:#7e9d90;stroke:#7e9d90;" x="172.09334" xlink:href="#m3e191d78a5" y="44.500334"/>
     <use style="fill:#7e9d90;stroke:#7e9d90;" x="174.591848" xlink:href="#m3e191d78a5" y="44.217387"/>
     <use style="fill:#7e9d90;stroke:#7e9d90;" x="177.090355" xlink:href="#m3e191d78a5" y="42.959532"/>
     <use style="fill:#7e9d90;stroke:#7e9d90;" x="179.588863" xlink:href="#m3e191d78a5" y="42.120199"/>
     <use style="fill:#7e9d90;stroke:#7e9d90;" x="182.08737" xlink:href="#m3e191d78a5" y="41.357681"/>
     <use style="fill:#7e9d90;stroke:#7e9d90;" x="184.585878" xlink:href="#m3e191d78a5" y="41.077943"/>
     <use style="fill:#7e9d90;stroke:#7e9d90;" x="187.084385" xlink:href="#m3e191d78a5" y="38.312335"/>
     <use style="fill:#7e9d90;stroke:#7e9d90;" x="189.582893" xlink:href="#m3e191d78a5" y="38.016002"/>
     <use style="fill:#7e9d90;stroke:#7e9d90;" x="192.0814" xlink:href="#m3e191d78a5" y="36.083736"/>
     <use style="fill:#7e9d90;stroke:#7e9d90;" x="194.579908" xlink:href="#m3e191d78a5" y="34.307816"/>
     <use style="fill:#7e9d90;stroke:#7e9d90;" x="197.078415" xlink:href="#m3e191d78a5" y="32.809857"/>
     <use style="fill:#7e9d90;stroke:#7e9d90;" x="199.576923" xlink:href="#m3e191d78a5" y="32.0855"/>
     <use style="fill:#7e9d90;stroke:#7e9d90;" x="202.07543" xlink:href="#m3e191d78a5" y="29.328924"/>
     <use style="fill:#7e9d90;stroke:#7e9d90;" x="204.573938" xlink:href="#m3e191d78a5" y="26.848016"/>
    </g>
   </g>
   <g id="patch_3">
    <path d="M 37.173938 102.33 
L 37.173938 7.2 
" style="fill:none;stroke:#ffffff;stroke-linecap:square;stroke-linejoin:miter;stroke-width:0.8;"/>
   </g>
   <g id="patch_4">
    <path d="M 204.573937 102.33 
L 204.573937 7.2 
" style="fill:none;stroke:#ffffff;stroke-linecap:square;stroke-linejoin:miter;stroke-width:0.8;"/>
   </g>
   <g id="patch_5">
    <path d="M 37.173938 102.33 
L 204.573938 102.33 
" style="fill:none;stroke:#ffffff;stroke-linecap:square;stroke-linejoin:miter;stroke-width:0.8;"/>
   </g>
   <g id="patch_6">
    <path d="M 37.173938 7.2 
L 204.573938 7.2 
" style="fill:none;stroke:#ffffff;stroke-linecap:square;stroke-linejoin:miter;stroke-width:0.8;"/>
   </g>
   <g id="legend_1">
    <g id="patch_7">
     <path d="M 41.373938 47.200312 
L 95.733 47.200312 
Q 96.933 47.200312 96.933 46.000312 
L 96.933 11.4 
Q 96.933 10.2 95.733 10.2 
L 41.373938 10.2 
Q 40.173938 10.2 40.173938 11.4 
L 40.173938 46.000312 
Q 40.173938 47.200312 41.373938 47.200312 
z
" style="fill:#e3dcd0;opacity:0.8;stroke:#cccccc;stroke-linejoin:miter;"/>
    </g>
    <g id="line2d_4">
     <path d="M 42.573937 15.125625 
L 54.573937 15.125625 
" style="fill:none;stroke:#738fc1;stroke-linecap:round;stroke-width:0.5;"/>
    </g>
    <g id="line2d_5">
     <g>
      <use style="fill:#738fc1;stroke:#738fc1;" x="48.573937" xlink:href="#m979c4247bf" y="15.125625"/>
     </g>
    </g>
    <g id="text_14">
     <!-- wild-caught -->
     <defs>
      <path d="M 15.765625 0 
L 0.59375 53.03125 
L 10.015625 53.03125 
L 21.625 11.96875 
L 34.1875 53.03125 
L 43.796875 53.03125 
L 54.78125 11.96875 
L 68.109375 53.03125 
L 76.375 53.03125 
L 59.078125 0 
L 49.421875 0 
L 38.1875 41.0625 
L 25.484375 0 
z
" id="LucidaSansUnicode-119"/>
      <path d="M 7.234375 26.515625 
L 7.234375 32.515625 
L 50.59375 32.515625 
L 50.59375 26.515625 
z
" id="LucidaSansUnicode-45"/>
      <path d="M 9.625 0 
L 9.625 77.09375 
L 19.234375 77.09375 
L 19.234375 43.0625 
Q 26.859375 54.203125 37.890625 54.203125 
Q 44.828125 54.203125 48.90625 49.828125 
Q 52.984375 45.453125 52.984375 38.09375 
L 52.984375 0 
L 43.359375 0 
L 43.359375 34.96875 
Q 43.359375 40.875 41.625 43.390625 
Q 39.890625 45.90625 35.890625 45.90625 
Q 27.046875 45.90625 19.234375 34.328125 
L 19.234375 0 
z
" id="LucidaSansUnicode-104"/>
      <path d="M 33.25 0 
Q 28.8125 -1.21875 25.53125 -1.21875 
Q 18.21875 -1.21875 14.109375 2.96875 
Q 10.015625 7.171875 10.015625 14.65625 
L 10.015625 45.796875 
L 3.375 45.796875 
L 3.375 53.03125 
L 10.015625 53.03125 
L 10.015625 62.640625 
L 19.625 63.578125 
L 19.625 53.03125 
L 33.5 53.03125 
L 33.5 45.796875 
L 19.625 45.796875 
L 19.625 16.40625 
Q 19.625 6 28.609375 6 
Q 30.515625 6 33.25 6.640625 
z
" id="LucidaSansUnicode-116"/>
     </defs>
     <g style="fill:#262626;" transform="translate(59.373937 17.225625)scale(0.06 -0.06)">
      <use xlink:href="#LucidaSansUnicode-119"/>
      <use x="77.050781" xlink:href="#LucidaSansUnicode-105"/>
      <use x="105.957031" xlink:href="#LucidaSansUnicode-108"/>
      <use x="134.863281" xlink:href="#LucidaSansUnicode-100"/>
      <use x="197.802734" xlink:href="#LucidaSansUnicode-45"/>
      <use x="255.664062" xlink:href="#LucidaSansUnicode-99"/>
      <use x="306.884766" xlink:href="#LucidaSansUnicode-97"/>
      <use x="362.109375" xlink:href="#LucidaSansUnicode-117"/>
      <use x="424.169922" xlink:href="#LucidaSansUnicode-103"/>
      <use x="486.523438" xlink:href="#LucidaSansUnicode-104"/>
      <use x="548.583984" xlink:href="#LucidaSansUnicode-116"/>
     </g>
    </g>
    <g id="line2d_6">
     <path d="M 42.573937 23.978438 
L 54.573937 23.978438 
" style="fill:none;stroke:#d56c55;stroke-linecap:round;stroke-width:0.5;"/>
    </g>
    <g id="line2d_7">
     <g>
      <use style="fill:#d56c55;stroke:#d56c55;" x="48.573937" xlink:href="#m7c8efad93d" y="23.978438"/>
     </g>
    </g>
    <g id="text_15">
     <!-- aquaculture -->
     <defs>
      <path d="M 43.65625 -19.28125 
L 43.65625 9.96875 
Q 37.796875 -1.21875 25.984375 -1.21875 
Q 16.40625 -1.21875 10.90625 5.765625 
Q 5.421875 12.75 5.421875 24.859375 
Q 5.421875 38.09375 11.640625 46.140625 
Q 17.875 54.203125 28.03125 54.203125 
Q 37.453125 54.203125 43.65625 46.96875 
L 43.65625 53.03125 
L 53.328125 53.03125 
L 53.328125 -19.28125 
z
M 43.65625 40.375 
Q 36.1875 46.96875 29.5 46.96875 
Q 22.90625 46.96875 19.28125 41.453125 
Q 15.671875 35.9375 15.671875 25.828125 
Q 15.671875 7.234375 27.984375 7.234375 
Q 35.984375 7.234375 43.65625 15.96875 
z
" id="LucidaSansUnicode-113"/>
     </defs>
     <g style="fill:#262626;" transform="translate(59.373937 26.078438)scale(0.06 -0.06)">
      <use xlink:href="#LucidaSansUnicode-97"/>
      <use x="55.224609" xlink:href="#LucidaSansUnicode-113"/>
      <use x="118.164062" xlink:href="#LucidaSansUnicode-117"/>
      <use x="180.224609" xlink:href="#LucidaSansUnicode-97"/>
      <use x="235.449219" xlink:href="#LucidaSansUnicode-99"/>
      <use x="286.669922" xlink:href="#LucidaSansUnicode-117"/>
      <use x="348.730469" xlink:href="#LucidaSansUnicode-108"/>
      <use x="377.636719" xlink:href="#LucidaSansUnicode-116"/>
      <use x="415.039062" xlink:href="#LucidaSansUnicode-117"/>
      <use x="477.099609" xlink:href="#LucidaSansUnicode-114"/>
      <use x="518.017578" xlink:href="#LucidaSansUnicode-101"/>
     </g>
    </g>
    <g id="line2d_8">
     <path d="M 42.573937 32.760938 
L 54.573937 32.760938 
" style="fill:none;stroke:#7e9d90;stroke-linecap:round;stroke-width:0.5;"/>
    </g>
    <g id="line2d_9">
     <g>
      <use style="fill:#7e9d90;stroke:#7e9d90;" x="48.573937" xlink:href="#m3e191d78a5" y="32.760938"/>
     </g>
    </g>
    <g id="text_16">
     <!-- total -->
     <g style="fill:#262626;" transform="translate(59.373937 34.860938)scale(0.06 -0.06)">
      <use xlink:href="#LucidaSansUnicode-116"/>
      <use x="37.402344" xlink:href="#LucidaSansUnicode-111"/>
      <use x="98.828125" xlink:href="#LucidaSansUnicode-116"/>
      <use x="136.230469" xlink:href="#LucidaSansUnicode-97"/>
      <use x="191.455078" xlink:href="#LucidaSansUnicode-108"/>
     </g>
    </g>
    <g id="line2d_10">
     <path d="M 42.573937 41.543438 
L 54.573937 41.543438 
" style="fill:none;stroke:#000000;stroke-dasharray:2.775,1.2;stroke-dashoffset:0;stroke-width:0.75;"/>
    </g>
    <g id="text_17">
     <!-- estimate -->
     <g style="fill:#262626;" transform="translate(59.373937 43.643438)scale(0.06 -0.06)">
      <use xlink:href="#LucidaSansUnicode-101"/>
      <use x="55.712891" xlink:href="#LucidaSansUnicode-115"/>
      <use x="106.689453" xlink:href="#LucidaSansUnicode-116"/>
      <use x="144.091797" xlink:href="#LucidaSansUnicode-105"/>
      <use x="172.998047" xlink:href="#LucidaSansUnicode-109"/>
      <use x="266.357422" xlink:href="#LucidaSansUnicode-97"/>
      <use x="321.582031" xlink:href="#LucidaSansUnicode-116"/>
      <use x="358.984375" xlink:href="#LucidaSansUnicode-101"/>
     </g>
    </g>
   </g>
  </g>
 </g>
 <defs>
  <clipPath id="p3c1ec062b0">
   <rect height="95.13" width="167.4" x="37.173938" y="7.2"/>
  </clipPath>
 </defs>
</svg>
