<?xml version="1.0" encoding="utf-8" standalone="no"?>
<!DOCTYPE svg PUBLIC "-//W3C//DTD SVG 1.1//EN"
  "http://www.w3.org/Graphics/SVG/1.1/DTD/svg11.dtd">
<!-- Created with matplotlib (https://matplotlib.org/) -->
<svg height="142.185pt" version="1.1" viewBox="0 0 211.848 142.185" width="211.848pt" xmlns="http://www.w3.org/2000/svg" xmlns:xlink="http://www.w3.org/1999/xlink">
 <defs>
  <style type="text/css">
*{stroke-linecap:butt;stroke-linejoin:round;}
  </style>
 </defs>
 <g id="figure_1">
  <g id="patch_1">
   <path d="M 0 142.185 
L 211.848 142.185 
L 211.848 0 
L 0 0 
z
" style="fill:#ffffff;"/>
  </g>
  <g id="axes_1">
   <g id="patch_2">
    <path d="M 37.248 115.92 
L 204.648 115.92 
L 204.648 7.2 
L 37.248 7.2 
z
" style="fill:#e3dcd0;"/>
   </g>
   <g id="matplotlib.axis_1">
    <g id="xtick_1">
     <g id="text_1">
      <!-- 1960 -->
      <defs>
       <path d="M 26.171875 0 
L 26.171875 65.046875 
L 14.75 65.046875 
L 14.75 71.09375 
L 35.84375 72.90625 
L 35.84375 0 
z
" id="LucidaSansUnicode-49"/>
       <path d="M 11.375 0.4375 
L 11.375 8.59375 
Q 20.5625 5.421875 27 5.421875 
Q 35.984375 5.421875 41.03125 13.0625 
Q 46.09375 20.703125 46.09375 34.328125 
Q 38.765625 25.296875 29.4375 25.296875 
Q 20.3125 25.296875 13.96875 32 
Q 7.625 38.71875 7.625 48.390625 
Q 7.625 59.46875 14.375 66.765625 
Q 21.140625 74.078125 31.390625 74.078125 
Q 43.171875 74.078125 49.953125 64.625 
Q 56.734375 55.171875 56.734375 38.765625 
Q 56.734375 28.328125 53.46875 19.109375 
Q 50.203125 9.90625 44.671875 4.78125 
Q 37.59375 -1.8125 26.078125 -1.8125 
Q 20.40625 -1.8125 11.375 0.4375 
z
M 17.234375 50.046875 
Q 17.234375 41.796875 20.984375 37.015625 
Q 24.75 32.234375 31.15625 32.234375 
Q 37.3125 32.234375 41.625 36.375 
Q 45.953125 40.53125 45.953125 46.390625 
Q 45.953125 55.609375 41.765625 61.25 
Q 37.59375 66.890625 30.8125 66.890625 
Q 24.46875 66.890625 20.84375 62.390625 
Q 17.234375 57.90625 17.234375 50.046875 
z
" id="LucidaSansUnicode-57"/>
       <path d="M 17.1875 37.453125 
Q 24.078125 46.390625 34.515625 46.390625 
Q 44 46.390625 50.03125 40.109375 
Q 56.0625 33.84375 56.0625 24.03125 
Q 56.0625 12.75 49.296875 5.46875 
Q 42.53125 -1.8125 32.078125 -1.8125 
Q 20.171875 -1.8125 13.421875 7.828125 
Q 6.6875 17.484375 6.6875 34.515625 
Q 6.6875 57.46875 18.453125 68.21875 
Q 24.859375 74.125 36.140625 74.125 
Q 42.671875 74.125 52.34375 71.390625 
L 52.34375 62.984375 
Q 42.140625 66.890625 35.546875 66.890625 
Q 17.1875 66.890625 17.1875 37.453125 
z
M 46.390625 22.125 
Q 46.390625 30.125 42.671875 34.78125 
Q 38.96875 39.453125 32.515625 39.453125 
Q 26.375 39.453125 21.96875 35.34375 
Q 17.578125 31.25 17.578125 25.484375 
Q 17.578125 16.40625 21.75 10.90625 
Q 25.921875 5.421875 32.8125 5.421875 
Q 39.0625 5.421875 42.71875 9.90625 
Q 46.390625 14.40625 46.390625 22.125 
z
" id="LucidaSansUnicode-54"/>
       <path d="M 31.640625 -1.8125 
Q 20.265625 -1.8125 13.296875 8.609375 
Q 6.34375 19.046875 6.34375 36.140625 
Q 6.34375 53.21875 13.296875 63.640625 
Q 20.265625 74.078125 31.640625 74.078125 
Q 43.0625 74.078125 50 63.671875 
Q 56.9375 53.265625 56.9375 36.140625 
Q 56.9375 19.046875 50 8.609375 
Q 43.0625 -1.8125 31.640625 -1.8125 
z
M 31.640625 5.421875 
Q 46.734375 5.421875 46.734375 36.140625 
Q 46.734375 66.84375 31.640625 66.84375 
Q 16.609375 66.84375 16.609375 36.140625 
Q 16.609375 5.421875 31.640625 5.421875 
z
" id="LucidaSansUnicode-48"/>
      </defs>
      <g transform="translate(52.146442 124.045625)scale(0.06 -0.06)">
       <use xlink:href="#LucidaSansUnicode-49"/>
       <use x="63.232422" xlink:href="#LucidaSansUnicode-57"/>
       <use x="126.464844" xlink:href="#LucidaSansUnicode-54"/>
       <use x="189.697266" xlink:href="#LucidaSansUnicode-48"/>
      </g>
     </g>
    </g>
    <g id="xtick_2">
     <g id="text_2">
      <!-- 1970 -->
      <defs>
       <path d="M 15.046875 0 
Q 16.453125 8.453125 19.0625 14.59375 
Q 21.6875 20.75 28.328125 31.5 
L 48.046875 63.234375 
L 10.84375 63.234375 
L 10.84375 72.265625 
L 57.234375 72.265625 
L 57.234375 63.234375 
Q 29.4375 22.265625 26.125 0 
z
" id="LucidaSansUnicode-55"/>
      </defs>
      <g transform="translate(77.131517 124.045625)scale(0.06 -0.06)">
       <use xlink:href="#LucidaSansUnicode-49"/>
       <use x="63.232422" xlink:href="#LucidaSansUnicode-57"/>
       <use x="126.464844" xlink:href="#LucidaSansUnicode-55"/>
       <use x="189.697266" xlink:href="#LucidaSansUnicode-48"/>
      </g>
     </g>
    </g>
    <g id="xtick_3">
     <g id="text_3">
      <!-- 1980 -->
      <defs>
       <path d="M 23 39.359375 
Q 17.046875 43.5 14.71875 47.0625 
Q 12.40625 50.640625 12.40625 55.671875 
Q 12.40625 63.875 18.40625 69 
Q 24.421875 74.125 34.078125 74.125 
Q 43.015625 74.125 48.5625 69.78125 
Q 54.109375 65.4375 54.109375 58.5 
Q 54.109375 48 40.625 39.359375 
Q 56.984375 31.34375 56.984375 18.703125 
Q 56.984375 9.671875 50.140625 3.921875 
Q 43.3125 -1.8125 32.5625 -1.8125 
Q 21.828125 -1.8125 15.234375 3.578125 
Q 8.640625 8.984375 8.640625 17.78125 
Q 8.640625 30.765625 23 39.359375 
z
M 35.25 42.390625 
Q 45.359375 49.03125 45.359375 57.171875 
Q 45.359375 61.53125 41.96875 64.1875 
Q 38.578125 66.84375 33.109375 66.84375 
Q 27.78125 66.84375 24.453125 64.234375 
Q 21.140625 61.625 21.140625 57.46875 
Q 21.140625 53.421875 24.140625 50.1875 
Q 27.15625 46.96875 35.25 42.390625 
z
M 28.21875 35.453125 
Q 22.40625 30.953125 20.328125 27.609375 
Q 18.265625 24.265625 18.265625 19.28125 
Q 18.265625 13.09375 22.265625 9.25 
Q 26.265625 5.421875 32.8125 5.421875 
Q 39.109375 5.421875 43.09375 8.6875 
Q 47.078125 11.96875 47.078125 17.1875 
Q 47.078125 21.390625 44.609375 24.296875 
Q 42.140625 27.203125 35.0625 31.390625 
z
" id="LucidaSansUnicode-56"/>
      </defs>
      <g transform="translate(102.116591 124.045625)scale(0.06 -0.06)">
       <use xlink:href="#LucidaSansUnicode-49"/>
       <use x="63.232422" xlink:href="#LucidaSansUnicode-57"/>
       <use x="126.464844" xlink:href="#LucidaSansUnicode-56"/>
       <use x="189.697266" xlink:href="#LucidaSansUnicode-48"/>
      </g>
     </g>
    </g>
    <g id="xtick_4">
     <g id="text_4">
      <!-- 1990 -->
      <g transform="translate(127.101666 124.045625)scale(0.06 -0.06)">
       <use xlink:href="#LucidaSansUnicode-49"/>
       <use x="63.232422" xlink:href="#LucidaSansUnicode-57"/>
       <use x="126.464844" xlink:href="#LucidaSansUnicode-57"/>
       <use x="189.697266" xlink:href="#LucidaSansUnicode-48"/>
      </g>
     </g>
    </g>
    <g id="xtick_5">
     <g id="text_5">
      <!-- 2000 -->
      <defs>
       <path d="M 8.296875 0 
L 8.296875 8.453125 
Q 12.5 18.265625 25.296875 29.828125 
L 30.8125 34.765625 
Q 41.453125 44.390625 41.453125 53.859375 
Q 41.453125 59.90625 37.8125 63.375 
Q 34.1875 66.84375 27.78125 66.84375 
Q 20.3125 66.84375 10.109375 61.03125 
L 10.109375 69.53125 
Q 19.734375 74.078125 29.25 74.078125 
Q 39.40625 74.078125 45.53125 68.609375 
Q 51.65625 63.140625 51.65625 54.109375 
Q 51.65625 47.609375 48.546875 42.578125 
Q 45.453125 37.546875 37.015625 30.375 
L 33.296875 27.203125 
Q 21.734375 17.390625 19.921875 8.453125 
L 51.3125 8.453125 
L 51.3125 0 
z
" id="LucidaSansUnicode-50"/>
      </defs>
      <g transform="translate(152.086741 124.045625)scale(0.06 -0.06)">
       <use xlink:href="#LucidaSansUnicode-50"/>
       <use x="63.232422" xlink:href="#LucidaSansUnicode-48"/>
       <use x="126.464844" xlink:href="#LucidaSansUnicode-48"/>
       <use x="189.697266" xlink:href="#LucidaSansUnicode-48"/>
      </g>
     </g>
    </g>
    <g id="xtick_6">
     <g id="text_6">
      <!-- 2010 -->
      <g transform="translate(177.071815 124.045625)scale(0.06 -0.06)">
       <use xlink:href="#LucidaSansUnicode-50"/>
       <use x="63.232422" xlink:href="#LucidaSansUnicode-48"/>
       <use x="126.464844" xlink:href="#LucidaSansUnicode-49"/>
       <use x="189.697266" xlink:href="#LucidaSansUnicode-48"/>
      </g>
     </g>
    </g>
    <g id="text_7">
     <!-- year -->
     <defs>
      <path d="M 12.703125 -19.28125 
L 21.296875 0 
L 0.78125 53.03125 
L 11.1875 53.03125 
L 26.375 13.09375 
L 42.578125 53.03125 
L 51.65625 53.03125 
L 22.703125 -19.28125 
z
" id="LucidaSansUnicode-121"/>
      <path d="M 48.484375 1.703125 
Q 38.8125 -1.21875 31.9375 -1.21875 
Q 20.171875 -1.21875 12.796875 6.5625 
Q 5.421875 14.359375 5.421875 26.765625 
Q 5.421875 38.8125 11.9375 46.53125 
Q 18.453125 54.25 28.609375 54.25 
Q 38.234375 54.25 43.484375 47.390625 
Q 48.734375 40.53125 48.734375 27.9375 
L 48.6875 25 
L 15.234375 25 
Q 17.328125 6.109375 33.734375 6.109375 
Q 39.75 6.109375 48.484375 9.328125 
z
M 15.671875 32.234375 
L 39.0625 32.234375 
Q 39.0625 47.015625 28.03125 47.015625 
Q 16.9375 47.015625 15.671875 32.234375 
z
" id="LucidaSansUnicode-101"/>
      <path d="M 36.96875 6.734375 
Q 28.328125 -1.21875 20.3125 -1.21875 
Q 13.71875 -1.21875 9.375 2.90625 
Q 5.03125 7.03125 5.03125 13.328125 
Q 5.03125 22.015625 12.328125 26.671875 
Q 19.625 31.34375 33.296875 31.34375 
L 35.546875 31.34375 
L 35.546875 37.75 
Q 35.546875 46.96875 25.921875 46.96875 
Q 18.453125 46.96875 9.625 42.28125 
L 9.625 50.25 
Q 19.34375 54.203125 27.9375 54.203125 
Q 36.765625 54.203125 40.96875 50.171875 
Q 45.171875 46.140625 45.171875 37.75 
L 45.171875 13.71875 
Q 45.171875 5.46875 50.25 5.46875 
Q 50.875 5.46875 52.09375 5.671875 
L 52.78125 0.34375 
Q 49.515625 -1.21875 45.5625 -1.21875 
Q 38.8125 -1.21875 36.96875 6.734375 
z
M 35.546875 11.96875 
L 35.546875 25.6875 
L 32.46875 25.78125 
Q 24.46875 25.78125 19.5625 22.796875 
Q 14.65625 19.828125 14.65625 14.890625 
Q 14.65625 11.421875 17.09375 9.03125 
Q 19.53125 6.640625 23.046875 6.640625 
Q 29.046875 6.640625 35.546875 11.96875 
z
" id="LucidaSansUnicode-97"/>
      <path d="M 9.625 0 
L 9.625 53.03125 
L 19.234375 53.03125 
L 19.234375 43.0625 
Q 24.953125 54.203125 35.84375 54.203125 
Q 37.3125 54.203125 38.921875 53.953125 
L 38.921875 44.96875 
Q 36.421875 45.796875 34.515625 45.796875 
Q 25.390625 45.796875 19.234375 34.96875 
L 19.234375 0 
z
" id="LucidaSansUnicode-114"/>
     </defs>
     <g style="fill:#262626;" transform="translate(114.824719 133.828125)scale(0.06 -0.06)">
      <use xlink:href="#LucidaSansUnicode-121"/>
      <use x="52.246094" xlink:href="#LucidaSansUnicode-101"/>
      <use x="107.958984" xlink:href="#LucidaSansUnicode-97"/>
      <use x="163.183594" xlink:href="#LucidaSansUnicode-114"/>
     </g>
    </g>
   </g>
   <g id="matplotlib.axis_2">
    <g id="ytick_1">
     <g id="text_8">
      <!-- 0.0 -->
      <defs>
       <path d="M 9.765625 0 
L 9.765625 12.0625 
L 21.828125 12.0625 
L 21.828125 0 
z
" id="LucidaSansUnicode-46"/>
      </defs>
      <g transform="translate(24.261438 118.232812)scale(0.06 -0.06)">
       <use xlink:href="#LucidaSansUnicode-48"/>
       <use x="63.232422" xlink:href="#LucidaSansUnicode-46"/>
       <use x="94.873047" xlink:href="#LucidaSansUnicode-48"/>
      </g>
     </g>
    </g>
    <g id="ytick_2">
     <g id="text_9">
      <!-- 0.5 -->
      <defs>
       <path d="M 12.15625 -0.296875 
L 12.15625 8.296875 
Q 19.34375 5.421875 25.828125 5.421875 
Q 32.953125 5.421875 37.03125 9.609375 
Q 41.109375 13.8125 41.109375 21.1875 
Q 41.109375 29.109375 35.34375 33.28125 
Q 29.59375 37.453125 18.703125 37.453125 
Q 16.15625 37.453125 13.375 37.109375 
L 13.375 72.265625 
L 49.953125 72.265625 
L 49.953125 63.875 
L 21.828125 63.875 
L 21.828125 44.828125 
Q 35.75 44.828125 43.5625 38.421875 
Q 51.375 32.03125 51.375 20.703125 
Q 51.375 10.15625 44.265625 4.171875 
Q 37.15625 -1.8125 24.65625 -1.8125 
Q 19.09375 -1.8125 12.15625 -0.296875 
z
" id="LucidaSansUnicode-53"/>
      </defs>
      <g transform="translate(24.261438 94.072812)scale(0.06 -0.06)">
       <use xlink:href="#LucidaSansUnicode-48"/>
       <use x="63.232422" xlink:href="#LucidaSansUnicode-46"/>
       <use x="94.873047" xlink:href="#LucidaSansUnicode-53"/>
      </g>
     </g>
    </g>
    <g id="ytick_3">
     <g id="text_10">
      <!-- 1.0 -->
      <g transform="translate(24.261438 69.912813)scale(0.06 -0.06)">
       <use xlink:href="#LucidaSansUnicode-49"/>
       <use x="63.232422" xlink:href="#LucidaSansUnicode-46"/>
       <use x="94.873047" xlink:href="#LucidaSansUnicode-48"/>
      </g>
     </g>
    </g>
    <g id="ytick_4">
     <g id="text_11">
      <!-- 1.5 -->
      <g transform="translate(24.261438 45.752813)scale(0.06 -0.06)">
       <use xlink:href="#LucidaSansUnicode-49"/>
       <use x="63.232422" xlink:href="#LucidaSansUnicode-46"/>
       <use x="94.873047" xlink:href="#LucidaSansUnicode-53"/>
      </g>
     </g>
    </g>
    <g id="ytick_5">
     <g id="text_12">
      <!-- 2.0 -->
      <g transform="translate(24.261438 21.592813)scale(0.06 -0.06)">
       <use xlink:href="#LucidaSansUnicode-50"/>
       <use x="63.232422" xlink:href="#LucidaSansUnicode-46"/>
       <use x="94.873047" xlink:href="#LucidaSansUnicode-48"/>
      </g>
     </g>
    </g>
    <g id="text_13">
     <!-- seafood (animal) mass produced -->
     <defs>
      <path d="M 7.671875 1.859375 
L 7.671875 10.6875 
Q 17.09375 6 24.078125 6 
Q 28.21875 6 30.953125 8.25 
Q 33.6875 10.5 33.6875 13.875 
Q 33.6875 18.796875 26.03125 22.015625 
L 20.40625 24.421875 
Q 7.953125 29.59375 7.953125 39.3125 
Q 7.953125 46.234375 12.859375 50.21875 
Q 17.78125 54.203125 26.3125 54.203125 
Q 30.765625 54.203125 37.3125 52.984375 
L 39.3125 52.59375 
L 39.3125 44.578125 
Q 31.25 46.96875 26.46875 46.96875 
Q 22.265625 46.96875 19.75 45.140625 
Q 17.234375 43.3125 17.234375 40.234375 
Q 17.234375 35.890625 24.265625 32.90625 
L 28.90625 30.953125 
Q 36.765625 27.640625 40.03125 23.953125 
Q 43.3125 20.265625 43.3125 14.75 
Q 43.3125 7.765625 37.796875 3.265625 
Q 32.28125 -1.21875 23.6875 -1.21875 
Q 17.09375 -1.21875 7.671875 1.859375 
z
" id="LucidaSansUnicode-115"/>
      <path d="M 11.421875 0 
L 11.421875 45.796875 
L 3.90625 45.796875 
L 3.90625 53.03125 
L 11.421875 53.03125 
L 11.421875 59.375 
Q 11.421875 78.328125 28.71875 78.328125 
Q 33.546875 78.328125 39.703125 76.703125 
L 39.703125 69.09375 
Q 33.203125 71.09375 29.296875 71.09375 
Q 24.5625 71.09375 22.828125 68.8125 
Q 21.09375 66.546875 21.09375 60.40625 
L 21.09375 53.03125 
L 34.328125 53.03125 
L 34.328125 45.796875 
L 21.09375 45.796875 
L 21.09375 0 
z
" id="LucidaSansUnicode-102"/>
      <path d="M 30.71875 -1.21875 
Q 19.046875 -1.21875 12.234375 6.25 
Q 5.421875 13.71875 5.421875 26.515625 
Q 5.421875 39.3125 12.234375 46.75 
Q 19.046875 54.203125 30.71875 54.203125 
Q 42.390625 54.203125 49.1875 46.75 
Q 56 39.3125 56 26.515625 
Q 56 13.71875 49.1875 6.25 
Q 42.390625 -1.21875 30.71875 -1.21875 
z
M 30.71875 6 
Q 37.890625 6 41.84375 11.375 
Q 45.796875 16.75 45.796875 26.515625 
Q 45.796875 36.28125 41.84375 41.625 
Q 37.890625 46.96875 30.71875 46.96875 
Q 23.53125 46.96875 19.59375 41.625 
Q 15.671875 36.28125 15.671875 26.515625 
Q 15.671875 16.75 19.59375 11.375 
Q 23.53125 6 30.71875 6 
z
" id="LucidaSansUnicode-111"/>
      <path d="M 43.65625 0 
L 43.65625 9.96875 
Q 37.796875 -1.21875 25.984375 -1.21875 
Q 16.40625 -1.21875 10.90625 5.765625 
Q 5.421875 12.75 5.421875 24.859375 
Q 5.421875 38.09375 11.640625 46.140625 
Q 17.875 54.203125 28.03125 54.203125 
Q 37.453125 54.203125 43.65625 46.96875 
L 43.65625 77.09375 
L 53.328125 77.09375 
L 53.328125 0 
z
M 43.65625 40.375 
Q 36.1875 46.96875 29.5 46.96875 
Q 22.90625 46.96875 19.28125 41.453125 
Q 15.671875 35.9375 15.671875 25.828125 
Q 15.671875 7.234375 27.984375 7.234375 
Q 35.984375 7.234375 43.65625 15.96875 
z
" id="LucidaSansUnicode-100"/>
      <path id="LucidaSansUnicode-32"/>
      <path d="M 28.90625 -7.8125 
L 28.90625 -14.453125 
Q 18.359375 -7.28125 12.171875 5.046875 
Q 6 17.390625 6 31.34375 
Q 6 45.265625 12.171875 57.59375 
Q 18.359375 69.921875 28.90625 77.09375 
L 28.90625 70.453125 
Q 21.734375 62.640625 18.671875 53.65625 
Q 15.625 44.671875 15.625 31.34375 
Q 15.625 17.96875 18.671875 8.984375 
Q 21.734375 0 28.90625 -7.8125 
z
" id="LucidaSansUnicode-40"/>
      <path d="M 9.625 0 
L 9.625 53.03125 
L 19.234375 53.03125 
L 19.234375 43.0625 
Q 26.859375 54.203125 37.890625 54.203125 
Q 44.828125 54.203125 48.90625 49.828125 
Q 52.984375 45.453125 52.984375 38.09375 
L 52.984375 0 
L 43.359375 0 
L 43.359375 34.96875 
Q 43.359375 40.875 41.625 43.390625 
Q 39.890625 45.90625 35.890625 45.90625 
Q 27.046875 45.90625 19.234375 34.328125 
L 19.234375 0 
z
" id="LucidaSansUnicode-110"/>
      <path d="M 9.625 0 
L 9.625 53.03125 
L 19.234375 53.03125 
L 19.234375 0 
z
M 9.625 62.640625 
L 9.625 72.265625 
L 19.234375 72.265625 
L 19.234375 62.640625 
z
" id="LucidaSansUnicode-105"/>
      <path d="M 9.625 0 
L 9.625 53.03125 
L 19.234375 53.03125 
L 19.234375 43.0625 
Q 26.265625 54.203125 37.3125 54.203125 
Q 47.953125 54.203125 51.8125 43.0625 
Q 58.640625 54.25 69.578125 54.25 
Q 76.5625 54.25 80.4375 50.125 
Q 84.328125 46 84.328125 38.578125 
L 84.328125 0 
L 74.65625 0 
L 74.65625 37.0625 
Q 74.65625 46.140625 67.484375 46.140625 
Q 60.015625 46.140625 51.8125 35.546875 
L 51.8125 0 
L 42.140625 0 
L 42.140625 37.0625 
Q 42.140625 46.1875 34.8125 46.1875 
Q 27.546875 46.1875 19.234375 35.546875 
L 19.234375 0 
z
" id="LucidaSansUnicode-109"/>
      <path d="M 9.625 0 
L 9.625 77.09375 
L 19.234375 77.09375 
L 19.234375 0 
z
" id="LucidaSansUnicode-108"/>
      <path d="M 3.609375 70.453125 
L 3.609375 77.09375 
Q 14.15625 69.921875 20.328125 57.59375 
Q 26.515625 45.265625 26.515625 31.34375 
Q 26.515625 17.390625 20.328125 5.046875 
Q 14.15625 -7.28125 3.609375 -14.453125 
L 3.609375 -7.8125 
Q 10.796875 0 13.8125 8.984375 
Q 16.84375 17.96875 16.84375 31.34375 
Q 16.84375 44.671875 13.8125 53.6875 
Q 10.796875 62.703125 3.609375 70.453125 
z
" id="LucidaSansUnicode-41"/>
      <path d="M 9.625 -19.28125 
L 9.625 53.03125 
L 19.234375 53.03125 
L 19.234375 43.0625 
Q 25.140625 54.203125 36.96875 54.203125 
Q 46.53125 54.203125 52.015625 47.21875 
Q 57.515625 40.234375 57.515625 28.125 
Q 57.515625 14.9375 51.28125 6.859375 
Q 45.0625 -1.21875 34.90625 -1.21875 
Q 25.484375 -1.21875 19.234375 6 
L 19.234375 -19.28125 
z
M 19.234375 12.640625 
Q 26.65625 6 33.40625 6 
Q 40.046875 6 43.65625 11.546875 
Q 47.265625 17.09375 47.265625 27.15625 
Q 47.265625 45.796875 34.96875 45.796875 
Q 26.90625 45.796875 19.234375 37.0625 
z
" id="LucidaSansUnicode-112"/>
      <path d="M 42.78125 0 
L 42.78125 9.96875 
Q 35.109375 -1.21875 24.171875 -1.21875 
Q 17.234375 -1.21875 13.125 3.140625 
Q 9.03125 7.515625 9.03125 14.9375 
L 9.03125 53.03125 
L 18.65625 53.03125 
L 18.65625 18.0625 
Q 18.65625 12.109375 20.390625 9.59375 
Q 22.125 7.078125 26.171875 7.078125 
Q 34.96875 7.078125 42.78125 18.65625 
L 42.78125 53.03125 
L 52.390625 53.03125 
L 52.390625 0 
z
" id="LucidaSansUnicode-117"/>
      <path d="M 46.4375 1.609375 
Q 37.109375 -1.21875 30.328125 -1.21875 
Q 19.578125 -1.21875 12.5 6.734375 
Q 5.421875 14.703125 5.421875 26.8125 
Q 5.421875 39.75 12.421875 46.96875 
Q 19.4375 54.203125 31.984375 54.203125 
Q 38.1875 54.203125 45.84375 52.484375 
L 45.84375 44.4375 
Q 37.703125 46.828125 32.5625 46.828125 
Q 25.140625 46.828125 20.703125 41.28125 
Q 16.265625 35.75 16.265625 26.515625 
Q 16.265625 17.578125 20.84375 12.0625 
Q 25.4375 6.546875 32.859375 6.546875 
Q 39.453125 6.546875 46.4375 9.90625 
z
" id="LucidaSansUnicode-99"/>
     </defs>
     <g style="fill:#262626;" transform="translate(11.796563 108.923906)rotate(-90)scale(0.06 -0.06)">
      <use xlink:href="#LucidaSansUnicode-115"/>
      <use x="50.976562" xlink:href="#LucidaSansUnicode-101"/>
      <use x="106.689453" xlink:href="#LucidaSansUnicode-97"/>
      <use x="161.914062" xlink:href="#LucidaSansUnicode-102"/>
      <use x="198.681641" xlink:href="#LucidaSansUnicode-111"/>
      <use x="260.107422" xlink:href="#LucidaSansUnicode-111"/>
      <use x="321.533203" xlink:href="#LucidaSansUnicode-100"/>
      <use x="384.472656" xlink:href="#LucidaSansUnicode-32"/>
      <use x="416.113281" xlink:href="#LucidaSansUnicode-40"/>
      <use x="448.632812" xlink:href="#LucidaSansUnicode-97"/>
      <use x="503.857422" xlink:href="#LucidaSansUnicode-110"/>
      <use x="565.917969" xlink:href="#LucidaSansUnicode-105"/>
      <use x="594.824219" xlink:href="#LucidaSansUnicode-109"/>
      <use x="688.183594" xlink:href="#LucidaSansUnicode-97"/>
      <use x="743.408203" xlink:href="#LucidaSansUnicode-108"/>
      <use x="772.314453" xlink:href="#LucidaSansUnicode-41"/>
      <use x="804.833984" xlink:href="#LucidaSansUnicode-32"/>
      <use x="836.474609" xlink:href="#LucidaSansUnicode-109"/>
      <use x="929.833984" xlink:href="#LucidaSansUnicode-97"/>
      <use x="985.058594" xlink:href="#LucidaSansUnicode-115"/>
      <use x="1036.035156" xlink:href="#LucidaSansUnicode-115"/>
      <use x="1087.011719" xlink:href="#LucidaSansUnicode-32"/>
      <use x="1118.652344" xlink:href="#LucidaSansUnicode-112"/>
      <use x="1181.591797" xlink:href="#LucidaSansUnicode-114"/>
      <use x="1222.509766" xlink:href="#LucidaSansUnicode-111"/>
      <use x="1283.935547" xlink:href="#LucidaSansUnicode-100"/>
      <use x="1346.875" xlink:href="#LucidaSansUnicode-117"/>
      <use x="1408.935547" xlink:href="#LucidaSansUnicode-99"/>
      <use x="1460.15625" xlink:href="#LucidaSansUnicode-101"/>
      <use x="1515.869141" xlink:href="#LucidaSansUnicode-100"/>
     </g>
     <!-- [10$^{11}$ kg] -->
     <defs>
      <path d="M 9.625 -14.453125 
L 9.625 77.09375 
L 28.90625 77.09375 
L 28.90625 69.875 
L 18.0625 69.875 
L 18.0625 -7.234375 
L 28.90625 -7.234375 
L 28.90625 -14.453125 
z
" id="LucidaSansUnicode-91"/>
      <path d="M 30.203125 0 
L 22.296875 0 
L 22.296875 57 
Q 20.09375 56 15.75 53.75 
Q 11.40625 51.5 10.796875 51.203125 
L 10.796875 58.5 
L 28.796875 67.703125 
L 30.203125 67.203125 
z
" id="STIXGeneral-Regular-120803"/>
      <path d="M 9.625 0 
L 9.625 77.09375 
L 19.234375 77.09375 
L 19.234375 27.296875 
L 41.703125 53.03125 
L 52.046875 53.03125 
L 30.609375 28.265625 
L 56.5 0 
L 44.1875 0 
L 19.234375 27.203125 
L 19.234375 0 
z
" id="LucidaSansUnicode-107"/>
      <path d="M 9.8125 -17.625 
L 10.9375 -9.28125 
Q 19.28125 -13.234375 27.4375 -13.234375 
Q 43.65625 -13.234375 43.65625 4 
L 43.65625 12.359375 
Q 41.15625 7.078125 36.546875 4.140625 
Q 31.9375 1.21875 26.265625 1.21875 
Q 16.65625 1.21875 11.03125 8.125 
Q 5.421875 15.046875 5.421875 26.859375 
Q 5.421875 38.96875 11.8125 46.578125 
Q 18.21875 54.203125 28.375 54.203125 
Q 37.25 54.203125 43.65625 46.96875 
L 43.65625 53.03125 
L 53.328125 53.03125 
L 53.328125 14.453125 
Q 53.328125 2 52.03125 -3.984375 
Q 50.734375 -9.96875 47.171875 -13.765625 
Q 40.875 -20.453125 27.484375 -20.453125 
Q 18.3125 -20.453125 9.8125 -17.625 
z
M 43.65625 18.359375 
L 43.65625 40.375 
Q 37.3125 46.96875 29.828125 46.96875 
Q 23.1875 46.96875 19.421875 41.640625 
Q 15.671875 36.328125 15.671875 26.90625 
Q 15.671875 9.625 27.9375 9.625 
Q 36.28125 9.625 43.65625 18.359375 
z
" id="LucidaSansUnicode-103"/>
      <path d="M 22.90625 77.09375 
L 22.90625 -14.453125 
L 3.609375 -14.453125 
L 3.609375 -7.234375 
L 14.453125 -7.234375 
L 14.453125 69.875 
L 3.609375 69.875 
L 3.609375 77.09375 
z
" id="LucidaSansUnicode-93"/>
     </defs>
     <g style="fill:#262626;" transform="translate(19.001438 74.1)rotate(-90)scale(0.06 -0.06)">
      <use transform="translate(0 0.370312)" xlink:href="#LucidaSansUnicode-91"/>
      <use transform="translate(32.519531 0.370312)" xlink:href="#LucidaSansUnicode-49"/>
      <use transform="translate(95.751953 0.370312)" xlink:href="#LucidaSansUnicode-48"/>
      <use transform="translate(159.77707 36.607813)scale(0.7)" xlink:href="#STIXGeneral-Regular-120803"/>
      <use transform="translate(194.77706 36.607813)scale(0.7)" xlink:href="#STIXGeneral-Regular-120803"/>
      <use transform="translate(232.041893 0.370312)" xlink:href="#LucidaSansUnicode-32"/>
      <use transform="translate(263.682518 0.370312)" xlink:href="#LucidaSansUnicode-107"/>
      <use transform="translate(322.129783 0.370312)" xlink:href="#LucidaSansUnicode-103"/>
      <use transform="translate(384.483299 0.370312)" xlink:href="#LucidaSansUnicode-93"/>
     </g>
    </g>
   </g>
   <g id="LineCollection_1">
    <path clip-path="url(#p723d2e1249)" d="M 37.248 19.28 
L 204.648 19.28 
" style="fill:none;stroke:#000000;stroke-dasharray:2.775,1.2;stroke-dashoffset:0;stroke-width:0.75;"/>
   </g>
   <g id="line2d_1">
    <path clip-path="url(#p723d2e1249)" d="M 34.749493 106.876532 
L 37.248 105.693997 
L 39.746507 104.818379 
L 42.245015 104.604674 
L 44.743522 103.664828 
L 47.24203 102.992354 
L 49.740537 102.169479 
L 52.239045 102.100433 
L 54.737552 101.814804 
L 57.23606 100.656392 
L 59.734567 99.52803 
L 62.233075 97.696691 
L 64.731582 96.08735 
L 67.23009 95.580141 
L 69.728597 93.363512 
L 72.227104 92.889869 
L 74.725612 91.023033 
L 77.224119 89.407777 
L 79.722627 87.796525 
L 82.221134 88.474224 
L 84.719642 85.557091 
L 87.218149 85.573325 
L 89.716657 87.593072 
L 92.215164 87.330317 
L 94.713672 85.793233 
L 97.212179 86.029624 
L 99.710687 84.394162 
L 102.209194 85.039789 
L 104.707701 84.013392 
L 107.206209 83.792455 
L 109.704716 83.443131 
L 112.203224 82.382543 
L 114.701731 81.57131 
L 117.200239 81.582944 
L 119.698746 78.873789 
L 122.197254 78.109802 
L 124.695761 75.448602 
L 127.194269 75.15651 
L 129.692776 73.477155 
L 132.191284 73.241161 
L 134.689791 75.010582 
L 137.188299 75.471529 
L 139.686806 74.750668 
L 142.185313 74.083474 
L 144.683821 71.403303 
L 147.182328 71.34409 
L 149.680836 70.587924 
L 152.179343 70.895023 
L 154.677851 74.434829 
L 157.176358 71.598086 
L 159.674866 70.709734 
L 162.173373 72.049243 
L 164.671881 71.911987 
L 167.170388 73.254182 
L 169.668896 71.052162 
L 172.167403 71.233759 
L 174.66591 72.340084 
L 177.164418 72.199546 
L 179.662925 72.677328 
L 182.161433 72.889198 
L 184.65994 73.819522 
L 187.158448 71.646873 
L 189.656955 73.091889 
L 192.155463 72.561031 
L 194.65397 72.248823 
L 197.152478 71.631503 
L 199.650985 72.60718 
L 202.149493 70.926283 
L 204.648 69.323206 
" style="fill:none;stroke:#738fc1;stroke-linecap:round;stroke-width:0.5;"/>
    <defs>
     <path d="M 0 0.5 
C 0.132602 0.5 0.25979 0.447317 0.353553 0.353553 
C 0.447317 0.25979 0.5 0.132602 0.5 0 
C 0.5 -0.132602 0.447317 -0.25979 0.353553 -0.353553 
C 0.25979 -0.447317 0.132602 -0.5 0 -0.5 
C -0.132602 -0.5 -0.25979 -0.447317 -0.353553 -0.353553 
C -0.447317 -0.25979 -0.5 -0.132602 -0.5 0 
C -0.5 0.132602 -0.447317 0.25979 -0.353553 0.353553 
C -0.25979 0.447317 -0.132602 0.5 0 0.5 
z
" id="m4f53f8b116" style="stroke:#738fc1;"/>
    </defs>
    <g clip-path="url(#p723d2e1249)">
     <use style="fill:#738fc1;stroke:#738fc1;" x="34.749493" xlink:href="#m4f53f8b116" y="106.876532"/>
     <use style="fill:#738fc1;stroke:#738fc1;" x="37.248" xlink:href="#m4f53f8b116" y="105.693997"/>
     <use style="fill:#738fc1;stroke:#738fc1;" x="39.746507" xlink:href="#m4f53f8b116" y="104.818379"/>
     <use style="fill:#738fc1;stroke:#738fc1;" x="42.245015" xlink:href="#m4f53f8b116" y="104.604674"/>
     <use style="fill:#738fc1;stroke:#738fc1;" x="44.743522" xlink:href="#m4f53f8b116" y="103.664828"/>
     <use style="fill:#738fc1;stroke:#738fc1;" x="47.24203" xlink:href="#m4f53f8b116" y="102.992354"/>
     <use style="fill:#738fc1;stroke:#738fc1;" x="49.740537" xlink:href="#m4f53f8b116" y="102.169479"/>
     <use style="fill:#738fc1;stroke:#738fc1;" x="52.239045" xlink:href="#m4f53f8b116" y="102.100433"/>
     <use style="fill:#738fc1;stroke:#738fc1;" x="54.737552" xlink:href="#m4f53f8b116" y="101.814804"/>
     <use style="fill:#738fc1;stroke:#738fc1;" x="57.23606" xlink:href="#m4f53f8b116" y="100.656392"/>
     <use style="fill:#738fc1;stroke:#738fc1;" x="59.734567" xlink:href="#m4f53f8b116" y="99.52803"/>
     <use style="fill:#738fc1;stroke:#738fc1;" x="62.233075" xlink:href="#m4f53f8b116" y="97.696691"/>
     <use style="fill:#738fc1;stroke:#738fc1;" x="64.731582" xlink:href="#m4f53f8b116" y="96.08735"/>
     <use style="fill:#738fc1;stroke:#738fc1;" x="67.23009" xlink:href="#m4f53f8b116" y="95.580141"/>
     <use style="fill:#738fc1;stroke:#738fc1;" x="69.728597" xlink:href="#m4f53f8b116" y="93.363512"/>
     <use style="fill:#738fc1;stroke:#738fc1;" x="72.227104" xlink:href="#m4f53f8b116" y="92.889869"/>
     <use style="fill:#738fc1;stroke:#738fc1;" x="74.725612" xlink:href="#m4f53f8b116" y="91.023033"/>
     <use style="fill:#738fc1;stroke:#738fc1;" x="77.224119" xlink:href="#m4f53f8b116" y="89.407777"/>
     <use style="fill:#738fc1;stroke:#738fc1;" x="79.722627" xlink:href="#m4f53f8b116" y="87.796525"/>
     <use style="fill:#738fc1;stroke:#738fc1;" x="82.221134" xlink:href="#m4f53f8b116" y="88.474224"/>
     <use style="fill:#738fc1;stroke:#738fc1;" x="84.719642" xlink:href="#m4f53f8b116" y="85.557091"/>
     <use style="fill:#738fc1;stroke:#738fc1;" x="87.218149" xlink:href="#m4f53f8b116" y="85.573325"/>
     <use style="fill:#738fc1;stroke:#738fc1;" x="89.716657" xlink:href="#m4f53f8b116" y="87.593072"/>
     <use style="fill:#738fc1;stroke:#738fc1;" x="92.215164" xlink:href="#m4f53f8b116" y="87.330317"/>
     <use style="fill:#738fc1;stroke:#738fc1;" x="94.713672" xlink:href="#m4f53f8b116" y="85.793233"/>
     <use style="fill:#738fc1;stroke:#738fc1;" x="97.212179" xlink:href="#m4f53f8b116" y="86.029624"/>
     <use style="fill:#738fc1;stroke:#738fc1;" x="99.710687" xlink:href="#m4f53f8b116" y="84.394162"/>
     <use style="fill:#738fc1;stroke:#738fc1;" x="102.209194" xlink:href="#m4f53f8b116" y="85.039789"/>
     <use style="fill:#738fc1;stroke:#738fc1;" x="104.707701" xlink:href="#m4f53f8b116" y="84.013392"/>
     <use style="fill:#738fc1;stroke:#738fc1;" x="107.206209" xlink:href="#m4f53f8b116" y="83.792455"/>
     <use style="fill:#738fc1;stroke:#738fc1;" x="109.704716" xlink:href="#m4f53f8b116" y="83.443131"/>
     <use style="fill:#738fc1;stroke:#738fc1;" x="112.203224" xlink:href="#m4f53f8b116" y="82.382543"/>
     <use style="fill:#738fc1;stroke:#738fc1;" x="114.701731" xlink:href="#m4f53f8b116" y="81.57131"/>
     <use style="fill:#738fc1;stroke:#738fc1;" x="117.200239" xlink:href="#m4f53f8b116" y="81.582944"/>
     <use style="fill:#738fc1;stroke:#738fc1;" x="119.698746" xlink:href="#m4f53f8b116" y="78.873789"/>
     <use style="fill:#738fc1;stroke:#738fc1;" x="122.197254" xlink:href="#m4f53f8b116" y="78.109802"/>
     <use style="fill:#738fc1;stroke:#738fc1;" x="124.695761" xlink:href="#m4f53f8b116" y="75.448602"/>
     <use style="fill:#738fc1;stroke:#738fc1;" x="127.194269" xlink:href="#m4f53f8b116" y="75.15651"/>
     <use style="fill:#738fc1;stroke:#738fc1;" x="129.692776" xlink:href="#m4f53f8b116" y="73.477155"/>
     <use style="fill:#738fc1;stroke:#738fc1;" x="132.191284" xlink:href="#m4f53f8b116" y="73.241161"/>
     <use style="fill:#738fc1;stroke:#738fc1;" x="134.689791" xlink:href="#m4f53f8b116" y="75.010582"/>
     <use style="fill:#738fc1;stroke:#738fc1;" x="137.188299" xlink:href="#m4f53f8b116" y="75.471529"/>
     <use style="fill:#738fc1;stroke:#738fc1;" x="139.686806" xlink:href="#m4f53f8b116" y="74.750668"/>
     <use style="fill:#738fc1;stroke:#738fc1;" x="142.185313" xlink:href="#m4f53f8b116" y="74.083474"/>
     <use style="fill:#738fc1;stroke:#738fc1;" x="144.683821" xlink:href="#m4f53f8b116" y="71.403303"/>
     <use style="fill:#738fc1;stroke:#738fc1;" x="147.182328" xlink:href="#m4f53f8b116" y="71.34409"/>
     <use style="fill:#738fc1;stroke:#738fc1;" x="149.680836" xlink:href="#m4f53f8b116" y="70.587924"/>
     <use style="fill:#738fc1;stroke:#738fc1;" x="152.179343" xlink:href="#m4f53f8b116" y="70.895023"/>
     <use style="fill:#738fc1;stroke:#738fc1;" x="154.677851" xlink:href="#m4f53f8b116" y="74.434829"/>
     <use style="fill:#738fc1;stroke:#738fc1;" x="157.176358" xlink:href="#m4f53f8b116" y="71.598086"/>
     <use style="fill:#738fc1;stroke:#738fc1;" x="159.674866" xlink:href="#m4f53f8b116" y="70.709734"/>
     <use style="fill:#738fc1;stroke:#738fc1;" x="162.173373" xlink:href="#m4f53f8b116" y="72.049243"/>
     <use style="fill:#738fc1;stroke:#738fc1;" x="164.671881" xlink:href="#m4f53f8b116" y="71.911987"/>
     <use style="fill:#738fc1;stroke:#738fc1;" x="167.170388" xlink:href="#m4f53f8b116" y="73.254182"/>
     <use style="fill:#738fc1;stroke:#738fc1;" x="169.668896" xlink:href="#m4f53f8b116" y="71.052162"/>
     <use style="fill:#738fc1;stroke:#738fc1;" x="172.167403" xlink:href="#m4f53f8b116" y="71.233759"/>
     <use style="fill:#738fc1;stroke:#738fc1;" x="174.66591" xlink:href="#m4f53f8b116" y="72.340084"/>
     <use style="fill:#738fc1;stroke:#738fc1;" x="177.164418" xlink:href="#m4f53f8b116" y="72.199546"/>
     <use style="fill:#738fc1;stroke:#738fc1;" x="179.662925" xlink:href="#m4f53f8b116" y="72.677328"/>
     <use style="fill:#738fc1;stroke:#738fc1;" x="182.161433" xlink:href="#m4f53f8b116" y="72.889198"/>
     <use style="fill:#738fc1;stroke:#738fc1;" x="184.65994" xlink:href="#m4f53f8b116" y="73.819522"/>
     <use style="fill:#738fc1;stroke:#738fc1;" x="187.158448" xlink:href="#m4f53f8b116" y="71.646873"/>
     <use style="fill:#738fc1;stroke:#738fc1;" x="189.656955" xlink:href="#m4f53f8b116" y="73.091889"/>
     <use style="fill:#738fc1;stroke:#738fc1;" x="192.155463" xlink:href="#m4f53f8b116" y="72.561031"/>
     <use style="fill:#738fc1;stroke:#738fc1;" x="194.65397" xlink:href="#m4f53f8b116" y="72.248823"/>
     <use style="fill:#738fc1;stroke:#738fc1;" x="197.152478" xlink:href="#m4f53f8b116" y="71.631503"/>
     <use style="fill:#738fc1;stroke:#738fc1;" x="199.650985" xlink:href="#m4f53f8b116" y="72.60718"/>
     <use style="fill:#738fc1;stroke:#738fc1;" x="202.149493" xlink:href="#m4f53f8b116" y="70.926283"/>
     <use style="fill:#738fc1;stroke:#738fc1;" x="204.648" xlink:href="#m4f53f8b116" y="69.323206"/>
    </g>
   </g>
   <g id="line2d_2">
    <path clip-path="url(#p723d2e1249)" d="M 34.749493 115.628234 
L 37.248 115.567847 
L 39.746507 115.522721 
L 42.245015 115.455021 
L 44.743522 115.393065 
L 47.24203 115.331674 
L 49.740537 115.33565 
L 52.239045 115.165835 
L 54.737552 115.185906 
L 57.23606 115.121974 
L 59.734567 115.120149 
L 62.233075 115.183411 
L 64.731582 115.157201 
L 67.23009 115.068746 
L 69.728597 115.027409 
L 72.227104 114.94362 
L 74.725612 114.913139 
L 77.224119 114.883929 
L 79.722627 114.817383 
L 82.221134 114.779047 
L 84.719642 114.679654 
L 87.218149 114.596661 
L 89.716657 114.492534 
L 92.215164 114.431336 
L 94.713672 114.345822 
L 97.212179 114.172188 
L 99.710687 114.117856 
L 102.209194 113.928184 
L 104.707701 113.888389 
L 107.206209 113.822217 
L 109.704716 113.646055 
L 112.203224 113.386521 
L 114.701731 113.179439 
L 117.200239 112.912825 
L 119.698746 112.564377 
L 122.197254 112.043787 
L 124.695761 111.491949 
L 127.194269 110.814686 
L 129.692776 110.275323 
L 132.191284 109.967557 
L 134.689791 109.597312 
L 137.188299 109.287378 
L 139.686806 108.473947 
L 142.185313 107.319385 
L 144.683821 105.850134 
L 147.182328 104.138392 
L 149.680836 103.095264 
L 152.179343 102.71813 
L 154.677851 102.19105 
L 157.176358 101.070703 
L 159.674866 100.255754 
L 162.173373 99.194621 
L 164.671881 98.144887 
L 167.170388 97.117133 
L 169.668896 95.669562 
L 172.167403 94.515194 
L 174.66591 93.085501 
L 177.164418 91.788491 
L 179.662925 90.35147 
L 182.161433 89.268151 
L 184.65994 88.018128 
L 187.158448 87.030081 
L 189.656955 85.246399 
L 192.155463 83.568953 
L 194.65397 81.851539 
L 197.152478 80.756905 
L 199.650985 78.953391 
L 202.149493 77.483916 
L 204.648 76.25167 
" style="fill:none;stroke:#d56c55;stroke-linecap:round;stroke-width:0.5;"/>
    <defs>
     <path d="M 0 0.5 
C 0.132602 0.5 0.25979 0.447317 0.353553 0.353553 
C 0.447317 0.25979 0.5 0.132602 0.5 0 
C 0.5 -0.132602 0.447317 -0.25979 0.353553 -0.353553 
C 0.25979 -0.447317 0.132602 -0.5 0 -0.5 
C -0.132602 -0.5 -0.25979 -0.447317 -0.353553 -0.353553 
C -0.447317 -0.25979 -0.5 -0.132602 -0.5 0 
C -0.5 0.132602 -0.447317 0.25979 -0.353553 0.353553 
C -0.25979 0.447317 -0.132602 0.5 0 0.5 
z
" id="m763f2e960f" style="stroke:#d56c55;"/>
    </defs>
    <g clip-path="url(#p723d2e1249)">
     <use style="fill:#d56c55;stroke:#d56c55;" x="34.749493" xlink:href="#m763f2e960f" y="115.628234"/>
     <use style="fill:#d56c55;stroke:#d56c55;" x="37.248" xlink:href="#m763f2e960f" y="115.567847"/>
     <use style="fill:#d56c55;stroke:#d56c55;" x="39.746507" xlink:href="#m763f2e960f" y="115.522721"/>
     <use style="fill:#d56c55;stroke:#d56c55;" x="42.245015" xlink:href="#m763f2e960f" y="115.455021"/>
     <use style="fill:#d56c55;stroke:#d56c55;" x="44.743522" xlink:href="#m763f2e960f" y="115.393065"/>
     <use style="fill:#d56c55;stroke:#d56c55;" x="47.24203" xlink:href="#m763f2e960f" y="115.331674"/>
     <use style="fill:#d56c55;stroke:#d56c55;" x="49.740537" xlink:href="#m763f2e960f" y="115.33565"/>
     <use style="fill:#d56c55;stroke:#d56c55;" x="52.239045" xlink:href="#m763f2e960f" y="115.165835"/>
     <use style="fill:#d56c55;stroke:#d56c55;" x="54.737552" xlink:href="#m763f2e960f" y="115.185906"/>
     <use style="fill:#d56c55;stroke:#d56c55;" x="57.23606" xlink:href="#m763f2e960f" y="115.121974"/>
     <use style="fill:#d56c55;stroke:#d56c55;" x="59.734567" xlink:href="#m763f2e960f" y="115.120149"/>
     <use style="fill:#d56c55;stroke:#d56c55;" x="62.233075" xlink:href="#m763f2e960f" y="115.183411"/>
     <use style="fill:#d56c55;stroke:#d56c55;" x="64.731582" xlink:href="#m763f2e960f" y="115.157201"/>
     <use style="fill:#d56c55;stroke:#d56c55;" x="67.23009" xlink:href="#m763f2e960f" y="115.068746"/>
     <use style="fill:#d56c55;stroke:#d56c55;" x="69.728597" xlink:href="#m763f2e960f" y="115.027409"/>
     <use style="fill:#d56c55;stroke:#d56c55;" x="72.227104" xlink:href="#m763f2e960f" y="114.94362"/>
     <use style="fill:#d56c55;stroke:#d56c55;" x="74.725612" xlink:href="#m763f2e960f" y="114.913139"/>
     <use style="fill:#d56c55;stroke:#d56c55;" x="77.224119" xlink:href="#m763f2e960f" y="114.883929"/>
     <use style="fill:#d56c55;stroke:#d56c55;" x="79.722627" xlink:href="#m763f2e960f" y="114.817383"/>
     <use style="fill:#d56c55;stroke:#d56c55;" x="82.221134" xlink:href="#m763f2e960f" y="114.779047"/>
     <use style="fill:#d56c55;stroke:#d56c55;" x="84.719642" xlink:href="#m763f2e960f" y="114.679654"/>
     <use style="fill:#d56c55;stroke:#d56c55;" x="87.218149" xlink:href="#m763f2e960f" y="114.596661"/>
     <use style="fill:#d56c55;stroke:#d56c55;" x="89.716657" xlink:href="#m763f2e960f" y="114.492534"/>
     <use style="fill:#d56c55;stroke:#d56c55;" x="92.215164" xlink:href="#m763f2e960f" y="114.431336"/>
     <use style="fill:#d56c55;stroke:#d56c55;" x="94.713672" xlink:href="#m763f2e960f" y="114.345822"/>
     <use style="fill:#d56c55;stroke:#d56c55;" x="97.212179" xlink:href="#m763f2e960f" y="114.172188"/>
     <use style="fill:#d56c55;stroke:#d56c55;" x="99.710687" xlink:href="#m763f2e960f" y="114.117856"/>
     <use style="fill:#d56c55;stroke:#d56c55;" x="102.209194" xlink:href="#m763f2e960f" y="113.928184"/>
     <use style="fill:#d56c55;stroke:#d56c55;" x="104.707701" xlink:href="#m763f2e960f" y="113.888389"/>
     <use style="fill:#d56c55;stroke:#d56c55;" x="107.206209" xlink:href="#m763f2e960f" y="113.822217"/>
     <use style="fill:#d56c55;stroke:#d56c55;" x="109.704716" xlink:href="#m763f2e960f" y="113.646055"/>
     <use style="fill:#d56c55;stroke:#d56c55;" x="112.203224" xlink:href="#m763f2e960f" y="113.386521"/>
     <use style="fill:#d56c55;stroke:#d56c55;" x="114.701731" xlink:href="#m763f2e960f" y="113.179439"/>
     <use style="fill:#d56c55;stroke:#d56c55;" x="117.200239" xlink:href="#m763f2e960f" y="112.912825"/>
     <use style="fill:#d56c55;stroke:#d56c55;" x="119.698746" xlink:href="#m763f2e960f" y="112.564377"/>
     <use style="fill:#d56c55;stroke:#d56c55;" x="122.197254" xlink:href="#m763f2e960f" y="112.043787"/>
     <use style="fill:#d56c55;stroke:#d56c55;" x="124.695761" xlink:href="#m763f2e960f" y="111.491949"/>
     <use style="fill:#d56c55;stroke:#d56c55;" x="127.194269" xlink:href="#m763f2e960f" y="110.814686"/>
     <use style="fill:#d56c55;stroke:#d56c55;" x="129.692776" xlink:href="#m763f2e960f" y="110.275323"/>
     <use style="fill:#d56c55;stroke:#d56c55;" x="132.191284" xlink:href="#m763f2e960f" y="109.967557"/>
     <use style="fill:#d56c55;stroke:#d56c55;" x="134.689791" xlink:href="#m763f2e960f" y="109.597312"/>
     <use style="fill:#d56c55;stroke:#d56c55;" x="137.188299" xlink:href="#m763f2e960f" y="109.287378"/>
     <use style="fill:#d56c55;stroke:#d56c55;" x="139.686806" xlink:href="#m763f2e960f" y="108.473947"/>
     <use style="fill:#d56c55;stroke:#d56c55;" x="142.185313" xlink:href="#m763f2e960f" y="107.319385"/>
     <use style="fill:#d56c55;stroke:#d56c55;" x="144.683821" xlink:href="#m763f2e960f" y="105.850134"/>
     <use style="fill:#d56c55;stroke:#d56c55;" x="147.182328" xlink:href="#m763f2e960f" y="104.138392"/>
     <use style="fill:#d56c55;stroke:#d56c55;" x="149.680836" xlink:href="#m763f2e960f" y="103.095264"/>
     <use style="fill:#d56c55;stroke:#d56c55;" x="152.179343" xlink:href="#m763f2e960f" y="102.71813"/>
     <use style="fill:#d56c55;stroke:#d56c55;" x="154.677851" xlink:href="#m763f2e960f" y="102.19105"/>
     <use style="fill:#d56c55;stroke:#d56c55;" x="157.176358" xlink:href="#m763f2e960f" y="101.070703"/>
     <use style="fill:#d56c55;stroke:#d56c55;" x="159.674866" xlink:href="#m763f2e960f" y="100.255754"/>
     <use style="fill:#d56c55;stroke:#d56c55;" x="162.173373" xlink:href="#m763f2e960f" y="99.194621"/>
     <use style="fill:#d56c55;stroke:#d56c55;" x="164.671881" xlink:href="#m763f2e960f" y="98.144887"/>
     <use style="fill:#d56c55;stroke:#d56c55;" x="167.170388" xlink:href="#m763f2e960f" y="97.117133"/>
     <use style="fill:#d56c55;stroke:#d56c55;" x="169.668896" xlink:href="#m763f2e960f" y="95.669562"/>
     <use style="fill:#d56c55;stroke:#d56c55;" x="172.167403" xlink:href="#m763f2e960f" y="94.515194"/>
     <use style="fill:#d56c55;stroke:#d56c55;" x="174.66591" xlink:href="#m763f2e960f" y="93.085501"/>
     <use style="fill:#d56c55;stroke:#d56c55;" x="177.164418" xlink:href="#m763f2e960f" y="91.788491"/>
     <use style="fill:#d56c55;stroke:#d56c55;" x="179.662925" xlink:href="#m763f2e960f" y="90.35147"/>
     <use style="fill:#d56c55;stroke:#d56c55;" x="182.161433" xlink:href="#m763f2e960f" y="89.268151"/>
     <use style="fill:#d56c55;stroke:#d56c55;" x="184.65994" xlink:href="#m763f2e960f" y="88.018128"/>
     <use style="fill:#d56c55;stroke:#d56c55;" x="187.158448" xlink:href="#m763f2e960f" y="87.030081"/>
     <use style="fill:#d56c55;stroke:#d56c55;" x="189.656955" xlink:href="#m763f2e960f" y="85.246399"/>
     <use style="fill:#d56c55;stroke:#d56c55;" x="192.155463" xlink:href="#m763f2e960f" y="83.568953"/>
     <use style="fill:#d56c55;stroke:#d56c55;" x="194.65397" xlink:href="#m763f2e960f" y="81.851539"/>
     <use style="fill:#d56c55;stroke:#d56c55;" x="197.152478" xlink:href="#m763f2e960f" y="80.756905"/>
     <use style="fill:#d56c55;stroke:#d56c55;" x="199.650985" xlink:href="#m763f2e960f" y="78.953391"/>
     <use style="fill:#d56c55;stroke:#d56c55;" x="202.149493" xlink:href="#m763f2e960f" y="77.483916"/>
     <use style="fill:#d56c55;stroke:#d56c55;" x="204.648" xlink:href="#m763f2e960f" y="76.25167"/>
    </g>
   </g>
   <g id="line2d_3">
    <path clip-path="url(#p723d2e1249)" d="M 34.749493 106.584765 
L 37.248 105.341844 
L 39.746507 104.4211 
L 42.245015 104.139695 
L 44.743522 103.137893 
L 47.24203 102.404028 
L 49.740537 101.585128 
L 52.239045 101.346268 
L 54.737552 101.08071 
L 57.23606 99.858367 
L 59.734567 98.728178 
L 62.233075 96.960103 
L 64.731582 95.324551 
L 67.23009 94.728886 
L 69.728597 92.470921 
L 72.227104 91.913489 
L 74.725612 90.016172 
L 77.224119 88.371706 
L 79.722627 86.693908 
L 82.221134 87.333271 
L 84.719642 84.316744 
L 87.218149 84.249986 
L 89.716657 86.165606 
L 92.215164 85.841653 
L 94.713672 84.219055 
L 97.212179 84.281813 
L 99.710687 82.592017 
L 102.209194 83.047974 
L 104.707701 81.981781 
L 107.206209 81.694672 
L 109.704716 81.169187 
L 112.203224 79.849064 
L 114.701731 78.830749 
L 117.200239 78.575769 
L 119.698746 75.518166 
L 122.197254 74.233588 
L 124.695761 71.020551 
L 127.194269 70.051196 
L 129.692776 67.832478 
L 132.191284 67.288718 
L 134.689791 68.687894 
L 137.188299 68.838907 
L 139.686806 67.304615 
L 142.185313 65.482858 
L 144.683821 61.333437 
L 147.182328 59.562482 
L 149.680836 57.763188 
L 152.179343 57.693153 
L 154.677851 60.705879 
L 157.176358 56.74879 
L 159.674866 55.045488 
L 162.173373 55.323864 
L 164.671881 54.136874 
L 167.170388 54.451315 
L 169.668896 50.801724 
L 172.167403 49.828953 
L 174.66591 49.505585 
L 177.164418 48.068037 
L 179.662925 47.108798 
L 182.161433 46.237349 
L 184.65994 45.917649 
L 187.158448 42.756954 
L 189.656955 42.418288 
L 192.155463 40.209984 
L 194.65397 38.180361 
L 197.152478 36.468408 
L 199.650985 35.640571 
L 202.149493 32.490199 
L 204.648 29.654876 
" style="fill:none;stroke:#7e9d90;stroke-linecap:round;stroke-width:0.5;"/>
    <defs>
     <path d="M 0 0.5 
C 0.132602 0.5 0.25979 0.447317 0.353553 0.353553 
C 0.447317 0.25979 0.5 0.132602 0.5 0 
C 0.5 -0.132602 0.447317 -0.25979 0.353553 -0.353553 
C 0.25979 -0.447317 0.132602 -0.5 0 -0.5 
C -0.132602 -0.5 -0.25979 -0.447317 -0.353553 -0.353553 
C -0.447317 -0.25979 -0.5 -0.132602 -0.5 0 
C -0.5 0.132602 -0.447317 0.25979 -0.353553 0.353553 
C -0.25979 0.447317 -0.132602 0.5 0 0.5 
z
" id="m6314408387" style="stroke:#7e9d90;"/>
    </defs>
    <g clip-path="url(#p723d2e1249)">
     <use style="fill:#7e9d90;stroke:#7e9d90;" x="34.749493" xlink:href="#m6314408387" y="106.584765"/>
     <use style="fill:#7e9d90;stroke:#7e9d90;" x="37.248" xlink:href="#m6314408387" y="105.341844"/>
     <use style="fill:#7e9d90;stroke:#7e9d90;" x="39.746507" xlink:href="#m6314408387" y="104.4211"/>
     <use style="fill:#7e9d90;stroke:#7e9d90;" x="42.245015" xlink:href="#m6314408387" y="104.139695"/>
     <use style="fill:#7e9d90;stroke:#7e9d90;" x="44.743522" xlink:href="#m6314408387" y="103.137893"/>
     <use style="fill:#7e9d90;stroke:#7e9d90;" x="47.24203" xlink:href="#m6314408387" y="102.404028"/>
     <use style="fill:#7e9d90;stroke:#7e9d90;" x="49.740537" xlink:href="#m6314408387" y="101.585128"/>
     <use style="fill:#7e9d90;stroke:#7e9d90;" x="52.239045" xlink:href="#m6314408387" y="101.346268"/>
     <use style="fill:#7e9d90;stroke:#7e9d90;" x="54.737552" xlink:href="#m6314408387" y="101.08071"/>
     <use style="fill:#7e9d90;stroke:#7e9d90;" x="57.23606" xlink:href="#m6314408387" y="99.858367"/>
     <use style="fill:#7e9d90;stroke:#7e9d90;" x="59.734567" xlink:href="#m6314408387" y="98.728178"/>
     <use style="fill:#7e9d90;stroke:#7e9d90;" x="62.233075" xlink:href="#m6314408387" y="96.960103"/>
     <use style="fill:#7e9d90;stroke:#7e9d90;" x="64.731582" xlink:href="#m6314408387" y="95.324551"/>
     <use style="fill:#7e9d90;stroke:#7e9d90;" x="67.23009" xlink:href="#m6314408387" y="94.728886"/>
     <use style="fill:#7e9d90;stroke:#7e9d90;" x="69.728597" xlink:href="#m6314408387" y="92.470921"/>
     <use style="fill:#7e9d90;stroke:#7e9d90;" x="72.227104" xlink:href="#m6314408387" y="91.913489"/>
     <use style="fill:#7e9d90;stroke:#7e9d90;" x="74.725612" xlink:href="#m6314408387" y="90.016172"/>
     <use style="fill:#7e9d90;stroke:#7e9d90;" x="77.224119" xlink:href="#m6314408387" y="88.371706"/>
     <use style="fill:#7e9d90;stroke:#7e9d90;" x="79.722627" xlink:href="#m6314408387" y="86.693908"/>
     <use style="fill:#7e9d90;stroke:#7e9d90;" x="82.221134" xlink:href="#m6314408387" y="87.333271"/>
     <use style="fill:#7e9d90;stroke:#7e9d90;" x="84.719642" xlink:href="#m6314408387" y="84.316744"/>
     <use style="fill:#7e9d90;stroke:#7e9d90;" x="87.218149" xlink:href="#m6314408387" y="84.249986"/>
     <use style="fill:#7e9d90;stroke:#7e9d90;" x="89.716657" xlink:href="#m6314408387" y="86.165606"/>
     <use style="fill:#7e9d90;stroke:#7e9d90;" x="92.215164" xlink:href="#m6314408387" y="85.841653"/>
     <use style="fill:#7e9d90;stroke:#7e9d90;" x="94.713672" xlink:href="#m6314408387" y="84.219055"/>
     <use style="fill:#7e9d90;stroke:#7e9d90;" x="97.212179" xlink:href="#m6314408387" y="84.281813"/>
     <use style="fill:#7e9d90;stroke:#7e9d90;" x="99.710687" xlink:href="#m6314408387" y="82.592017"/>
     <use style="fill:#7e9d90;stroke:#7e9d90;" x="102.209194" xlink:href="#m6314408387" y="83.047974"/>
     <use style="fill:#7e9d90;stroke:#7e9d90;" x="104.707701" xlink:href="#m6314408387" y="81.981781"/>
     <use style="fill:#7e9d90;stroke:#7e9d90;" x="107.206209" xlink:href="#m6314408387" y="81.694672"/>
     <use style="fill:#7e9d90;stroke:#7e9d90;" x="109.704716" xlink:href="#m6314408387" y="81.169187"/>
     <use style="fill:#7e9d90;stroke:#7e9d90;" x="112.203224" xlink:href="#m6314408387" y="79.849064"/>
     <use style="fill:#7e9d90;stroke:#7e9d90;" x="114.701731" xlink:href="#m6314408387" y="78.830749"/>
     <use style="fill:#7e9d90;stroke:#7e9d90;" x="117.200239" xlink:href="#m6314408387" y="78.575769"/>
     <use style="fill:#7e9d90;stroke:#7e9d90;" x="119.698746" xlink:href="#m6314408387" y="75.518166"/>
     <use style="fill:#7e9d90;stroke:#7e9d90;" x="122.197254" xlink:href="#m6314408387" y="74.233588"/>
     <use style="fill:#7e9d90;stroke:#7e9d90;" x="124.695761" xlink:href="#m6314408387" y="71.020551"/>
     <use style="fill:#7e9d90;stroke:#7e9d90;" x="127.194269" xlink:href="#m6314408387" y="70.051196"/>
     <use style="fill:#7e9d90;stroke:#7e9d90;" x="129.692776" xlink:href="#m6314408387" y="67.832478"/>
     <use style="fill:#7e9d90;stroke:#7e9d90;" x="132.191284" xlink:href="#m6314408387" y="67.288718"/>
     <use style="fill:#7e9d90;stroke:#7e9d90;" x="134.689791" xlink:href="#m6314408387" y="68.687894"/>
     <use style="fill:#7e9d90;stroke:#7e9d90;" x="137.188299" xlink:href="#m6314408387" y="68.838907"/>
     <use style="fill:#7e9d90;stroke:#7e9d90;" x="139.686806" xlink:href="#m6314408387" y="67.304615"/>
     <use style="fill:#7e9d90;stroke:#7e9d90;" x="142.185313" xlink:href="#m6314408387" y="65.482858"/>
     <use style="fill:#7e9d90;stroke:#7e9d90;" x="144.683821" xlink:href="#m6314408387" y="61.333437"/>
     <use style="fill:#7e9d90;stroke:#7e9d90;" x="147.182328" xlink:href="#m6314408387" y="59.562482"/>
     <use style="fill:#7e9d90;stroke:#7e9d90;" x="149.680836" xlink:href="#m6314408387" y="57.763188"/>
     <use style="fill:#7e9d90;stroke:#7e9d90;" x="152.179343" xlink:href="#m6314408387" y="57.693153"/>
     <use style="fill:#7e9d90;stroke:#7e9d90;" x="154.677851" xlink:href="#m6314408387" y="60.705879"/>
     <use style="fill:#7e9d90;stroke:#7e9d90;" x="157.176358" xlink:href="#m6314408387" y="56.74879"/>
     <use style="fill:#7e9d90;stroke:#7e9d90;" x="159.674866" xlink:href="#m6314408387" y="55.045488"/>
     <use style="fill:#7e9d90;stroke:#7e9d90;" x="162.173373" xlink:href="#m6314408387" y="55.323864"/>
     <use style="fill:#7e9d90;stroke:#7e9d90;" x="164.671881" xlink:href="#m6314408387" y="54.136874"/>
     <use style="fill:#7e9d90;stroke:#7e9d90;" x="167.170388" xlink:href="#m6314408387" y="54.451315"/>
     <use style="fill:#7e9d90;stroke:#7e9d90;" x="169.668896" xlink:href="#m6314408387" y="50.801724"/>
     <use style="fill:#7e9d90;stroke:#7e9d90;" x="172.167403" xlink:href="#m6314408387" y="49.828953"/>
     <use style="fill:#7e9d90;stroke:#7e9d90;" x="174.66591" xlink:href="#m6314408387" y="49.505585"/>
     <use style="fill:#7e9d90;stroke:#7e9d90;" x="177.164418" xlink:href="#m6314408387" y="48.068037"/>
     <use style="fill:#7e9d90;stroke:#7e9d90;" x="179.662925" xlink:href="#m6314408387" y="47.108798"/>
     <use style="fill:#7e9d90;stroke:#7e9d90;" x="182.161433" xlink:href="#m6314408387" y="46.237349"/>
     <use style="fill:#7e9d90;stroke:#7e9d90;" x="184.65994" xlink:href="#m6314408387" y="45.917649"/>
     <use style="fill:#7e9d90;stroke:#7e9d90;" x="187.158448" xlink:href="#m6314408387" y="42.756954"/>
     <use style="fill:#7e9d90;stroke:#7e9d90;" x="189.656955" xlink:href="#m6314408387" y="42.418288"/>
     <use style="fill:#7e9d90;stroke:#7e9d90;" x="192.155463" xlink:href="#m6314408387" y="40.209984"/>
     <use style="fill:#7e9d90;stroke:#7e9d90;" x="194.65397" xlink:href="#m6314408387" y="38.180361"/>
     <use style="fill:#7e9d90;stroke:#7e9d90;" x="197.152478" xlink:href="#m6314408387" y="36.468408"/>
     <use style="fill:#7e9d90;stroke:#7e9d90;" x="199.650985" xlink:href="#m6314408387" y="35.640571"/>
     <use style="fill:#7e9d90;stroke:#7e9d90;" x="202.149493" xlink:href="#m6314408387" y="32.490199"/>
     <use style="fill:#7e9d90;stroke:#7e9d90;" x="204.648" xlink:href="#m6314408387" y="29.654876"/>
    </g>
   </g>
   <g id="patch_3">
    <path d="M 37.248 115.92 
L 37.248 7.2 
" style="fill:none;stroke:#ffffff;stroke-linecap:square;stroke-linejoin:miter;stroke-width:0.8;"/>
   </g>
   <g id="patch_4">
    <path d="M 204.648 115.92 
L 204.648 7.2 
" style="fill:none;stroke:#ffffff;stroke-linecap:square;stroke-linejoin:miter;stroke-width:0.8;"/>
   </g>
   <g id="patch_5">
    <path d="M 37.248 115.92 
L 204.648 115.92 
" style="fill:none;stroke:#ffffff;stroke-linecap:square;stroke-linejoin:miter;stroke-width:0.8;"/>
   </g>
   <g id="patch_6">
    <path d="M 37.248 7.2 
L 204.648 7.2 
" style="fill:none;stroke:#ffffff;stroke-linecap:square;stroke-linejoin:miter;stroke-width:0.8;"/>
   </g>
   <g id="legend_1">
    <g id="patch_7">
     <path d="M 41.448 47.200312 
L 95.807063 47.200312 
Q 97.007063 47.200312 97.007063 46.000312 
L 97.007063 11.4 
Q 97.007063 10.2 95.807063 10.2 
L 41.448 10.2 
Q 40.248 10.2 40.248 11.4 
L 40.248 46.000312 
Q 40.248 47.200312 41.448 47.200312 
z
" style="fill:#e3dcd0;opacity:0.8;stroke:#cccccc;stroke-linejoin:miter;"/>
    </g>
    <g id="line2d_4">
     <path d="M 42.648 15.125625 
L 54.648 15.125625 
" style="fill:none;stroke:#738fc1;stroke-linecap:round;stroke-width:0.5;"/>
    </g>
    <g id="line2d_5">
     <g>
      <use style="fill:#738fc1;stroke:#738fc1;" x="48.648" xlink:href="#m4f53f8b116" y="15.125625"/>
     </g>
    </g>
    <g id="text_14">
     <!-- wild-caught -->
     <defs>
      <path d="M 15.765625 0 
L 0.59375 53.03125 
L 10.015625 53.03125 
L 21.625 11.96875 
L 34.1875 53.03125 
L 43.796875 53.03125 
L 54.78125 11.96875 
L 68.109375 53.03125 
L 76.375 53.03125 
L 59.078125 0 
L 49.421875 0 
L 38.1875 41.0625 
L 25.484375 0 
z
" id="LucidaSansUnicode-119"/>
      <path d="M 7.234375 26.515625 
L 7.234375 32.515625 
L 50.59375 32.515625 
L 50.59375 26.515625 
z
" id="LucidaSansUnicode-45"/>
      <path d="M 9.625 0 
L 9.625 77.09375 
L 19.234375 77.09375 
L 19.234375 43.0625 
Q 26.859375 54.203125 37.890625 54.203125 
Q 44.828125 54.203125 48.90625 49.828125 
Q 52.984375 45.453125 52.984375 38.09375 
L 52.984375 0 
L 43.359375 0 
L 43.359375 34.96875 
Q 43.359375 40.875 41.625 43.390625 
Q 39.890625 45.90625 35.890625 45.90625 
Q 27.046875 45.90625 19.234375 34.328125 
L 19.234375 0 
z
" id="LucidaSansUnicode-104"/>
      <path d="M 33.25 0 
Q 28.8125 -1.21875 25.53125 -1.21875 
Q 18.21875 -1.21875 14.109375 2.96875 
Q 10.015625 7.171875 10.015625 14.65625 
L 10.015625 45.796875 
L 3.375 45.796875 
L 3.375 53.03125 
L 10.015625 53.03125 
L 10.015625 62.640625 
L 19.625 63.578125 
L 19.625 53.03125 
L 33.5 53.03125 
L 33.5 45.796875 
L 19.625 45.796875 
L 19.625 16.40625 
Q 19.625 6 28.609375 6 
Q 30.515625 6 33.25 6.640625 
z
" id="LucidaSansUnicode-116"/>
     </defs>
     <g style="fill:#262626;" transform="translate(59.448 17.225625)scale(0.06 -0.06)">
      <use xlink:href="#LucidaSansUnicode-119"/>
      <use x="77.050781" xlink:href="#LucidaSansUnicode-105"/>
      <use x="105.957031" xlink:href="#LucidaSansUnicode-108"/>
      <use x="134.863281" xlink:href="#LucidaSansUnicode-100"/>
      <use x="197.802734" xlink:href="#LucidaSansUnicode-45"/>
      <use x="255.664062" xlink:href="#LucidaSansUnicode-99"/>
      <use x="306.884766" xlink:href="#LucidaSansUnicode-97"/>
      <use x="362.109375" xlink:href="#LucidaSansUnicode-117"/>
      <use x="424.169922" xlink:href="#LucidaSansUnicode-103"/>
      <use x="486.523438" xlink:href="#LucidaSansUnicode-104"/>
      <use x="548.583984" xlink:href="#LucidaSansUnicode-116"/>
     </g>
    </g>
    <g id="line2d_6">
     <path d="M 42.648 23.978438 
L 54.648 23.978438 
" style="fill:none;stroke:#d56c55;stroke-linecap:round;stroke-width:0.5;"/>
    </g>
    <g id="line2d_7">
     <g>
      <use style="fill:#d56c55;stroke:#d56c55;" x="48.648" xlink:href="#m763f2e960f" y="23.978438"/>
     </g>
    </g>
    <g id="text_15">
     <!-- aquaculture -->
     <defs>
      <path d="M 43.65625 -19.28125 
L 43.65625 9.96875 
Q 37.796875 -1.21875 25.984375 -1.21875 
Q 16.40625 -1.21875 10.90625 5.765625 
Q 5.421875 12.75 5.421875 24.859375 
Q 5.421875 38.09375 11.640625 46.140625 
Q 17.875 54.203125 28.03125 54.203125 
Q 37.453125 54.203125 43.65625 46.96875 
L 43.65625 53.03125 
L 53.328125 53.03125 
L 53.328125 -19.28125 
z
M 43.65625 40.375 
Q 36.1875 46.96875 29.5 46.96875 
Q 22.90625 46.96875 19.28125 41.453125 
Q 15.671875 35.9375 15.671875 25.828125 
Q 15.671875 7.234375 27.984375 7.234375 
Q 35.984375 7.234375 43.65625 15.96875 
z
" id="LucidaSansUnicode-113"/>
     </defs>
     <g style="fill:#262626;" transform="translate(59.448 26.078438)scale(0.06 -0.06)">
      <use xlink:href="#LucidaSansUnicode-97"/>
      <use x="55.224609" xlink:href="#LucidaSansUnicode-113"/>
      <use x="118.164062" xlink:href="#LucidaSansUnicode-117"/>
      <use x="180.224609" xlink:href="#LucidaSansUnicode-97"/>
      <use x="235.449219" xlink:href="#LucidaSansUnicode-99"/>
      <use x="286.669922" xlink:href="#LucidaSansUnicode-117"/>
      <use x="348.730469" xlink:href="#LucidaSansUnicode-108"/>
      <use x="377.636719" xlink:href="#LucidaSansUnicode-116"/>
      <use x="415.039062" xlink:href="#LucidaSansUnicode-117"/>
      <use x="477.099609" xlink:href="#LucidaSansUnicode-114"/>
      <use x="518.017578" xlink:href="#LucidaSansUnicode-101"/>
     </g>
    </g>
    <g id="line2d_8">
     <path d="M 42.648 32.760938 
L 54.648 32.760938 
" style="fill:none;stroke:#7e9d90;stroke-linecap:round;stroke-width:0.5;"/>
    </g>
    <g id="line2d_9">
     <g>
      <use style="fill:#7e9d90;stroke:#7e9d90;" x="48.648" xlink:href="#m6314408387" y="32.760938"/>
     </g>
    </g>
    <g id="text_16">
     <!-- total -->
     <g style="fill:#262626;" transform="translate(59.448 34.860938)scale(0.06 -0.06)">
      <use xlink:href="#LucidaSansUnicode-116"/>
      <use x="37.402344" xlink:href="#LucidaSansUnicode-111"/>
      <use x="98.828125" xlink:href="#LucidaSansUnicode-116"/>
      <use x="136.230469" xlink:href="#LucidaSansUnicode-97"/>
      <use x="191.455078" xlink:href="#LucidaSansUnicode-108"/>
     </g>
    </g>
    <g id="line2d_10">
     <path d="M 42.648 41.543438 
L 54.648 41.543438 
" style="fill:none;stroke:#000000;stroke-dasharray:2.775,1.2;stroke-dashoffset:0;stroke-width:0.75;"/>
    </g>
    <g id="text_17">
     <!-- estimate -->
     <g style="fill:#262626;" transform="translate(59.448 43.643438)scale(0.06 -0.06)">
      <use xlink:href="#LucidaSansUnicode-101"/>
      <use x="55.712891" xlink:href="#LucidaSansUnicode-115"/>
      <use x="106.689453" xlink:href="#LucidaSansUnicode-116"/>
      <use x="144.091797" xlink:href="#LucidaSansUnicode-105"/>
      <use x="172.998047" xlink:href="#LucidaSansUnicode-109"/>
      <use x="266.357422" xlink:href="#LucidaSansUnicode-97"/>
      <use x="321.582031" xlink:href="#LucidaSansUnicode-116"/>
      <use x="358.984375" xlink:href="#LucidaSansUnicode-101"/>
     </g>
    </g>
   </g>
  </g>
 </g>
 <defs>
  <clipPath id="p723d2e1249">
   <rect height="108.72" width="167.4" x="37.248" y="7.2"/>
  </clipPath>
 </defs>
</svg>
