<?xml version="1.0" encoding="utf-8" standalone="no"?>
<!DOCTYPE svg PUBLIC "-//W3C//DTD SVG 1.1//EN"
  "http://www.w3.org/Graphics/SVG/1.1/DTD/svg11.dtd">
<!-- Created with matplotlib (https://matplotlib.org/) -->
<svg height="166.581818pt" version="1.1" viewBox="0 0 349.2 166.581818" width="349.2pt" xmlns="http://www.w3.org/2000/svg" xmlns:xlink="http://www.w3.org/1999/xlink">
 <defs>
  <style type="text/css">
*{stroke-linecap:butt;stroke-linejoin:round;}
  </style>
 </defs>
 <g id="figure_1">
  <g id="patch_1">
   <path d="M 0 166.581818 
L 349.2 166.581818 
L 349.2 0 
L 0 0 
z
" style="fill:#ffffff;"/>
  </g>
  <g id="axes_1">
   <g id="matplotlib.axis_1"/>
   <g id="matplotlib.axis_2"/>
   <g id="patch_2">
    <path d="M 144.163636 83.290909 
C 144.163636 75.297176 142.589045 67.381171 139.529976 59.995925 
C 136.470907 52.610678 131.98685 45.899814 126.334427 40.247391 
C 120.682004 34.594968 113.97114 30.110912 106.585893 27.051842 
C 99.200647 23.992773 91.284642 22.418182 83.290909 22.418182 
C 75.297176 22.418182 67.381171 23.992773 59.995925 27.051842 
C 52.610678 30.110912 45.899814 34.594968 40.247391 40.247391 
C 34.594968 45.899814 30.110912 52.610678 27.051842 59.995925 
C 23.992773 67.381171 22.418182 75.297176 22.418182 83.290909 
C 22.418182 91.284642 23.992773 99.200647 27.051842 106.585893 
C 30.110912 113.97114 34.594968 120.682004 40.247391 126.334427 
C 45.899814 131.98685 52.610678 136.470907 59.995925 139.529976 
C 67.381171 142.589045 75.297176 144.163636 83.290909 144.163636 
C 91.284642 144.163636 99.200647 142.589045 106.585893 139.529976 
C 113.97114 136.470907 120.682004 131.98685 126.334427 126.334427 
C 131.98685 120.682004 136.470907 113.97114 139.529976 106.585893 
C 142.589045 99.200647 144.163636 91.284642 144.163636 83.290909 
M 83.290909 83.290909 
M 144.163636 83.290909 
z
" style="fill:#d56c55;stroke:#ffffff;stroke-linejoin:miter;"/>
   </g>
   <g id="patch_3">
    <path clip-path="url(#pe81e650444)" d="M 83.290909 119.814545 
C 92.977091 119.814545 102.267855 115.966185 109.11702 109.11702 
C 115.966185 102.267855 119.814545 92.977091 119.814545 83.290909 
C 119.814545 73.604728 115.966185 64.313963 109.11702 57.464798 
C 102.267855 50.615633 92.977091 46.767273 83.290909 46.767273 
C 73.604728 46.767273 64.313963 50.615633 57.464798 57.464798 
C 50.615633 64.313963 46.767273 73.604728 46.767273 83.290909 
C 46.767273 92.977091 50.615633 102.267855 57.464798 109.11702 
C 64.313963 115.966185 73.604728 119.814545 83.290909 119.814545 
z
" style="fill:#ffffff;stroke:#ffffff;stroke-linejoin:miter;"/>
   </g>
  </g>
  <g id="axes_2">
   <g id="matplotlib.axis_3"/>
   <g id="matplotlib.axis_4"/>
   <g id="patch_4">
    <path d="M 326.781818 83.290909 
C 326.781818 75.297176 325.207227 67.381171 322.148158 59.995925 
C 319.089088 52.610678 314.605032 45.899814 308.952609 40.247391 
C 303.300186 34.594968 296.589322 30.110912 289.204075 27.051842 
C 281.818829 23.992773 273.902824 22.418182 265.909091 22.418182 
C 257.915358 22.418182 249.999353 23.992773 242.614107 27.051842 
C 235.22886 30.110912 228.517996 34.594968 222.865573 40.247391 
C 217.21315 45.899814 212.729093 52.610678 209.670024 59.995925 
C 206.610955 67.381171 205.036364 75.297176 205.036364 83.290909 
C 205.036364 91.284642 206.610955 99.200647 209.670024 106.585893 
C 212.729093 113.97114 217.21315 120.682004 222.865573 126.334427 
C 228.517996 131.98685 235.22886 136.470907 242.614107 139.529976 
C 249.999353 142.589045 257.915358 144.163636 265.909091 144.163636 
C 273.902824 144.163636 281.818829 142.589045 289.204075 139.529976 
C 296.589322 136.470907 303.300186 131.98685 308.952609 126.334427 
C 314.605032 120.682004 319.089088 113.97114 322.148158 106.585893 
C 325.207227 99.200647 326.781818 91.284642 326.781818 83.290909 
M 265.909091 83.290909 
M 326.781818 83.290909 
z
" style="fill:#d56c55;stroke:#ffffff;stroke-linejoin:miter;"/>
   </g>
   <g id="patch_5">
    <path clip-path="url(#pb3cccff1f1)" d="M 265.909091 119.814545 
C 275.595272 119.814545 284.886037 115.966185 291.735202 109.11702 
C 298.584367 102.267855 302.432727 92.977091 302.432727 83.290909 
C 302.432727 73.604728 298.584367 64.313963 291.735202 57.464798 
C 284.886037 50.615633 275.595272 46.767273 265.909091 46.767273 
C 256.222909 46.767273 246.932145 50.615633 240.08298 57.464798 
C 233.233815 64.313963 229.385455 73.604728 229.385455 83.290909 
C 229.385455 92.977091 233.233815 102.267855 240.08298 109.11702 
C 246.932145 115.966185 256.222909 119.814545 265.909091 119.814545 
z
" style="fill:#ffffff;stroke:#ffffff;stroke-linejoin:miter;"/>
   </g>
  </g>
 </g>
 <defs>
  <clipPath id="pe81e650444">
   <rect height="152.181818" width="152.181818" x="7.2" y="7.2"/>
  </clipPath>
  <clipPath id="pb3cccff1f1">
   <rect height="152.181818" width="152.181818" x="189.818182" y="7.2"/>
  </clipPath>
 </defs>
</svg>
