<?xml version="1.0" encoding="utf-8" standalone="no"?>
<!DOCTYPE svg PUBLIC "-//W3C//DTD SVG 1.1//EN"
  "http://www.w3.org/Graphics/SVG/1.1/DTD/svg11.dtd">
<!-- Created with matplotlib (https://matplotlib.org/) -->
<svg height="180pt" version="1.1" viewBox="0 0 180 180" width="180pt" xmlns="http://www.w3.org/2000/svg" xmlns:xlink="http://www.w3.org/1999/xlink">
 <defs>
  <style type="text/css">
*{stroke-linecap:butt;stroke-linejoin:round;}
  </style>
 </defs>
 <g id="figure_1">
  <g id="patch_1">
   <path d="M 0 180 
L 180 180 
L 180 0 
L 0 0 
z
" style="fill:#ffffff;"/>
  </g>
  <g id="axes_1">
   <g id="matplotlib.axis_1"/>
   <g id="matplotlib.axis_2"/>
   <g id="patch_2">
    <path d="M 146.61 89.55 
C 146.61 89.106633 146.604576 88.663284 146.593729 88.22005 
C 146.582881 87.776816 146.566612 87.333731 146.544924 86.890896 
L 92.25 89.55 
L 146.61 89.55 
z
" style="fill:#7e9d90;stroke:#ffffff;stroke-linejoin:miter;"/>
   </g>
   <g id="patch_3">
    <path d="M 146.544924 86.890896 
C 146.43639 84.674788 146.192278 82.467402 145.813958 80.281129 
C 145.435639 78.094856 144.923822 75.933795 144.281379 73.810076 
L 92.25 89.55 
L 146.544924 86.890896 
z
" style="fill:#905426;stroke:#ffffff;stroke-linejoin:miter;"/>
   </g>
   <g id="patch_4">
    <path d="M 144.281379 73.810076 
C 143.430605 70.997678 142.353207 68.258883 141.059777 65.620619 
C 139.766347 62.982355 138.261138 60.453297 136.558951 58.058311 
L 92.25 89.55 
L 144.281379 73.810076 
z
" style="fill:#ab85ac;stroke:#ffffff;stroke-linejoin:miter;"/>
   </g>
   <g id="patch_5">
    <path d="M 136.558951 58.058311 
C 134.602596 55.30571 132.393991 52.74139 129.961794 50.398624 
C 127.529597 48.055858 124.884373 45.944824 122.060447 44.092912 
L 92.25 89.55 
L 136.558951 58.058311 
z
" style="fill:#4b4b4b;stroke:#ffffff;stroke-linejoin:miter;"/>
   </g>
   <g id="patch_6">
    <path d="M 122.060447 44.092912 
C 118.398113 41.691178 114.458913 39.740816 110.328596 38.284281 
C 106.198278 36.827745 101.907033 35.875683 97.548271 35.448818 
L 92.25 89.55 
L 122.060447 44.092912 
z
" style="fill:#bfd598;stroke:#ffffff;stroke-linejoin:miter;"/>
   </g>
   <g id="patch_7">
    <path d="M 97.548271 35.448818 
C 89.487164 34.659372 81.350601 35.681481 73.735211 38.440195 
C 66.119821 41.198909 59.216408 45.625109 53.531177 51.394235 
L 92.25 89.55 
L 97.548271 35.448818 
z
" style="fill:#e8b19d;stroke:#ffffff;stroke-linejoin:miter;"/>
   </g>
   <g id="patch_8">
    <path d="M 53.531177 51.394235 
C 47.268602 57.749226 42.665873 65.549382 40.130664 74.103823 
C 37.595455 82.658265 37.204893 91.706746 38.993572 100.44782 
C 40.782251 109.188895 44.695755 117.356638 50.387455 124.227614 
C 56.079155 131.09859 63.375896 136.463766 71.631387 139.847936 
C 79.886879 143.232107 88.84997 144.532317 97.726778 143.633403 
C 106.603585 142.73449 115.124055 139.6638 122.533509 134.693313 
C 129.942963 129.722825 136.015988 123.003754 140.214681 115.131224 
C 144.413373 107.258694 146.61 98.472205 146.61 89.55 
L 92.25 89.55 
L 53.531177 51.394235 
z
" style="fill:#738fc1;stroke:#ffffff;stroke-linejoin:miter;"/>
   </g>
   <g id="patch_9">
    <path clip-path="url(#p0c3fe4f2e4)" d="M 92.25 122.166 
C 100.899864 122.166 109.196617 118.729372 115.312995 112.612995 
C 121.429372 106.496617 124.866 98.199864 124.866 89.55 
C 124.866 80.900136 121.429372 72.603383 115.312995 66.487005 
C 109.196617 60.370628 100.899864 56.934 92.25 56.934 
C 83.600136 56.934 75.303383 60.370628 69.187005 66.487005 
C 63.070628 72.603383 59.634 80.900136 59.634 89.55 
C 59.634 98.199864 63.070628 106.496617 69.187005 112.612995 
C 75.303383 118.729372 83.600136 122.166 92.25 122.166 
z
" style="fill:#ffffff;stroke:#ffffff;stroke-linejoin:miter;"/>
   </g>
  </g>
 </g>
 <defs>
  <clipPath id="p0c3fe4f2e4">
   <rect height="135.9" width="135.9" x="24.3" y="21.6"/>
  </clipPath>
 </defs>
</svg>
