<?xml version="1.0" encoding="utf-8" standalone="no"?>
<!DOCTYPE svg PUBLIC "-//W3C//DTD SVG 1.1//EN"
  "http://www.w3.org/Graphics/SVG/1.1/DTD/svg11.dtd">
<!-- Created with matplotlib (https://matplotlib.org/) -->
<svg height="180pt" version="1.1" viewBox="0 0 180 180" width="180pt" xmlns="http://www.w3.org/2000/svg" xmlns:xlink="http://www.w3.org/1999/xlink">
 <defs>
  <style type="text/css">
*{stroke-linecap:butt;stroke-linejoin:round;}
  </style>
 </defs>
 <g id="figure_1">
  <g id="patch_1">
   <path d="M 0 180 
L 180 180 
L 180 0 
L 0 0 
z
" style="fill:#ffffff;"/>
  </g>
  <g id="axes_1">
   <g id="matplotlib.axis_1"/>
   <g id="matplotlib.axis_2"/>
   <g id="patch_2">
    <path d="M 146.61 89.55 
C 146.61 88.112066 146.552946 86.674698 146.438971 85.241288 
C 146.324997 83.807877 146.154192 82.379554 145.926961 80.959687 
L 92.25 89.55 
L 146.61 89.55 
z
" style="fill:#ab85ac;stroke:#ffffff;stroke-linejoin:miter;"/>
   </g>
   <g id="patch_3">
    <path d="M 145.926961 80.959687 
C 145.215453 76.513797 143.954335 72.173478 142.17261 68.038548 
C 140.390886 63.903619 138.102319 60.006023 135.359543 56.435398 
L 92.25 89.55 
L 145.926961 80.959687 
z
" style="fill:#7e9d90;stroke:#ffffff;stroke-linejoin:miter;"/>
   </g>
   <g id="patch_4">
    <path d="M 135.359543 56.435398 
C 131.98218 52.038649 127.95197 48.184351 123.408967 45.006444 
C 118.865963 41.828537 113.863408 39.364263 108.575143 37.699259 
L 92.25 89.55 
L 135.359543 56.435398 
z
" style="fill:#4b4b4b;stroke:#ffffff;stroke-linejoin:miter;"/>
   </g>
   <g id="patch_5">
    <path d="M 108.575143 37.699259 
C 103.176963 35.999649 97.546326 35.153423 91.887032 35.191212 
C 86.227739 35.229 80.608904 36.150342 75.233902 37.921887 
L 92.25 89.55 
L 108.575143 37.699259 
z
" style="fill:#e8b19d;stroke:#ffffff;stroke-linejoin:miter;"/>
   </g>
   <g id="patch_6">
    <path d="M 75.233902 37.921887 
C 68.773259 40.051249 62.769346 43.374522 57.534661 47.718734 
C 52.299976 52.062945 47.926943 57.351393 44.643172 63.308821 
L 92.25 89.55 
L 75.233902 37.921887 
z
" style="fill:#905426;stroke:#ffffff;stroke-linejoin:miter;"/>
   </g>
   <g id="patch_7">
    <path d="M 44.643172 63.308821 
C 38.170368 75.0518 36.265912 88.784309 39.298807 101.845561 
C 42.331703 114.906812 50.092541 126.394986 61.077596 134.084154 
L 92.25 89.55 
L 44.643172 63.308821 
z
" style="fill:#bfd598;stroke:#ffffff;stroke-linejoin:miter;"/>
   </g>
   <g id="patch_8">
    <path d="M 61.077596 134.084154 
C 69.223362 139.785915 78.779471 143.144944 88.701278 143.794043 
C 98.623084 144.443141 108.535374 142.357762 117.354565 137.765873 
C 126.173756 133.173984 133.566331 126.249236 138.724156 117.748624 
C 143.881982 109.248011 146.610003 99.493002 146.61 89.549986 
L 92.25 89.55 
L 61.077596 134.084154 
z
" style="fill:#738fc1;stroke:#ffffff;stroke-linejoin:miter;"/>
   </g>
   <g id="patch_9">
    <path clip-path="url(#pf865a6fc7f)" d="M 92.25 122.166 
C 100.899864 122.166 109.196617 118.729372 115.312995 112.612995 
C 121.429372 106.496617 124.866 98.199864 124.866 89.55 
C 124.866 80.900136 121.429372 72.603383 115.312995 66.487005 
C 109.196617 60.370628 100.899864 56.934 92.25 56.934 
C 83.600136 56.934 75.303383 60.370628 69.187005 66.487005 
C 63.070628 72.603383 59.634 80.900136 59.634 89.55 
C 59.634 98.199864 63.070628 106.496617 69.187005 112.612995 
C 75.303383 118.729372 83.600136 122.166 92.25 122.166 
z
" style="fill:#ffffff;stroke:#ffffff;stroke-linejoin:miter;"/>
   </g>
  </g>
 </g>
 <defs>
  <clipPath id="pf865a6fc7f">
   <rect height="135.9" width="135.9" x="24.3" y="21.6"/>
  </clipPath>
 </defs>
</svg>
