<?xml version="1.0" encoding="utf-8" standalone="no"?>
<!DOCTYPE svg PUBLIC "-//W3C//DTD SVG 1.1//EN"
  "http://www.w3.org/Graphics/SVG/1.1/DTD/svg11.dtd">
<!-- Created with matplotlib (https://matplotlib.org/) -->
<svg height="180pt" version="1.1" viewBox="0 0 180 180" width="180pt" xmlns="http://www.w3.org/2000/svg" xmlns:xlink="http://www.w3.org/1999/xlink">
 <defs>
  <style type="text/css">
*{stroke-linecap:butt;stroke-linejoin:round;}
  </style>
 </defs>
 <g id="figure_1">
  <g id="patch_1">
   <path d="M 0 180 
L 180 180 
L 180 0 
L 0 0 
z
" style="fill:#ffffff;"/>
  </g>
  <g id="axes_1">
   <g id="matplotlib.axis_1"/>
   <g id="matplotlib.axis_2"/>
   <g id="patch_2">
    <path d="M 146.61 89.55 
C 146.61 89.106633 146.604576 88.663284 146.593729 88.22005 
C 146.582881 87.776816 146.566612 87.333731 146.544924 86.890896 
L 92.25 89.55 
L 146.61 89.55 
z
" style="fill:#eac264;stroke:#ffffff;stroke-linejoin:miter;"/>
   </g>
   <g id="patch_3">
    <path d="M 146.544924 86.890896 
C 146.43639 84.674788 146.192278 82.467402 145.813958 80.281129 
C 145.435639 78.094856 144.923822 75.933795 144.281379 73.810076 
L 92.25 89.55 
L 146.544924 86.890896 
z
" style="fill:#9b8579;stroke:#ffffff;stroke-linejoin:miter;"/>
   </g>
   <g id="patch_4">
    <path d="M 144.281379 73.810076 
C 143.303569 70.577736 142.02668 67.443533 140.467279 64.448136 
C 138.907879 61.452739 137.072741 58.609159 134.985678 55.954295 
L 92.25 89.55 
L 144.281379 73.810076 
z
" style="stroke:#ffffff;stroke-linejoin:miter;"/>
   </g>
   <g id="patch_5">
    <path d="M 134.985678 55.954295 
C 132.278978 52.511216 129.166073 49.407826 125.714725 46.711678 
C 122.263376 44.015531 118.498811 41.746333 114.502976 39.953481 
L 92.25 89.55 
L 134.985678 55.954295 
z
" style="fill:#bfd598;stroke:#ffffff;stroke-linejoin:miter;"/>
   </g>
   <g id="patch_6">
    <path d="M 114.502976 39.953481 
C 104.387525 35.414879 93.121657 34.077745 82.224844 36.122424 
C 71.32803 38.167104 61.31323 43.497344 53.531176 51.394236 
L 92.25 89.55 
L 114.502976 39.953481 
z
" style="fill:#d56c55;stroke:#ffffff;stroke-linejoin:miter;"/>
   </g>
   <g id="patch_7">
    <path d="M 53.531176 51.394236 
C 47.268602 57.749227 42.665872 65.549383 40.130663 74.103825 
C 37.595454 82.658266 37.204893 91.706747 38.993572 100.447821 
C 40.782252 109.188896 44.695756 117.356639 50.387456 124.227615 
C 56.079156 131.09859 63.375897 136.463767 71.631388 139.847937 
C 79.88688 143.232107 88.849971 144.532317 97.726779 143.633403 
C 106.603586 142.734489 115.124056 139.6638 122.53351 134.693312 
C 129.942964 129.722824 136.015989 123.003753 140.214681 115.131223 
C 144.413374 107.258692 146.61 98.472204 146.61 89.549998 
L 92.25 89.55 
L 53.531176 51.394236 
z
" style="fill:#738fc1;stroke:#ffffff;stroke-linejoin:miter;"/>
   </g>
   <g id="patch_8">
    <path clip-path="url(#p933445e689)" d="M 92.25 122.166 
C 100.899864 122.166 109.196617 118.729372 115.312995 112.612995 
C 121.429372 106.496617 124.866 98.199864 124.866 89.55 
C 124.866 80.900136 121.429372 72.603383 115.312995 66.487005 
C 109.196617 60.370628 100.899864 56.934 92.25 56.934 
C 83.600136 56.934 75.303383 60.370628 69.187005 66.487005 
C 63.070628 72.603383 59.634 80.900136 59.634 89.55 
C 59.634 98.199864 63.070628 106.496617 69.187005 112.612995 
C 75.303383 118.729372 83.600136 122.166 92.25 122.166 
z
" style="fill:#ffffff;stroke:#ffffff;stroke-linejoin:miter;"/>
   </g>
  </g>
 </g>
 <defs>
  <clipPath id="p933445e689">
   <rect height="135.9" width="135.9" x="24.3" y="21.6"/>
  </clipPath>
 </defs>
</svg>
