<?xml version="1.0" encoding="utf-8" standalone="no"?>
<!DOCTYPE svg PUBLIC "-//W3C//DTD SVG 1.1//EN"
  "http://www.w3.org/Graphics/SVG/1.1/DTD/svg11.dtd">
<!-- Created with matplotlib (https://matplotlib.org/) -->
<svg height="180pt" version="1.1" viewBox="0 0 180 180" width="180pt" xmlns="http://www.w3.org/2000/svg" xmlns:xlink="http://www.w3.org/1999/xlink">
 <defs>
  <style type="text/css">
*{stroke-linecap:butt;stroke-linejoin:round;}
  </style>
 </defs>
 <g id="figure_1">
  <g id="patch_1">
   <path d="M 0 180 
L 180 180 
L 180 0 
L 0 0 
z
" style="fill:#ffffff;"/>
  </g>
  <g id="axes_1">
   <g id="matplotlib.axis_1"/>
   <g id="matplotlib.axis_2"/>
   <g id="patch_2">
    <path d="M 146.61 89.55 
C 146.61 85.047536 146.050613 80.562463 144.944704 76.19793 
C 143.838795 71.833397 142.194907 67.623121 140.050847 63.66393 
L 92.25 89.55 
L 146.61 89.55 
z
" style="fill:#eac264;stroke:#ffffff;stroke-linejoin:miter;"/>
   </g>
   <g id="patch_3">
    <path d="M 140.050847 63.66393 
C 137.410723 58.788715 134.040234 54.345967 130.056507 50.490076 
C 126.07278 46.634185 121.522502 43.41034 116.5638 40.930572 
L 92.25 89.55 
L 140.050847 63.66393 
z
" style="stroke:#ffffff;stroke-linejoin:miter;"/>
   </g>
   <g id="patch_4">
    <path d="M 116.5638 40.930572 
C 110.479657 37.88799 103.878111 36.014304 97.102764 35.407039 
C 90.327418 34.799773 83.497895 35.469649 76.969666 37.381801 
L 92.25 89.55 
L 116.5638 40.930572 
z
" style="fill:#9b8579;stroke:#ffffff;stroke-linejoin:miter;"/>
   </g>
   <g id="patch_5">
    <path d="M 76.969666 37.381801 
C 70.148019 39.379897 63.784055 42.696752 58.238954 47.144124 
C 52.693852 51.591496 48.074538 57.083626 44.643173 63.308817 
L 92.25 89.55 
L 76.969666 37.381801 
z
" style="fill:#d56c55;stroke:#ffffff;stroke-linejoin:miter;"/>
   </g>
   <g id="patch_6">
    <path d="M 44.643173 63.308817 
C 38.17037 75.051796 36.265912 88.784305 39.298807 101.845557 
C 42.331701 114.906809 50.092538 126.394983 61.077593 134.084152 
L 92.25 89.55 
L 44.643173 63.308817 
z
" style="fill:#a4b878;stroke:#ffffff;stroke-linejoin:miter;"/>
   </g>
   <g id="patch_7">
    <path d="M 61.077593 134.084152 
C 69.223358 139.785913 78.779467 143.144943 88.701274 143.794042 
C 98.62308 144.443142 108.53537 142.357763 117.354562 137.765875 
C 126.173753 133.173986 133.566329 126.249239 138.724154 117.748627 
C 143.88198 109.248015 146.610002 99.493006 146.61 89.54999 
L 92.25 89.55 
L 61.077593 134.084152 
z
" style="fill:#738fc1;stroke:#ffffff;stroke-linejoin:miter;"/>
   </g>
   <g id="patch_8">
    <path clip-path="url(#p34a5fe90cb)" d="M 92.25 122.166 
C 100.899864 122.166 109.196617 118.729372 115.312995 112.612995 
C 121.429372 106.496617 124.866 98.199864 124.866 89.55 
C 124.866 80.900136 121.429372 72.603383 115.312995 66.487005 
C 109.196617 60.370628 100.899864 56.934 92.25 56.934 
C 83.600136 56.934 75.303383 60.370628 69.187005 66.487005 
C 63.070628 72.603383 59.634 80.900136 59.634 89.55 
C 59.634 98.199864 63.070628 106.496617 69.187005 112.612995 
C 75.303383 118.729372 83.600136 122.166 92.25 122.166 
z
" style="fill:#ffffff;stroke:#ffffff;stroke-linejoin:miter;"/>
   </g>
  </g>
 </g>
 <defs>
  <clipPath id="p34a5fe90cb">
   <rect height="135.9" width="135.9" x="24.3" y="21.6"/>
  </clipPath>
 </defs>
</svg>
