<?xml version="1.0" encoding="utf-8" standalone="no"?>
<!DOCTYPE svg PUBLIC "-//W3C//DTD SVG 1.1//EN"
  "http://www.w3.org/Graphics/SVG/1.1/DTD/svg11.dtd">
<!-- Created with matplotlib (https://matplotlib.org/) -->
<svg height="180pt" version="1.1" viewBox="0 0 180 180" width="180pt" xmlns="http://www.w3.org/2000/svg" xmlns:xlink="http://www.w3.org/1999/xlink">
 <defs>
  <style type="text/css">
*{stroke-linecap:butt;stroke-linejoin:round;}
  </style>
 </defs>
 <g id="figure_1">
  <g id="patch_1">
   <path d="M 0 180 
L 180 180 
L 180 0 
L 0 0 
z
" style="fill:#ffffff;"/>
  </g>
  <g id="axes_1">
   <g id="matplotlib.axis_1"/>
   <g id="matplotlib.axis_2"/>
   <g id="patch_2">
    <path d="M 146.61 89.55 
C 146.61 88.126773 146.554107 86.704094 146.442449 85.285253 
C 146.330792 83.866413 146.163456 82.452504 145.940829 81.046797 
L 92.25 89.55 
L 146.61 89.55 
z
" style="fill:#eac264;stroke:#ffffff;stroke-linejoin:miter;"/>
   </g>
   <g id="patch_3">
    <path d="M 145.940829 81.046797 
C 145.222097 76.508588 143.930869 72.079761 142.098063 67.866361 
C 140.265257 63.652961 137.905618 59.688887 135.075646 56.069056 
L 92.25 89.55 
L 145.940829 81.046797 
z
" style="stroke:#ffffff;stroke-linejoin:miter;"/>
   </g>
   <g id="patch_4">
    <path d="M 135.075646 56.069056 
C 131.358615 51.314582 126.875641 47.212121 121.810971 43.930283 
C 116.746301 40.648444 111.170284 38.232812 105.312091 36.782667 
L 92.25 89.55 
L 135.075646 56.069056 
z
" style="fill:#d56c55;stroke:#ffffff;stroke-linejoin:miter;"/>
   </g>
   <g id="patch_5">
    <path d="M 105.312091 36.782667 
C 91.882837 33.458373 77.678345 35.382923 65.617821 42.160796 
C 53.557298 48.938669 44.5277 60.071406 40.384727 73.271087 
L 92.25 89.55 
L 105.312091 36.782667 
z
" style="fill:#a4b878;stroke:#ffffff;stroke-linejoin:miter;"/>
   </g>
   <g id="patch_6">
    <path d="M 40.384727 73.271087 
C 36.223541 86.528793 37.300093 100.890174 43.391306 113.379344 
C 49.482519 125.868513 60.136447 135.55882 73.145441 140.442292 
L 92.25 89.55 
L 40.384727 73.271087 
z
" style="fill:#9b8579;stroke:#ffffff;stroke-linejoin:miter;"/>
   </g>
   <g id="patch_7">
    <path d="M 73.145441 140.442292 
C 81.369723 143.529622 90.221121 144.577844 98.93903 143.496886 
C 107.656939 142.415927 115.984284 139.237662 123.205489 134.235202 
C 130.426694 129.232742 136.32882 122.5536 140.404693 114.77172 
C 144.480566 106.989839 146.609996 98.334693 146.61 89.550024 
L 92.25 89.55 
L 73.145441 140.442292 
z
" style="fill:#738fc1;stroke:#ffffff;stroke-linejoin:miter;"/>
   </g>
   <g id="patch_8">
    <path clip-path="url(#p00114be0f3)" d="M 92.25 122.166 
C 100.899864 122.166 109.196617 118.729372 115.312995 112.612995 
C 121.429372 106.496617 124.866 98.199864 124.866 89.55 
C 124.866 80.900136 121.429372 72.603383 115.312995 66.487005 
C 109.196617 60.370628 100.899864 56.934 92.25 56.934 
C 83.600136 56.934 75.303383 60.370628 69.187005 66.487005 
C 63.070628 72.603383 59.634 80.900136 59.634 89.55 
C 59.634 98.199864 63.070628 106.496617 69.187005 112.612995 
C 75.303383 118.729372 83.600136 122.166 92.25 122.166 
z
" style="fill:#ffffff;stroke:#ffffff;stroke-linejoin:miter;"/>
   </g>
  </g>
 </g>
 <defs>
  <clipPath id="p00114be0f3">
   <rect height="135.9" width="135.9" x="24.3" y="21.6"/>
  </clipPath>
 </defs>
</svg>
