<?xml version="1.0" encoding="utf-8" standalone="no"?>
<!DOCTYPE svg PUBLIC "-//W3C//DTD SVG 1.1//EN"
  "http://www.w3.org/Graphics/SVG/1.1/DTD/svg11.dtd">
<!-- Created with matplotlib (https://matplotlib.org/) -->
<svg height="54pt" version="1.1" viewBox="0 0 108 54" width="108pt" xmlns="http://www.w3.org/2000/svg" xmlns:xlink="http://www.w3.org/1999/xlink">
 <defs>
  <style type="text/css">
*{stroke-linecap:butt;stroke-linejoin:round;}
  </style>
 </defs>
 <g id="figure_1">
  <g id="patch_1">
   <path d="M 0 54 
L 108 54 
L 108 0 
L 0 0 
z
" style="fill:#ffffff;"/>
  </g>
  <g id="axes_1">
   <g id="patch_2">
    <path d="M 13.5 47.25 
L 97.2 47.25 
L 97.2 6.48 
L 13.5 6.48 
z
" style="fill:#e3dcd0;"/>
   </g>
   <g id="matplotlib.axis_1">
    <g id="xtick_1">
     <g id="text_1">
      <!-- 0 -->
      <defs>
       <path d="M 31.640625 -1.8125 
Q 20.265625 -1.8125 13.296875 8.609375 
Q 6.34375 19.046875 6.34375 36.140625 
Q 6.34375 53.21875 13.296875 63.640625 
Q 20.265625 74.078125 31.640625 74.078125 
Q 43.0625 74.078125 50 63.671875 
Q 56.9375 53.265625 56.9375 36.140625 
Q 56.9375 19.046875 50 8.609375 
Q 43.0625 -1.8125 31.640625 -1.8125 
z
M 31.640625 5.421875 
Q 46.734375 5.421875 46.734375 36.140625 
Q 46.734375 66.84375 31.640625 66.84375 
Q 16.609375 66.84375 16.609375 36.140625 
Q 16.609375 5.421875 31.640625 5.421875 
z
" id="LucidaSansUnicode-48"/>
      </defs>
      <g transform="translate(15.407514 55.375625)scale(0.06 -0.06)">
       <use xlink:href="#LucidaSansUnicode-48"/>
      </g>
     </g>
    </g>
    <g id="xtick_2">
     <g id="text_2">
      <!-- 2 -->
      <defs>
       <path d="M 8.296875 0 
L 8.296875 8.453125 
Q 12.5 18.265625 25.296875 29.828125 
L 30.8125 34.765625 
Q 41.453125 44.390625 41.453125 53.859375 
Q 41.453125 59.90625 37.8125 63.375 
Q 34.1875 66.84375 27.78125 66.84375 
Q 20.3125 66.84375 10.109375 61.03125 
L 10.109375 69.53125 
Q 19.734375 74.078125 29.25 74.078125 
Q 39.40625 74.078125 45.53125 68.609375 
Q 51.65625 63.140625 51.65625 54.109375 
Q 51.65625 47.609375 48.546875 42.578125 
Q 45.453125 37.546875 37.015625 30.375 
L 33.296875 27.203125 
Q 21.734375 17.390625 19.921875 8.453125 
L 51.3125 8.453125 
L 51.3125 0 
z
" id="LucidaSansUnicode-50"/>
      </defs>
      <g transform="translate(45.843878 55.375625)scale(0.06 -0.06)">
       <use xlink:href="#LucidaSansUnicode-50"/>
      </g>
     </g>
    </g>
    <g id="xtick_3">
     <g id="text_3">
      <!-- 4 -->
      <defs>
       <path d="M 37.640625 0 
L 37.640625 20.453125 
L 5.125 20.453125 
L 5.125 27.734375 
L 37.640625 72.265625 
L 46.6875 72.265625 
L 46.6875 28.328125 
L 56.34375 28.328125 
L 56.34375 20.453125 
L 46.6875 20.453125 
L 46.6875 0 
z
M 14.546875 28.328125 
L 38.28125 28.328125 
L 38.28125 60.453125 
z
" id="LucidaSansUnicode-52"/>
      </defs>
      <g transform="translate(76.280241 55.375625)scale(0.06 -0.06)">
       <use xlink:href="#LucidaSansUnicode-52"/>
      </g>
     </g>
    </g>
   </g>
   <g id="matplotlib.axis_2">
    <g id="ytick_1">
     <g id="text_4">
      <!-- 0.0 -->
      <defs>
       <path d="M 9.765625 0 
L 9.765625 12.0625 
L 21.828125 12.0625 
L 21.828125 0 
z
" id="LucidaSansUnicode-46"/>
      </defs>
      <g transform="translate(0.513438 49.562812)scale(0.06 -0.06)">
       <use xlink:href="#LucidaSansUnicode-48"/>
       <use x="63.232422" xlink:href="#LucidaSansUnicode-46"/>
       <use x="94.873047" xlink:href="#LucidaSansUnicode-48"/>
      </g>
     </g>
    </g>
    <g id="ytick_2">
     <g id="text_5">
      <!-- 0.5 -->
      <defs>
       <path d="M 12.15625 -0.296875 
L 12.15625 8.296875 
Q 19.34375 5.421875 25.828125 5.421875 
Q 32.953125 5.421875 37.03125 9.609375 
Q 41.109375 13.8125 41.109375 21.1875 
Q 41.109375 29.109375 35.34375 33.28125 
Q 29.59375 37.453125 18.703125 37.453125 
Q 16.15625 37.453125 13.375 37.109375 
L 13.375 72.265625 
L 49.953125 72.265625 
L 49.953125 63.875 
L 21.828125 63.875 
L 21.828125 44.828125 
Q 35.75 44.828125 43.5625 38.421875 
Q 51.375 32.03125 51.375 20.703125 
Q 51.375 10.15625 44.265625 4.171875 
Q 37.15625 -1.8125 24.65625 -1.8125 
Q 19.09375 -1.8125 12.15625 -0.296875 
z
" id="LucidaSansUnicode-53"/>
      </defs>
      <g transform="translate(0.513438 29.741421)scale(0.06 -0.06)">
       <use xlink:href="#LucidaSansUnicode-48"/>
       <use x="63.232422" xlink:href="#LucidaSansUnicode-46"/>
       <use x="94.873047" xlink:href="#LucidaSansUnicode-53"/>
      </g>
     </g>
    </g>
    <g id="ytick_3">
     <g id="text_6">
      <!-- 1.0 -->
      <defs>
       <path d="M 26.171875 0 
L 26.171875 65.046875 
L 14.75 65.046875 
L 14.75 71.09375 
L 35.84375 72.90625 
L 35.84375 0 
z
" id="LucidaSansUnicode-49"/>
      </defs>
      <g transform="translate(0.513438 9.920029)scale(0.06 -0.06)">
       <use xlink:href="#LucidaSansUnicode-49"/>
       <use x="63.232422" xlink:href="#LucidaSansUnicode-46"/>
       <use x="94.873047" xlink:href="#LucidaSansUnicode-48"/>
      </g>
     </g>
    </g>
    <g id="text_7">
     <!-- per capita -->
     <defs>
      <path d="M 9.625 -19.28125 
L 9.625 53.03125 
L 19.234375 53.03125 
L 19.234375 43.0625 
Q 25.140625 54.203125 36.96875 54.203125 
Q 46.53125 54.203125 52.015625 47.21875 
Q 57.515625 40.234375 57.515625 28.125 
Q 57.515625 14.9375 51.28125 6.859375 
Q 45.0625 -1.21875 34.90625 -1.21875 
Q 25.484375 -1.21875 19.234375 6 
L 19.234375 -19.28125 
z
M 19.234375 12.640625 
Q 26.65625 6 33.40625 6 
Q 40.046875 6 43.65625 11.546875 
Q 47.265625 17.09375 47.265625 27.15625 
Q 47.265625 45.796875 34.96875 45.796875 
Q 26.90625 45.796875 19.234375 37.0625 
z
" id="LucidaSansUnicode-112"/>
      <path d="M 48.484375 1.703125 
Q 38.8125 -1.21875 31.9375 -1.21875 
Q 20.171875 -1.21875 12.796875 6.5625 
Q 5.421875 14.359375 5.421875 26.765625 
Q 5.421875 38.8125 11.9375 46.53125 
Q 18.453125 54.25 28.609375 54.25 
Q 38.234375 54.25 43.484375 47.390625 
Q 48.734375 40.53125 48.734375 27.9375 
L 48.6875 25 
L 15.234375 25 
Q 17.328125 6.109375 33.734375 6.109375 
Q 39.75 6.109375 48.484375 9.328125 
z
M 15.671875 32.234375 
L 39.0625 32.234375 
Q 39.0625 47.015625 28.03125 47.015625 
Q 16.9375 47.015625 15.671875 32.234375 
z
" id="LucidaSansUnicode-101"/>
      <path d="M 9.625 0 
L 9.625 53.03125 
L 19.234375 53.03125 
L 19.234375 43.0625 
Q 24.953125 54.203125 35.84375 54.203125 
Q 37.3125 54.203125 38.921875 53.953125 
L 38.921875 44.96875 
Q 36.421875 45.796875 34.515625 45.796875 
Q 25.390625 45.796875 19.234375 34.96875 
L 19.234375 0 
z
" id="LucidaSansUnicode-114"/>
      <path id="LucidaSansUnicode-32"/>
      <path d="M 46.4375 1.609375 
Q 37.109375 -1.21875 30.328125 -1.21875 
Q 19.578125 -1.21875 12.5 6.734375 
Q 5.421875 14.703125 5.421875 26.8125 
Q 5.421875 39.75 12.421875 46.96875 
Q 19.4375 54.203125 31.984375 54.203125 
Q 38.1875 54.203125 45.84375 52.484375 
L 45.84375 44.4375 
Q 37.703125 46.828125 32.5625 46.828125 
Q 25.140625 46.828125 20.703125 41.28125 
Q 16.265625 35.75 16.265625 26.515625 
Q 16.265625 17.578125 20.84375 12.0625 
Q 25.4375 6.546875 32.859375 6.546875 
Q 39.453125 6.546875 46.4375 9.90625 
z
" id="LucidaSansUnicode-99"/>
      <path d="M 36.96875 6.734375 
Q 28.328125 -1.21875 20.3125 -1.21875 
Q 13.71875 -1.21875 9.375 2.90625 
Q 5.03125 7.03125 5.03125 13.328125 
Q 5.03125 22.015625 12.328125 26.671875 
Q 19.625 31.34375 33.296875 31.34375 
L 35.546875 31.34375 
L 35.546875 37.75 
Q 35.546875 46.96875 25.921875 46.96875 
Q 18.453125 46.96875 9.625 42.28125 
L 9.625 50.25 
Q 19.34375 54.203125 27.9375 54.203125 
Q 36.765625 54.203125 40.96875 50.171875 
Q 45.171875 46.140625 45.171875 37.75 
L 45.171875 13.71875 
Q 45.171875 5.46875 50.25 5.46875 
Q 50.875 5.46875 52.09375 5.671875 
L 52.78125 0.34375 
Q 49.515625 -1.21875 45.5625 -1.21875 
Q 38.8125 -1.21875 36.96875 6.734375 
z
M 35.546875 11.96875 
L 35.546875 25.6875 
L 32.46875 25.78125 
Q 24.46875 25.78125 19.5625 22.796875 
Q 14.65625 19.828125 14.65625 14.890625 
Q 14.65625 11.421875 17.09375 9.03125 
Q 19.53125 6.640625 23.046875 6.640625 
Q 29.046875 6.640625 35.546875 11.96875 
z
" id="LucidaSansUnicode-97"/>
      <path d="M 9.625 0 
L 9.625 53.03125 
L 19.234375 53.03125 
L 19.234375 0 
z
M 9.625 62.640625 
L 9.625 72.265625 
L 19.234375 72.265625 
L 19.234375 62.640625 
z
" id="LucidaSansUnicode-105"/>
      <path d="M 33.25 0 
Q 28.8125 -1.21875 25.53125 -1.21875 
Q 18.21875 -1.21875 14.109375 2.96875 
Q 10.015625 7.171875 10.015625 14.65625 
L 10.015625 45.796875 
L 3.375 45.796875 
L 3.375 53.03125 
L 10.015625 53.03125 
L 10.015625 62.640625 
L 19.625 63.578125 
L 19.625 53.03125 
L 33.5 53.03125 
L 33.5 45.796875 
L 19.625 45.796875 
L 19.625 16.40625 
Q 19.625 6 28.609375 6 
Q 30.515625 6 33.25 6.640625 
z
" id="LucidaSansUnicode-116"/>
     </defs>
     <g style="fill:#262626;" transform="translate(-4.643438 41.32875)rotate(-90)scale(0.06 -0.06)">
      <use xlink:href="#LucidaSansUnicode-112"/>
      <use x="62.939453" xlink:href="#LucidaSansUnicode-101"/>
      <use x="118.652344" xlink:href="#LucidaSansUnicode-114"/>
      <use x="159.570312" xlink:href="#LucidaSansUnicode-32"/>
      <use x="191.210938" xlink:href="#LucidaSansUnicode-99"/>
      <use x="242.431641" xlink:href="#LucidaSansUnicode-97"/>
      <use x="297.65625" xlink:href="#LucidaSansUnicode-112"/>
      <use x="360.595703" xlink:href="#LucidaSansUnicode-105"/>
      <use x="389.501953" xlink:href="#LucidaSansUnicode-116"/>
      <use x="426.904297" xlink:href="#LucidaSansUnicode-97"/>
     </g>
    </g>
   </g>
   <g id="LineCollection_1">
    <path clip-path="url(#pc668e06d70)" d="M 17.304545 47.25 
L 17.304545 36.198606 
" style="fill:none;stroke:#a4b878;stroke-width:0.5;"/>
   </g>
   <g id="LineCollection_2">
    <path clip-path="url(#pc668e06d70)" d="M 78.177273 47.25 
L 78.177273 43.296643 
" style="fill:none;stroke:#738fc1;stroke-width:0.5;"/>
   </g>
   <g id="LineCollection_3">
    <path clip-path="url(#pc668e06d70)" d="M 47.740909 47.25 
L 47.740909 40.910851 
" style="fill:none;stroke:#000000;stroke-width:0.5;"/>
   </g>
   <g id="LineCollection_4">
    <path clip-path="url(#pc668e06d70)" d="M 32.522727 47.25 
L 32.522727 39.631021 
" style="fill:none;stroke:#d56c55;stroke-width:0.5;"/>
   </g>
   <g id="LineCollection_5">
    <path clip-path="url(#pc668e06d70)" d="M 93.395455 47.25 
L 93.395455 11.951299 
" style="fill:none;stroke:#eac264;stroke-width:0.5;"/>
   </g>
   <g id="LineCollection_6">
    <path clip-path="url(#pc668e06d70)" d="M 62.959091 47.25 
L 62.959091 13.817674 
" style="fill:none;stroke:#9b8579;stroke-width:0.5;"/>
   </g>
   <g id="line2d_1">
    <defs>
     <path d="M 0 1.5 
C 0.397805 1.5 0.77937 1.341951 1.06066 1.06066 
C 1.341951 0.77937 1.5 0.397805 1.5 0 
C 1.5 -0.397805 1.341951 -0.77937 1.06066 -1.06066 
C 0.77937 -1.341951 0.397805 -1.5 0 -1.5 
C -0.397805 -1.5 -0.77937 -1.341951 -1.06066 -1.06066 
C -1.341951 -0.77937 -1.5 -0.397805 -1.5 0 
C -1.5 0.397805 -1.341951 0.77937 -1.06066 1.06066 
C -0.77937 1.341951 -0.397805 1.5 0 1.5 
z
" id="m49ccc65cf7" style="stroke:#a4b878;"/>
    </defs>
    <g clip-path="url(#pc668e06d70)">
     <use style="fill:#a4b878;stroke:#a4b878;" x="17.304545" xlink:href="#m49ccc65cf7" y="36.198606"/>
    </g>
   </g>
   <g id="line2d_2">
    <defs>
     <path d="M 0 1.5 
C 0.397805 1.5 0.77937 1.341951 1.06066 1.06066 
C 1.341951 0.77937 1.5 0.397805 1.5 0 
C 1.5 -0.397805 1.341951 -0.77937 1.06066 -1.06066 
C 0.77937 -1.341951 0.397805 -1.5 0 -1.5 
C -0.397805 -1.5 -0.77937 -1.341951 -1.06066 -1.06066 
C -1.341951 -0.77937 -1.5 -0.397805 -1.5 0 
C -1.5 0.397805 -1.341951 0.77937 -1.06066 1.06066 
C -0.77937 1.341951 -0.397805 1.5 0 1.5 
z
" id="m3e41f813a7" style="stroke:#738fc1;"/>
    </defs>
    <g clip-path="url(#pc668e06d70)">
     <use style="fill:#738fc1;stroke:#738fc1;" x="78.177273" xlink:href="#m3e41f813a7" y="43.296643"/>
    </g>
   </g>
   <g id="line2d_3">
    <defs>
     <path d="M 0 1.5 
C 0.397805 1.5 0.77937 1.341951 1.06066 1.06066 
C 1.341951 0.77937 1.5 0.397805 1.5 0 
C 1.5 -0.397805 1.341951 -0.77937 1.06066 -1.06066 
C 0.77937 -1.341951 0.397805 -1.5 0 -1.5 
C -0.397805 -1.5 -0.77937 -1.341951 -1.06066 -1.06066 
C -1.341951 -0.77937 -1.5 -0.397805 -1.5 0 
C -1.5 0.397805 -1.341951 0.77937 -1.06066 1.06066 
C -0.77937 1.341951 -0.397805 1.5 0 1.5 
z
" id="mb0fefb795a" style="stroke:#000000;"/>
    </defs>
    <g clip-path="url(#pc668e06d70)">
     <use style="stroke:#000000;" x="47.740909" xlink:href="#mb0fefb795a" y="40.910851"/>
    </g>
   </g>
   <g id="line2d_4">
    <defs>
     <path d="M 0 1.5 
C 0.397805 1.5 0.77937 1.341951 1.06066 1.06066 
C 1.341951 0.77937 1.5 0.397805 1.5 0 
C 1.5 -0.397805 1.341951 -0.77937 1.06066 -1.06066 
C 0.77937 -1.341951 0.397805 -1.5 0 -1.5 
C -0.397805 -1.5 -0.77937 -1.341951 -1.06066 -1.06066 
C -1.341951 -0.77937 -1.5 -0.397805 -1.5 0 
C -1.5 0.397805 -1.341951 0.77937 -1.06066 1.06066 
C -0.77937 1.341951 -0.397805 1.5 0 1.5 
z
" id="m090f7d7c79" style="stroke:#d56c55;"/>
    </defs>
    <g clip-path="url(#pc668e06d70)">
     <use style="fill:#d56c55;stroke:#d56c55;" x="32.522727" xlink:href="#m090f7d7c79" y="39.631021"/>
    </g>
   </g>
   <g id="line2d_5">
    <defs>
     <path d="M 0 1.5 
C 0.397805 1.5 0.77937 1.341951 1.06066 1.06066 
C 1.341951 0.77937 1.5 0.397805 1.5 0 
C 1.5 -0.397805 1.341951 -0.77937 1.06066 -1.06066 
C 0.77937 -1.341951 0.397805 -1.5 0 -1.5 
C -0.397805 -1.5 -0.77937 -1.341951 -1.06066 -1.06066 
C -1.341951 -0.77937 -1.5 -0.397805 -1.5 0 
C -1.5 0.397805 -1.341951 0.77937 -1.06066 1.06066 
C -0.77937 1.341951 -0.397805 1.5 0 1.5 
z
" id="m90ca698001" style="stroke:#eac264;"/>
    </defs>
    <g clip-path="url(#pc668e06d70)">
     <use style="fill:#eac264;stroke:#eac264;" x="93.395455" xlink:href="#m90ca698001" y="11.951299"/>
    </g>
   </g>
   <g id="line2d_6">
    <defs>
     <path d="M 0 1.5 
C 0.397805 1.5 0.77937 1.341951 1.06066 1.06066 
C 1.341951 0.77937 1.5 0.397805 1.5 0 
C 1.5 -0.397805 1.341951 -0.77937 1.06066 -1.06066 
C 0.77937 -1.341951 0.397805 -1.5 0 -1.5 
C -0.397805 -1.5 -0.77937 -1.341951 -1.06066 -1.06066 
C -1.341951 -0.77937 -1.5 -0.397805 -1.5 0 
C -1.5 0.397805 -1.341951 0.77937 -1.06066 1.06066 
C -0.77937 1.341951 -0.397805 1.5 0 1.5 
z
" id="m37af2abc17" style="stroke:#9b8579;"/>
    </defs>
    <g clip-path="url(#pc668e06d70)">
     <use style="fill:#9b8579;stroke:#9b8579;" x="62.959091" xlink:href="#m37af2abc17" y="13.817674"/>
    </g>
   </g>
   <g id="patch_3">
    <path d="M 13.5 47.25 
L 13.5 6.48 
" style="fill:none;stroke:#ffffff;stroke-linecap:square;stroke-linejoin:miter;stroke-width:0.8;"/>
   </g>
   <g id="patch_4">
    <path d="M 97.2 47.25 
L 97.2 6.48 
" style="fill:none;stroke:#ffffff;stroke-linecap:square;stroke-linejoin:miter;stroke-width:0.8;"/>
   </g>
   <g id="patch_5">
    <path d="M 13.5 47.25 
L 97.2 47.25 
" style="fill:none;stroke:#ffffff;stroke-linecap:square;stroke-linejoin:miter;stroke-width:0.8;"/>
   </g>
   <g id="patch_6">
    <path d="M 13.5 6.48 
L 97.2 6.48 
" style="fill:none;stroke:#ffffff;stroke-linecap:square;stroke-linejoin:miter;stroke-width:0.8;"/>
   </g>
  </g>
 </g>
 <defs>
  <clipPath id="pc668e06d70">
   <rect height="40.77" width="83.7" x="13.5" y="6.48"/>
  </clipPath>
 </defs>
</svg>
