<?xml version="1.0" encoding="utf-8" standalone="no"?>
<!DOCTYPE svg PUBLIC "-//W3C//DTD SVG 1.1//EN"
  "http://www.w3.org/Graphics/SVG/1.1/DTD/svg11.dtd">
<!-- Created with matplotlib (https://matplotlib.org/) -->
<svg height="180pt" version="1.1" viewBox="0 0 180 180" width="180pt" xmlns="http://www.w3.org/2000/svg" xmlns:xlink="http://www.w3.org/1999/xlink">
 <defs>
  <style type="text/css">
*{stroke-linecap:butt;stroke-linejoin:round;}
  </style>
 </defs>
 <g id="figure_1">
  <g id="patch_1">
   <path d="M 0 180 
L 180 180 
L 180 0 
L 0 0 
z
" style="fill:#ffffff;"/>
  </g>
  <g id="axes_1">
   <g id="matplotlib.axis_1"/>
   <g id="matplotlib.axis_2"/>
   <g id="patch_2">
    <path d="M 146.61 89.55 
C 146.61 88.422112 146.574897 87.294497 146.504742 86.168793 
C 146.434587 85.043089 146.329414 83.91984 146.189376 82.80068 
L 92.25 89.55 
L 146.61 89.55 
z
" style="fill:#7e9d90;stroke:#ffffff;stroke-linejoin:miter;"/>
   </g>
   <g id="patch_3">
    <path d="M 146.189376 82.80068 
C 146.003064 81.311705 145.755178 79.831084 145.446355 78.36262 
C 145.137532 76.894157 144.768036 75.43911 144.338819 74.00122 
L 92.25 89.55 
L 146.189376 82.80068 
z
" style="fill:#ab85ac;stroke:#ffffff;stroke-linejoin:miter;"/>
   </g>
   <g id="patch_4">
    <path d="M 144.338819 74.00122 
C 142.707004 68.534598 140.224747 63.35878 136.983331 58.664102 
C 133.741915 53.969424 129.781566 49.814148 125.247921 46.351079 
L 92.25 89.55 
L 144.338819 74.00122 
z
" style="fill:#e8b19d;stroke:#ffffff;stroke-linejoin:miter;"/>
   </g>
   <g id="patch_5">
    <path d="M 125.247921 46.351079 
C 119.994831 42.338454 114.053609 39.317457 107.716508 37.436693 
C 101.379407 35.55593 94.752069 34.846752 88.160498 35.344045 
L 92.25 89.55 
L 125.247921 46.351079 
z
" style="fill:#905426;stroke:#ffffff;stroke-linejoin:miter;"/>
   </g>
   <g id="patch_6">
    <path d="M 88.160498 35.344045 
C 80.574923 35.916329 73.193267 38.074579 66.494183 41.678845 
C 59.7951 45.283111 53.926585 50.253767 49.269176 56.268498 
L 92.25 89.55 
L 88.160498 35.344045 
z
" style="fill:#bfd598;stroke:#ffffff;stroke-linejoin:miter;"/>
   </g>
   <g id="patch_7">
    <path d="M 49.269176 56.268498 
C 44.525716 62.394358 41.146249 69.464115 39.357922 77.00258 
C 37.569596 84.541046 37.413397 92.375449 38.899824 99.979205 
L 92.25 89.55 
L 49.269176 56.268498 
z
" style="fill:#4b4b4b;stroke:#ffffff;stroke-linejoin:miter;"/>
   </g>
   <g id="patch_8">
    <path d="M 38.899824 99.979205 
C 41.491042 113.234476 48.931553 125.059694 59.759874 133.132122 
C 70.588196 141.204549 84.045681 144.958622 97.488981 143.656956 
C 110.93228 142.35529 123.419538 136.089082 132.497979 126.089154 
C 141.576419 116.089227 146.609995 103.056189 146.61 89.550018 
L 92.25 89.55 
L 38.899824 99.979205 
z
" style="fill:#738fc1;stroke:#ffffff;stroke-linejoin:miter;"/>
   </g>
   <g id="patch_9">
    <path clip-path="url(#p27863bc0cb)" d="M 92.25 122.166 
C 100.899864 122.166 109.196617 118.729372 115.312995 112.612995 
C 121.429372 106.496617 124.866 98.199864 124.866 89.55 
C 124.866 80.900136 121.429372 72.603383 115.312995 66.487005 
C 109.196617 60.370628 100.899864 56.934 92.25 56.934 
C 83.600136 56.934 75.303383 60.370628 69.187005 66.487005 
C 63.070628 72.603383 59.634 80.900136 59.634 89.55 
C 59.634 98.199864 63.070628 106.496617 69.187005 112.612995 
C 75.303383 118.729372 83.600136 122.166 92.25 122.166 
z
" style="fill:#ffffff;stroke:#ffffff;stroke-linejoin:miter;"/>
   </g>
  </g>
 </g>
 <defs>
  <clipPath id="p27863bc0cb">
   <rect height="135.9" width="135.9" x="24.3" y="21.6"/>
  </clipPath>
 </defs>
</svg>
