<?xml version="1.0" encoding="utf-8" standalone="no"?>
<!DOCTYPE svg PUBLIC "-//W3C//DTD SVG 1.1//EN"
  "http://www.w3.org/Graphics/SVG/1.1/DTD/svg11.dtd">
<!-- Created with matplotlib (https://matplotlib.org/) -->
<svg height="180pt" version="1.1" viewBox="0 0 180 180" width="180pt" xmlns="http://www.w3.org/2000/svg" xmlns:xlink="http://www.w3.org/1999/xlink">
 <defs>
  <style type="text/css">
*{stroke-linecap:butt;stroke-linejoin:round;}
  </style>
 </defs>
 <g id="figure_1">
  <g id="patch_1">
   <path d="M 0 180 
L 180 180 
L 180 0 
L 0 0 
z
" style="fill:#ffffff;"/>
  </g>
  <g id="axes_1">
   <g id="matplotlib.axis_1"/>
   <g id="matplotlib.axis_2"/>
   <g id="patch_2">
    <path d="M 146.61 89.55 
C 146.61 88.422217 146.574904 87.294707 146.504762 86.169108 
C 146.43462 85.043508 146.329466 83.920364 146.189454 82.801306 
L 92.25 89.55 
L 146.61 89.55 
z
" style="fill:#eac264;stroke:#ffffff;stroke-linejoin:miter;"/>
   </g>
   <g id="patch_3">
    <path d="M 146.189454 82.801306 
C 145.368801 76.242171 143.358584 69.887396 140.257686 64.049575 
C 137.156789 58.211754 133.016903 52.988204 128.041671 48.635872 
L 92.25 89.55 
L 146.189454 82.801306 
z
" style="fill:#9b8579;stroke:#ffffff;stroke-linejoin:miter;"/>
   </g>
   <g id="patch_4">
    <path d="M 128.041671 48.635872 
C 122.609609 43.883905 116.285183 40.260974 109.438228 37.978938 
C 102.591273 35.696902 95.357907 34.801128 88.161118 35.343998 
L 92.25 89.55 
L 128.041671 48.635872 
z
" style="fill:#d56c55;stroke:#ffffff;stroke-linejoin:miter;"/>
   </g>
   <g id="patch_5">
    <path d="M 88.161118 35.343998 
C 80.575331 35.916211 73.193458 38.074478 66.494193 41.67884 
C 59.794927 45.283202 53.926278 50.254027 49.268809 56.268972 
L 92.25 89.55 
L 88.161118 35.343998 
z
" style="fill:#a4b878;stroke:#ffffff;stroke-linejoin:miter;"/>
   </g>
   <g id="patch_6">
    <path d="M 49.268809 56.268972 
C 44.525173 62.395198 41.145683 69.465401 39.357512 77.004311 
C 37.569341 84.543221 37.413475 92.378042 38.900391 99.982106 
L 92.25 89.55 
L 49.268809 56.268972 
z
" style="stroke:#ffffff;stroke-linejoin:miter;"/>
   </g>
   <g id="patch_7">
    <path d="M 38.900391 99.982106 
C 41.492281 113.236987 48.933206 125.061614 59.761653 133.133448 
C 70.5901 141.205281 84.047443 144.958821 97.490454 143.656813 
C 110.933465 142.354806 123.420345 136.088468 132.498478 126.088605 
C 141.576611 116.088742 146.609997 103.05593 146.61 89.550014 
L 92.25 89.55 
L 38.900391 99.982106 
z
" style="fill:#738fc1;stroke:#ffffff;stroke-linejoin:miter;"/>
   </g>
   <g id="patch_8">
    <path clip-path="url(#pb060441d89)" d="M 92.25 122.166 
C 100.899864 122.166 109.196617 118.729372 115.312995 112.612995 
C 121.429372 106.496617 124.866 98.199864 124.866 89.55 
C 124.866 80.900136 121.429372 72.603383 115.312995 66.487005 
C 109.196617 60.370628 100.899864 56.934 92.25 56.934 
C 83.600136 56.934 75.303383 60.370628 69.187005 66.487005 
C 63.070628 72.603383 59.634 80.900136 59.634 89.55 
C 59.634 98.199864 63.070628 106.496617 69.187005 112.612995 
C 75.303383 118.729372 83.600136 122.166 92.25 122.166 
z
" style="fill:#ffffff;stroke:#ffffff;stroke-linejoin:miter;"/>
   </g>
  </g>
 </g>
 <defs>
  <clipPath id="pb060441d89">
   <rect height="135.9" width="135.9" x="24.3" y="21.6"/>
  </clipPath>
 </defs>
</svg>
