<?xml version="1.0" encoding="utf-8" standalone="no"?>
<!DOCTYPE svg PUBLIC "-//W3C//DTD SVG 1.1//EN"
  "http://www.w3.org/Graphics/SVG/1.1/DTD/svg11.dtd">
<!-- Created with matplotlib (https://matplotlib.org/) -->
<svg height="180pt" version="1.1" viewBox="0 0 180 180" width="180pt" xmlns="http://www.w3.org/2000/svg" xmlns:xlink="http://www.w3.org/1999/xlink">
 <defs>
  <style type="text/css">
*{stroke-linecap:butt;stroke-linejoin:round;}
  </style>
 </defs>
 <g id="figure_1">
  <g id="patch_1">
   <path d="M 0 180 
L 180 180 
L 180 0 
L 0 0 
z
" style="fill:#ffffff;"/>
  </g>
  <g id="axes_1">
   <g id="matplotlib.axis_1"/>
   <g id="matplotlib.axis_2"/>
   <g id="patch_2">
    <path d="M 146.61 89.55 
C 146.61 89.217604 146.606951 88.885215 146.600854 88.552875 
C 146.594757 88.220535 146.585612 87.888257 146.573419 87.556085 
L 92.25 89.55 
L 146.61 89.55 
z
" style="fill:#7e9d90;stroke:#ffffff;stroke-linejoin:miter;"/>
   </g>
   <g id="patch_3">
    <path d="M 146.573419 87.556085 
C 146.506832 85.741929 146.349409 83.932246 146.101743 82.133842 
C 145.854077 80.335438 145.516478 78.550568 145.090216 76.785944 
L 92.25 89.55 
L 146.573419 87.556085 
z
" style="fill:#ab85ac;stroke:#ffffff;stroke-linejoin:miter;"/>
   </g>
   <g id="patch_4">
    <path d="M 145.090216 76.785944 
C 144.014142 72.331246 142.379043 68.030452 140.223869 63.986012 
C 138.068695 59.941571 135.410695 56.185854 132.313186 52.808324 
L 92.25 89.55 
L 145.090216 76.785944 
z
" style="fill:#bfd598;stroke:#ffffff;stroke-linejoin:miter;"/>
   </g>
   <g id="patch_5">
    <path d="M 132.313186 52.808324 
C 128.78369 48.959756 124.717984 45.639769 120.241553 42.950831 
C 115.765122 40.261893 110.924499 38.231957 105.869084 36.923674 
L 92.25 89.55 
L 132.313186 52.808324 
z
" style="fill:#e8b19d;stroke:#ffffff;stroke-linejoin:miter;"/>
   </g>
   <g id="patch_6">
    <path d="M 105.869084 36.923674 
C 100.537402 35.543897 95.026865 34.982343 89.526457 35.25827 
C 84.026049 35.534198 78.599377 36.644417 73.432547 38.550852 
L 92.25 89.55 
L 105.869084 36.923674 
z
" style="fill:#4b4b4b;stroke:#ffffff;stroke-linejoin:miter;"/>
   </g>
   <g id="patch_7">
    <path d="M 73.432547 38.550852 
C 67.459986 40.754583 61.920711 43.990459 57.067712 48.110693 
C 52.214713 52.230926 48.123012 57.171821 44.979486 62.707719 
L 92.25 89.55 
L 73.432547 38.550852 
z
" style="fill:#905426;stroke:#ffffff;stroke-linejoin:miter;"/>
   </g>
   <g id="patch_8">
    <path d="M 44.979486 62.707719 
C 40.870501 69.943833 38.477401 78.027749 37.985182 86.334543 
C 37.492964 94.641337 38.914647 102.951298 42.140328 110.622027 
C 45.366009 118.292757 50.31037 125.121367 56.59119 130.579975 
C 62.87201 136.038584 70.323163 139.982812 78.368642 142.107754 
C 86.414121 144.232696 94.841125 144.482147 102.998209 142.836824 
C 111.155293 141.191501 118.826705 137.694922 125.41941 132.617387 
C 132.012114 127.539853 137.351737 121.015664 141.025502 113.549168 
C 144.699266 106.082671 146.610001 97.871355 146.61 89.549991 
L 92.25 89.55 
L 44.979486 62.707719 
z
" style="fill:#738fc1;stroke:#ffffff;stroke-linejoin:miter;"/>
   </g>
   <g id="patch_9">
    <path clip-path="url(#pfe8877b93a)" d="M 92.25 122.166 
C 100.899864 122.166 109.196617 118.729372 115.312995 112.612995 
C 121.429372 106.496617 124.866 98.199864 124.866 89.55 
C 124.866 80.900136 121.429372 72.603383 115.312995 66.487005 
C 109.196617 60.370628 100.899864 56.934 92.25 56.934 
C 83.600136 56.934 75.303383 60.370628 69.187005 66.487005 
C 63.070628 72.603383 59.634 80.900136 59.634 89.55 
C 59.634 98.199864 63.070628 106.496617 69.187005 112.612995 
C 75.303383 118.729372 83.600136 122.166 92.25 122.166 
z
" style="fill:#ffffff;stroke:#ffffff;stroke-linejoin:miter;"/>
   </g>
  </g>
 </g>
 <defs>
  <clipPath id="pfe8877b93a">
   <rect height="135.9" width="135.9" x="24.3" y="21.6"/>
  </clipPath>
 </defs>
</svg>
