<?xml version="1.0" encoding="utf-8" standalone="no"?>
<!DOCTYPE svg PUBLIC "-//W3C//DTD SVG 1.1//EN"
  "http://www.w3.org/Graphics/SVG/1.1/DTD/svg11.dtd">
<!-- Created with matplotlib (https://matplotlib.org/) -->
<svg height="180pt" version="1.1" viewBox="0 0 180 180" width="180pt" xmlns="http://www.w3.org/2000/svg" xmlns:xlink="http://www.w3.org/1999/xlink">
 <defs>
  <style type="text/css">
*{stroke-linecap:butt;stroke-linejoin:round;}
  </style>
 </defs>
 <g id="figure_1">
  <g id="patch_1">
   <path d="M 0 180 
L 180 180 
L 180 0 
L 0 0 
z
" style="fill:#ffffff;"/>
  </g>
  <g id="axes_1">
   <g id="matplotlib.axis_1"/>
   <g id="matplotlib.axis_2"/>
   <g id="patch_2">
    <path d="M 146.61 89.55 
C 146.61 89.217604 146.606951 88.885215 146.600854 88.552875 
C 146.594757 88.220535 146.585612 87.888257 146.573419 87.556085 
L 92.25 89.55 
L 146.61 89.55 
z
" style="fill:#eac264;stroke:#ffffff;stroke-linejoin:miter;"/>
   </g>
   <g id="patch_3">
    <path d="M 146.573419 87.556085 
C 146.405322 82.976345 145.658755 78.43619 144.351501 74.043769 
C 143.044247 69.651348 141.186769 65.441817 138.823315 61.515451 
L 92.25 89.55 
L 146.573419 87.556085 
z
" style="fill:#bfd598;stroke:#ffffff;stroke-linejoin:miter;"/>
   </g>
   <g id="patch_4">
    <path d="M 138.823315 61.515451 
C 135.983076 56.797012 132.442208 52.53748 128.322143 48.882936 
C 124.202079 45.228392 119.550462 42.221098 114.52682 39.964187 
L 92.25 89.55 
L 138.823315 61.515451 
z
" style="stroke:#ffffff;stroke-linejoin:miter;"/>
   </g>
   <g id="patch_5">
    <path d="M 114.52682 39.964187 
C 108.719775 37.355326 102.499327 35.786734 96.149574 35.330051 
C 89.799821 34.873367 83.418925 35.535653 77.298313 37.286661 
L 92.25 89.55 
L 114.52682 39.964187 
z
" style="fill:#9b8579;stroke:#ffffff;stroke-linejoin:miter;"/>
   </g>
   <g id="patch_6">
    <path d="M 77.298313 37.286661 
C 70.520295 39.225741 64.183773 42.464991 58.642589 46.823527 
C 53.101404 51.182063 48.460655 56.577217 44.979487 62.707716 
L 92.25 89.55 
L 77.298313 37.286661 
z
" style="fill:#d56c55;stroke:#ffffff;stroke-linejoin:miter;"/>
   </g>
   <g id="patch_7">
    <path d="M 44.979487 62.707716 
C 40.870502 69.943831 38.477401 78.027746 37.985182 86.334541 
C 37.492964 94.641335 38.914646 102.951295 42.140327 110.622025 
C 45.366007 118.292754 50.310368 125.121365 56.591188 130.579974 
C 62.872008 136.038582 70.323161 139.982811 78.36864 142.107753 
C 86.414119 144.232696 94.841123 144.482147 102.998207 142.836824 
C 111.155291 141.191502 118.826703 137.694923 125.419408 132.617389 
C 132.012113 127.539855 137.351736 121.015666 141.0255 113.54917 
C 144.699265 106.082674 146.610001 97.871358 146.61 89.549993 
L 92.25 89.55 
L 44.979487 62.707716 
z
" style="fill:#738fc1;stroke:#ffffff;stroke-linejoin:miter;"/>
   </g>
   <g id="patch_8">
    <path clip-path="url(#pf46f38a513)" d="M 92.25 122.166 
C 100.899864 122.166 109.196617 118.729372 115.312995 112.612995 
C 121.429372 106.496617 124.866 98.199864 124.866 89.55 
C 124.866 80.900136 121.429372 72.603383 115.312995 66.487005 
C 109.196617 60.370628 100.899864 56.934 92.25 56.934 
C 83.600136 56.934 75.303383 60.370628 69.187005 66.487005 
C 63.070628 72.603383 59.634 80.900136 59.634 89.55 
C 59.634 98.199864 63.070628 106.496617 69.187005 112.612995 
C 75.303383 118.729372 83.600136 122.166 92.25 122.166 
z
" style="fill:#ffffff;stroke:#ffffff;stroke-linejoin:miter;"/>
   </g>
  </g>
 </g>
 <defs>
  <clipPath id="pf46f38a513">
   <rect height="135.9" width="135.9" x="24.3" y="21.6"/>
  </clipPath>
 </defs>
</svg>
