<?xml version="1.0" encoding="utf-8" standalone="no"?>
<!DOCTYPE svg PUBLIC "-//W3C//DTD SVG 1.1//EN"
  "http://www.w3.org/Graphics/SVG/1.1/DTD/svg11.dtd">
<!-- Created with matplotlib (https://matplotlib.org/) -->
<svg height="180pt" version="1.1" viewBox="0 0 180 180" width="180pt" xmlns="http://www.w3.org/2000/svg" xmlns:xlink="http://www.w3.org/1999/xlink">
 <defs>
  <style type="text/css">
*{stroke-linecap:butt;stroke-linejoin:round;}
  </style>
 </defs>
 <g id="figure_1">
  <g id="patch_1">
   <path d="M 0 180 
L 180 180 
L 180 0 
L 0 0 
z
" style="fill:#ffffff;"/>
  </g>
  <g id="axes_1">
   <g id="matplotlib.axis_1"/>
   <g id="matplotlib.axis_2"/>
   <g id="patch_2">
    <path d="M 146.61 89.55 
C 146.61 88.768732 146.593157 87.987556 146.559484 87.207014 
C 146.52581 86.426473 146.475313 85.646748 146.408029 84.868383 
L 92.25 89.55 
L 146.61 89.55 
z
" style="fill:#eac264;stroke:#ffffff;stroke-linejoin:miter;"/>
   </g>
   <g id="patch_3">
    <path d="M 146.408029 84.868383 
C 146.24508 82.983355 145.983827 81.108119 145.625336 79.250334 
C 145.266845 77.392548 144.811605 75.554746 144.261475 73.744431 
L 92.25 89.55 
L 146.408029 84.868383 
z
" style="fill:#9b8579;stroke:#ffffff;stroke-linejoin:miter;"/>
   </g>
   <g id="patch_4">
    <path d="M 144.261475 73.744431 
C 143.622245 71.640911 142.855993 69.578107 141.966942 67.567386 
C 141.077891 65.556666 140.067678 63.60173 138.94187 61.713354 
L 92.25 89.55 
L 144.261475 73.744431 
z
" style="fill:#a4b878;stroke:#ffffff;stroke-linejoin:miter;"/>
   </g>
   <g id="patch_5">
    <path d="M 138.94187 61.713354 
C 133.761611 53.024233 126.257257 45.951239 117.277029 41.293835 
C 108.2968 36.636432 98.192289 34.576964 88.10561 35.348214 
L 92.25 89.55 
L 138.94187 61.713354 
z
" style="stroke:#ffffff;stroke-linejoin:miter;"/>
   </g>
   <g id="patch_6">
    <path d="M 88.10561 35.348214 
C 76.452129 36.239265 65.391024 40.865273 56.572921 48.535909 
C 47.754818 56.206545 41.641314 66.520277 39.144715 77.938009 
L 92.25 89.55 
L 88.10561 35.348214 
z
" style="fill:#d56c55;stroke:#ffffff;stroke-linejoin:miter;"/>
   </g>
   <g id="patch_7">
    <path d="M 39.144715 77.938009 
C 37.514619 85.39295 37.472435 93.108272 39.020914 100.580593 
C 40.569393 108.052913 43.67411 115.116107 48.132499 121.30934 
C 52.590887 127.502572 58.30383 132.688156 64.898586 136.527758 
C 71.493342 140.36736 78.823299 142.77562 86.410216 143.595412 
C 93.997132 144.415203 101.672337 143.6283 108.935063 141.286044 
C 116.19779 138.943788 122.886574 135.098252 128.565008 130.000337 
C 134.243443 124.902422 138.785285 118.665463 141.894204 111.69639 
C 145.003123 104.727317 146.610002 97.181064 146.61 89.549986 
L 92.25 89.55 
L 39.144715 77.938009 
z
" style="fill:#738fc1;stroke:#ffffff;stroke-linejoin:miter;"/>
   </g>
   <g id="patch_8">
    <path clip-path="url(#pe20a3bd43b)" d="M 92.25 122.166 
C 100.899864 122.166 109.196617 118.729372 115.312995 112.612995 
C 121.429372 106.496617 124.866 98.199864 124.866 89.55 
C 124.866 80.900136 121.429372 72.603383 115.312995 66.487005 
C 109.196617 60.370628 100.899864 56.934 92.25 56.934 
C 83.600136 56.934 75.303383 60.370628 69.187005 66.487005 
C 63.070628 72.603383 59.634 80.900136 59.634 89.55 
C 59.634 98.199864 63.070628 106.496617 69.187005 112.612995 
C 75.303383 118.729372 83.600136 122.166 92.25 122.166 
z
" style="fill:#ffffff;stroke:#ffffff;stroke-linejoin:miter;"/>
   </g>
  </g>
 </g>
 <defs>
  <clipPath id="pe20a3bd43b">
   <rect height="135.9" width="135.9" x="24.3" y="21.6"/>
  </clipPath>
 </defs>
</svg>
