<?xml version="1.0" encoding="utf-8" standalone="no"?>
<!DOCTYPE svg PUBLIC "-//W3C//DTD SVG 1.1//EN"
  "http://www.w3.org/Graphics/SVG/1.1/DTD/svg11.dtd">
<!-- Created with matplotlib (https://matplotlib.org/) -->
<svg height="180pt" version="1.1" viewBox="0 0 180 180" width="180pt" xmlns="http://www.w3.org/2000/svg" xmlns:xlink="http://www.w3.org/1999/xlink">
 <defs>
  <style type="text/css">
*{stroke-linecap:butt;stroke-linejoin:round;}
  </style>
 </defs>
 <g id="figure_1">
  <g id="patch_1">
   <path d="M 0 180 
L 180 180 
L 180 0 
L 0 0 
z
" style="fill:#ffffff;"/>
  </g>
  <g id="axes_1">
   <g id="matplotlib.axis_1"/>
   <g id="matplotlib.axis_2"/>
   <g id="patch_2">
    <path d="M 146.61 89.55 
C 146.61 88.768536 146.593149 87.987163 146.559458 87.206426 
C 146.525768 86.425689 146.475246 85.645769 146.407927 84.86721 
L 92.25 89.55 
L 146.61 89.55 
z
" style="fill:#7e9d90;stroke:#ffffff;stroke-linejoin:miter;"/>
   </g>
   <g id="patch_3">
    <path d="M 146.407927 84.86721 
C 146.328566 83.949371 146.225885 83.033698 146.099983 82.121078 
C 145.974082 81.208458 145.825001 80.299186 145.652886 79.394144 
L 92.25 89.55 
L 146.407927 84.86721 
z
" style="fill:#ab85ac;stroke:#ffffff;stroke-linejoin:miter;"/>
   </g>
   <g id="patch_4">
    <path d="M 145.652886 79.394144 
C 145.299314 77.534944 144.848892 75.695477 144.303461 73.883258 
C 143.75803 72.071038 143.118333 70.288538 142.386984 68.543039 
L 92.25 89.55 
L 145.652886 79.394144 
z
" style="fill:#905426;stroke:#ffffff;stroke-linejoin:miter;"/>
   </g>
   <g id="patch_5">
    <path d="M 142.386984 68.543039 
C 141.537184 66.514834 140.565095 64.540062 139.476077 62.629612 
C 138.387059 60.719163 137.183118 58.876554 135.870892 57.111946 
L 92.25 89.55 
L 142.386984 68.543039 
z
" style="fill:#bfd598;stroke:#ffffff;stroke-linejoin:miter;"/>
   </g>
   <g id="patch_6">
    <path d="M 135.870892 57.111946 
C 129.832851 48.992323 121.64598 42.717616 112.236083 38.997393 
C 102.826186 35.27717 92.56186 34.257156 82.603837 36.0527 
L 92.25 89.55 
L 135.870892 57.111946 
z
" style="fill:#4b4b4b;stroke:#ffffff;stroke-linejoin:miter;"/>
   </g>
   <g id="patch_7">
    <path d="M 82.603837 36.0527 
C 72.037829 37.95787 62.26937 42.95127 54.536992 50.399794 
C 46.804613 57.848319 41.449527 67.423279 39.150698 77.910681 
L 92.25 89.55 
L 82.603837 36.0527 
z
" style="fill:#e8b19d;stroke:#ffffff;stroke-linejoin:miter;"/>
   </g>
   <g id="patch_8">
    <path d="M 39.150698 77.910681 
C 37.516514 85.365932 37.470599 93.082451 39.015952 100.556622 
C 40.561304 108.030793 43.663557 115.096399 48.120243 121.292309 
C 52.576929 127.488218 58.288937 132.676641 64.883476 136.518958 
C 71.478015 140.361274 78.808431 142.772036 86.396307 143.593907 
C 93.984184 144.415778 101.660777 143.630479 108.925077 141.289264 
C 116.189376 138.948049 122.879835 135.102982 128.559802 130.00501 
C 134.239769 124.907039 138.782931 118.669535 141.892778 111.699586 
C 145.002626 104.729637 146.610002 97.182246 146.61 89.549989 
L 92.25 89.55 
L 39.150698 77.910681 
z
" style="fill:#738fc1;stroke:#ffffff;stroke-linejoin:miter;"/>
   </g>
   <g id="patch_9">
    <path clip-path="url(#p8e375b9013)" d="M 92.25 122.166 
C 100.899864 122.166 109.196617 118.729372 115.312995 112.612995 
C 121.429372 106.496617 124.866 98.199864 124.866 89.55 
C 124.866 80.900136 121.429372 72.603383 115.312995 66.487005 
C 109.196617 60.370628 100.899864 56.934 92.25 56.934 
C 83.600136 56.934 75.303383 60.370628 69.187005 66.487005 
C 63.070628 72.603383 59.634 80.900136 59.634 89.55 
C 59.634 98.199864 63.070628 106.496617 69.187005 112.612995 
C 75.303383 118.729372 83.600136 122.166 92.25 122.166 
z
" style="fill:#ffffff;stroke:#ffffff;stroke-linejoin:miter;"/>
   </g>
  </g>
 </g>
 <defs>
  <clipPath id="p8e375b9013">
   <rect height="135.9" width="135.9" x="24.3" y="21.6"/>
  </clipPath>
 </defs>
</svg>
