<?xml version="1.0" encoding="utf-8" standalone="no"?>
<!DOCTYPE svg PUBLIC "-//W3C//DTD SVG 1.1//EN"
  "http://www.w3.org/Graphics/SVG/1.1/DTD/svg11.dtd">
<svg xmlns:xlink="http://www.w3.org/1999/xlink" width="180pt" height="180pt" viewBox="0 0 180 180" xmlns="http://www.w3.org/2000/svg" version="1.1">
 <metadata>
  <rdf:RDF xmlns:dc="http://purl.org/dc/elements/1.1/" xmlns:cc="http://creativecommons.org/ns#" xmlns:rdf="http://www.w3.org/1999/02/22-rdf-syntax-ns#">
   <cc:Work>
    <dc:type rdf:resource="http://purl.org/dc/dcmitype/StillImage"/>
    <dc:date>2022-02-22T11:50:02.628919</dc:date>
    <dc:format>image/svg+xml</dc:format>
    <dc:creator>
     <cc:Agent>
      <dc:title>Matplotlib v3.5.0, https://matplotlib.org/</dc:title>
     </cc:Agent>
    </dc:creator>
   </cc:Work>
  </rdf:RDF>
 </metadata>
 <defs>
  <style type="text/css">*{stroke-linejoin: round; stroke-linecap: butt}</style>
 </defs>
 <g id="figure_1">
  <g id="patch_1">
   <path d="M 0 180 
L 180 180 
L 180 0 
L 0 0 
z
" style="fill: #ffffff"/>
  </g>
  <g id="axes_1">
   <g id="matplotlib.axis_1"/>
   <g id="matplotlib.axis_2"/>
   <g id="patch_2">
    <path d="M 146.61 89.55 
C 146.61 89.403536 146.609408 89.257073 146.608224 89.110614 
C 146.60704 88.964155 146.605265 88.817702 146.602897 88.671257 
L 92.25 89.55 
L 146.61 89.55 
z
" style="fill: #eac264; stroke: #ffffff; stroke-linejoin: miter"/>
   </g>
   <g id="patch_3">
    <path d="M 146.602897 88.671257 
C 146.577679 87.111471 146.485331 85.553493 146.326108 84.00165 
C 146.166885 82.449808 145.940934 80.905537 145.648885 79.373129 
L 92.25 89.55 
L 146.602897 88.671257 
z
" style="fill: #9b8579; stroke: #ffffff; stroke-linejoin: miter"/>
   </g>
   <g id="patch_4">
    <path d="M 145.648885 79.373129 
C 145.22803 77.164871 144.6706 74.984844 143.979807 72.845608 
C 143.289013 70.706373 142.466185 68.612047 141.516064 66.574698 
L 92.25 89.55 
L 145.648885 79.373129 
z
" style="fill: #d56c55; stroke: #ffffff; stroke-linejoin: miter"/>
   </g>
   <g id="patch_5">
    <path d="M 141.516064 66.574698 
C 140.300244 63.967608 138.879395 61.461136 137.266908 59.078906 
C 135.654422 56.696676 133.85538 54.446195 131.886739 52.348676 
L 92.25 89.55 
L 141.516064 66.574698 
z
" style="fill: #a4b878; stroke: #ffffff; stroke-linejoin: miter"/>
   </g>
   <g id="patch_6">
    <path d="M 131.886739 52.348676 
C 129.470286 49.774027 126.808712 47.440938 123.939763 45.382494 
C 121.070813 43.324051 118.008114 41.550029 114.795098 40.085587 
L 92.25 89.55 
L 131.886739 52.348676 
z
" style="stroke: #ffffff; stroke-linejoin: miter"/>
   </g>
   <g id="patch_7">
    <path d="M 114.795098 40.085587 
C 109.486877 37.666184 103.823645 36.116948 98.02305 35.497419 
C 92.222455 34.87789 86.35977 35.196109 80.660311 36.439844 
C 74.960851 37.683579 69.498577 39.836691 64.483414 42.816433 
C 59.468251 45.796175 54.96528 49.563878 51.147559 53.974742 
C 47.329838 58.385607 44.246909 63.382394 42.017255 68.773067 
C 39.787601 74.163741 38.440155 79.878347 38.026702 85.697262 
C 37.61325 91.516178 38.139156 97.363891 39.58421 103.015664 
C 41.029263 108.667438 43.374711 114.049928 46.530414 118.956277 
C 49.686118 123.862625 53.611125 128.229163 58.15459 131.888075 
C 62.698056 135.546988 67.80102 138.450794 73.267365 140.487895 
C 78.733711 142.524997 84.492503 143.668958 90.32242 143.875814 
C 96.152337 144.08267 101.977725 143.349737 107.574702 141.705183 
C 113.17168 140.060629 118.467617 137.525795 123.25898 134.198099 
C 128.050343 130.870403 132.274956 126.793029 135.770458 122.122678 
C 139.26596 117.452326 141.986991 112.249603 143.828977 106.71446 
C 145.670963 101.179318 146.61 95.383583 146.61 89.549997 
L 92.25 89.55 
L 114.795098 40.085587 
z
" style="fill: #738fc1; stroke: #ffffff; stroke-linejoin: miter"/>
   </g>
   <g id="patch_8">
    <path d="M 92.25 122.166 
C 100.899864 122.166 109.196617 118.729372 115.312995 112.612995 
C 121.429372 106.496617 124.866 98.199864 124.866 89.55 
C 124.866 80.900136 121.429372 72.603383 115.312995 66.487005 
C 109.196617 60.370628 100.899864 56.934 92.25 56.934 
C 83.600136 56.934 75.303383 60.370628 69.187005 66.487005 
C 63.070628 72.603383 59.634 80.900136 59.634 89.55 
C 59.634 98.199864 63.070628 106.496617 69.187005 112.612995 
C 75.303383 118.729372 83.600136 122.166 92.25 122.166 
z
" clip-path="url(#p7e9eff8d31)" style="fill: #ffffff; stroke: #ffffff; stroke-linejoin: miter"/>
   </g>
  </g>
 </g>
 <defs>
  <clipPath id="p7e9eff8d31">
   <rect x="24.3" y="21.6" width="135.9" height="135.9"/>
  </clipPath>
 </defs>
</svg>
