<?xml version="1.0" encoding="utf-8" standalone="no"?>
<!DOCTYPE svg PUBLIC "-//W3C//DTD SVG 1.1//EN"
  "http://www.w3.org/Graphics/SVG/1.1/DTD/svg11.dtd">
<!-- Created with matplotlib (https://matplotlib.org/) -->
<svg height="180pt" version="1.1" viewBox="0 0 180 180" width="180pt" xmlns="http://www.w3.org/2000/svg" xmlns:xlink="http://www.w3.org/1999/xlink">
 <defs>
  <style type="text/css">
*{stroke-linecap:butt;stroke-linejoin:round;}
  </style>
 </defs>
 <g id="figure_1">
  <g id="patch_1">
   <path d="M 0 180 
L 180 180 
L 180 0 
L 0 0 
z
" style="fill:#ffffff;"/>
  </g>
  <g id="axes_1">
   <g id="matplotlib.axis_1"/>
   <g id="matplotlib.axis_2"/>
   <g id="patch_2">
    <path d="M 146.61 89.55 
C 146.61 89.403536 146.609408 89.257073 146.608224 89.110614 
C 146.60704 88.964155 146.605265 88.817702 146.602897 88.671257 
L 92.25 89.55 
L 146.61 89.55 
z
" style="fill:#7e9d90;stroke:#ffffff;stroke-linejoin:miter;"/>
   </g>
   <g id="patch_3">
    <path d="M 146.602897 88.671257 
C 146.591041 87.937951 146.564347 87.20496 146.52283 86.472734 
C 146.481312 85.740507 146.424981 85.009197 146.35387 84.27925 
L 92.25 89.55 
L 146.602897 88.671257 
z
" style="fill:#ab85ac;stroke:#ffffff;stroke-linejoin:miter;"/>
   </g>
   <g id="patch_4">
    <path d="M 146.35387 84.27925 
C 146.207061 82.772257 145.997352 81.272056 145.725293 79.782571 
C 145.453234 78.293086 145.119062 76.815618 144.723652 75.354033 
L 92.25 89.55 
L 146.35387 84.27925 
z
" style="fill:#e8b19d;stroke:#ffffff;stroke-linejoin:miter;"/>
   </g>
   <g id="patch_5">
    <path d="M 144.723652 75.354033 
C 144.316265 73.848176 143.844245 72.360554 143.308904 70.895297 
C 142.773563 69.43004 142.175396 67.988506 141.516065 66.574699 
L 92.25 89.55 
L 144.723652 75.354033 
z
" style="fill:#905426;stroke:#ffffff;stroke-linejoin:miter;"/>
   </g>
   <g id="patch_6">
    <path d="M 141.516065 66.574699 
C 140.300245 63.967609 138.879395 61.461137 137.266909 59.078907 
C 135.654422 56.696677 133.85538 54.446196 131.88674 52.348677 
L 92.25 89.55 
L 141.516065 66.574699 
z
" style="fill:#bfd598;stroke:#ffffff;stroke-linejoin:miter;"/>
   </g>
   <g id="patch_7">
    <path d="M 131.88674 52.348677 
C 129.470286 49.774028 126.808713 47.440939 123.939763 45.382495 
C 121.070814 43.324051 118.008115 41.550029 114.795099 40.085587 
L 92.25 89.55 
L 131.88674 52.348677 
z
" style="fill:#4b4b4b;stroke:#ffffff;stroke-linejoin:miter;"/>
   </g>
   <g id="patch_8">
    <path d="M 114.795099 40.085587 
C 109.486878 37.666184 103.823646 36.116948 98.023051 35.497419 
C 92.222456 34.87789 86.359771 35.196108 80.660312 36.439844 
C 74.960852 37.683579 69.498578 39.836691 64.483415 42.816432 
C 59.468252 45.796174 54.965281 49.563877 51.14756 53.974742 
C 47.329839 58.385606 44.24691 63.382393 42.017255 68.773066 
C 39.787601 74.16374 38.440155 79.878346 38.026702 85.697261 
C 37.61325 91.516177 38.139156 97.36389 39.584209 103.015663 
C 41.029263 108.667437 43.374711 114.049927 46.530414 118.956276 
C 49.686117 123.862624 53.611124 128.229162 58.154589 131.888075 
C 62.698055 135.546987 67.801019 138.450794 73.267365 140.487895 
C 78.73371 142.524996 84.492502 143.668957 90.322419 143.875814 
C 96.152336 144.08267 101.977724 143.349737 107.574702 141.705183 
C 113.171679 140.060629 118.467616 137.525795 123.25898 134.198099 
C 128.050343 130.870404 132.274955 126.79303 135.770458 122.122678 
C 139.26596 117.452327 141.986991 112.249604 143.828977 106.714461 
C 145.670963 101.179318 146.61 95.383584 146.61 89.549998 
L 92.25 89.55 
L 114.795099 40.085587 
z
" style="fill:#738fc1;stroke:#ffffff;stroke-linejoin:miter;"/>
   </g>
   <g id="patch_9">
    <path clip-path="url(#p15052a5fa6)" d="M 92.25 122.166 
C 100.899864 122.166 109.196617 118.729372 115.312995 112.612995 
C 121.429372 106.496617 124.866 98.199864 124.866 89.55 
C 124.866 80.900136 121.429372 72.603383 115.312995 66.487005 
C 109.196617 60.370628 100.899864 56.934 92.25 56.934 
C 83.600136 56.934 75.303383 60.370628 69.187005 66.487005 
C 63.070628 72.603383 59.634 80.900136 59.634 89.55 
C 59.634 98.199864 63.070628 106.496617 69.187005 112.612995 
C 75.303383 118.729372 83.600136 122.166 92.25 122.166 
z
" style="fill:#ffffff;stroke:#ffffff;stroke-linejoin:miter;"/>
   </g>
  </g>
 </g>
 <defs>
  <clipPath id="p15052a5fa6">
   <rect height="135.9" width="135.9" x="24.3" y="21.6"/>
  </clipPath>
 </defs>
</svg>
