<?xml version="1.0" encoding="utf-8" standalone="no"?>
<!DOCTYPE svg PUBLIC "-//W3C//DTD SVG 1.1//EN"
  "http://www.w3.org/Graphics/SVG/1.1/DTD/svg11.dtd">
<!-- Created with matplotlib (https://matplotlib.org/) -->
<svg height="180pt" version="1.1" viewBox="0 0 180 180" width="180pt" xmlns="http://www.w3.org/2000/svg" xmlns:xlink="http://www.w3.org/1999/xlink">
 <defs>
  <style type="text/css">
*{stroke-linecap:butt;stroke-linejoin:round;}
  </style>
 </defs>
 <g id="figure_1">
  <g id="patch_1">
   <path d="M 0 180 
L 180 180 
L 180 0 
L 0 0 
z
" style="fill:#ffffff;"/>
  </g>
  <g id="axes_1">
   <g id="matplotlib.axis_1"/>
   <g id="matplotlib.axis_2"/>
   <g id="patch_2">
    <path d="M 146.61 89.55 
C 146.61 88.794324 146.594243 88.03873 146.562738 87.283711 
C 146.531234 86.528693 146.483989 85.774413 146.421035 85.021364 
L 92.25 89.55 
L 146.61 89.55 
z
" style="fill:#eac264;stroke:#ffffff;stroke-linejoin:miter;"/>
   </g>
   <g id="patch_3">
    <path d="M 146.421035 85.021364 
C 146.252113 83.000736 145.970266 80.991141 145.576817 79.002003 
C 145.183367 77.012865 144.67893 75.047299 144.065872 73.11452 
L 92.25 89.55 
L 146.421035 85.021364 
z
" style="fill:#9b8579;stroke:#ffffff;stroke-linejoin:miter;"/>
   </g>
   <g id="patch_4">
    <path d="M 144.065872 73.11452 
C 143.432926 71.11904 142.685236 69.161788 141.826539 67.252547 
C 140.967842 65.343306 139.999571 63.485261 138.926567 61.687701 
L 92.25 89.55 
L 144.065872 73.11452 
z
" style="fill:#a4b878;stroke:#ffffff;stroke-linejoin:miter;"/>
   </g>
   <g id="patch_5">
    <path d="M 138.926567 61.687701 
C 133.602487 52.768489 125.831829 45.559449 116.538996 40.918176 
C 107.246162 36.276903 96.814865 34.395039 86.486019 35.496451 
L 92.25 89.55 
L 138.926567 61.687701 
z
" style="stroke:#ffffff;stroke-linejoin:miter;"/>
   </g>
   <g id="patch_6">
    <path d="M 86.486019 35.496451 
C 74.951236 36.726459 64.10755 41.616961 55.550083 49.448557 
C 46.992617 57.280153 41.162612 67.649029 38.917672 79.029907 
L 92.25 89.55 
L 86.486019 35.496451 
z
" style="fill:#d56c55;stroke:#ffffff;stroke-linejoin:miter;"/>
   </g>
   <g id="patch_7">
    <path d="M 38.917672 79.029907 
C 37.449948 86.470633 37.555491 94.136824 39.227499 101.534325 
C 40.899508 108.931825 44.101266 115.898199 48.626392 121.984401 
C 53.151518 128.070604 58.900648 133.142992 65.5032 136.874605 
C 72.105751 140.606219 79.416744 142.915117 86.964918 143.652472 
C 94.513091 144.389827 102.132703 143.539447 109.332599 141.156147 
C 116.532495 138.772847 123.154579 134.908959 128.771998 129.813547 
C 134.389417 124.718135 138.878823 118.503084 141.950833 111.56901 
C 145.022843 104.634936 146.610001 97.134099 146.61 89.549996 
L 92.25 89.55 
L 38.917672 79.029907 
z
" style="fill:#738fc1;stroke:#ffffff;stroke-linejoin:miter;"/>
   </g>
   <g id="patch_8">
    <path clip-path="url(#p52ded44c79)" d="M 92.25 122.166 
C 100.899864 122.166 109.196617 118.729372 115.312995 112.612995 
C 121.429372 106.496617 124.866 98.199864 124.866 89.55 
C 124.866 80.900136 121.429372 72.603383 115.312995 66.487005 
C 109.196617 60.370628 100.899864 56.934 92.25 56.934 
C 83.600136 56.934 75.303383 60.370628 69.187005 66.487005 
C 63.070628 72.603383 59.634 80.900136 59.634 89.55 
C 59.634 98.199864 63.070628 106.496617 69.187005 112.612995 
C 75.303383 118.729372 83.600136 122.166 92.25 122.166 
z
" style="fill:#ffffff;stroke:#ffffff;stroke-linejoin:miter;"/>
   </g>
  </g>
 </g>
 <defs>
  <clipPath id="p52ded44c79">
   <rect height="135.9" width="135.9" x="24.3" y="21.6"/>
  </clipPath>
 </defs>
</svg>
