<?xml version="1.0" encoding="utf-8" standalone="no"?>
<!DOCTYPE svg PUBLIC "-//W3C//DTD SVG 1.1//EN"
  "http://www.w3.org/Graphics/SVG/1.1/DTD/svg11.dtd">
<!-- Created with matplotlib (https://matplotlib.org/) -->
<svg height="180pt" version="1.1" viewBox="0 0 180 180" width="180pt" xmlns="http://www.w3.org/2000/svg" xmlns:xlink="http://www.w3.org/1999/xlink">
 <defs>
  <style type="text/css">
*{stroke-linecap:butt;stroke-linejoin:round;}
  </style>
 </defs>
 <g id="figure_1">
  <g id="patch_1">
   <path d="M 0 180 
L 180 180 
L 180 0 
L 0 0 
z
" style="fill:#ffffff;"/>
  </g>
  <g id="axes_1">
   <g id="matplotlib.axis_1"/>
   <g id="matplotlib.axis_2"/>
   <g id="patch_2">
    <path d="M 146.61 89.55 
C 146.61 88.792221 146.594155 88.034525 146.562475 87.277408 
C 146.530795 86.520292 146.483287 85.76392 146.419983 85.00879 
L 92.25 89.55 
L 146.61 89.55 
z
" style="fill:#7e9d90;stroke:#ffffff;stroke-linejoin:miter;"/>
   </g>
   <g id="patch_3">
    <path d="M 146.419983 85.00879 
C 146.340073 84.05559 146.235019 83.104665 146.104928 82.157009 
C 145.974838 81.209353 145.819757 80.265296 145.639847 79.325824 
L 92.25 89.55 
L 146.419983 85.00879 
z
" style="fill:#ab85ac;stroke:#ffffff;stroke-linejoin:miter;"/>
   </g>
   <g id="patch_4">
    <path d="M 145.639847 79.325824 
C 145.258491 77.334409 144.766015 75.365891 144.164728 73.429498 
C 143.563442 71.493105 142.854286 69.591869 142.040587 67.734706 
L 92.25 89.55 
L 145.639847 79.325824 
z
" style="fill:#905426;stroke:#ffffff;stroke-linejoin:miter;"/>
   </g>
   <g id="patch_5">
    <path d="M 142.040587 67.734706 
C 141.20049 65.817293 140.250336 63.950008 139.194874 62.142183 
C 138.139411 60.334357 136.980402 58.589008 135.723637 56.914859 
L 92.25 89.55 
L 142.040587 67.734706 
z
" style="fill:#bfd598;stroke:#ffffff;stroke-linejoin:miter;"/>
   </g>
   <g id="patch_6">
    <path d="M 135.723637 56.914859 
C 129.487774 48.607995 120.999753 42.259924 111.269242 38.625762 
C 101.538732 34.9916 90.967484 34.221393 80.81297 36.40676 
L 92.25 89.55 
L 135.723637 56.914859 
z
" style="fill:#4b4b4b;stroke:#ffffff;stroke-linejoin:miter;"/>
   </g>
   <g id="patch_7">
    <path d="M 80.81297 36.40676 
C 70.429294 38.641445 60.92477 43.871186 53.479719 51.446524 
C 46.034667 59.021863 40.970587 68.615676 38.916361 79.036554 
L 92.25 89.55 
L 80.81297 36.40676 
z
" style="fill:#e8b19d;stroke:#ffffff;stroke-linejoin:miter;"/>
   </g>
   <g id="patch_8">
    <path d="M 38.916361 79.036554 
C 37.44962 86.477183 37.556055 94.143066 39.228806 101.540104 
C 40.901557 108.937143 44.103897 115.902925 48.62942 121.988474 
C 53.154944 128.074024 58.904286 133.145725 65.506878 136.876684 
C 72.109471 140.607643 79.420342 142.915942 86.968277 143.6528 
C 94.516212 144.389659 102.135483 143.538898 109.334997 141.155353 
C 116.53451 138.771809 123.15619 134.907814 128.773239 129.812421 
C 134.390289 124.717028 138.879379 118.502114 141.951167 111.568255 
C 145.022956 104.634397 146.609997 97.133837 146.61 89.55002 
L 92.25 89.55 
L 38.916361 79.036554 
z
" style="fill:#738fc1;stroke:#ffffff;stroke-linejoin:miter;"/>
   </g>
   <g id="patch_9">
    <path clip-path="url(#pb81f5acd65)" d="M 92.25 122.166 
C 100.899864 122.166 109.196617 118.729372 115.312995 112.612995 
C 121.429372 106.496617 124.866 98.199864 124.866 89.55 
C 124.866 80.900136 121.429372 72.603383 115.312995 66.487005 
C 109.196617 60.370628 100.899864 56.934 92.25 56.934 
C 83.600136 56.934 75.303383 60.370628 69.187005 66.487005 
C 63.070628 72.603383 59.634 80.900136 59.634 89.55 
C 59.634 98.199864 63.070628 106.496617 69.187005 112.612995 
C 75.303383 118.729372 83.600136 122.166 92.25 122.166 
z
" style="fill:#ffffff;stroke:#ffffff;stroke-linejoin:miter;"/>
   </g>
  </g>
 </g>
 <defs>
  <clipPath id="pb81f5acd65">
   <rect height="135.9" width="135.9" x="24.3" y="21.6"/>
  </clipPath>
 </defs>
</svg>
