<?xml version="1.0" encoding="utf-8" standalone="no"?>
<!DOCTYPE svg PUBLIC "-//W3C//DTD SVG 1.1//EN"
  "http://www.w3.org/Graphics/SVG/1.1/DTD/svg11.dtd">
<!-- Created with matplotlib (https://matplotlib.org/) -->
<svg height="180pt" version="1.1" viewBox="0 0 180 180" width="180pt" xmlns="http://www.w3.org/2000/svg" xmlns:xlink="http://www.w3.org/1999/xlink">
 <defs>
  <style type="text/css">
*{stroke-linecap:butt;stroke-linejoin:round;}
  </style>
 </defs>
 <g id="figure_1">
  <g id="patch_1">
   <path d="M 0 180 
L 180 180 
L 180 0 
L 0 0 
z
" style="fill:#ffffff;"/>
  </g>
  <g id="axes_1">
   <g id="matplotlib.axis_1"/>
   <g id="matplotlib.axis_2"/>
   <g id="patch_2">
    <path d="M 146.61 89.55 
C 146.61 89.291521 146.608156 89.033046 146.604469 88.774593 
C 146.600782 88.516141 146.595252 88.257718 146.587879 87.999345 
L 92.25 89.55 
L 146.61 89.55 
z
" style="fill:#7e9d90;stroke:#ffffff;stroke-linejoin:miter;"/>
   </g>
   <g id="patch_3">
    <path d="M 146.587879 87.999345 
C 146.568323 87.314065 146.535805 86.629216 146.490343 85.945166 
C 146.44488 85.261116 146.386482 84.577987 146.315179 83.896146 
L 92.25 89.55 
L 146.587879 87.999345 
z
" style="fill:#ab85ac;stroke:#ffffff;stroke-linejoin:miter;"/>
   </g>
   <g id="patch_4">
    <path d="M 146.315179 83.896146 
C 146.200249 82.797125 146.051835 81.701864 145.870143 80.611889 
C 145.688452 79.521915 145.473568 78.437734 145.225791 77.360857 
L 92.25 89.55 
L 146.315179 83.896146 
z
" style="fill:#bfd598;stroke:#ffffff;stroke-linejoin:miter;"/>
   </g>
   <g id="patch_5">
    <path d="M 145.225791 77.360857 
C 144.932971 76.08822 144.594387 74.826548 144.210699 73.578296 
C 143.827011 72.330044 143.398467 71.096024 142.925902 69.878637 
L 92.25 89.55 
L 145.225791 77.360857 
z
" style="fill:#905426;stroke:#ffffff;stroke-linejoin:miter;"/>
   </g>
   <g id="patch_6">
    <path d="M 142.925902 69.878637 
C 138.195862 57.693459 129.225981 47.613878 117.672444 41.500973 
C 106.118907 35.388068 92.739424 33.642738 80.004365 36.587239 
L 92.25 89.55 
L 142.925902 69.878637 
z
" style="fill:#4b4b4b;stroke:#ffffff;stroke-linejoin:miter;"/>
   </g>
   <g id="patch_7">
    <path d="M 80.004365 36.587239 
C 71.534098 38.545668 63.655949 42.507777 57.033291 48.139941 
C 50.410633 53.772104 45.234718 60.911673 41.941381 68.957467 
C 38.648043 77.00326 37.332389 85.722927 38.105203 94.382236 
C 38.878016 103.041545 41.716979 111.390426 46.383039 118.725871 
L 92.25 89.55 
L 80.004365 36.587239 
z
" style="fill:#738fc1;stroke:#ffffff;stroke-linejoin:miter;"/>
   </g>
   <g id="patch_8">
    <path d="M 46.383039 118.725871 
C 52.697361 128.652525 62.066741 136.266053 73.075278 140.415899 
C 84.083815 144.565744 96.147558 145.031779 107.443435 141.743574 
C 118.739311 138.455369 128.668127 131.587349 135.729441 122.177409 
C 142.790754 112.76747 146.609995 101.314763 146.61 89.550023 
L 92.25 89.55 
L 46.383039 118.725871 
z
" style="fill:#e8b19d;stroke:#ffffff;stroke-linejoin:miter;"/>
   </g>
   <g id="patch_9">
    <path clip-path="url(#p5eeefa696a)" d="M 92.25 122.166 
C 100.899864 122.166 109.196617 118.729372 115.312995 112.612995 
C 121.429372 106.496617 124.866 98.199864 124.866 89.55 
C 124.866 80.900136 121.429372 72.603383 115.312995 66.487005 
C 109.196617 60.370628 100.899864 56.934 92.25 56.934 
C 83.600136 56.934 75.303383 60.370628 69.187005 66.487005 
C 63.070628 72.603383 59.634 80.900136 59.634 89.55 
C 59.634 98.199864 63.070628 106.496617 69.187005 112.612995 
C 75.303383 118.729372 83.600136 122.166 92.25 122.166 
z
" style="fill:#ffffff;stroke:#ffffff;stroke-linejoin:miter;"/>
   </g>
  </g>
 </g>
 <defs>
  <clipPath id="p5eeefa696a">
   <rect height="135.9" width="135.9" x="24.3" y="21.6"/>
  </clipPath>
 </defs>
</svg>
