<?xml version="1.0" encoding="utf-8" standalone="no"?>
<!DOCTYPE svg PUBLIC "-//W3C//DTD SVG 1.1//EN"
  "http://www.w3.org/Graphics/SVG/1.1/DTD/svg11.dtd">
<!-- Created with matplotlib (https://matplotlib.org/) -->
<svg height="180pt" version="1.1" viewBox="0 0 180 180" width="180pt" xmlns="http://www.w3.org/2000/svg" xmlns:xlink="http://www.w3.org/1999/xlink">
 <defs>
  <style type="text/css">
*{stroke-linecap:butt;stroke-linejoin:round;}
  </style>
 </defs>
 <g id="figure_1">
  <g id="patch_1">
   <path d="M 0 180 
L 180 180 
L 180 0 
L 0 0 
z
" style="fill:#ffffff;"/>
  </g>
  <g id="axes_1">
   <g id="matplotlib.axis_1"/>
   <g id="matplotlib.axis_2"/>
   <g id="patch_2">
    <path d="M 146.61 89.55 
C 146.61 89.291521 146.608156 89.033046 146.604469 88.774593 
C 146.600782 88.516141 146.595252 88.257718 146.587879 87.999344 
L 92.25 89.55 
L 146.61 89.55 
z
" style="fill:#eac264;stroke:#ffffff;stroke-linejoin:miter;"/>
   </g>
   <g id="patch_3">
    <path d="M 146.587879 87.999344 
C 146.556357 86.89478 146.491164 85.791433 146.392388 84.690842 
C 146.293613 83.590251 146.161301 82.492928 145.995638 81.400402 
L 92.25 89.55 
L 146.587879 87.999344 
z
" style="fill:#bfd598;stroke:#ffffff;stroke-linejoin:miter;"/>
   </g>
   <g id="patch_4">
    <path d="M 145.995638 81.400402 
C 145.799861 80.109271 145.557621 78.825613 145.269392 77.551929 
C 144.981162 76.278244 144.647129 75.015359 144.267944 73.765732 
L 92.25 89.55 
L 145.995638 81.400402 
z
" style="fill:#9b8579;stroke:#ffffff;stroke-linejoin:miter;"/>
   </g>
   <g id="patch_5">
    <path d="M 144.267944 73.765732 
C 140.472567 61.257855 132.290309 50.529042 121.231929 43.560247 
C 110.173549 36.591451 96.964285 33.839705 84.043076 35.813085 
L 92.25 89.55 
L 144.267944 73.765732 
z
" style="stroke:#ffffff;stroke-linejoin:miter;"/>
   </g>
   <g id="patch_6">
    <path d="M 84.043076 35.813085 
C 75.448998 37.125608 67.293879 40.48084 60.264412 45.596255 
C 53.234944 50.71167 47.53413 57.439543 43.642002 65.213359 
C 39.749873 72.987175 37.778829 81.582437 37.89484 90.27539 
C 38.010851 98.968342 40.210566 107.507945 44.30876 115.175127 
L 92.25 89.55 
L 84.043076 35.813085 
z
" style="fill:#738fc1;stroke:#ffffff;stroke-linejoin:miter;"/>
   </g>
   <g id="patch_7">
    <path d="M 44.30876 115.175127 
C 50.020438 125.860925 59.144063 134.336338 70.221085 139.246443 
C 81.298107 144.156549 93.705025 145.224968 105.458408 142.280898 
C 117.21179 139.336827 127.650065 132.545983 135.104517 122.993983 
C 142.558968 113.441983 146.610002 101.666489 146.61 89.54999 
L 92.25 89.55 
L 44.30876 115.175127 
z
" style="fill:#d56c55;stroke:#ffffff;stroke-linejoin:miter;"/>
   </g>
   <g id="patch_8">
    <path clip-path="url(#pe63dbad6c1)" d="M 92.25 122.166 
C 100.899864 122.166 109.196617 118.729372 115.312995 112.612995 
C 121.429372 106.496617 124.866 98.199864 124.866 89.55 
C 124.866 80.900136 121.429372 72.603383 115.312995 66.487005 
C 109.196617 60.370628 100.899864 56.934 92.25 56.934 
C 83.600136 56.934 75.303383 60.370628 69.187005 66.487005 
C 63.070628 72.603383 59.634 80.900136 59.634 89.55 
C 59.634 98.199864 63.070628 106.496617 69.187005 112.612995 
C 75.303383 118.729372 83.600136 122.166 92.25 122.166 
z
" style="fill:#ffffff;stroke:#ffffff;stroke-linejoin:miter;"/>
   </g>
  </g>
 </g>
 <defs>
  <clipPath id="pe63dbad6c1">
   <rect height="135.9" width="135.9" x="24.3" y="21.6"/>
  </clipPath>
 </defs>
</svg>
