<?xml version="1.0" encoding="utf-8" standalone="no"?>
<!DOCTYPE svg PUBLIC "-//W3C//DTD SVG 1.1//EN"
  "http://www.w3.org/Graphics/SVG/1.1/DTD/svg11.dtd">
<!-- Created with matplotlib (https://matplotlib.org/) -->
<svg height="180pt" version="1.1" viewBox="0 0 180 180" width="180pt" xmlns="http://www.w3.org/2000/svg" xmlns:xlink="http://www.w3.org/1999/xlink">
 <defs>
  <style type="text/css">
*{stroke-linecap:butt;stroke-linejoin:round;}
  </style>
 </defs>
 <g id="figure_1">
  <g id="patch_1">
   <path d="M 0 180 
L 180 180 
L 180 0 
L 0 0 
z
" style="fill:#ffffff;"/>
  </g>
  <g id="axes_1">
   <g id="matplotlib.axis_1"/>
   <g id="matplotlib.axis_2"/>
   <g id="patch_2">
    <path d="M 146.61 89.55 
C 146.61 88.972037 146.600783 88.39411 146.582351 87.816441 
C 146.56392 87.238772 146.536277 86.661433 146.499432 86.084645 
L 92.25 89.55 
L 146.61 89.55 
z
" style="fill:#7e9d90;stroke:#ffffff;stroke-linejoin:miter;"/>
   </g>
   <g id="patch_3">
    <path d="M 146.499432 86.084645 
C 146.329465 83.423836 145.963967 80.779132 145.4059 78.171958 
C 144.847834 75.564783 144.098708 73.002196 143.164593 70.504952 
L 92.25 89.55 
L 146.499432 86.084645 
z
" style="fill:#ab85ac;stroke:#ffffff;stroke-linejoin:miter;"/>
   </g>
   <g id="patch_4">
    <path d="M 143.164593 70.504952 
C 141.906959 67.142822 140.319385 63.913515 138.425137 60.864354 
C 136.530889 57.815192 134.339264 54.961144 131.882379 52.344031 
L 92.25 89.55 
L 143.164593 70.504952 
z
" style="fill:#bfd598;stroke:#ffffff;stroke-linejoin:miter;"/>
   </g>
   <g id="patch_5">
    <path d="M 131.882379 52.344031 
C 129.194379 49.480732 126.203982 46.917143 122.963597 44.698193 
C 119.723212 42.479244 116.251881 40.617975 112.610443 39.147004 
L 92.25 89.55 
L 131.882379 52.344031 
z
" style="fill:#905426;stroke:#ffffff;stroke-linejoin:miter;"/>
   </g>
   <g id="patch_6">
    <path d="M 112.610443 39.147004 
C 102.234874 34.955762 90.813943 34.068775 79.915678 36.607823 
C 69.017413 39.146871 59.164489 44.990181 51.709653 53.335501 
L 92.25 89.55 
L 112.610443 39.147004 
z
" style="fill:#e8b19d;stroke:#ffffff;stroke-linejoin:miter;"/>
   </g>
   <g id="patch_7">
    <path d="M 51.709653 53.335501 
C 43.904255 62.073261 39.129071 73.104662 38.100061 84.77573 
C 37.07105 96.446797 39.842347 108.143553 45.998441 118.112264 
L 92.25 89.55 
L 51.709653 53.335501 
z
" style="fill:#4b4b4b;stroke:#ffffff;stroke-linejoin:miter;"/>
   </g>
   <g id="patch_8">
    <path d="M 45.998441 118.112264 
C 52.212486 128.174815 61.5438 135.939742 72.56802 140.22178 
C 83.59224 144.503818 95.718372 145.073412 107.095442 141.843618 
C 118.472511 138.613824 128.490608 131.757786 135.620536 122.322034 
C 142.750463 112.886283 146.609995 101.376655 146.61 89.550021 
L 92.25 89.55 
L 45.998441 118.112264 
z
" style="fill:#738fc1;stroke:#ffffff;stroke-linejoin:miter;"/>
   </g>
   <g id="patch_9">
    <path clip-path="url(#pd7307aa463)" d="M 92.25 122.166 
C 100.899864 122.166 109.196617 118.729372 115.312995 112.612995 
C 121.429372 106.496617 124.866 98.199864 124.866 89.55 
C 124.866 80.900136 121.429372 72.603383 115.312995 66.487005 
C 109.196617 60.370628 100.899864 56.934 92.25 56.934 
C 83.600136 56.934 75.303383 60.370628 69.187005 66.487005 
C 63.070628 72.603383 59.634 80.900136 59.634 89.55 
C 59.634 98.199864 63.070628 106.496617 69.187005 112.612995 
C 75.303383 118.729372 83.600136 122.166 92.25 122.166 
z
" style="fill:#ffffff;stroke:#ffffff;stroke-linejoin:miter;"/>
   </g>
  </g>
 </g>
 <defs>
  <clipPath id="pd7307aa463">
   <rect height="135.9" width="135.9" x="24.3" y="21.6"/>
  </clipPath>
 </defs>
</svg>
