<?xml version="1.0" encoding="utf-8" standalone="no"?>
<!DOCTYPE svg PUBLIC "-//W3C//DTD SVG 1.1//EN"
  "http://www.w3.org/Graphics/SVG/1.1/DTD/svg11.dtd">
<!-- Created with matplotlib (https://matplotlib.org/) -->
<svg height="180pt" version="1.1" viewBox="0 0 180 180" width="180pt" xmlns="http://www.w3.org/2000/svg" xmlns:xlink="http://www.w3.org/1999/xlink">
 <defs>
  <style type="text/css">
*{stroke-linecap:butt;stroke-linejoin:round;}
  </style>
 </defs>
 <g id="figure_1">
  <g id="patch_1">
   <path d="M 0 180 
L 180 180 
L 180 0 
L 0 0 
z
" style="fill:#ffffff;"/>
  </g>
  <g id="axes_1">
   <g id="matplotlib.axis_1"/>
   <g id="matplotlib.axis_2"/>
   <g id="patch_2">
    <path d="M 146.61 89.55 
C 146.61 88.972037 146.600783 88.39411 146.582351 87.816441 
C 146.56392 87.238772 146.536277 86.661433 146.499432 86.084645 
L 92.25 89.55 
L 146.61 89.55 
z
" style="fill:#eac264;stroke:#ffffff;stroke-linejoin:miter;"/>
   </g>
   <g id="patch_3">
    <path d="M 146.499432 86.084645 
C 146.270599 82.5023 145.687488 78.951414 144.758645 75.484021 
C 143.829803 72.016628 142.559787 68.649749 140.96721 65.432723 
L 92.25 89.55 
L 146.499432 86.084645 
z
" style="fill:#a4b878;stroke:#ffffff;stroke-linejoin:miter;"/>
   </g>
   <g id="patch_4">
    <path d="M 140.96721 65.432723 
C 139.224822 61.913076 137.10613 58.592593 134.648266 55.529468 
C 132.190403 52.466343 129.407811 49.678575 126.349258 47.215024 
L 92.25 89.55 
L 140.96721 65.432723 
z
" style="fill:#9b8579;stroke:#ffffff;stroke-linejoin:miter;"/>
   </g>
   <g id="patch_5">
    <path d="M 126.349258 47.215024 
C 117.224698 39.865528 105.964064 35.659307 94.255698 35.227014 
C 82.547333 34.794721 71.007179 38.159098 61.365489 44.815711 
L 92.25 89.55 
L 126.349258 47.215024 
z
" style="stroke:#ffffff;stroke-linejoin:miter;"/>
   </g>
   <g id="patch_6">
    <path d="M 61.365489 44.815711 
C 49.900128 52.731386 41.905573 64.759666 39.046715 78.395624 
C 36.187858 92.031582 38.677957 106.25803 45.998443 118.112266 
L 92.25 89.55 
L 61.365489 44.815711 
z
" style="fill:#d56c55;stroke:#ffffff;stroke-linejoin:miter;"/>
   </g>
   <g id="patch_7">
    <path d="M 45.998443 118.112266 
C 52.212488 128.174817 61.543802 135.939743 72.568022 140.221781 
C 83.592243 144.503818 95.718375 145.073412 107.095444 141.843617 
C 118.472514 138.613822 128.49061 131.757785 135.620537 122.322032 
C 142.750464 112.88628 146.609996 101.376653 146.61 89.550018 
L 92.25 89.55 
L 45.998443 118.112266 
z
" style="fill:#738fc1;stroke:#ffffff;stroke-linejoin:miter;"/>
   </g>
   <g id="patch_8">
    <path clip-path="url(#p79cfb45795)" d="M 92.25 122.166 
C 100.899864 122.166 109.196617 118.729372 115.312995 112.612995 
C 121.429372 106.496617 124.866 98.199864 124.866 89.55 
C 124.866 80.900136 121.429372 72.603383 115.312995 66.487005 
C 109.196617 60.370628 100.899864 56.934 92.25 56.934 
C 83.600136 56.934 75.303383 60.370628 69.187005 66.487005 
C 63.070628 72.603383 59.634 80.900136 59.634 89.55 
C 59.634 98.199864 63.070628 106.496617 69.187005 112.612995 
C 75.303383 118.729372 83.600136 122.166 92.25 122.166 
z
" style="fill:#ffffff;stroke:#ffffff;stroke-linejoin:miter;"/>
   </g>
  </g>
 </g>
 <defs>
  <clipPath id="p79cfb45795">
   <rect height="135.9" width="135.9" x="24.3" y="21.6"/>
  </clipPath>
 </defs>
</svg>
