<?xml version="1.0" encoding="utf-8" standalone="no"?>
<!DOCTYPE svg PUBLIC "-//W3C//DTD SVG 1.1//EN"
  "http://www.w3.org/Graphics/SVG/1.1/DTD/svg11.dtd">
<!-- Created with matplotlib (https://matplotlib.org/) -->
<svg height="180pt" version="1.1" viewBox="0 0 180 180" width="180pt" xmlns="http://www.w3.org/2000/svg" xmlns:xlink="http://www.w3.org/1999/xlink">
 <defs>
  <style type="text/css">
*{stroke-linecap:butt;stroke-linejoin:round;}
  </style>
 </defs>
 <g id="figure_1">
  <g id="patch_1">
   <path d="M 0 180 
L 180 180 
L 180 0 
L 0 0 
z
" style="fill:#ffffff;"/>
  </g>
  <g id="axes_1">
   <g id="matplotlib.axis_1"/>
   <g id="matplotlib.axis_2"/>
   <g id="patch_2">
    <path d="M 146.61 89.55 
C 146.61 88.55194 146.582513 87.554069 146.527571 86.557522 
C 146.472628 85.560976 146.390251 84.566131 146.280533 83.57412 
L 92.25 89.55 
L 146.61 89.55 
z
" style="fill:#eac264;stroke:#ffffff;stroke-linejoin:miter;"/>
   </g>
   <g id="patch_3">
    <path d="M 146.280533 83.57412 
C 146.032867 81.33487 145.646236 79.11318 145.122875 76.921908 
C 144.599514 74.730637 143.940436 72.574018 143.149455 70.464532 
L 92.25 89.55 
L 146.280533 83.57412 
z
" style="fill:#a4b878;stroke:#ffffff;stroke-linejoin:miter;"/>
   </g>
   <g id="patch_4">
    <path d="M 143.149455 70.464532 
C 141.645063 66.452436 139.671559 62.632247 137.270076 59.083587 
C 134.868593 55.534926 132.055931 52.282621 128.890712 49.394455 
L 92.25 89.55 
L 143.149455 70.464532 
z
" style="fill:#9b8579;stroke:#ffffff;stroke-linejoin:miter;"/>
   </g>
   <g id="patch_5">
    <path d="M 128.890712 49.394455 
C 123.130638 44.138562 116.306535 40.183052 108.882898 37.797161 
C 101.459261 35.411271 93.608433 34.650391 85.864794 35.56631 
L 92.25 89.55 
L 128.890712 49.394455 
z
" style="stroke:#ffffff;stroke-linejoin:miter;"/>
   </g>
   <g id="patch_6">
    <path d="M 85.864794 35.56631 
C 77.290219 36.580514 69.079401 39.623205 61.914542 44.44158 
C 54.749683 49.259955 48.834866 55.716767 44.661526 63.275549 
L 92.25 89.55 
L 85.864794 35.56631 
z
" style="fill:#d56c55;stroke:#ffffff;stroke-linejoin:miter;"/>
   </g>
   <g id="patch_7">
    <path d="M 44.661526 63.275549 
C 40.652741 70.536291 38.358315 78.619097 37.954477 86.903156 
C 37.550639 95.187216 39.047998 103.454867 42.331548 111.071101 
C 45.615099 118.687335 50.598565 125.452038 56.899186 130.845636 
C 63.199807 136.239235 70.652035 140.120013 78.683491 142.189903 
C 86.714947 144.259794 95.114606 144.464409 103.237321 142.788035 
C 111.360036 141.111661 118.992384 137.598343 125.548152 132.517926 
C 132.10392 127.43751 137.410857 120.923482 141.061356 113.476161 
C 144.711854 106.02884 146.609999 97.843903 146.61 89.550006 
L 92.25 89.55 
L 44.661526 63.275549 
z
" style="fill:#738fc1;stroke:#ffffff;stroke-linejoin:miter;"/>
   </g>
   <g id="patch_8">
    <path clip-path="url(#p3a94f1e702)" d="M 92.25 122.166 
C 100.899864 122.166 109.196617 118.729372 115.312995 112.612995 
C 121.429372 106.496617 124.866 98.199864 124.866 89.55 
C 124.866 80.900136 121.429372 72.603383 115.312995 66.487005 
C 109.196617 60.370628 100.899864 56.934 92.25 56.934 
C 83.600136 56.934 75.303383 60.370628 69.187005 66.487005 
C 63.070628 72.603383 59.634 80.900136 59.634 89.55 
C 59.634 98.199864 63.070628 106.496617 69.187005 112.612995 
C 75.303383 118.729372 83.600136 122.166 92.25 122.166 
z
" style="fill:#ffffff;stroke:#ffffff;stroke-linejoin:miter;"/>
   </g>
  </g>
 </g>
 <defs>
  <clipPath id="p3a94f1e702">
   <rect height="135.9" width="135.9" x="24.3" y="21.6"/>
  </clipPath>
 </defs>
</svg>
