<?xml version="1.0" encoding="utf-8" standalone="no"?>
<!DOCTYPE svg PUBLIC "-//W3C//DTD SVG 1.1//EN"
  "http://www.w3.org/Graphics/SVG/1.1/DTD/svg11.dtd">
<!-- Created with matplotlib (https://matplotlib.org/) -->
<svg height="180pt" version="1.1" viewBox="0 0 180 180" width="180pt" xmlns="http://www.w3.org/2000/svg" xmlns:xlink="http://www.w3.org/1999/xlink">
 <defs>
  <style type="text/css">
*{stroke-linecap:butt;stroke-linejoin:round;}
  </style>
 </defs>
 <g id="figure_1">
  <g id="patch_1">
   <path d="M 0 180 
L 180 180 
L 180 0 
L 0 0 
z
" style="fill:#ffffff;"/>
  </g>
  <g id="axes_1">
   <g id="matplotlib.axis_1"/>
   <g id="matplotlib.axis_2"/>
   <g id="patch_2">
    <path d="M 146.61 89.55 
C 146.61 89.299006 146.608262 89.048015 146.604785 88.797045 
C 146.601308 88.546076 146.596094 88.295133 146.589141 88.044235 
L 92.25 89.55 
L 146.61 89.55 
z
" style="fill:#eac264;stroke:#ffffff;stroke-linejoin:miter;"/>
   </g>
   <g id="patch_3">
    <path d="M 146.589141 88.044235 
C 146.564748 87.163944 146.518967 86.284375 146.45184 85.406307 
C 146.384712 84.52824 146.296257 83.651933 146.186554 82.778164 
L 92.25 89.55 
L 146.589141 88.044235 
z
" style="fill:#9b8579;stroke:#ffffff;stroke-linejoin:miter;"/>
   </g>
   <g id="patch_4">
    <path d="M 146.186554 82.778164 
C 145.757665 79.362135 145.005217 75.994563 143.939357 72.720859 
C 142.873496 69.447154 141.499036 66.282099 139.83451 63.268371 
L 92.25 89.55 
L 146.186554 82.778164 
z
" style="fill:#a4b878;stroke:#ffffff;stroke-linejoin:miter;"/>
   </g>
   <g id="patch_5">
    <path d="M 139.83451 63.268371 
C 136.134234 56.568794 131.060451 50.725589 124.946109 46.122198 
C 118.831768 41.518806 111.813606 38.258175 104.352165 36.554272 
L 92.25 89.55 
L 139.83451 63.268371 
z
" style="fill:#d56c55;stroke:#ffffff;stroke-linejoin:miter;"/>
   </g>
   <g id="patch_6">
    <path d="M 104.352165 36.554272 
C 92.919267 33.943442 80.942795 35.101085 70.221609 39.853324 
C 59.500423 44.605563 50.599587 52.701929 44.856002 62.926353 
L 92.25 89.55 
L 104.352165 36.554272 
z
" style="stroke:#ffffff;stroke-linejoin:miter;"/>
   </g>
   <g id="patch_7">
    <path d="M 44.856002 62.926353 
C 40.785676 70.17213 38.430686 78.255758 37.97263 86.553892 
C 37.514573 94.852026 38.965535 103.145743 42.213629 110.795497 
C 45.461722 118.445251 50.421256 125.249224 56.709789 130.682749 
C 62.998323 136.116273 70.449951 140.036001 78.490063 142.139673 
C 86.530176 144.243346 94.946656 144.475463 103.090493 142.818127 
C 111.23433 141.16079 118.890671 137.657724 125.469119 132.579057 
C 132.047568 127.500389 137.37457 120.980107 141.039349 113.521003 
C 144.704129 106.061899 146.610001 97.86076 146.61 89.549993 
L 92.25 89.55 
L 44.856002 62.926353 
z
" style="fill:#738fc1;stroke:#ffffff;stroke-linejoin:miter;"/>
   </g>
   <g id="patch_8">
    <path clip-path="url(#p6fef79b99d)" d="M 92.25 122.166 
C 100.899864 122.166 109.196617 118.729372 115.312995 112.612995 
C 121.429372 106.496617 124.866 98.199864 124.866 89.55 
C 124.866 80.900136 121.429372 72.603383 115.312995 66.487005 
C 109.196617 60.370628 100.899864 56.934 92.25 56.934 
C 83.600136 56.934 75.303383 60.370628 69.187005 66.487005 
C 63.070628 72.603383 59.634 80.900136 59.634 89.55 
C 59.634 98.199864 63.070628 106.496617 69.187005 112.612995 
C 75.303383 118.729372 83.600136 122.166 92.25 122.166 
z
" style="fill:#ffffff;stroke:#ffffff;stroke-linejoin:miter;"/>
   </g>
  </g>
 </g>
 <defs>
  <clipPath id="p6fef79b99d">
   <rect height="135.9" width="135.9" x="24.3" y="21.6"/>
  </clipPath>
 </defs>
</svg>
