<?xml version="1.0" encoding="utf-8" standalone="no"?>
<!DOCTYPE svg PUBLIC "-//W3C//DTD SVG 1.1//EN"
  "http://www.w3.org/Graphics/SVG/1.1/DTD/svg11.dtd">
<!-- Created with matplotlib (https://matplotlib.org/) -->
<svg height="180pt" version="1.1" viewBox="0 0 180 180" width="180pt" xmlns="http://www.w3.org/2000/svg" xmlns:xlink="http://www.w3.org/1999/xlink">
 <defs>
  <style type="text/css">
*{stroke-linecap:butt;stroke-linejoin:round;}
  </style>
 </defs>
 <g id="figure_1">
  <g id="patch_1">
   <path d="M 0 180 
L 180 180 
L 180 0 
L 0 0 
z
" style="fill:#ffffff;"/>
  </g>
  <g id="axes_1">
   <g id="matplotlib.axis_1"/>
   <g id="matplotlib.axis_2"/>
   <g id="patch_2">
    <path d="M 146.61 89.55 
C 146.61 89.217209 146.606944 88.884425 146.600832 88.551691 
C 146.594721 88.218956 146.585554 87.886285 146.573333 87.553718 
L 92.25 89.55 
L 146.61 89.55 
z
" style="fill:#a4b878;stroke:#ffffff;stroke-linejoin:miter;"/>
   </g>
   <g id="patch_3">
    <path d="M 146.573333 87.553718 
C 146.555522 87.069047 146.531225 86.584635 146.50045 86.100614 
C 146.469675 85.616593 146.432423 85.133005 146.388705 84.649981 
L 92.25 89.55 
L 146.573333 87.553718 
z
" style="fill:#9b8579;stroke:#ffffff;stroke-linejoin:miter;"/>
   </g>
   <g id="patch_4">
    <path d="M 146.388705 84.649981 
C 145.453289 74.31487 141.577679 64.460576 135.222061 56.257185 
C 128.866443 48.053793 120.292737 41.839372 110.518974 38.351815 
L 92.25 89.55 
L 146.388705 84.649981 
z
" style="fill:#738fc1;stroke:#ffffff;stroke-linejoin:miter;"/>
   </g>
   <g id="patch_5">
    <path d="M 110.518974 38.351815 
C 100.511013 34.780688 89.672226 34.221193 79.349756 36.742867 
C 69.027286 39.264541 59.667272 44.758397 52.43306 52.54161 
C 45.198848 60.324824 40.403103 70.061001 38.641882 80.540043 
C 36.880662 91.019086 38.230086 101.788086 42.522438 111.508578 
L 92.25 89.55 
L 110.518974 38.351815 
z
" style="fill:#d56c55;stroke:#ffffff;stroke-linejoin:miter;"/>
   </g>
   <g id="patch_6">
    <path d="M 42.522438 111.508578 
C 47.557998 122.912145 56.366097 132.243716 67.460299 137.928511 
C 78.554501 143.613307 91.273528 145.312481 103.47094 142.739286 
C 115.668353 140.16609 126.617117 133.473901 134.46954 123.792079 
C 142.321964 114.110258 146.609997 102.015896 146.61 89.550014 
L 92.25 89.55 
L 42.522438 111.508578 
z
" style="stroke:#ffffff;stroke-linejoin:miter;"/>
   </g>
   <g id="patch_7">
    <path clip-path="url(#p879067dd9d)" d="M 92.25 122.166 
C 100.899864 122.166 109.196617 118.729372 115.312995 112.612995 
C 121.429372 106.496617 124.866 98.199864 124.866 89.55 
C 124.866 80.900136 121.429372 72.603383 115.312995 66.487005 
C 109.196617 60.370628 100.899864 56.934 92.25 56.934 
C 83.600136 56.934 75.303383 60.370628 69.187005 66.487005 
C 63.070628 72.603383 59.634 80.900136 59.634 89.55 
C 59.634 98.199864 63.070628 106.496617 69.187005 112.612995 
C 75.303383 118.729372 83.600136 122.166 92.25 122.166 
z
" style="fill:#ffffff;stroke:#ffffff;stroke-linejoin:miter;"/>
   </g>
  </g>
 </g>
 <defs>
  <clipPath id="p879067dd9d">
   <rect height="135.9" width="135.9" x="24.3" y="21.6"/>
  </clipPath>
 </defs>
</svg>
