<?xml version="1.0" encoding="utf-8" standalone="no"?>
<!DOCTYPE svg PUBLIC "-//W3C//DTD SVG 1.1//EN"
  "http://www.w3.org/Graphics/SVG/1.1/DTD/svg11.dtd">
<!-- Created with matplotlib (https://matplotlib.org/) -->
<svg height="180pt" version="1.1" viewBox="0 0 180 180" width="180pt" xmlns="http://www.w3.org/2000/svg" xmlns:xlink="http://www.w3.org/1999/xlink">
 <defs>
  <style type="text/css">
*{stroke-linecap:butt;stroke-linejoin:round;}
  </style>
 </defs>
 <g id="figure_1">
  <g id="patch_1">
   <path d="M 0 180 
L 180 180 
L 180 0 
L 0 0 
z
" style="fill:#ffffff;"/>
  </g>
  <g id="axes_1">
   <g id="matplotlib.axis_1"/>
   <g id="matplotlib.axis_2"/>
   <g id="patch_2">
    <path d="M 146.61 89.55 
C 146.61 89.316106 146.60849 89.082214 146.605471 88.848339 
C 146.602452 88.614465 146.597924 88.380612 146.591886 88.146796 
L 92.25 89.55 
L 146.61 89.55 
z
" style="fill:#ab85ac;stroke:#ffffff;stroke-linejoin:miter;"/>
   </g>
   <g id="patch_3">
    <path d="M 146.591886 88.146796 
C 146.583296 87.814116 146.571651 87.481522 146.556952 87.149056 
C 146.542254 86.81659 146.524503 86.484266 146.503701 86.152126 
L 92.25 89.55 
L 146.591886 88.146796 
z
" style="fill:#bfd598;stroke:#ffffff;stroke-linejoin:miter;"/>
   </g>
   <g id="patch_4">
    <path d="M 146.503701 86.152126 
C 146.473385 85.668075 146.436593 85.184453 146.393333 84.701387 
C 146.350074 84.218321 146.300352 83.735856 146.24418 83.254121 
L 92.25 89.55 
L 146.503701 86.152126 
z
" style="fill:#905426;stroke:#ffffff;stroke-linejoin:miter;"/>
   </g>
   <g id="patch_5">
    <path d="M 146.24418 83.254121 
C 145.042293 72.946601 140.913604 63.195632 134.348349 55.159033 
C 127.783093 47.122434 119.05183 41.131398 109.191298 37.897294 
L 92.25 89.55 
L 146.24418 83.254121 
z
" style="fill:#738fc1;stroke:#ffffff;stroke-linejoin:miter;"/>
   </g>
   <g id="patch_6">
    <path d="M 109.191298 37.897294 
C 99.207912 34.622896 88.486112 34.312038 78.329785 37.002524 
C 68.173458 39.69301 59.011703 45.271169 51.958686 53.058636 
C 44.905669 60.846104 40.259377 70.513864 38.584849 80.886215 
C 36.910321 91.258565 38.278304 101.897279 42.522437 111.508576 
L 92.25 89.55 
L 109.191298 37.897294 
z
" style="fill:#e8b19d;stroke:#ffffff;stroke-linejoin:miter;"/>
   </g>
   <g id="patch_7">
    <path d="M 42.522437 111.508576 
C 47.557996 122.912144 56.366096 132.243714 67.460298 137.92851 
C 78.554499 143.613306 91.273526 145.312481 103.470939 142.739286 
C 115.668351 140.166091 126.617116 133.473902 134.469539 123.792081 
C 142.321963 114.11026 146.609996 102.015898 146.61 89.550016 
L 92.25 89.55 
L 42.522437 111.508576 
z
" style="fill:#4b4b4b;stroke:#ffffff;stroke-linejoin:miter;"/>
   </g>
   <g id="patch_8">
    <path clip-path="url(#p6b81058694)" d="M 92.25 122.166 
C 100.899864 122.166 109.196617 118.729372 115.312995 112.612995 
C 121.429372 106.496617 124.866 98.199864 124.866 89.55 
C 124.866 80.900136 121.429372 72.603383 115.312995 66.487005 
C 109.196617 60.370628 100.899864 56.934 92.25 56.934 
C 83.600136 56.934 75.303383 60.370628 69.187005 66.487005 
C 63.070628 72.603383 59.634 80.900136 59.634 89.55 
C 59.634 98.199864 63.070628 106.496617 69.187005 112.612995 
C 75.303383 118.729372 83.600136 122.166 92.25 122.166 
z
" style="fill:#ffffff;stroke:#ffffff;stroke-linejoin:miter;"/>
   </g>
  </g>
 </g>
 <defs>
  <clipPath id="p6b81058694">
   <rect height="135.9" width="135.9" x="24.3" y="21.6"/>
  </clipPath>
 </defs>
</svg>
