<?xml version="1.0" encoding="utf-8" standalone="no"?>
<!DOCTYPE svg PUBLIC "-//W3C//DTD SVG 1.1//EN"
  "http://www.w3.org/Graphics/SVG/1.1/DTD/svg11.dtd">
<!-- Created with matplotlib (https://matplotlib.org/) -->
<svg height="180pt" version="1.1" viewBox="0 0 180 180" width="180pt" xmlns="http://www.w3.org/2000/svg" xmlns:xlink="http://www.w3.org/1999/xlink">
 <defs>
  <style type="text/css">
*{stroke-linecap:butt;stroke-linejoin:round;}
  </style>
 </defs>
 <g id="figure_1">
  <g id="patch_1">
   <path d="M 0 180 
L 180 180 
L 180 0 
L 0 0 
z
" style="fill:#ffffff;"/>
  </g>
  <g id="axes_1">
   <g id="matplotlib.axis_1"/>
   <g id="matplotlib.axis_2"/>
   <g id="patch_2">
    <path d="M 146.61 89.55 
C 146.61 88.843721 146.596235 88.137509 146.568714 87.431766 
C 146.541193 86.726023 146.49992 86.020884 146.444918 85.316749 
L 92.25 89.55 
L 146.61 89.55 
z
" style="fill:#7e9d90;stroke:#ffffff;stroke-linejoin:miter;"/>
   </g>
   <g id="patch_3">
    <path d="M 146.444918 85.316749 
C 146.380619 84.49357 146.297572 83.671962 146.195843 82.852566 
C 146.094114 82.033169 145.973729 81.216197 145.834782 80.402285 
L 92.25 89.55 
L 146.444918 85.316749 
z
" style="fill:#ab85ac;stroke:#ffffff;stroke-linejoin:miter;"/>
   </g>
   <g id="patch_4">
    <path d="M 145.834782 80.402285 
C 145.610547 79.088776 145.338091 77.783955 145.017966 76.490467 
C 144.697841 75.19698 144.330264 73.915701 143.91598 72.649226 
L 92.25 89.55 
L 145.834782 80.402285 
z
" style="fill:#bfd598;stroke:#ffffff;stroke-linejoin:miter;"/>
   </g>
   <g id="patch_5">
    <path d="M 143.91598 72.649226 
C 141.672754 65.791643 138.086511 59.448798 133.366846 53.991393 
C 128.647182 48.533988 122.887868 44.070454 116.425505 40.861659 
L 92.25 89.55 
L 143.91598 72.649226 
z
" style="fill:#905426;stroke:#ffffff;stroke-linejoin:miter;"/>
   </g>
   <g id="patch_6">
    <path d="M 116.425505 40.861659 
C 106.673419 36.019399 95.687833 34.216994 84.899729 35.689225 
C 74.111624 37.161456 64.010684 41.841497 55.912657 49.119725 
L 92.25 89.55 
L 116.425505 40.861659 
z
" style="fill:#e8b19d;stroke:#ffffff;stroke-linejoin:miter;"/>
   </g>
   <g id="patch_7">
    <path d="M 55.912657 49.119725 
C 46.543564 57.540345 40.386674 68.961368 38.501898 81.416663 
C 36.617123 93.871957 39.119201 106.603284 45.577398 117.41894 
L 92.25 89.55 
L 55.912657 49.119725 
z
" style="fill:#4b4b4b;stroke:#ffffff;stroke-linejoin:miter;"/>
   </g>
   <g id="patch_8">
    <path d="M 45.577398 117.41894 
C 51.676155 127.632636 60.962206 135.567366 72.002173 139.998341 
C 83.042139 144.429316 95.237175 145.116184 106.704876 141.952921 
C 118.172578 138.789659 128.290896 131.947852 135.497986 122.48359 
C 142.705076 113.019327 146.609999 101.445985 146.61 89.550003 
L 92.25 89.55 
L 45.577398 117.41894 
z
" style="fill:#738fc1;stroke:#ffffff;stroke-linejoin:miter;"/>
   </g>
   <g id="patch_9">
    <path clip-path="url(#p2b60b28c3d)" d="M 92.25 122.166 
C 100.899864 122.166 109.196617 118.729372 115.312995 112.612995 
C 121.429372 106.496617 124.866 98.199864 124.866 89.55 
C 124.866 80.900136 121.429372 72.603383 115.312995 66.487005 
C 109.196617 60.370628 100.899864 56.934 92.25 56.934 
C 83.600136 56.934 75.303383 60.370628 69.187005 66.487005 
C 63.070628 72.603383 59.634 80.900136 59.634 89.55 
C 59.634 98.199864 63.070628 106.496617 69.187005 112.612995 
C 75.303383 118.729372 83.600136 122.166 92.25 122.166 
z
" style="fill:#ffffff;stroke:#ffffff;stroke-linejoin:miter;"/>
   </g>
  </g>
 </g>
 <defs>
  <clipPath id="p2b60b28c3d">
   <rect height="135.9" width="135.9" x="24.3" y="21.6"/>
  </clipPath>
 </defs>
</svg>
