<?xml version="1.0" encoding="utf-8" standalone="no"?>
<!DOCTYPE svg PUBLIC "-//W3C//DTD SVG 1.1//EN"
  "http://www.w3.org/Graphics/SVG/1.1/DTD/svg11.dtd">
<!-- Created with matplotlib (https://matplotlib.org/) -->
<svg height="180pt" version="1.1" viewBox="0 0 180 180" width="180pt" xmlns="http://www.w3.org/2000/svg" xmlns:xlink="http://www.w3.org/1999/xlink">
 <defs>
  <style type="text/css">
*{stroke-linecap:butt;stroke-linejoin:round;}
  </style>
 </defs>
 <g id="figure_1">
  <g id="patch_1">
   <path d="M 0 180 
L 180 180 
L 180 0 
L 0 0 
z
" style="fill:#ffffff;"/>
  </g>
  <g id="axes_1">
   <g id="matplotlib.axis_1"/>
   <g id="matplotlib.axis_2"/>
   <g id="patch_2">
    <path d="M 146.61 89.55 
C 146.61 88.843721 146.596235 88.137509 146.568714 87.431766 
C 146.541193 86.726023 146.49992 86.020884 146.444918 85.316749 
L 92.25 89.55 
L 146.61 89.55 
z
" style="fill:#eac264;stroke:#ffffff;stroke-linejoin:miter;"/>
   </g>
   <g id="patch_3">
    <path d="M 146.444918 85.316749 
C 146.34115 83.988284 146.18857 82.664082 145.987488 81.346829 
C 145.786406 80.029576 145.536957 78.720162 145.239648 77.421241 
L 92.25 89.55 
L 146.444918 85.316749 
z
" style="fill:#a4b878;stroke:#ffffff;stroke-linejoin:miter;"/>
   </g>
   <g id="patch_4">
    <path d="M 145.239648 77.421241 
C 143.629808 70.387969 140.63568 63.745076 136.432253 57.880802 
C 132.228827 52.016528 126.899618 47.047387 120.756089 43.263798 
L 92.25 89.55 
L 145.239648 77.421241 
z
" style="fill:#9b8579;stroke:#ffffff;stroke-linejoin:miter;"/>
   </g>
   <g id="patch_5">
    <path d="M 120.756089 43.263798 
C 110.765514 37.110945 99.04641 34.355004 87.360715 35.410324 
C 75.675019 36.465645 64.639267 41.276547 55.912656 49.119726 
L 92.25 89.55 
L 120.756089 43.263798 
z
" style="fill:#d56c55;stroke:#ffffff;stroke-linejoin:miter;"/>
   </g>
   <g id="patch_6">
    <path d="M 55.912656 49.119726 
C 46.543563 57.540345 40.386674 68.961369 38.501898 81.416664 
C 36.617123 93.871958 39.119201 106.603285 45.577399 117.418941 
L 92.25 89.55 
L 55.912656 49.119726 
z
" style="stroke:#ffffff;stroke-linejoin:miter;"/>
   </g>
   <g id="patch_7">
    <path d="M 45.577399 117.418941 
C 51.676156 127.632636 60.962206 135.567366 72.002173 139.998341 
C 83.04214 144.429316 95.237176 145.116184 106.704877 141.952921 
C 118.172579 138.789658 128.290896 131.947851 135.497986 122.483589 
C 142.705076 113.019326 146.61 101.445985 146.61 89.550002 
L 92.25 89.55 
L 45.577399 117.418941 
z
" style="fill:#738fc1;stroke:#ffffff;stroke-linejoin:miter;"/>
   </g>
   <g id="patch_8">
    <path clip-path="url(#p11d373261e)" d="M 92.25 122.166 
C 100.899864 122.166 109.196617 118.729372 115.312995 112.612995 
C 121.429372 106.496617 124.866 98.199864 124.866 89.55 
C 124.866 80.900136 121.429372 72.603383 115.312995 66.487005 
C 109.196617 60.370628 100.899864 56.934 92.25 56.934 
C 83.600136 56.934 75.303383 60.370628 69.187005 66.487005 
C 63.070628 72.603383 59.634 80.900136 59.634 89.55 
C 59.634 98.199864 63.070628 106.496617 69.187005 112.612995 
C 75.303383 118.729372 83.600136 122.166 92.25 122.166 
z
" style="fill:#ffffff;stroke:#ffffff;stroke-linejoin:miter;"/>
   </g>
  </g>
 </g>
 <defs>
  <clipPath id="p11d373261e">
   <rect height="135.9" width="135.9" x="24.3" y="21.6"/>
  </clipPath>
 </defs>
</svg>
