<?xml version="1.0" encoding="utf-8" standalone="no"?>
<!DOCTYPE svg PUBLIC "-//W3C//DTD SVG 1.1//EN"
  "http://www.w3.org/Graphics/SVG/1.1/DTD/svg11.dtd">
<!-- Created with matplotlib (https://matplotlib.org/) -->
<svg height="180pt" version="1.1" viewBox="0 0 180 180" width="180pt" xmlns="http://www.w3.org/2000/svg" xmlns:xlink="http://www.w3.org/1999/xlink">
 <defs>
  <style type="text/css">
*{stroke-linecap:butt;stroke-linejoin:round;}
  </style>
 </defs>
 <g id="figure_1">
  <g id="patch_1">
   <path d="M 0 180 
L 180 180 
L 180 0 
L 0 0 
z
" style="fill:#ffffff;"/>
  </g>
  <g id="axes_1">
   <g id="matplotlib.axis_1"/>
   <g id="matplotlib.axis_2"/>
   <g id="patch_2">
    <path d="M 146.61 89.55 
C 146.61 89.330967 146.608676 89.111936 146.606029 88.892919 
C 146.603381 88.673902 146.59941 88.454902 146.594115 88.235933 
L 92.25 89.55 
L 146.61 89.55 
z
" style="fill:#7e9d90;stroke:#ffffff;stroke-linejoin:miter;"/>
   </g>
   <g id="patch_3">
    <path d="M 146.594115 88.235933 
C 146.575808 87.478822 146.54168 86.722177 146.491756 85.966492 
C 146.441831 85.210807 146.37612 84.456248 146.294665 83.703309 
L 92.25 89.55 
L 146.594115 88.235933 
z
" style="fill:#ab85ac;stroke:#ffffff;stroke-linejoin:miter;"/>
   </g>
   <g id="patch_4">
    <path d="M 146.294665 83.703309 
C 146.17287 82.577482 146.015926 81.455735 145.824062 80.339711 
C 145.632199 79.223686 145.40551 78.11393 145.144327 77.012065 
L 92.25 89.55 
L 146.294665 83.703309 
z
" style="fill:#905426;stroke:#ffffff;stroke-linejoin:miter;"/>
   </g>
   <g id="patch_5">
    <path d="M 145.144327 77.012065 
C 144.846079 75.753834 144.503031 74.506646 144.115836 73.27288 
C 143.728642 72.039115 143.297549 70.819558 142.823379 69.616537 
L 92.25 89.55 
L 145.144327 77.012065 
z
" style="fill:#e8b19d;stroke:#ffffff;stroke-linejoin:miter;"/>
   </g>
   <g id="patch_6">
    <path d="M 142.823379 69.616537 
C 141.662192 66.670479 140.245797 63.831511 138.590362 61.132039 
C 136.934926 58.432568 135.046773 55.882903 132.947455 53.512149 
L 92.25 89.55 
L 142.823379 69.616537 
z
" style="fill:#4b4b4b;stroke:#ffffff;stroke-linejoin:miter;"/>
   </g>
   <g id="patch_7">
    <path d="M 132.947455 53.512149 
C 124.683156 44.179297 113.454808 37.967382 101.157315 35.924732 
C 88.859822 33.882082 76.226196 36.130452 65.388496 42.290406 
L 92.25 89.55 
L 132.947455 53.512149 
z
" style="fill:#bfd598;stroke:#ffffff;stroke-linejoin:miter;"/>
   </g>
   <g id="patch_8">
    <path d="M 65.388496 42.290406 
C 57.079801 47.012919 50.161592 53.844089 45.334267 62.092331 
C 40.506942 70.340572 37.939096 79.717814 37.890697 89.274707 
C 37.842298 98.831601 40.315036 108.23437 45.058572 116.531081 
C 49.802108 124.827792 56.650773 131.728682 64.911211 136.535106 
C 73.171649 141.341531 82.555363 143.885625 92.112348 143.909826 
C 101.669333 143.934026 111.065811 141.437488 119.350485 136.67296 
C 127.635159 131.908431 134.518685 125.042315 139.304179 116.769733 
C 144.089672 108.497151 146.609998 99.107026 146.61 89.55001 
L 92.25 89.55 
L 65.388496 42.290406 
z
" style="fill:#738fc1;stroke:#ffffff;stroke-linejoin:miter;"/>
   </g>
   <g id="patch_9">
    <path clip-path="url(#p4235effea2)" d="M 92.25 122.166 
C 100.899864 122.166 109.196617 118.729372 115.312995 112.612995 
C 121.429372 106.496617 124.866 98.199864 124.866 89.55 
C 124.866 80.900136 121.429372 72.603383 115.312995 66.487005 
C 109.196617 60.370628 100.899864 56.934 92.25 56.934 
C 83.600136 56.934 75.303383 60.370628 69.187005 66.487005 
C 63.070628 72.603383 59.634 80.900136 59.634 89.55 
C 59.634 98.199864 63.070628 106.496617 69.187005 112.612995 
C 75.303383 118.729372 83.600136 122.166 92.25 122.166 
z
" style="fill:#ffffff;stroke:#ffffff;stroke-linejoin:miter;"/>
   </g>
  </g>
 </g>
 <defs>
  <clipPath id="p4235effea2">
   <rect height="135.9" width="135.9" x="24.3" y="21.6"/>
  </clipPath>
 </defs>
</svg>
