<?xml version="1.0" encoding="utf-8" standalone="no"?>
<!DOCTYPE svg PUBLIC "-//W3C//DTD SVG 1.1//EN"
  "http://www.w3.org/Graphics/SVG/1.1/DTD/svg11.dtd">
<!-- Created with matplotlib (https://matplotlib.org/) -->
<svg height="180pt" version="1.1" viewBox="0 0 180 180" width="180pt" xmlns="http://www.w3.org/2000/svg" xmlns:xlink="http://www.w3.org/1999/xlink">
 <defs>
  <style type="text/css">
*{stroke-linecap:butt;stroke-linejoin:round;}
  </style>
 </defs>
 <g id="figure_1">
  <g id="patch_1">
   <path d="M 0 180 
L 180 180 
L 180 0 
L 0 0 
z
" style="fill:#ffffff;"/>
  </g>
  <g id="axes_1">
   <g id="matplotlib.axis_1"/>
   <g id="matplotlib.axis_2"/>
   <g id="patch_2">
    <path d="M 146.61 89.55 
C 146.61 89.330967 146.608676 89.111936 146.606029 88.892919 
C 146.603381 88.673902 146.59941 88.454902 146.594115 88.235933 
L 92.25 89.55 
L 146.61 89.55 
z
" style="fill:#eac264;stroke:#ffffff;stroke-linejoin:miter;"/>
   </g>
   <g id="patch_3">
    <path d="M 146.594115 88.235933 
C 146.566741 87.103868 146.504 85.972934 146.405984 84.844787 
C 146.307967 83.716641 146.174724 82.591833 146.006448 81.472009 
L 92.25 89.55 
L 146.594115 88.235933 
z
" style="fill:#9b8579;stroke:#ffffff;stroke-linejoin:miter;"/>
   </g>
   <g id="patch_4">
    <path d="M 146.006448 81.472009 
C 145.701694 79.443969 145.282418 77.434799 144.750631 75.454136 
C 144.218844 73.473474 143.575398 71.524491 142.823379 69.616537 
L 92.25 89.55 
L 146.006448 81.472009 
z
" style="fill:#d56c55;stroke:#ffffff;stroke-linejoin:miter;"/>
   </g>
   <g id="patch_5">
    <path d="M 142.823379 69.616537 
C 141.662192 66.670478 140.245797 63.831511 138.590361 61.132039 
C 136.934926 58.432568 135.046773 55.882903 132.947455 53.512148 
L 92.25 89.55 
L 142.823379 69.616537 
z
" style="stroke:#ffffff;stroke-linejoin:miter;"/>
   </g>
   <g id="patch_6">
    <path d="M 132.947455 53.512148 
C 124.683156 44.179296 113.454808 37.967382 101.157315 35.924732 
C 88.859822 33.882082 76.226195 36.130453 65.388496 42.290406 
L 92.25 89.55 
L 132.947455 53.512148 
z
" style="fill:#bfd598;stroke:#ffffff;stroke-linejoin:miter;"/>
   </g>
   <g id="patch_7">
    <path d="M 65.388496 42.290406 
C 57.0798 47.01292 50.161592 53.84409 45.334267 62.092331 
C 40.506942 70.340573 37.939096 79.717814 37.890697 89.274708 
C 37.842298 98.831601 40.315036 108.23437 45.058572 116.531081 
C 49.802108 124.827792 56.650774 131.728682 64.911212 136.535107 
C 73.17165 141.341531 82.555363 143.885625 92.112348 143.909826 
C 101.669334 143.934026 111.065811 141.437488 119.350485 136.672959 
C 127.635159 131.908431 134.518686 125.042314 139.304179 116.769733 
C 144.089672 108.497151 146.609998 99.107026 146.61 89.55001 
L 92.25 89.55 
L 65.388496 42.290406 
z
" style="fill:#738fc1;stroke:#ffffff;stroke-linejoin:miter;"/>
   </g>
   <g id="patch_8">
    <path clip-path="url(#pddb7eef1a5)" d="M 92.25 122.166 
C 100.899864 122.166 109.196617 118.729372 115.312995 112.612995 
C 121.429372 106.496617 124.866 98.199864 124.866 89.55 
C 124.866 80.900136 121.429372 72.603383 115.312995 66.487005 
C 109.196617 60.370628 100.899864 56.934 92.25 56.934 
C 83.600136 56.934 75.303383 60.370628 69.187005 66.487005 
C 63.070628 72.603383 59.634 80.900136 59.634 89.55 
C 59.634 98.199864 63.070628 106.496617 69.187005 112.612995 
C 75.303383 118.729372 83.600136 122.166 92.25 122.166 
z
" style="fill:#ffffff;stroke:#ffffff;stroke-linejoin:miter;"/>
   </g>
  </g>
 </g>
 <defs>
  <clipPath id="pddb7eef1a5">
   <rect height="135.9" width="135.9" x="24.3" y="21.6"/>
  </clipPath>
 </defs>
</svg>
