<?xml version="1.0" encoding="utf-8" standalone="no"?>
<!DOCTYPE svg PUBLIC "-//W3C//DTD SVG 1.1//EN"
  "http://www.w3.org/Graphics/SVG/1.1/DTD/svg11.dtd">
<!-- Created with matplotlib (https://matplotlib.org/) -->
<svg height="180pt" version="1.1" viewBox="0 0 180 180" width="180pt" xmlns="http://www.w3.org/2000/svg" xmlns:xlink="http://www.w3.org/1999/xlink">
 <defs>
  <style type="text/css">
*{stroke-linecap:butt;stroke-linejoin:round;}
  </style>
 </defs>
 <g id="figure_1">
  <g id="patch_1">
   <path d="M 0 180 
L 180 180 
L 180 0 
L 0 0 
z
" style="fill:#ffffff;"/>
  </g>
  <g id="axes_1">
   <g id="matplotlib.axis_1"/>
   <g id="matplotlib.axis_2"/>
   <g id="patch_2">
    <path d="M 146.61 89.55 
C 146.61 86.417243 146.33919 83.290341 145.800595 80.20423 
C 145.262 77.118119 144.457633 74.084334 143.396482 71.136772 
L 92.25 89.55 
L 146.61 89.55 
z
" style="fill:#e8b19d;stroke:#ffffff;stroke-linejoin:miter;"/>
   </g>
   <g id="patch_3">
    <path d="M 143.396482 71.136772 
C 139.76509 61.049842 133.229622 52.259071 124.616367 45.87589 
C 116.003113 39.492709 105.691039 35.797965 94.983917 35.258792 
C 84.276796 34.719618 73.64572 37.359737 64.434794 42.845354 
C 55.223868 48.330972 47.838355 56.42073 43.212017 66.091829 
C 38.585678 75.762928 36.922066 86.589857 38.431511 97.20375 
C 39.940957 107.817644 44.557049 117.75151 51.696166 125.749394 
C 58.835284 133.747279 68.183319 139.45729 78.558386 142.157502 
C 88.933453 144.857714 99.879068 144.429323 110.011359 140.92649 
L 92.25 89.55 
L 143.396482 71.136772 
z
" style="fill:#738fc1;stroke:#ffffff;stroke-linejoin:miter;"/>
   </g>
   <g id="patch_4">
    <path d="M 110.011359 140.92649 
C 110.526231 140.748494 111.038398 140.562768 111.547687 140.369375 
C 112.056976 140.175982 112.563328 139.974945 113.066574 139.766331 
L 92.25 89.55 
L 110.011359 140.92649 
z
" style="fill:#bfd598;stroke:#ffffff;stroke-linejoin:miter;"/>
   </g>
   <g id="patch_5">
    <path d="M 113.066574 139.766331 
C 113.662375 139.519348 114.253733 139.261783 114.840367 138.993755 
C 115.427002 138.725727 116.00882 138.447281 116.585545 138.158547 
L 92.25 89.55 
L 113.066574 139.766331 
z
" style="fill:#ab85ac;stroke:#ffffff;stroke-linejoin:miter;"/>
   </g>
   <g id="patch_6">
    <path d="M 116.585545 138.158547 
C 124.150094 134.371406 130.727197 128.87022 135.79178 122.09417 
C 140.856362 115.318121 144.269962 107.452457 145.760061 99.125125 
L 92.25 89.55 
L 116.585545 138.158547 
z
" style="fill:#4b4b4b;stroke:#ffffff;stroke-linejoin:miter;"/>
   </g>
   <g id="patch_7">
    <path d="M 145.760061 99.125125 
C 146.007702 97.741197 146.201561 96.348182 146.341201 94.949223 
C 146.480841 93.550265 146.566156 92.146416 146.596955 90.740843 
L 92.25 89.55 
L 145.760061 99.125125 
z
" style="fill:#905426;stroke:#ffffff;stroke-linejoin:miter;"/>
   </g>
   <g id="patch_8">
    <path d="M 146.596955 90.740843 
C 146.601303 90.542396 146.604564 90.343928 146.606739 90.145446 
C 146.608913 89.946964 146.61 89.748471 146.61 89.549977 
L 92.25 89.55 
L 146.596955 90.740843 
z
" style="fill:#7e9d90;stroke:#ffffff;stroke-linejoin:miter;"/>
   </g>
   <g id="patch_9">
    <path clip-path="url(#p602e8bb6bf)" d="M 92.25 122.166 
C 100.899864 122.166 109.196617 118.729372 115.312995 112.612995 
C 121.429372 106.496617 124.866 98.199864 124.866 89.55 
C 124.866 80.900136 121.429372 72.603383 115.312995 66.487005 
C 109.196617 60.370628 100.899864 56.934 92.25 56.934 
C 83.600136 56.934 75.303383 60.370628 69.187005 66.487005 
C 63.070628 72.603383 59.634 80.900136 59.634 89.55 
C 59.634 98.199864 63.070628 106.496617 69.187005 112.612995 
C 75.303383 118.729372 83.600136 122.166 92.25 122.166 
z
" style="fill:#ffffff;stroke:#ffffff;stroke-linejoin:miter;"/>
   </g>
  </g>
 </g>
 <defs>
  <clipPath id="p602e8bb6bf">
   <rect height="135.9" width="135.9" x="24.3" y="21.6"/>
  </clipPath>
 </defs>
</svg>
