<?xml version="1.0" encoding="utf-8" standalone="no"?>
<!DOCTYPE svg PUBLIC "-//W3C//DTD SVG 1.1//EN"
  "http://www.w3.org/Graphics/SVG/1.1/DTD/svg11.dtd">
<svg xmlns:xlink="http://www.w3.org/1999/xlink" width="180pt" height="180pt" viewBox="0 0 180 180" xmlns="http://www.w3.org/2000/svg" version="1.1">
 <metadata>
  <rdf:RDF xmlns:dc="http://purl.org/dc/elements/1.1/" xmlns:cc="http://creativecommons.org/ns#" xmlns:rdf="http://www.w3.org/1999/02/22-rdf-syntax-ns#">
   <cc:Work>
    <dc:type rdf:resource="http://purl.org/dc/dcmitype/StillImage"/>
    <dc:date>2022-02-22T12:05:06.021431</dc:date>
    <dc:format>image/svg+xml</dc:format>
    <dc:creator>
     <cc:Agent>
      <dc:title>Matplotlib v3.5.0, https://matplotlib.org/</dc:title>
     </cc:Agent>
    </dc:creator>
   </cc:Work>
  </rdf:RDF>
 </metadata>
 <defs>
  <style type="text/css">*{stroke-linejoin: round; stroke-linecap: butt}</style>
 </defs>
 <g id="figure_1">
  <g id="patch_1">
   <path d="M 0 180 
L 180 180 
L 180 0 
L 0 0 
z
" style="fill: #ffffff"/>
  </g>
  <g id="axes_1">
   <g id="matplotlib.axis_1"/>
   <g id="matplotlib.axis_2"/>
   <g id="patch_2">
    <path d="M 146.61 89.55 
C 146.61 89.351309 146.608911 89.15262 146.606732 88.953941 
C 146.604553 88.755263 146.601285 88.556597 146.596928 88.357954 
L 92.25 89.55 
L 146.61 89.55 
z
" style="fill: #eac264; stroke: #ffffff; stroke-linejoin: miter"/>
   </g>
   <g id="patch_3">
    <path d="M 146.596928 88.357954 
C 146.584978 87.813126 146.564836 87.268509 146.536508 86.724286 
C 146.50818 86.180064 146.47167 85.636298 146.426991 85.093174 
L 92.25 89.55 
L 146.596928 88.357954 
z
" style="fill: #a4b878; stroke: #ffffff; stroke-linejoin: miter"/>
   </g>
   <g id="patch_4">
    <path d="M 146.426991 85.093174 
C 146.3115 83.689281 146.141485 82.290407 145.91733 80.899721 
C 145.693174 79.509035 145.415048 78.127587 145.083581 76.758506 
L 92.25 89.55 
L 146.426991 85.093174 
z
" style="fill: #9b8579; stroke: #ffffff; stroke-linejoin: miter"/>
   </g>
   <g id="patch_5">
    <path d="M 145.083581 76.758506 
C 144.191442 73.073643 142.916246 69.492202 141.278828 66.0727 
C 139.64141 62.653198 137.650738 59.414361 135.339336 56.409108 
L 92.25 89.55 
L 145.083581 76.758506 
z
" style="fill: #d56c55; stroke: #ffffff; stroke-linejoin: miter"/>
   </g>
   <g id="patch_6">
    <path d="M 135.339336 56.409108 
C 130.179269 49.70006 123.522903 44.287955 115.902168 40.605291 
C 108.281433 36.922627 99.904885 35.070188 91.44192 35.196007 
L 92.25 89.55 
L 135.339336 56.409108 
z
" style="stroke: #ffffff; stroke-linejoin: miter"/>
   </g>
   <g id="patch_7">
    <path d="M 91.44192 35.196007 
C 80.727387 35.355299 70.295445 38.679245 61.463843 44.747967 
C 52.632241 50.816689 45.78919 59.363424 41.799096 69.30856 
C 37.809002 79.253696 36.847256 90.160073 39.035347 100.650013 
C 41.223437 111.139954 46.465181 120.752349 54.098449 128.272974 
C 61.731716 135.7936 71.420971 140.891871 81.942279 142.923781 
C 92.463587 144.955691 103.354463 143.831922 113.239185 139.694429 
C 123.123907 135.556935 131.567971 128.587588 137.504736 119.666747 
C 143.441501 110.745906 146.610002 100.265705 146.61 89.549988 
L 92.25 89.55 
L 91.44192 35.196007 
z
" style="fill: #738fc1; stroke: #ffffff; stroke-linejoin: miter"/>
   </g>
   <g id="patch_8">
    <path d="M 92.25 122.166 
C 100.899864 122.166 109.196617 118.729372 115.312995 112.612995 
C 121.429372 106.496617 124.866 98.199864 124.866 89.55 
C 124.866 80.900136 121.429372 72.603383 115.312995 66.487005 
C 109.196617 60.370628 100.899864 56.934 92.25 56.934 
C 83.600136 56.934 75.303383 60.370628 69.187005 66.487005 
C 63.070628 72.603383 59.634 80.900136 59.634 89.55 
C 59.634 98.199864 63.070628 106.496617 69.187005 112.612995 
C 75.303383 118.729372 83.600136 122.166 92.25 122.166 
z
" clip-path="url(#pe7f3032e6e)" style="fill: #ffffff; stroke: #ffffff; stroke-linejoin: miter"/>
   </g>
  </g>
 </g>
 <defs>
  <clipPath id="pe7f3032e6e">
   <rect x="24.3" y="21.6" width="135.9" height="135.9"/>
  </clipPath>
 </defs>
</svg>
