<?xml version="1.0" encoding="utf-8" standalone="no"?>
<!DOCTYPE svg PUBLIC "-//W3C//DTD SVG 1.1//EN"
  "http://www.w3.org/Graphics/SVG/1.1/DTD/svg11.dtd">
<!-- Created with matplotlib (https://matplotlib.org/) -->
<svg height="180pt" version="1.1" viewBox="0 0 180 180" width="180pt" xmlns="http://www.w3.org/2000/svg" xmlns:xlink="http://www.w3.org/1999/xlink">
 <defs>
  <style type="text/css">
*{stroke-linecap:butt;stroke-linejoin:round;}
  </style>
 </defs>
 <g id="figure_1">
  <g id="patch_1">
   <path d="M 0 180 
L 180 180 
L 180 0 
L 0 0 
z
" style="fill:#ffffff;"/>
  </g>
  <g id="axes_1">
   <g id="matplotlib.axis_1"/>
   <g id="matplotlib.axis_2"/>
   <g id="patch_2">
    <path d="M 146.61 89.55 
C 146.61 89.214186 146.606888 88.878379 146.600665 88.542622 
C 146.594442 88.206866 146.585108 87.871174 146.572663 87.535591 
L 92.25 89.55 
L 146.61 89.55 
z
" style="fill:#eac264;stroke:#ffffff;stroke-linejoin:miter;"/>
   </g>
   <g id="patch_3">
    <path d="M 146.572663 87.535591 
C 146.48486 85.167786 146.242339 82.808253 145.846653 80.472093 
C 145.450967 78.135933 144.902962 75.828142 144.206145 73.563488 
L 92.25 89.55 
L 146.572663 87.535591 
z
" style="fill:#bfd598;stroke:#ffffff;stroke-linejoin:miter;"/>
   </g>
   <g id="patch_4">
    <path d="M 144.206145 73.563488 
C 143.041036 69.776883 141.465453 66.128971 139.507497 62.684807 
C 137.54954 59.240643 135.220918 56.020823 132.563157 53.082768 
L 92.25 89.55 
L 144.206145 73.563488 
z
" style="fill:#9b8579;stroke:#ffffff;stroke-linejoin:miter;"/>
   </g>
   <g id="patch_5">
    <path d="M 132.563157 53.082768 
C 128.173174 48.229807 122.94274 44.209196 117.124075 41.214816 
C 111.30541 38.220436 104.993572 36.301205 98.492928 35.549672 
L 92.25 89.55 
L 132.563157 53.082768 
z
" style="fill:#d56c55;stroke:#ffffff;stroke-linejoin:miter;"/>
   </g>
   <g id="patch_6">
    <path d="M 98.492928 35.549672 
C 87.471065 34.275444 76.318897 36.405718 66.542719 41.652763 
C 56.766542 46.899807 48.827255 55.01625 43.797197 64.905822 
L 92.25 89.55 
L 98.492928 35.549672 
z
" style="stroke:#ffffff;stroke-linejoin:miter;"/>
   </g>
   <g id="patch_7">
    <path d="M 43.797197 64.905822 
C 40.07245 72.22903 38.055975 80.302278 37.899819 88.516821 
C 37.743664 96.731365 39.451853 104.875417 42.895586 112.334896 
C 46.33932 119.794374 51.42981 126.376957 57.783221 131.586303 
C 64.136632 136.795648 71.58916 140.497448 79.578866 142.412576 
C 87.568572 144.327705 95.889464 144.406786 103.914126 142.643858 
C 111.938788 140.88093 119.460327 137.321444 125.911601 132.233794 
C 132.362874 127.146144 137.577555 120.6615 141.162443 113.268822 
C 144.747331 105.876143 146.61 97.766029 146.61 89.550001 
L 92.25 89.55 
L 43.797197 64.905822 
z
" style="fill:#738fc1;stroke:#ffffff;stroke-linejoin:miter;"/>
   </g>
   <g id="patch_8">
    <path clip-path="url(#p3bc4227b7e)" d="M 92.25 122.166 
C 100.899864 122.166 109.196617 118.729372 115.312995 112.612995 
C 121.429372 106.496617 124.866 98.199864 124.866 89.55 
C 124.866 80.900136 121.429372 72.603383 115.312995 66.487005 
C 109.196617 60.370628 100.899864 56.934 92.25 56.934 
C 83.600136 56.934 75.303383 60.370628 69.187005 66.487005 
C 63.070628 72.603383 59.634 80.900136 59.634 89.55 
C 59.634 98.199864 63.070628 106.496617 69.187005 112.612995 
C 75.303383 118.729372 83.600136 122.166 92.25 122.166 
z
" style="fill:#ffffff;stroke:#ffffff;stroke-linejoin:miter;"/>
   </g>
  </g>
 </g>
 <defs>
  <clipPath id="p3bc4227b7e">
   <rect height="135.9" width="135.9" x="24.3" y="21.6"/>
  </clipPath>
 </defs>
</svg>
