<?xml version="1.0" encoding="utf-8" standalone="no"?>
<!DOCTYPE svg PUBLIC "-//W3C//DTD SVG 1.1//EN"
  "http://www.w3.org/Graphics/SVG/1.1/DTD/svg11.dtd">
<!-- Created with matplotlib (https://matplotlib.org/) -->
<svg height="180pt" version="1.1" viewBox="0 0 180 180" width="180pt" xmlns="http://www.w3.org/2000/svg" xmlns:xlink="http://www.w3.org/1999/xlink">
 <defs>
  <style type="text/css">
*{stroke-linecap:butt;stroke-linejoin:round;}
  </style>
 </defs>
 <g id="figure_1">
  <g id="patch_1">
   <path d="M 0 180 
L 180 180 
L 180 0 
L 0 0 
z
" style="fill:#ffffff;"/>
  </g>
  <g id="axes_1">
   <g id="matplotlib.axis_1"/>
   <g id="matplotlib.axis_2"/>
   <g id="patch_2">
    <path d="M 146.61 89.55 
C 146.61 88.837521 146.595993 88.12511 146.567986 87.413182 
C 146.539979 86.701253 146.497979 85.989944 146.442009 85.279667 
L 92.25 89.55 
L 146.61 89.55 
z
" style="fill:#eac264;stroke:#ffffff;stroke-linejoin:miter;"/>
   </g>
   <g id="patch_3">
    <path d="M 146.442009 85.279667 
C 146.289777 83.347795 146.034352 81.425444 145.676826 79.520849 
C 145.3193 77.616255 144.860186 75.73214 144.301449 73.876576 
L 92.25 89.55 
L 146.442009 85.279667 
z
" style="fill:#a4b878;stroke:#ffffff;stroke-linejoin:miter;"/>
   </g>
   <g id="patch_4">
    <path d="M 144.301449 73.876576 
C 143.596159 71.534306 142.733572 69.24231 141.719571 67.016222 
C 140.705571 64.790134 139.542467 62.635026 138.238194 60.565597 
L 92.25 89.55 
L 144.301449 73.876576 
z
" style="fill:#9b8579;stroke:#ffffff;stroke-linejoin:miter;"/>
   </g>
   <g id="patch_5">
    <path d="M 138.238194 60.565597 
C 132.249297 51.063295 123.459983 43.646763 113.085681 39.341594 
C 102.711378 35.036426 91.2534 34.050658 80.296212 36.520607 
L 92.25 89.55 
L 138.238194 60.565597 
z
" style="stroke:#ffffff;stroke-linejoin:miter;"/>
   </g>
   <g id="patch_6">
    <path d="M 80.296212 36.520607 
C 68.335698 39.216724 57.632058 45.881583 49.93543 55.425422 
C 42.238803 64.969261 37.992858 76.841928 37.891845 89.102137 
L 92.25 89.55 
L 80.296212 36.520607 
z
" style="fill:#d56c55;stroke:#ffffff;stroke-linejoin:miter;"/>
   </g>
   <g id="patch_7">
    <path d="M 37.891845 89.102137 
C 37.832877 96.259225 39.187997 103.357997 41.879248 109.990082 
C 44.570499 116.622166 48.545267 122.657904 53.574895 127.750077 
C 58.604523 132.84225 64.59068 136.891303 71.189 139.664308 
C 77.78732 142.437313 84.868803 143.880055 92.026073 143.909539 
C 99.183343 143.939022 106.276472 142.55467 112.897414 139.83612 
C 119.518356 137.117571 125.537668 133.117972 130.609077 128.067409 
C 135.680487 123.016846 139.704846 117.01406 142.450645 110.404372 
C 145.196444 103.794684 146.610002 96.707318 146.61 89.549987 
L 92.25 89.55 
L 37.891845 89.102137 
z
" style="fill:#738fc1;stroke:#ffffff;stroke-linejoin:miter;"/>
   </g>
   <g id="patch_8">
    <path clip-path="url(#p28e15a0a9c)" d="M 92.25 122.166 
C 100.899864 122.166 109.196617 118.729372 115.312995 112.612995 
C 121.429372 106.496617 124.866 98.199864 124.866 89.55 
C 124.866 80.900136 121.429372 72.603383 115.312995 66.487005 
C 109.196617 60.370628 100.899864 56.934 92.25 56.934 
C 83.600136 56.934 75.303383 60.370628 69.187005 66.487005 
C 63.070628 72.603383 59.634 80.900136 59.634 89.55 
C 59.634 98.199864 63.070628 106.496617 69.187005 112.612995 
C 75.303383 118.729372 83.600136 122.166 92.25 122.166 
z
" style="fill:#ffffff;stroke:#ffffff;stroke-linejoin:miter;"/>
   </g>
  </g>
 </g>
 <defs>
  <clipPath id="p28e15a0a9c">
   <rect height="135.9" width="135.9" x="24.3" y="21.6"/>
  </clipPath>
 </defs>
</svg>
