<?xml version="1.0" encoding="utf-8" standalone="no"?>
<!DOCTYPE svg PUBLIC "-//W3C//DTD SVG 1.1//EN"
  "http://www.w3.org/Graphics/SVG/1.1/DTD/svg11.dtd">
<!-- Created with matplotlib (https://matplotlib.org/) -->
<svg height="180pt" version="1.1" viewBox="0 0 180 180" width="180pt" xmlns="http://www.w3.org/2000/svg" xmlns:xlink="http://www.w3.org/1999/xlink">
 <defs>
  <style type="text/css">
*{stroke-linecap:butt;stroke-linejoin:round;}
  </style>
 </defs>
 <g id="figure_1">
  <g id="patch_1">
   <path d="M 0 180 
L 180 180 
L 180 0 
L 0 0 
z
" style="fill:#ffffff;"/>
  </g>
  <g id="axes_1">
   <g id="matplotlib.axis_1"/>
   <g id="matplotlib.axis_2"/>
   <g id="patch_2">
    <path d="M 146.61 89.55 
C 146.61 89.239892 146.607346 88.92979 146.602039 88.619727 
C 146.596733 88.309665 146.588772 87.999653 146.57816 87.689727 
L 92.25 89.55 
L 146.61 89.55 
z
" style="fill:#eac264;stroke:#ffffff;stroke-linejoin:miter;"/>
   </g>
   <g id="patch_3">
    <path d="M 146.57816 87.689727 
C 146.469959 84.52979 146.086273 81.385309 145.431468 78.292068 
C 144.776663 75.198827 143.853232 72.168604 142.671684 69.235883 
L 92.25 89.55 
L 146.57816 87.689727 
z
" style="fill:#9b8579;stroke:#ffffff;stroke-linejoin:miter;"/>
   </g>
   <g id="patch_4">
    <path d="M 142.671684 69.235883 
C 141.044722 65.197598 138.938493 61.369352 136.398311 57.833502 
C 133.858129 54.297653 130.902339 51.079738 127.59453 48.248986 
L 92.25 89.55 
L 142.671684 69.235883 
z
" style="fill:#d56c55;stroke:#ffffff;stroke-linejoin:miter;"/>
   </g>
   <g id="patch_5">
    <path d="M 127.59453 48.248986 
C 123.355784 44.621557 118.583762 41.668189 113.446363 39.492795 
C 108.308965 37.3174 102.867157 35.945795 97.312405 35.426238 
L 92.25 89.55 
L 127.59453 48.248986 
z
" style="stroke:#ffffff;stroke-linejoin:miter;"/>
   </g>
   <g id="patch_6">
    <path d="M 97.312405 35.426238 
C 87.781645 34.534789 78.182389 36.176392 69.489492 40.184335 
C 60.796595 44.192278 53.314638 50.426129 47.803454 58.252809 
L 92.25 89.55 
L 97.312405 35.426238 
z
" style="fill:#bfd598;stroke:#ffffff;stroke-linejoin:miter;"/>
   </g>
   <g id="patch_7">
    <path d="M 47.803454 58.252809 
C 42.884251 65.23879 39.680701 73.287131 38.453572 81.742701 
C 37.226443 90.19827 38.009959 98.825241 40.740344 106.921382 
C 43.470728 115.017523 48.07183 122.357032 54.16912 128.342476 
C 60.266411 134.32792 67.689838 138.792365 75.835136 141.372407 
C 83.980434 143.952448 92.620432 144.576129 101.051836 143.192682 
C 109.483239 141.809234 117.470898 138.457243 124.364618 133.409559 
C 131.258339 128.361875 136.865855 121.759278 140.730718 114.139216 
C 144.595581 106.519155 146.609999 98.094154 146.61 89.550004 
L 92.25 89.55 
L 47.803454 58.252809 
z
" style="fill:#738fc1;stroke:#ffffff;stroke-linejoin:miter;"/>
   </g>
   <g id="patch_8">
    <path clip-path="url(#pf8b08ee851)" d="M 92.25 122.166 
C 100.899864 122.166 109.196617 118.729372 115.312995 112.612995 
C 121.429372 106.496617 124.866 98.199864 124.866 89.55 
C 124.866 80.900136 121.429372 72.603383 115.312995 66.487005 
C 109.196617 60.370628 100.899864 56.934 92.25 56.934 
C 83.600136 56.934 75.303383 60.370628 69.187005 66.487005 
C 63.070628 72.603383 59.634 80.900136 59.634 89.55 
C 59.634 98.199864 63.070628 106.496617 69.187005 112.612995 
C 75.303383 118.729372 83.600136 122.166 92.25 122.166 
z
" style="fill:#ffffff;stroke:#ffffff;stroke-linejoin:miter;"/>
   </g>
  </g>
 </g>
 <defs>
  <clipPath id="pf8b08ee851">
   <rect height="135.9" width="135.9" x="24.3" y="21.6"/>
  </clipPath>
 </defs>
</svg>
