<?xml version="1.0" encoding="utf-8" standalone="no"?>
<!DOCTYPE svg PUBLIC "-//W3C//DTD SVG 1.1//EN"
  "http://www.w3.org/Graphics/SVG/1.1/DTD/svg11.dtd">
<!-- Created with matplotlib (https://matplotlib.org/) -->
<svg height="180pt" version="1.1" viewBox="0 0 180 180" width="180pt" xmlns="http://www.w3.org/2000/svg" xmlns:xlink="http://www.w3.org/1999/xlink">
 <defs>
  <style type="text/css">
*{stroke-linecap:butt;stroke-linejoin:round;}
  </style>
 </defs>
 <g id="figure_1">
  <g id="patch_1">
   <path d="M 0 180 
L 180 180 
L 180 0 
L 0 0 
z
" style="fill:#ffffff;"/>
  </g>
  <g id="axes_1">
   <g id="matplotlib.axis_1"/>
   <g id="matplotlib.axis_2"/>
   <g id="patch_2">
    <path d="M 146.61 89.55 
C 146.61 87.742462 146.519846 85.936048 146.339873 84.137492 
C 146.1599 82.338935 145.890333 80.550474 145.532176 78.778775 
L 92.25 89.55 
L 146.61 89.55 
z
" style="fill:#7e9d90;stroke:#ffffff;stroke-linejoin:miter;"/>
   </g>
   <g id="patch_3">
    <path d="M 145.532176 78.778775 
C 144.994802 76.120538 144.259252 73.506239 143.331691 70.957784 
C 142.404129 68.409329 141.287153 65.933858 139.990124 63.552113 
L 92.25 89.55 
L 145.532176 78.778775 
z
" style="fill:#4b4b4b;stroke:#ffffff;stroke-linejoin:miter;"/>
   </g>
   <g id="patch_4">
    <path d="M 139.990124 63.552113 
C 136.608831 57.343018 132.048453 51.852802 126.565082 47.389773 
C 121.08171 42.926743 114.779943 39.576034 108.013661 37.525808 
L 92.25 89.55 
L 139.990124 63.552113 
z
" style="fill:#bfd598;stroke:#ffffff;stroke-linejoin:miter;"/>
   </g>
   <g id="patch_5">
    <path d="M 108.013661 37.525808 
C 101.247379 35.475581 94.145653 34.764946 87.107285 35.433809 
C 80.068917 36.102673 73.228168 38.138275 66.969186 41.426305 
L 92.25 89.55 
L 108.013661 37.525808 
z
" style="fill:#a9bfe3;stroke:#ffffff;stroke-linejoin:miter;"/>
   </g>
   <g id="patch_6">
    <path d="M 66.969186 41.426305 
C 56.644107 46.850377 48.333759 55.455994 43.273332 65.964081 
C 38.212904 76.472168 36.666179 88.334974 38.863051 99.7893 
L 92.25 89.55 
L 66.969186 41.426305 
z
" style="fill:#738fc1;stroke:#ffffff;stroke-linejoin:miter;"/>
   </g>
   <g id="patch_7">
    <path d="M 38.863051 99.7893 
C 41.269765 112.337727 48.025296 123.644581 57.934919 131.710228 
C 67.844543 139.775875 80.287486 144.095056 93.063196 143.903917 
L 92.25 89.55 
L 38.863051 99.7893 
z
" style="fill:#e8b19d;stroke:#ffffff;stroke-linejoin:miter;"/>
   </g>
   <g id="patch_8">
    <path d="M 93.063196 143.903917 
C 107.332653 143.69043 120.959371 137.86609 130.974766 127.699732 
C 140.990162 117.533374 146.610001 103.821052 146.61 89.549997 
L 92.25 89.55 
L 93.063196 143.903917 
z
" style="fill:#905426;stroke:#ffffff;stroke-linejoin:miter;"/>
   </g>
   <g id="patch_9">
    <path clip-path="url(#pf024c8d636)" d="M 92.25 122.166 
C 100.899864 122.166 109.196617 118.729372 115.312995 112.612995 
C 121.429372 106.496617 124.866 98.199864 124.866 89.55 
C 124.866 80.900136 121.429372 72.603383 115.312995 66.487005 
C 109.196617 60.370628 100.899864 56.934 92.25 56.934 
C 83.600136 56.934 75.303383 60.370628 69.187005 66.487005 
C 63.070628 72.603383 59.634 80.900136 59.634 89.55 
C 59.634 98.199864 63.070628 106.496617 69.187005 112.612995 
C 75.303383 118.729372 83.600136 122.166 92.25 122.166 
z
" style="fill:#ffffff;stroke:#ffffff;stroke-linejoin:miter;"/>
   </g>
  </g>
 </g>
 <defs>
  <clipPath id="pf024c8d636">
   <rect height="135.9" width="135.9" x="24.3" y="21.6"/>
  </clipPath>
 </defs>
</svg>
