<?xml version="1.0" encoding="utf-8" standalone="no"?>
<!DOCTYPE svg PUBLIC "-//W3C//DTD SVG 1.1//EN"
  "http://www.w3.org/Graphics/SVG/1.1/DTD/svg11.dtd">
<!-- Created with matplotlib (https://matplotlib.org/) -->
<svg height="180pt" version="1.1" viewBox="0 0 180 180" width="180pt" xmlns="http://www.w3.org/2000/svg" xmlns:xlink="http://www.w3.org/1999/xlink">
 <defs>
  <style type="text/css">
*{stroke-linecap:butt;stroke-linejoin:round;}
  </style>
 </defs>
 <g id="figure_1">
  <g id="patch_1">
   <path d="M 0 180 
L 180 180 
L 180 0 
L 0 0 
z
" style="fill:#ffffff;"/>
  </g>
  <g id="axes_1">
   <g id="matplotlib.axis_1"/>
   <g id="matplotlib.axis_2"/>
   <g id="patch_2">
    <path d="M 146.61 89.55 
C 146.61 88.835729 146.595922 88.121528 146.567775 87.407811 
C 146.539627 86.694095 146.497415 85.981003 146.441164 85.268951 
L 92.25 89.55 
L 146.61 89.55 
z
" style="fill:#7e9d90;stroke:#ffffff;stroke-linejoin:miter;"/>
   </g>
   <g id="patch_3">
    <path d="M 146.441164 85.268951 
C 146.369513 84.361964 146.275103 83.456919 146.158023 82.554672 
C 146.040944 81.652424 145.901232 80.753258 145.739019 79.858023 
L 92.25 89.55 
L 146.441164 85.268951 
z
" style="fill:#ab85ac;stroke:#ffffff;stroke-linejoin:miter;"/>
   </g>
   <g id="patch_4">
    <path d="M 145.739019 79.858023 
C 145.393524 77.951272 144.94632 76.064359 144.399322 74.205365 
C 143.852324 72.346371 143.206314 70.517955 142.464059 68.727948 
L 92.25 89.55 
L 145.739019 79.858023 
z
" style="fill:#bfd598;stroke:#ffffff;stroke-linejoin:miter;"/>
   </g>
   <g id="patch_5">
    <path d="M 142.464059 68.727948 
C 141.527115 66.468431 140.438728 64.274728 139.206322 62.161802 
C 137.973916 60.048875 136.600299 58.021539 135.094839 56.09362 
L 92.25 89.55 
L 142.464059 68.727948 
z
" style="fill:#905426;stroke:#ffffff;stroke-linejoin:miter;"/>
   </g>
   <g id="patch_6">
    <path d="M 135.094839 56.09362 
C 128.182145 47.241101 118.692824 40.744886 107.939023 37.50325 
C 97.185222 34.261614 85.686559 34.43119 75.033025 37.988528 
L 92.25 89.55 
L 135.094839 56.09362 
z
" style="fill:#4b4b4b;stroke:#ffffff;stroke-linejoin:miter;"/>
   </g>
   <g id="patch_7">
    <path d="M 75.033025 37.988528 
C 64.289001 41.576083 54.93033 48.433624 48.272267 57.5974 
C 41.614205 66.761177 37.983987 77.780801 37.8918 89.107588 
L 92.25 89.55 
L 75.033025 37.988528 
z
" style="fill:#e8b19d;stroke:#ffffff;stroke-linejoin:miter;"/>
   </g>
   <g id="patch_8">
    <path d="M 37.8918 89.107588 
C 37.833552 96.264452 39.189294 103.362864 41.881041 109.9945 
C 44.572788 116.626137 48.547918 122.661353 53.577767 127.752984 
C 58.607617 132.844616 64.593857 136.893125 71.192139 139.665627 
C 77.790421 142.43813 84.871754 143.880426 92.028796 143.90955 
C 99.185838 143.938674 106.278674 142.554056 112.899302 139.835345 
C 119.519929 137.116634 125.538919 133.116978 130.61004 128.06645 
C 135.681161 123.015922 139.705276 117.013257 142.450905 110.403747 
C 145.196534 103.794237 146.610001 96.707094 146.61 89.549992 
L 92.25 89.55 
L 37.8918 89.107588 
z
" style="fill:#738fc1;stroke:#ffffff;stroke-linejoin:miter;"/>
   </g>
   <g id="patch_9">
    <path clip-path="url(#peb17a5c0ea)" d="M 92.25 122.166 
C 100.899864 122.166 109.196617 118.729372 115.312995 112.612995 
C 121.429372 106.496617 124.866 98.199864 124.866 89.55 
C 124.866 80.900136 121.429372 72.603383 115.312995 66.487005 
C 109.196617 60.370628 100.899864 56.934 92.25 56.934 
C 83.600136 56.934 75.303383 60.370628 69.187005 66.487005 
C 63.070628 72.603383 59.634 80.900136 59.634 89.55 
C 59.634 98.199864 63.070628 106.496617 69.187005 112.612995 
C 75.303383 118.729372 83.600136 122.166 92.25 122.166 
z
" style="fill:#ffffff;stroke:#ffffff;stroke-linejoin:miter;"/>
   </g>
  </g>
 </g>
 <defs>
  <clipPath id="peb17a5c0ea">
   <rect height="135.9" width="135.9" x="24.3" y="21.6"/>
  </clipPath>
 </defs>
</svg>
