<?xml version="1.0" encoding="utf-8" standalone="no"?>
<!DOCTYPE svg PUBLIC "-//W3C//DTD SVG 1.1//EN"
  "http://www.w3.org/Graphics/SVG/1.1/DTD/svg11.dtd">
<!-- Created with matplotlib (https://matplotlib.org/) -->
<svg height="180pt" version="1.1" viewBox="0 0 180 180" width="180pt" xmlns="http://www.w3.org/2000/svg" xmlns:xlink="http://www.w3.org/1999/xlink">
 <defs>
  <style type="text/css">
*{stroke-linecap:butt;stroke-linejoin:round;}
  </style>
 </defs>
 <g id="figure_1">
  <g id="patch_1">
   <path d="M 0 180 
L 180 180 
L 180 0 
L 0 0 
z
" style="fill:#ffffff;"/>
  </g>
  <g id="axes_1">
   <g id="matplotlib.axis_1"/>
   <g id="matplotlib.axis_2"/>
   <g id="patch_2">
    <path d="M 146.61 89.55 
C 146.61 89.239892 146.607346 88.92979 146.602039 88.619727 
C 146.596733 88.309665 146.588772 87.999653 146.57816 87.689727 
L 92.25 89.55 
L 146.61 89.55 
z
" style="fill:#7e9d90;stroke:#ffffff;stroke-linejoin:miter;"/>
   </g>
   <g id="patch_3">
    <path d="M 146.57816 87.689727 
C 146.533361 86.381384 146.441314 85.075087 146.3022 83.77339 
C 146.163087 82.471693 145.976997 81.175446 145.744295 79.887184 
L 92.25 89.55 
L 146.57816 87.689727 
z
" style="fill:#ab85ac;stroke:#ffffff;stroke-linejoin:miter;"/>
   </g>
   <g id="patch_4">
    <path d="M 145.744295 79.887184 
C 145.203684 76.894309 144.412859 73.952075 143.380149 71.091468 
C 142.34744 68.230861 141.076483 65.461959 139.580665 62.813924 
L 92.25 89.55 
L 145.744295 79.887184 
z
" style="fill:#e8b19d;stroke:#ffffff;stroke-linejoin:miter;"/>
   </g>
   <g id="patch_5">
    <path d="M 139.580665 62.813924 
C 138.025591 60.060988 136.233295 57.448968 134.224174 55.007587 
C 132.215053 52.566205 129.996757 50.30476 127.594529 48.248985 
L 92.25 89.55 
L 139.580665 62.813924 
z
" style="fill:#905426;stroke:#ffffff;stroke-linejoin:miter;"/>
   </g>
   <g id="patch_6">
    <path d="M 127.594529 48.248985 
C 123.355783 44.621556 118.58376 41.668189 113.446362 39.492794 
C 108.308963 37.3174 102.867155 35.945795 97.312403 35.426237 
L 92.25 89.55 
L 127.594529 48.248985 
z
" style="fill:#4b4b4b;stroke:#ffffff;stroke-linejoin:miter;"/>
   </g>
   <g id="patch_7">
    <path d="M 97.312403 35.426237 
C 87.781643 34.534789 78.182387 36.176393 69.48949 40.184336 
C 60.796594 44.192279 53.314637 50.42613 47.803453 58.25281 
L 92.25 89.55 
L 97.312403 35.426237 
z
" style="fill:#bfd598;stroke:#ffffff;stroke-linejoin:miter;"/>
   </g>
   <g id="patch_8">
    <path d="M 47.803453 58.25281 
C 42.88425 65.238792 39.6807 73.287133 38.453572 81.742702 
C 37.226443 90.198272 38.00996 98.825243 40.740344 106.921384 
C 43.470729 115.017525 48.071831 122.357034 54.169122 128.342478 
C 60.266413 134.327921 67.68984 138.792366 75.835138 141.372407 
C 83.980436 143.952449 92.620434 144.576129 101.051837 143.192681 
C 109.483241 141.809234 117.470899 138.457242 124.36462 133.409558 
C 131.25834 128.361873 136.865856 121.759276 140.730719 114.139215 
C 144.595582 106.519154 146.61 98.094152 146.61 89.550002 
L 92.25 89.55 
L 47.803453 58.25281 
z
" style="fill:#738fc1;stroke:#ffffff;stroke-linejoin:miter;"/>
   </g>
   <g id="patch_9">
    <path clip-path="url(#p27322a4eca)" d="M 92.25 122.166 
C 100.899864 122.166 109.196617 118.729372 115.312995 112.612995 
C 121.429372 106.496617 124.866 98.199864 124.866 89.55 
C 124.866 80.900136 121.429372 72.603383 115.312995 66.487005 
C 109.196617 60.370628 100.899864 56.934 92.25 56.934 
C 83.600136 56.934 75.303383 60.370628 69.187005 66.487005 
C 63.070628 72.603383 59.634 80.900136 59.634 89.55 
C 59.634 98.199864 63.070628 106.496617 69.187005 112.612995 
C 75.303383 118.729372 83.600136 122.166 92.25 122.166 
z
" style="fill:#ffffff;stroke:#ffffff;stroke-linejoin:miter;"/>
   </g>
  </g>
 </g>
 <defs>
  <clipPath id="p27322a4eca">
   <rect height="135.9" width="135.9" x="24.3" y="21.6"/>
  </clipPath>
 </defs>
</svg>
