<?xml version="1.0" encoding="utf-8" standalone="no"?>
<!DOCTYPE svg PUBLIC "-//W3C//DTD SVG 1.1//EN"
  "http://www.w3.org/Graphics/SVG/1.1/DTD/svg11.dtd">
<!-- Created with matplotlib (https://matplotlib.org/) -->
<svg height="180pt" version="1.1" viewBox="0 0 180 180" width="180pt" xmlns="http://www.w3.org/2000/svg" xmlns:xlink="http://www.w3.org/1999/xlink">
 <defs>
  <style type="text/css">
*{stroke-linecap:butt;stroke-linejoin:round;}
  </style>
 </defs>
 <g id="figure_1">
  <g id="patch_1">
   <path d="M 0 180 
L 180 180 
L 180 0 
L 0 0 
z
" style="fill:#ffffff;"/>
  </g>
  <g id="axes_1">
   <g id="matplotlib.axis_1"/>
   <g id="matplotlib.axis_2"/>
   <g id="patch_2">
    <path d="M 146.61 89.55 
C 146.61 89.411356 146.60947 89.272713 146.608409 89.134073 
C 146.607348 88.995433 146.605757 88.856798 146.603635 88.718171 
L 92.25 89.55 
L 146.61 89.55 
z
" style="fill:#bfd598;stroke:#ffffff;stroke-linejoin:miter;"/>
   </g>
   <g id="patch_3">
    <path d="M 146.603635 88.718171 
C 146.595475 88.184979 146.57947 87.651936 146.555625 87.119215 
C 146.53178 86.586494 146.500097 86.054152 146.460587 85.522364 
L 92.25 89.55 
L 146.603635 88.718171 
z
" style="fill:#4b4b4b;stroke:#ffffff;stroke-linejoin:miter;"/>
   </g>
   <g id="patch_4">
    <path d="M 146.460587 85.522364 
C 146.419497 84.969303 146.369945 84.416903 146.31195 83.865358 
C 146.253955 83.313814 146.187523 82.763189 146.112677 82.213677 
L 92.25 89.55 
L 146.460587 85.522364 
z
" style="fill:#905426;stroke:#ffffff;stroke-linejoin:miter;"/>
   </g>
   <g id="patch_5">
    <path d="M 146.112677 82.213677 
C 146.037831 81.664165 145.95458 81.115831 145.862954 80.568867 
C 145.771328 80.021903 145.671337 79.476374 145.563016 78.93247 
L 92.25 89.55 
L 146.112677 82.213677 
z
" style="fill:#a9bfe3;stroke:#ffffff;stroke-linejoin:miter;"/>
   </g>
   <g id="patch_6">
    <path d="M 145.563016 78.93247 
C 144.70096 74.603891 143.314936 70.396366 141.435582 66.402902 
C 139.556228 62.409437 137.197494 58.659676 134.411521 55.236507 
L 92.25 89.55 
L 145.563016 78.93247 
z
" style="fill:#7e9d90;stroke:#ffffff;stroke-linejoin:miter;"/>
   </g>
   <g id="patch_7">
    <path d="M 134.411521 55.236507 
C 126.804144 45.889205 116.300093 39.332006 104.561519 36.602516 
C 92.822945 33.873025 80.503491 35.123229 69.552577 40.155298 
C 58.601663 45.187367 49.629072 53.721097 44.054618 64.406119 
C 38.480164 75.091142 36.614252 87.332478 38.752142 99.193071 
L 92.25 89.55 
L 134.411521 55.236507 
z
" style="fill:#e8b19d;stroke:#ffffff;stroke-linejoin:miter;"/>
   </g>
   <g id="patch_8">
    <path d="M 38.752142 99.193071 
C 41.160258 112.552825 48.487544 124.537699 59.280887 132.770911 
C 70.07423 141.004124 83.569633 144.902894 97.090754 143.694037 
C 110.611875 142.485179 123.201632 136.254262 132.363287 126.236971 
C 141.524941 116.219679 146.609993 103.125079 146.61 89.550027 
L 92.25 89.55 
L 38.752142 99.193071 
z
" style="fill:#738fc1;stroke:#ffffff;stroke-linejoin:miter;"/>
   </g>
   <g id="patch_9">
    <path clip-path="url(#p0f46952f4c)" d="M 92.25 122.166 
C 100.899864 122.166 109.196617 118.729372 115.312995 112.612995 
C 121.429372 106.496617 124.866 98.199864 124.866 89.55 
C 124.866 80.900136 121.429372 72.603383 115.312995 66.487005 
C 109.196617 60.370628 100.899864 56.934 92.25 56.934 
C 83.600136 56.934 75.303383 60.370628 69.187005 66.487005 
C 63.070628 72.603383 59.634 80.900136 59.634 89.55 
C 59.634 98.199864 63.070628 106.496617 69.187005 112.612995 
C 75.303383 118.729372 83.600136 122.166 92.25 122.166 
z
" style="fill:#ffffff;stroke:#ffffff;stroke-linejoin:miter;"/>
   </g>
  </g>
 </g>
 <defs>
  <clipPath id="p0f46952f4c">
   <rect height="135.9" width="135.9" x="24.3" y="21.6"/>
  </clipPath>
 </defs>
</svg>
