<?xml version="1.0" encoding="utf-8" standalone="no"?>
<!DOCTYPE svg PUBLIC "-//W3C//DTD SVG 1.1//EN"
  "http://www.w3.org/Graphics/SVG/1.1/DTD/svg11.dtd">
<!-- Created with matplotlib (https://matplotlib.org/) -->
<svg height="180pt" version="1.1" viewBox="0 0 180 180" width="180pt" xmlns="http://www.w3.org/2000/svg" xmlns:xlink="http://www.w3.org/1999/xlink">
 <defs>
  <style type="text/css">
*{stroke-linecap:butt;stroke-linejoin:round;}
  </style>
 </defs>
 <g id="figure_1">
  <g id="patch_1">
   <path d="M 0 180 
L 180 180 
L 180 0 
L 0 0 
z
" style="fill:#ffffff;"/>
  </g>
  <g id="axes_1">
   <g id="matplotlib.axis_1"/>
   <g id="matplotlib.axis_2"/>
   <g id="patch_2">
    <path d="M 146.61 89.55 
C 146.61 88.542058 146.581966 87.534311 146.525931 86.527928 
C 146.469896 85.521546 146.385881 84.516916 146.273984 83.515204 
L 92.25 89.55 
L 146.61 89.55 
z
" style="fill:#bfd598;stroke:#ffffff;stroke-linejoin:miter;"/>
   </g>
   <g id="patch_3">
    <path d="M 146.273984 83.515204 
C 146.137695 82.295133 145.960114 81.080029 145.741547 79.871982 
C 145.52298 78.663936 145.263552 77.46364 144.963709 76.27316 
L 92.25 89.55 
L 146.273984 83.515204 
z
" style="fill:#7e9d90;stroke:#ffffff;stroke-linejoin:miter;"/>
   </g>
   <g id="patch_4">
    <path d="M 144.963709 76.27316 
C 144.101459 72.849725 142.907759 69.518413 141.39953 66.326449 
C 139.891301 63.134486 138.075705 60.097025 135.978479 57.257126 
L 92.25 89.55 
L 144.963709 76.27316 
z
" style="fill:#a9bfe3;stroke:#ffffff;stroke-linejoin:miter;"/>
   </g>
   <g id="patch_5">
    <path d="M 135.978479 57.257126 
C 133.280659 53.60395 130.13565 50.303203 126.617025 47.432104 
C 123.098401 44.561005 119.233817 42.142119 115.113683 40.232036 
L 92.25 89.55 
L 135.978479 57.257126 
z
" style="fill:#905426;stroke:#ffffff;stroke-linejoin:miter;"/>
   </g>
   <g id="patch_6">
    <path d="M 115.113683 40.232036 
C 106.71639 36.339072 97.462326 34.654545 88.231854 35.338709 
C 79.001381 36.022872 70.096792 39.05332 62.365201 44.141758 
L 92.25 89.55 
L 115.113683 40.232036 
z
" style="fill:#4b4b4b;stroke:#ffffff;stroke-linejoin:miter;"/>
   </g>
   <g id="patch_7">
    <path d="M 62.365201 44.141758 
C 55.777073 48.477643 50.210803 54.195809 46.053818 60.898257 
C 41.896834 67.600705 39.24787 75.128239 38.291303 82.956924 
C 37.334736 90.785609 38.093285 98.729499 40.514154 106.235678 
C 42.935023 113.741857 46.96071 120.632039 52.311019 126.426651 
L 92.25 89.55 
L 62.365201 44.141758 
z
" style="fill:#738fc1;stroke:#ffffff;stroke-linejoin:miter;"/>
   </g>
   <g id="patch_8">
    <path d="M 52.311019 126.426651 
C 59.728767 134.460388 69.400702 140.072105 80.056599 142.524811 
C 90.712496 144.977517 101.864518 144.158924 112.04806 140.176539 
C 122.231602 136.194154 130.98045 129.230294 137.145611 120.19953 
C 143.310772 111.168766 146.609999 100.484536 146.61 89.550007 
L 92.25 89.55 
L 52.311019 126.426651 
z
" style="fill:#e8b19d;stroke:#ffffff;stroke-linejoin:miter;"/>
   </g>
   <g id="patch_9">
    <path clip-path="url(#p95e71dff89)" d="M 92.25 122.166 
C 100.899864 122.166 109.196617 118.729372 115.312995 112.612995 
C 121.429372 106.496617 124.866 98.199864 124.866 89.55 
C 124.866 80.900136 121.429372 72.603383 115.312995 66.487005 
C 109.196617 60.370628 100.899864 56.934 92.25 56.934 
C 83.600136 56.934 75.303383 60.370628 69.187005 66.487005 
C 63.070628 72.603383 59.634 80.900136 59.634 89.55 
C 59.634 98.199864 63.070628 106.496617 69.187005 112.612995 
C 75.303383 118.729372 83.600136 122.166 92.25 122.166 
z
" style="fill:#ffffff;stroke:#ffffff;stroke-linejoin:miter;"/>
   </g>
  </g>
 </g>
 <defs>
  <clipPath id="p95e71dff89">
   <rect height="135.9" width="135.9" x="24.3" y="21.6"/>
  </clipPath>
 </defs>
</svg>
