<?xml version="1.0" encoding="utf-8" standalone="no"?>
<!DOCTYPE svg PUBLIC "-//W3C//DTD SVG 1.1//EN"
  "http://www.w3.org/Graphics/SVG/1.1/DTD/svg11.dtd">
<!-- Created with matplotlib (https://matplotlib.org/) -->
<svg height="180pt" version="1.1" viewBox="0 0 180 180" width="180pt" xmlns="http://www.w3.org/2000/svg" xmlns:xlink="http://www.w3.org/1999/xlink">
 <defs>
  <style type="text/css">
*{stroke-linecap:butt;stroke-linejoin:round;}
  </style>
 </defs>
 <g id="figure_1">
  <g id="patch_1">
   <path d="M 0 180 
L 180 180 
L 180 0 
L 0 0 
z
" style="fill:#ffffff;"/>
  </g>
  <g id="axes_1">
   <g id="matplotlib.axis_1"/>
   <g id="matplotlib.axis_2"/>
   <g id="patch_2">
    <path d="M 146.61 89.55 
C 146.61 89.484523 146.609882 89.419046 146.609645 89.35357 
C 146.609408 89.288093 146.609054 89.222617 146.60858 89.157142 
L 92.25 89.55 
L 146.61 89.55 
z
" style="fill:#4b4b4b;stroke:#ffffff;stroke-linejoin:miter;"/>
   </g>
   <g id="patch_3">
    <path d="M 146.60858 89.157142 
C 146.604542 88.598409 146.59189 88.039771 146.570628 87.481428 
C 146.549366 86.923085 146.519496 86.365103 146.48103 85.807681 
L 92.25 89.55 
L 146.60858 89.157142 
z
" style="fill:#738fc1;stroke:#ffffff;stroke-linejoin:miter;"/>
   </g>
   <g id="patch_4">
    <path d="M 146.48103 85.807681 
C 146.438958 85.197998 146.386607 84.589069 146.324 83.981151 
C 146.261394 83.373234 146.18854 82.766415 146.10547 82.160955 
L 92.25 89.55 
L 146.48103 85.807681 
z
" style="fill:#e8b19d;stroke:#ffffff;stroke-linejoin:miter;"/>
   </g>
   <g id="patch_5">
    <path d="M 146.10547 82.160955 
C 145.986795 81.29599 145.8473 80.434009 145.687105 79.575764 
C 145.52691 78.717518 145.346063 77.863256 145.144719 77.013722 
L 92.25 89.55 
L 146.10547 82.160955 
z
" style="fill:#7e9d90;stroke:#ffffff;stroke-linejoin:miter;"/>
   </g>
   <g id="patch_6">
    <path d="M 145.144719 77.013722 
C 143.569711 70.368238 140.756349 64.078706 136.852217 58.47506 
C 132.948084 52.871414 128.022662 48.053382 122.334328 44.273706 
L 92.25 89.55 
L 145.144719 77.013722 
z
" style="fill:#a9bfe3;stroke:#ffffff;stroke-linejoin:miter;"/>
   </g>
   <g id="patch_7">
    <path d="M 122.334328 44.273706 
C 115.499584 39.732286 107.724398 36.796888 99.593635 35.68832 
C 91.462873 34.579751 83.18565 35.326524 75.384599 37.872463 
C 67.583547 40.418402 60.459301 44.698029 54.547763 50.389421 
C 48.636226 56.080813 44.089435 63.037592 41.249411 70.736454 
L 92.25 89.55 
L 122.334328 44.273706 
z
" style="fill:#905426;stroke:#ffffff;stroke-linejoin:miter;"/>
   </g>
   <g id="patch_8">
    <path d="M 41.249411 70.736454 
C 38.498845 78.192809 37.416644 86.162447 38.07927 94.08228 
C 38.741895 102.002114 41.133365 109.681121 45.084712 116.57675 
C 49.036059 123.472378 54.451979 129.418309 60.949815 133.994438 
C 67.447652 138.570567 74.870681 141.66652 82.694434 143.063557 
C 90.518188 144.460593 98.553963 144.125017 106.233998 142.080538 
C 113.914033 140.036059 121.053091 136.331988 127.146767 131.230034 
C 133.240444 126.12808 138.141764 119.751298 141.504429 112.550234 
C 144.867095 105.349171 146.609999 97.49751 146.61 89.550005 
L 92.25 89.55 
L 41.249411 70.736454 
z
" style="fill:#bfd598;stroke:#ffffff;stroke-linejoin:miter;"/>
   </g>
   <g id="patch_9">
    <path clip-path="url(#pe646a8b8fc)" d="M 92.25 122.166 
C 100.899864 122.166 109.196617 118.729372 115.312995 112.612995 
C 121.429372 106.496617 124.866 98.199864 124.866 89.55 
C 124.866 80.900136 121.429372 72.603383 115.312995 66.487005 
C 109.196617 60.370628 100.899864 56.934 92.25 56.934 
C 83.600136 56.934 75.303383 60.370628 69.187005 66.487005 
C 63.070628 72.603383 59.634 80.900136 59.634 89.55 
C 59.634 98.199864 63.070628 106.496617 69.187005 112.612995 
C 75.303383 118.729372 83.600136 122.166 92.25 122.166 
z
" style="fill:#ffffff;stroke:#ffffff;stroke-linejoin:miter;"/>
   </g>
  </g>
 </g>
 <defs>
  <clipPath id="pe646a8b8fc">
   <rect height="135.9" width="135.9" x="24.3" y="21.6"/>
  </clipPath>
 </defs>
</svg>
