<?xml version="1.0" encoding="utf-8" standalone="no"?>
<!DOCTYPE svg PUBLIC "-//W3C//DTD SVG 1.1//EN"
  "http://www.w3.org/Graphics/SVG/1.1/DTD/svg11.dtd">
<!-- Created with matplotlib (https://matplotlib.org/) -->
<svg height="180pt" version="1.1" viewBox="0 0 180 180" width="180pt" xmlns="http://www.w3.org/2000/svg" xmlns:xlink="http://www.w3.org/1999/xlink">
 <defs>
  <style type="text/css">
*{stroke-linecap:butt;stroke-linejoin:round;}
  </style>
 </defs>
 <g id="figure_1">
  <g id="patch_1">
   <path d="M 0 180 
L 180 180 
L 180 0 
L 0 0 
z
" style="fill:#ffffff;"/>
  </g>
  <g id="axes_1">
   <g id="matplotlib.axis_1"/>
   <g id="matplotlib.axis_2"/>
   <g id="patch_2">
    <path d="M 146.61 89.55 
C 146.61 89.55 146.61 89.55 146.61 89.55 
L 92.25 89.55 
L 146.61 89.55 
z
" style="fill:#4b4b4b;stroke:#ffffff;stroke-linejoin:miter;"/>
   </g>
   <g id="patch_3">
    <path d="M 146.61 89.55 
C 146.61 88.980513 146.601051 88.411061 146.583156 87.841854 
C 146.565261 87.272648 146.538423 86.703759 146.50265 86.135396 
L 92.25 89.55 
L 146.61 89.55 
z
" style="fill:#bfd598;stroke:#ffffff;stroke-linejoin:miter;"/>
   </g>
   <g id="patch_4">
    <path d="M 146.50265 86.135396 
C 146.465961 85.552459 146.419879 84.970152 146.364421 84.3887 
C 146.308964 83.807249 146.244139 83.226729 146.169971 82.647367 
L 92.25 89.55 
L 146.50265 86.135396 
z
" style="fill:#7e9d90;stroke:#ffffff;stroke-linejoin:miter;"/>
   </g>
   <g id="patch_5">
    <path d="M 146.169971 82.647367 
C 146.051298 81.720356 145.908739 80.79656 145.742436 79.876899 
C 145.576133 78.957239 145.386141 78.04202 145.172649 77.132156 
L 92.25 89.55 
L 146.169971 82.647367 
z
" style="fill:#738fc1;stroke:#ffffff;stroke-linejoin:miter;"/>
   </g>
   <g id="patch_6">
    <path d="M 145.172649 77.132156 
C 144.939139 76.136981 144.677606 75.14859 144.388361 74.168163 
C 144.099116 73.187736 143.782274 72.215663 143.438213 71.253103 
L 92.25 89.55 
L 145.172649 77.132156 
z
" style="fill:#e8b19d;stroke:#ffffff;stroke-linejoin:miter;"/>
   </g>
   <g id="patch_7">
    <path d="M 143.438213 71.253103 
C 140.501201 63.036388 135.628496 55.646371 129.233363 49.709814 
C 122.83823 43.773257 115.106723 39.462873 106.694567 37.144236 
C 98.282412 34.825599 89.434344 34.566165 80.900788 36.387937 
C 72.367232 38.209708 64.396454 42.059685 57.664475 47.611342 
L 92.25 89.55 
L 143.438213 71.253103 
z
" style="fill:#a9bfe3;stroke:#ffffff;stroke-linejoin:miter;"/>
   </g>
   <g id="patch_8">
    <path d="M 57.664475 47.611342 
C 50.598063 53.438795 45.117788 60.958784 41.734487 69.470345 
C 38.351186 77.981906 37.173352 87.212093 38.310775 96.300529 
C 39.448199 105.388965 42.864406 114.044205 48.240959 121.459464 
C 53.617512 128.874723 60.781999 134.812213 69.066592 138.718478 
C 77.351186 142.624743 86.490219 144.374519 95.631811 143.804704 
C 104.773404 143.234889 113.624406 140.363756 121.359785 135.458932 
C 129.095165 130.554107 135.466867 123.772879 139.880963 115.747347 
C 144.295058 107.721816 146.609999 98.709341 146.61 89.550007 
L 92.25 89.55 
L 57.664475 47.611342 
z
" style="fill:#905426;stroke:#ffffff;stroke-linejoin:miter;"/>
   </g>
   <g id="patch_9">
    <path clip-path="url(#pf9c34904d0)" d="M 92.25 122.166 
C 100.899864 122.166 109.196617 118.729372 115.312995 112.612995 
C 121.429372 106.496617 124.866 98.199864 124.866 89.55 
C 124.866 80.900136 121.429372 72.603383 115.312995 66.487005 
C 109.196617 60.370628 100.899864 56.934 92.25 56.934 
C 83.600136 56.934 75.303383 60.370628 69.187005 66.487005 
C 63.070628 72.603383 59.634 80.900136 59.634 89.55 
C 59.634 98.199864 63.070628 106.496617 69.187005 112.612995 
C 75.303383 118.729372 83.600136 122.166 92.25 122.166 
z
" style="fill:#ffffff;stroke:#ffffff;stroke-linejoin:miter;"/>
   </g>
  </g>
 </g>
 <defs>
  <clipPath id="pf9c34904d0">
   <rect height="135.9" width="135.9" x="24.3" y="21.6"/>
  </clipPath>
 </defs>
</svg>
