<?xml version="1.0" encoding="utf-8" standalone="no"?>
<!DOCTYPE svg PUBLIC "-//W3C//DTD SVG 1.1//EN"
  "http://www.w3.org/Graphics/SVG/1.1/DTD/svg11.dtd">
<!-- Created with matplotlib (https://matplotlib.org/) -->
<svg height="180pt" version="1.1" viewBox="0 0 180 180" width="180pt" xmlns="http://www.w3.org/2000/svg" xmlns:xlink="http://www.w3.org/1999/xlink">
 <defs>
  <style type="text/css">
*{stroke-linecap:butt;stroke-linejoin:round;}
  </style>
 </defs>
 <g id="figure_1">
  <g id="patch_1">
   <path d="M 0 180 
L 180 180 
L 180 0 
L 0 0 
z
" style="fill:#ffffff;"/>
  </g>
  <g id="axes_1">
   <g id="matplotlib.axis_1"/>
   <g id="matplotlib.axis_2"/>
   <g id="patch_2">
    <path d="M 146.61 89.55 
C 146.61 89.55 146.61 89.55 146.61 89.55 
L 92.25 89.55 
L 146.61 89.55 
z
" style="fill:#4b4b4b;stroke:#ffffff;stroke-linejoin:miter;"/>
   </g>
   <g id="patch_3">
    <path d="M 146.61 89.55 
C 146.61 88.20726 146.56025 86.864981 146.460852 85.525925 
C 146.361453 84.186869 146.212475 82.851956 146.014224 81.523932 
L 92.25 89.55 
L 146.61 89.55 
z
" style="fill:#7e9d90;stroke:#ffffff;stroke-linejoin:miter;"/>
   </g>
   <g id="patch_4">
    <path d="M 146.014224 81.523932 
C 145.379152 77.269772 144.241395 73.105983 142.624847 69.120012 
C 141.008299 65.13404 138.924357 61.353986 136.416786 57.859235 
L 92.25 89.55 
L 146.014224 81.523932 
z
" style="fill:#738fc1;stroke:#ffffff;stroke-linejoin:miter;"/>
   </g>
   <g id="patch_5">
    <path d="M 136.416786 57.859235 
C 133.358954 53.597596 129.700351 49.800878 125.554894 46.5873 
C 121.409437 43.373721 116.820603 40.776985 111.931273 38.877946 
L 92.25 89.55 
L 136.416786 57.859235 
z
" style="fill:#bfd598;stroke:#ffffff;stroke-linejoin:miter;"/>
   </g>
   <g id="patch_6">
    <path d="M 111.931273 38.877946 
C 103.121966 35.456368 93.570808 34.390448 84.22393 35.785776 
C 74.877051 37.181104 66.053623 40.990032 58.627689 46.83525 
L 92.25 89.55 
L 111.931273 38.877946 
z
" style="fill:#e8b19d;stroke:#ffffff;stroke-linejoin:miter;"/>
   </g>
   <g id="patch_7">
    <path d="M 58.627689 46.83525 
C 50.34209 53.357143 44.130419 62.151063 40.753338 72.140136 
C 37.376257 82.129208 36.977481 92.888338 39.605844 103.099996 
L 92.25 89.55 
L 58.627689 46.83525 
z
" style="fill:#905426;stroke:#ffffff;stroke-linejoin:miter;"/>
   </g>
   <g id="patch_8">
    <path d="M 39.605844 103.099996 
C 42.903809 115.913181 50.768894 127.091734 61.715145 134.523684 
C 72.661396 141.955634 85.953121 145.141485 99.079109 143.479332 
C 112.205096 141.817179 124.283155 135.418735 133.031373 125.492861 
C 141.77959 115.566986 146.610004 102.780794 146.61 89.549985 
L 92.25 89.55 
L 39.605844 103.099996 
z
" style="fill:#a9bfe3;stroke:#ffffff;stroke-linejoin:miter;"/>
   </g>
   <g id="patch_9">
    <path clip-path="url(#p816fa23840)" d="M 92.25 122.166 
C 100.899864 122.166 109.196617 118.729372 115.312995 112.612995 
C 121.429372 106.496617 124.866 98.199864 124.866 89.55 
C 124.866 80.900136 121.429372 72.603383 115.312995 66.487005 
C 109.196617 60.370628 100.899864 56.934 92.25 56.934 
C 83.600136 56.934 75.303383 60.370628 69.187005 66.487005 
C 63.070628 72.603383 59.634 80.900136 59.634 89.55 
C 59.634 98.199864 63.070628 106.496617 69.187005 112.612995 
C 75.303383 118.729372 83.600136 122.166 92.25 122.166 
z
" style="fill:#ffffff;stroke:#ffffff;stroke-linejoin:miter;"/>
   </g>
  </g>
 </g>
 <defs>
  <clipPath id="p816fa23840">
   <rect height="135.9" width="135.9" x="24.3" y="21.6"/>
  </clipPath>
 </defs>
</svg>
