<?xml version="1.0" encoding="utf-8" standalone="no"?>
<!DOCTYPE svg PUBLIC "-//W3C//DTD SVG 1.1//EN"
  "http://www.w3.org/Graphics/SVG/1.1/DTD/svg11.dtd">
<!-- Created with matplotlib (https://matplotlib.org/) -->
<svg height="180pt" version="1.1" viewBox="0 0 180 180" width="180pt" xmlns="http://www.w3.org/2000/svg" xmlns:xlink="http://www.w3.org/1999/xlink">
 <defs>
  <style type="text/css">
*{stroke-linecap:butt;stroke-linejoin:round;}
  </style>
 </defs>
 <g id="figure_1">
  <g id="patch_1">
   <path d="M 0 180 
L 180 180 
L 180 0 
L 0 0 
z
" style="fill:#ffffff;"/>
  </g>
  <g id="axes_1">
   <g id="matplotlib.axis_1"/>
   <g id="matplotlib.axis_2"/>
   <g id="patch_2">
    <path d="M 146.61 89.55 
C 146.61 88.894548 146.598145 88.239149 146.574441 87.584125 
C 146.550738 86.929101 146.515189 86.27456 146.467812 85.620822 
L 92.25 89.55 
L 146.61 89.55 
z
" style="fill:#eac264;stroke:#ffffff;stroke-linejoin:miter;"/>
   </g>
   <g id="patch_3">
    <path d="M 146.467812 85.620822 
C 146.221335 82.219744 145.65538 78.84939 144.777434 75.554348 
C 143.899488 72.259307 142.71344 69.054174 141.234981 65.98135 
L 92.25 89.55 
L 146.467812 85.620822 
z
" style="fill:#9b8579;stroke:#ffffff;stroke-linejoin:miter;"/>
   </g>
   <g id="patch_4">
    <path d="M 141.234981 65.98135 
C 138.654896 60.618914 135.211686 55.716353 131.04299 51.469644 
C 126.874294 47.222935 122.036409 43.689429 116.722726 41.010374 
L 92.25 89.55 
L 141.234981 65.98135 
z
" style="fill:#a4b878;stroke:#ffffff;stroke-linejoin:miter;"/>
   </g>
   <g id="patch_5">
    <path d="M 116.722726 41.010374 
C 110.503491 37.874758 103.739184 35.963442 96.798628 35.38064 
C 89.858071 34.797838 82.869746 35.554339 76.214689 37.608895 
L 92.25 89.55 
L 116.722726 41.010374 
z
" style="stroke:#ffffff;stroke-linejoin:miter;"/>
   </g>
   <g id="patch_6">
    <path d="M 76.214689 37.608895 
C 65.993003 40.764544 56.926733 46.868418 50.157416 55.151977 
C 43.388099 63.435536 39.212288 73.535889 38.155761 84.181299 
L 92.25 89.55 
L 76.214689 37.608895 
z
" style="fill:#d56c55;stroke:#ffffff;stroke-linejoin:miter;"/>
   </g>
   <g id="patch_7">
    <path d="M 38.155761 84.181299 
C 37.428403 91.51006 38.197939 98.910771 40.417543 105.933103 
C 42.637148 112.955434 46.260869 119.454 51.068204 125.033366 
C 55.875538 130.612731 61.766959 135.157385 68.383975 138.390787 
C 75.00099 141.624188 82.206608 143.479395 89.562367 143.843519 
C 96.918127 144.207643 104.27174 143.073146 111.175743 140.509061 
C 118.079745 137.944975 124.391202 134.004387 129.726062 128.92708 
C 135.060922 123.849772 139.308737 117.740862 142.211028 110.972074 
C 145.11332 104.203286 146.610001 96.914757 146.61 89.54999 
L 92.25 89.55 
L 38.155761 84.181299 
z
" style="fill:#738fc1;stroke:#ffffff;stroke-linejoin:miter;"/>
   </g>
   <g id="patch_8">
    <path clip-path="url(#pc78cd1b0b2)" d="M 92.25 122.166 
C 100.899864 122.166 109.196617 118.729372 115.312995 112.612995 
C 121.429372 106.496617 124.866 98.199864 124.866 89.55 
C 124.866 80.900136 121.429372 72.603383 115.312995 66.487005 
C 109.196617 60.370628 100.899864 56.934 92.25 56.934 
C 83.600136 56.934 75.303383 60.370628 69.187005 66.487005 
C 63.070628 72.603383 59.634 80.900136 59.634 89.55 
C 59.634 98.199864 63.070628 106.496617 69.187005 112.612995 
C 75.303383 118.729372 83.600136 122.166 92.25 122.166 
z
" style="fill:#ffffff;stroke:#ffffff;stroke-linejoin:miter;"/>
   </g>
  </g>
 </g>
 <defs>
  <clipPath id="pc78cd1b0b2">
   <rect height="135.9" width="135.9" x="24.3" y="21.6"/>
  </clipPath>
 </defs>
</svg>
