<?xml version="1.0" encoding="utf-8" standalone="no"?>
<!DOCTYPE svg PUBLIC "-//W3C//DTD SVG 1.1//EN"
  "http://www.w3.org/Graphics/SVG/1.1/DTD/svg11.dtd">
<!-- Created with matplotlib (https://matplotlib.org/) -->
<svg height="180pt" version="1.1" viewBox="0 0 180 180" width="180pt" xmlns="http://www.w3.org/2000/svg" xmlns:xlink="http://www.w3.org/1999/xlink">
 <defs>
  <style type="text/css">
*{stroke-linecap:butt;stroke-linejoin:round;}
  </style>
 </defs>
 <g id="figure_1">
  <g id="patch_1">
   <path d="M 0 180 
L 180 180 
L 180 0 
L 0 0 
z
" style="fill:#ffffff;"/>
  </g>
  <g id="axes_1">
   <g id="matplotlib.axis_1"/>
   <g id="matplotlib.axis_2"/>
   <g id="patch_2">
    <path d="M 146.61 89.55 
C 146.61 88.894548 146.598145 88.239149 146.574441 87.584125 
C 146.550738 86.929101 146.515189 86.27456 146.467812 85.620822 
L 92.25 89.55 
L 146.61 89.55 
z
" style="fill:#7e9d90;stroke:#ffffff;stroke-linejoin:miter;"/>
   </g>
   <g id="patch_3">
    <path d="M 146.467812 85.620822 
C 146.366786 84.226791 146.212034 82.837175 146.0039 81.455073 
C 145.795766 80.07297 145.534405 78.699408 145.2204 77.33745 
L 92.25 89.55 
L 146.467812 85.620822 
z
" style="fill:#ab85ac;stroke:#ffffff;stroke-linejoin:miter;"/>
   </g>
   <g id="patch_4">
    <path d="M 145.2204 77.33745 
C 144.454307 74.014622 143.377251 70.771238 142.003479 67.650207 
C 140.629707 64.529175 138.965304 61.544321 137.03229 58.735132 
L 92.25 89.55 
L 145.2204 77.33745 
z
" style="fill:#905426;stroke:#ffffff;stroke-linejoin:miter;"/>
   </g>
   <g id="patch_5">
    <path d="M 137.03229 58.735132 
C 133.658955 53.832768 129.503397 49.517431 124.731732 45.961622 
C 119.960067 42.405813 114.636735 39.657553 108.974532 37.826701 
L 92.25 89.55 
L 137.03229 58.735132 
z
" style="fill:#bfd598;stroke:#ffffff;stroke-linejoin:miter;"/>
   </g>
   <g id="patch_6">
    <path d="M 108.974532 37.826701 
C 102.347383 35.683838 95.369734 34.834483 88.422042 35.324947 
C 81.47435 35.815412 74.685227 37.636617 68.424848 40.689262 
L 92.25 89.55 
L 108.974532 37.826701 
z
" style="fill:#4b4b4b;stroke:#ffffff;stroke-linejoin:miter;"/>
   </g>
   <g id="patch_7">
    <path d="M 68.424848 40.689262 
C 60.088806 44.754028 52.930034 50.885264 47.63221 58.497425 
C 42.334386 66.109586 39.071706 74.952379 38.155761 84.1813 
L 92.25 89.55 
L 68.424848 40.689262 
z
" style="fill:#e8b19d;stroke:#ffffff;stroke-linejoin:miter;"/>
   </g>
   <g id="patch_8">
    <path d="M 38.155761 84.1813 
C 37.428403 91.51006 38.197939 98.910772 40.417544 105.933103 
C 42.637149 112.955435 46.26087 119.454001 51.068204 125.033366 
C 55.875539 130.612732 61.766959 135.157386 68.383975 138.390787 
C 75.000991 141.624188 82.206609 143.479395 89.562368 143.843519 
C 96.918127 144.207643 104.271741 143.073146 111.175744 140.50906 
C 118.079746 137.944975 124.391202 134.004387 129.726062 128.927079 
C 135.060922 123.849772 139.308737 117.740861 142.211029 110.972073 
C 145.11332 104.203286 146.610001 96.914756 146.61 89.54999 
L 92.25 89.55 
L 38.155761 84.1813 
z
" style="fill:#738fc1;stroke:#ffffff;stroke-linejoin:miter;"/>
   </g>
   <g id="patch_9">
    <path clip-path="url(#p8b3f0b3327)" d="M 92.25 122.166 
C 100.899864 122.166 109.196617 118.729372 115.312995 112.612995 
C 121.429372 106.496617 124.866 98.199864 124.866 89.55 
C 124.866 80.900136 121.429372 72.603383 115.312995 66.487005 
C 109.196617 60.370628 100.899864 56.934 92.25 56.934 
C 83.600136 56.934 75.303383 60.370628 69.187005 66.487005 
C 63.070628 72.603383 59.634 80.900136 59.634 89.55 
C 59.634 98.199864 63.070628 106.496617 69.187005 112.612995 
C 75.303383 118.729372 83.600136 122.166 92.25 122.166 
z
" style="fill:#ffffff;stroke:#ffffff;stroke-linejoin:miter;"/>
   </g>
  </g>
 </g>
 <defs>
  <clipPath id="p8b3f0b3327">
   <rect height="135.9" width="135.9" x="24.3" y="21.6"/>
  </clipPath>
 </defs>
</svg>
