<?xml version="1.0" encoding="utf-8" standalone="no"?>
<!DOCTYPE svg PUBLIC "-//W3C//DTD SVG 1.1//EN"
  "http://www.w3.org/Graphics/SVG/1.1/DTD/svg11.dtd">
<!-- Created with matplotlib (https://matplotlib.org/) -->
<svg height="180pt" version="1.1" viewBox="0 0 180 180" width="180pt" xmlns="http://www.w3.org/2000/svg" xmlns:xlink="http://www.w3.org/1999/xlink">
 <defs>
  <style type="text/css">
*{stroke-linecap:butt;stroke-linejoin:round;}
  </style>
 </defs>
 <g id="figure_1">
  <g id="patch_1">
   <path d="M 0 180 
L 180 180 
L 180 0 
L 0 0 
z
" style="fill:#ffffff;"/>
  </g>
  <g id="axes_1">
   <g id="matplotlib.axis_1"/>
   <g id="matplotlib.axis_2"/>
   <g id="patch_2">
    <path d="M 146.61 89.55 
C 146.61 82.137321 145.09378 74.802379 142.154785 67.997226 
C 139.215789 61.192073 134.915661 55.059439 129.519416 49.977279 
L 92.25 89.55 
L 146.61 89.55 
z
" style="fill:#bfd598;stroke:#ffffff;stroke-linejoin:miter;"/>
   </g>
   <g id="patch_3">
    <path d="M 129.519416 49.977279 
C 123.93528 44.718164 117.300688 40.700092 110.052944 38.187905 
C 102.8052 35.675718 95.107119 34.725851 87.4661 35.40091 
C 79.825081 36.07597 72.412774 38.360793 65.717743 42.104779 
C 59.022712 45.848766 53.195356 50.967811 48.61977 57.124506 
C 44.044184 63.281201 40.823156 70.337239 39.168991 77.827541 
C 37.514826 85.317842 37.464684 93.074142 39.021869 100.585204 
C 40.579055 108.096266 43.708588 115.193358 48.204193 121.408696 
C 52.699798 127.624033 58.460483 132.817991 65.106549 136.648224 
L 92.25 89.55 
L 129.519416 49.977279 
z
" style="fill:#738fc1;stroke:#ffffff;stroke-linejoin:miter;"/>
   </g>
   <g id="patch_4">
    <path d="M 65.106549 136.648224 
C 66.675539 137.552457 68.288733 138.377724 69.940096 139.120937 
C 71.591459 139.86415 73.278929 140.52438 74.996193 141.099159 
L 92.25 89.55 
L 65.106549 136.648224 
z
" style="fill:#ab85ac;stroke:#ffffff;stroke-linejoin:miter;"/>
   </g>
   <g id="patch_5">
    <path d="M 74.996193 141.099159 
C 82.094202 143.474904 89.606999 144.359215 97.062653 143.696542 
C 104.518306 143.033868 111.757365 140.838383 118.325093 137.247999 
L 92.25 89.55 
L 74.996193 141.099159 
z
" style="fill:#4b4b4b;stroke:#ffffff;stroke-linejoin:miter;"/>
   </g>
   <g id="patch_6">
    <path d="M 118.325093 137.247999 
C 122.241851 135.106823 125.880004 132.491333 129.157299 129.460661 
C 132.434594 126.429989 135.326148 123.007147 137.76659 119.269516 
L 92.25 89.55 
L 118.325093 137.247999 
z
" style="fill:#e8b19d;stroke:#ffffff;stroke-linejoin:miter;"/>
   </g>
   <g id="patch_7">
    <path d="M 137.76659 119.269516 
C 137.97405 118.951782 138.178178 118.631885 138.37894 118.309877 
C 138.579701 117.987868 138.777086 117.663767 138.971061 117.337625 
L 92.25 89.55 
L 137.76659 119.269516 
z
" style="fill:#7e9d90;stroke:#ffffff;stroke-linejoin:miter;"/>
   </g>
   <g id="patch_8">
    <path d="M 138.971061 117.337625 
C 141.459711 113.153303 143.375 108.653556 144.665487 103.959243 
C 145.955974 99.26493 146.610001 94.418457 146.61 89.549993 
L 92.25 89.55 
L 138.971061 117.337625 
z
" style="fill:#905426;stroke:#ffffff;stroke-linejoin:miter;"/>
   </g>
   <g id="patch_9">
    <path clip-path="url(#p80281bf96a)" d="M 92.25 122.166 
C 100.899864 122.166 109.196617 118.729372 115.312995 112.612995 
C 121.429372 106.496617 124.866 98.199864 124.866 89.55 
C 124.866 80.900136 121.429372 72.603383 115.312995 66.487005 
C 109.196617 60.370628 100.899864 56.934 92.25 56.934 
C 83.600136 56.934 75.303383 60.370628 69.187005 66.487005 
C 63.070628 72.603383 59.634 80.900136 59.634 89.55 
C 59.634 98.199864 63.070628 106.496617 69.187005 112.612995 
C 75.303383 118.729372 83.600136 122.166 92.25 122.166 
z
" style="fill:#ffffff;stroke:#ffffff;stroke-linejoin:miter;"/>
   </g>
  </g>
 </g>
 <defs>
  <clipPath id="p80281bf96a">
   <rect height="135.9" width="135.9" x="24.3" y="21.6"/>
  </clipPath>
 </defs>
</svg>
