<?xml version="1.0" encoding="utf-8" standalone="no"?>
<!DOCTYPE svg PUBLIC "-//W3C//DTD SVG 1.1//EN"
  "http://www.w3.org/Graphics/SVG/1.1/DTD/svg11.dtd">
<!-- Created with matplotlib (https://matplotlib.org/) -->
<svg height="180pt" version="1.1" viewBox="0 0 180 180" width="180pt" xmlns="http://www.w3.org/2000/svg" xmlns:xlink="http://www.w3.org/1999/xlink">
 <defs>
  <style type="text/css">
*{stroke-linecap:butt;stroke-linejoin:round;}
  </style>
 </defs>
 <g id="figure_1">
  <g id="patch_1">
   <path d="M 0 180 
L 180 180 
L 180 0 
L 0 0 
z
" style="fill:#ffffff;"/>
  </g>
  <g id="axes_1">
   <g id="matplotlib.axis_1"/>
   <g id="matplotlib.axis_2"/>
   <g id="patch_2">
    <path d="M 146.61 89.55 
C 146.61 89.170534 146.606027 88.791078 146.598081 88.411695 
C 146.590135 88.032312 146.578216 87.653023 146.562328 87.273889 
L 92.25 89.55 
L 146.61 89.55 
z
" style="fill:#eac264;stroke:#ffffff;stroke-linejoin:miter;"/>
   </g>
   <g id="patch_3">
    <path d="M 146.562328 87.273889 
C 146.35848 82.409696 145.5021 77.594858 144.016188 72.958695 
C 142.530276 68.322533 140.428257 63.906928 137.766586 59.830478 
L 92.25 89.55 
L 146.562328 87.273889 
z
" style="fill:#9b8579;stroke:#ffffff;stroke-linejoin:miter;"/>
   </g>
   <g id="patch_4">
    <path d="M 137.766586 59.830478 
C 134.330847 54.568511 130.008516 49.941962 124.992025 46.156805 
C 119.975534 42.371647 114.340448 39.484899 108.337643 37.62508 
L 92.25 89.55 
L 137.766586 59.830478 
z
" style="fill:#d56c55;stroke:#ffffff;stroke-linejoin:miter;"/>
   </g>
   <g id="patch_5">
    <path d="M 108.337643 37.62508 
C 101.257018 35.431325 93.801929 34.708876 86.43183 35.502257 
C 79.061731 36.295639 71.931205 38.588211 65.479704 42.238682 
L 92.25 89.55 
L 108.337643 37.62508 
z
" style="fill:#bfd598;stroke:#ffffff;stroke-linejoin:miter;"/>
   </g>
   <g id="patch_6">
    <path d="M 65.479704 42.238682 
C 58.965219 45.924791 53.281729 50.916991 48.786253 56.901688 
C 44.290776 62.886385 41.079457 69.735585 39.35402 77.019044 
L 92.25 89.55 
L 65.479704 42.238682 
z
" style="stroke:#ffffff;stroke-linejoin:miter;"/>
   </g>
   <g id="patch_7">
    <path d="M 39.35402 77.019044 
C 37.585767 84.483236 37.417292 92.237868 38.8597 99.771814 
C 40.302108 107.305759 43.322996 114.449774 47.723249 120.732977 
C 52.123503 127.016181 57.804273 132.297425 64.391128 136.228612 
C 70.977982 140.159799 78.322951 142.652615 85.941909 143.542755 
C 93.560868 144.432894 101.282661 143.70036 108.598328 141.393435 
C 115.913994 139.08651 122.659192 135.257018 128.389329 130.15737 
C 134.119465 125.057722 138.705817 118.802479 141.846087 111.803937 
C 144.986357 104.805396 146.610001 97.220774 146.61 89.549993 
L 92.25 89.55 
L 39.35402 77.019044 
z
" style="fill:#738fc1;stroke:#ffffff;stroke-linejoin:miter;"/>
   </g>
   <g id="patch_8">
    <path clip-path="url(#pe6c7aecfc5)" d="M 92.25 122.166 
C 100.899864 122.166 109.196617 118.729372 115.312995 112.612995 
C 121.429372 106.496617 124.866 98.199864 124.866 89.55 
C 124.866 80.900136 121.429372 72.603383 115.312995 66.487005 
C 109.196617 60.370628 100.899864 56.934 92.25 56.934 
C 83.600136 56.934 75.303383 60.370628 69.187005 66.487005 
C 63.070628 72.603383 59.634 80.900136 59.634 89.55 
C 59.634 98.199864 63.070628 106.496617 69.187005 112.612995 
C 75.303383 118.729372 83.600136 122.166 92.25 122.166 
z
" style="fill:#ffffff;stroke:#ffffff;stroke-linejoin:miter;"/>
   </g>
  </g>
 </g>
 <defs>
  <clipPath id="pe6c7aecfc5">
   <rect height="135.9" width="135.9" x="24.3" y="21.6"/>
  </clipPath>
 </defs>
</svg>
