<?xml version="1.0" encoding="utf-8" standalone="no"?>
<!DOCTYPE svg PUBLIC "-//W3C//DTD SVG 1.1//EN"
  "http://www.w3.org/Graphics/SVG/1.1/DTD/svg11.dtd">
<!-- Created with matplotlib (https://matplotlib.org/) -->
<svg height="288pt" version="1.1" viewBox="0 0 288 288" width="288pt" xmlns="http://www.w3.org/2000/svg" xmlns:xlink="http://www.w3.org/1999/xlink">
 <defs>
  <style type="text/css">
*{stroke-linecap:butt;stroke-linejoin:round;}
  </style>
 </defs>
 <g id="figure_1">
  <g id="patch_1">
   <path d="M 0 288 
L 288 288 
L 288 0 
L 0 0 
z
" style="fill:#ffffff;"/>
  </g>
  <g id="axes_1">
   <g id="patch_2">
    <path d="M 36 252 
L 259.2 252 
L 259.2 34.56 
L 36 34.56 
z
" style="fill:#e3dcd0;"/>
   </g>
   <g id="matplotlib.axis_1">
    <g id="xtick_1">
     <g id="text_1">
      <!-- 3 -->
      <defs>
       <path d="M 40.578125 39.3125 
Q 47.65625 37.796875 51.625 33 
Q 55.609375 28.21875 55.609375 21.1875 
Q 55.609375 10.40625 48.1875 4.484375 
Q 40.765625 -1.421875 27.09375 -1.421875 
Q 22.515625 -1.421875 17.65625 -0.515625 
Q 12.796875 0.390625 7.625 2.203125 
L 7.625 11.71875 
Q 11.71875 9.328125 16.59375 8.109375 
Q 21.484375 6.890625 26.8125 6.890625 
Q 36.078125 6.890625 40.9375 10.546875 
Q 45.796875 14.203125 45.796875 21.1875 
Q 45.796875 27.640625 41.28125 31.265625 
Q 36.765625 34.90625 28.71875 34.90625 
L 20.21875 34.90625 
L 20.21875 43.015625 
L 29.109375 43.015625 
Q 36.375 43.015625 40.234375 45.921875 
Q 44.09375 48.828125 44.09375 54.296875 
Q 44.09375 59.90625 40.109375 62.90625 
Q 36.140625 65.921875 28.71875 65.921875 
Q 24.65625 65.921875 20.015625 65.03125 
Q 15.375 64.15625 9.8125 62.3125 
L 9.8125 71.09375 
Q 15.4375 72.65625 20.34375 73.4375 
Q 25.25 74.21875 29.59375 74.21875 
Q 40.828125 74.21875 47.359375 69.109375 
Q 53.90625 64.015625 53.90625 55.328125 
Q 53.90625 49.265625 50.4375 45.09375 
Q 46.96875 40.921875 40.578125 39.3125 
z
" id="DejaVuSans-51"/>
      </defs>
      <g transform="translate(38.105 261.57875)scale(0.08 -0.08)">
       <use xlink:href="#DejaVuSans-51"/>
      </g>
     </g>
    </g>
    <g id="xtick_2">
     <g id="text_2">
      <!-- 5 -->
      <defs>
       <path d="M 10.796875 72.90625 
L 49.515625 72.90625 
L 49.515625 64.59375 
L 19.828125 64.59375 
L 19.828125 46.734375 
Q 21.96875 47.46875 24.109375 47.828125 
Q 26.265625 48.1875 28.421875 48.1875 
Q 40.625 48.1875 47.75 41.5 
Q 54.890625 34.8125 54.890625 23.390625 
Q 54.890625 11.625 47.5625 5.09375 
Q 40.234375 -1.421875 26.90625 -1.421875 
Q 22.3125 -1.421875 17.546875 -0.640625 
Q 12.796875 0.140625 7.71875 1.703125 
L 7.71875 11.625 
Q 12.109375 9.234375 16.796875 8.0625 
Q 21.484375 6.890625 26.703125 6.890625 
Q 35.15625 6.890625 40.078125 11.328125 
Q 45.015625 15.765625 45.015625 23.390625 
Q 45.015625 31 40.078125 35.4375 
Q 35.15625 39.890625 26.703125 39.890625 
Q 22.75 39.890625 18.8125 39.015625 
Q 14.890625 38.140625 10.796875 36.28125 
z
" id="DejaVuSans-53"/>
      </defs>
      <g transform="translate(131.105 261.57875)scale(0.08 -0.08)">
       <use xlink:href="#DejaVuSans-53"/>
      </g>
     </g>
    </g>
    <g id="xtick_3">
     <g id="text_3">
      <!-- 7 -->
      <defs>
       <path d="M 8.203125 72.90625 
L 55.078125 72.90625 
L 55.078125 68.703125 
L 28.609375 0 
L 18.3125 0 
L 43.21875 64.59375 
L 8.203125 64.59375 
z
" id="DejaVuSans-55"/>
      </defs>
      <g transform="translate(224.105 261.57875)scale(0.08 -0.08)">
       <use xlink:href="#DejaVuSans-55"/>
      </g>
     </g>
    </g>
    <g id="text_4">
     <!-- human population [billion] -->
     <defs>
      <path d="M 54.890625 33.015625 
L 54.890625 0 
L 45.90625 0 
L 45.90625 32.71875 
Q 45.90625 40.484375 42.875 44.328125 
Q 39.84375 48.1875 33.796875 48.1875 
Q 26.515625 48.1875 22.3125 43.546875 
Q 18.109375 38.921875 18.109375 30.90625 
L 18.109375 0 
L 9.078125 0 
L 9.078125 75.984375 
L 18.109375 75.984375 
L 18.109375 46.1875 
Q 21.34375 51.125 25.703125 53.5625 
Q 30.078125 56 35.796875 56 
Q 45.21875 56 50.046875 50.171875 
Q 54.890625 44.34375 54.890625 33.015625 
z
" id="DejaVuSans-104"/>
      <path d="M 8.5 21.578125 
L 8.5 54.6875 
L 17.484375 54.6875 
L 17.484375 21.921875 
Q 17.484375 14.15625 20.5 10.265625 
Q 23.53125 6.390625 29.59375 6.390625 
Q 36.859375 6.390625 41.078125 11.03125 
Q 45.3125 15.671875 45.3125 23.6875 
L 45.3125 54.6875 
L 54.296875 54.6875 
L 54.296875 0 
L 45.3125 0 
L 45.3125 8.40625 
Q 42.046875 3.421875 37.71875 1 
Q 33.40625 -1.421875 27.6875 -1.421875 
Q 18.265625 -1.421875 13.375 4.4375 
Q 8.5 10.296875 8.5 21.578125 
z
M 31.109375 56 
z
" id="DejaVuSans-117"/>
      <path d="M 52 44.1875 
Q 55.375 50.25 60.0625 53.125 
Q 64.75 56 71.09375 56 
Q 79.640625 56 84.28125 50.015625 
Q 88.921875 44.046875 88.921875 33.015625 
L 88.921875 0 
L 79.890625 0 
L 79.890625 32.71875 
Q 79.890625 40.578125 77.09375 44.375 
Q 74.3125 48.1875 68.609375 48.1875 
Q 61.625 48.1875 57.5625 43.546875 
Q 53.515625 38.921875 53.515625 30.90625 
L 53.515625 0 
L 44.484375 0 
L 44.484375 32.71875 
Q 44.484375 40.625 41.703125 44.40625 
Q 38.921875 48.1875 33.109375 48.1875 
Q 26.21875 48.1875 22.15625 43.53125 
Q 18.109375 38.875 18.109375 30.90625 
L 18.109375 0 
L 9.078125 0 
L 9.078125 54.6875 
L 18.109375 54.6875 
L 18.109375 46.1875 
Q 21.1875 51.21875 25.484375 53.609375 
Q 29.78125 56 35.6875 56 
Q 41.65625 56 45.828125 52.96875 
Q 50 49.953125 52 44.1875 
z
" id="DejaVuSans-109"/>
      <path d="M 34.28125 27.484375 
Q 23.390625 27.484375 19.1875 25 
Q 14.984375 22.515625 14.984375 16.5 
Q 14.984375 11.71875 18.140625 8.90625 
Q 21.296875 6.109375 26.703125 6.109375 
Q 34.1875 6.109375 38.703125 11.40625 
Q 43.21875 16.703125 43.21875 25.484375 
L 43.21875 27.484375 
z
M 52.203125 31.203125 
L 52.203125 0 
L 43.21875 0 
L 43.21875 8.296875 
Q 40.140625 3.328125 35.546875 0.953125 
Q 30.953125 -1.421875 24.3125 -1.421875 
Q 15.921875 -1.421875 10.953125 3.296875 
Q 6 8.015625 6 15.921875 
Q 6 25.140625 12.171875 29.828125 
Q 18.359375 34.515625 30.609375 34.515625 
L 43.21875 34.515625 
L 43.21875 35.40625 
Q 43.21875 41.609375 39.140625 45 
Q 35.0625 48.390625 27.6875 48.390625 
Q 23 48.390625 18.546875 47.265625 
Q 14.109375 46.140625 10.015625 43.890625 
L 10.015625 52.203125 
Q 14.9375 54.109375 19.578125 55.046875 
Q 24.21875 56 28.609375 56 
Q 40.484375 56 46.34375 49.84375 
Q 52.203125 43.703125 52.203125 31.203125 
z
" id="DejaVuSans-97"/>
      <path d="M 54.890625 33.015625 
L 54.890625 0 
L 45.90625 0 
L 45.90625 32.71875 
Q 45.90625 40.484375 42.875 44.328125 
Q 39.84375 48.1875 33.796875 48.1875 
Q 26.515625 48.1875 22.3125 43.546875 
Q 18.109375 38.921875 18.109375 30.90625 
L 18.109375 0 
L 9.078125 0 
L 9.078125 54.6875 
L 18.109375 54.6875 
L 18.109375 46.1875 
Q 21.34375 51.125 25.703125 53.5625 
Q 30.078125 56 35.796875 56 
Q 45.21875 56 50.046875 50.171875 
Q 54.890625 44.34375 54.890625 33.015625 
z
" id="DejaVuSans-110"/>
      <path id="DejaVuSans-32"/>
      <path d="M 18.109375 8.203125 
L 18.109375 -20.796875 
L 9.078125 -20.796875 
L 9.078125 54.6875 
L 18.109375 54.6875 
L 18.109375 46.390625 
Q 20.953125 51.265625 25.265625 53.625 
Q 29.59375 56 35.59375 56 
Q 45.5625 56 51.78125 48.09375 
Q 58.015625 40.1875 58.015625 27.296875 
Q 58.015625 14.40625 51.78125 6.484375 
Q 45.5625 -1.421875 35.59375 -1.421875 
Q 29.59375 -1.421875 25.265625 0.953125 
Q 20.953125 3.328125 18.109375 8.203125 
z
M 48.6875 27.296875 
Q 48.6875 37.203125 44.609375 42.84375 
Q 40.53125 48.484375 33.40625 48.484375 
Q 26.265625 48.484375 22.1875 42.84375 
Q 18.109375 37.203125 18.109375 27.296875 
Q 18.109375 17.390625 22.1875 11.75 
Q 26.265625 6.109375 33.40625 6.109375 
Q 40.53125 6.109375 44.609375 11.75 
Q 48.6875 17.390625 48.6875 27.296875 
z
" id="DejaVuSans-112"/>
      <path d="M 30.609375 48.390625 
Q 23.390625 48.390625 19.1875 42.75 
Q 14.984375 37.109375 14.984375 27.296875 
Q 14.984375 17.484375 19.15625 11.84375 
Q 23.34375 6.203125 30.609375 6.203125 
Q 37.796875 6.203125 41.984375 11.859375 
Q 46.1875 17.53125 46.1875 27.296875 
Q 46.1875 37.015625 41.984375 42.703125 
Q 37.796875 48.390625 30.609375 48.390625 
z
M 30.609375 56 
Q 42.328125 56 49.015625 48.375 
Q 55.71875 40.765625 55.71875 27.296875 
Q 55.71875 13.875 49.015625 6.21875 
Q 42.328125 -1.421875 30.609375 -1.421875 
Q 18.84375 -1.421875 12.171875 6.21875 
Q 5.515625 13.875 5.515625 27.296875 
Q 5.515625 40.765625 12.171875 48.375 
Q 18.84375 56 30.609375 56 
z
" id="DejaVuSans-111"/>
      <path d="M 9.421875 75.984375 
L 18.40625 75.984375 
L 18.40625 0 
L 9.421875 0 
z
" id="DejaVuSans-108"/>
      <path d="M 18.3125 70.21875 
L 18.3125 54.6875 
L 36.8125 54.6875 
L 36.8125 47.703125 
L 18.3125 47.703125 
L 18.3125 18.015625 
Q 18.3125 11.328125 20.140625 9.421875 
Q 21.96875 7.515625 27.59375 7.515625 
L 36.8125 7.515625 
L 36.8125 0 
L 27.59375 0 
Q 17.1875 0 13.234375 3.875 
Q 9.28125 7.765625 9.28125 18.015625 
L 9.28125 47.703125 
L 2.6875 47.703125 
L 2.6875 54.6875 
L 9.28125 54.6875 
L 9.28125 70.21875 
z
" id="DejaVuSans-116"/>
      <path d="M 9.421875 54.6875 
L 18.40625 54.6875 
L 18.40625 0 
L 9.421875 0 
z
M 9.421875 75.984375 
L 18.40625 75.984375 
L 18.40625 64.59375 
L 9.421875 64.59375 
z
" id="DejaVuSans-105"/>
      <path d="M 8.59375 75.984375 
L 29.296875 75.984375 
L 29.296875 69 
L 17.578125 69 
L 17.578125 -6.203125 
L 29.296875 -6.203125 
L 29.296875 -13.1875 
L 8.59375 -13.1875 
z
" id="DejaVuSans-91"/>
      <path d="M 48.6875 27.296875 
Q 48.6875 37.203125 44.609375 42.84375 
Q 40.53125 48.484375 33.40625 48.484375 
Q 26.265625 48.484375 22.1875 42.84375 
Q 18.109375 37.203125 18.109375 27.296875 
Q 18.109375 17.390625 22.1875 11.75 
Q 26.265625 6.109375 33.40625 6.109375 
Q 40.53125 6.109375 44.609375 11.75 
Q 48.6875 17.390625 48.6875 27.296875 
z
M 18.109375 46.390625 
Q 20.953125 51.265625 25.265625 53.625 
Q 29.59375 56 35.59375 56 
Q 45.5625 56 51.78125 48.09375 
Q 58.015625 40.1875 58.015625 27.296875 
Q 58.015625 14.40625 51.78125 6.484375 
Q 45.5625 -1.421875 35.59375 -1.421875 
Q 29.59375 -1.421875 25.265625 0.953125 
Q 20.953125 3.328125 18.109375 8.203125 
L 18.109375 0 
L 9.078125 0 
L 9.078125 75.984375 
L 18.109375 75.984375 
z
" id="DejaVuSans-98"/>
      <path d="M 30.421875 75.984375 
L 30.421875 -13.1875 
L 9.71875 -13.1875 
L 9.71875 -6.203125 
L 21.390625 -6.203125 
L 21.390625 69 
L 9.71875 69 
L 9.71875 75.984375 
z
" id="DejaVuSans-93"/>
     </defs>
     <g style="fill:#262626;" transform="translate(94.73125 273.32125)scale(0.08 -0.08)">
      <use xlink:href="#DejaVuSans-104"/>
      <use x="63.378906" xlink:href="#DejaVuSans-117"/>
      <use x="126.757812" xlink:href="#DejaVuSans-109"/>
      <use x="224.169922" xlink:href="#DejaVuSans-97"/>
      <use x="285.449219" xlink:href="#DejaVuSans-110"/>
      <use x="348.828125" xlink:href="#DejaVuSans-32"/>
      <use x="380.615234" xlink:href="#DejaVuSans-112"/>
      <use x="444.091797" xlink:href="#DejaVuSans-111"/>
      <use x="505.273438" xlink:href="#DejaVuSans-112"/>
      <use x="568.75" xlink:href="#DejaVuSans-117"/>
      <use x="632.128906" xlink:href="#DejaVuSans-108"/>
      <use x="659.912109" xlink:href="#DejaVuSans-97"/>
      <use x="721.191406" xlink:href="#DejaVuSans-116"/>
      <use x="760.400391" xlink:href="#DejaVuSans-105"/>
      <use x="788.183594" xlink:href="#DejaVuSans-111"/>
      <use x="849.365234" xlink:href="#DejaVuSans-110"/>
      <use x="912.744141" xlink:href="#DejaVuSans-32"/>
      <use x="944.53125" xlink:href="#DejaVuSans-91"/>
      <use x="983.544922" xlink:href="#DejaVuSans-98"/>
      <use x="1047.021484" xlink:href="#DejaVuSans-105"/>
      <use x="1074.804688" xlink:href="#DejaVuSans-108"/>
      <use x="1102.587891" xlink:href="#DejaVuSans-108"/>
      <use x="1130.371094" xlink:href="#DejaVuSans-105"/>
      <use x="1158.154297" xlink:href="#DejaVuSans-111"/>
      <use x="1219.335938" xlink:href="#DejaVuSans-110"/>
      <use x="1282.714844" xlink:href="#DejaVuSans-93"/>
     </g>
    </g>
   </g>
   <g id="matplotlib.axis_2">
    <g id="ytick_1">
     <g id="text_5">
      <!-- 0 -->
      <defs>
       <path d="M 31.78125 66.40625 
Q 24.171875 66.40625 20.328125 58.90625 
Q 16.5 51.421875 16.5 36.375 
Q 16.5 21.390625 20.328125 13.890625 
Q 24.171875 6.390625 31.78125 6.390625 
Q 39.453125 6.390625 43.28125 13.890625 
Q 47.125 21.390625 47.125 36.375 
Q 47.125 51.421875 43.28125 58.90625 
Q 39.453125 66.40625 31.78125 66.40625 
z
M 31.78125 74.21875 
Q 44.046875 74.21875 50.515625 64.515625 
Q 56.984375 54.828125 56.984375 36.375 
Q 56.984375 17.96875 50.515625 8.265625 
Q 44.046875 -1.421875 31.78125 -1.421875 
Q 19.53125 -1.421875 13.0625 8.265625 
Q 6.59375 17.96875 6.59375 36.375 
Q 6.59375 54.828125 13.0625 64.515625 
Q 19.53125 74.21875 31.78125 74.21875 
z
" id="DejaVuSans-48"/>
      </defs>
      <g transform="translate(27.41 255.039375)scale(0.08 -0.08)">
       <use xlink:href="#DejaVuSans-48"/>
      </g>
     </g>
    </g>
    <g id="ytick_2">
     <g id="text_6">
      <!-- 4 -->
      <defs>
       <path d="M 37.796875 64.3125 
L 12.890625 25.390625 
L 37.796875 25.390625 
z
M 35.203125 72.90625 
L 47.609375 72.90625 
L 47.609375 25.390625 
L 58.015625 25.390625 
L 58.015625 17.1875 
L 47.609375 17.1875 
L 47.609375 0 
L 37.796875 0 
L 37.796875 17.1875 
L 4.890625 17.1875 
L 4.890625 26.703125 
z
" id="DejaVuSans-52"/>
      </defs>
      <g transform="translate(27.41 188.13476)scale(0.08 -0.08)">
       <use xlink:href="#DejaVuSans-52"/>
      </g>
     </g>
    </g>
    <g id="ytick_3">
     <g id="text_7">
      <!-- 8 -->
      <defs>
       <path d="M 31.78125 34.625 
Q 24.75 34.625 20.71875 30.859375 
Q 16.703125 27.09375 16.703125 20.515625 
Q 16.703125 13.921875 20.71875 10.15625 
Q 24.75 6.390625 31.78125 6.390625 
Q 38.8125 6.390625 42.859375 10.171875 
Q 46.921875 13.96875 46.921875 20.515625 
Q 46.921875 27.09375 42.890625 30.859375 
Q 38.875 34.625 31.78125 34.625 
z
M 21.921875 38.8125 
Q 15.578125 40.375 12.03125 44.71875 
Q 8.5 49.078125 8.5 55.328125 
Q 8.5 64.0625 14.71875 69.140625 
Q 20.953125 74.21875 31.78125 74.21875 
Q 42.671875 74.21875 48.875 69.140625 
Q 55.078125 64.0625 55.078125 55.328125 
Q 55.078125 49.078125 51.53125 44.71875 
Q 48 40.375 41.703125 38.8125 
Q 48.828125 37.15625 52.796875 32.3125 
Q 56.78125 27.484375 56.78125 20.515625 
Q 56.78125 9.90625 50.3125 4.234375 
Q 43.84375 -1.421875 31.78125 -1.421875 
Q 19.734375 -1.421875 13.25 4.234375 
Q 6.78125 9.90625 6.78125 20.515625 
Q 6.78125 27.484375 10.78125 32.3125 
Q 14.796875 37.15625 21.921875 38.8125 
z
M 18.3125 54.390625 
Q 18.3125 48.734375 21.84375 45.5625 
Q 25.390625 42.390625 31.78125 42.390625 
Q 38.140625 42.390625 41.71875 45.5625 
Q 45.3125 48.734375 45.3125 54.390625 
Q 45.3125 60.0625 41.71875 63.234375 
Q 38.140625 66.40625 31.78125 66.40625 
Q 25.390625 66.40625 21.84375 63.234375 
Q 18.3125 60.0625 18.3125 54.390625 
z
" id="DejaVuSans-56"/>
      </defs>
      <g transform="translate(27.41 121.230144)scale(0.08 -0.08)">
       <use xlink:href="#DejaVuSans-56"/>
      </g>
     </g>
    </g>
    <g id="ytick_4">
     <g id="text_8">
      <!-- 12 -->
      <defs>
       <path d="M 12.40625 8.296875 
L 28.515625 8.296875 
L 28.515625 63.921875 
L 10.984375 60.40625 
L 10.984375 69.390625 
L 28.421875 72.90625 
L 38.28125 72.90625 
L 38.28125 8.296875 
L 54.390625 8.296875 
L 54.390625 0 
L 12.40625 0 
z
" id="DejaVuSans-49"/>
       <path d="M 19.1875 8.296875 
L 53.609375 8.296875 
L 53.609375 0 
L 7.328125 0 
L 7.328125 8.296875 
Q 12.9375 14.109375 22.625 23.890625 
Q 32.328125 33.6875 34.8125 36.53125 
Q 39.546875 41.84375 41.421875 45.53125 
Q 43.3125 49.21875 43.3125 52.78125 
Q 43.3125 58.59375 39.234375 62.25 
Q 35.15625 65.921875 28.609375 65.921875 
Q 23.96875 65.921875 18.8125 64.3125 
Q 13.671875 62.703125 7.8125 59.421875 
L 7.8125 69.390625 
Q 13.765625 71.78125 18.9375 73 
Q 24.125 74.21875 28.421875 74.21875 
Q 39.75 74.21875 46.484375 68.546875 
Q 53.21875 62.890625 53.21875 53.421875 
Q 53.21875 48.921875 51.53125 44.890625 
Q 49.859375 40.875 45.40625 35.40625 
Q 44.1875 33.984375 37.640625 27.21875 
Q 31.109375 20.453125 19.1875 8.296875 
z
" id="DejaVuSans-50"/>
      </defs>
      <g transform="translate(22.32 54.325529)scale(0.08 -0.08)">
       <use xlink:href="#DejaVuSans-49"/>
       <use x="63.623047" xlink:href="#DejaVuSans-50"/>
      </g>
     </g>
    </g>
    <g id="text_9">
     <!-- ammonia production [10$^{10}$ kg / yr] -->
     <defs>
      <path d="M 41.109375 46.296875 
Q 39.59375 47.171875 37.8125 47.578125 
Q 36.03125 48 33.890625 48 
Q 26.265625 48 22.1875 43.046875 
Q 18.109375 38.09375 18.109375 28.8125 
L 18.109375 0 
L 9.078125 0 
L 9.078125 54.6875 
L 18.109375 54.6875 
L 18.109375 46.1875 
Q 20.953125 51.171875 25.484375 53.578125 
Q 30.03125 56 36.53125 56 
Q 37.453125 56 38.578125 55.875 
Q 39.703125 55.765625 41.0625 55.515625 
z
" id="DejaVuSans-114"/>
      <path d="M 45.40625 46.390625 
L 45.40625 75.984375 
L 54.390625 75.984375 
L 54.390625 0 
L 45.40625 0 
L 45.40625 8.203125 
Q 42.578125 3.328125 38.25 0.953125 
Q 33.9375 -1.421875 27.875 -1.421875 
Q 17.96875 -1.421875 11.734375 6.484375 
Q 5.515625 14.40625 5.515625 27.296875 
Q 5.515625 40.1875 11.734375 48.09375 
Q 17.96875 56 27.875 56 
Q 33.9375 56 38.25 53.625 
Q 42.578125 51.265625 45.40625 46.390625 
z
M 14.796875 27.296875 
Q 14.796875 17.390625 18.875 11.75 
Q 22.953125 6.109375 30.078125 6.109375 
Q 37.203125 6.109375 41.296875 11.75 
Q 45.40625 17.390625 45.40625 27.296875 
Q 45.40625 37.203125 41.296875 42.84375 
Q 37.203125 48.484375 30.078125 48.484375 
Q 22.953125 48.484375 18.875 42.84375 
Q 14.796875 37.203125 14.796875 27.296875 
z
" id="DejaVuSans-100"/>
      <path d="M 48.78125 52.59375 
L 48.78125 44.1875 
Q 44.96875 46.296875 41.140625 47.34375 
Q 37.3125 48.390625 33.40625 48.390625 
Q 24.65625 48.390625 19.8125 42.84375 
Q 14.984375 37.3125 14.984375 27.296875 
Q 14.984375 17.28125 19.8125 11.734375 
Q 24.65625 6.203125 33.40625 6.203125 
Q 37.3125 6.203125 41.140625 7.25 
Q 44.96875 8.296875 48.78125 10.40625 
L 48.78125 2.09375 
Q 45.015625 0.34375 40.984375 -0.53125 
Q 36.96875 -1.421875 32.421875 -1.421875 
Q 20.0625 -1.421875 12.78125 6.34375 
Q 5.515625 14.109375 5.515625 27.296875 
Q 5.515625 40.671875 12.859375 48.328125 
Q 20.21875 56 33.015625 56 
Q 37.15625 56 41.109375 55.140625 
Q 45.0625 54.296875 48.78125 52.59375 
z
" id="DejaVuSans-99"/>
      <path d="M 30.203125 0 
L 22.296875 0 
L 22.296875 57 
Q 20.09375 56 15.75 53.75 
Q 11.40625 51.5 10.796875 51.203125 
L 10.796875 58.5 
L 28.796875 67.703125 
L 30.203125 67.203125 
z
" id="STIXGeneral-Regular-120803"/>
      <path d="M 47.703125 33 
Q 47.703125 23.796875 45.546875 16.34375 
Q 43.40625 8.90625 38.09375 3.75 
Q 32.796875 -1.40625 25 -1.40625 
Q 18.796875 -1.40625 14.25 1.6875 
Q 9.703125 4.796875 7.203125 10.046875 
Q 4.703125 15.296875 3.5 21.140625 
Q 2.296875 27 2.296875 33.59375 
Q 2.296875 42.90625 4.59375 50.34375 
Q 6.90625 57.796875 12.296875 62.6875 
Q 17.703125 67.59375 25.40625 67.59375 
Q 35.203125 67.59375 41.453125 57.9375 
Q 47.703125 48.296875 47.703125 33 
z
M 39.796875 33 
Q 39.796875 45.203125 35.75 52.84375 
Q 31.703125 60.5 25.203125 60.5 
Q 17.796875 60.5 14 52.75 
Q 10.203125 45 10.203125 33.40625 
Q 10.203125 28.203125 10.953125 23.546875 
Q 11.703125 18.90625 13.34375 14.75 
Q 15 10.59375 18 8.140625 
Q 21 5.703125 25 5.703125 
Q 30.09375 5.703125 33.546875 9.796875 
Q 37 13.90625 38.390625 19.84375 
Q 39.796875 25.796875 39.796875 33 
z
" id="STIXGeneral-Regular-120802"/>
      <path d="M 9.078125 75.984375 
L 18.109375 75.984375 
L 18.109375 31.109375 
L 44.921875 54.6875 
L 56.390625 54.6875 
L 27.390625 29.109375 
L 57.625 0 
L 45.90625 0 
L 18.109375 26.703125 
L 18.109375 0 
L 9.078125 0 
z
" id="DejaVuSans-107"/>
      <path d="M 45.40625 27.984375 
Q 45.40625 37.75 41.375 43.109375 
Q 37.359375 48.484375 30.078125 48.484375 
Q 22.859375 48.484375 18.828125 43.109375 
Q 14.796875 37.75 14.796875 27.984375 
Q 14.796875 18.265625 18.828125 12.890625 
Q 22.859375 7.515625 30.078125 7.515625 
Q 37.359375 7.515625 41.375 12.890625 
Q 45.40625 18.265625 45.40625 27.984375 
z
M 54.390625 6.78125 
Q 54.390625 -7.171875 48.1875 -13.984375 
Q 42 -20.796875 29.203125 -20.796875 
Q 24.46875 -20.796875 20.265625 -20.09375 
Q 16.0625 -19.390625 12.109375 -17.921875 
L 12.109375 -9.1875 
Q 16.0625 -11.328125 19.921875 -12.34375 
Q 23.78125 -13.375 27.78125 -13.375 
Q 36.625 -13.375 41.015625 -8.765625 
Q 45.40625 -4.15625 45.40625 5.171875 
L 45.40625 9.625 
Q 42.625 4.78125 38.28125 2.390625 
Q 33.9375 0 27.875 0 
Q 17.828125 0 11.671875 7.65625 
Q 5.515625 15.328125 5.515625 27.984375 
Q 5.515625 40.671875 11.671875 48.328125 
Q 17.828125 56 27.875 56 
Q 33.9375 56 38.28125 53.609375 
Q 42.625 51.21875 45.40625 46.390625 
L 45.40625 54.6875 
L 54.390625 54.6875 
z
" id="DejaVuSans-103"/>
      <path d="M 25.390625 72.90625 
L 33.6875 72.90625 
L 8.296875 -9.28125 
L 0 -9.28125 
z
" id="DejaVuSans-47"/>
      <path d="M 32.171875 -5.078125 
Q 28.375 -14.84375 24.75 -17.8125 
Q 21.140625 -20.796875 15.09375 -20.796875 
L 7.90625 -20.796875 
L 7.90625 -13.28125 
L 13.1875 -13.28125 
Q 16.890625 -13.28125 18.9375 -11.515625 
Q 21 -9.765625 23.484375 -3.21875 
L 25.09375 0.875 
L 2.984375 54.6875 
L 12.5 54.6875 
L 29.59375 11.921875 
L 46.6875 54.6875 
L 56.203125 54.6875 
z
" id="DejaVuSans-121"/>
     </defs>
     <g style="fill:#262626;" transform="translate(16.64 211.36)rotate(-90)scale(0.08 -0.08)">
      <use transform="translate(0 0.370312)" xlink:href="#DejaVuSans-97"/>
      <use transform="translate(61.279297 0.370312)" xlink:href="#DejaVuSans-109"/>
      <use transform="translate(158.691406 0.370312)" xlink:href="#DejaVuSans-109"/>
      <use transform="translate(256.103516 0.370312)" xlink:href="#DejaVuSans-111"/>
      <use transform="translate(317.285156 0.370312)" xlink:href="#DejaVuSans-110"/>
      <use transform="translate(380.664062 0.370312)" xlink:href="#DejaVuSans-105"/>
      <use transform="translate(408.447266 0.370312)" xlink:href="#DejaVuSans-97"/>
      <use transform="translate(469.726562 0.370312)" xlink:href="#DejaVuSans-32"/>
      <use transform="translate(501.513672 0.370312)" xlink:href="#DejaVuSans-112"/>
      <use transform="translate(564.990234 0.370312)" xlink:href="#DejaVuSans-114"/>
      <use transform="translate(606.103516 0.370312)" xlink:href="#DejaVuSans-111"/>
      <use transform="translate(667.285156 0.370312)" xlink:href="#DejaVuSans-100"/>
      <use transform="translate(730.761719 0.370312)" xlink:href="#DejaVuSans-117"/>
      <use transform="translate(794.140625 0.370312)" xlink:href="#DejaVuSans-99"/>
      <use transform="translate(849.121094 0.370312)" xlink:href="#DejaVuSans-116"/>
      <use transform="translate(888.330078 0.370312)" xlink:href="#DejaVuSans-105"/>
      <use transform="translate(916.113281 0.370312)" xlink:href="#DejaVuSans-111"/>
      <use transform="translate(977.294922 0.370312)" xlink:href="#DejaVuSans-110"/>
      <use transform="translate(1040.673828 0.370312)" xlink:href="#DejaVuSans-32"/>
      <use transform="translate(1072.460938 0.370312)" xlink:href="#DejaVuSans-91"/>
      <use transform="translate(1111.474609 0.370312)" xlink:href="#DejaVuSans-49"/>
      <use transform="translate(1175.097656 0.370312)" xlink:href="#DejaVuSans-48"/>
      <use transform="translate(1239.513398 36.607813)scale(0.7)" xlink:href="#STIXGeneral-Regular-120803"/>
      <use transform="translate(1274.513388 36.607813)scale(0.7)" xlink:href="#STIXGeneral-Regular-120802"/>
      <use transform="translate(1311.778221 0.370312)" xlink:href="#DejaVuSans-32"/>
      <use transform="translate(1343.56533 0.370312)" xlink:href="#DejaVuSans-107"/>
      <use transform="translate(1401.475486 0.370312)" xlink:href="#DejaVuSans-103"/>
      <use transform="translate(1464.952049 0.370312)" xlink:href="#DejaVuSans-32"/>
      <use transform="translate(1496.739158 0.370312)" xlink:href="#DejaVuSans-47"/>
      <use transform="translate(1530.430565 0.370312)" xlink:href="#DejaVuSans-32"/>
      <use transform="translate(1562.217674 0.370312)" xlink:href="#DejaVuSans-121"/>
      <use transform="translate(1621.397361 0.370312)" xlink:href="#DejaVuSans-114"/>
      <use transform="translate(1662.510643 0.370312)" xlink:href="#DejaVuSans-93"/>
     </g>
    </g>
   </g>
   <g id="line2d_1">
    <path clip-path="url(#p096e5a6639)" d="M 42.275163 230.790101 
L 44.920723 229.759687 
L 47.644567 226.535063 
L 50.461547 223.008621 
L 53.389993 218.532475 
L 56.440637 214.00703 
L 59.618402 209.425862 
L 62.912803 205.590125 
L 66.299359 202.172356 
L 69.744149 197.080734 
L 73.220323 193.797042 
L 76.722822 188.623538 
L 80.251736 184.153983 
L 83.791781 181.852827 
L 87.326429 178.231652 
L 90.845848 175.326434 
L 94.342009 168.799044 
L 97.822032 159.881606 
L 101.310808 153.654057 
L 104.843534 148.423951 
L 108.447163 149.211514 
L 112.120349 147.20883 
L 115.858474 139.178876 
L 119.679973 128.255406 
L 123.60654 130.185399 
L 127.647861 123.437305 
L 131.816408 116.298439 
L 136.09228 110.040447 
L 140.412309 111.005466 
L 144.691032 115.865263 
L 148.866244 118.347684 
L 152.914459 119.192507 
L 156.849771 119.331627 
L 160.694286 119.241046 
L 164.486495 108.012938 
L 168.255904 101.47053 
L 172.007476 106.219789 
L 175.734629 104.794398 
L 179.442918 103.482005 
L 183.137116 110.073405 
L 186.822463 109.128972 
L 190.502137 106.396746 
L 194.182453 104.153154 
L 197.875108 95.185759 
L 201.593912 93.076505 
L 205.348677 93.601406 
L 209.143579 81.536934 
L 212.976517 85.259346 
L 216.842624 87.649675 
L 220.73367 73.300865 
L 224.642298 72.701417 
L 228.565535 69.282136 
L 232.501005 59.896506 
L 236.442062 58.586444 
L 240.381021 50.906636 
L 244.310567 52.835923 
L 248.227025 52.220422 
L 252.12544 51.929578 
" style="fill:none;stroke:#1f77b4;stroke-linecap:round;stroke-width:0.5;"/>
    <defs>
     <path d="M 0 0.5 
C 0.132602 0.5 0.25979 0.447317 0.353553 0.353553 
C 0.447317 0.25979 0.5 0.132602 0.5 0 
C 0.5 -0.132602 0.447317 -0.25979 0.353553 -0.353553 
C 0.25979 -0.447317 0.132602 -0.5 0 -0.5 
C -0.132602 -0.5 -0.25979 -0.447317 -0.353553 -0.353553 
C -0.447317 -0.25979 -0.5 -0.132602 -0.5 0 
C -0.5 0.132602 -0.447317 0.25979 -0.353553 0.353553 
C -0.25979 0.447317 -0.132602 0.5 0 0.5 
z
" id="m38552fedb6" style="stroke:#1f77b4;"/>
    </defs>
    <g clip-path="url(#p096e5a6639)">
     <use style="fill:#1f77b4;stroke:#1f77b4;" x="42.275163" xlink:href="#m38552fedb6" y="230.790101"/>
     <use style="fill:#1f77b4;stroke:#1f77b4;" x="44.920723" xlink:href="#m38552fedb6" y="229.759687"/>
     <use style="fill:#1f77b4;stroke:#1f77b4;" x="47.644567" xlink:href="#m38552fedb6" y="226.535063"/>
     <use style="fill:#1f77b4;stroke:#1f77b4;" x="50.461547" xlink:href="#m38552fedb6" y="223.008621"/>
     <use style="fill:#1f77b4;stroke:#1f77b4;" x="53.389993" xlink:href="#m38552fedb6" y="218.532475"/>
     <use style="fill:#1f77b4;stroke:#1f77b4;" x="56.440637" xlink:href="#m38552fedb6" y="214.00703"/>
     <use style="fill:#1f77b4;stroke:#1f77b4;" x="59.618402" xlink:href="#m38552fedb6" y="209.425862"/>
     <use style="fill:#1f77b4;stroke:#1f77b4;" x="62.912803" xlink:href="#m38552fedb6" y="205.590125"/>
     <use style="fill:#1f77b4;stroke:#1f77b4;" x="66.299359" xlink:href="#m38552fedb6" y="202.172356"/>
     <use style="fill:#1f77b4;stroke:#1f77b4;" x="69.744149" xlink:href="#m38552fedb6" y="197.080734"/>
     <use style="fill:#1f77b4;stroke:#1f77b4;" x="73.220323" xlink:href="#m38552fedb6" y="193.797042"/>
     <use style="fill:#1f77b4;stroke:#1f77b4;" x="76.722822" xlink:href="#m38552fedb6" y="188.623538"/>
     <use style="fill:#1f77b4;stroke:#1f77b4;" x="80.251736" xlink:href="#m38552fedb6" y="184.153983"/>
     <use style="fill:#1f77b4;stroke:#1f77b4;" x="83.791781" xlink:href="#m38552fedb6" y="181.852827"/>
     <use style="fill:#1f77b4;stroke:#1f77b4;" x="87.326429" xlink:href="#m38552fedb6" y="178.231652"/>
     <use style="fill:#1f77b4;stroke:#1f77b4;" x="90.845848" xlink:href="#m38552fedb6" y="175.326434"/>
     <use style="fill:#1f77b4;stroke:#1f77b4;" x="94.342009" xlink:href="#m38552fedb6" y="168.799044"/>
     <use style="fill:#1f77b4;stroke:#1f77b4;" x="97.822032" xlink:href="#m38552fedb6" y="159.881606"/>
     <use style="fill:#1f77b4;stroke:#1f77b4;" x="101.310808" xlink:href="#m38552fedb6" y="153.654057"/>
     <use style="fill:#1f77b4;stroke:#1f77b4;" x="104.843534" xlink:href="#m38552fedb6" y="148.423951"/>
     <use style="fill:#1f77b4;stroke:#1f77b4;" x="108.447163" xlink:href="#m38552fedb6" y="149.211514"/>
     <use style="fill:#1f77b4;stroke:#1f77b4;" x="112.120349" xlink:href="#m38552fedb6" y="147.20883"/>
     <use style="fill:#1f77b4;stroke:#1f77b4;" x="115.858474" xlink:href="#m38552fedb6" y="139.178876"/>
     <use style="fill:#1f77b4;stroke:#1f77b4;" x="119.679973" xlink:href="#m38552fedb6" y="128.255406"/>
     <use style="fill:#1f77b4;stroke:#1f77b4;" x="123.60654" xlink:href="#m38552fedb6" y="130.185399"/>
     <use style="fill:#1f77b4;stroke:#1f77b4;" x="127.647861" xlink:href="#m38552fedb6" y="123.437305"/>
     <use style="fill:#1f77b4;stroke:#1f77b4;" x="131.816408" xlink:href="#m38552fedb6" y="116.298439"/>
     <use style="fill:#1f77b4;stroke:#1f77b4;" x="136.09228" xlink:href="#m38552fedb6" y="110.040447"/>
     <use style="fill:#1f77b4;stroke:#1f77b4;" x="140.412309" xlink:href="#m38552fedb6" y="111.005466"/>
     <use style="fill:#1f77b4;stroke:#1f77b4;" x="144.691032" xlink:href="#m38552fedb6" y="115.865263"/>
     <use style="fill:#1f77b4;stroke:#1f77b4;" x="148.866244" xlink:href="#m38552fedb6" y="118.347684"/>
     <use style="fill:#1f77b4;stroke:#1f77b4;" x="152.914459" xlink:href="#m38552fedb6" y="119.192507"/>
     <use style="fill:#1f77b4;stroke:#1f77b4;" x="156.849771" xlink:href="#m38552fedb6" y="119.331627"/>
     <use style="fill:#1f77b4;stroke:#1f77b4;" x="160.694286" xlink:href="#m38552fedb6" y="119.241046"/>
     <use style="fill:#1f77b4;stroke:#1f77b4;" x="164.486495" xlink:href="#m38552fedb6" y="108.012938"/>
     <use style="fill:#1f77b4;stroke:#1f77b4;" x="168.255904" xlink:href="#m38552fedb6" y="101.47053"/>
     <use style="fill:#1f77b4;stroke:#1f77b4;" x="172.007476" xlink:href="#m38552fedb6" y="106.219789"/>
     <use style="fill:#1f77b4;stroke:#1f77b4;" x="175.734629" xlink:href="#m38552fedb6" y="104.794398"/>
     <use style="fill:#1f77b4;stroke:#1f77b4;" x="179.442918" xlink:href="#m38552fedb6" y="103.482005"/>
     <use style="fill:#1f77b4;stroke:#1f77b4;" x="183.137116" xlink:href="#m38552fedb6" y="110.073405"/>
     <use style="fill:#1f77b4;stroke:#1f77b4;" x="186.822463" xlink:href="#m38552fedb6" y="109.128972"/>
     <use style="fill:#1f77b4;stroke:#1f77b4;" x="190.502137" xlink:href="#m38552fedb6" y="106.396746"/>
     <use style="fill:#1f77b4;stroke:#1f77b4;" x="194.182453" xlink:href="#m38552fedb6" y="104.153154"/>
     <use style="fill:#1f77b4;stroke:#1f77b4;" x="197.875108" xlink:href="#m38552fedb6" y="95.185759"/>
     <use style="fill:#1f77b4;stroke:#1f77b4;" x="201.593912" xlink:href="#m38552fedb6" y="93.076505"/>
     <use style="fill:#1f77b4;stroke:#1f77b4;" x="205.348677" xlink:href="#m38552fedb6" y="93.601406"/>
     <use style="fill:#1f77b4;stroke:#1f77b4;" x="209.143579" xlink:href="#m38552fedb6" y="81.536934"/>
     <use style="fill:#1f77b4;stroke:#1f77b4;" x="212.976517" xlink:href="#m38552fedb6" y="85.259346"/>
     <use style="fill:#1f77b4;stroke:#1f77b4;" x="216.842624" xlink:href="#m38552fedb6" y="87.649675"/>
     <use style="fill:#1f77b4;stroke:#1f77b4;" x="220.73367" xlink:href="#m38552fedb6" y="73.300865"/>
     <use style="fill:#1f77b4;stroke:#1f77b4;" x="224.642298" xlink:href="#m38552fedb6" y="72.701417"/>
     <use style="fill:#1f77b4;stroke:#1f77b4;" x="228.565535" xlink:href="#m38552fedb6" y="69.282136"/>
     <use style="fill:#1f77b4;stroke:#1f77b4;" x="232.501005" xlink:href="#m38552fedb6" y="59.896506"/>
     <use style="fill:#1f77b4;stroke:#1f77b4;" x="236.442062" xlink:href="#m38552fedb6" y="58.586444"/>
     <use style="fill:#1f77b4;stroke:#1f77b4;" x="240.381021" xlink:href="#m38552fedb6" y="50.906636"/>
     <use style="fill:#1f77b4;stroke:#1f77b4;" x="244.310567" xlink:href="#m38552fedb6" y="52.835923"/>
     <use style="fill:#1f77b4;stroke:#1f77b4;" x="248.227025" xlink:href="#m38552fedb6" y="52.220422"/>
     <use style="fill:#1f77b4;stroke:#1f77b4;" x="252.12544" xlink:href="#m38552fedb6" y="51.929578"/>
    </g>
   </g>
   <g id="patch_3">
    <path d="M 36 252 
L 36 34.56 
" style="fill:none;stroke:#ffffff;stroke-linecap:square;stroke-linejoin:miter;stroke-width:0.8;"/>
   </g>
   <g id="patch_4">
    <path d="M 259.2 252 
L 259.2 34.56 
" style="fill:none;stroke:#ffffff;stroke-linecap:square;stroke-linejoin:miter;stroke-width:0.8;"/>
   </g>
   <g id="patch_5">
    <path d="M 36 252 
L 259.2 252 
" style="fill:none;stroke:#ffffff;stroke-linecap:square;stroke-linejoin:miter;stroke-width:0.8;"/>
   </g>
   <g id="patch_6">
    <path d="M 36 34.56 
L 259.2 34.56 
" style="fill:none;stroke:#ffffff;stroke-linecap:square;stroke-linejoin:miter;stroke-width:0.8;"/>
   </g>
  </g>
 </g>
 <defs>
  <clipPath id="p096e5a6639">
   <rect height="217.44" width="223.2" x="36" y="34.56"/>
  </clipPath>
 </defs>
</svg>
