<?xml version="1.0" encoding="utf-8" standalone="no"?>
<!DOCTYPE svg PUBLIC "-//W3C//DTD SVG 1.1//EN"
  "http://www.w3.org/Graphics/SVG/1.1/DTD/svg11.dtd">
<!-- Created with matplotlib (https://matplotlib.org/) -->
<svg height="288pt" version="1.1" viewBox="0 0 288 288" width="288pt" xmlns="http://www.w3.org/2000/svg" xmlns:xlink="http://www.w3.org/1999/xlink">
 <defs>
  <style type="text/css">
*{stroke-linecap:butt;stroke-linejoin:round;}
  </style>
 </defs>
 <g id="figure_1">
  <g id="patch_1">
   <path d="M 0 288 
L 288 288 
L 288 0 
L 0 0 
z
" style="fill:#ffffff;"/>
  </g>
  <g id="axes_1">
   <g id="patch_2">
    <path d="M 36 252 
L 259.2 252 
L 259.2 34.56 
L 36 34.56 
z
" style="fill:#e3dcd0;"/>
   </g>
   <g id="matplotlib.axis_1">
    <g id="xtick_1">
     <g id="text_1">
      <!-- 3 -->
      <defs>
       <path d="M 40.578125 39.3125 
Q 47.65625 37.796875 51.625 33 
Q 55.609375 28.21875 55.609375 21.1875 
Q 55.609375 10.40625 48.1875 4.484375 
Q 40.765625 -1.421875 27.09375 -1.421875 
Q 22.515625 -1.421875 17.65625 -0.515625 
Q 12.796875 0.390625 7.625 2.203125 
L 7.625 11.71875 
Q 11.71875 9.328125 16.59375 8.109375 
Q 21.484375 6.890625 26.8125 6.890625 
Q 36.078125 6.890625 40.9375 10.546875 
Q 45.796875 14.203125 45.796875 21.1875 
Q 45.796875 27.640625 41.28125 31.265625 
Q 36.765625 34.90625 28.71875 34.90625 
L 20.21875 34.90625 
L 20.21875 43.015625 
L 29.109375 43.015625 
Q 36.375 43.015625 40.234375 45.921875 
Q 44.09375 48.828125 44.09375 54.296875 
Q 44.09375 59.90625 40.109375 62.90625 
Q 36.140625 65.921875 28.71875 65.921875 
Q 24.65625 65.921875 20.015625 65.03125 
Q 15.375 64.15625 9.8125 62.3125 
L 9.8125 71.09375 
Q 15.4375 72.65625 20.34375 73.4375 
Q 25.25 74.21875 29.59375 74.21875 
Q 40.828125 74.21875 47.359375 69.109375 
Q 53.90625 64.015625 53.90625 55.328125 
Q 53.90625 49.265625 50.4375 45.09375 
Q 46.96875 40.921875 40.578125 39.3125 
z
" id="DejaVuSans-51"/>
      </defs>
      <g transform="translate(63.021315 261.57875)scale(0.08 -0.08)">
       <use xlink:href="#DejaVuSans-51"/>
      </g>
     </g>
    </g>
    <g id="xtick_2">
     <g id="text_2">
      <!-- 5 -->
      <defs>
       <path d="M 10.796875 72.90625 
L 49.515625 72.90625 
L 49.515625 64.59375 
L 19.828125 64.59375 
L 19.828125 46.734375 
Q 21.96875 47.46875 24.109375 47.828125 
Q 26.265625 48.1875 28.421875 48.1875 
Q 40.625 48.1875 47.75 41.5 
Q 54.890625 34.8125 54.890625 23.390625 
Q 54.890625 11.625 47.5625 5.09375 
Q 40.234375 -1.421875 26.90625 -1.421875 
Q 22.3125 -1.421875 17.546875 -0.640625 
Q 12.796875 0.140625 7.71875 1.703125 
L 7.71875 11.625 
Q 12.109375 9.234375 16.796875 8.0625 
Q 21.484375 6.890625 26.703125 6.890625 
Q 35.15625 6.890625 40.078125 11.328125 
Q 45.015625 15.765625 45.015625 23.390625 
Q 45.015625 31 40.078125 35.4375 
Q 35.15625 39.890625 26.703125 39.890625 
Q 22.75 39.890625 18.8125 39.015625 
Q 14.890625 38.140625 10.796875 36.28125 
z
" id="DejaVuSans-53"/>
      </defs>
      <g transform="translate(146.809776 261.57875)scale(0.08 -0.08)">
       <use xlink:href="#DejaVuSans-53"/>
      </g>
     </g>
    </g>
    <g id="xtick_3">
     <g id="text_3">
      <!-- 7 -->
      <defs>
       <path d="M 8.203125 72.90625 
L 55.078125 72.90625 
L 55.078125 68.703125 
L 28.609375 0 
L 18.3125 0 
L 43.21875 64.59375 
L 8.203125 64.59375 
z
" id="DejaVuSans-55"/>
      </defs>
      <g transform="translate(230.598237 261.57875)scale(0.08 -0.08)">
       <use xlink:href="#DejaVuSans-55"/>
      </g>
     </g>
    </g>
    <g id="text_4">
     <!-- human population [billion] -->
     <defs>
      <path d="M 54.890625 33.015625 
L 54.890625 0 
L 45.90625 0 
L 45.90625 32.71875 
Q 45.90625 40.484375 42.875 44.328125 
Q 39.84375 48.1875 33.796875 48.1875 
Q 26.515625 48.1875 22.3125 43.546875 
Q 18.109375 38.921875 18.109375 30.90625 
L 18.109375 0 
L 9.078125 0 
L 9.078125 75.984375 
L 18.109375 75.984375 
L 18.109375 46.1875 
Q 21.34375 51.125 25.703125 53.5625 
Q 30.078125 56 35.796875 56 
Q 45.21875 56 50.046875 50.171875 
Q 54.890625 44.34375 54.890625 33.015625 
z
" id="DejaVuSans-104"/>
      <path d="M 8.5 21.578125 
L 8.5 54.6875 
L 17.484375 54.6875 
L 17.484375 21.921875 
Q 17.484375 14.15625 20.5 10.265625 
Q 23.53125 6.390625 29.59375 6.390625 
Q 36.859375 6.390625 41.078125 11.03125 
Q 45.3125 15.671875 45.3125 23.6875 
L 45.3125 54.6875 
L 54.296875 54.6875 
L 54.296875 0 
L 45.3125 0 
L 45.3125 8.40625 
Q 42.046875 3.421875 37.71875 1 
Q 33.40625 -1.421875 27.6875 -1.421875 
Q 18.265625 -1.421875 13.375 4.4375 
Q 8.5 10.296875 8.5 21.578125 
z
M 31.109375 56 
z
" id="DejaVuSans-117"/>
      <path d="M 52 44.1875 
Q 55.375 50.25 60.0625 53.125 
Q 64.75 56 71.09375 56 
Q 79.640625 56 84.28125 50.015625 
Q 88.921875 44.046875 88.921875 33.015625 
L 88.921875 0 
L 79.890625 0 
L 79.890625 32.71875 
Q 79.890625 40.578125 77.09375 44.375 
Q 74.3125 48.1875 68.609375 48.1875 
Q 61.625 48.1875 57.5625 43.546875 
Q 53.515625 38.921875 53.515625 30.90625 
L 53.515625 0 
L 44.484375 0 
L 44.484375 32.71875 
Q 44.484375 40.625 41.703125 44.40625 
Q 38.921875 48.1875 33.109375 48.1875 
Q 26.21875 48.1875 22.15625 43.53125 
Q 18.109375 38.875 18.109375 30.90625 
L 18.109375 0 
L 9.078125 0 
L 9.078125 54.6875 
L 18.109375 54.6875 
L 18.109375 46.1875 
Q 21.1875 51.21875 25.484375 53.609375 
Q 29.78125 56 35.6875 56 
Q 41.65625 56 45.828125 52.96875 
Q 50 49.953125 52 44.1875 
z
" id="DejaVuSans-109"/>
      <path d="M 34.28125 27.484375 
Q 23.390625 27.484375 19.1875 25 
Q 14.984375 22.515625 14.984375 16.5 
Q 14.984375 11.71875 18.140625 8.90625 
Q 21.296875 6.109375 26.703125 6.109375 
Q 34.1875 6.109375 38.703125 11.40625 
Q 43.21875 16.703125 43.21875 25.484375 
L 43.21875 27.484375 
z
M 52.203125 31.203125 
L 52.203125 0 
L 43.21875 0 
L 43.21875 8.296875 
Q 40.140625 3.328125 35.546875 0.953125 
Q 30.953125 -1.421875 24.3125 -1.421875 
Q 15.921875 -1.421875 10.953125 3.296875 
Q 6 8.015625 6 15.921875 
Q 6 25.140625 12.171875 29.828125 
Q 18.359375 34.515625 30.609375 34.515625 
L 43.21875 34.515625 
L 43.21875 35.40625 
Q 43.21875 41.609375 39.140625 45 
Q 35.0625 48.390625 27.6875 48.390625 
Q 23 48.390625 18.546875 47.265625 
Q 14.109375 46.140625 10.015625 43.890625 
L 10.015625 52.203125 
Q 14.9375 54.109375 19.578125 55.046875 
Q 24.21875 56 28.609375 56 
Q 40.484375 56 46.34375 49.84375 
Q 52.203125 43.703125 52.203125 31.203125 
z
" id="DejaVuSans-97"/>
      <path d="M 54.890625 33.015625 
L 54.890625 0 
L 45.90625 0 
L 45.90625 32.71875 
Q 45.90625 40.484375 42.875 44.328125 
Q 39.84375 48.1875 33.796875 48.1875 
Q 26.515625 48.1875 22.3125 43.546875 
Q 18.109375 38.921875 18.109375 30.90625 
L 18.109375 0 
L 9.078125 0 
L 9.078125 54.6875 
L 18.109375 54.6875 
L 18.109375 46.1875 
Q 21.34375 51.125 25.703125 53.5625 
Q 30.078125 56 35.796875 56 
Q 45.21875 56 50.046875 50.171875 
Q 54.890625 44.34375 54.890625 33.015625 
z
" id="DejaVuSans-110"/>
      <path id="DejaVuSans-32"/>
      <path d="M 18.109375 8.203125 
L 18.109375 -20.796875 
L 9.078125 -20.796875 
L 9.078125 54.6875 
L 18.109375 54.6875 
L 18.109375 46.390625 
Q 20.953125 51.265625 25.265625 53.625 
Q 29.59375 56 35.59375 56 
Q 45.5625 56 51.78125 48.09375 
Q 58.015625 40.1875 58.015625 27.296875 
Q 58.015625 14.40625 51.78125 6.484375 
Q 45.5625 -1.421875 35.59375 -1.421875 
Q 29.59375 -1.421875 25.265625 0.953125 
Q 20.953125 3.328125 18.109375 8.203125 
z
M 48.6875 27.296875 
Q 48.6875 37.203125 44.609375 42.84375 
Q 40.53125 48.484375 33.40625 48.484375 
Q 26.265625 48.484375 22.1875 42.84375 
Q 18.109375 37.203125 18.109375 27.296875 
Q 18.109375 17.390625 22.1875 11.75 
Q 26.265625 6.109375 33.40625 6.109375 
Q 40.53125 6.109375 44.609375 11.75 
Q 48.6875 17.390625 48.6875 27.296875 
z
" id="DejaVuSans-112"/>
      <path d="M 30.609375 48.390625 
Q 23.390625 48.390625 19.1875 42.75 
Q 14.984375 37.109375 14.984375 27.296875 
Q 14.984375 17.484375 19.15625 11.84375 
Q 23.34375 6.203125 30.609375 6.203125 
Q 37.796875 6.203125 41.984375 11.859375 
Q 46.1875 17.53125 46.1875 27.296875 
Q 46.1875 37.015625 41.984375 42.703125 
Q 37.796875 48.390625 30.609375 48.390625 
z
M 30.609375 56 
Q 42.328125 56 49.015625 48.375 
Q 55.71875 40.765625 55.71875 27.296875 
Q 55.71875 13.875 49.015625 6.21875 
Q 42.328125 -1.421875 30.609375 -1.421875 
Q 18.84375 -1.421875 12.171875 6.21875 
Q 5.515625 13.875 5.515625 27.296875 
Q 5.515625 40.765625 12.171875 48.375 
Q 18.84375 56 30.609375 56 
z
" id="DejaVuSans-111"/>
      <path d="M 9.421875 75.984375 
L 18.40625 75.984375 
L 18.40625 0 
L 9.421875 0 
z
" id="DejaVuSans-108"/>
      <path d="M 18.3125 70.21875 
L 18.3125 54.6875 
L 36.8125 54.6875 
L 36.8125 47.703125 
L 18.3125 47.703125 
L 18.3125 18.015625 
Q 18.3125 11.328125 20.140625 9.421875 
Q 21.96875 7.515625 27.59375 7.515625 
L 36.8125 7.515625 
L 36.8125 0 
L 27.59375 0 
Q 17.1875 0 13.234375 3.875 
Q 9.28125 7.765625 9.28125 18.015625 
L 9.28125 47.703125 
L 2.6875 47.703125 
L 2.6875 54.6875 
L 9.28125 54.6875 
L 9.28125 70.21875 
z
" id="DejaVuSans-116"/>
      <path d="M 9.421875 54.6875 
L 18.40625 54.6875 
L 18.40625 0 
L 9.421875 0 
z
M 9.421875 75.984375 
L 18.40625 75.984375 
L 18.40625 64.59375 
L 9.421875 64.59375 
z
" id="DejaVuSans-105"/>
      <path d="M 8.59375 75.984375 
L 29.296875 75.984375 
L 29.296875 69 
L 17.578125 69 
L 17.578125 -6.203125 
L 29.296875 -6.203125 
L 29.296875 -13.1875 
L 8.59375 -13.1875 
z
" id="DejaVuSans-91"/>
      <path d="M 48.6875 27.296875 
Q 48.6875 37.203125 44.609375 42.84375 
Q 40.53125 48.484375 33.40625 48.484375 
Q 26.265625 48.484375 22.1875 42.84375 
Q 18.109375 37.203125 18.109375 27.296875 
Q 18.109375 17.390625 22.1875 11.75 
Q 26.265625 6.109375 33.40625 6.109375 
Q 40.53125 6.109375 44.609375 11.75 
Q 48.6875 17.390625 48.6875 27.296875 
z
M 18.109375 46.390625 
Q 20.953125 51.265625 25.265625 53.625 
Q 29.59375 56 35.59375 56 
Q 45.5625 56 51.78125 48.09375 
Q 58.015625 40.1875 58.015625 27.296875 
Q 58.015625 14.40625 51.78125 6.484375 
Q 45.5625 -1.421875 35.59375 -1.421875 
Q 29.59375 -1.421875 25.265625 0.953125 
Q 20.953125 3.328125 18.109375 8.203125 
L 18.109375 0 
L 9.078125 0 
L 9.078125 75.984375 
L 18.109375 75.984375 
z
" id="DejaVuSans-98"/>
      <path d="M 30.421875 75.984375 
L 30.421875 -13.1875 
L 9.71875 -13.1875 
L 9.71875 -6.203125 
L 21.390625 -6.203125 
L 21.390625 69 
L 9.71875 69 
L 9.71875 75.984375 
z
" id="DejaVuSans-93"/>
     </defs>
     <g style="fill:#262626;" transform="translate(94.73125 273.32125)scale(0.08 -0.08)">
      <use xlink:href="#DejaVuSans-104"/>
      <use x="63.378906" xlink:href="#DejaVuSans-117"/>
      <use x="126.757812" xlink:href="#DejaVuSans-109"/>
      <use x="224.169922" xlink:href="#DejaVuSans-97"/>
      <use x="285.449219" xlink:href="#DejaVuSans-110"/>
      <use x="348.828125" xlink:href="#DejaVuSans-32"/>
      <use x="380.615234" xlink:href="#DejaVuSans-112"/>
      <use x="444.091797" xlink:href="#DejaVuSans-111"/>
      <use x="505.273438" xlink:href="#DejaVuSans-112"/>
      <use x="568.75" xlink:href="#DejaVuSans-117"/>
      <use x="632.128906" xlink:href="#DejaVuSans-108"/>
      <use x="659.912109" xlink:href="#DejaVuSans-97"/>
      <use x="721.191406" xlink:href="#DejaVuSans-116"/>
      <use x="760.400391" xlink:href="#DejaVuSans-105"/>
      <use x="788.183594" xlink:href="#DejaVuSans-111"/>
      <use x="849.365234" xlink:href="#DejaVuSans-110"/>
      <use x="912.744141" xlink:href="#DejaVuSans-32"/>
      <use x="944.53125" xlink:href="#DejaVuSans-91"/>
      <use x="983.544922" xlink:href="#DejaVuSans-98"/>
      <use x="1047.021484" xlink:href="#DejaVuSans-105"/>
      <use x="1074.804688" xlink:href="#DejaVuSans-108"/>
      <use x="1102.587891" xlink:href="#DejaVuSans-108"/>
      <use x="1130.371094" xlink:href="#DejaVuSans-105"/>
      <use x="1158.154297" xlink:href="#DejaVuSans-111"/>
      <use x="1219.335938" xlink:href="#DejaVuSans-110"/>
      <use x="1282.714844" xlink:href="#DejaVuSans-93"/>
     </g>
    </g>
   </g>
   <g id="matplotlib.axis_2">
    <g id="ytick_1">
     <g id="text_5">
      <!-- 0.4 -->
      <defs>
       <path d="M 31.78125 66.40625 
Q 24.171875 66.40625 20.328125 58.90625 
Q 16.5 51.421875 16.5 36.375 
Q 16.5 21.390625 20.328125 13.890625 
Q 24.171875 6.390625 31.78125 6.390625 
Q 39.453125 6.390625 43.28125 13.890625 
Q 47.125 21.390625 47.125 36.375 
Q 47.125 51.421875 43.28125 58.90625 
Q 39.453125 66.40625 31.78125 66.40625 
z
M 31.78125 74.21875 
Q 44.046875 74.21875 50.515625 64.515625 
Q 56.984375 54.828125 56.984375 36.375 
Q 56.984375 17.96875 50.515625 8.265625 
Q 44.046875 -1.421875 31.78125 -1.421875 
Q 19.53125 -1.421875 13.0625 8.265625 
Q 6.59375 17.96875 6.59375 36.375 
Q 6.59375 54.828125 13.0625 64.515625 
Q 19.53125 74.21875 31.78125 74.21875 
z
" id="DejaVuSans-48"/>
       <path d="M 10.6875 12.40625 
L 21 12.40625 
L 21 0 
L 10.6875 0 
z
" id="DejaVuSans-46"/>
       <path d="M 37.796875 64.3125 
L 12.890625 25.390625 
L 37.796875 25.390625 
z
M 35.203125 72.90625 
L 47.609375 72.90625 
L 47.609375 25.390625 
L 58.015625 25.390625 
L 58.015625 17.1875 
L 47.609375 17.1875 
L 47.609375 0 
L 37.796875 0 
L 37.796875 17.1875 
L 4.890625 17.1875 
L 4.890625 26.703125 
z
" id="DejaVuSans-52"/>
      </defs>
      <g transform="translate(19.7775 191.47499)scale(0.08 -0.08)">
       <use xlink:href="#DejaVuSans-48"/>
       <use x="63.623047" xlink:href="#DejaVuSans-46"/>
       <use x="95.410156" xlink:href="#DejaVuSans-52"/>
      </g>
     </g>
    </g>
    <g id="ytick_2">
     <g id="text_6">
      <!-- 0.8 -->
      <defs>
       <path d="M 31.78125 34.625 
Q 24.75 34.625 20.71875 30.859375 
Q 16.703125 27.09375 16.703125 20.515625 
Q 16.703125 13.921875 20.71875 10.15625 
Q 24.75 6.390625 31.78125 6.390625 
Q 38.8125 6.390625 42.859375 10.171875 
Q 46.921875 13.96875 46.921875 20.515625 
Q 46.921875 27.09375 42.890625 30.859375 
Q 38.875 34.625 31.78125 34.625 
z
M 21.921875 38.8125 
Q 15.578125 40.375 12.03125 44.71875 
Q 8.5 49.078125 8.5 55.328125 
Q 8.5 64.0625 14.71875 69.140625 
Q 20.953125 74.21875 31.78125 74.21875 
Q 42.671875 74.21875 48.875 69.140625 
Q 55.078125 64.0625 55.078125 55.328125 
Q 55.078125 49.078125 51.53125 44.71875 
Q 48 40.375 41.703125 38.8125 
Q 48.828125 37.15625 52.796875 32.3125 
Q 56.78125 27.484375 56.78125 20.515625 
Q 56.78125 9.90625 50.3125 4.234375 
Q 43.84375 -1.421875 31.78125 -1.421875 
Q 19.734375 -1.421875 13.25 4.234375 
Q 6.78125 9.90625 6.78125 20.515625 
Q 6.78125 27.484375 10.78125 32.3125 
Q 14.796875 37.15625 21.921875 38.8125 
z
M 18.3125 54.390625 
Q 18.3125 48.734375 21.84375 45.5625 
Q 25.390625 42.390625 31.78125 42.390625 
Q 38.140625 42.390625 41.71875 45.5625 
Q 45.3125 48.734375 45.3125 54.390625 
Q 45.3125 60.0625 41.71875 63.234375 
Q 38.140625 66.40625 31.78125 66.40625 
Q 25.390625 66.40625 21.84375 63.234375 
Q 18.3125 60.0625 18.3125 54.390625 
z
" id="DejaVuSans-56"/>
      </defs>
      <g transform="translate(19.7775 118.550552)scale(0.08 -0.08)">
       <use xlink:href="#DejaVuSans-48"/>
       <use x="63.623047" xlink:href="#DejaVuSans-46"/>
       <use x="95.410156" xlink:href="#DejaVuSans-56"/>
      </g>
     </g>
    </g>
    <g id="ytick_3">
     <g id="text_7">
      <!-- 1.2 -->
      <defs>
       <path d="M 12.40625 8.296875 
L 28.515625 8.296875 
L 28.515625 63.921875 
L 10.984375 60.40625 
L 10.984375 69.390625 
L 28.421875 72.90625 
L 38.28125 72.90625 
L 38.28125 8.296875 
L 54.390625 8.296875 
L 54.390625 0 
L 12.40625 0 
z
" id="DejaVuSans-49"/>
       <path d="M 19.1875 8.296875 
L 53.609375 8.296875 
L 53.609375 0 
L 7.328125 0 
L 7.328125 8.296875 
Q 12.9375 14.109375 22.625 23.890625 
Q 32.328125 33.6875 34.8125 36.53125 
Q 39.546875 41.84375 41.421875 45.53125 
Q 43.3125 49.21875 43.3125 52.78125 
Q 43.3125 58.59375 39.234375 62.25 
Q 35.15625 65.921875 28.609375 65.921875 
Q 23.96875 65.921875 18.8125 64.3125 
Q 13.671875 62.703125 7.8125 59.421875 
L 7.8125 69.390625 
Q 13.765625 71.78125 18.9375 73 
Q 24.125 74.21875 28.421875 74.21875 
Q 39.75 74.21875 46.484375 68.546875 
Q 53.21875 62.890625 53.21875 53.421875 
Q 53.21875 48.921875 51.53125 44.890625 
Q 49.859375 40.875 45.40625 35.40625 
Q 44.1875 33.984375 37.640625 27.21875 
Q 31.109375 20.453125 19.1875 8.296875 
z
" id="DejaVuSans-50"/>
      </defs>
      <g transform="translate(19.7775 45.626113)scale(0.08 -0.08)">
       <use xlink:href="#DejaVuSans-49"/>
       <use x="63.623047" xlink:href="#DejaVuSans-46"/>
       <use x="95.410156" xlink:href="#DejaVuSans-50"/>
      </g>
     </g>
    </g>
    <g id="text_8">
     <!-- anthropomass [10$^{15}$ kg] -->
     <defs>
      <path d="M 41.109375 46.296875 
Q 39.59375 47.171875 37.8125 47.578125 
Q 36.03125 48 33.890625 48 
Q 26.265625 48 22.1875 43.046875 
Q 18.109375 38.09375 18.109375 28.8125 
L 18.109375 0 
L 9.078125 0 
L 9.078125 54.6875 
L 18.109375 54.6875 
L 18.109375 46.1875 
Q 20.953125 51.171875 25.484375 53.578125 
Q 30.03125 56 36.53125 56 
Q 37.453125 56 38.578125 55.875 
Q 39.703125 55.765625 41.0625 55.515625 
z
" id="DejaVuSans-114"/>
      <path d="M 44.28125 53.078125 
L 44.28125 44.578125 
Q 40.484375 46.53125 36.375 47.5 
Q 32.28125 48.484375 27.875 48.484375 
Q 21.1875 48.484375 17.84375 46.4375 
Q 14.5 44.390625 14.5 40.28125 
Q 14.5 37.15625 16.890625 35.375 
Q 19.28125 33.59375 26.515625 31.984375 
L 29.59375 31.296875 
Q 39.15625 29.25 43.1875 25.515625 
Q 47.21875 21.78125 47.21875 15.09375 
Q 47.21875 7.46875 41.1875 3.015625 
Q 35.15625 -1.421875 24.609375 -1.421875 
Q 20.21875 -1.421875 15.453125 -0.5625 
Q 10.6875 0.296875 5.421875 2 
L 5.421875 11.28125 
Q 10.40625 8.6875 15.234375 7.390625 
Q 20.0625 6.109375 24.8125 6.109375 
Q 31.15625 6.109375 34.5625 8.28125 
Q 37.984375 10.453125 37.984375 14.40625 
Q 37.984375 18.0625 35.515625 20.015625 
Q 33.0625 21.96875 24.703125 23.78125 
L 21.578125 24.515625 
Q 13.234375 26.265625 9.515625 29.90625 
Q 5.8125 33.546875 5.8125 39.890625 
Q 5.8125 47.609375 11.28125 51.796875 
Q 16.75 56 26.8125 56 
Q 31.78125 56 36.171875 55.265625 
Q 40.578125 54.546875 44.28125 53.078125 
z
" id="DejaVuSans-115"/>
      <path d="M 30.203125 0 
L 22.296875 0 
L 22.296875 57 
Q 20.09375 56 15.75 53.75 
Q 11.40625 51.5 10.796875 51.203125 
L 10.796875 58.5 
L 28.796875 67.703125 
L 30.203125 67.203125 
z
" id="STIXGeneral-Regular-120803"/>
      <path d="M 45.796875 67.59375 
L 42.59375 60.5 
L 24.90625 60.5 
L 18.5 47.796875 
Q 29.90625 46.203125 37.25 39.75 
Q 44.59375 33.296875 44.59375 22.59375 
Q 44.59375 12.703125 37.84375 5.640625 
Q 31.09375 -1.40625 21 -1.40625 
Q 10 -1.40625 3.59375 5.59375 
L 8.296875 11.203125 
Q 13.40625 5.703125 20.5 5.703125 
Q 27.90625 5.703125 32.296875 10.75 
Q 36.703125 15.796875 36.703125 22.59375 
Q 36.703125 30 30.09375 35.203125 
Q 23.40625 40.703125 9.40625 40.703125 
L 8 42.40625 
L 19.59375 67.59375 
z
" id="STIXGeneral-Regular-120807"/>
      <path d="M 9.078125 75.984375 
L 18.109375 75.984375 
L 18.109375 31.109375 
L 44.921875 54.6875 
L 56.390625 54.6875 
L 27.390625 29.109375 
L 57.625 0 
L 45.90625 0 
L 18.109375 26.703125 
L 18.109375 0 
L 9.078125 0 
z
" id="DejaVuSans-107"/>
      <path d="M 45.40625 27.984375 
Q 45.40625 37.75 41.375 43.109375 
Q 37.359375 48.484375 30.078125 48.484375 
Q 22.859375 48.484375 18.828125 43.109375 
Q 14.796875 37.75 14.796875 27.984375 
Q 14.796875 18.265625 18.828125 12.890625 
Q 22.859375 7.515625 30.078125 7.515625 
Q 37.359375 7.515625 41.375 12.890625 
Q 45.40625 18.265625 45.40625 27.984375 
z
M 54.390625 6.78125 
Q 54.390625 -7.171875 48.1875 -13.984375 
Q 42 -20.796875 29.203125 -20.796875 
Q 24.46875 -20.796875 20.265625 -20.09375 
Q 16.0625 -19.390625 12.109375 -17.921875 
L 12.109375 -9.1875 
Q 16.0625 -11.328125 19.921875 -12.34375 
Q 23.78125 -13.375 27.78125 -13.375 
Q 36.625 -13.375 41.015625 -8.765625 
Q 45.40625 -4.15625 45.40625 5.171875 
L 45.40625 9.625 
Q 42.625 4.78125 38.28125 2.390625 
Q 33.9375 0 27.875 0 
Q 17.828125 0 11.671875 7.65625 
Q 5.515625 15.328125 5.515625 27.984375 
Q 5.515625 40.671875 11.671875 48.328125 
Q 17.828125 56 27.875 56 
Q 33.9375 56 38.28125 53.609375 
Q 42.625 51.21875 45.40625 46.390625 
L 45.40625 54.6875 
L 54.390625 54.6875 
z
" id="DejaVuSans-103"/>
     </defs>
     <g style="fill:#262626;" transform="translate(13.6775 202.33)rotate(-90)scale(0.1 -0.1)">
      <use transform="translate(0 0.370312)" xlink:href="#DejaVuSans-97"/>
      <use transform="translate(61.279297 0.370312)" xlink:href="#DejaVuSans-110"/>
      <use transform="translate(124.658203 0.370312)" xlink:href="#DejaVuSans-116"/>
      <use transform="translate(163.867188 0.370312)" xlink:href="#DejaVuSans-104"/>
      <use transform="translate(227.246094 0.370312)" xlink:href="#DejaVuSans-114"/>
      <use transform="translate(268.359375 0.370312)" xlink:href="#DejaVuSans-111"/>
      <use transform="translate(329.541016 0.370312)" xlink:href="#DejaVuSans-112"/>
      <use transform="translate(393.017578 0.370312)" xlink:href="#DejaVuSans-111"/>
      <use transform="translate(454.199219 0.370312)" xlink:href="#DejaVuSans-109"/>
      <use transform="translate(551.611328 0.370312)" xlink:href="#DejaVuSans-97"/>
      <use transform="translate(612.890625 0.370312)" xlink:href="#DejaVuSans-115"/>
      <use transform="translate(664.990234 0.370312)" xlink:href="#DejaVuSans-115"/>
      <use transform="translate(717.089844 0.370312)" xlink:href="#DejaVuSans-32"/>
      <use transform="translate(748.876953 0.370312)" xlink:href="#DejaVuSans-91"/>
      <use transform="translate(787.890625 0.370312)" xlink:href="#DejaVuSans-49"/>
      <use transform="translate(851.513672 0.370312)" xlink:href="#DejaVuSans-48"/>
      <use transform="translate(915.929414 36.607813)scale(0.7)" xlink:href="#STIXGeneral-Regular-120803"/>
      <use transform="translate(950.929403 36.607813)scale(0.7)" xlink:href="#STIXGeneral-Regular-120807"/>
      <use transform="translate(988.194236 0.370312)" xlink:href="#DejaVuSans-32"/>
      <use transform="translate(1019.981346 0.370312)" xlink:href="#DejaVuSans-107"/>
      <use transform="translate(1077.891502 0.370312)" xlink:href="#DejaVuSans-103"/>
      <use transform="translate(1141.368065 0.370312)" xlink:href="#DejaVuSans-93"/>
     </g>
    </g>
   </g>
   <g id="line2d_1">
    <path clip-path="url(#p9bdc25eb70)" d="M 46.145455 242.116364 
L 48.13975 241.529992 
L 50.101544 240.891566 
L 52.05999 240.209377 
L 54.038981 239.489575 
L 56.05716 238.712282 
L 58.127713 237.896252 
L 60.258571 237.013871 
L 62.453017 236.086341 
L 64.710675 235.114064 
L 67.030508 234.072883 
L 69.414028 232.958348 
L 71.868078 231.781283 
L 74.40604 230.534928 
L 77.044426 229.212475 
L 79.792908 227.778804 
L 82.655919 226.26818 
L 85.624014 224.637185 
L 88.675136 222.988428 
L 91.778723 221.213726 
L 94.910586 219.365166 
L 98.066167 217.356896 
L 101.245546 215.31702 
L 104.434954 213.036111 
L 107.619499 210.675913 
L 110.790324 208.26711 
L 113.940195 205.928911 
L 117.075525 203.576902 
L 120.218742 201.165505 
L 123.401555 198.648166 
L 126.64825 196.053682 
L 129.957611 193.46531 
L 133.325479 190.977439 
L 136.768463 188.536664 
L 140.306109 186.072204 
L 143.947141 183.496652 
L 147.702799 180.888618 
L 151.555151 178.17818 
L 155.447286 175.349215 
L 159.302207 172.319355 
L 163.063869 169.365824 
L 166.711113 166.409664 
L 170.256637 163.222284 
L 173.720357 160.02424 
L 177.136953 156.549339 
L 180.533006 152.920058 
L 183.912989 148.927707 
L 187.270973 144.936826 
L 190.61196 140.84535 
L 193.940252 136.593802 
L 197.260569 132.25517 
L 200.575776 127.826307 
L 203.891562 123.404725 
L 207.218463 118.932403 
L 210.568924 114.152675 
L 213.951784 109.100646 
L 217.370806 103.816579 
L 220.824096 98.112532 
L 224.307269 92.153145 
L 227.812912 86.220835 
L 231.334395 80.095625 
L 234.86904 73.615408 
L 238.414706 66.64629 
L 241.965406 59.491245 
L 245.514216 52.037356 
L 249.054545 44.443636 
" style="fill:none;stroke:#1f77b4;stroke-linecap:round;stroke-width:1.5;"/>
    <defs>
     <path d="M 0 1 
C 0.265203 1 0.51958 0.894634 0.707107 0.707107 
C 0.894634 0.51958 1 0.265203 1 0 
C 1 -0.265203 0.894634 -0.51958 0.707107 -0.707107 
C 0.51958 -0.894634 0.265203 -1 0 -1 
C -0.265203 -1 -0.51958 -0.894634 -0.707107 -0.707107 
C -0.894634 -0.51958 -1 -0.265203 -1 0 
C -1 0.265203 -0.894634 0.51958 -0.707107 0.707107 
C -0.51958 0.894634 -0.265203 1 0 1 
z
" id="m5a690b3b7a" style="stroke:#1f77b4;"/>
    </defs>
    <g clip-path="url(#p9bdc25eb70)">
     <use style="fill:#1f77b4;stroke:#1f77b4;" x="46.145455" xlink:href="#m5a690b3b7a" y="242.116364"/>
     <use style="fill:#1f77b4;stroke:#1f77b4;" x="48.13975" xlink:href="#m5a690b3b7a" y="241.529992"/>
     <use style="fill:#1f77b4;stroke:#1f77b4;" x="50.101544" xlink:href="#m5a690b3b7a" y="240.891566"/>
     <use style="fill:#1f77b4;stroke:#1f77b4;" x="52.05999" xlink:href="#m5a690b3b7a" y="240.209377"/>
     <use style="fill:#1f77b4;stroke:#1f77b4;" x="54.038981" xlink:href="#m5a690b3b7a" y="239.489575"/>
     <use style="fill:#1f77b4;stroke:#1f77b4;" x="56.05716" xlink:href="#m5a690b3b7a" y="238.712282"/>
     <use style="fill:#1f77b4;stroke:#1f77b4;" x="58.127713" xlink:href="#m5a690b3b7a" y="237.896252"/>
     <use style="fill:#1f77b4;stroke:#1f77b4;" x="60.258571" xlink:href="#m5a690b3b7a" y="237.013871"/>
     <use style="fill:#1f77b4;stroke:#1f77b4;" x="62.453017" xlink:href="#m5a690b3b7a" y="236.086341"/>
     <use style="fill:#1f77b4;stroke:#1f77b4;" x="64.710675" xlink:href="#m5a690b3b7a" y="235.114064"/>
     <use style="fill:#1f77b4;stroke:#1f77b4;" x="67.030508" xlink:href="#m5a690b3b7a" y="234.072883"/>
     <use style="fill:#1f77b4;stroke:#1f77b4;" x="69.414028" xlink:href="#m5a690b3b7a" y="232.958348"/>
     <use style="fill:#1f77b4;stroke:#1f77b4;" x="71.868078" xlink:href="#m5a690b3b7a" y="231.781283"/>
     <use style="fill:#1f77b4;stroke:#1f77b4;" x="74.40604" xlink:href="#m5a690b3b7a" y="230.534928"/>
     <use style="fill:#1f77b4;stroke:#1f77b4;" x="77.044426" xlink:href="#m5a690b3b7a" y="229.212475"/>
     <use style="fill:#1f77b4;stroke:#1f77b4;" x="79.792908" xlink:href="#m5a690b3b7a" y="227.778804"/>
     <use style="fill:#1f77b4;stroke:#1f77b4;" x="82.655919" xlink:href="#m5a690b3b7a" y="226.26818"/>
     <use style="fill:#1f77b4;stroke:#1f77b4;" x="85.624014" xlink:href="#m5a690b3b7a" y="224.637185"/>
     <use style="fill:#1f77b4;stroke:#1f77b4;" x="88.675136" xlink:href="#m5a690b3b7a" y="222.988428"/>
     <use style="fill:#1f77b4;stroke:#1f77b4;" x="91.778723" xlink:href="#m5a690b3b7a" y="221.213726"/>
     <use style="fill:#1f77b4;stroke:#1f77b4;" x="94.910586" xlink:href="#m5a690b3b7a" y="219.365166"/>
     <use style="fill:#1f77b4;stroke:#1f77b4;" x="98.066167" xlink:href="#m5a690b3b7a" y="217.356896"/>
     <use style="fill:#1f77b4;stroke:#1f77b4;" x="101.245546" xlink:href="#m5a690b3b7a" y="215.31702"/>
     <use style="fill:#1f77b4;stroke:#1f77b4;" x="104.434954" xlink:href="#m5a690b3b7a" y="213.036111"/>
     <use style="fill:#1f77b4;stroke:#1f77b4;" x="107.619499" xlink:href="#m5a690b3b7a" y="210.675913"/>
     <use style="fill:#1f77b4;stroke:#1f77b4;" x="110.790324" xlink:href="#m5a690b3b7a" y="208.26711"/>
     <use style="fill:#1f77b4;stroke:#1f77b4;" x="113.940195" xlink:href="#m5a690b3b7a" y="205.928911"/>
     <use style="fill:#1f77b4;stroke:#1f77b4;" x="117.075525" xlink:href="#m5a690b3b7a" y="203.576902"/>
     <use style="fill:#1f77b4;stroke:#1f77b4;" x="120.218742" xlink:href="#m5a690b3b7a" y="201.165505"/>
     <use style="fill:#1f77b4;stroke:#1f77b4;" x="123.401555" xlink:href="#m5a690b3b7a" y="198.648166"/>
     <use style="fill:#1f77b4;stroke:#1f77b4;" x="126.64825" xlink:href="#m5a690b3b7a" y="196.053682"/>
     <use style="fill:#1f77b4;stroke:#1f77b4;" x="129.957611" xlink:href="#m5a690b3b7a" y="193.46531"/>
     <use style="fill:#1f77b4;stroke:#1f77b4;" x="133.325479" xlink:href="#m5a690b3b7a" y="190.977439"/>
     <use style="fill:#1f77b4;stroke:#1f77b4;" x="136.768463" xlink:href="#m5a690b3b7a" y="188.536664"/>
     <use style="fill:#1f77b4;stroke:#1f77b4;" x="140.306109" xlink:href="#m5a690b3b7a" y="186.072204"/>
     <use style="fill:#1f77b4;stroke:#1f77b4;" x="143.947141" xlink:href="#m5a690b3b7a" y="183.496652"/>
     <use style="fill:#1f77b4;stroke:#1f77b4;" x="147.702799" xlink:href="#m5a690b3b7a" y="180.888618"/>
     <use style="fill:#1f77b4;stroke:#1f77b4;" x="151.555151" xlink:href="#m5a690b3b7a" y="178.17818"/>
     <use style="fill:#1f77b4;stroke:#1f77b4;" x="155.447286" xlink:href="#m5a690b3b7a" y="175.349215"/>
     <use style="fill:#1f77b4;stroke:#1f77b4;" x="159.302207" xlink:href="#m5a690b3b7a" y="172.319355"/>
     <use style="fill:#1f77b4;stroke:#1f77b4;" x="163.063869" xlink:href="#m5a690b3b7a" y="169.365824"/>
     <use style="fill:#1f77b4;stroke:#1f77b4;" x="166.711113" xlink:href="#m5a690b3b7a" y="166.409664"/>
     <use style="fill:#1f77b4;stroke:#1f77b4;" x="170.256637" xlink:href="#m5a690b3b7a" y="163.222284"/>
     <use style="fill:#1f77b4;stroke:#1f77b4;" x="173.720357" xlink:href="#m5a690b3b7a" y="160.02424"/>
     <use style="fill:#1f77b4;stroke:#1f77b4;" x="177.136953" xlink:href="#m5a690b3b7a" y="156.549339"/>
     <use style="fill:#1f77b4;stroke:#1f77b4;" x="180.533006" xlink:href="#m5a690b3b7a" y="152.920058"/>
     <use style="fill:#1f77b4;stroke:#1f77b4;" x="183.912989" xlink:href="#m5a690b3b7a" y="148.927707"/>
     <use style="fill:#1f77b4;stroke:#1f77b4;" x="187.270973" xlink:href="#m5a690b3b7a" y="144.936826"/>
     <use style="fill:#1f77b4;stroke:#1f77b4;" x="190.61196" xlink:href="#m5a690b3b7a" y="140.84535"/>
     <use style="fill:#1f77b4;stroke:#1f77b4;" x="193.940252" xlink:href="#m5a690b3b7a" y="136.593802"/>
     <use style="fill:#1f77b4;stroke:#1f77b4;" x="197.260569" xlink:href="#m5a690b3b7a" y="132.25517"/>
     <use style="fill:#1f77b4;stroke:#1f77b4;" x="200.575776" xlink:href="#m5a690b3b7a" y="127.826307"/>
     <use style="fill:#1f77b4;stroke:#1f77b4;" x="203.891562" xlink:href="#m5a690b3b7a" y="123.404725"/>
     <use style="fill:#1f77b4;stroke:#1f77b4;" x="207.218463" xlink:href="#m5a690b3b7a" y="118.932403"/>
     <use style="fill:#1f77b4;stroke:#1f77b4;" x="210.568924" xlink:href="#m5a690b3b7a" y="114.152675"/>
     <use style="fill:#1f77b4;stroke:#1f77b4;" x="213.951784" xlink:href="#m5a690b3b7a" y="109.100646"/>
     <use style="fill:#1f77b4;stroke:#1f77b4;" x="217.370806" xlink:href="#m5a690b3b7a" y="103.816579"/>
     <use style="fill:#1f77b4;stroke:#1f77b4;" x="220.824096" xlink:href="#m5a690b3b7a" y="98.112532"/>
     <use style="fill:#1f77b4;stroke:#1f77b4;" x="224.307269" xlink:href="#m5a690b3b7a" y="92.153145"/>
     <use style="fill:#1f77b4;stroke:#1f77b4;" x="227.812912" xlink:href="#m5a690b3b7a" y="86.220835"/>
     <use style="fill:#1f77b4;stroke:#1f77b4;" x="231.334395" xlink:href="#m5a690b3b7a" y="80.095625"/>
     <use style="fill:#1f77b4;stroke:#1f77b4;" x="234.86904" xlink:href="#m5a690b3b7a" y="73.615408"/>
     <use style="fill:#1f77b4;stroke:#1f77b4;" x="238.414706" xlink:href="#m5a690b3b7a" y="66.64629"/>
     <use style="fill:#1f77b4;stroke:#1f77b4;" x="241.965406" xlink:href="#m5a690b3b7a" y="59.491245"/>
     <use style="fill:#1f77b4;stroke:#1f77b4;" x="245.514216" xlink:href="#m5a690b3b7a" y="52.037356"/>
     <use style="fill:#1f77b4;stroke:#1f77b4;" x="249.054545" xlink:href="#m5a690b3b7a" y="44.443636"/>
    </g>
   </g>
   <g id="patch_3">
    <path d="M 36 252 
L 36 34.56 
" style="fill:none;stroke:#ffffff;stroke-linecap:square;stroke-linejoin:miter;stroke-width:0.8;"/>
   </g>
   <g id="patch_4">
    <path d="M 259.2 252 
L 259.2 34.56 
" style="fill:none;stroke:#ffffff;stroke-linecap:square;stroke-linejoin:miter;stroke-width:0.8;"/>
   </g>
   <g id="patch_5">
    <path d="M 36 252 
L 259.2 252 
" style="fill:none;stroke:#ffffff;stroke-linecap:square;stroke-linejoin:miter;stroke-width:0.8;"/>
   </g>
   <g id="patch_6">
    <path d="M 36 34.56 
L 259.2 34.56 
" style="fill:none;stroke:#ffffff;stroke-linecap:square;stroke-linejoin:miter;stroke-width:0.8;"/>
   </g>
  </g>
 </g>
 <defs>
  <clipPath id="p9bdc25eb70">
   <rect height="217.44" width="223.2" x="36" y="34.56"/>
  </clipPath>
 </defs>
</svg>
