<?xml version="1.0" encoding="utf-8" standalone="no"?>
<!DOCTYPE svg PUBLIC "-//W3C//DTD SVG 1.1//EN"
  "http://www.w3.org/Graphics/SVG/1.1/DTD/svg11.dtd">
<!-- Created with matplotlib (https://matplotlib.org/) -->
<svg height="142.185pt" version="1.1" viewBox="0 0 149.286563 142.185" width="149.286563pt" xmlns="http://www.w3.org/2000/svg" xmlns:xlink="http://www.w3.org/1999/xlink">
 <metadata>
  <rdf:RDF xmlns:cc="http://creativecommons.org/ns#" xmlns:dc="http://purl.org/dc/elements/1.1/" xmlns:rdf="http://www.w3.org/1999/02/22-rdf-syntax-ns#">
   <cc:Work>
    <dc:type rdf:resource="http://purl.org/dc/dcmitype/StillImage"/>
    <dc:date>2021-07-12T18:30:01.984433</dc:date>
    <dc:format>image/svg+xml</dc:format>
    <dc:creator>
     <cc:Agent>
      <dc:title>Matplotlib v3.3.4, https://matplotlib.org/</dc:title>
     </cc:Agent>
    </dc:creator>
   </cc:Work>
  </rdf:RDF>
 </metadata>
 <defs>
  <style type="text/css">*{stroke-linecap:butt;stroke-linejoin:round;}</style>
 </defs>
 <g id="figure_1">
  <g id="patch_1">
   <path d="M 0 142.185 
L 149.286563 142.185 
L 149.286563 0 
L 0 0 
z
" style="fill:#ffffff;"/>
  </g>
  <g id="axes_1">
   <g id="patch_2">
    <path d="M 30.486563 115.92 
L 142.086562 115.92 
L 142.086562 7.2 
L 30.486563 7.2 
z
" style="fill:#e3dcd0;"/>
   </g>
   <g id="matplotlib.axis_1">
    <g id="xtick_1">
     <g id="text_1">
      <!-- 3 -->
      <g transform="translate(38.743811 124.045625)scale(0.06 -0.06)">
       <defs>
        <path d="M 10.15625 0.53125 
L 10.15625 9.515625 
Q 20.453125 5.421875 26.375 5.421875 
Q 33.34375 5.421875 37.671875 9.421875 
Q 42 13.421875 42 19.875 
Q 42 35.109375 20.65625 35.109375 
L 16.84375 35.109375 
L 16.84375 41.609375 
L 20.21875 41.65625 
Q 40.234375 41.65625 40.234375 55.765625 
Q 40.234375 66.84375 26.953125 66.84375 
Q 19.828125 66.84375 11.140625 62.796875 
L 11.140625 71.1875 
Q 19.671875 74.078125 27.59375 74.078125 
Q 38.375 74.078125 44.140625 69.78125 
Q 49.90625 65.484375 49.90625 57.328125 
Q 49.90625 44.578125 34.8125 39.15625 
Q 52.296875 35.109375 52.296875 20.015625 
Q 52.296875 9.8125 45.546875 4 
Q 38.8125 -1.8125 27.046875 -1.8125 
Q 20.359375 -1.8125 10.15625 0.53125 
z
" id="LucidaSansUnicode-51"/>
       </defs>
       <use xlink:href="#LucidaSansUnicode-51"/>
      </g>
     </g>
    </g>
    <g id="xtick_2">
     <g id="text_2">
      <!-- 4 -->
      <g transform="translate(60.641 124.045625)scale(0.06 -0.06)">
       <defs>
        <path d="M 37.640625 0 
L 37.640625 20.453125 
L 5.125 20.453125 
L 5.125 27.734375 
L 37.640625 72.265625 
L 46.6875 72.265625 
L 46.6875 28.328125 
L 56.34375 28.328125 
L 56.34375 20.453125 
L 46.6875 20.453125 
L 46.6875 0 
z
M 14.546875 28.328125 
L 38.28125 28.328125 
L 38.28125 60.453125 
z
" id="LucidaSansUnicode-52"/>
       </defs>
       <use xlink:href="#LucidaSansUnicode-52"/>
      </g>
     </g>
    </g>
    <g id="xtick_3">
     <g id="text_3">
      <!-- 5 -->
      <g transform="translate(82.538189 124.045625)scale(0.06 -0.06)">
       <defs>
        <path d="M 12.15625 -0.296875 
L 12.15625 8.296875 
Q 19.34375 5.421875 25.828125 5.421875 
Q 32.953125 5.421875 37.03125 9.609375 
Q 41.109375 13.8125 41.109375 21.1875 
Q 41.109375 29.109375 35.34375 33.28125 
Q 29.59375 37.453125 18.703125 37.453125 
Q 16.15625 37.453125 13.375 37.109375 
L 13.375 72.265625 
L 49.953125 72.265625 
L 49.953125 63.875 
L 21.828125 63.875 
L 21.828125 44.828125 
Q 35.75 44.828125 43.5625 38.421875 
Q 51.375 32.03125 51.375 20.703125 
Q 51.375 10.15625 44.265625 4.171875 
Q 37.15625 -1.8125 24.65625 -1.8125 
Q 19.09375 -1.8125 12.15625 -0.296875 
z
" id="LucidaSansUnicode-53"/>
       </defs>
       <use xlink:href="#LucidaSansUnicode-53"/>
      </g>
     </g>
    </g>
    <g id="xtick_4">
     <g id="text_4">
      <!-- 6 -->
      <g transform="translate(104.435378 124.045625)scale(0.06 -0.06)">
       <defs>
        <path d="M 17.1875 37.453125 
Q 24.078125 46.390625 34.515625 46.390625 
Q 44 46.390625 50.03125 40.109375 
Q 56.0625 33.84375 56.0625 24.03125 
Q 56.0625 12.75 49.296875 5.46875 
Q 42.53125 -1.8125 32.078125 -1.8125 
Q 20.171875 -1.8125 13.421875 7.828125 
Q 6.6875 17.484375 6.6875 34.515625 
Q 6.6875 57.46875 18.453125 68.21875 
Q 24.859375 74.125 36.140625 74.125 
Q 42.671875 74.125 52.34375 71.390625 
L 52.34375 62.984375 
Q 42.140625 66.890625 35.546875 66.890625 
Q 17.1875 66.890625 17.1875 37.453125 
z
M 46.390625 22.125 
Q 46.390625 30.125 42.671875 34.78125 
Q 38.96875 39.453125 32.515625 39.453125 
Q 26.375 39.453125 21.96875 35.34375 
Q 17.578125 31.25 17.578125 25.484375 
Q 17.578125 16.40625 21.75 10.90625 
Q 25.921875 5.421875 32.8125 5.421875 
Q 39.0625 5.421875 42.71875 9.90625 
Q 46.390625 14.40625 46.390625 22.125 
z
" id="LucidaSansUnicode-54"/>
       </defs>
       <use xlink:href="#LucidaSansUnicode-54"/>
      </g>
     </g>
    </g>
    <g id="xtick_5">
     <g id="text_5">
      <!-- 7 -->
      <g transform="translate(126.332567 124.045625)scale(0.06 -0.06)">
       <defs>
        <path d="M 15.046875 0 
Q 16.453125 8.453125 19.0625 14.59375 
Q 21.6875 20.75 28.328125 31.5 
L 48.046875 63.234375 
L 10.84375 63.234375 
L 10.84375 72.265625 
L 57.234375 72.265625 
L 57.234375 63.234375 
Q 29.4375 22.265625 26.125 0 
z
" id="LucidaSansUnicode-55"/>
       </defs>
       <use xlink:href="#LucidaSansUnicode-55"/>
      </g>
     </g>
    </g>
    <g id="text_6">
     <!-- population [billion] -->
     <g style="fill:#262626;" transform="translate(58.626562 133.828125)scale(0.06 -0.06)">
      <defs>
       <path d="M 9.625 -19.28125 
L 9.625 53.03125 
L 19.234375 53.03125 
L 19.234375 43.0625 
Q 25.140625 54.203125 36.96875 54.203125 
Q 46.53125 54.203125 52.015625 47.21875 
Q 57.515625 40.234375 57.515625 28.125 
Q 57.515625 14.9375 51.28125 6.859375 
Q 45.0625 -1.21875 34.90625 -1.21875 
Q 25.484375 -1.21875 19.234375 6 
L 19.234375 -19.28125 
z
M 19.234375 12.640625 
Q 26.65625 6 33.40625 6 
Q 40.046875 6 43.65625 11.546875 
Q 47.265625 17.09375 47.265625 27.15625 
Q 47.265625 45.796875 34.96875 45.796875 
Q 26.90625 45.796875 19.234375 37.0625 
z
" id="LucidaSansUnicode-112"/>
       <path d="M 30.71875 -1.21875 
Q 19.046875 -1.21875 12.234375 6.25 
Q 5.421875 13.71875 5.421875 26.515625 
Q 5.421875 39.3125 12.234375 46.75 
Q 19.046875 54.203125 30.71875 54.203125 
Q 42.390625 54.203125 49.1875 46.75 
Q 56 39.3125 56 26.515625 
Q 56 13.71875 49.1875 6.25 
Q 42.390625 -1.21875 30.71875 -1.21875 
z
M 30.71875 6 
Q 37.890625 6 41.84375 11.375 
Q 45.796875 16.75 45.796875 26.515625 
Q 45.796875 36.28125 41.84375 41.625 
Q 37.890625 46.96875 30.71875 46.96875 
Q 23.53125 46.96875 19.59375 41.625 
Q 15.671875 36.28125 15.671875 26.515625 
Q 15.671875 16.75 19.59375 11.375 
Q 23.53125 6 30.71875 6 
z
" id="LucidaSansUnicode-111"/>
       <path d="M 42.78125 0 
L 42.78125 9.96875 
Q 35.109375 -1.21875 24.171875 -1.21875 
Q 17.234375 -1.21875 13.125 3.140625 
Q 9.03125 7.515625 9.03125 14.9375 
L 9.03125 53.03125 
L 18.65625 53.03125 
L 18.65625 18.0625 
Q 18.65625 12.109375 20.390625 9.59375 
Q 22.125 7.078125 26.171875 7.078125 
Q 34.96875 7.078125 42.78125 18.65625 
L 42.78125 53.03125 
L 52.390625 53.03125 
L 52.390625 0 
z
" id="LucidaSansUnicode-117"/>
       <path d="M 9.625 0 
L 9.625 77.09375 
L 19.234375 77.09375 
L 19.234375 0 
z
" id="LucidaSansUnicode-108"/>
       <path d="M 36.96875 6.734375 
Q 28.328125 -1.21875 20.3125 -1.21875 
Q 13.71875 -1.21875 9.375 2.90625 
Q 5.03125 7.03125 5.03125 13.328125 
Q 5.03125 22.015625 12.328125 26.671875 
Q 19.625 31.34375 33.296875 31.34375 
L 35.546875 31.34375 
L 35.546875 37.75 
Q 35.546875 46.96875 25.921875 46.96875 
Q 18.453125 46.96875 9.625 42.28125 
L 9.625 50.25 
Q 19.34375 54.203125 27.9375 54.203125 
Q 36.765625 54.203125 40.96875 50.171875 
Q 45.171875 46.140625 45.171875 37.75 
L 45.171875 13.71875 
Q 45.171875 5.46875 50.25 5.46875 
Q 50.875 5.46875 52.09375 5.671875 
L 52.78125 0.34375 
Q 49.515625 -1.21875 45.5625 -1.21875 
Q 38.8125 -1.21875 36.96875 6.734375 
z
M 35.546875 11.96875 
L 35.546875 25.6875 
L 32.46875 25.78125 
Q 24.46875 25.78125 19.5625 22.796875 
Q 14.65625 19.828125 14.65625 14.890625 
Q 14.65625 11.421875 17.09375 9.03125 
Q 19.53125 6.640625 23.046875 6.640625 
Q 29.046875 6.640625 35.546875 11.96875 
z
" id="LucidaSansUnicode-97"/>
       <path d="M 33.25 0 
Q 28.8125 -1.21875 25.53125 -1.21875 
Q 18.21875 -1.21875 14.109375 2.96875 
Q 10.015625 7.171875 10.015625 14.65625 
L 10.015625 45.796875 
L 3.375 45.796875 
L 3.375 53.03125 
L 10.015625 53.03125 
L 10.015625 62.640625 
L 19.625 63.578125 
L 19.625 53.03125 
L 33.5 53.03125 
L 33.5 45.796875 
L 19.625 45.796875 
L 19.625 16.40625 
Q 19.625 6 28.609375 6 
Q 30.515625 6 33.25 6.640625 
z
" id="LucidaSansUnicode-116"/>
       <path d="M 9.625 0 
L 9.625 53.03125 
L 19.234375 53.03125 
L 19.234375 0 
z
M 9.625 62.640625 
L 9.625 72.265625 
L 19.234375 72.265625 
L 19.234375 62.640625 
z
" id="LucidaSansUnicode-105"/>
       <path d="M 9.625 0 
L 9.625 53.03125 
L 19.234375 53.03125 
L 19.234375 43.0625 
Q 26.859375 54.203125 37.890625 54.203125 
Q 44.828125 54.203125 48.90625 49.828125 
Q 52.984375 45.453125 52.984375 38.09375 
L 52.984375 0 
L 43.359375 0 
L 43.359375 34.96875 
Q 43.359375 40.875 41.625 43.390625 
Q 39.890625 45.90625 35.890625 45.90625 
Q 27.046875 45.90625 19.234375 34.328125 
L 19.234375 0 
z
" id="LucidaSansUnicode-110"/>
       <path id="LucidaSansUnicode-32"/>
       <path d="M 9.625 -14.453125 
L 9.625 77.09375 
L 28.90625 77.09375 
L 28.90625 69.875 
L 18.0625 69.875 
L 18.0625 -7.234375 
L 28.90625 -7.234375 
L 28.90625 -14.453125 
z
" id="LucidaSansUnicode-91"/>
       <path d="M 9.625 -0.59375 
L 9.625 77.09375 
L 19.234375 77.09375 
L 19.234375 43.0625 
Q 25.140625 54.203125 36.96875 54.203125 
Q 46.53125 54.203125 52.015625 47.21875 
Q 57.515625 40.234375 57.515625 28.125 
Q 57.515625 14.9375 51.28125 6.859375 
Q 45.0625 -1.21875 34.90625 -1.21875 
Q 25.484375 -1.21875 19.234375 6 
L 18.0625 -0.59375 
z
M 19.234375 12.640625 
Q 26.65625 6 33.40625 6 
Q 40.046875 6 43.65625 11.546875 
Q 47.265625 17.09375 47.265625 27.15625 
Q 47.265625 45.796875 34.96875 45.796875 
Q 26.90625 45.796875 19.234375 37.0625 
z
" id="LucidaSansUnicode-98"/>
       <path d="M 22.90625 77.09375 
L 22.90625 -14.453125 
L 3.609375 -14.453125 
L 3.609375 -7.234375 
L 14.453125 -7.234375 
L 14.453125 69.875 
L 3.609375 69.875 
L 3.609375 77.09375 
z
" id="LucidaSansUnicode-93"/>
      </defs>
      <use xlink:href="#LucidaSansUnicode-112"/>
      <use x="62.939453" xlink:href="#LucidaSansUnicode-111"/>
      <use x="124.365234" xlink:href="#LucidaSansUnicode-112"/>
      <use x="187.304688" xlink:href="#LucidaSansUnicode-117"/>
      <use x="249.365234" xlink:href="#LucidaSansUnicode-108"/>
      <use x="278.271484" xlink:href="#LucidaSansUnicode-97"/>
      <use x="333.496094" xlink:href="#LucidaSansUnicode-116"/>
      <use x="370.898438" xlink:href="#LucidaSansUnicode-105"/>
      <use x="399.804688" xlink:href="#LucidaSansUnicode-111"/>
      <use x="461.230469" xlink:href="#LucidaSansUnicode-110"/>
      <use x="523.291016" xlink:href="#LucidaSansUnicode-32"/>
      <use x="554.931641" xlink:href="#LucidaSansUnicode-91"/>
      <use x="587.451172" xlink:href="#LucidaSansUnicode-98"/>
      <use x="650.390625" xlink:href="#LucidaSansUnicode-105"/>
      <use x="679.296875" xlink:href="#LucidaSansUnicode-108"/>
      <use x="708.203125" xlink:href="#LucidaSansUnicode-108"/>
      <use x="737.109375" xlink:href="#LucidaSansUnicode-105"/>
      <use x="766.015625" xlink:href="#LucidaSansUnicode-111"/>
      <use x="827.441406" xlink:href="#LucidaSansUnicode-110"/>
      <use x="889.501953" xlink:href="#LucidaSansUnicode-93"/>
     </g>
    </g>
   </g>
   <g id="matplotlib.axis_2">
    <g id="ytick_1">
     <g id="text_7">
      <!-- 0.0 -->
      <g transform="translate(17.5 118.232812)scale(0.06 -0.06)">
       <defs>
        <path d="M 31.640625 -1.8125 
Q 20.265625 -1.8125 13.296875 8.609375 
Q 6.34375 19.046875 6.34375 36.140625 
Q 6.34375 53.21875 13.296875 63.640625 
Q 20.265625 74.078125 31.640625 74.078125 
Q 43.0625 74.078125 50 63.671875 
Q 56.9375 53.265625 56.9375 36.140625 
Q 56.9375 19.046875 50 8.609375 
Q 43.0625 -1.8125 31.640625 -1.8125 
z
M 31.640625 5.421875 
Q 46.734375 5.421875 46.734375 36.140625 
Q 46.734375 66.84375 31.640625 66.84375 
Q 16.609375 66.84375 16.609375 36.140625 
Q 16.609375 5.421875 31.640625 5.421875 
z
" id="LucidaSansUnicode-48"/>
        <path d="M 9.765625 0 
L 9.765625 12.0625 
L 21.828125 12.0625 
L 21.828125 0 
z
" id="LucidaSansUnicode-46"/>
       </defs>
       <use xlink:href="#LucidaSansUnicode-48"/>
       <use x="63.232422" xlink:href="#LucidaSansUnicode-46"/>
       <use x="94.873047" xlink:href="#LucidaSansUnicode-48"/>
      </g>
     </g>
    </g>
    <g id="ytick_2">
     <g id="text_8">
      <!-- 0.2 -->
      <g transform="translate(17.5 101.407047)scale(0.06 -0.06)">
       <defs>
        <path d="M 8.296875 0 
L 8.296875 8.453125 
Q 12.5 18.265625 25.296875 29.828125 
L 30.8125 34.765625 
Q 41.453125 44.390625 41.453125 53.859375 
Q 41.453125 59.90625 37.8125 63.375 
Q 34.1875 66.84375 27.78125 66.84375 
Q 20.3125 66.84375 10.109375 61.03125 
L 10.109375 69.53125 
Q 19.734375 74.078125 29.25 74.078125 
Q 39.40625 74.078125 45.53125 68.609375 
Q 51.65625 63.140625 51.65625 54.109375 
Q 51.65625 47.609375 48.546875 42.578125 
Q 45.453125 37.546875 37.015625 30.375 
L 33.296875 27.203125 
Q 21.734375 17.390625 19.921875 8.453125 
L 51.3125 8.453125 
L 51.3125 0 
z
" id="LucidaSansUnicode-50"/>
       </defs>
       <use xlink:href="#LucidaSansUnicode-48"/>
       <use x="63.232422" xlink:href="#LucidaSansUnicode-46"/>
       <use x="94.873047" xlink:href="#LucidaSansUnicode-50"/>
      </g>
     </g>
    </g>
    <g id="ytick_3">
     <g id="text_9">
      <!-- 0.4 -->
      <g transform="translate(17.5 84.581281)scale(0.06 -0.06)">
       <use xlink:href="#LucidaSansUnicode-48"/>
       <use x="63.232422" xlink:href="#LucidaSansUnicode-46"/>
       <use x="94.873047" xlink:href="#LucidaSansUnicode-52"/>
      </g>
     </g>
    </g>
    <g id="ytick_4">
     <g id="text_10">
      <!-- 0.6 -->
      <g transform="translate(17.5 67.755515)scale(0.06 -0.06)">
       <use xlink:href="#LucidaSansUnicode-48"/>
       <use x="63.232422" xlink:href="#LucidaSansUnicode-46"/>
       <use x="94.873047" xlink:href="#LucidaSansUnicode-54"/>
      </g>
     </g>
    </g>
    <g id="ytick_5">
     <g id="text_11">
      <!-- 0.8 -->
      <g transform="translate(17.5 50.929749)scale(0.06 -0.06)">
       <defs>
        <path d="M 23 39.359375 
Q 17.046875 43.5 14.71875 47.0625 
Q 12.40625 50.640625 12.40625 55.671875 
Q 12.40625 63.875 18.40625 69 
Q 24.421875 74.125 34.078125 74.125 
Q 43.015625 74.125 48.5625 69.78125 
Q 54.109375 65.4375 54.109375 58.5 
Q 54.109375 48 40.625 39.359375 
Q 56.984375 31.34375 56.984375 18.703125 
Q 56.984375 9.671875 50.140625 3.921875 
Q 43.3125 -1.8125 32.5625 -1.8125 
Q 21.828125 -1.8125 15.234375 3.578125 
Q 8.640625 8.984375 8.640625 17.78125 
Q 8.640625 30.765625 23 39.359375 
z
M 35.25 42.390625 
Q 45.359375 49.03125 45.359375 57.171875 
Q 45.359375 61.53125 41.96875 64.1875 
Q 38.578125 66.84375 33.109375 66.84375 
Q 27.78125 66.84375 24.453125 64.234375 
Q 21.140625 61.625 21.140625 57.46875 
Q 21.140625 53.421875 24.140625 50.1875 
Q 27.15625 46.96875 35.25 42.390625 
z
M 28.21875 35.453125 
Q 22.40625 30.953125 20.328125 27.609375 
Q 18.265625 24.265625 18.265625 19.28125 
Q 18.265625 13.09375 22.265625 9.25 
Q 26.265625 5.421875 32.8125 5.421875 
Q 39.109375 5.421875 43.09375 8.6875 
Q 47.078125 11.96875 47.078125 17.1875 
Q 47.078125 21.390625 44.609375 24.296875 
Q 42.140625 27.203125 35.0625 31.390625 
z
" id="LucidaSansUnicode-56"/>
       </defs>
       <use xlink:href="#LucidaSansUnicode-48"/>
       <use x="63.232422" xlink:href="#LucidaSansUnicode-46"/>
       <use x="94.873047" xlink:href="#LucidaSansUnicode-56"/>
      </g>
     </g>
    </g>
    <g id="ytick_6">
     <g id="text_12">
      <!-- 1.0 -->
      <g transform="translate(17.5 34.103983)scale(0.06 -0.06)">
       <defs>
        <path d="M 26.171875 0 
L 26.171875 65.046875 
L 14.75 65.046875 
L 14.75 71.09375 
L 35.84375 72.90625 
L 35.84375 0 
z
" id="LucidaSansUnicode-49"/>
       </defs>
       <use xlink:href="#LucidaSansUnicode-49"/>
       <use x="63.232422" xlink:href="#LucidaSansUnicode-46"/>
       <use x="94.873047" xlink:href="#LucidaSansUnicode-48"/>
      </g>
     </g>
    </g>
    <g id="ytick_7">
     <g id="text_13">
      <!-- 1.2 -->
      <g transform="translate(17.5 17.278217)scale(0.06 -0.06)">
       <use xlink:href="#LucidaSansUnicode-49"/>
       <use x="63.232422" xlink:href="#LucidaSansUnicode-46"/>
       <use x="94.873047" xlink:href="#LucidaSansUnicode-50"/>
      </g>
     </g>
    </g>
    <g id="text_14">
     <!-- anthropomass [10$^{15}$ kg] -->
     <g style="fill:#262626;" transform="translate(12.24 95.85)rotate(-90)scale(0.06 -0.06)">
      <defs>
       <path d="M 9.625 0 
L 9.625 77.09375 
L 19.234375 77.09375 
L 19.234375 43.0625 
Q 26.859375 54.203125 37.890625 54.203125 
Q 44.828125 54.203125 48.90625 49.828125 
Q 52.984375 45.453125 52.984375 38.09375 
L 52.984375 0 
L 43.359375 0 
L 43.359375 34.96875 
Q 43.359375 40.875 41.625 43.390625 
Q 39.890625 45.90625 35.890625 45.90625 
Q 27.046875 45.90625 19.234375 34.328125 
L 19.234375 0 
z
" id="LucidaSansUnicode-104"/>
       <path d="M 9.625 0 
L 9.625 53.03125 
L 19.234375 53.03125 
L 19.234375 43.0625 
Q 24.953125 54.203125 35.84375 54.203125 
Q 37.3125 54.203125 38.921875 53.953125 
L 38.921875 44.96875 
Q 36.421875 45.796875 34.515625 45.796875 
Q 25.390625 45.796875 19.234375 34.96875 
L 19.234375 0 
z
" id="LucidaSansUnicode-114"/>
       <path d="M 9.625 0 
L 9.625 53.03125 
L 19.234375 53.03125 
L 19.234375 43.0625 
Q 26.265625 54.203125 37.3125 54.203125 
Q 47.953125 54.203125 51.8125 43.0625 
Q 58.640625 54.25 69.578125 54.25 
Q 76.5625 54.25 80.4375 50.125 
Q 84.328125 46 84.328125 38.578125 
L 84.328125 0 
L 74.65625 0 
L 74.65625 37.0625 
Q 74.65625 46.140625 67.484375 46.140625 
Q 60.015625 46.140625 51.8125 35.546875 
L 51.8125 0 
L 42.140625 0 
L 42.140625 37.0625 
Q 42.140625 46.1875 34.8125 46.1875 
Q 27.546875 46.1875 19.234375 35.546875 
L 19.234375 0 
z
" id="LucidaSansUnicode-109"/>
       <path d="M 7.671875 1.859375 
L 7.671875 10.6875 
Q 17.09375 6 24.078125 6 
Q 28.21875 6 30.953125 8.25 
Q 33.6875 10.5 33.6875 13.875 
Q 33.6875 18.796875 26.03125 22.015625 
L 20.40625 24.421875 
Q 7.953125 29.59375 7.953125 39.3125 
Q 7.953125 46.234375 12.859375 50.21875 
Q 17.78125 54.203125 26.3125 54.203125 
Q 30.765625 54.203125 37.3125 52.984375 
L 39.3125 52.59375 
L 39.3125 44.578125 
Q 31.25 46.96875 26.46875 46.96875 
Q 22.265625 46.96875 19.75 45.140625 
Q 17.234375 43.3125 17.234375 40.234375 
Q 17.234375 35.890625 24.265625 32.90625 
L 28.90625 30.953125 
Q 36.765625 27.640625 40.03125 23.953125 
Q 43.3125 20.265625 43.3125 14.75 
Q 43.3125 7.765625 37.796875 3.265625 
Q 32.28125 -1.21875 23.6875 -1.21875 
Q 17.09375 -1.21875 7.671875 1.859375 
z
" id="LucidaSansUnicode-115"/>
       <path d="M 30.203125 0 
L 22.296875 0 
L 22.296875 57 
Q 20.09375 56 15.75 53.75 
Q 11.40625 51.5 10.796875 51.203125 
L 10.796875 58.5 
L 28.796875 67.703125 
L 30.203125 67.203125 
z
" id="STIXGeneral-Regular-120803"/>
       <path d="M 45.796875 67.59375 
L 42.59375 60.5 
L 24.90625 60.5 
L 18.5 47.796875 
Q 29.90625 46.203125 37.25 39.75 
Q 44.59375 33.296875 44.59375 22.59375 
Q 44.59375 12.703125 37.84375 5.640625 
Q 31.09375 -1.40625 21 -1.40625 
Q 10 -1.40625 3.59375 5.59375 
L 8.296875 11.203125 
Q 13.40625 5.703125 20.5 5.703125 
Q 27.90625 5.703125 32.296875 10.75 
Q 36.703125 15.796875 36.703125 22.59375 
Q 36.703125 30 30.09375 35.203125 
Q 23.40625 40.703125 9.40625 40.703125 
L 8 42.40625 
L 19.59375 67.59375 
z
" id="STIXGeneral-Regular-120807"/>
       <path d="M 9.625 0 
L 9.625 77.09375 
L 19.234375 77.09375 
L 19.234375 27.296875 
L 41.703125 53.03125 
L 52.046875 53.03125 
L 30.609375 28.265625 
L 56.5 0 
L 44.1875 0 
L 19.234375 27.203125 
L 19.234375 0 
z
" id="LucidaSansUnicode-107"/>
       <path d="M 9.8125 -17.625 
L 10.9375 -9.28125 
Q 19.28125 -13.234375 27.4375 -13.234375 
Q 43.65625 -13.234375 43.65625 4 
L 43.65625 12.359375 
Q 41.15625 7.078125 36.546875 4.140625 
Q 31.9375 1.21875 26.265625 1.21875 
Q 16.65625 1.21875 11.03125 8.125 
Q 5.421875 15.046875 5.421875 26.859375 
Q 5.421875 38.96875 11.8125 46.578125 
Q 18.21875 54.203125 28.375 54.203125 
Q 37.25 54.203125 43.65625 46.96875 
L 43.65625 53.03125 
L 53.328125 53.03125 
L 53.328125 14.453125 
Q 53.328125 2 52.03125 -3.984375 
Q 50.734375 -9.96875 47.171875 -13.765625 
Q 40.875 -20.453125 27.484375 -20.453125 
Q 18.3125 -20.453125 9.8125 -17.625 
z
M 43.65625 18.359375 
L 43.65625 40.375 
Q 37.3125 46.96875 29.828125 46.96875 
Q 23.1875 46.96875 19.421875 41.640625 
Q 15.671875 36.328125 15.671875 26.90625 
Q 15.671875 9.625 27.9375 9.625 
Q 36.28125 9.625 43.65625 18.359375 
z
" id="LucidaSansUnicode-103"/>
      </defs>
      <use transform="translate(0 0.370312)" xlink:href="#LucidaSansUnicode-97"/>
      <use transform="translate(55.224609 0.370312)" xlink:href="#LucidaSansUnicode-110"/>
      <use transform="translate(117.285156 0.370312)" xlink:href="#LucidaSansUnicode-116"/>
      <use transform="translate(154.6875 0.370312)" xlink:href="#LucidaSansUnicode-104"/>
      <use transform="translate(216.748047 0.370312)" xlink:href="#LucidaSansUnicode-114"/>
      <use transform="translate(257.666016 0.370312)" xlink:href="#LucidaSansUnicode-111"/>
      <use transform="translate(319.091797 0.370312)" xlink:href="#LucidaSansUnicode-112"/>
      <use transform="translate(382.03125 0.370312)" xlink:href="#LucidaSansUnicode-111"/>
      <use transform="translate(443.457031 0.370312)" xlink:href="#LucidaSansUnicode-109"/>
      <use transform="translate(536.816406 0.370312)" xlink:href="#LucidaSansUnicode-97"/>
      <use transform="translate(592.041016 0.370312)" xlink:href="#LucidaSansUnicode-115"/>
      <use transform="translate(643.017578 0.370312)" xlink:href="#LucidaSansUnicode-115"/>
      <use transform="translate(693.994141 0.370312)" xlink:href="#LucidaSansUnicode-32"/>
      <use transform="translate(725.634766 0.370312)" xlink:href="#LucidaSansUnicode-91"/>
      <use transform="translate(758.154297 0.370312)" xlink:href="#LucidaSansUnicode-49"/>
      <use transform="translate(821.386719 0.370312)" xlink:href="#LucidaSansUnicode-48"/>
      <use transform="translate(885.411836 36.607813)scale(0.7)" xlink:href="#STIXGeneral-Regular-120803"/>
      <use transform="translate(920.411825 36.607813)scale(0.7)" xlink:href="#STIXGeneral-Regular-120807"/>
      <use transform="translate(957.676658 0.370312)" xlink:href="#LucidaSansUnicode-32"/>
      <use transform="translate(989.317283 0.370312)" xlink:href="#LucidaSansUnicode-107"/>
      <use transform="translate(1047.764549 0.370312)" xlink:href="#LucidaSansUnicode-103"/>
      <use transform="translate(1110.118065 0.370312)" xlink:href="#LucidaSansUnicode-93"/>
     </g>
    </g>
   </g>
   <g id="PolyCollection_1">
    <defs>
     <path d="M 30.486562 -27.411987 
L 30.486562 -26.265 
L 31.5276 -26.265 
L 32.551679 -26.265 
L 33.573095 -26.265 
L 34.603842 -26.265 
L 35.653594 -26.265 
L 36.729642 -26.265 
L 37.836957 -26.265 
L 38.978435 -26.265 
L 40.155265 -26.265 
L 41.368104 -26.265 
L 42.618274 -26.265 
L 43.908872 -26.265 
L 45.245194 -26.265 
L 46.633463 -26.265 
L 48.076968 -26.265 
L 49.577554 -26.265 
L 51.130775 -26.265 
L 52.725478 -26.265 
L 54.346414 -26.265 
L 55.981524 -26.265 
L 57.628482 -26.265 
L 59.287288 -26.265 
L 60.951333 -26.265 
L 62.613536 -26.265 
L 64.269819 -26.265 
L 65.916496 -26.265 
L 67.556895 -26.265 
L 69.203035 -26.265 
L 70.87179 -26.265 
L 72.575955 -26.265 
L 74.315342 -26.265 
L 76.08749 -26.265 
L 77.899585 -26.265 
L 79.759817 -26.265 
L 81.671397 -26.265 
L 83.63889 -26.265 
L 85.653495 -26.265 
L 87.6882 -26.265 
L 89.706643 -26.265 
L 91.681952 -26.265 
L 93.604861 -26.265 
L 95.480188 -26.265 
L 97.312844 -26.265 
L 99.113338 -26.265 
L 100.890398 -26.265 
L 102.644157 -26.265 
L 104.374063 -26.265 
L 106.08817 -26.265 
L 107.796617 -26.265 
L 109.507655 -26.265 
L 111.224508 -26.265 
L 112.948637 -26.265 
L 114.684194 -26.265 
L 116.435134 -26.265 
L 118.204176 -26.265 
L 119.992925 -26.265 
L 121.800991 -26.265 
L 123.62618 -26.265 
L 125.464882 -26.265 
L 127.31362 -26.265 
L 129.171365 -26.265 
L 131.036313 -26.265 
L 132.903038 -26.265 
L 134.764881 -26.265 
L 136.616415 -26.265 
L 136.616415 -61.363363 
L 136.616415 -61.363363 
L 134.764881 -59.642328 
L 132.903038 -57.877507 
L 131.036313 -56.139096 
L 129.171365 -54.517135 
L 127.31362 -52.958531 
L 125.464882 -51.579936 
L 123.62618 -50.306898 
L 121.800991 -49.12945 
L 119.992925 -47.954287 
L 118.204176 -46.866347 
L 116.435134 -45.915282 
L 114.684194 -45.032023 
L 112.948637 -44.230341 
L 111.224508 -43.514175 
L 109.507655 -42.840027 
L 107.796617 -42.205348 
L 106.08817 -41.595172 
L 104.374063 -41.006395 
L 102.644157 -40.39848 
L 100.890398 -39.811954 
L 99.113338 -39.243231 
L 97.312844 -38.705359 
L 95.480188 -38.204732 
L 93.604861 -37.791347 
L 91.681952 -37.33343 
L 89.706643 -36.949414 
L 87.6882 -36.558456 
L 85.653495 -36.115642 
L 83.63889 -35.702347 
L 81.671397 -35.309909 
L 79.759817 -34.937734 
L 77.899585 -34.56826 
L 76.08749 -34.207572 
L 74.315342 -33.855403 
L 72.575955 -33.496683 
L 70.87179 -33.134997 
L 69.203035 -32.770668 
L 67.556895 -32.41258 
L 65.916496 -32.0788 
L 64.269819 -31.7741 
L 62.613536 -31.481459 
L 60.951333 -31.182567 
L 59.287288 -30.877873 
L 57.628482 -30.591365 
L 55.981524 -30.339648 
L 54.346414 -30.092835 
L 52.725478 -29.858159 
L 51.130775 -29.634761 
L 49.577554 -29.426316 
L 48.076968 -29.223368 
L 46.633463 -29.033657 
L 45.245194 -28.850163 
L 43.908872 -28.685001 
L 42.618274 -28.527934 
L 41.368104 -28.382207 
L 40.155265 -28.243099 
L 38.978435 -28.114639 
L 37.836957 -28.001284 
L 36.729642 -27.89462 
L 35.653594 -27.792251 
L 34.603842 -27.698224 
L 33.573095 -27.615011 
L 32.551679 -27.53986 
L 31.5276 -27.473065 
L 30.486562 -27.411987 
z
" id="m392010888a" style="stroke:#ffffff;stroke-width:0.25;"/>
    </defs>
    <g clip-path="url(#pa31e381146)">
     <use style="fill:#a9a9a9;stroke:#ffffff;stroke-width:0.25;" x="0" xlink:href="#m392010888a" y="142.185"/>
    </g>
   </g>
   <g id="PolyCollection_2">
    <defs>
     <path d="M 30.486562 -30.645765 
L 30.486562 -27.411987 
L 31.5276 -27.473065 
L 32.551679 -27.53986 
L 33.573095 -27.615011 
L 34.603842 -27.698224 
L 35.653594 -27.792251 
L 36.729642 -27.89462 
L 37.836957 -28.001284 
L 38.978435 -28.114639 
L 40.155265 -28.243099 
L 41.368104 -28.382207 
L 42.618274 -28.527934 
L 43.908872 -28.685001 
L 45.245194 -28.850163 
L 46.633463 -29.033657 
L 48.076968 -29.223368 
L 49.577554 -29.426316 
L 51.130775 -29.634761 
L 52.725478 -29.858159 
L 54.346414 -30.092835 
L 55.981524 -30.339648 
L 57.628482 -30.591365 
L 59.287288 -30.877873 
L 60.951333 -31.182567 
L 62.613536 -31.481459 
L 64.269819 -31.7741 
L 65.916496 -32.0788 
L 67.556895 -32.41258 
L 69.203035 -32.770668 
L 70.87179 -33.134997 
L 72.575955 -33.496683 
L 74.315342 -33.855403 
L 76.08749 -34.207572 
L 77.899585 -34.56826 
L 79.759817 -34.937734 
L 81.671397 -35.309909 
L 83.63889 -35.702347 
L 85.653495 -36.115642 
L 87.6882 -36.558456 
L 89.706643 -36.949414 
L 91.681952 -37.33343 
L 93.604861 -37.791347 
L 95.480188 -38.204732 
L 97.312844 -38.705359 
L 99.113338 -39.243231 
L 100.890398 -39.811954 
L 102.644157 -40.39848 
L 104.374063 -41.006395 
L 106.08817 -41.595172 
L 107.796617 -42.205348 
L 109.507655 -42.840027 
L 111.224508 -43.514175 
L 112.948637 -44.230341 
L 114.684194 -45.032023 
L 116.435134 -45.915282 
L 118.204176 -46.866347 
L 119.992925 -47.954287 
L 121.800991 -49.12945 
L 123.62618 -50.306898 
L 125.464882 -51.579936 
L 127.31362 -52.958531 
L 129.171365 -54.517135 
L 131.036313 -56.139096 
L 132.903038 -57.877507 
L 134.764881 -59.642328 
L 136.616415 -61.363363 
L 136.616415 -90.342364 
L 136.616415 -90.342364 
L 134.764881 -88.022898 
L 132.903038 -85.619266 
L 131.036313 -83.252386 
L 129.171365 -80.995254 
L 127.31362 -78.795918 
L 125.464882 -76.796042 
L 123.62618 -74.920609 
L 121.800991 -73.126948 
L 119.992925 -71.314692 
L 118.204176 -69.592798 
L 116.435134 -68.032704 
L 114.684194 -66.553152 
L 112.948637 -65.183435 
L 111.224508 -63.922748 
L 109.507655 -62.696055 
L 107.796617 -61.485318 
L 106.08817 -60.299853 
L 104.374063 -59.142182 
L 102.644157 -58.012485 
L 100.890398 -56.92205 
L 99.113338 -55.834466 
L 97.312844 -54.819761 
L 95.480188 -53.856165 
L 93.604861 -52.996272 
L 91.681952 -52.12025 
L 89.706643 -51.357089 
L 87.6882 -50.5826 
L 85.653495 -49.75966 
L 83.63889 -48.997339 
L 81.671397 -48.268312 
L 79.759817 -47.572578 
L 77.899585 -46.880575 
L 76.08749 -46.207124 
L 74.315342 -45.531313 
L 72.575955 -44.824215 
L 70.87179 -44.076999 
L 69.203035 -43.317988 
L 67.556895 -42.579158 
L 65.916496 -41.872859 
L 64.269819 -41.191577 
L 62.613536 -40.500751 
L 60.951333 -39.777077 
L 59.287288 -39.064343 
L 57.628482 -38.372527 
L 55.981524 -37.763271 
L 54.346414 -37.157483 
L 52.725478 -36.605769 
L 51.130775 -36.072562 
L 49.577554 -35.578302 
L 48.076968 -35.085828 
L 46.633463 -34.6342 
L 45.245194 -34.203145 
L 43.908872 -33.808184 
L 42.618274 -33.436245 
L 41.368104 -33.086724 
L 40.155265 -32.758311 
L 38.978435 -32.452305 
L 37.836957 -32.169946 
L 36.729642 -31.904498 
L 35.653594 -31.651367 
L 34.603842 -31.419937 
L 33.573095 -31.202932 
L 32.551679 -31.004724 
L 31.5276 -30.81801 
L 30.486562 -30.645765 
z
" id="m6f85cdedae" style="stroke:#ffffff;stroke-width:0.25;"/>
    </defs>
    <g clip-path="url(#pa31e381146)">
     <use style="fill:#808080;stroke:#ffffff;stroke-width:0.25;" x="0" xlink:href="#m6f85cdedae" y="142.185"/>
    </g>
   </g>
   <g id="PolyCollection_3">
    <defs>
     <path d="M 30.486562 -32.273967 
L 30.486562 -30.645765 
L 31.5276 -30.81801 
L 32.551679 -31.004724 
L 33.573095 -31.202932 
L 34.603842 -31.419937 
L 35.653594 -31.651367 
L 36.729642 -31.904498 
L 37.836957 -32.169946 
L 38.978435 -32.452305 
L 40.155265 -32.758311 
L 41.368104 -33.086724 
L 42.618274 -33.436245 
L 43.908872 -33.808184 
L 45.245194 -34.203145 
L 46.633463 -34.6342 
L 48.076968 -35.085828 
L 49.577554 -35.578302 
L 51.130775 -36.072562 
L 52.725478 -36.605769 
L 54.346414 -37.157483 
L 55.981524 -37.763271 
L 57.628482 -38.372527 
L 59.287288 -39.064343 
L 60.951333 -39.777077 
L 62.613536 -40.500751 
L 64.269819 -41.191577 
L 65.916496 -41.872859 
L 67.556895 -42.579158 
L 69.203035 -43.317988 
L 70.87179 -44.076999 
L 72.575955 -44.824215 
L 74.315342 -45.531313 
L 76.08749 -46.207124 
L 77.899585 -46.880575 
L 79.759817 -47.572578 
L 81.671397 -48.268312 
L 83.63889 -48.997339 
L 85.653495 -49.75966 
L 87.6882 -50.5826 
L 89.706643 -51.357089 
L 91.681952 -52.12025 
L 93.604861 -52.996272 
L 95.480188 -53.856165 
L 97.312844 -54.819761 
L 99.113338 -55.834466 
L 100.890398 -56.92205 
L 102.644157 -58.012485 
L 104.374063 -59.142182 
L 106.08817 -60.299853 
L 107.796617 -61.485318 
L 109.507655 -62.696055 
L 111.224508 -63.922748 
L 112.948637 -65.183435 
L 114.684194 -66.553152 
L 116.435134 -68.032704 
L 118.204176 -69.592798 
L 119.992925 -71.314692 
L 121.800991 -73.126948 
L 123.62618 -74.920609 
L 125.464882 -76.796042 
L 127.31362 -78.795918 
L 129.171365 -80.995254 
L 131.036313 -83.252386 
L 132.903038 -85.619266 
L 134.764881 -88.022898 
L 136.616415 -90.342364 
L 136.616415 -102.410203 
L 136.616415 -102.410203 
L 134.764881 -99.903919 
L 132.903038 -97.308414 
L 131.036313 -94.742344 
L 129.171365 -92.274566 
L 127.31362 -89.858842 
L 125.464882 -87.631339 
L 123.62618 -85.525131 
L 121.800991 -83.493864 
L 119.992925 -81.432441 
L 118.204176 -79.456316 
L 116.435134 -77.644709 
L 114.684194 -75.915676 
L 112.948637 -74.286633 
L 111.224508 -72.776144 
L 109.507655 -71.267472 
L 107.796617 -69.744264 
L 106.08817 -68.245036 
L 104.374063 -66.768863 
L 102.644157 -65.357779 
L 100.890398 -63.973446 
L 99.113338 -62.5775 
L 97.312844 -61.33236 
L 95.480188 -60.143732 
L 93.604861 -59.072698 
L 91.681952 -58.000287 
L 89.706643 -57.030263 
L 87.6882 -56.054154 
L 85.653495 -55.031459 
L 83.63889 -54.088355 
L 81.671397 -53.188263 
L 79.759817 -52.325229 
L 77.899585 -51.468498 
L 76.08749 -50.649361 
L 74.315342 -49.83085 
L 72.575955 -48.98737 
L 70.87179 -48.092567 
L 69.203035 -47.189398 
L 67.556895 -46.310062 
L 65.916496 -45.468663 
L 64.269819 -44.646859 
L 62.613536 -43.816519 
L 60.951333 -42.953493 
L 59.287288 -42.107426 
L 57.628482 -41.284311 
L 55.981524 -40.56249 
L 54.346414 -39.848932 
L 52.725478 -39.199736 
L 51.130775 -38.573911 
L 49.577554 -37.993874 
L 48.076968 -37.419765 
L 46.633463 -36.893724 
L 45.245194 -36.393885 
L 43.908872 -35.935859 
L 42.618274 -35.506128 
L 41.368104 -35.102996 
L 40.155265 -34.725228 
L 38.978435 -34.372919 
L 37.836957 -34.046185 
L 36.729642 -33.737826 
L 35.653594 -33.444591 
L 34.603842 -33.176819 
L 33.573095 -32.925505 
L 32.551679 -32.694238 
L 31.5276 -32.475663 
L 30.486562 -32.273967 
z
" id="m9e0dac2001" style="stroke:#ffffff;stroke-width:0.25;"/>
    </defs>
    <g clip-path="url(#pa31e381146)">
     <use style="fill:#7aa974;stroke:#ffffff;stroke-width:0.25;" x="0" xlink:href="#m9e0dac2001" y="142.185"/>
    </g>
   </g>
   <g id="PolyCollection_4">
    <defs>
     <path d="M 30.486562 -35.415731 
L 30.486562 -32.273967 
L 31.5276 -32.475663 
L 32.551679 -32.694238 
L 33.573095 -32.925505 
L 34.603842 -33.176819 
L 35.653594 -33.444591 
L 36.729642 -33.737826 
L 37.836957 -34.046185 
L 38.978435 -34.372919 
L 40.155265 -34.725228 
L 41.368104 -35.102996 
L 42.618274 -35.506128 
L 43.908872 -35.935859 
L 45.245194 -36.393885 
L 46.633463 -36.893724 
L 48.076968 -37.419765 
L 49.577554 -37.993874 
L 51.130775 -38.573911 
L 52.725478 -39.199736 
L 54.346414 -39.848932 
L 55.981524 -40.56249 
L 57.628482 -41.284311 
L 59.287288 -42.107426 
L 60.951333 -42.953493 
L 62.613536 -43.816519 
L 64.269819 -44.646859 
L 65.916496 -45.468663 
L 67.556895 -46.310062 
L 69.203035 -47.189398 
L 70.87179 -48.092567 
L 72.575955 -48.98737 
L 74.315342 -49.83085 
L 76.08749 -50.649361 
L 77.899585 -51.468498 
L 79.759817 -52.325229 
L 81.671397 -53.188263 
L 83.63889 -54.088355 
L 85.653495 -55.031459 
L 87.6882 -56.054154 
L 89.706643 -57.030263 
L 91.681952 -58.000287 
L 93.604861 -59.072698 
L 95.480188 -60.143732 
L 97.312844 -61.33236 
L 99.113338 -62.5775 
L 100.890398 -63.973446 
L 102.644157 -65.357779 
L 104.374063 -66.768863 
L 106.08817 -68.245036 
L 107.796617 -69.744264 
L 109.507655 -71.267472 
L 111.224508 -72.776144 
L 112.948637 -74.286633 
L 114.684194 -75.915676 
L 116.435134 -77.644709 
L 118.204176 -79.456316 
L 119.992925 -81.432441 
L 121.800991 -83.493864 
L 123.62618 -85.525131 
L 125.464882 -87.631339 
L 127.31362 -89.858842 
L 129.171365 -92.274566 
L 131.036313 -94.742344 
L 132.903038 -97.308414 
L 134.764881 -99.903919 
L 136.616415 -102.410203 
L 136.616415 -129.807857 
L 136.616415 -129.807857 
L 134.764881 -126.362716 
L 132.903038 -122.858537 
L 131.036313 -119.418883 
L 129.171365 -116.117134 
L 127.31362 -112.901182 
L 125.464882 -109.910837 
L 123.62618 -107.084313 
L 121.800991 -104.346803 
L 119.992925 -101.5968 
L 118.204176 -98.964624 
L 116.435134 -96.526251 
L 114.684194 -94.194955 
L 112.948637 -91.989313 
L 111.224508 -89.925526 
L 109.507655 -87.885154 
L 107.796617 -85.841422 
L 106.08817 -83.839327 
L 104.374063 -81.877418 
L 102.644157 -79.989376 
L 100.890398 -78.147754 
L 99.113338 -76.305453 
L 97.312844 -74.630695 
L 95.480188 -73.027175 
L 93.604861 -71.551414 
L 91.681952 -70.080573 
L 89.706643 -68.716431 
L 87.6882 -67.353502 
L 85.653495 -65.95535 
L 83.63889 -64.649903 
L 81.671397 -63.399151 
L 79.759817 -62.195654 
L 77.899585 -61.007146 
L 76.08749 -59.869902 
L 74.315342 -58.743588 
L 72.575955 -57.595541 
L 70.87179 -56.401118 
L 69.203035 -55.203873 
L 67.556895 -54.042228 
L 65.916496 -52.929471 
L 64.269819 -51.844119 
L 62.613536 -50.765139 
L 60.951333 -49.653579 
L 59.287288 -48.564448 
L 57.628482 -47.511905 
L 55.981524 -46.570589 
L 54.346414 -45.643858 
L 52.725478 -44.790826 
L 51.130775 -43.971876 
L 49.577554 -43.211045 
L 48.076968 -42.45841 
L 46.633463 -41.761321 
L 45.245194 -41.099743 
L 43.908872 -40.489487 
L 42.618274 -39.914347 
L 41.368104 -39.371181 
L 40.155265 -38.856871 
L 38.978435 -38.37641 
L 37.836957 -37.927745 
L 36.729642 -37.49973 
L 35.653594 -37.092548 
L 34.603842 -36.715985 
L 33.573095 -36.357297 
L 32.551679 -36.025139 
L 31.5276 -35.710338 
L 30.486562 -35.415731 
z
" id="ma8d7c7a41c" style="stroke:#ffffff;stroke-width:0.25;"/>
    </defs>
    <g clip-path="url(#pa31e381146)">
     <use style="fill:#738fc1;stroke:#ffffff;stroke-width:0.25;" x="0" xlink:href="#ma8d7c7a41c" y="142.185"/>
    </g>
   </g>
   <g id="patch_3">
    <path d="M 30.486563 115.92 
L 30.486563 7.2 
" style="fill:none;stroke:#ffffff;stroke-linecap:square;stroke-linejoin:miter;stroke-width:0.8;"/>
   </g>
   <g id="patch_4">
    <path d="M 142.086562 115.92 
L 142.086562 7.2 
" style="fill:none;stroke:#ffffff;stroke-linecap:square;stroke-linejoin:miter;stroke-width:0.8;"/>
   </g>
   <g id="patch_5">
    <path d="M 30.486562 115.92 
L 142.086562 115.92 
" style="fill:none;stroke:#ffffff;stroke-linecap:square;stroke-linejoin:miter;stroke-width:0.8;"/>
   </g>
   <g id="patch_6">
    <path d="M 30.486562 7.2 
L 142.086562 7.2 
" style="fill:none;stroke:#ffffff;stroke-linecap:square;stroke-linejoin:miter;stroke-width:0.8;"/>
   </g>
  </g>
 </g>
 <defs>
  <clipPath id="pa31e381146">
   <rect height="108.72" width="111.6" x="30.486563" y="7.2"/>
  </clipPath>
 </defs>
</svg>
