<?xml version="1.0" encoding="utf-8" standalone="no"?>
<!DOCTYPE svg PUBLIC "-//W3C//DTD SVG 1.1//EN"
  "http://www.w3.org/Graphics/SVG/1.1/DTD/svg11.dtd">
<!-- Created with matplotlib (https://matplotlib.org/) -->
<svg height="115.05375pt" version="1.1" viewBox="0 0 121.441875 115.05375" width="121.441875pt" xmlns="http://www.w3.org/2000/svg" xmlns:xlink="http://www.w3.org/1999/xlink">
 <metadata>
  <rdf:RDF xmlns:cc="http://creativecommons.org/ns#" xmlns:dc="http://purl.org/dc/elements/1.1/" xmlns:rdf="http://www.w3.org/1999/02/22-rdf-syntax-ns#">
   <cc:Work>
    <dc:type rdf:resource="http://purl.org/dc/dcmitype/StillImage"/>
    <dc:date>2021-10-12T16:10:21.916508</dc:date>
    <dc:format>image/svg+xml</dc:format>
    <dc:creator>
     <cc:Agent>
      <dc:title>Matplotlib v3.3.4, https://matplotlib.org/</dc:title>
     </cc:Agent>
    </dc:creator>
   </cc:Work>
  </rdf:RDF>
 </metadata>
 <defs>
  <style type="text/css">*{stroke-linecap:butt;stroke-linejoin:round;}</style>
 </defs>
 <g id="figure_1">
  <g id="patch_1">
   <path d="M 0 115.05375 
L 121.441875 115.05375 
L 121.441875 0 
L 0 0 
z
" style="fill:#ffffff;"/>
  </g>
  <g id="axes_1">
   <g id="patch_2">
    <path d="M 30.541875 88.74 
L 114.241875 88.74 
L 114.241875 7.2 
L 30.541875 7.2 
z
" style="fill:#e3dcd0;"/>
   </g>
   <g id="matplotlib.axis_1">
    <g id="xtick_1">
     <g id="text_1">
      <!-- 1960 -->
      <g transform="translate(35.215699 96.799063)scale(0.06 -0.06)">
       <defs>
        <path d="M 12.40625 8.296875 
L 28.515625 8.296875 
L 28.515625 63.921875 
L 10.984375 60.40625 
L 10.984375 69.390625 
L 28.421875 72.90625 
L 38.28125 72.90625 
L 38.28125 8.296875 
L 54.390625 8.296875 
L 54.390625 0 
L 12.40625 0 
z
" id="DejaVuSans-49"/>
        <path d="M 10.984375 1.515625 
L 10.984375 10.5 
Q 14.703125 8.734375 18.5 7.8125 
Q 22.3125 6.890625 25.984375 6.890625 
Q 35.75 6.890625 40.890625 13.453125 
Q 46.046875 20.015625 46.78125 33.40625 
Q 43.953125 29.203125 39.59375 26.953125 
Q 35.25 24.703125 29.984375 24.703125 
Q 19.046875 24.703125 12.671875 31.3125 
Q 6.296875 37.9375 6.296875 49.421875 
Q 6.296875 60.640625 12.9375 67.421875 
Q 19.578125 74.21875 30.609375 74.21875 
Q 43.265625 74.21875 49.921875 64.515625 
Q 56.59375 54.828125 56.59375 36.375 
Q 56.59375 19.140625 48.40625 8.859375 
Q 40.234375 -1.421875 26.421875 -1.421875 
Q 22.703125 -1.421875 18.890625 -0.6875 
Q 15.09375 0.046875 10.984375 1.515625 
z
M 30.609375 32.421875 
Q 37.25 32.421875 41.125 36.953125 
Q 45.015625 41.5 45.015625 49.421875 
Q 45.015625 57.28125 41.125 61.84375 
Q 37.25 66.40625 30.609375 66.40625 
Q 23.96875 66.40625 20.09375 61.84375 
Q 16.21875 57.28125 16.21875 49.421875 
Q 16.21875 41.5 20.09375 36.953125 
Q 23.96875 32.421875 30.609375 32.421875 
z
" id="DejaVuSans-57"/>
        <path d="M 33.015625 40.375 
Q 26.375 40.375 22.484375 35.828125 
Q 18.609375 31.296875 18.609375 23.390625 
Q 18.609375 15.53125 22.484375 10.953125 
Q 26.375 6.390625 33.015625 6.390625 
Q 39.65625 6.390625 43.53125 10.953125 
Q 47.40625 15.53125 47.40625 23.390625 
Q 47.40625 31.296875 43.53125 35.828125 
Q 39.65625 40.375 33.015625 40.375 
z
M 52.59375 71.296875 
L 52.59375 62.3125 
Q 48.875 64.0625 45.09375 64.984375 
Q 41.3125 65.921875 37.59375 65.921875 
Q 27.828125 65.921875 22.671875 59.328125 
Q 17.53125 52.734375 16.796875 39.40625 
Q 19.671875 43.65625 24.015625 45.921875 
Q 28.375 48.1875 33.59375 48.1875 
Q 44.578125 48.1875 50.953125 41.515625 
Q 57.328125 34.859375 57.328125 23.390625 
Q 57.328125 12.15625 50.6875 5.359375 
Q 44.046875 -1.421875 33.015625 -1.421875 
Q 20.359375 -1.421875 13.671875 8.265625 
Q 6.984375 17.96875 6.984375 36.375 
Q 6.984375 53.65625 15.1875 63.9375 
Q 23.390625 74.21875 37.203125 74.21875 
Q 40.921875 74.21875 44.703125 73.484375 
Q 48.484375 72.75 52.59375 71.296875 
z
" id="DejaVuSans-54"/>
        <path d="M 31.78125 66.40625 
Q 24.171875 66.40625 20.328125 58.90625 
Q 16.5 51.421875 16.5 36.375 
Q 16.5 21.390625 20.328125 13.890625 
Q 24.171875 6.390625 31.78125 6.390625 
Q 39.453125 6.390625 43.28125 13.890625 
Q 47.125 21.390625 47.125 36.375 
Q 47.125 51.421875 43.28125 58.90625 
Q 39.453125 66.40625 31.78125 66.40625 
z
M 31.78125 74.21875 
Q 44.046875 74.21875 50.515625 64.515625 
Q 56.984375 54.828125 56.984375 36.375 
Q 56.984375 17.96875 50.515625 8.265625 
Q 44.046875 -1.421875 31.78125 -1.421875 
Q 19.53125 -1.421875 13.0625 8.265625 
Q 6.59375 17.96875 6.59375 36.375 
Q 6.59375 54.828125 13.0625 64.515625 
Q 19.53125 74.21875 31.78125 74.21875 
z
" id="DejaVuSans-48"/>
       </defs>
       <use xlink:href="#DejaVuSans-49"/>
       <use x="63.623047" xlink:href="#DejaVuSans-57"/>
       <use x="127.246094" xlink:href="#DejaVuSans-54"/>
       <use x="190.869141" xlink:href="#DejaVuSans-48"/>
      </g>
     </g>
    </g>
    <g id="xtick_2">
     <g id="text_2">
      <!-- 1980 -->
      <g transform="translate(59.833346 96.799063)scale(0.06 -0.06)">
       <defs>
        <path d="M 31.78125 34.625 
Q 24.75 34.625 20.71875 30.859375 
Q 16.703125 27.09375 16.703125 20.515625 
Q 16.703125 13.921875 20.71875 10.15625 
Q 24.75 6.390625 31.78125 6.390625 
Q 38.8125 6.390625 42.859375 10.171875 
Q 46.921875 13.96875 46.921875 20.515625 
Q 46.921875 27.09375 42.890625 30.859375 
Q 38.875 34.625 31.78125 34.625 
z
M 21.921875 38.8125 
Q 15.578125 40.375 12.03125 44.71875 
Q 8.5 49.078125 8.5 55.328125 
Q 8.5 64.0625 14.71875 69.140625 
Q 20.953125 74.21875 31.78125 74.21875 
Q 42.671875 74.21875 48.875 69.140625 
Q 55.078125 64.0625 55.078125 55.328125 
Q 55.078125 49.078125 51.53125 44.71875 
Q 48 40.375 41.703125 38.8125 
Q 48.828125 37.15625 52.796875 32.3125 
Q 56.78125 27.484375 56.78125 20.515625 
Q 56.78125 9.90625 50.3125 4.234375 
Q 43.84375 -1.421875 31.78125 -1.421875 
Q 19.734375 -1.421875 13.25 4.234375 
Q 6.78125 9.90625 6.78125 20.515625 
Q 6.78125 27.484375 10.78125 32.3125 
Q 14.796875 37.15625 21.921875 38.8125 
z
M 18.3125 54.390625 
Q 18.3125 48.734375 21.84375 45.5625 
Q 25.390625 42.390625 31.78125 42.390625 
Q 38.140625 42.390625 41.71875 45.5625 
Q 45.3125 48.734375 45.3125 54.390625 
Q 45.3125 60.0625 41.71875 63.234375 
Q 38.140625 66.40625 31.78125 66.40625 
Q 25.390625 66.40625 21.84375 63.234375 
Q 18.3125 60.0625 18.3125 54.390625 
z
" id="DejaVuSans-56"/>
       </defs>
       <use xlink:href="#DejaVuSans-49"/>
       <use x="63.623047" xlink:href="#DejaVuSans-57"/>
       <use x="127.246094" xlink:href="#DejaVuSans-56"/>
       <use x="190.869141" xlink:href="#DejaVuSans-48"/>
      </g>
     </g>
    </g>
    <g id="xtick_3">
     <g id="text_3">
      <!-- 2000 -->
      <g transform="translate(84.450993 96.799063)scale(0.06 -0.06)">
       <defs>
        <path d="M 19.1875 8.296875 
L 53.609375 8.296875 
L 53.609375 0 
L 7.328125 0 
L 7.328125 8.296875 
Q 12.9375 14.109375 22.625 23.890625 
Q 32.328125 33.6875 34.8125 36.53125 
Q 39.546875 41.84375 41.421875 45.53125 
Q 43.3125 49.21875 43.3125 52.78125 
Q 43.3125 58.59375 39.234375 62.25 
Q 35.15625 65.921875 28.609375 65.921875 
Q 23.96875 65.921875 18.8125 64.3125 
Q 13.671875 62.703125 7.8125 59.421875 
L 7.8125 69.390625 
Q 13.765625 71.78125 18.9375 73 
Q 24.125 74.21875 28.421875 74.21875 
Q 39.75 74.21875 46.484375 68.546875 
Q 53.21875 62.890625 53.21875 53.421875 
Q 53.21875 48.921875 51.53125 44.890625 
Q 49.859375 40.875 45.40625 35.40625 
Q 44.1875 33.984375 37.640625 27.21875 
Q 31.109375 20.453125 19.1875 8.296875 
z
" id="DejaVuSans-50"/>
       </defs>
       <use xlink:href="#DejaVuSans-50"/>
       <use x="63.623047" xlink:href="#DejaVuSans-48"/>
       <use x="127.246094" xlink:href="#DejaVuSans-48"/>
       <use x="190.869141" xlink:href="#DejaVuSans-48"/>
      </g>
     </g>
    </g>
    <g id="text_4">
     <!-- year -->
     <g style="fill:#262626;" transform="translate(65.698594 106.605938)scale(0.06 -0.06)">
      <defs>
       <path d="M 32.171875 -5.078125 
Q 28.375 -14.84375 24.75 -17.8125 
Q 21.140625 -20.796875 15.09375 -20.796875 
L 7.90625 -20.796875 
L 7.90625 -13.28125 
L 13.1875 -13.28125 
Q 16.890625 -13.28125 18.9375 -11.515625 
Q 21 -9.765625 23.484375 -3.21875 
L 25.09375 0.875 
L 2.984375 54.6875 
L 12.5 54.6875 
L 29.59375 11.921875 
L 46.6875 54.6875 
L 56.203125 54.6875 
z
" id="DejaVuSans-121"/>
       <path d="M 56.203125 29.59375 
L 56.203125 25.203125 
L 14.890625 25.203125 
Q 15.484375 15.921875 20.484375 11.0625 
Q 25.484375 6.203125 34.421875 6.203125 
Q 39.59375 6.203125 44.453125 7.46875 
Q 49.3125 8.734375 54.109375 11.28125 
L 54.109375 2.78125 
Q 49.265625 0.734375 44.1875 -0.34375 
Q 39.109375 -1.421875 33.890625 -1.421875 
Q 20.796875 -1.421875 13.15625 6.1875 
Q 5.515625 13.8125 5.515625 26.8125 
Q 5.515625 40.234375 12.765625 48.109375 
Q 20.015625 56 32.328125 56 
Q 43.359375 56 49.78125 48.890625 
Q 56.203125 41.796875 56.203125 29.59375 
z
M 47.21875 32.234375 
Q 47.125 39.59375 43.09375 43.984375 
Q 39.0625 48.390625 32.421875 48.390625 
Q 24.90625 48.390625 20.390625 44.140625 
Q 15.875 39.890625 15.1875 32.171875 
z
" id="DejaVuSans-101"/>
       <path d="M 34.28125 27.484375 
Q 23.390625 27.484375 19.1875 25 
Q 14.984375 22.515625 14.984375 16.5 
Q 14.984375 11.71875 18.140625 8.90625 
Q 21.296875 6.109375 26.703125 6.109375 
Q 34.1875 6.109375 38.703125 11.40625 
Q 43.21875 16.703125 43.21875 25.484375 
L 43.21875 27.484375 
z
M 52.203125 31.203125 
L 52.203125 0 
L 43.21875 0 
L 43.21875 8.296875 
Q 40.140625 3.328125 35.546875 0.953125 
Q 30.953125 -1.421875 24.3125 -1.421875 
Q 15.921875 -1.421875 10.953125 3.296875 
Q 6 8.015625 6 15.921875 
Q 6 25.140625 12.171875 29.828125 
Q 18.359375 34.515625 30.609375 34.515625 
L 43.21875 34.515625 
L 43.21875 35.40625 
Q 43.21875 41.609375 39.140625 45 
Q 35.0625 48.390625 27.6875 48.390625 
Q 23 48.390625 18.546875 47.265625 
Q 14.109375 46.140625 10.015625 43.890625 
L 10.015625 52.203125 
Q 14.9375 54.109375 19.578125 55.046875 
Q 24.21875 56 28.609375 56 
Q 40.484375 56 46.34375 49.84375 
Q 52.203125 43.703125 52.203125 31.203125 
z
" id="DejaVuSans-97"/>
       <path d="M 41.109375 46.296875 
Q 39.59375 47.171875 37.8125 47.578125 
Q 36.03125 48 33.890625 48 
Q 26.265625 48 22.1875 43.046875 
Q 18.109375 38.09375 18.109375 28.8125 
L 18.109375 0 
L 9.078125 0 
L 9.078125 54.6875 
L 18.109375 54.6875 
L 18.109375 46.1875 
Q 20.953125 51.171875 25.484375 53.578125 
Q 30.03125 56 36.53125 56 
Q 37.453125 56 38.578125 55.875 
Q 39.703125 55.765625 41.0625 55.515625 
z
" id="DejaVuSans-114"/>
      </defs>
      <use xlink:href="#DejaVuSans-121"/>
      <use x="59.179688" xlink:href="#DejaVuSans-101"/>
      <use x="120.703125" xlink:href="#DejaVuSans-97"/>
      <use x="181.982422" xlink:href="#DejaVuSans-114"/>
     </g>
    </g>
   </g>
   <g id="matplotlib.axis_2">
    <g id="ytick_1">
     <g id="text_5">
      <!-- 0.0 -->
      <g transform="translate(17.5 91.019531)scale(0.06 -0.06)">
       <defs>
        <path d="M 10.6875 12.40625 
L 21 12.40625 
L 21 0 
L 10.6875 0 
z
" id="DejaVuSans-46"/>
       </defs>
       <use xlink:href="#DejaVuSans-48"/>
       <use x="63.623047" xlink:href="#DejaVuSans-46"/>
       <use x="95.410156" xlink:href="#DejaVuSans-48"/>
      </g>
     </g>
    </g>
    <g id="ytick_2">
     <g id="text_6">
      <!-- 0.5 -->
      <g transform="translate(17.5 59.47122)scale(0.06 -0.06)">
       <defs>
        <path d="M 10.796875 72.90625 
L 49.515625 72.90625 
L 49.515625 64.59375 
L 19.828125 64.59375 
L 19.828125 46.734375 
Q 21.96875 47.46875 24.109375 47.828125 
Q 26.265625 48.1875 28.421875 48.1875 
Q 40.625 48.1875 47.75 41.5 
Q 54.890625 34.8125 54.890625 23.390625 
Q 54.890625 11.625 47.5625 5.09375 
Q 40.234375 -1.421875 26.90625 -1.421875 
Q 22.3125 -1.421875 17.546875 -0.640625 
Q 12.796875 0.140625 7.71875 1.703125 
L 7.71875 11.625 
Q 12.109375 9.234375 16.796875 8.0625 
Q 21.484375 6.890625 26.703125 6.890625 
Q 35.15625 6.890625 40.078125 11.328125 
Q 45.015625 15.765625 45.015625 23.390625 
Q 45.015625 31 40.078125 35.4375 
Q 35.15625 39.890625 26.703125 39.890625 
Q 22.75 39.890625 18.8125 39.015625 
Q 14.890625 38.140625 10.796875 36.28125 
z
" id="DejaVuSans-53"/>
       </defs>
       <use xlink:href="#DejaVuSans-48"/>
       <use x="63.623047" xlink:href="#DejaVuSans-46"/>
       <use x="95.410156" xlink:href="#DejaVuSans-53"/>
      </g>
     </g>
    </g>
    <g id="ytick_3">
     <g id="text_7">
      <!-- 1.0 -->
      <g transform="translate(17.5 27.922909)scale(0.06 -0.06)">
       <use xlink:href="#DejaVuSans-49"/>
       <use x="63.623047" xlink:href="#DejaVuSans-46"/>
       <use x="95.410156" xlink:href="#DejaVuSans-48"/>
      </g>
     </g>
    </g>
    <g id="text_8">
     <!-- anthropomass [10$^{15}$ kg] -->
     <g style="fill:#262626;" transform="translate(12.24 83.4)rotate(-90)scale(0.06 -0.06)">
      <defs>
       <path d="M 54.890625 33.015625 
L 54.890625 0 
L 45.90625 0 
L 45.90625 32.71875 
Q 45.90625 40.484375 42.875 44.328125 
Q 39.84375 48.1875 33.796875 48.1875 
Q 26.515625 48.1875 22.3125 43.546875 
Q 18.109375 38.921875 18.109375 30.90625 
L 18.109375 0 
L 9.078125 0 
L 9.078125 54.6875 
L 18.109375 54.6875 
L 18.109375 46.1875 
Q 21.34375 51.125 25.703125 53.5625 
Q 30.078125 56 35.796875 56 
Q 45.21875 56 50.046875 50.171875 
Q 54.890625 44.34375 54.890625 33.015625 
z
" id="DejaVuSans-110"/>
       <path d="M 18.3125 70.21875 
L 18.3125 54.6875 
L 36.8125 54.6875 
L 36.8125 47.703125 
L 18.3125 47.703125 
L 18.3125 18.015625 
Q 18.3125 11.328125 20.140625 9.421875 
Q 21.96875 7.515625 27.59375 7.515625 
L 36.8125 7.515625 
L 36.8125 0 
L 27.59375 0 
Q 17.1875 0 13.234375 3.875 
Q 9.28125 7.765625 9.28125 18.015625 
L 9.28125 47.703125 
L 2.6875 47.703125 
L 2.6875 54.6875 
L 9.28125 54.6875 
L 9.28125 70.21875 
z
" id="DejaVuSans-116"/>
       <path d="M 54.890625 33.015625 
L 54.890625 0 
L 45.90625 0 
L 45.90625 32.71875 
Q 45.90625 40.484375 42.875 44.328125 
Q 39.84375 48.1875 33.796875 48.1875 
Q 26.515625 48.1875 22.3125 43.546875 
Q 18.109375 38.921875 18.109375 30.90625 
L 18.109375 0 
L 9.078125 0 
L 9.078125 75.984375 
L 18.109375 75.984375 
L 18.109375 46.1875 
Q 21.34375 51.125 25.703125 53.5625 
Q 30.078125 56 35.796875 56 
Q 45.21875 56 50.046875 50.171875 
Q 54.890625 44.34375 54.890625 33.015625 
z
" id="DejaVuSans-104"/>
       <path d="M 30.609375 48.390625 
Q 23.390625 48.390625 19.1875 42.75 
Q 14.984375 37.109375 14.984375 27.296875 
Q 14.984375 17.484375 19.15625 11.84375 
Q 23.34375 6.203125 30.609375 6.203125 
Q 37.796875 6.203125 41.984375 11.859375 
Q 46.1875 17.53125 46.1875 27.296875 
Q 46.1875 37.015625 41.984375 42.703125 
Q 37.796875 48.390625 30.609375 48.390625 
z
M 30.609375 56 
Q 42.328125 56 49.015625 48.375 
Q 55.71875 40.765625 55.71875 27.296875 
Q 55.71875 13.875 49.015625 6.21875 
Q 42.328125 -1.421875 30.609375 -1.421875 
Q 18.84375 -1.421875 12.171875 6.21875 
Q 5.515625 13.875 5.515625 27.296875 
Q 5.515625 40.765625 12.171875 48.375 
Q 18.84375 56 30.609375 56 
z
" id="DejaVuSans-111"/>
       <path d="M 18.109375 8.203125 
L 18.109375 -20.796875 
L 9.078125 -20.796875 
L 9.078125 54.6875 
L 18.109375 54.6875 
L 18.109375 46.390625 
Q 20.953125 51.265625 25.265625 53.625 
Q 29.59375 56 35.59375 56 
Q 45.5625 56 51.78125 48.09375 
Q 58.015625 40.1875 58.015625 27.296875 
Q 58.015625 14.40625 51.78125 6.484375 
Q 45.5625 -1.421875 35.59375 -1.421875 
Q 29.59375 -1.421875 25.265625 0.953125 
Q 20.953125 3.328125 18.109375 8.203125 
z
M 48.6875 27.296875 
Q 48.6875 37.203125 44.609375 42.84375 
Q 40.53125 48.484375 33.40625 48.484375 
Q 26.265625 48.484375 22.1875 42.84375 
Q 18.109375 37.203125 18.109375 27.296875 
Q 18.109375 17.390625 22.1875 11.75 
Q 26.265625 6.109375 33.40625 6.109375 
Q 40.53125 6.109375 44.609375 11.75 
Q 48.6875 17.390625 48.6875 27.296875 
z
" id="DejaVuSans-112"/>
       <path d="M 52 44.1875 
Q 55.375 50.25 60.0625 53.125 
Q 64.75 56 71.09375 56 
Q 79.640625 56 84.28125 50.015625 
Q 88.921875 44.046875 88.921875 33.015625 
L 88.921875 0 
L 79.890625 0 
L 79.890625 32.71875 
Q 79.890625 40.578125 77.09375 44.375 
Q 74.3125 48.1875 68.609375 48.1875 
Q 61.625 48.1875 57.5625 43.546875 
Q 53.515625 38.921875 53.515625 30.90625 
L 53.515625 0 
L 44.484375 0 
L 44.484375 32.71875 
Q 44.484375 40.625 41.703125 44.40625 
Q 38.921875 48.1875 33.109375 48.1875 
Q 26.21875 48.1875 22.15625 43.53125 
Q 18.109375 38.875 18.109375 30.90625 
L 18.109375 0 
L 9.078125 0 
L 9.078125 54.6875 
L 18.109375 54.6875 
L 18.109375 46.1875 
Q 21.1875 51.21875 25.484375 53.609375 
Q 29.78125 56 35.6875 56 
Q 41.65625 56 45.828125 52.96875 
Q 50 49.953125 52 44.1875 
z
" id="DejaVuSans-109"/>
       <path d="M 44.28125 53.078125 
L 44.28125 44.578125 
Q 40.484375 46.53125 36.375 47.5 
Q 32.28125 48.484375 27.875 48.484375 
Q 21.1875 48.484375 17.84375 46.4375 
Q 14.5 44.390625 14.5 40.28125 
Q 14.5 37.15625 16.890625 35.375 
Q 19.28125 33.59375 26.515625 31.984375 
L 29.59375 31.296875 
Q 39.15625 29.25 43.1875 25.515625 
Q 47.21875 21.78125 47.21875 15.09375 
Q 47.21875 7.46875 41.1875 3.015625 
Q 35.15625 -1.421875 24.609375 -1.421875 
Q 20.21875 -1.421875 15.453125 -0.5625 
Q 10.6875 0.296875 5.421875 2 
L 5.421875 11.28125 
Q 10.40625 8.6875 15.234375 7.390625 
Q 20.0625 6.109375 24.8125 6.109375 
Q 31.15625 6.109375 34.5625 8.28125 
Q 37.984375 10.453125 37.984375 14.40625 
Q 37.984375 18.0625 35.515625 20.015625 
Q 33.0625 21.96875 24.703125 23.78125 
L 21.578125 24.515625 
Q 13.234375 26.265625 9.515625 29.90625 
Q 5.8125 33.546875 5.8125 39.890625 
Q 5.8125 47.609375 11.28125 51.796875 
Q 16.75 56 26.8125 56 
Q 31.78125 56 36.171875 55.265625 
Q 40.578125 54.546875 44.28125 53.078125 
z
" id="DejaVuSans-115"/>
       <path id="DejaVuSans-32"/>
       <path d="M 8.59375 75.984375 
L 29.296875 75.984375 
L 29.296875 69 
L 17.578125 69 
L 17.578125 -6.203125 
L 29.296875 -6.203125 
L 29.296875 -13.1875 
L 8.59375 -13.1875 
z
" id="DejaVuSans-91"/>
       <path d="M 30.203125 0 
L 22.296875 0 
L 22.296875 57 
Q 20.09375 56 15.75 53.75 
Q 11.40625 51.5 10.796875 51.203125 
L 10.796875 58.5 
L 28.796875 67.703125 
L 30.203125 67.203125 
z
" id="STIXGeneral-Regular-120803"/>
       <path d="M 45.796875 67.59375 
L 42.59375 60.5 
L 24.90625 60.5 
L 18.5 47.796875 
Q 29.90625 46.203125 37.25 39.75 
Q 44.59375 33.296875 44.59375 22.59375 
Q 44.59375 12.703125 37.84375 5.640625 
Q 31.09375 -1.40625 21 -1.40625 
Q 10 -1.40625 3.59375 5.59375 
L 8.296875 11.203125 
Q 13.40625 5.703125 20.5 5.703125 
Q 27.90625 5.703125 32.296875 10.75 
Q 36.703125 15.796875 36.703125 22.59375 
Q 36.703125 30 30.09375 35.203125 
Q 23.40625 40.703125 9.40625 40.703125 
L 8 42.40625 
L 19.59375 67.59375 
z
" id="STIXGeneral-Regular-120807"/>
       <path d="M 9.078125 75.984375 
L 18.109375 75.984375 
L 18.109375 31.109375 
L 44.921875 54.6875 
L 56.390625 54.6875 
L 27.390625 29.109375 
L 57.625 0 
L 45.90625 0 
L 18.109375 26.703125 
L 18.109375 0 
L 9.078125 0 
z
" id="DejaVuSans-107"/>
       <path d="M 45.40625 27.984375 
Q 45.40625 37.75 41.375 43.109375 
Q 37.359375 48.484375 30.078125 48.484375 
Q 22.859375 48.484375 18.828125 43.109375 
Q 14.796875 37.75 14.796875 27.984375 
Q 14.796875 18.265625 18.828125 12.890625 
Q 22.859375 7.515625 30.078125 7.515625 
Q 37.359375 7.515625 41.375 12.890625 
Q 45.40625 18.265625 45.40625 27.984375 
z
M 54.390625 6.78125 
Q 54.390625 -7.171875 48.1875 -13.984375 
Q 42 -20.796875 29.203125 -20.796875 
Q 24.46875 -20.796875 20.265625 -20.09375 
Q 16.0625 -19.390625 12.109375 -17.921875 
L 12.109375 -9.1875 
Q 16.0625 -11.328125 19.921875 -12.34375 
Q 23.78125 -13.375 27.78125 -13.375 
Q 36.625 -13.375 41.015625 -8.765625 
Q 45.40625 -4.15625 45.40625 5.171875 
L 45.40625 9.625 
Q 42.625 4.78125 38.28125 2.390625 
Q 33.9375 0 27.875 0 
Q 17.828125 0 11.671875 7.65625 
Q 5.515625 15.328125 5.515625 27.984375 
Q 5.515625 40.671875 11.671875 48.328125 
Q 17.828125 56 27.875 56 
Q 33.9375 56 38.28125 53.609375 
Q 42.625 51.21875 45.40625 46.390625 
L 45.40625 54.6875 
L 54.390625 54.6875 
z
" id="DejaVuSans-103"/>
       <path d="M 30.421875 75.984375 
L 30.421875 -13.1875 
L 9.71875 -13.1875 
L 9.71875 -6.203125 
L 21.390625 -6.203125 
L 21.390625 69 
L 9.71875 69 
L 9.71875 75.984375 
z
" id="DejaVuSans-93"/>
      </defs>
      <use transform="translate(0 0.370312)" xlink:href="#DejaVuSans-97"/>
      <use transform="translate(61.279297 0.370312)" xlink:href="#DejaVuSans-110"/>
      <use transform="translate(124.658203 0.370312)" xlink:href="#DejaVuSans-116"/>
      <use transform="translate(163.867188 0.370312)" xlink:href="#DejaVuSans-104"/>
      <use transform="translate(227.246094 0.370312)" xlink:href="#DejaVuSans-114"/>
      <use transform="translate(268.359375 0.370312)" xlink:href="#DejaVuSans-111"/>
      <use transform="translate(329.541016 0.370312)" xlink:href="#DejaVuSans-112"/>
      <use transform="translate(393.017578 0.370312)" xlink:href="#DejaVuSans-111"/>
      <use transform="translate(454.199219 0.370312)" xlink:href="#DejaVuSans-109"/>
      <use transform="translate(551.611328 0.370312)" xlink:href="#DejaVuSans-97"/>
      <use transform="translate(612.890625 0.370312)" xlink:href="#DejaVuSans-115"/>
      <use transform="translate(664.990234 0.370312)" xlink:href="#DejaVuSans-115"/>
      <use transform="translate(717.089844 0.370312)" xlink:href="#DejaVuSans-32"/>
      <use transform="translate(748.876953 0.370312)" xlink:href="#DejaVuSans-91"/>
      <use transform="translate(787.890625 0.370312)" xlink:href="#DejaVuSans-49"/>
      <use transform="translate(851.513672 0.370312)" xlink:href="#DejaVuSans-48"/>
      <use transform="translate(915.929414 36.607813)scale(0.7)" xlink:href="#STIXGeneral-Regular-120803"/>
      <use transform="translate(950.929403 36.607813)scale(0.7)" xlink:href="#STIXGeneral-Regular-120807"/>
      <use transform="translate(988.194236 0.370312)" xlink:href="#DejaVuSans-32"/>
      <use transform="translate(1019.981346 0.370312)" xlink:href="#DejaVuSans-107"/>
      <use transform="translate(1077.891502 0.370312)" xlink:href="#DejaVuSans-103"/>
      <use transform="translate(1141.368065 0.370312)" xlink:href="#DejaVuSans-93"/>
     </g>
    </g>
   </g>
   <g id="PolyCollection_1">
    <defs>
     <path d="M 30.541875 -27.17399 
L 30.541875 -26.31375 
L 31.772757 -26.31375 
L 33.00364 -26.31375 
L 34.234522 -26.31375 
L 35.465404 -26.31375 
L 36.696287 -26.31375 
L 37.927169 -26.31375 
L 39.158051 -26.31375 
L 40.388934 -26.31375 
L 41.619816 -26.31375 
L 42.850699 -26.31375 
L 44.081581 -26.31375 
L 45.312463 -26.31375 
L 46.543346 -26.31375 
L 47.774228 -26.31375 
L 49.00511 -26.31375 
L 50.235993 -26.31375 
L 51.466875 -26.31375 
L 52.697757 -26.31375 
L 53.92864 -26.31375 
L 55.159522 -26.31375 
L 56.390404 -26.31375 
L 57.621287 -26.31375 
L 58.852169 -26.31375 
L 60.083051 -26.31375 
L 61.313934 -26.31375 
L 62.544816 -26.31375 
L 63.775699 -26.31375 
L 65.006581 -26.31375 
L 66.237463 -26.31375 
L 67.468346 -26.31375 
L 68.699228 -26.31375 
L 69.93011 -26.31375 
L 71.160993 -26.31375 
L 72.391875 -26.31375 
L 73.622757 -26.31375 
L 74.85364 -26.31375 
L 76.084522 -26.31375 
L 77.315404 -26.31375 
L 78.546287 -26.31375 
L 79.777169 -26.31375 
L 81.008051 -26.31375 
L 82.238934 -26.31375 
L 83.469816 -26.31375 
L 84.700699 -26.31375 
L 85.931581 -26.31375 
L 87.162463 -26.31375 
L 88.393346 -26.31375 
L 89.624228 -26.31375 
L 90.85511 -26.31375 
L 92.085993 -26.31375 
L 93.316875 -26.31375 
L 94.547757 -26.31375 
L 95.77864 -26.31375 
L 97.009522 -26.31375 
L 98.240404 -26.31375 
L 99.471287 -26.31375 
L 100.702169 -26.31375 
L 101.933051 -26.31375 
L 103.163934 -26.31375 
L 104.394816 -26.31375 
L 105.625699 -26.31375 
L 106.856581 -26.31375 
L 108.087463 -26.31375 
L 109.318346 -26.31375 
L 110.549228 -26.31375 
L 110.549228 -52.637523 
L 110.549228 -52.637523 
L 109.318346 -51.346746 
L 108.087463 -50.023131 
L 106.856581 -48.719322 
L 105.625699 -47.502852 
L 104.394816 -46.333898 
L 103.163934 -45.299952 
L 101.933051 -44.345174 
L 100.702169 -43.462087 
L 99.471287 -42.580715 
L 98.240404 -41.76476 
L 97.009522 -41.051461 
L 95.77864 -40.389017 
L 94.547757 -39.787756 
L 93.316875 -39.250631 
L 92.085993 -38.74502 
L 90.85511 -38.269011 
L 89.624228 -37.811379 
L 88.393346 -37.369797 
L 87.162463 -36.91386 
L 85.931581 -36.473966 
L 84.700699 -36.047424 
L 83.469816 -35.644019 
L 82.238934 -35.268549 
L 81.008051 -34.95851 
L 79.777169 -34.615072 
L 78.546287 -34.32706 
L 77.315404 -34.033842 
L 76.084522 -33.701731 
L 74.85364 -33.39176 
L 73.622757 -33.097432 
L 72.391875 -32.818301 
L 71.160993 -32.541195 
L 69.93011 -32.270679 
L 68.699228 -32.006552 
L 67.468346 -31.737512 
L 66.237463 -31.466247 
L 65.006581 -31.193001 
L 63.775699 -30.924435 
L 62.544816 -30.6741 
L 61.313934 -30.445575 
L 60.083051 -30.226094 
L 58.852169 -30.001925 
L 57.621287 -29.773405 
L 56.390404 -29.558524 
L 55.159522 -29.369736 
L 53.92864 -29.184626 
L 52.697757 -29.00862 
L 51.466875 -28.841071 
L 50.235993 -28.684737 
L 49.00511 -28.532526 
L 47.774228 -28.390243 
L 46.543346 -28.252622 
L 45.312463 -28.128751 
L 44.081581 -28.01095 
L 42.850699 -27.901656 
L 41.619816 -27.797325 
L 40.388934 -27.700979 
L 39.158051 -27.615963 
L 37.927169 -27.535965 
L 36.696287 -27.459188 
L 35.465404 -27.388668 
L 34.234522 -27.326258 
L 33.00364 -27.269895 
L 31.772757 -27.219799 
L 30.541875 -27.17399 
z
" id="mfd2081b6dd" style="stroke:#ffffff;stroke-width:0.25;"/>
    </defs>
    <g clip-path="url(#pc377fa1273)">
     <use style="fill:#a9a9a9;stroke:#ffffff;stroke-width:0.25;" x="0" xlink:href="#mfd2081b6dd" y="115.05375"/>
    </g>
   </g>
   <g id="PolyCollection_2">
    <defs>
     <path d="M 30.541875 -29.599324 
L 30.541875 -27.17399 
L 31.772757 -27.219799 
L 33.00364 -27.269895 
L 34.234522 -27.326258 
L 35.465404 -27.388668 
L 36.696287 -27.459188 
L 37.927169 -27.535965 
L 39.158051 -27.615963 
L 40.388934 -27.700979 
L 41.619816 -27.797325 
L 42.850699 -27.901656 
L 44.081581 -28.01095 
L 45.312463 -28.128751 
L 46.543346 -28.252622 
L 47.774228 -28.390243 
L 49.00511 -28.532526 
L 50.235993 -28.684737 
L 51.466875 -28.841071 
L 52.697757 -29.00862 
L 53.92864 -29.184626 
L 55.159522 -29.369736 
L 56.390404 -29.558524 
L 57.621287 -29.773405 
L 58.852169 -30.001925 
L 60.083051 -30.226094 
L 61.313934 -30.445575 
L 62.544816 -30.6741 
L 63.775699 -30.924435 
L 65.006581 -31.193001 
L 66.237463 -31.466247 
L 67.468346 -31.737512 
L 68.699228 -32.006552 
L 69.93011 -32.270679 
L 71.160993 -32.541195 
L 72.391875 -32.818301 
L 73.622757 -33.097432 
L 74.85364 -33.39176 
L 76.084522 -33.701731 
L 77.315404 -34.033842 
L 78.546287 -34.32706 
L 79.777169 -34.615072 
L 81.008051 -34.95851 
L 82.238934 -35.268549 
L 83.469816 -35.644019 
L 84.700699 -36.047424 
L 85.931581 -36.473966 
L 87.162463 -36.91386 
L 88.393346 -37.369797 
L 89.624228 -37.811379 
L 90.85511 -38.269011 
L 92.085993 -38.74502 
L 93.316875 -39.250631 
L 94.547757 -39.787756 
L 95.77864 -40.389017 
L 97.009522 -41.051461 
L 98.240404 -41.76476 
L 99.471287 -42.580715 
L 100.702169 -43.462087 
L 101.933051 -44.345174 
L 103.163934 -45.299952 
L 104.394816 -46.333898 
L 105.625699 -47.502852 
L 106.856581 -48.719322 
L 108.087463 -50.023131 
L 109.318346 -51.346746 
L 110.549228 -52.637523 
L 110.549228 -74.371773 
L 110.549228 -74.371773 
L 109.318346 -72.632174 
L 108.087463 -70.82945 
L 106.856581 -69.05429 
L 105.625699 -67.361441 
L 104.394816 -65.711939 
L 103.163934 -64.212031 
L 101.933051 -62.805457 
L 100.702169 -61.460211 
L 99.471287 -60.101019 
L 98.240404 -58.809598 
L 97.009522 -57.639528 
L 95.77864 -56.529864 
L 94.547757 -55.502576 
L 93.316875 -54.557061 
L 92.085993 -53.637041 
L 90.85511 -52.728989 
L 89.624228 -51.83989 
L 88.393346 -50.971636 
L 87.162463 -50.124364 
L 85.931581 -49.306538 
L 84.700699 -48.490849 
L 83.469816 -47.729821 
L 82.238934 -47.007124 
L 81.008051 -46.362204 
L 79.777169 -45.705187 
L 78.546287 -45.132817 
L 77.315404 -44.55195 
L 76.084522 -43.934745 
L 74.85364 -43.363005 
L 73.622757 -42.816234 
L 72.391875 -42.294434 
L 71.160993 -41.775431 
L 69.93011 -41.270343 
L 68.699228 -40.763485 
L 67.468346 -40.233161 
L 66.237463 -39.672749 
L 65.006581 -39.103491 
L 63.775699 -38.549368 
L 62.544816 -38.019645 
L 61.313934 -37.508683 
L 60.083051 -36.990563 
L 58.852169 -36.447808 
L 57.621287 -35.913257 
L 56.390404 -35.394395 
L 55.159522 -34.937453 
L 53.92864 -34.483113 
L 52.697757 -34.069327 
L 51.466875 -33.669422 
L 50.235993 -33.298727 
L 49.00511 -32.929371 
L 47.774228 -32.59065 
L 46.543346 -32.267358 
L 45.312463 -31.971138 
L 44.081581 -31.692184 
L 42.850699 -31.430043 
L 41.619816 -31.183733 
L 40.388934 -30.954229 
L 39.158051 -30.742459 
L 37.927169 -30.543373 
L 36.696287 -30.353526 
L 35.465404 -30.179953 
L 34.234522 -30.017199 
L 33.00364 -29.868543 
L 31.772757 -29.728508 
L 30.541875 -29.599324 
z
" id="m9286206212" style="stroke:#ffffff;stroke-width:0.25;"/>
    </defs>
    <g clip-path="url(#pc377fa1273)">
     <use style="fill:#808080;stroke:#ffffff;stroke-width:0.25;" x="0" xlink:href="#m9286206212" y="115.05375"/>
    </g>
   </g>
   <g id="PolyCollection_3">
    <defs>
     <path d="M 30.541875 -30.820475 
L 30.541875 -29.599324 
L 31.772757 -29.728508 
L 33.00364 -29.868543 
L 34.234522 -30.017199 
L 35.465404 -30.179953 
L 36.696287 -30.353526 
L 37.927169 -30.543373 
L 39.158051 -30.742459 
L 40.388934 -30.954229 
L 41.619816 -31.183733 
L 42.850699 -31.430043 
L 44.081581 -31.692184 
L 45.312463 -31.971138 
L 46.543346 -32.267358 
L 47.774228 -32.59065 
L 49.00511 -32.929371 
L 50.235993 -33.298727 
L 51.466875 -33.669422 
L 52.697757 -34.069327 
L 53.92864 -34.483113 
L 55.159522 -34.937453 
L 56.390404 -35.394395 
L 57.621287 -35.913257 
L 58.852169 -36.447808 
L 60.083051 -36.990563 
L 61.313934 -37.508683 
L 62.544816 -38.019645 
L 63.775699 -38.549368 
L 65.006581 -39.103491 
L 66.237463 -39.672749 
L 67.468346 -40.233161 
L 68.699228 -40.763485 
L 69.93011 -41.270343 
L 71.160993 -41.775431 
L 72.391875 -42.294434 
L 73.622757 -42.816234 
L 74.85364 -43.363005 
L 76.084522 -43.934745 
L 77.315404 -44.55195 
L 78.546287 -45.132817 
L 79.777169 -45.705187 
L 81.008051 -46.362204 
L 82.238934 -47.007124 
L 83.469816 -47.729821 
L 84.700699 -48.490849 
L 85.931581 -49.306538 
L 87.162463 -50.124364 
L 88.393346 -50.971636 
L 89.624228 -51.83989 
L 90.85511 -52.728989 
L 92.085993 -53.637041 
L 93.316875 -54.557061 
L 94.547757 -55.502576 
L 95.77864 -56.529864 
L 97.009522 -57.639528 
L 98.240404 -58.809598 
L 99.471287 -60.101019 
L 100.702169 -61.460211 
L 101.933051 -62.805457 
L 103.163934 -64.212031 
L 104.394816 -65.711939 
L 105.625699 -67.361441 
L 106.856581 -69.05429 
L 108.087463 -70.82945 
L 109.318346 -72.632174 
L 110.549228 -74.371773 
L 110.549228 -83.422652 
L 110.549228 -83.422652 
L 109.318346 -81.542939 
L 108.087463 -79.59631 
L 106.856581 -77.671758 
L 105.625699 -75.820924 
L 104.394816 -74.009131 
L 103.163934 -72.338504 
L 101.933051 -70.758848 
L 100.702169 -69.235398 
L 99.471287 -67.689331 
L 98.240404 -66.207237 
L 97.009522 -64.848532 
L 95.77864 -63.551757 
L 94.547757 -62.329975 
L 93.316875 -61.197108 
L 92.085993 -60.065604 
L 90.85511 -58.923198 
L 89.624228 -57.798777 
L 88.393346 -56.691648 
L 87.162463 -55.633334 
L 85.931581 -54.595085 
L 84.700699 -53.548125 
L 83.469816 -52.61427 
L 82.238934 -51.722799 
L 81.008051 -50.919523 
L 79.777169 -50.115215 
L 78.546287 -49.387697 
L 77.315404 -48.655615 
L 76.084522 -47.888594 
L 74.85364 -47.181266 
L 73.622757 -46.506197 
L 72.391875 -45.858922 
L 71.160993 -45.216374 
L 69.93011 -44.60202 
L 68.699228 -43.988138 
L 67.468346 -43.355528 
L 66.237463 -42.684425 
L 65.006581 -42.007049 
L 63.775699 -41.347546 
L 62.544816 -40.716498 
L 61.313934 -40.100144 
L 60.083051 -39.477389 
L 58.852169 -38.83012 
L 57.621287 -38.195569 
L 56.390404 -37.578233 
L 55.159522 -37.036867 
L 53.92864 -36.501699 
L 52.697757 -36.014802 
L 51.466875 -35.545434 
L 50.235993 -35.110405 
L 49.00511 -34.679824 
L 47.774228 -34.285293 
L 46.543346 -33.910413 
L 45.312463 -33.566894 
L 44.081581 -33.244596 
L 42.850699 -32.942247 
L 41.619816 -32.658921 
L 40.388934 -32.394689 
L 39.158051 -32.149639 
L 37.927169 -31.918369 
L 36.696287 -31.698443 
L 35.465404 -31.497615 
L 34.234522 -31.309129 
L 33.00364 -31.135678 
L 31.772757 -30.971747 
L 30.541875 -30.820475 
z
" id="m88873054b2" style="stroke:#ffffff;stroke-width:0.25;"/>
    </defs>
    <g clip-path="url(#pc377fa1273)">
     <use style="fill:#7aa974;stroke:#ffffff;stroke-width:0.25;" x="0" xlink:href="#m88873054b2" y="115.05375"/>
    </g>
   </g>
   <g id="PolyCollection_4">
    <defs>
     <path d="M 30.541875 -32.507978 
L 30.541875 -30.820475 
L 31.772757 -30.971747 
L 33.00364 -31.135678 
L 34.234522 -31.309129 
L 35.465404 -31.497615 
L 36.696287 -31.698443 
L 37.927169 -31.918369 
L 39.158051 -32.149639 
L 40.388934 -32.394689 
L 41.619816 -32.658921 
L 42.850699 -32.942247 
L 44.081581 -33.244596 
L 45.312463 -33.566894 
L 46.543346 -33.910413 
L 47.774228 -34.285293 
L 49.00511 -34.679824 
L 50.235993 -35.110405 
L 51.466875 -35.545434 
L 52.697757 -36.014802 
L 53.92864 -36.501699 
L 55.159522 -37.036867 
L 56.390404 -37.578233 
L 57.621287 -38.195569 
L 58.852169 -38.83012 
L 60.083051 -39.477389 
L 61.313934 -40.100144 
L 62.544816 -40.716498 
L 63.775699 -41.347546 
L 65.006581 -42.007049 
L 66.237463 -42.684425 
L 67.468346 -43.355528 
L 68.699228 -43.988138 
L 69.93011 -44.60202 
L 71.160993 -45.216374 
L 72.391875 -45.858922 
L 73.622757 -46.506197 
L 74.85364 -47.181266 
L 76.084522 -47.888594 
L 77.315404 -48.655615 
L 78.546287 -49.387697 
L 79.777169 -50.115215 
L 81.008051 -50.919523 
L 82.238934 -51.722799 
L 83.469816 -52.61427 
L 84.700699 -53.548125 
L 85.931581 -54.595085 
L 87.162463 -55.633334 
L 88.393346 -56.691648 
L 89.624228 -57.798777 
L 90.85511 -58.923198 
L 92.085993 -60.065604 
L 93.316875 -61.197108 
L 94.547757 -62.329975 
L 95.77864 -63.551757 
L 97.009522 -64.848532 
L 98.240404 -66.207237 
L 99.471287 -67.689331 
L 100.702169 -69.235398 
L 101.933051 -70.758848 
L 103.163934 -72.338504 
L 104.394816 -74.009131 
L 105.625699 -75.820924 
L 106.856581 -77.671758 
L 108.087463 -79.59631 
L 109.318346 -81.542939 
L 110.549228 -83.422652 
L 110.549228 -100.531533 
L 110.549228 -100.531533 
L 109.318346 -98.041214 
L 108.087463 -95.505936 
L 106.856581 -93.016935 
L 105.625699 -90.625101 
L 104.394816 -88.295236 
L 103.163934 -86.128345 
L 101.933051 -84.072619 
L 100.702169 -82.091391 
L 99.471287 -80.104228 
L 98.240404 -78.199201 
L 97.009522 -76.433461 
L 95.77864 -74.743028 
L 94.547757 -73.141269 
L 93.316875 -71.640214 
L 92.085993 -70.153273 
L 90.85511 -68.665433 
L 89.624228 -67.206249 
L 88.393346 -65.774958 
L 87.162463 -64.4026 
L 85.931581 -63.0609 
L 84.700699 -61.719984 
L 83.469816 -60.503399 
L 82.238934 -59.338892 
L 81.008051 -58.270609 
L 79.777169 -57.208459 
L 78.546287 -56.230257 
L 77.315404 -55.255139 
L 76.084522 -54.253249 
L 74.85364 -53.31872 
L 73.622757 -52.423523 
L 72.391875 -51.56295 
L 71.160993 -50.713498 
L 69.93011 -49.899248 
L 68.699228 -49.091405 
L 67.468346 -48.271033 
L 66.237463 -47.418205 
L 65.006581 -46.565019 
L 63.775699 -45.736888 
L 62.544816 -44.943817 
L 61.313934 -44.171176 
L 60.083051 -43.398552 
L 58.852169 -42.606966 
L 57.621287 -41.83366 
L 56.390404 -41.083868 
L 55.159522 -40.415303 
L 53.92864 -39.757522 
L 52.697757 -39.153511 
L 51.466875 -38.572727 
L 50.235993 -38.031401 
L 49.00511 -37.498234 
L 47.774228 -37.00543 
L 46.543346 -36.536514 
L 45.312463 -36.102672 
L 44.081581 -35.69381 
L 42.850699 -35.30833 
L 41.619816 -34.944814 
L 40.388934 -34.603673 
L 39.158051 -34.284877 
L 37.927169 -33.982345 
L 36.696287 -33.69394 
L 35.465404 -33.427335 
L 34.234522 -33.174916 
L 33.00364 -32.940088 
L 31.772757 -32.716741 
L 30.541875 -32.507978 
z
" id="mc2ab480162" style="stroke:#ffffff;stroke-width:0.25;"/>
    </defs>
    <g clip-path="url(#pc377fa1273)">
     <use style="fill:#e8b19d;stroke:#ffffff;stroke-width:0.25;" x="0" xlink:href="#mc2ab480162" y="115.05375"/>
    </g>
   </g>
   <g id="PolyCollection_5">
    <defs>
     <path d="M 30.541875 -33.176798 
L 30.541875 -32.507978 
L 31.772757 -32.716741 
L 33.00364 -32.940088 
L 34.234522 -33.174916 
L 35.465404 -33.427335 
L 36.696287 -33.69394 
L 37.927169 -33.982345 
L 39.158051 -34.284877 
L 40.388934 -34.603673 
L 41.619816 -34.944814 
L 42.850699 -35.30833 
L 44.081581 -35.69381 
L 45.312463 -36.102672 
L 46.543346 -36.536514 
L 47.774228 -37.00543 
L 49.00511 -37.498234 
L 50.235993 -38.031401 
L 51.466875 -38.572727 
L 52.697757 -39.153511 
L 53.92864 -39.757522 
L 55.159522 -40.415303 
L 56.390404 -41.083868 
L 57.621287 -41.83366 
L 58.852169 -42.606966 
L 60.083051 -43.398552 
L 61.313934 -44.171176 
L 62.544816 -44.943817 
L 63.775699 -45.736888 
L 65.006581 -46.565019 
L 66.237463 -47.418205 
L 67.468346 -48.271033 
L 68.699228 -49.091405 
L 69.93011 -49.899248 
L 71.160993 -50.713498 
L 72.391875 -51.56295 
L 73.622757 -52.423523 
L 74.85364 -53.31872 
L 76.084522 -54.253249 
L 77.315404 -55.255139 
L 78.546287 -56.230257 
L 79.777169 -57.208459 
L 81.008051 -58.270609 
L 82.238934 -59.338892 
L 83.469816 -60.503399 
L 84.700699 -61.719984 
L 85.931581 -63.0609 
L 87.162463 -64.4026 
L 88.393346 -65.774958 
L 89.624228 -67.206249 
L 90.85511 -68.665433 
L 92.085993 -70.153273 
L 93.316875 -71.640214 
L 94.547757 -73.141269 
L 95.77864 -74.743028 
L 97.009522 -76.433461 
L 98.240404 -78.199201 
L 99.471287 -80.104228 
L 100.702169 -82.091391 
L 101.933051 -84.072619 
L 103.163934 -86.128345 
L 104.394816 -88.295236 
L 105.625699 -90.625101 
L 106.856581 -93.016935 
L 108.087463 -95.505936 
L 109.318346 -98.041214 
L 110.549228 -100.531533 
L 110.549228 -103.970893 
L 110.549228 -103.970893 
L 109.318346 -101.387037 
L 108.087463 -98.758903 
L 106.856581 -96.179163 
L 105.625699 -93.70285 
L 104.394816 -91.290886 
L 103.163934 -89.048128 
L 101.933051 -86.928235 
L 100.702169 -84.875103 
L 99.471287 -82.8126 
L 98.240404 -80.838468 
L 97.009522 -79.009688 
L 95.77864 -77.261216 
L 94.547757 -75.606985 
L 93.316875 -74.059145 
L 92.085993 -72.528865 
L 90.85511 -70.996066 
L 89.624228 -69.494496 
L 88.393346 -68.023064 
L 87.162463 -66.607032 
L 85.931581 -65.225815 
L 84.700699 -63.84409 
L 83.469816 -62.588021 
L 82.238934 -61.385381 
L 81.008051 -60.27856 
L 79.777169 -59.17543 
L 78.546287 -58.152323 
L 77.315404 -57.130126 
L 76.084522 -56.081513 
L 74.85364 -55.102427 
L 73.622757 -54.164363 
L 72.391875 -53.26174 
L 71.160993 -52.370359 
L 69.93011 -51.517427 
L 68.699228 -50.672691 
L 67.468346 -49.811656 
L 66.237463 -48.915838 
L 65.006581 -48.017905 
L 63.775699 -47.146671 
L 62.544816 -46.312103 
L 61.313934 -45.498089 
L 60.083051 -44.688854 
L 58.852169 -43.855184 
L 57.621287 -43.038336 
L 56.390404 -42.248929 
L 55.159522 -41.542942 
L 53.92864 -40.847893 
L 52.697757 -40.208119 
L 51.466875 -39.593907 
L 50.235993 -39.023283 
L 49.00511 -38.458807 
L 47.774228 -37.935991 
L 46.543346 -37.439807 
L 45.312463 -36.982115 
L 44.081581 -36.55076 
L 42.850699 -36.143386 
L 41.619816 -35.757653 
L 40.388934 -35.397307 
L 39.158051 -35.060809 
L 37.927169 -34.739797 
L 36.696287 -34.434411 
L 35.465404 -34.151989 
L 34.234522 -33.882973 
L 33.00364 -33.633854 
L 31.772757 -33.397753 
L 30.541875 -33.176798 
z
" id="m79ab63f6ad" style="stroke:#ffffff;stroke-width:0.25;"/>
    </defs>
    <g clip-path="url(#pc377fa1273)">
     <use style="fill:#738fc1;stroke:#ffffff;stroke-width:0.25;" x="0" xlink:href="#m79ab63f6ad" y="115.05375"/>
    </g>
   </g>
   <g id="patch_3">
    <path d="M 30.541875 88.74 
L 30.541875 7.2 
" style="fill:none;stroke:#ffffff;stroke-linecap:square;stroke-linejoin:miter;stroke-width:0.8;"/>
   </g>
   <g id="patch_4">
    <path d="M 114.241875 88.74 
L 114.241875 7.2 
" style="fill:none;stroke:#ffffff;stroke-linecap:square;stroke-linejoin:miter;stroke-width:0.8;"/>
   </g>
   <g id="patch_5">
    <path d="M 30.541875 88.74 
L 114.241875 88.74 
" style="fill:none;stroke:#ffffff;stroke-linecap:square;stroke-linejoin:miter;stroke-width:0.8;"/>
   </g>
   <g id="patch_6">
    <path d="M 30.541875 7.2 
L 114.241875 7.2 
" style="fill:none;stroke:#ffffff;stroke-linecap:square;stroke-linejoin:miter;stroke-width:0.8;"/>
   </g>
  </g>
 </g>
 <defs>
  <clipPath id="pc377fa1273">
   <rect height="81.54" width="83.7" x="30.541875" y="7.2"/>
  </clipPath>
 </defs>
</svg>
