<?xml version="1.0" encoding="utf-8" standalone="no"?>
<!DOCTYPE svg PUBLIC "-//W3C//DTD SVG 1.1//EN"
  "http://www.w3.org/Graphics/SVG/1.1/DTD/svg11.dtd">
<!-- Created with matplotlib (https://matplotlib.org/) -->
<svg height="142.23375pt" version="1.1" viewBox="0 0 149.341875 142.23375" width="149.341875pt" xmlns="http://www.w3.org/2000/svg" xmlns:xlink="http://www.w3.org/1999/xlink">
 <metadata>
  <rdf:RDF xmlns:cc="http://creativecommons.org/ns#" xmlns:dc="http://purl.org/dc/elements/1.1/" xmlns:rdf="http://www.w3.org/1999/02/22-rdf-syntax-ns#">
   <cc:Work>
    <dc:type rdf:resource="http://purl.org/dc/dcmitype/StillImage"/>
    <dc:date>2021-09-07T09:47:05.521376</dc:date>
    <dc:format>image/svg+xml</dc:format>
    <dc:creator>
     <cc:Agent>
      <dc:title>Matplotlib v3.3.4, https://matplotlib.org/</dc:title>
     </cc:Agent>
    </dc:creator>
   </cc:Work>
  </rdf:RDF>
 </metadata>
 <defs>
  <style type="text/css">*{stroke-linecap:butt;stroke-linejoin:round;}</style>
 </defs>
 <g id="figure_1">
  <g id="patch_1">
   <path d="M 0 142.23375 
L 149.341875 142.23375 
L 149.341875 0 
L 0 0 
z
" style="fill:#ffffff;"/>
  </g>
  <g id="axes_1">
   <g id="patch_2">
    <path d="M 30.541875 115.92 
L 142.141875 115.92 
L 142.141875 7.2 
L 30.541875 7.2 
z
" style="fill:#e3dcd0;"/>
   </g>
   <g id="matplotlib.axis_1">
    <g id="xtick_1">
     <g id="text_1">
      <!-- 3 -->
      <g transform="translate(38.787405 123.979062)scale(0.06 -0.06)">
       <defs>
        <path d="M 40.578125 39.3125 
Q 47.65625 37.796875 51.625 33 
Q 55.609375 28.21875 55.609375 21.1875 
Q 55.609375 10.40625 48.1875 4.484375 
Q 40.765625 -1.421875 27.09375 -1.421875 
Q 22.515625 -1.421875 17.65625 -0.515625 
Q 12.796875 0.390625 7.625 2.203125 
L 7.625 11.71875 
Q 11.71875 9.328125 16.59375 8.109375 
Q 21.484375 6.890625 26.8125 6.890625 
Q 36.078125 6.890625 40.9375 10.546875 
Q 45.796875 14.203125 45.796875 21.1875 
Q 45.796875 27.640625 41.28125 31.265625 
Q 36.765625 34.90625 28.71875 34.90625 
L 20.21875 34.90625 
L 20.21875 43.015625 
L 29.109375 43.015625 
Q 36.375 43.015625 40.234375 45.921875 
Q 44.09375 48.828125 44.09375 54.296875 
Q 44.09375 59.90625 40.109375 62.90625 
Q 36.140625 65.921875 28.71875 65.921875 
Q 24.65625 65.921875 20.015625 65.03125 
Q 15.375 64.15625 9.8125 62.3125 
L 9.8125 71.09375 
Q 15.4375 72.65625 20.34375 73.4375 
Q 25.25 74.21875 29.59375 74.21875 
Q 40.828125 74.21875 47.359375 69.109375 
Q 53.90625 64.015625 53.90625 55.328125 
Q 53.90625 49.265625 50.4375 45.09375 
Q 46.96875 40.921875 40.578125 39.3125 
z
" id="DejaVuSans-51"/>
       </defs>
       <use xlink:href="#DejaVuSans-51"/>
      </g>
     </g>
    </g>
    <g id="xtick_2">
     <g id="text_2">
      <!-- 4 -->
      <g transform="translate(60.684594 123.979062)scale(0.06 -0.06)">
       <defs>
        <path d="M 37.796875 64.3125 
L 12.890625 25.390625 
L 37.796875 25.390625 
z
M 35.203125 72.90625 
L 47.609375 72.90625 
L 47.609375 25.390625 
L 58.015625 25.390625 
L 58.015625 17.1875 
L 47.609375 17.1875 
L 47.609375 0 
L 37.796875 0 
L 37.796875 17.1875 
L 4.890625 17.1875 
L 4.890625 26.703125 
z
" id="DejaVuSans-52"/>
       </defs>
       <use xlink:href="#DejaVuSans-52"/>
      </g>
     </g>
    </g>
    <g id="xtick_3">
     <g id="text_3">
      <!-- 5 -->
      <g transform="translate(82.581783 123.979062)scale(0.06 -0.06)">
       <defs>
        <path d="M 10.796875 72.90625 
L 49.515625 72.90625 
L 49.515625 64.59375 
L 19.828125 64.59375 
L 19.828125 46.734375 
Q 21.96875 47.46875 24.109375 47.828125 
Q 26.265625 48.1875 28.421875 48.1875 
Q 40.625 48.1875 47.75 41.5 
Q 54.890625 34.8125 54.890625 23.390625 
Q 54.890625 11.625 47.5625 5.09375 
Q 40.234375 -1.421875 26.90625 -1.421875 
Q 22.3125 -1.421875 17.546875 -0.640625 
Q 12.796875 0.140625 7.71875 1.703125 
L 7.71875 11.625 
Q 12.109375 9.234375 16.796875 8.0625 
Q 21.484375 6.890625 26.703125 6.890625 
Q 35.15625 6.890625 40.078125 11.328125 
Q 45.015625 15.765625 45.015625 23.390625 
Q 45.015625 31 40.078125 35.4375 
Q 35.15625 39.890625 26.703125 39.890625 
Q 22.75 39.890625 18.8125 39.015625 
Q 14.890625 38.140625 10.796875 36.28125 
z
" id="DejaVuSans-53"/>
       </defs>
       <use xlink:href="#DejaVuSans-53"/>
      </g>
     </g>
    </g>
    <g id="xtick_4">
     <g id="text_4">
      <!-- 6 -->
      <g transform="translate(104.478972 123.979062)scale(0.06 -0.06)">
       <defs>
        <path d="M 33.015625 40.375 
Q 26.375 40.375 22.484375 35.828125 
Q 18.609375 31.296875 18.609375 23.390625 
Q 18.609375 15.53125 22.484375 10.953125 
Q 26.375 6.390625 33.015625 6.390625 
Q 39.65625 6.390625 43.53125 10.953125 
Q 47.40625 15.53125 47.40625 23.390625 
Q 47.40625 31.296875 43.53125 35.828125 
Q 39.65625 40.375 33.015625 40.375 
z
M 52.59375 71.296875 
L 52.59375 62.3125 
Q 48.875 64.0625 45.09375 64.984375 
Q 41.3125 65.921875 37.59375 65.921875 
Q 27.828125 65.921875 22.671875 59.328125 
Q 17.53125 52.734375 16.796875 39.40625 
Q 19.671875 43.65625 24.015625 45.921875 
Q 28.375 48.1875 33.59375 48.1875 
Q 44.578125 48.1875 50.953125 41.515625 
Q 57.328125 34.859375 57.328125 23.390625 
Q 57.328125 12.15625 50.6875 5.359375 
Q 44.046875 -1.421875 33.015625 -1.421875 
Q 20.359375 -1.421875 13.671875 8.265625 
Q 6.984375 17.96875 6.984375 36.375 
Q 6.984375 53.65625 15.1875 63.9375 
Q 23.390625 74.21875 37.203125 74.21875 
Q 40.921875 74.21875 44.703125 73.484375 
Q 48.484375 72.75 52.59375 71.296875 
z
" id="DejaVuSans-54"/>
       </defs>
       <use xlink:href="#DejaVuSans-54"/>
      </g>
     </g>
    </g>
    <g id="xtick_5">
     <g id="text_5">
      <!-- 7 -->
      <g transform="translate(126.376161 123.979062)scale(0.06 -0.06)">
       <defs>
        <path d="M 8.203125 72.90625 
L 55.078125 72.90625 
L 55.078125 68.703125 
L 28.609375 0 
L 18.3125 0 
L 43.21875 64.59375 
L 8.203125 64.59375 
z
" id="DejaVuSans-55"/>
       </defs>
       <use xlink:href="#DejaVuSans-55"/>
      </g>
     </g>
    </g>
    <g id="text_6">
     <!-- population [billion] -->
     <g style="fill:#262626;" transform="translate(58.108125 133.785937)scale(0.06 -0.06)">
      <defs>
       <path d="M 18.109375 8.203125 
L 18.109375 -20.796875 
L 9.078125 -20.796875 
L 9.078125 54.6875 
L 18.109375 54.6875 
L 18.109375 46.390625 
Q 20.953125 51.265625 25.265625 53.625 
Q 29.59375 56 35.59375 56 
Q 45.5625 56 51.78125 48.09375 
Q 58.015625 40.1875 58.015625 27.296875 
Q 58.015625 14.40625 51.78125 6.484375 
Q 45.5625 -1.421875 35.59375 -1.421875 
Q 29.59375 -1.421875 25.265625 0.953125 
Q 20.953125 3.328125 18.109375 8.203125 
z
M 48.6875 27.296875 
Q 48.6875 37.203125 44.609375 42.84375 
Q 40.53125 48.484375 33.40625 48.484375 
Q 26.265625 48.484375 22.1875 42.84375 
Q 18.109375 37.203125 18.109375 27.296875 
Q 18.109375 17.390625 22.1875 11.75 
Q 26.265625 6.109375 33.40625 6.109375 
Q 40.53125 6.109375 44.609375 11.75 
Q 48.6875 17.390625 48.6875 27.296875 
z
" id="DejaVuSans-112"/>
       <path d="M 30.609375 48.390625 
Q 23.390625 48.390625 19.1875 42.75 
Q 14.984375 37.109375 14.984375 27.296875 
Q 14.984375 17.484375 19.15625 11.84375 
Q 23.34375 6.203125 30.609375 6.203125 
Q 37.796875 6.203125 41.984375 11.859375 
Q 46.1875 17.53125 46.1875 27.296875 
Q 46.1875 37.015625 41.984375 42.703125 
Q 37.796875 48.390625 30.609375 48.390625 
z
M 30.609375 56 
Q 42.328125 56 49.015625 48.375 
Q 55.71875 40.765625 55.71875 27.296875 
Q 55.71875 13.875 49.015625 6.21875 
Q 42.328125 -1.421875 30.609375 -1.421875 
Q 18.84375 -1.421875 12.171875 6.21875 
Q 5.515625 13.875 5.515625 27.296875 
Q 5.515625 40.765625 12.171875 48.375 
Q 18.84375 56 30.609375 56 
z
" id="DejaVuSans-111"/>
       <path d="M 8.5 21.578125 
L 8.5 54.6875 
L 17.484375 54.6875 
L 17.484375 21.921875 
Q 17.484375 14.15625 20.5 10.265625 
Q 23.53125 6.390625 29.59375 6.390625 
Q 36.859375 6.390625 41.078125 11.03125 
Q 45.3125 15.671875 45.3125 23.6875 
L 45.3125 54.6875 
L 54.296875 54.6875 
L 54.296875 0 
L 45.3125 0 
L 45.3125 8.40625 
Q 42.046875 3.421875 37.71875 1 
Q 33.40625 -1.421875 27.6875 -1.421875 
Q 18.265625 -1.421875 13.375 4.4375 
Q 8.5 10.296875 8.5 21.578125 
z
M 31.109375 56 
z
" id="DejaVuSans-117"/>
       <path d="M 9.421875 75.984375 
L 18.40625 75.984375 
L 18.40625 0 
L 9.421875 0 
z
" id="DejaVuSans-108"/>
       <path d="M 34.28125 27.484375 
Q 23.390625 27.484375 19.1875 25 
Q 14.984375 22.515625 14.984375 16.5 
Q 14.984375 11.71875 18.140625 8.90625 
Q 21.296875 6.109375 26.703125 6.109375 
Q 34.1875 6.109375 38.703125 11.40625 
Q 43.21875 16.703125 43.21875 25.484375 
L 43.21875 27.484375 
z
M 52.203125 31.203125 
L 52.203125 0 
L 43.21875 0 
L 43.21875 8.296875 
Q 40.140625 3.328125 35.546875 0.953125 
Q 30.953125 -1.421875 24.3125 -1.421875 
Q 15.921875 -1.421875 10.953125 3.296875 
Q 6 8.015625 6 15.921875 
Q 6 25.140625 12.171875 29.828125 
Q 18.359375 34.515625 30.609375 34.515625 
L 43.21875 34.515625 
L 43.21875 35.40625 
Q 43.21875 41.609375 39.140625 45 
Q 35.0625 48.390625 27.6875 48.390625 
Q 23 48.390625 18.546875 47.265625 
Q 14.109375 46.140625 10.015625 43.890625 
L 10.015625 52.203125 
Q 14.9375 54.109375 19.578125 55.046875 
Q 24.21875 56 28.609375 56 
Q 40.484375 56 46.34375 49.84375 
Q 52.203125 43.703125 52.203125 31.203125 
z
" id="DejaVuSans-97"/>
       <path d="M 18.3125 70.21875 
L 18.3125 54.6875 
L 36.8125 54.6875 
L 36.8125 47.703125 
L 18.3125 47.703125 
L 18.3125 18.015625 
Q 18.3125 11.328125 20.140625 9.421875 
Q 21.96875 7.515625 27.59375 7.515625 
L 36.8125 7.515625 
L 36.8125 0 
L 27.59375 0 
Q 17.1875 0 13.234375 3.875 
Q 9.28125 7.765625 9.28125 18.015625 
L 9.28125 47.703125 
L 2.6875 47.703125 
L 2.6875 54.6875 
L 9.28125 54.6875 
L 9.28125 70.21875 
z
" id="DejaVuSans-116"/>
       <path d="M 9.421875 54.6875 
L 18.40625 54.6875 
L 18.40625 0 
L 9.421875 0 
z
M 9.421875 75.984375 
L 18.40625 75.984375 
L 18.40625 64.59375 
L 9.421875 64.59375 
z
" id="DejaVuSans-105"/>
       <path d="M 54.890625 33.015625 
L 54.890625 0 
L 45.90625 0 
L 45.90625 32.71875 
Q 45.90625 40.484375 42.875 44.328125 
Q 39.84375 48.1875 33.796875 48.1875 
Q 26.515625 48.1875 22.3125 43.546875 
Q 18.109375 38.921875 18.109375 30.90625 
L 18.109375 0 
L 9.078125 0 
L 9.078125 54.6875 
L 18.109375 54.6875 
L 18.109375 46.1875 
Q 21.34375 51.125 25.703125 53.5625 
Q 30.078125 56 35.796875 56 
Q 45.21875 56 50.046875 50.171875 
Q 54.890625 44.34375 54.890625 33.015625 
z
" id="DejaVuSans-110"/>
       <path id="DejaVuSans-32"/>
       <path d="M 8.59375 75.984375 
L 29.296875 75.984375 
L 29.296875 69 
L 17.578125 69 
L 17.578125 -6.203125 
L 29.296875 -6.203125 
L 29.296875 -13.1875 
L 8.59375 -13.1875 
z
" id="DejaVuSans-91"/>
       <path d="M 48.6875 27.296875 
Q 48.6875 37.203125 44.609375 42.84375 
Q 40.53125 48.484375 33.40625 48.484375 
Q 26.265625 48.484375 22.1875 42.84375 
Q 18.109375 37.203125 18.109375 27.296875 
Q 18.109375 17.390625 22.1875 11.75 
Q 26.265625 6.109375 33.40625 6.109375 
Q 40.53125 6.109375 44.609375 11.75 
Q 48.6875 17.390625 48.6875 27.296875 
z
M 18.109375 46.390625 
Q 20.953125 51.265625 25.265625 53.625 
Q 29.59375 56 35.59375 56 
Q 45.5625 56 51.78125 48.09375 
Q 58.015625 40.1875 58.015625 27.296875 
Q 58.015625 14.40625 51.78125 6.484375 
Q 45.5625 -1.421875 35.59375 -1.421875 
Q 29.59375 -1.421875 25.265625 0.953125 
Q 20.953125 3.328125 18.109375 8.203125 
L 18.109375 0 
L 9.078125 0 
L 9.078125 75.984375 
L 18.109375 75.984375 
z
" id="DejaVuSans-98"/>
       <path d="M 30.421875 75.984375 
L 30.421875 -13.1875 
L 9.71875 -13.1875 
L 9.71875 -6.203125 
L 21.390625 -6.203125 
L 21.390625 69 
L 9.71875 69 
L 9.71875 75.984375 
z
" id="DejaVuSans-93"/>
      </defs>
      <use xlink:href="#DejaVuSans-112"/>
      <use x="63.476562" xlink:href="#DejaVuSans-111"/>
      <use x="124.658203" xlink:href="#DejaVuSans-112"/>
      <use x="188.134766" xlink:href="#DejaVuSans-117"/>
      <use x="251.513672" xlink:href="#DejaVuSans-108"/>
      <use x="279.296875" xlink:href="#DejaVuSans-97"/>
      <use x="340.576172" xlink:href="#DejaVuSans-116"/>
      <use x="379.785156" xlink:href="#DejaVuSans-105"/>
      <use x="407.568359" xlink:href="#DejaVuSans-111"/>
      <use x="468.75" xlink:href="#DejaVuSans-110"/>
      <use x="532.128906" xlink:href="#DejaVuSans-32"/>
      <use x="563.916016" xlink:href="#DejaVuSans-91"/>
      <use x="602.929688" xlink:href="#DejaVuSans-98"/>
      <use x="666.40625" xlink:href="#DejaVuSans-105"/>
      <use x="694.189453" xlink:href="#DejaVuSans-108"/>
      <use x="721.972656" xlink:href="#DejaVuSans-108"/>
      <use x="749.755859" xlink:href="#DejaVuSans-105"/>
      <use x="777.539062" xlink:href="#DejaVuSans-111"/>
      <use x="838.720703" xlink:href="#DejaVuSans-110"/>
      <use x="902.099609" xlink:href="#DejaVuSans-93"/>
     </g>
    </g>
   </g>
   <g id="matplotlib.axis_2">
    <g id="ytick_1">
     <g id="text_7">
      <!-- 0.0 -->
      <g transform="translate(17.5 118.199531)scale(0.06 -0.06)">
       <defs>
        <path d="M 31.78125 66.40625 
Q 24.171875 66.40625 20.328125 58.90625 
Q 16.5 51.421875 16.5 36.375 
Q 16.5 21.390625 20.328125 13.890625 
Q 24.171875 6.390625 31.78125 6.390625 
Q 39.453125 6.390625 43.28125 13.890625 
Q 47.125 21.390625 47.125 36.375 
Q 47.125 51.421875 43.28125 58.90625 
Q 39.453125 66.40625 31.78125 66.40625 
z
M 31.78125 74.21875 
Q 44.046875 74.21875 50.515625 64.515625 
Q 56.984375 54.828125 56.984375 36.375 
Q 56.984375 17.96875 50.515625 8.265625 
Q 44.046875 -1.421875 31.78125 -1.421875 
Q 19.53125 -1.421875 13.0625 8.265625 
Q 6.59375 17.96875 6.59375 36.375 
Q 6.59375 54.828125 13.0625 64.515625 
Q 19.53125 74.21875 31.78125 74.21875 
z
" id="DejaVuSans-48"/>
        <path d="M 10.6875 12.40625 
L 21 12.40625 
L 21 0 
L 10.6875 0 
z
" id="DejaVuSans-46"/>
       </defs>
       <use xlink:href="#DejaVuSans-48"/>
       <use x="63.623047" xlink:href="#DejaVuSans-46"/>
       <use x="95.410156" xlink:href="#DejaVuSans-48"/>
      </g>
     </g>
    </g>
    <g id="ytick_2">
     <g id="text_8">
      <!-- 0.5 -->
      <g transform="translate(17.5 105.770173)scale(0.06 -0.06)">
       <use xlink:href="#DejaVuSans-48"/>
       <use x="63.623047" xlink:href="#DejaVuSans-46"/>
       <use x="95.410156" xlink:href="#DejaVuSans-53"/>
      </g>
     </g>
    </g>
    <g id="ytick_3">
     <g id="text_9">
      <!-- 1.0 -->
      <g transform="translate(17.5 93.340815)scale(0.06 -0.06)">
       <defs>
        <path d="M 12.40625 8.296875 
L 28.515625 8.296875 
L 28.515625 63.921875 
L 10.984375 60.40625 
L 10.984375 69.390625 
L 28.421875 72.90625 
L 38.28125 72.90625 
L 38.28125 8.296875 
L 54.390625 8.296875 
L 54.390625 0 
L 12.40625 0 
z
" id="DejaVuSans-49"/>
       </defs>
       <use xlink:href="#DejaVuSans-49"/>
       <use x="63.623047" xlink:href="#DejaVuSans-46"/>
       <use x="95.410156" xlink:href="#DejaVuSans-48"/>
      </g>
     </g>
    </g>
    <g id="ytick_4">
     <g id="text_10">
      <!-- 1.5 -->
      <g transform="translate(17.5 80.911456)scale(0.06 -0.06)">
       <use xlink:href="#DejaVuSans-49"/>
       <use x="63.623047" xlink:href="#DejaVuSans-46"/>
       <use x="95.410156" xlink:href="#DejaVuSans-53"/>
      </g>
     </g>
    </g>
    <g id="ytick_5">
     <g id="text_11">
      <!-- 2.0 -->
      <g transform="translate(17.5 68.482098)scale(0.06 -0.06)">
       <defs>
        <path d="M 19.1875 8.296875 
L 53.609375 8.296875 
L 53.609375 0 
L 7.328125 0 
L 7.328125 8.296875 
Q 12.9375 14.109375 22.625 23.890625 
Q 32.328125 33.6875 34.8125 36.53125 
Q 39.546875 41.84375 41.421875 45.53125 
Q 43.3125 49.21875 43.3125 52.78125 
Q 43.3125 58.59375 39.234375 62.25 
Q 35.15625 65.921875 28.609375 65.921875 
Q 23.96875 65.921875 18.8125 64.3125 
Q 13.671875 62.703125 7.8125 59.421875 
L 7.8125 69.390625 
Q 13.765625 71.78125 18.9375 73 
Q 24.125 74.21875 28.421875 74.21875 
Q 39.75 74.21875 46.484375 68.546875 
Q 53.21875 62.890625 53.21875 53.421875 
Q 53.21875 48.921875 51.53125 44.890625 
Q 49.859375 40.875 45.40625 35.40625 
Q 44.1875 33.984375 37.640625 27.21875 
Q 31.109375 20.453125 19.1875 8.296875 
z
" id="DejaVuSans-50"/>
       </defs>
       <use xlink:href="#DejaVuSans-50"/>
       <use x="63.623047" xlink:href="#DejaVuSans-46"/>
       <use x="95.410156" xlink:href="#DejaVuSans-48"/>
      </g>
     </g>
    </g>
    <g id="ytick_6">
     <g id="text_12">
      <!-- 2.5 -->
      <g transform="translate(17.5 56.052739)scale(0.06 -0.06)">
       <use xlink:href="#DejaVuSans-50"/>
       <use x="63.623047" xlink:href="#DejaVuSans-46"/>
       <use x="95.410156" xlink:href="#DejaVuSans-53"/>
      </g>
     </g>
    </g>
    <g id="ytick_7">
     <g id="text_13">
      <!-- 3.0 -->
      <g transform="translate(17.5 43.623381)scale(0.06 -0.06)">
       <use xlink:href="#DejaVuSans-51"/>
       <use x="63.623047" xlink:href="#DejaVuSans-46"/>
       <use x="95.410156" xlink:href="#DejaVuSans-48"/>
      </g>
     </g>
    </g>
    <g id="ytick_8">
     <g id="text_14">
      <!-- 3.5 -->
      <g transform="translate(17.5 31.194023)scale(0.06 -0.06)">
       <use xlink:href="#DejaVuSans-51"/>
       <use x="63.623047" xlink:href="#DejaVuSans-46"/>
       <use x="95.410156" xlink:href="#DejaVuSans-53"/>
      </g>
     </g>
    </g>
    <g id="ytick_9">
     <g id="text_15">
      <!-- 4.0 -->
      <g transform="translate(17.5 18.764664)scale(0.06 -0.06)">
       <use xlink:href="#DejaVuSans-52"/>
       <use x="63.623047" xlink:href="#DejaVuSans-46"/>
       <use x="95.410156" xlink:href="#DejaVuSans-48"/>
      </g>
     </g>
    </g>
    <g id="text_16">
     <!-- anthropomass [10$^{13}$ kg] -->
     <g style="fill:#262626;" transform="translate(12.24 96.99)rotate(-90)scale(0.06 -0.06)">
      <defs>
       <path d="M 54.890625 33.015625 
L 54.890625 0 
L 45.90625 0 
L 45.90625 32.71875 
Q 45.90625 40.484375 42.875 44.328125 
Q 39.84375 48.1875 33.796875 48.1875 
Q 26.515625 48.1875 22.3125 43.546875 
Q 18.109375 38.921875 18.109375 30.90625 
L 18.109375 0 
L 9.078125 0 
L 9.078125 75.984375 
L 18.109375 75.984375 
L 18.109375 46.1875 
Q 21.34375 51.125 25.703125 53.5625 
Q 30.078125 56 35.796875 56 
Q 45.21875 56 50.046875 50.171875 
Q 54.890625 44.34375 54.890625 33.015625 
z
" id="DejaVuSans-104"/>
       <path d="M 41.109375 46.296875 
Q 39.59375 47.171875 37.8125 47.578125 
Q 36.03125 48 33.890625 48 
Q 26.265625 48 22.1875 43.046875 
Q 18.109375 38.09375 18.109375 28.8125 
L 18.109375 0 
L 9.078125 0 
L 9.078125 54.6875 
L 18.109375 54.6875 
L 18.109375 46.1875 
Q 20.953125 51.171875 25.484375 53.578125 
Q 30.03125 56 36.53125 56 
Q 37.453125 56 38.578125 55.875 
Q 39.703125 55.765625 41.0625 55.515625 
z
" id="DejaVuSans-114"/>
       <path d="M 52 44.1875 
Q 55.375 50.25 60.0625 53.125 
Q 64.75 56 71.09375 56 
Q 79.640625 56 84.28125 50.015625 
Q 88.921875 44.046875 88.921875 33.015625 
L 88.921875 0 
L 79.890625 0 
L 79.890625 32.71875 
Q 79.890625 40.578125 77.09375 44.375 
Q 74.3125 48.1875 68.609375 48.1875 
Q 61.625 48.1875 57.5625 43.546875 
Q 53.515625 38.921875 53.515625 30.90625 
L 53.515625 0 
L 44.484375 0 
L 44.484375 32.71875 
Q 44.484375 40.625 41.703125 44.40625 
Q 38.921875 48.1875 33.109375 48.1875 
Q 26.21875 48.1875 22.15625 43.53125 
Q 18.109375 38.875 18.109375 30.90625 
L 18.109375 0 
L 9.078125 0 
L 9.078125 54.6875 
L 18.109375 54.6875 
L 18.109375 46.1875 
Q 21.1875 51.21875 25.484375 53.609375 
Q 29.78125 56 35.6875 56 
Q 41.65625 56 45.828125 52.96875 
Q 50 49.953125 52 44.1875 
z
" id="DejaVuSans-109"/>
       <path d="M 44.28125 53.078125 
L 44.28125 44.578125 
Q 40.484375 46.53125 36.375 47.5 
Q 32.28125 48.484375 27.875 48.484375 
Q 21.1875 48.484375 17.84375 46.4375 
Q 14.5 44.390625 14.5 40.28125 
Q 14.5 37.15625 16.890625 35.375 
Q 19.28125 33.59375 26.515625 31.984375 
L 29.59375 31.296875 
Q 39.15625 29.25 43.1875 25.515625 
Q 47.21875 21.78125 47.21875 15.09375 
Q 47.21875 7.46875 41.1875 3.015625 
Q 35.15625 -1.421875 24.609375 -1.421875 
Q 20.21875 -1.421875 15.453125 -0.5625 
Q 10.6875 0.296875 5.421875 2 
L 5.421875 11.28125 
Q 10.40625 8.6875 15.234375 7.390625 
Q 20.0625 6.109375 24.8125 6.109375 
Q 31.15625 6.109375 34.5625 8.28125 
Q 37.984375 10.453125 37.984375 14.40625 
Q 37.984375 18.0625 35.515625 20.015625 
Q 33.0625 21.96875 24.703125 23.78125 
L 21.578125 24.515625 
Q 13.234375 26.265625 9.515625 29.90625 
Q 5.8125 33.546875 5.8125 39.890625 
Q 5.8125 47.609375 11.28125 51.796875 
Q 16.75 56 26.8125 56 
Q 31.78125 56 36.171875 55.265625 
Q 40.578125 54.546875 44.28125 53.078125 
z
" id="DejaVuSans-115"/>
       <path d="M 30.203125 0 
L 22.296875 0 
L 22.296875 57 
Q 20.09375 56 15.75 53.75 
Q 11.40625 51.5 10.796875 51.203125 
L 10.796875 58.5 
L 28.796875 67.703125 
L 30.203125 67.203125 
z
" id="STIXGeneral-Regular-120803"/>
       <path d="M 11.296875 49.203125 
L 4.203125 50.90625 
Q 6.40625 58.703125 11.5 63.140625 
Q 16.59375 67.59375 24.296875 67.59375 
Q 31.40625 67.59375 36.203125 63.09375 
Q 41 58.59375 41 51.90625 
Q 41 43 32.40625 37 
Q 38 35 41.046875 30.34375 
Q 44.09375 25.703125 44.09375 21 
Q 44.09375 11.296875 37.796875 5 
Q 31.40625 -1.40625 20.5 -1.40625 
Q 9.5 -1.40625 3.09375 5.59375 
L 7.796875 11.203125 
Q 12.90625 5.703125 20 5.703125 
Q 27.40625 5.703125 31.59375 9.296875 
Q 36.203125 13.203125 36.203125 19.09375 
Q 36.203125 24.296875 32.453125 27.796875 
Q 28.703125 31.296875 22.203125 32.203125 
L 15.796875 32.203125 
L 15.796875 34.296875 
L 20.59375 39.40625 
Q 25.09375 39.40625 29.09375 42.84375 
Q 33.09375 46.296875 33.09375 51.203125 
Q 33.09375 55.40625 30.4375 57.953125 
Q 27.796875 60.5 24 60.5 
Q 20 60.5 16.546875 57.640625 
Q 13.09375 54.796875 11.296875 49.203125 
z
" id="STIXGeneral-Regular-120805"/>
       <path d="M 9.078125 75.984375 
L 18.109375 75.984375 
L 18.109375 31.109375 
L 44.921875 54.6875 
L 56.390625 54.6875 
L 27.390625 29.109375 
L 57.625 0 
L 45.90625 0 
L 18.109375 26.703125 
L 18.109375 0 
L 9.078125 0 
z
" id="DejaVuSans-107"/>
       <path d="M 45.40625 27.984375 
Q 45.40625 37.75 41.375 43.109375 
Q 37.359375 48.484375 30.078125 48.484375 
Q 22.859375 48.484375 18.828125 43.109375 
Q 14.796875 37.75 14.796875 27.984375 
Q 14.796875 18.265625 18.828125 12.890625 
Q 22.859375 7.515625 30.078125 7.515625 
Q 37.359375 7.515625 41.375 12.890625 
Q 45.40625 18.265625 45.40625 27.984375 
z
M 54.390625 6.78125 
Q 54.390625 -7.171875 48.1875 -13.984375 
Q 42 -20.796875 29.203125 -20.796875 
Q 24.46875 -20.796875 20.265625 -20.09375 
Q 16.0625 -19.390625 12.109375 -17.921875 
L 12.109375 -9.1875 
Q 16.0625 -11.328125 19.921875 -12.34375 
Q 23.78125 -13.375 27.78125 -13.375 
Q 36.625 -13.375 41.015625 -8.765625 
Q 45.40625 -4.15625 45.40625 5.171875 
L 45.40625 9.625 
Q 42.625 4.78125 38.28125 2.390625 
Q 33.9375 0 27.875 0 
Q 17.828125 0 11.671875 7.65625 
Q 5.515625 15.328125 5.515625 27.984375 
Q 5.515625 40.671875 11.671875 48.328125 
Q 17.828125 56 27.875 56 
Q 33.9375 56 38.28125 53.609375 
Q 42.625 51.21875 45.40625 46.390625 
L 45.40625 54.6875 
L 54.390625 54.6875 
z
" id="DejaVuSans-103"/>
      </defs>
      <use transform="translate(0 0.370312)" xlink:href="#DejaVuSans-97"/>
      <use transform="translate(61.279297 0.370312)" xlink:href="#DejaVuSans-110"/>
      <use transform="translate(124.658203 0.370312)" xlink:href="#DejaVuSans-116"/>
      <use transform="translate(163.867188 0.370312)" xlink:href="#DejaVuSans-104"/>
      <use transform="translate(227.246094 0.370312)" xlink:href="#DejaVuSans-114"/>
      <use transform="translate(268.359375 0.370312)" xlink:href="#DejaVuSans-111"/>
      <use transform="translate(329.541016 0.370312)" xlink:href="#DejaVuSans-112"/>
      <use transform="translate(393.017578 0.370312)" xlink:href="#DejaVuSans-111"/>
      <use transform="translate(454.199219 0.370312)" xlink:href="#DejaVuSans-109"/>
      <use transform="translate(551.611328 0.370312)" xlink:href="#DejaVuSans-97"/>
      <use transform="translate(612.890625 0.370312)" xlink:href="#DejaVuSans-115"/>
      <use transform="translate(664.990234 0.370312)" xlink:href="#DejaVuSans-115"/>
      <use transform="translate(717.089844 0.370312)" xlink:href="#DejaVuSans-32"/>
      <use transform="translate(748.876953 0.370312)" xlink:href="#DejaVuSans-91"/>
      <use transform="translate(787.890625 0.370312)" xlink:href="#DejaVuSans-49"/>
      <use transform="translate(851.513672 0.370312)" xlink:href="#DejaVuSans-48"/>
      <use transform="translate(915.929414 36.607813)scale(0.7)" xlink:href="#STIXGeneral-Regular-120803"/>
      <use transform="translate(950.929403 36.607813)scale(0.7)" xlink:href="#STIXGeneral-Regular-120805"/>
      <use transform="translate(988.194236 0.370312)" xlink:href="#DejaVuSans-32"/>
      <use transform="translate(1019.981346 0.370312)" xlink:href="#DejaVuSans-107"/>
      <use transform="translate(1077.891502 0.370312)" xlink:href="#DejaVuSans-103"/>
      <use transform="translate(1141.368065 0.370312)" xlink:href="#DejaVuSans-93"/>
     </g>
    </g>
   </g>
   <g id="PolyCollection_1">
    <defs>
     <path d="M 31.582913 -28.118525 
L 31.582913 -26.31375 
L 32.606992 -26.31375 
L 33.628407 -26.31375 
L 34.659154 -26.31375 
L 35.708907 -26.31375 
L 36.784955 -26.31375 
L 37.89227 -26.31375 
L 39.033748 -26.31375 
L 40.210578 -26.31375 
L 41.423416 -26.31375 
L 42.673587 -26.31375 
L 43.964184 -26.31375 
L 45.300507 -26.31375 
L 46.688776 -26.31375 
L 48.13228 -26.31375 
L 49.632867 -26.31375 
L 51.186087 -26.31375 
L 52.780791 -26.31375 
L 54.401726 -26.31375 
L 56.036836 -26.31375 
L 57.683795 -26.31375 
L 59.342601 -26.31375 
L 61.006645 -26.31375 
L 62.668849 -26.31375 
L 64.325131 -26.31375 
L 65.971809 -26.31375 
L 67.612207 -26.31375 
L 69.258347 -26.31375 
L 70.927102 -26.31375 
L 72.631268 -26.31375 
L 74.370655 -26.31375 
L 76.142803 -26.31375 
L 77.954897 -26.31375 
L 79.81513 -26.31375 
L 81.726709 -26.31375 
L 83.694203 -26.31375 
L 85.708808 -26.31375 
L 87.743513 -26.31375 
L 89.761955 -26.31375 
L 91.737264 -26.31375 
L 93.660173 -26.31375 
L 95.5355 -26.31375 
L 97.368157 -26.31375 
L 99.16865 -26.31375 
L 100.94571 -26.31375 
L 102.699469 -26.31375 
L 104.429375 -26.31375 
L 106.143483 -26.31375 
L 107.85193 -26.31375 
L 109.562967 -26.31375 
L 111.27982 -26.31375 
L 113.00395 -26.31375 
L 114.739506 -26.31375 
L 116.490447 -26.31375 
L 118.259488 -26.31375 
L 120.048237 -26.31375 
L 121.856303 -26.31375 
L 123.681492 -26.31375 
L 125.520195 -26.31375 
L 127.368933 -26.31375 
L 129.226678 -26.31375 
L 131.091625 -26.31375 
L 132.95835 -26.31375 
L 134.820193 -26.31375 
L 134.820193 -78.461372 
L 134.820193 -78.461372 
L 132.95835 -77.681007 
L 131.091625 -74.240083 
L 129.226678 -72.368003 
L 127.368933 -67.049033 
L 125.520195 -63.92996 
L 123.681492 -61.105453 
L 121.856303 -61.037917 
L 120.048237 -58.460645 
L 118.259488 -54.416191 
L 116.490447 -52.412618 
L 114.739506 -50.002158 
L 113.00395 -47.475319 
L 111.27982 -46.233736 
L 109.562967 -45.067484 
L 107.85193 -44.343479 
L 106.143483 -43.711153 
L 104.429375 -44.276659 
L 102.699469 -43.644651 
L 100.94571 -43.1186 
L 99.16865 -42.207021 
L 97.368157 -41.106476 
L 95.5355 -38.528607 
L 93.660173 -39.844469 
L 91.737264 -37.6608 
L 89.761955 -37.865914 
L 87.743513 -39.398205 
L 85.708808 -38.525943 
L 83.694203 -37.909665 
L 81.726709 -37.310928 
L 79.81513 -37.231122 
L 77.954897 -36.971497 
L 76.142803 -36.719768 
L 74.370655 -36.913368 
L 72.631268 -37.00099 
L 70.927102 -37.079066 
L 69.258347 -36.894694 
L 67.612207 -36.176396 
L 65.971809 -35.31716 
L 64.325131 -34.960805 
L 62.668849 -35.145535 
L 61.006645 -35.316961 
L 59.342601 -34.779605 
L 57.683795 -33.751587 
L 56.036836 -33.606671 
L 54.401726 -33.248039 
L 52.780791 -32.914823 
L 51.186087 -32.472954 
L 49.632867 -32.310538 
L 48.13228 -31.919401 
L 46.688776 -31.73571 
L 45.300507 -31.194008 
L 43.964184 -30.954848 
L 42.673587 -30.619727 
L 41.423416 -30.424169 
L 40.210578 -30.109542 
L 39.033748 -29.663218 
L 37.89227 -29.465497 
L 36.784955 -29.338588 
L 35.708907 -29.092109 
L 34.659154 -28.77256 
L 33.628407 -28.534322 
L 32.606992 -28.287438 
L 31.582913 -28.118525 
z
" id="m8752fa2c4e" style="stroke:#ffffff;stroke-width:0.25;"/>
    </defs>
    <g clip-path="url(#pf4f3e6d0c7)">
     <use style="fill:#a9a9a9;stroke:#ffffff;stroke-width:0.25;" x="0" xlink:href="#m8752fa2c4e" y="142.23375"/>
    </g>
   </g>
   <g id="PolyCollection_2">
    <defs>
     <path d="M 31.582913 -31.403325 
L 31.582913 -28.118525 
L 32.606992 -28.287438 
L 33.628407 -28.534322 
L 34.659154 -28.77256 
L 35.708907 -29.092109 
L 36.784955 -29.338588 
L 37.89227 -29.465497 
L 39.033748 -29.663218 
L 40.210578 -30.109542 
L 41.423416 -30.424169 
L 42.673587 -30.619727 
L 43.964184 -30.954848 
L 45.300507 -31.194008 
L 46.688776 -31.73571 
L 48.13228 -31.919401 
L 49.632867 -32.310538 
L 51.186087 -32.472954 
L 52.780791 -32.914823 
L 54.401726 -33.248039 
L 56.036836 -33.606671 
L 57.683795 -33.751587 
L 59.342601 -34.779605 
L 61.006645 -35.316961 
L 62.668849 -35.145535 
L 64.325131 -34.960805 
L 65.971809 -35.31716 
L 67.612207 -36.176396 
L 69.258347 -36.894694 
L 70.927102 -37.079066 
L 72.631268 -37.00099 
L 74.370655 -36.913368 
L 76.142803 -36.719768 
L 77.954897 -36.971497 
L 79.81513 -37.231122 
L 81.726709 -37.310928 
L 83.694203 -37.909665 
L 85.708808 -38.525943 
L 87.743513 -39.398205 
L 89.761955 -37.865914 
L 91.737264 -37.6608 
L 93.660173 -39.844469 
L 95.5355 -38.528607 
L 97.368157 -41.106476 
L 99.16865 -42.207021 
L 100.94571 -43.1186 
L 102.699469 -43.644651 
L 104.429375 -44.276659 
L 106.143483 -43.711153 
L 107.85193 -44.343479 
L 109.562967 -45.067484 
L 111.27982 -46.233736 
L 113.00395 -47.475319 
L 114.739506 -50.002158 
L 116.490447 -52.412618 
L 118.259488 -54.416191 
L 120.048237 -58.460645 
L 121.856303 -61.037917 
L 123.681492 -61.105453 
L 125.520195 -63.92996 
L 127.368933 -67.049033 
L 129.226678 -72.368003 
L 131.091625 -74.240083 
L 132.95835 -77.681007 
L 134.820193 -78.461372 
L 134.820193 -97.337212 
L 134.820193 -97.337212 
L 132.95835 -96.251244 
L 131.091625 -93.008374 
L 129.226678 -91.3006 
L 127.368933 -85.406887 
L 125.520195 -81.729766 
L 123.681492 -79.313553 
L 121.856303 -79.862991 
L 120.048237 -77.192961 
L 118.259488 -72.412008 
L 116.490447 -70.032144 
L 114.739506 -66.786694 
L 113.00395 -63.565019 
L 111.27982 -62.560548 
L 109.562967 -62.089073 
L 107.85193 -61.342342 
L 106.143483 -60.521077 
L 104.429375 -59.694477 
L 102.699469 -58.534343 
L 100.94571 -58.450129 
L 99.16865 -56.296631 
L 97.368157 -54.786459 
L 95.5355 -51.722217 
L 93.660173 -52.198796 
L 91.737264 -48.863912 
L 89.761955 -49.198662 
L 87.743513 -50.630308 
L 85.708808 -48.839101 
L 83.694203 -47.855327 
L 81.726709 -46.871576 
L 79.81513 -46.761342 
L 77.954897 -46.21312 
L 76.142803 -46.282886 
L 74.370655 -47.207372 
L 72.631268 -48.392782 
L 70.927102 -48.74129 
L 69.258347 -48.145002 
L 67.612207 -47.183734 
L 65.971809 -46.444548 
L 64.325131 -46.72654 
L 62.668849 -47.697149 
L 61.006645 -47.373904 
L 59.342601 -46.755812 
L 57.683795 -44.316287 
L 56.036836 -44.21379 
L 54.401726 -42.616022 
L 52.780791 -42.069159 
L 51.186087 -40.918333 
L 49.632867 -40.865569 
L 48.13228 -39.658623 
L 46.688776 -39.050755 
L 45.300507 -37.984199 
L 43.964184 -37.303956 
L 42.673587 -36.641525 
L 41.423416 -36.017826 
L 40.210578 -35.355733 
L 39.033748 -34.657016 
L 37.89227 -34.157312 
L 36.784955 -33.793345 
L 35.708907 -33.152148 
L 34.659154 -32.725901 
L 33.628407 -32.170477 
L 32.606992 -31.83084 
L 31.582913 -31.403325 
z
" id="m268a7f9627" style="stroke:#ffffff;stroke-width:0.25;"/>
    </defs>
    <g clip-path="url(#pf4f3e6d0c7)">
     <use style="fill:#808080;stroke:#ffffff;stroke-width:0.25;" x="0" xlink:href="#m268a7f9627" y="142.23375"/>
    </g>
   </g>
   <g id="PolyCollection_3">
    <defs>
     <path d="M 31.582913 -32.273544 
L 31.582913 -31.403325 
L 32.606992 -31.83084 
L 33.628407 -32.170477 
L 34.659154 -32.725901 
L 35.708907 -33.152148 
L 36.784955 -33.793345 
L 37.89227 -34.157312 
L 39.033748 -34.657016 
L 40.210578 -35.355733 
L 41.423416 -36.017826 
L 42.673587 -36.641525 
L 43.964184 -37.303956 
L 45.300507 -37.984199 
L 46.688776 -39.050755 
L 48.13228 -39.658623 
L 49.632867 -40.865569 
L 51.186087 -40.918333 
L 52.780791 -42.069159 
L 54.401726 -42.616022 
L 56.036836 -44.21379 
L 57.683795 -44.316287 
L 59.342601 -46.755812 
L 61.006645 -47.373904 
L 62.668849 -47.697149 
L 64.325131 -46.72654 
L 65.971809 -46.444548 
L 67.612207 -47.183734 
L 69.258347 -48.145002 
L 70.927102 -48.74129 
L 72.631268 -48.392782 
L 74.370655 -47.207372 
L 76.142803 -46.282886 
L 77.954897 -46.21312 
L 79.81513 -46.761342 
L 81.726709 -46.871576 
L 83.694203 -47.855327 
L 85.708808 -48.839101 
L 87.743513 -50.630308 
L 89.761955 -49.198662 
L 91.737264 -48.863912 
L 93.660173 -52.198796 
L 95.5355 -51.722217 
L 97.368157 -54.786459 
L 99.16865 -56.296631 
L 100.94571 -58.450129 
L 102.699469 -58.534343 
L 104.429375 -59.694477 
L 106.143483 -60.521077 
L 107.85193 -61.342342 
L 109.562967 -62.089073 
L 111.27982 -62.560548 
L 113.00395 -63.565019 
L 114.739506 -66.786694 
L 116.490447 -70.032144 
L 118.259488 -72.412008 
L 120.048237 -77.192961 
L 121.856303 -79.862991 
L 123.681492 -79.313553 
L 125.520195 -81.729766 
L 127.368933 -85.406887 
L 129.226678 -91.3006 
L 131.091625 -93.008374 
L 132.95835 -96.251244 
L 134.820193 -97.337212 
L 134.820193 -103.006759 
L 134.820193 -103.006759 
L 132.95835 -102.136992 
L 131.091625 -99.232619 
L 129.226678 -97.694511 
L 127.368933 -92.13288 
L 125.520195 -88.54881 
L 123.681492 -86.334411 
L 121.856303 -87.225496 
L 120.048237 -84.705056 
L 118.259488 -79.843819 
L 116.490447 -77.403897 
L 114.739506 -74.449354 
L 113.00395 -70.946278 
L 111.27982 -70.892583 
L 109.562967 -71.322097 
L 107.85193 -70.613529 
L 106.143483 -69.932279 
L 104.429375 -68.009032 
L 102.699469 -67.218557 
L 100.94571 -67.561704 
L 99.16865 -63.105633 
L 97.368157 -61.435808 
L 95.5355 -57.961094 
L 93.660173 -58.001755 
L 91.737264 -54.976412 
L 89.761955 -55.156203 
L 87.743513 -56.532742 
L 85.708808 -54.180961 
L 83.694203 -52.910024 
L 81.726709 -51.814995 
L 79.81513 -51.628778 
L 77.954897 -50.517949 
L 76.142803 -50.499417 
L 74.370655 -51.237224 
L 72.631268 -52.753762 
L 70.927102 -53.000916 
L 69.258347 -52.296731 
L 67.612207 -51.175721 
L 65.971809 -50.596764 
L 64.325131 -50.84896 
L 62.668849 -51.814779 
L 61.006645 -51.313675 
L 59.342601 -50.635467 
L 57.683795 -47.642398 
L 56.036836 -47.398241 
L 54.401726 -45.496454 
L 52.780791 -44.805852 
L 51.186087 -43.452925 
L 49.632867 -43.27774 
L 48.13228 -41.857412 
L 46.688776 -41.083209 
L 45.300507 -39.847668 
L 43.964184 -39.011612 
L 42.673587 -38.225662 
L 41.423416 -37.476165 
L 40.210578 -36.723929 
L 39.033748 -35.968204 
L 37.89227 -35.425274 
L 36.784955 -34.97837 
L 35.708907 -34.225969 
L 34.659154 -33.739676 
L 33.628407 -33.147343 
L 32.606992 -32.772277 
L 31.582913 -32.273544 
z
" id="mfa26d108b2" style="stroke:#ffffff;stroke-width:0.25;"/>
    </defs>
    <g clip-path="url(#pf4f3e6d0c7)">
     <use style="fill:#7aa974;stroke:#ffffff;stroke-width:0.25;" x="0" xlink:href="#mfa26d108b2" y="142.23375"/>
    </g>
   </g>
   <g id="PolyCollection_4">
    <defs>
     <path d="M 31.582913 -35.018898 
L 31.582913 -32.273544 
L 32.606992 -32.772277 
L 33.628407 -33.147343 
L 34.659154 -33.739676 
L 35.708907 -34.225969 
L 36.784955 -34.97837 
L 37.89227 -35.425274 
L 39.033748 -35.968204 
L 40.210578 -36.723929 
L 41.423416 -37.476165 
L 42.673587 -38.225662 
L 43.964184 -39.011612 
L 45.300507 -39.847668 
L 46.688776 -41.083209 
L 48.13228 -41.857412 
L 49.632867 -43.27774 
L 51.186087 -43.452925 
L 52.780791 -44.805852 
L 54.401726 -45.496454 
L 56.036836 -47.398241 
L 57.683795 -47.642398 
L 59.342601 -50.635467 
L 61.006645 -51.313675 
L 62.668849 -51.814779 
L 64.325131 -50.84896 
L 65.971809 -50.596764 
L 67.612207 -51.175721 
L 69.258347 -52.296731 
L 70.927102 -53.000916 
L 72.631268 -52.753762 
L 74.370655 -51.237224 
L 76.142803 -50.499417 
L 77.954897 -50.517949 
L 79.81513 -51.628778 
L 81.726709 -51.814995 
L 83.694203 -52.910024 
L 85.708808 -54.180961 
L 87.743513 -56.532742 
L 89.761955 -55.156203 
L 91.737264 -54.976412 
L 93.660173 -58.001755 
L 95.5355 -57.961094 
L 97.368157 -61.435808 
L 99.16865 -63.105633 
L 100.94571 -67.561704 
L 102.699469 -67.218557 
L 104.429375 -68.009032 
L 106.143483 -69.932279 
L 107.85193 -70.613529 
L 109.562967 -71.322097 
L 111.27982 -70.892583 
L 113.00395 -70.946278 
L 114.739506 -74.449354 
L 116.490447 -77.403897 
L 118.259488 -79.843819 
L 120.048237 -84.705056 
L 121.856303 -87.225496 
L 123.681492 -86.334411 
L 125.520195 -88.54881 
L 127.368933 -92.13288 
L 129.226678 -97.694511 
L 131.091625 -99.232619 
L 132.95835 -102.136992 
L 134.820193 -103.006759 
L 134.820193 -129.856607 
L 134.820193 -129.856607 
L 132.95835 -127.949979 
L 131.091625 -123.875142 
L 129.226678 -121.339959 
L 127.368933 -114.673641 
L 125.520195 -109.832993 
L 123.681492 -107.202751 
L 121.856303 -107.57194 
L 120.048237 -104.090314 
L 118.259488 -98.363737 
L 116.490447 -95.199821 
L 114.739506 -91.486908 
L 113.00395 -87.295333 
L 111.27982 -86.603479 
L 109.562967 -86.702739 
L 107.85193 -85.472425 
L 106.143483 -84.285012 
L 104.429375 -82.102358 
L 102.699469 -80.730731 
L 100.94571 -80.750767 
L 99.16865 -75.800181 
L 97.368157 -73.695172 
L 95.5355 -69.920128 
L 93.660173 -69.774722 
L 91.737264 -66.62197 
L 89.761955 -66.586106 
L 87.743513 -67.626884 
L 85.708808 -64.887626 
L 83.694203 -63.271461 
L 81.726709 -61.875141 
L 79.81513 -61.432248 
L 77.954897 -59.917478 
L 76.142803 -59.594523 
L 74.370655 -60.236679 
L 72.631268 -61.60705 
L 70.927102 -61.690395 
L 69.258347 -60.638499 
L 67.612207 -59.193935 
L 65.971809 -58.384164 
L 64.325131 -58.195871 
L 62.668849 -59.158558 
L 61.006645 -58.495833 
L 59.342601 -57.414693 
L 57.683795 -54.128126 
L 56.036836 -53.697173 
L 54.401726 -51.519466 
L 52.780791 -50.512403 
L 51.186087 -48.795091 
L 49.632867 -48.552902 
L 48.13228 -46.911611 
L 46.688776 -45.86232 
L 45.300507 -44.345828 
L 43.964184 -43.308212 
L 42.673587 -42.363414 
L 41.423416 -41.510806 
L 40.210578 -40.510597 
L 39.033748 -39.571059 
L 37.89227 -38.960927 
L 36.784955 -38.345314 
L 35.708907 -37.440575 
L 34.659154 -36.912402 
L 33.628407 -36.128486 
L 32.606992 -35.615627 
L 31.582913 -35.018898 
z
" id="m6308ecafd5" style="stroke:#ffffff;stroke-width:0.25;"/>
    </defs>
    <g clip-path="url(#pf4f3e6d0c7)">
     <use style="fill:#738fc1;stroke:#ffffff;stroke-width:0.25;" x="0" xlink:href="#m6308ecafd5" y="142.23375"/>
    </g>
   </g>
   <g id="patch_3">
    <path d="M 30.541875 115.92 
L 30.541875 7.2 
" style="fill:none;stroke:#ffffff;stroke-linecap:square;stroke-linejoin:miter;stroke-width:0.8;"/>
   </g>
   <g id="patch_4">
    <path d="M 142.141875 115.92 
L 142.141875 7.2 
" style="fill:none;stroke:#ffffff;stroke-linecap:square;stroke-linejoin:miter;stroke-width:0.8;"/>
   </g>
   <g id="patch_5">
    <path d="M 30.541875 115.92 
L 142.141875 115.92 
" style="fill:none;stroke:#ffffff;stroke-linecap:square;stroke-linejoin:miter;stroke-width:0.8;"/>
   </g>
   <g id="patch_6">
    <path d="M 30.541875 7.2 
L 142.141875 7.2 
" style="fill:none;stroke:#ffffff;stroke-linecap:square;stroke-linejoin:miter;stroke-width:0.8;"/>
   </g>
  </g>
 </g>
 <defs>
  <clipPath id="pf4f3e6d0c7">
   <rect height="108.72" width="111.6" x="30.541875" y="7.2"/>
  </clipPath>
 </defs>
</svg>
