<?xml version="1.0" encoding="utf-8" standalone="no"?>
<!DOCTYPE svg PUBLIC "-//W3C//DTD SVG 1.1//EN"
  "http://www.w3.org/Graphics/SVG/1.1/DTD/svg11.dtd">
<!-- Created with matplotlib (https://matplotlib.org/) -->
<svg height="142.23375pt" version="1.1" viewBox="0 0 147.435 142.23375" width="147.435pt" xmlns="http://www.w3.org/2000/svg" xmlns:xlink="http://www.w3.org/1999/xlink">
 <metadata>
  <rdf:RDF xmlns:cc="http://creativecommons.org/ns#" xmlns:dc="http://purl.org/dc/elements/1.1/" xmlns:rdf="http://www.w3.org/1999/02/22-rdf-syntax-ns#">
   <cc:Work>
    <dc:type rdf:resource="http://purl.org/dc/dcmitype/StillImage"/>
    <dc:date>2021-09-21T20:37:25.221790</dc:date>
    <dc:format>image/svg+xml</dc:format>
    <dc:creator>
     <cc:Agent>
      <dc:title>Matplotlib v3.3.4, https://matplotlib.org/</dc:title>
     </cc:Agent>
    </dc:creator>
   </cc:Work>
  </rdf:RDF>
 </metadata>
 <defs>
  <style type="text/css">*{stroke-linecap:butt;stroke-linejoin:round;}</style>
 </defs>
 <g id="figure_1">
  <g id="patch_1">
   <path d="M 0 142.23375 
L 147.435 142.23375 
L 147.435 0 
L 0 0 
z
" style="fill:#ffffff;"/>
  </g>
  <g id="axes_1">
   <g id="patch_2">
    <path d="M 28.635 115.92 
L 140.235 115.92 
L 140.235 7.2 
L 28.635 7.2 
z
" style="fill:#e3dcd0;"/>
   </g>
   <g id="matplotlib.axis_1">
    <g id="xtick_1">
     <g id="text_1">
      <!-- 3 -->
      <g transform="translate(26.72625 123.979062)scale(0.06 -0.06)">
       <defs>
        <path d="M 40.578125 39.3125 
Q 47.65625 37.796875 51.625 33 
Q 55.609375 28.21875 55.609375 21.1875 
Q 55.609375 10.40625 48.1875 4.484375 
Q 40.765625 -1.421875 27.09375 -1.421875 
Q 22.515625 -1.421875 17.65625 -0.515625 
Q 12.796875 0.390625 7.625 2.203125 
L 7.625 11.71875 
Q 11.71875 9.328125 16.59375 8.109375 
Q 21.484375 6.890625 26.8125 6.890625 
Q 36.078125 6.890625 40.9375 10.546875 
Q 45.796875 14.203125 45.796875 21.1875 
Q 45.796875 27.640625 41.28125 31.265625 
Q 36.765625 34.90625 28.71875 34.90625 
L 20.21875 34.90625 
L 20.21875 43.015625 
L 29.109375 43.015625 
Q 36.375 43.015625 40.234375 45.921875 
Q 44.09375 48.828125 44.09375 54.296875 
Q 44.09375 59.90625 40.109375 62.90625 
Q 36.140625 65.921875 28.71875 65.921875 
Q 24.65625 65.921875 20.015625 65.03125 
Q 15.375 64.15625 9.8125 62.3125 
L 9.8125 71.09375 
Q 15.4375 72.65625 20.34375 73.4375 
Q 25.25 74.21875 29.59375 74.21875 
Q 40.828125 74.21875 47.359375 69.109375 
Q 53.90625 64.015625 53.90625 55.328125 
Q 53.90625 49.265625 50.4375 45.09375 
Q 46.96875 40.921875 40.578125 39.3125 
z
" id="DejaVuSans-51"/>
       </defs>
       <use xlink:href="#DejaVuSans-51"/>
      </g>
     </g>
    </g>
    <g id="xtick_2">
     <g id="text_2">
      <!-- 4 -->
      <g transform="translate(50.815253 123.979062)scale(0.06 -0.06)">
       <defs>
        <path d="M 37.796875 64.3125 
L 12.890625 25.390625 
L 37.796875 25.390625 
z
M 35.203125 72.90625 
L 47.609375 72.90625 
L 47.609375 25.390625 
L 58.015625 25.390625 
L 58.015625 17.1875 
L 47.609375 17.1875 
L 47.609375 0 
L 37.796875 0 
L 37.796875 17.1875 
L 4.890625 17.1875 
L 4.890625 26.703125 
z
" id="DejaVuSans-52"/>
       </defs>
       <use xlink:href="#DejaVuSans-52"/>
      </g>
     </g>
    </g>
    <g id="xtick_3">
     <g id="text_3">
      <!-- 5 -->
      <g transform="translate(74.904257 123.979062)scale(0.06 -0.06)">
       <defs>
        <path d="M 10.796875 72.90625 
L 49.515625 72.90625 
L 49.515625 64.59375 
L 19.828125 64.59375 
L 19.828125 46.734375 
Q 21.96875 47.46875 24.109375 47.828125 
Q 26.265625 48.1875 28.421875 48.1875 
Q 40.625 48.1875 47.75 41.5 
Q 54.890625 34.8125 54.890625 23.390625 
Q 54.890625 11.625 47.5625 5.09375 
Q 40.234375 -1.421875 26.90625 -1.421875 
Q 22.3125 -1.421875 17.546875 -0.640625 
Q 12.796875 0.140625 7.71875 1.703125 
L 7.71875 11.625 
Q 12.109375 9.234375 16.796875 8.0625 
Q 21.484375 6.890625 26.703125 6.890625 
Q 35.15625 6.890625 40.078125 11.328125 
Q 45.015625 15.765625 45.015625 23.390625 
Q 45.015625 31 40.078125 35.4375 
Q 35.15625 39.890625 26.703125 39.890625 
Q 22.75 39.890625 18.8125 39.015625 
Q 14.890625 38.140625 10.796875 36.28125 
z
" id="DejaVuSans-53"/>
       </defs>
       <use xlink:href="#DejaVuSans-53"/>
      </g>
     </g>
    </g>
    <g id="xtick_4">
     <g id="text_4">
      <!-- 6 -->
      <g transform="translate(98.99326 123.979062)scale(0.06 -0.06)">
       <defs>
        <path d="M 33.015625 40.375 
Q 26.375 40.375 22.484375 35.828125 
Q 18.609375 31.296875 18.609375 23.390625 
Q 18.609375 15.53125 22.484375 10.953125 
Q 26.375 6.390625 33.015625 6.390625 
Q 39.65625 6.390625 43.53125 10.953125 
Q 47.40625 15.53125 47.40625 23.390625 
Q 47.40625 31.296875 43.53125 35.828125 
Q 39.65625 40.375 33.015625 40.375 
z
M 52.59375 71.296875 
L 52.59375 62.3125 
Q 48.875 64.0625 45.09375 64.984375 
Q 41.3125 65.921875 37.59375 65.921875 
Q 27.828125 65.921875 22.671875 59.328125 
Q 17.53125 52.734375 16.796875 39.40625 
Q 19.671875 43.65625 24.015625 45.921875 
Q 28.375 48.1875 33.59375 48.1875 
Q 44.578125 48.1875 50.953125 41.515625 
Q 57.328125 34.859375 57.328125 23.390625 
Q 57.328125 12.15625 50.6875 5.359375 
Q 44.046875 -1.421875 33.015625 -1.421875 
Q 20.359375 -1.421875 13.671875 8.265625 
Q 6.984375 17.96875 6.984375 36.375 
Q 6.984375 53.65625 15.1875 63.9375 
Q 23.390625 74.21875 37.203125 74.21875 
Q 40.921875 74.21875 44.703125 73.484375 
Q 48.484375 72.75 52.59375 71.296875 
z
" id="DejaVuSans-54"/>
       </defs>
       <use xlink:href="#DejaVuSans-54"/>
      </g>
     </g>
    </g>
    <g id="xtick_5">
     <g id="text_5">
      <!-- 7 -->
      <g transform="translate(123.082263 123.979062)scale(0.06 -0.06)">
       <defs>
        <path d="M 8.203125 72.90625 
L 55.078125 72.90625 
L 55.078125 68.703125 
L 28.609375 0 
L 18.3125 0 
L 43.21875 64.59375 
L 8.203125 64.59375 
z
" id="DejaVuSans-55"/>
       </defs>
       <use xlink:href="#DejaVuSans-55"/>
      </g>
     </g>
    </g>
    <g id="text_6">
     <!-- human population [billion] -->
     <g style="fill:#262626;" transform="translate(44.783437 133.785937)scale(0.06 -0.06)">
      <defs>
       <path d="M 54.890625 33.015625 
L 54.890625 0 
L 45.90625 0 
L 45.90625 32.71875 
Q 45.90625 40.484375 42.875 44.328125 
Q 39.84375 48.1875 33.796875 48.1875 
Q 26.515625 48.1875 22.3125 43.546875 
Q 18.109375 38.921875 18.109375 30.90625 
L 18.109375 0 
L 9.078125 0 
L 9.078125 75.984375 
L 18.109375 75.984375 
L 18.109375 46.1875 
Q 21.34375 51.125 25.703125 53.5625 
Q 30.078125 56 35.796875 56 
Q 45.21875 56 50.046875 50.171875 
Q 54.890625 44.34375 54.890625 33.015625 
z
" id="DejaVuSans-104"/>
       <path d="M 8.5 21.578125 
L 8.5 54.6875 
L 17.484375 54.6875 
L 17.484375 21.921875 
Q 17.484375 14.15625 20.5 10.265625 
Q 23.53125 6.390625 29.59375 6.390625 
Q 36.859375 6.390625 41.078125 11.03125 
Q 45.3125 15.671875 45.3125 23.6875 
L 45.3125 54.6875 
L 54.296875 54.6875 
L 54.296875 0 
L 45.3125 0 
L 45.3125 8.40625 
Q 42.046875 3.421875 37.71875 1 
Q 33.40625 -1.421875 27.6875 -1.421875 
Q 18.265625 -1.421875 13.375 4.4375 
Q 8.5 10.296875 8.5 21.578125 
z
M 31.109375 56 
z
" id="DejaVuSans-117"/>
       <path d="M 52 44.1875 
Q 55.375 50.25 60.0625 53.125 
Q 64.75 56 71.09375 56 
Q 79.640625 56 84.28125 50.015625 
Q 88.921875 44.046875 88.921875 33.015625 
L 88.921875 0 
L 79.890625 0 
L 79.890625 32.71875 
Q 79.890625 40.578125 77.09375 44.375 
Q 74.3125 48.1875 68.609375 48.1875 
Q 61.625 48.1875 57.5625 43.546875 
Q 53.515625 38.921875 53.515625 30.90625 
L 53.515625 0 
L 44.484375 0 
L 44.484375 32.71875 
Q 44.484375 40.625 41.703125 44.40625 
Q 38.921875 48.1875 33.109375 48.1875 
Q 26.21875 48.1875 22.15625 43.53125 
Q 18.109375 38.875 18.109375 30.90625 
L 18.109375 0 
L 9.078125 0 
L 9.078125 54.6875 
L 18.109375 54.6875 
L 18.109375 46.1875 
Q 21.1875 51.21875 25.484375 53.609375 
Q 29.78125 56 35.6875 56 
Q 41.65625 56 45.828125 52.96875 
Q 50 49.953125 52 44.1875 
z
" id="DejaVuSans-109"/>
       <path d="M 34.28125 27.484375 
Q 23.390625 27.484375 19.1875 25 
Q 14.984375 22.515625 14.984375 16.5 
Q 14.984375 11.71875 18.140625 8.90625 
Q 21.296875 6.109375 26.703125 6.109375 
Q 34.1875 6.109375 38.703125 11.40625 
Q 43.21875 16.703125 43.21875 25.484375 
L 43.21875 27.484375 
z
M 52.203125 31.203125 
L 52.203125 0 
L 43.21875 0 
L 43.21875 8.296875 
Q 40.140625 3.328125 35.546875 0.953125 
Q 30.953125 -1.421875 24.3125 -1.421875 
Q 15.921875 -1.421875 10.953125 3.296875 
Q 6 8.015625 6 15.921875 
Q 6 25.140625 12.171875 29.828125 
Q 18.359375 34.515625 30.609375 34.515625 
L 43.21875 34.515625 
L 43.21875 35.40625 
Q 43.21875 41.609375 39.140625 45 
Q 35.0625 48.390625 27.6875 48.390625 
Q 23 48.390625 18.546875 47.265625 
Q 14.109375 46.140625 10.015625 43.890625 
L 10.015625 52.203125 
Q 14.9375 54.109375 19.578125 55.046875 
Q 24.21875 56 28.609375 56 
Q 40.484375 56 46.34375 49.84375 
Q 52.203125 43.703125 52.203125 31.203125 
z
" id="DejaVuSans-97"/>
       <path d="M 54.890625 33.015625 
L 54.890625 0 
L 45.90625 0 
L 45.90625 32.71875 
Q 45.90625 40.484375 42.875 44.328125 
Q 39.84375 48.1875 33.796875 48.1875 
Q 26.515625 48.1875 22.3125 43.546875 
Q 18.109375 38.921875 18.109375 30.90625 
L 18.109375 0 
L 9.078125 0 
L 9.078125 54.6875 
L 18.109375 54.6875 
L 18.109375 46.1875 
Q 21.34375 51.125 25.703125 53.5625 
Q 30.078125 56 35.796875 56 
Q 45.21875 56 50.046875 50.171875 
Q 54.890625 44.34375 54.890625 33.015625 
z
" id="DejaVuSans-110"/>
       <path id="DejaVuSans-32"/>
       <path d="M 18.109375 8.203125 
L 18.109375 -20.796875 
L 9.078125 -20.796875 
L 9.078125 54.6875 
L 18.109375 54.6875 
L 18.109375 46.390625 
Q 20.953125 51.265625 25.265625 53.625 
Q 29.59375 56 35.59375 56 
Q 45.5625 56 51.78125 48.09375 
Q 58.015625 40.1875 58.015625 27.296875 
Q 58.015625 14.40625 51.78125 6.484375 
Q 45.5625 -1.421875 35.59375 -1.421875 
Q 29.59375 -1.421875 25.265625 0.953125 
Q 20.953125 3.328125 18.109375 8.203125 
z
M 48.6875 27.296875 
Q 48.6875 37.203125 44.609375 42.84375 
Q 40.53125 48.484375 33.40625 48.484375 
Q 26.265625 48.484375 22.1875 42.84375 
Q 18.109375 37.203125 18.109375 27.296875 
Q 18.109375 17.390625 22.1875 11.75 
Q 26.265625 6.109375 33.40625 6.109375 
Q 40.53125 6.109375 44.609375 11.75 
Q 48.6875 17.390625 48.6875 27.296875 
z
" id="DejaVuSans-112"/>
       <path d="M 30.609375 48.390625 
Q 23.390625 48.390625 19.1875 42.75 
Q 14.984375 37.109375 14.984375 27.296875 
Q 14.984375 17.484375 19.15625 11.84375 
Q 23.34375 6.203125 30.609375 6.203125 
Q 37.796875 6.203125 41.984375 11.859375 
Q 46.1875 17.53125 46.1875 27.296875 
Q 46.1875 37.015625 41.984375 42.703125 
Q 37.796875 48.390625 30.609375 48.390625 
z
M 30.609375 56 
Q 42.328125 56 49.015625 48.375 
Q 55.71875 40.765625 55.71875 27.296875 
Q 55.71875 13.875 49.015625 6.21875 
Q 42.328125 -1.421875 30.609375 -1.421875 
Q 18.84375 -1.421875 12.171875 6.21875 
Q 5.515625 13.875 5.515625 27.296875 
Q 5.515625 40.765625 12.171875 48.375 
Q 18.84375 56 30.609375 56 
z
" id="DejaVuSans-111"/>
       <path d="M 9.421875 75.984375 
L 18.40625 75.984375 
L 18.40625 0 
L 9.421875 0 
z
" id="DejaVuSans-108"/>
       <path d="M 18.3125 70.21875 
L 18.3125 54.6875 
L 36.8125 54.6875 
L 36.8125 47.703125 
L 18.3125 47.703125 
L 18.3125 18.015625 
Q 18.3125 11.328125 20.140625 9.421875 
Q 21.96875 7.515625 27.59375 7.515625 
L 36.8125 7.515625 
L 36.8125 0 
L 27.59375 0 
Q 17.1875 0 13.234375 3.875 
Q 9.28125 7.765625 9.28125 18.015625 
L 9.28125 47.703125 
L 2.6875 47.703125 
L 2.6875 54.6875 
L 9.28125 54.6875 
L 9.28125 70.21875 
z
" id="DejaVuSans-116"/>
       <path d="M 9.421875 54.6875 
L 18.40625 54.6875 
L 18.40625 0 
L 9.421875 0 
z
M 9.421875 75.984375 
L 18.40625 75.984375 
L 18.40625 64.59375 
L 9.421875 64.59375 
z
" id="DejaVuSans-105"/>
       <path d="M 8.59375 75.984375 
L 29.296875 75.984375 
L 29.296875 69 
L 17.578125 69 
L 17.578125 -6.203125 
L 29.296875 -6.203125 
L 29.296875 -13.1875 
L 8.59375 -13.1875 
z
" id="DejaVuSans-91"/>
       <path d="M 48.6875 27.296875 
Q 48.6875 37.203125 44.609375 42.84375 
Q 40.53125 48.484375 33.40625 48.484375 
Q 26.265625 48.484375 22.1875 42.84375 
Q 18.109375 37.203125 18.109375 27.296875 
Q 18.109375 17.390625 22.1875 11.75 
Q 26.265625 6.109375 33.40625 6.109375 
Q 40.53125 6.109375 44.609375 11.75 
Q 48.6875 17.390625 48.6875 27.296875 
z
M 18.109375 46.390625 
Q 20.953125 51.265625 25.265625 53.625 
Q 29.59375 56 35.59375 56 
Q 45.5625 56 51.78125 48.09375 
Q 58.015625 40.1875 58.015625 27.296875 
Q 58.015625 14.40625 51.78125 6.484375 
Q 45.5625 -1.421875 35.59375 -1.421875 
Q 29.59375 -1.421875 25.265625 0.953125 
Q 20.953125 3.328125 18.109375 8.203125 
L 18.109375 0 
L 9.078125 0 
L 9.078125 75.984375 
L 18.109375 75.984375 
z
" id="DejaVuSans-98"/>
       <path d="M 30.421875 75.984375 
L 30.421875 -13.1875 
L 9.71875 -13.1875 
L 9.71875 -6.203125 
L 21.390625 -6.203125 
L 21.390625 69 
L 9.71875 69 
L 9.71875 75.984375 
z
" id="DejaVuSans-93"/>
      </defs>
      <use xlink:href="#DejaVuSans-104"/>
      <use x="63.378906" xlink:href="#DejaVuSans-117"/>
      <use x="126.757812" xlink:href="#DejaVuSans-109"/>
      <use x="224.169922" xlink:href="#DejaVuSans-97"/>
      <use x="285.449219" xlink:href="#DejaVuSans-110"/>
      <use x="348.828125" xlink:href="#DejaVuSans-32"/>
      <use x="380.615234" xlink:href="#DejaVuSans-112"/>
      <use x="444.091797" xlink:href="#DejaVuSans-111"/>
      <use x="505.273438" xlink:href="#DejaVuSans-112"/>
      <use x="568.75" xlink:href="#DejaVuSans-117"/>
      <use x="632.128906" xlink:href="#DejaVuSans-108"/>
      <use x="659.912109" xlink:href="#DejaVuSans-97"/>
      <use x="721.191406" xlink:href="#DejaVuSans-116"/>
      <use x="760.400391" xlink:href="#DejaVuSans-105"/>
      <use x="788.183594" xlink:href="#DejaVuSans-111"/>
      <use x="849.365234" xlink:href="#DejaVuSans-110"/>
      <use x="912.744141" xlink:href="#DejaVuSans-32"/>
      <use x="944.53125" xlink:href="#DejaVuSans-91"/>
      <use x="983.544922" xlink:href="#DejaVuSans-98"/>
      <use x="1047.021484" xlink:href="#DejaVuSans-105"/>
      <use x="1074.804688" xlink:href="#DejaVuSans-108"/>
      <use x="1102.587891" xlink:href="#DejaVuSans-108"/>
      <use x="1130.371094" xlink:href="#DejaVuSans-105"/>
      <use x="1158.154297" xlink:href="#DejaVuSans-111"/>
      <use x="1219.335938" xlink:href="#DejaVuSans-110"/>
      <use x="1282.714844" xlink:href="#DejaVuSans-93"/>
     </g>
    </g>
   </g>
   <g id="matplotlib.axis_2">
    <g id="ytick_1">
     <g id="text_7">
      <!-- 0 -->
      <g transform="translate(21.3175 118.199531)scale(0.06 -0.06)">
       <defs>
        <path d="M 31.78125 66.40625 
Q 24.171875 66.40625 20.328125 58.90625 
Q 16.5 51.421875 16.5 36.375 
Q 16.5 21.390625 20.328125 13.890625 
Q 24.171875 6.390625 31.78125 6.390625 
Q 39.453125 6.390625 43.28125 13.890625 
Q 47.125 21.390625 47.125 36.375 
Q 47.125 51.421875 43.28125 58.90625 
Q 39.453125 66.40625 31.78125 66.40625 
z
M 31.78125 74.21875 
Q 44.046875 74.21875 50.515625 64.515625 
Q 56.984375 54.828125 56.984375 36.375 
Q 56.984375 17.96875 50.515625 8.265625 
Q 44.046875 -1.421875 31.78125 -1.421875 
Q 19.53125 -1.421875 13.0625 8.265625 
Q 6.59375 17.96875 6.59375 36.375 
Q 6.59375 54.828125 13.0625 64.515625 
Q 19.53125 74.21875 31.78125 74.21875 
z
" id="DejaVuSans-48"/>
       </defs>
       <use xlink:href="#DejaVuSans-48"/>
      </g>
     </g>
    </g>
    <g id="ytick_2">
     <g id="text_8">
      <!-- 5 -->
      <g transform="translate(21.3175 103.812124)scale(0.06 -0.06)">
       <use xlink:href="#DejaVuSans-53"/>
      </g>
     </g>
    </g>
    <g id="ytick_3">
     <g id="text_9">
      <!-- 10 -->
      <g transform="translate(17.5 89.424716)scale(0.06 -0.06)">
       <defs>
        <path d="M 12.40625 8.296875 
L 28.515625 8.296875 
L 28.515625 63.921875 
L 10.984375 60.40625 
L 10.984375 69.390625 
L 28.421875 72.90625 
L 38.28125 72.90625 
L 38.28125 8.296875 
L 54.390625 8.296875 
L 54.390625 0 
L 12.40625 0 
z
" id="DejaVuSans-49"/>
       </defs>
       <use xlink:href="#DejaVuSans-49"/>
       <use x="63.623047" xlink:href="#DejaVuSans-48"/>
      </g>
     </g>
    </g>
    <g id="ytick_4">
     <g id="text_10">
      <!-- 15 -->
      <g transform="translate(17.5 75.037308)scale(0.06 -0.06)">
       <use xlink:href="#DejaVuSans-49"/>
       <use x="63.623047" xlink:href="#DejaVuSans-53"/>
      </g>
     </g>
    </g>
    <g id="ytick_5">
     <g id="text_11">
      <!-- 20 -->
      <g transform="translate(17.5 60.649901)scale(0.06 -0.06)">
       <defs>
        <path d="M 19.1875 8.296875 
L 53.609375 8.296875 
L 53.609375 0 
L 7.328125 0 
L 7.328125 8.296875 
Q 12.9375 14.109375 22.625 23.890625 
Q 32.328125 33.6875 34.8125 36.53125 
Q 39.546875 41.84375 41.421875 45.53125 
Q 43.3125 49.21875 43.3125 52.78125 
Q 43.3125 58.59375 39.234375 62.25 
Q 35.15625 65.921875 28.609375 65.921875 
Q 23.96875 65.921875 18.8125 64.3125 
Q 13.671875 62.703125 7.8125 59.421875 
L 7.8125 69.390625 
Q 13.765625 71.78125 18.9375 73 
Q 24.125 74.21875 28.421875 74.21875 
Q 39.75 74.21875 46.484375 68.546875 
Q 53.21875 62.890625 53.21875 53.421875 
Q 53.21875 48.921875 51.53125 44.890625 
Q 49.859375 40.875 45.40625 35.40625 
Q 44.1875 33.984375 37.640625 27.21875 
Q 31.109375 20.453125 19.1875 8.296875 
z
" id="DejaVuSans-50"/>
       </defs>
       <use xlink:href="#DejaVuSans-50"/>
       <use x="63.623047" xlink:href="#DejaVuSans-48"/>
      </g>
     </g>
    </g>
    <g id="ytick_6">
     <g id="text_12">
      <!-- 25 -->
      <g transform="translate(17.5 46.262493)scale(0.06 -0.06)">
       <use xlink:href="#DejaVuSans-50"/>
       <use x="63.623047" xlink:href="#DejaVuSans-53"/>
      </g>
     </g>
    </g>
    <g id="ytick_7">
     <g id="text_13">
      <!-- 30 -->
      <g transform="translate(17.5 31.875085)scale(0.06 -0.06)">
       <use xlink:href="#DejaVuSans-51"/>
       <use x="63.623047" xlink:href="#DejaVuSans-48"/>
      </g>
     </g>
    </g>
    <g id="ytick_8">
     <g id="text_14">
      <!-- 35 -->
      <g transform="translate(17.5 17.487678)scale(0.06 -0.06)">
       <use xlink:href="#DejaVuSans-51"/>
       <use x="63.623047" xlink:href="#DejaVuSans-53"/>
      </g>
     </g>
    </g>
    <g id="text_15">
     <!-- input material mass [10$^{12}$ kg yr$^{-1}$] -->
     <g style="fill:#262626;" transform="translate(12.24 112.05)rotate(-90)scale(0.06 -0.06)">
      <defs>
       <path d="M 56.203125 29.59375 
L 56.203125 25.203125 
L 14.890625 25.203125 
Q 15.484375 15.921875 20.484375 11.0625 
Q 25.484375 6.203125 34.421875 6.203125 
Q 39.59375 6.203125 44.453125 7.46875 
Q 49.3125 8.734375 54.109375 11.28125 
L 54.109375 2.78125 
Q 49.265625 0.734375 44.1875 -0.34375 
Q 39.109375 -1.421875 33.890625 -1.421875 
Q 20.796875 -1.421875 13.15625 6.1875 
Q 5.515625 13.8125 5.515625 26.8125 
Q 5.515625 40.234375 12.765625 48.109375 
Q 20.015625 56 32.328125 56 
Q 43.359375 56 49.78125 48.890625 
Q 56.203125 41.796875 56.203125 29.59375 
z
M 47.21875 32.234375 
Q 47.125 39.59375 43.09375 43.984375 
Q 39.0625 48.390625 32.421875 48.390625 
Q 24.90625 48.390625 20.390625 44.140625 
Q 15.875 39.890625 15.1875 32.171875 
z
" id="DejaVuSans-101"/>
       <path d="M 41.109375 46.296875 
Q 39.59375 47.171875 37.8125 47.578125 
Q 36.03125 48 33.890625 48 
Q 26.265625 48 22.1875 43.046875 
Q 18.109375 38.09375 18.109375 28.8125 
L 18.109375 0 
L 9.078125 0 
L 9.078125 54.6875 
L 18.109375 54.6875 
L 18.109375 46.1875 
Q 20.953125 51.171875 25.484375 53.578125 
Q 30.03125 56 36.53125 56 
Q 37.453125 56 38.578125 55.875 
Q 39.703125 55.765625 41.0625 55.515625 
z
" id="DejaVuSans-114"/>
       <path d="M 44.28125 53.078125 
L 44.28125 44.578125 
Q 40.484375 46.53125 36.375 47.5 
Q 32.28125 48.484375 27.875 48.484375 
Q 21.1875 48.484375 17.84375 46.4375 
Q 14.5 44.390625 14.5 40.28125 
Q 14.5 37.15625 16.890625 35.375 
Q 19.28125 33.59375 26.515625 31.984375 
L 29.59375 31.296875 
Q 39.15625 29.25 43.1875 25.515625 
Q 47.21875 21.78125 47.21875 15.09375 
Q 47.21875 7.46875 41.1875 3.015625 
Q 35.15625 -1.421875 24.609375 -1.421875 
Q 20.21875 -1.421875 15.453125 -0.5625 
Q 10.6875 0.296875 5.421875 2 
L 5.421875 11.28125 
Q 10.40625 8.6875 15.234375 7.390625 
Q 20.0625 6.109375 24.8125 6.109375 
Q 31.15625 6.109375 34.5625 8.28125 
Q 37.984375 10.453125 37.984375 14.40625 
Q 37.984375 18.0625 35.515625 20.015625 
Q 33.0625 21.96875 24.703125 23.78125 
L 21.578125 24.515625 
Q 13.234375 26.265625 9.515625 29.90625 
Q 5.8125 33.546875 5.8125 39.890625 
Q 5.8125 47.609375 11.28125 51.796875 
Q 16.75 56 26.8125 56 
Q 31.78125 56 36.171875 55.265625 
Q 40.578125 54.546875 44.28125 53.078125 
z
" id="DejaVuSans-115"/>
       <path d="M 30.203125 0 
L 22.296875 0 
L 22.296875 57 
Q 20.09375 56 15.75 53.75 
Q 11.40625 51.5 10.796875 51.203125 
L 10.796875 58.5 
L 28.796875 67.703125 
L 30.203125 67.203125 
z
" id="STIXGeneral-Regular-120803"/>
       <path d="M 46.90625 7.09375 
L 44 0 
L 3.5 0 
L 3.5 2.09375 
L 21 23.5 
L 21 23.40625 
L 26.59375 30.203125 
Q 30.5 34.90625 32.09375 36.953125 
Q 33.703125 39 35.203125 41.953125 
Q 36.703125 44.90625 36.703125 47.5 
Q 36.703125 53.703125 33.34375 57.09375 
Q 30 60.5 24.203125 60.5 
Q 19.59375 60.5 15.75 56.703125 
Q 11.90625 52.90625 10.90625 45.90625 
L 3.703125 47.59375 
Q 5.296875 56.5 11.1875 62.046875 
Q 17.09375 67.59375 24.90625 67.59375 
Q 33.59375 67.59375 39.09375 62.1875 
Q 44.59375 56.796875 44.59375 49.09375 
Q 44.59375 43.5 42.5 39.453125 
Q 40.40625 35.40625 33.703125 27 
L 17.703125 7.09375 
z
" id="STIXGeneral-Regular-120804"/>
       <path d="M 9.078125 75.984375 
L 18.109375 75.984375 
L 18.109375 31.109375 
L 44.921875 54.6875 
L 56.390625 54.6875 
L 27.390625 29.109375 
L 57.625 0 
L 45.90625 0 
L 18.109375 26.703125 
L 18.109375 0 
L 9.078125 0 
z
" id="DejaVuSans-107"/>
       <path d="M 45.40625 27.984375 
Q 45.40625 37.75 41.375 43.109375 
Q 37.359375 48.484375 30.078125 48.484375 
Q 22.859375 48.484375 18.828125 43.109375 
Q 14.796875 37.75 14.796875 27.984375 
Q 14.796875 18.265625 18.828125 12.890625 
Q 22.859375 7.515625 30.078125 7.515625 
Q 37.359375 7.515625 41.375 12.890625 
Q 45.40625 18.265625 45.40625 27.984375 
z
M 54.390625 6.78125 
Q 54.390625 -7.171875 48.1875 -13.984375 
Q 42 -20.796875 29.203125 -20.796875 
Q 24.46875 -20.796875 20.265625 -20.09375 
Q 16.0625 -19.390625 12.109375 -17.921875 
L 12.109375 -9.1875 
Q 16.0625 -11.328125 19.921875 -12.34375 
Q 23.78125 -13.375 27.78125 -13.375 
Q 36.625 -13.375 41.015625 -8.765625 
Q 45.40625 -4.15625 45.40625 5.171875 
L 45.40625 9.625 
Q 42.625 4.78125 38.28125 2.390625 
Q 33.9375 0 27.875 0 
Q 17.828125 0 11.671875 7.65625 
Q 5.515625 15.328125 5.515625 27.984375 
Q 5.515625 40.671875 11.671875 48.328125 
Q 17.828125 56 27.875 56 
Q 33.9375 56 38.28125 53.609375 
Q 42.625 51.21875 45.40625 46.390625 
L 45.40625 54.6875 
L 54.390625 54.6875 
z
" id="DejaVuSans-103"/>
       <path d="M 32.171875 -5.078125 
Q 28.375 -14.84375 24.75 -17.8125 
Q 21.140625 -20.796875 15.09375 -20.796875 
L 7.90625 -20.796875 
L 7.90625 -13.28125 
L 13.1875 -13.28125 
Q 16.890625 -13.28125 18.9375 -11.515625 
Q 21 -9.765625 23.484375 -3.21875 
L 25.09375 0.875 
L 2.984375 54.6875 
L 12.5 54.6875 
L 29.59375 11.921875 
L 46.6875 54.6875 
L 56.203125 54.6875 
z
" id="DejaVuSans-121"/>
       <path d="M 62.09375 22 
L 6.40625 22 
L 6.40625 28.59375 
L 62.09375 28.59375 
z
" id="STIXGeneral-Regular-8722"/>
      </defs>
      <use transform="translate(0 0.370312)" xlink:href="#DejaVuSans-105"/>
      <use transform="translate(27.783203 0.370312)" xlink:href="#DejaVuSans-110"/>
      <use transform="translate(91.162109 0.370312)" xlink:href="#DejaVuSans-112"/>
      <use transform="translate(154.638672 0.370312)" xlink:href="#DejaVuSans-117"/>
      <use transform="translate(218.017578 0.370312)" xlink:href="#DejaVuSans-116"/>
      <use transform="translate(257.226562 0.370312)" xlink:href="#DejaVuSans-32"/>
      <use transform="translate(289.013672 0.370312)" xlink:href="#DejaVuSans-109"/>
      <use transform="translate(386.425781 0.370312)" xlink:href="#DejaVuSans-97"/>
      <use transform="translate(447.705078 0.370312)" xlink:href="#DejaVuSans-116"/>
      <use transform="translate(486.914062 0.370312)" xlink:href="#DejaVuSans-101"/>
      <use transform="translate(548.4375 0.370312)" xlink:href="#DejaVuSans-114"/>
      <use transform="translate(589.550781 0.370312)" xlink:href="#DejaVuSans-105"/>
      <use transform="translate(617.333984 0.370312)" xlink:href="#DejaVuSans-97"/>
      <use transform="translate(678.613281 0.370312)" xlink:href="#DejaVuSans-108"/>
      <use transform="translate(706.396484 0.370312)" xlink:href="#DejaVuSans-32"/>
      <use transform="translate(738.183594 0.370312)" xlink:href="#DejaVuSans-109"/>
      <use transform="translate(835.595703 0.370312)" xlink:href="#DejaVuSans-97"/>
      <use transform="translate(896.875 0.370312)" xlink:href="#DejaVuSans-115"/>
      <use transform="translate(948.974609 0.370312)" xlink:href="#DejaVuSans-115"/>
      <use transform="translate(1001.074219 0.370312)" xlink:href="#DejaVuSans-32"/>
      <use transform="translate(1032.861328 0.370312)" xlink:href="#DejaVuSans-91"/>
      <use transform="translate(1071.875 0.370312)" xlink:href="#DejaVuSans-49"/>
      <use transform="translate(1135.498047 0.370312)" xlink:href="#DejaVuSans-48"/>
      <use transform="translate(1199.913789 36.607813)scale(0.7)" xlink:href="#STIXGeneral-Regular-120803"/>
      <use transform="translate(1234.913778 36.607813)scale(0.7)" xlink:href="#STIXGeneral-Regular-120804"/>
      <use transform="translate(1272.178611 0.370312)" xlink:href="#DejaVuSans-32"/>
      <use transform="translate(1303.965721 0.370312)" xlink:href="#DejaVuSans-107"/>
      <use transform="translate(1361.875877 0.370312)" xlink:href="#DejaVuSans-103"/>
      <use transform="translate(1425.35244 0.370312)" xlink:href="#DejaVuSans-32"/>
      <use transform="translate(1457.139549 0.370312)" xlink:href="#DejaVuSans-121"/>
      <use transform="translate(1516.319236 0.370312)" xlink:href="#DejaVuSans-114"/>
      <use transform="translate(1558.225213 36.607813)scale(0.7)" xlink:href="#STIXGeneral-Regular-8722"/>
      <use transform="translate(1606.175202 36.607813)scale(0.7)" xlink:href="#STIXGeneral-Regular-120803"/>
      <use transform="translate(1643.440035 0.370312)" xlink:href="#DejaVuSans-93"/>
     </g>
    </g>
   </g>
   <g id="PolyCollection_1">
    <defs>
     <path d="M 17.46432 -28.992255 
L 17.46432 -26.31375 
L 18.609561 -26.31375 
L 19.736146 -26.31375 
L 20.859801 -26.31375 
L 21.993721 -26.31375 
L 23.14855 -26.31375 
L 24.332305 -26.31375 
L 25.550458 -26.31375 
L 26.806193 -26.31375 
L 28.100819 -26.31375 
L 29.435057 -26.31375 
L 30.810364 -26.31375 
L 32.230145 -26.31375 
L 33.700227 -26.31375 
L 35.227456 -26.31375 
L 36.815449 -26.31375 
L 38.466238 -26.31375 
L 40.174929 -26.31375 
L 41.929256 -26.31375 
L 43.71244 -26.31375 
L 45.511217 -26.31375 
L 47.32303 -26.31375 
L 49.147875 -26.31375 
L 50.978483 -26.31375 
L 52.807066 -26.31375 
L 54.629135 -26.31375 
L 56.440638 -26.31375 
L 58.245233 -26.31375 
L 60.056145 -26.31375 
L 61.891935 -26.31375 
L 63.76668 -26.31375 
L 65.680172 -26.31375 
L 67.629704 -26.31375 
L 69.623182 -26.31375 
L 71.669616 -26.31375 
L 73.772536 -26.31375 
L 75.936967 -26.31375 
L 78.153226 -26.31375 
L 80.391596 -26.31375 
L 82.612076 -26.31375 
L 84.785105 -26.31375 
L 86.900489 -26.31375 
L 88.963528 -26.31375 
L 90.979625 -26.31375 
L 92.96034 -26.31375 
L 94.915276 -26.31375 
L 96.844579 -26.31375 
L 98.747641 -26.31375 
L 100.633324 -26.31375 
L 102.512779 -26.31375 
L 104.395084 -26.31375 
L 106.283786 -26.31375 
L 108.180494 -26.31375 
L 110.089772 -26.31375 
L 112.015974 -26.31375 
L 113.962089 -26.31375 
L 115.929884 -26.31375 
L 117.91893 -26.31375 
L 119.926812 -26.31375 
L 121.949561 -26.31375 
L 123.98335 -26.31375 
L 123.98335 -87.984602 
L 123.98335 -87.984602 
L 121.949561 -88.013543 
L 119.926812 -83.933229 
L 117.91893 -82.880347 
L 115.929884 -78.97138 
L 113.962089 -73.584412 
L 112.015974 -70.379899 
L 110.089772 -67.031667 
L 108.180494 -63.605554 
L 106.283786 -61.541732 
L 104.395084 -59.715671 
L 102.512779 -58.566287 
L 100.633324 -57.348651 
L 98.747641 -57.465204 
L 96.844579 -56.457596 
L 94.915276 -55.540928 
L 92.96034 -53.867558 
L 90.979625 -52.325541 
L 88.963528 -48.967089 
L 86.900489 -50.152306 
L 84.785105 -47.300359 
L 82.612076 -47.276104 
L 80.391596 -48.912289 
L 78.153226 -47.494986 
L 75.936967 -46.593729 
L 73.772536 -45.664382 
L 71.669616 -45.221946 
L 69.623182 -44.775154 
L 67.629704 -44.151733 
L 65.680172 -44.121524 
L 63.76668 -44.10951 
L 61.891935 -43.944297 
L 60.056145 -43.507732 
L 58.245233 -42.36836 
L 56.440638 -41.108675 
L 54.629135 -40.470471 
L 52.807066 -40.476373 
L 50.978483 -40.467182 
L 49.147875 -39.629727 
L 47.32303 -38.167775 
L 45.511217 -37.853395 
L 43.71244 -37.229791 
L 41.929256 -36.711083 
L 40.174929 -35.968996 
L 38.466238 -35.65753 
L 36.815449 -35.017042 
L 35.227456 -34.654926 
L 33.700227 -33.924979 
L 32.230145 -33.524227 
L 30.810364 -33.01775 
L 29.435057 -32.684785 
L 28.100819 -32.24816 
L 26.806193 -31.591502 
L 25.550458 -31.292587 
L 24.332305 -31.043426 
L 23.14855 -30.696109 
L 21.993721 -30.234782 
L 20.859801 -29.897899 
L 19.736146 -29.564396 
L 18.609561 -29.310709 
L 17.46432 -28.992255 
z
" id="mca0dafcf1e" style="stroke:#ffffff;stroke-width:0.25;"/>
    </defs>
    <g clip-path="url(#pda34720687)">
     <use style="fill:#a9a9a9;stroke:#ffffff;stroke-width:0.25;" x="0" xlink:href="#mca0dafcf1e" y="142.23375"/>
    </g>
   </g>
   <g id="PolyCollection_2">
    <defs>
     <path d="M 17.46432 -32.757244 
L 17.46432 -28.992255 
L 18.609561 -29.310709 
L 19.736146 -29.564396 
L 20.859801 -29.897899 
L 21.993721 -30.234782 
L 23.14855 -30.696109 
L 24.332305 -31.043426 
L 25.550458 -31.292587 
L 26.806193 -31.591502 
L 28.100819 -32.24816 
L 29.435057 -32.684785 
L 30.810364 -33.01775 
L 32.230145 -33.524227 
L 33.700227 -33.924979 
L 35.227456 -34.654926 
L 36.815449 -35.017042 
L 38.466238 -35.65753 
L 40.174929 -35.968996 
L 41.929256 -36.711083 
L 43.71244 -37.229791 
L 45.511217 -37.853395 
L 47.32303 -38.167775 
L 49.147875 -39.629727 
L 50.978483 -40.467182 
L 52.807066 -40.476373 
L 54.629135 -40.470471 
L 56.440638 -41.108675 
L 58.245233 -42.36836 
L 60.056145 -43.507732 
L 61.891935 -43.944297 
L 63.76668 -44.10951 
L 65.680172 -44.121524 
L 67.629704 -44.151733 
L 69.623182 -44.775154 
L 71.669616 -45.221946 
L 73.772536 -45.664382 
L 75.936967 -46.593729 
L 78.153226 -47.494986 
L 80.391596 -48.912289 
L 82.612076 -47.276104 
L 84.785105 -47.300359 
L 86.900489 -50.152306 
L 88.963528 -48.967089 
L 90.979625 -52.325541 
L 92.96034 -53.867558 
L 94.915276 -55.540928 
L 96.844579 -56.457596 
L 98.747641 -57.465204 
L 100.633324 -57.348651 
L 102.512779 -58.566287 
L 104.395084 -59.715671 
L 106.283786 -61.541732 
L 108.180494 -63.605554 
L 110.089772 -67.031667 
L 112.015974 -70.379899 
L 113.962089 -73.584412 
L 115.929884 -78.97138 
L 117.91893 -82.880347 
L 119.926812 -83.933229 
L 121.949561 -88.013543 
L 123.98335 -87.984602 
L 123.98335 -107.508438 
L 123.98335 -107.508438 
L 121.949561 -107.226194 
L 119.926812 -103.819273 
L 117.91893 -102.724814 
L 115.929884 -98.357327 
L 113.962089 -92.278964 
L 112.015974 -88.121619 
L 110.089772 -84.794242 
L 108.180494 -81.103118 
L 106.283786 -79.614615 
L 104.395084 -77.774607 
L 102.512779 -76.502919 
L 100.633324 -75.038176 
L 98.747641 -74.457993 
L 96.844579 -73.50688 
L 94.915276 -72.239441 
L 92.96034 -69.55858 
L 90.979625 -67.819438 
L 88.963528 -64.009706 
L 86.900489 -64.685224 
L 84.785105 -60.243696 
L 82.612076 -60.254495 
L 80.391596 -61.594922 
L 78.153226 -59.575465 
L 75.936967 -58.411462 
L 73.772536 -56.861002 
L 71.669616 -56.371511 
L 69.623182 -55.55743 
L 67.629704 -55.506645 
L 65.680172 -56.708517 
L 63.76668 -57.803212 
L 61.891935 -58.115522 
L 60.056145 -56.892073 
L 58.245233 -55.662131 
L 56.440638 -54.344211 
L 54.629135 -54.751927 
L 52.807066 -55.546134 
L 50.978483 -54.969217 
L 49.147875 -53.970793 
L 47.32303 -50.672042 
L 45.511217 -50.430746 
L 43.71244 -48.616046 
L 41.929256 -47.922774 
L 40.174929 -46.27273 
L 38.466238 -45.753189 
L 36.815449 -44.335292 
L 35.227456 -43.514766 
L 33.700227 -42.057737 
L 32.230145 -41.183734 
L 30.810364 -40.211952 
L 29.435057 -39.514102 
L 28.100819 -38.673961 
L 26.806193 -37.625327 
L 25.550458 -37.233599 
L 24.332305 -36.54443 
L 23.14855 -35.71238 
L 21.993721 -34.961171 
L 20.859801 -34.389797 
L 19.736146 -33.836183 
L 18.609561 -33.219848 
L 17.46432 -32.757244 
z
" id="m888c142b38" style="stroke:#ffffff;stroke-width:0.25;"/>
    </defs>
    <g clip-path="url(#pda34720687)">
     <use style="fill:#808080;stroke:#ffffff;stroke-width:0.25;" x="0" xlink:href="#m888c142b38" y="142.23375"/>
    </g>
   </g>
   <g id="PolyCollection_3">
    <defs>
     <path d="M 17.46432 -35.183907 
L 17.46432 -32.757244 
L 18.609561 -33.219848 
L 19.736146 -33.836183 
L 20.859801 -34.389797 
L 21.993721 -34.961171 
L 23.14855 -35.71238 
L 24.332305 -36.54443 
L 25.550458 -37.233599 
L 26.806193 -37.625327 
L 28.100819 -38.673961 
L 29.435057 -39.514102 
L 30.810364 -40.211952 
L 32.230145 -41.183734 
L 33.700227 -42.057737 
L 35.227456 -43.514766 
L 36.815449 -44.335292 
L 38.466238 -45.753189 
L 40.174929 -46.27273 
L 41.929256 -47.922774 
L 43.71244 -48.616046 
L 45.511217 -50.430746 
L 47.32303 -50.672042 
L 49.147875 -53.970793 
L 50.978483 -54.969217 
L 52.807066 -55.546134 
L 54.629135 -54.751927 
L 56.440638 -54.344211 
L 58.245233 -55.662131 
L 60.056145 -56.892073 
L 61.891935 -58.115522 
L 63.76668 -57.803212 
L 65.680172 -56.708517 
L 67.629704 -55.506645 
L 69.623182 -55.55743 
L 71.669616 -56.371511 
L 73.772536 -56.861002 
L 75.936967 -58.411462 
L 78.153226 -59.575465 
L 80.391596 -61.594922 
L 82.612076 -60.254495 
L 84.785105 -60.243696 
L 86.900489 -64.685224 
L 88.963528 -64.009706 
L 90.979625 -67.819438 
L 92.96034 -69.55858 
L 94.915276 -72.239441 
L 96.844579 -73.50688 
L 98.747641 -74.457993 
L 100.633324 -75.038176 
L 102.512779 -76.502919 
L 104.395084 -77.774607 
L 106.283786 -79.614615 
L 108.180494 -81.103118 
L 110.089772 -84.794242 
L 112.015974 -88.121619 
L 113.962089 -92.278964 
L 115.929884 -98.357327 
L 117.91893 -102.724814 
L 119.926812 -103.819273 
L 121.949561 -107.226194 
L 123.98335 -107.508438 
L 123.98335 -123.009456 
L 123.98335 -123.009456 
L 121.949561 -122.770244 
L 119.926812 -119.243244 
L 117.91893 -118.129746 
L 115.929884 -113.505559 
L 113.962089 -107.244042 
L 112.015974 -102.508192 
L 110.089772 -99.800332 
L 108.180494 -95.800951 
L 106.283786 -95.293099 
L 104.395084 -94.146132 
L 102.512779 -92.948199 
L 100.633324 -91.439723 
L 98.747641 -89.324787 
L 96.844579 -88.998832 
L 94.915276 -87.977659 
L 92.96034 -82.245732 
L 90.979625 -80.107185 
L 88.963528 -75.662335 
L 86.900489 -75.657566 
L 84.785105 -71.403601 
L 82.612076 -71.110965 
L 80.391596 -72.27032 
L 78.153226 -69.451592 
L 75.936967 -67.769185 
L 73.772536 -65.930857 
L 71.669616 -65.179849 
L 69.623182 -63.627951 
L 67.629704 -63.357922 
L 65.680172 -64.322896 
L 63.76668 -65.66542 
L 61.891935 -65.815305 
L 60.056145 -64.442677 
L 58.245233 -62.937821 
L 56.440638 -61.737012 
L 54.629135 -62.068978 
L 52.807066 -62.783778 
L 50.978483 -61.932199 
L 49.147875 -60.782158 
L 47.32303 -56.739758 
L 45.511217 -56.28311 
L 43.71244 -54.037315 
L 41.929256 -53.162003 
L 40.174929 -51.190626 
L 38.466238 -50.51134 
L 36.815449 -48.831564 
L 35.227456 -47.755239 
L 33.700227 -46.084563 
L 32.230145 -44.988369 
L 30.810364 -43.847069 
L 29.435057 -42.966683 
L 28.100819 -41.997367 
L 26.806193 -40.845791 
L 25.550458 -40.36386 
L 24.332305 -39.545955 
L 23.14855 -38.572358 
L 21.993721 -37.72296 
L 20.859801 -37.069072 
L 19.736146 -36.438293 
L 18.609561 -35.720216 
L 17.46432 -35.183907 
z
" id="m1158e2fac6" style="stroke:#ffffff;stroke-width:0.25;"/>
    </defs>
    <g clip-path="url(#pda34720687)">
     <use style="fill:#7aa974;stroke:#ffffff;stroke-width:0.25;" x="0" xlink:href="#m1158e2fac6" y="142.23375"/>
    </g>
   </g>
   <g id="PolyCollection_4">
    <defs>
     <path d="M 17.46432 -36.507179 
L 17.46432 -35.183907 
L 18.609561 -35.720216 
L 19.736146 -36.438293 
L 20.859801 -37.069072 
L 21.993721 -37.72296 
L 23.14855 -38.572358 
L 24.332305 -39.545955 
L 25.550458 -40.36386 
L 26.806193 -40.845791 
L 28.100819 -41.997367 
L 29.435057 -42.966683 
L 30.810364 -43.847069 
L 32.230145 -44.988369 
L 33.700227 -46.084563 
L 35.227456 -47.755239 
L 36.815449 -48.831564 
L 38.466238 -50.51134 
L 40.174929 -51.190626 
L 41.929256 -53.162003 
L 43.71244 -54.037315 
L 45.511217 -56.28311 
L 47.32303 -56.739758 
L 49.147875 -60.782158 
L 50.978483 -61.932199 
L 52.807066 -62.783778 
L 54.629135 -62.068978 
L 56.440638 -61.737012 
L 58.245233 -62.937821 
L 60.056145 -64.442677 
L 61.891935 -65.815305 
L 63.76668 -65.66542 
L 65.680172 -64.322896 
L 67.629704 -63.357922 
L 69.623182 -63.627951 
L 71.669616 -65.179849 
L 73.772536 -65.930857 
L 75.936967 -67.769185 
L 78.153226 -69.451592 
L 80.391596 -72.27032 
L 82.612076 -71.110965 
L 84.785105 -71.403601 
L 86.900489 -75.657566 
L 88.963528 -75.662335 
L 90.979625 -80.107185 
L 92.96034 -82.245732 
L 94.915276 -87.977659 
L 96.844579 -88.998832 
L 98.747641 -89.324787 
L 100.633324 -91.439723 
L 102.512779 -92.948199 
L 104.395084 -94.146132 
L 106.283786 -95.293099 
L 108.180494 -95.800951 
L 110.089772 -99.800332 
L 112.015974 -102.508192 
L 113.962089 -107.244042 
L 115.929884 -113.505559 
L 117.91893 -118.129746 
L 119.926812 -119.243244 
L 121.949561 -122.770244 
L 123.98335 -123.009456 
L 123.98335 -129.856607 
L 123.98335 -129.856607 
L 121.949561 -129.070279 
L 119.926812 -125.796815 
L 117.91893 -124.760305 
L 115.929884 -119.769487 
L 113.962089 -113.160475 
L 112.015974 -108.057707 
L 110.089772 -105.046399 
L 108.180494 -100.713492 
L 106.283786 -100.003626 
L 104.395084 -98.852953 
L 102.512779 -97.448899 
L 100.633324 -95.792103 
L 98.747641 -93.760363 
L 96.844579 -93.173508 
L 94.915276 -92.13881 
L 92.96034 -86.257483 
L 90.979625 -84.024377 
L 88.963528 -79.552239 
L 86.900489 -79.6157 
L 84.785105 -75.489494 
L 82.612076 -75.240451 
L 80.391596 -76.312575 
L 78.153226 -73.328981 
L 75.936967 -71.507689 
L 73.772536 -69.593143 
L 71.669616 -68.74633 
L 69.623182 -66.999908 
L 67.629704 -66.618152 
L 65.680172 -67.729143 
L 63.76668 -69.142546 
L 61.891935 -69.34976 
L 60.056145 -67.854313 
L 58.245233 -66.230556 
L 56.440638 -64.982301 
L 54.629135 -65.104797 
L 52.807066 -66.025855 
L 50.978483 -65.198874 
L 49.147875 -63.815854 
L 47.32303 -59.64599 
L 45.511217 -59.139945 
L 43.71244 -56.807324 
L 41.929256 -55.7889 
L 40.174929 -53.662414 
L 38.466238 -52.982108 
L 36.815449 -51.221113 
L 35.227456 -49.982962 
L 33.700227 -48.136207 
L 32.230145 -46.954941 
L 30.810364 -45.78589 
L 29.435057 -44.919227 
L 28.100819 -43.784109 
L 26.806193 -42.550814 
L 25.550458 -42.10845 
L 24.332305 -41.209161 
L 23.14855 -40.171418 
L 21.993721 -39.364632 
L 20.859801 -38.589997 
L 19.736146 -37.872706 
L 18.609561 -37.129196 
L 17.46432 -36.507179 
z
" id="m71b19ee205" style="stroke:#ffffff;stroke-width:0.25;"/>
    </defs>
    <g clip-path="url(#pda34720687)">
     <use style="fill:#738fc1;stroke:#ffffff;stroke-width:0.25;" x="0" xlink:href="#m71b19ee205" y="142.23375"/>
    </g>
   </g>
   <g id="patch_3">
    <path d="M 28.635 115.92 
L 28.635 7.2 
" style="fill:none;stroke:#ffffff;stroke-linecap:square;stroke-linejoin:miter;stroke-width:0.8;"/>
   </g>
   <g id="patch_4">
    <path d="M 140.235 115.92 
L 140.235 7.2 
" style="fill:none;stroke:#ffffff;stroke-linecap:square;stroke-linejoin:miter;stroke-width:0.8;"/>
   </g>
   <g id="patch_5">
    <path d="M 28.635 115.92 
L 140.235 115.92 
" style="fill:none;stroke:#ffffff;stroke-linecap:square;stroke-linejoin:miter;stroke-width:0.8;"/>
   </g>
   <g id="patch_6">
    <path d="M 28.635 7.2 
L 140.235 7.2 
" style="fill:none;stroke:#ffffff;stroke-linecap:square;stroke-linejoin:miter;stroke-width:0.8;"/>
   </g>
  </g>
 </g>
 <defs>
  <clipPath id="pda34720687">
   <rect height="108.72" width="111.6" x="28.635" y="7.2"/>
  </clipPath>
 </defs>
</svg>
