<?xml version="1.0" encoding="utf-8" standalone="no"?>
<!DOCTYPE svg PUBLIC "-//W3C//DTD SVG 1.1//EN"
  "http://www.w3.org/Graphics/SVG/1.1/DTD/svg11.dtd">
<!-- Created with matplotlib (https://matplotlib.org/) -->
<svg height="115.05375pt" version="1.1" viewBox="0 0 123.3525 115.05375" width="123.3525pt" xmlns="http://www.w3.org/2000/svg" xmlns:xlink="http://www.w3.org/1999/xlink">
 <metadata>
  <rdf:RDF xmlns:cc="http://creativecommons.org/ns#" xmlns:dc="http://purl.org/dc/elements/1.1/" xmlns:rdf="http://www.w3.org/1999/02/22-rdf-syntax-ns#">
   <cc:Work>
    <dc:type rdf:resource="http://purl.org/dc/dcmitype/StillImage"/>
    <dc:date>2021-10-12T15:35:57.139834</dc:date>
    <dc:format>image/svg+xml</dc:format>
    <dc:creator>
     <cc:Agent>
      <dc:title>Matplotlib v3.3.4, https://matplotlib.org/</dc:title>
     </cc:Agent>
    </dc:creator>
   </cc:Work>
  </rdf:RDF>
 </metadata>
 <defs>
  <style type="text/css">*{stroke-linecap:butt;stroke-linejoin:round;}</style>
 </defs>
 <g id="figure_1">
  <g id="patch_1">
   <path d="M 0 115.05375 
L 123.3525 115.05375 
L 123.3525 0 
L 0 0 
z
" style="fill:#ffffff;"/>
  </g>
  <g id="axes_1">
   <g id="patch_2">
    <path d="M 32.4525 88.74 
L 116.1525 88.74 
L 116.1525 7.2 
L 32.4525 7.2 
z
" style="fill:#e3dcd0;"/>
   </g>
   <g id="matplotlib.axis_1">
    <g id="xtick_1">
     <g id="text_1">
      <!-- 4 -->
      <g transform="translate(54.582352 96.799063)scale(0.06 -0.06)">
       <defs>
        <path d="M 37.796875 64.3125 
L 12.890625 25.390625 
L 37.796875 25.390625 
z
M 35.203125 72.90625 
L 47.609375 72.90625 
L 47.609375 25.390625 
L 58.015625 25.390625 
L 58.015625 17.1875 
L 47.609375 17.1875 
L 47.609375 0 
L 37.796875 0 
L 37.796875 17.1875 
L 4.890625 17.1875 
L 4.890625 26.703125 
z
" id="DejaVuSans-52"/>
       </defs>
       <use xlink:href="#DejaVuSans-52"/>
      </g>
     </g>
    </g>
    <g id="xtick_2">
     <g id="text_2">
      <!-- 6 -->
      <g transform="translate(87.428135 96.799063)scale(0.06 -0.06)">
       <defs>
        <path d="M 33.015625 40.375 
Q 26.375 40.375 22.484375 35.828125 
Q 18.609375 31.296875 18.609375 23.390625 
Q 18.609375 15.53125 22.484375 10.953125 
Q 26.375 6.390625 33.015625 6.390625 
Q 39.65625 6.390625 43.53125 10.953125 
Q 47.40625 15.53125 47.40625 23.390625 
Q 47.40625 31.296875 43.53125 35.828125 
Q 39.65625 40.375 33.015625 40.375 
z
M 52.59375 71.296875 
L 52.59375 62.3125 
Q 48.875 64.0625 45.09375 64.984375 
Q 41.3125 65.921875 37.59375 65.921875 
Q 27.828125 65.921875 22.671875 59.328125 
Q 17.53125 52.734375 16.796875 39.40625 
Q 19.671875 43.65625 24.015625 45.921875 
Q 28.375 48.1875 33.59375 48.1875 
Q 44.578125 48.1875 50.953125 41.515625 
Q 57.328125 34.859375 57.328125 23.390625 
Q 57.328125 12.15625 50.6875 5.359375 
Q 44.046875 -1.421875 33.015625 -1.421875 
Q 20.359375 -1.421875 13.671875 8.265625 
Q 6.984375 17.96875 6.984375 36.375 
Q 6.984375 53.65625 15.1875 63.9375 
Q 23.390625 74.21875 37.203125 74.21875 
Q 40.921875 74.21875 44.703125 73.484375 
Q 48.484375 72.75 52.59375 71.296875 
z
" id="DejaVuSans-54"/>
       </defs>
       <use xlink:href="#DejaVuSans-54"/>
      </g>
     </g>
    </g>
    <g id="text_3">
     <!-- human population [billion] -->
     <g style="fill:#262626;" transform="translate(34.650938 106.605938)scale(0.06 -0.06)">
      <defs>
       <path d="M 54.890625 33.015625 
L 54.890625 0 
L 45.90625 0 
L 45.90625 32.71875 
Q 45.90625 40.484375 42.875 44.328125 
Q 39.84375 48.1875 33.796875 48.1875 
Q 26.515625 48.1875 22.3125 43.546875 
Q 18.109375 38.921875 18.109375 30.90625 
L 18.109375 0 
L 9.078125 0 
L 9.078125 75.984375 
L 18.109375 75.984375 
L 18.109375 46.1875 
Q 21.34375 51.125 25.703125 53.5625 
Q 30.078125 56 35.796875 56 
Q 45.21875 56 50.046875 50.171875 
Q 54.890625 44.34375 54.890625 33.015625 
z
" id="DejaVuSans-104"/>
       <path d="M 8.5 21.578125 
L 8.5 54.6875 
L 17.484375 54.6875 
L 17.484375 21.921875 
Q 17.484375 14.15625 20.5 10.265625 
Q 23.53125 6.390625 29.59375 6.390625 
Q 36.859375 6.390625 41.078125 11.03125 
Q 45.3125 15.671875 45.3125 23.6875 
L 45.3125 54.6875 
L 54.296875 54.6875 
L 54.296875 0 
L 45.3125 0 
L 45.3125 8.40625 
Q 42.046875 3.421875 37.71875 1 
Q 33.40625 -1.421875 27.6875 -1.421875 
Q 18.265625 -1.421875 13.375 4.4375 
Q 8.5 10.296875 8.5 21.578125 
z
M 31.109375 56 
z
" id="DejaVuSans-117"/>
       <path d="M 52 44.1875 
Q 55.375 50.25 60.0625 53.125 
Q 64.75 56 71.09375 56 
Q 79.640625 56 84.28125 50.015625 
Q 88.921875 44.046875 88.921875 33.015625 
L 88.921875 0 
L 79.890625 0 
L 79.890625 32.71875 
Q 79.890625 40.578125 77.09375 44.375 
Q 74.3125 48.1875 68.609375 48.1875 
Q 61.625 48.1875 57.5625 43.546875 
Q 53.515625 38.921875 53.515625 30.90625 
L 53.515625 0 
L 44.484375 0 
L 44.484375 32.71875 
Q 44.484375 40.625 41.703125 44.40625 
Q 38.921875 48.1875 33.109375 48.1875 
Q 26.21875 48.1875 22.15625 43.53125 
Q 18.109375 38.875 18.109375 30.90625 
L 18.109375 0 
L 9.078125 0 
L 9.078125 54.6875 
L 18.109375 54.6875 
L 18.109375 46.1875 
Q 21.1875 51.21875 25.484375 53.609375 
Q 29.78125 56 35.6875 56 
Q 41.65625 56 45.828125 52.96875 
Q 50 49.953125 52 44.1875 
z
" id="DejaVuSans-109"/>
       <path d="M 34.28125 27.484375 
Q 23.390625 27.484375 19.1875 25 
Q 14.984375 22.515625 14.984375 16.5 
Q 14.984375 11.71875 18.140625 8.90625 
Q 21.296875 6.109375 26.703125 6.109375 
Q 34.1875 6.109375 38.703125 11.40625 
Q 43.21875 16.703125 43.21875 25.484375 
L 43.21875 27.484375 
z
M 52.203125 31.203125 
L 52.203125 0 
L 43.21875 0 
L 43.21875 8.296875 
Q 40.140625 3.328125 35.546875 0.953125 
Q 30.953125 -1.421875 24.3125 -1.421875 
Q 15.921875 -1.421875 10.953125 3.296875 
Q 6 8.015625 6 15.921875 
Q 6 25.140625 12.171875 29.828125 
Q 18.359375 34.515625 30.609375 34.515625 
L 43.21875 34.515625 
L 43.21875 35.40625 
Q 43.21875 41.609375 39.140625 45 
Q 35.0625 48.390625 27.6875 48.390625 
Q 23 48.390625 18.546875 47.265625 
Q 14.109375 46.140625 10.015625 43.890625 
L 10.015625 52.203125 
Q 14.9375 54.109375 19.578125 55.046875 
Q 24.21875 56 28.609375 56 
Q 40.484375 56 46.34375 49.84375 
Q 52.203125 43.703125 52.203125 31.203125 
z
" id="DejaVuSans-97"/>
       <path d="M 54.890625 33.015625 
L 54.890625 0 
L 45.90625 0 
L 45.90625 32.71875 
Q 45.90625 40.484375 42.875 44.328125 
Q 39.84375 48.1875 33.796875 48.1875 
Q 26.515625 48.1875 22.3125 43.546875 
Q 18.109375 38.921875 18.109375 30.90625 
L 18.109375 0 
L 9.078125 0 
L 9.078125 54.6875 
L 18.109375 54.6875 
L 18.109375 46.1875 
Q 21.34375 51.125 25.703125 53.5625 
Q 30.078125 56 35.796875 56 
Q 45.21875 56 50.046875 50.171875 
Q 54.890625 44.34375 54.890625 33.015625 
z
" id="DejaVuSans-110"/>
       <path id="DejaVuSans-32"/>
       <path d="M 18.109375 8.203125 
L 18.109375 -20.796875 
L 9.078125 -20.796875 
L 9.078125 54.6875 
L 18.109375 54.6875 
L 18.109375 46.390625 
Q 20.953125 51.265625 25.265625 53.625 
Q 29.59375 56 35.59375 56 
Q 45.5625 56 51.78125 48.09375 
Q 58.015625 40.1875 58.015625 27.296875 
Q 58.015625 14.40625 51.78125 6.484375 
Q 45.5625 -1.421875 35.59375 -1.421875 
Q 29.59375 -1.421875 25.265625 0.953125 
Q 20.953125 3.328125 18.109375 8.203125 
z
M 48.6875 27.296875 
Q 48.6875 37.203125 44.609375 42.84375 
Q 40.53125 48.484375 33.40625 48.484375 
Q 26.265625 48.484375 22.1875 42.84375 
Q 18.109375 37.203125 18.109375 27.296875 
Q 18.109375 17.390625 22.1875 11.75 
Q 26.265625 6.109375 33.40625 6.109375 
Q 40.53125 6.109375 44.609375 11.75 
Q 48.6875 17.390625 48.6875 27.296875 
z
" id="DejaVuSans-112"/>
       <path d="M 30.609375 48.390625 
Q 23.390625 48.390625 19.1875 42.75 
Q 14.984375 37.109375 14.984375 27.296875 
Q 14.984375 17.484375 19.15625 11.84375 
Q 23.34375 6.203125 30.609375 6.203125 
Q 37.796875 6.203125 41.984375 11.859375 
Q 46.1875 17.53125 46.1875 27.296875 
Q 46.1875 37.015625 41.984375 42.703125 
Q 37.796875 48.390625 30.609375 48.390625 
z
M 30.609375 56 
Q 42.328125 56 49.015625 48.375 
Q 55.71875 40.765625 55.71875 27.296875 
Q 55.71875 13.875 49.015625 6.21875 
Q 42.328125 -1.421875 30.609375 -1.421875 
Q 18.84375 -1.421875 12.171875 6.21875 
Q 5.515625 13.875 5.515625 27.296875 
Q 5.515625 40.765625 12.171875 48.375 
Q 18.84375 56 30.609375 56 
z
" id="DejaVuSans-111"/>
       <path d="M 9.421875 75.984375 
L 18.40625 75.984375 
L 18.40625 0 
L 9.421875 0 
z
" id="DejaVuSans-108"/>
       <path d="M 18.3125 70.21875 
L 18.3125 54.6875 
L 36.8125 54.6875 
L 36.8125 47.703125 
L 18.3125 47.703125 
L 18.3125 18.015625 
Q 18.3125 11.328125 20.140625 9.421875 
Q 21.96875 7.515625 27.59375 7.515625 
L 36.8125 7.515625 
L 36.8125 0 
L 27.59375 0 
Q 17.1875 0 13.234375 3.875 
Q 9.28125 7.765625 9.28125 18.015625 
L 9.28125 47.703125 
L 2.6875 47.703125 
L 2.6875 54.6875 
L 9.28125 54.6875 
L 9.28125 70.21875 
z
" id="DejaVuSans-116"/>
       <path d="M 9.421875 54.6875 
L 18.40625 54.6875 
L 18.40625 0 
L 9.421875 0 
z
M 9.421875 75.984375 
L 18.40625 75.984375 
L 18.40625 64.59375 
L 9.421875 64.59375 
z
" id="DejaVuSans-105"/>
       <path d="M 8.59375 75.984375 
L 29.296875 75.984375 
L 29.296875 69 
L 17.578125 69 
L 17.578125 -6.203125 
L 29.296875 -6.203125 
L 29.296875 -13.1875 
L 8.59375 -13.1875 
z
" id="DejaVuSans-91"/>
       <path d="M 48.6875 27.296875 
Q 48.6875 37.203125 44.609375 42.84375 
Q 40.53125 48.484375 33.40625 48.484375 
Q 26.265625 48.484375 22.1875 42.84375 
Q 18.109375 37.203125 18.109375 27.296875 
Q 18.109375 17.390625 22.1875 11.75 
Q 26.265625 6.109375 33.40625 6.109375 
Q 40.53125 6.109375 44.609375 11.75 
Q 48.6875 17.390625 48.6875 27.296875 
z
M 18.109375 46.390625 
Q 20.953125 51.265625 25.265625 53.625 
Q 29.59375 56 35.59375 56 
Q 45.5625 56 51.78125 48.09375 
Q 58.015625 40.1875 58.015625 27.296875 
Q 58.015625 14.40625 51.78125 6.484375 
Q 45.5625 -1.421875 35.59375 -1.421875 
Q 29.59375 -1.421875 25.265625 0.953125 
Q 20.953125 3.328125 18.109375 8.203125 
L 18.109375 0 
L 9.078125 0 
L 9.078125 75.984375 
L 18.109375 75.984375 
z
" id="DejaVuSans-98"/>
       <path d="M 30.421875 75.984375 
L 30.421875 -13.1875 
L 9.71875 -13.1875 
L 9.71875 -6.203125 
L 21.390625 -6.203125 
L 21.390625 69 
L 9.71875 69 
L 9.71875 75.984375 
z
" id="DejaVuSans-93"/>
      </defs>
      <use xlink:href="#DejaVuSans-104"/>
      <use x="63.378906" xlink:href="#DejaVuSans-117"/>
      <use x="126.757812" xlink:href="#DejaVuSans-109"/>
      <use x="224.169922" xlink:href="#DejaVuSans-97"/>
      <use x="285.449219" xlink:href="#DejaVuSans-110"/>
      <use x="348.828125" xlink:href="#DejaVuSans-32"/>
      <use x="380.615234" xlink:href="#DejaVuSans-112"/>
      <use x="444.091797" xlink:href="#DejaVuSans-111"/>
      <use x="505.273438" xlink:href="#DejaVuSans-112"/>
      <use x="568.75" xlink:href="#DejaVuSans-117"/>
      <use x="632.128906" xlink:href="#DejaVuSans-108"/>
      <use x="659.912109" xlink:href="#DejaVuSans-97"/>
      <use x="721.191406" xlink:href="#DejaVuSans-116"/>
      <use x="760.400391" xlink:href="#DejaVuSans-105"/>
      <use x="788.183594" xlink:href="#DejaVuSans-111"/>
      <use x="849.365234" xlink:href="#DejaVuSans-110"/>
      <use x="912.744141" xlink:href="#DejaVuSans-32"/>
      <use x="944.53125" xlink:href="#DejaVuSans-91"/>
      <use x="983.544922" xlink:href="#DejaVuSans-98"/>
      <use x="1047.021484" xlink:href="#DejaVuSans-105"/>
      <use x="1074.804688" xlink:href="#DejaVuSans-108"/>
      <use x="1102.587891" xlink:href="#DejaVuSans-108"/>
      <use x="1130.371094" xlink:href="#DejaVuSans-105"/>
      <use x="1158.154297" xlink:href="#DejaVuSans-111"/>
      <use x="1219.335938" xlink:href="#DejaVuSans-110"/>
      <use x="1282.714844" xlink:href="#DejaVuSans-93"/>
     </g>
    </g>
   </g>
   <g id="matplotlib.axis_2">
    <g id="ytick_1">
     <g id="text_4">
      <!-- 0 -->
      <g transform="translate(25.135 91.019531)scale(0.06 -0.06)">
       <defs>
        <path d="M 31.78125 66.40625 
Q 24.171875 66.40625 20.328125 58.90625 
Q 16.5 51.421875 16.5 36.375 
Q 16.5 21.390625 20.328125 13.890625 
Q 24.171875 6.390625 31.78125 6.390625 
Q 39.453125 6.390625 43.28125 13.890625 
Q 47.125 21.390625 47.125 36.375 
Q 47.125 51.421875 43.28125 58.90625 
Q 39.453125 66.40625 31.78125 66.40625 
z
M 31.78125 74.21875 
Q 44.046875 74.21875 50.515625 64.515625 
Q 56.984375 54.828125 56.984375 36.375 
Q 56.984375 17.96875 50.515625 8.265625 
Q 44.046875 -1.421875 31.78125 -1.421875 
Q 19.53125 -1.421875 13.0625 8.265625 
Q 6.59375 17.96875 6.59375 36.375 
Q 6.59375 54.828125 13.0625 64.515625 
Q 19.53125 74.21875 31.78125 74.21875 
z
" id="DejaVuSans-48"/>
       </defs>
       <use xlink:href="#DejaVuSans-48"/>
      </g>
     </g>
    </g>
    <g id="ytick_2">
     <g id="text_5">
      <!-- 50 -->
      <g transform="translate(21.3175 69.270364)scale(0.06 -0.06)">
       <defs>
        <path d="M 10.796875 72.90625 
L 49.515625 72.90625 
L 49.515625 64.59375 
L 19.828125 64.59375 
L 19.828125 46.734375 
Q 21.96875 47.46875 24.109375 47.828125 
Q 26.265625 48.1875 28.421875 48.1875 
Q 40.625 48.1875 47.75 41.5 
Q 54.890625 34.8125 54.890625 23.390625 
Q 54.890625 11.625 47.5625 5.09375 
Q 40.234375 -1.421875 26.90625 -1.421875 
Q 22.3125 -1.421875 17.546875 -0.640625 
Q 12.796875 0.140625 7.71875 1.703125 
L 7.71875 11.625 
Q 12.109375 9.234375 16.796875 8.0625 
Q 21.484375 6.890625 26.703125 6.890625 
Q 35.15625 6.890625 40.078125 11.328125 
Q 45.015625 15.765625 45.015625 23.390625 
Q 45.015625 31 40.078125 35.4375 
Q 35.15625 39.890625 26.703125 39.890625 
Q 22.75 39.890625 18.8125 39.015625 
Q 14.890625 38.140625 10.796875 36.28125 
z
" id="DejaVuSans-53"/>
       </defs>
       <use xlink:href="#DejaVuSans-53"/>
       <use x="63.623047" xlink:href="#DejaVuSans-48"/>
      </g>
     </g>
    </g>
    <g id="ytick_3">
     <g id="text_6">
      <!-- 100 -->
      <g transform="translate(17.5 47.521196)scale(0.06 -0.06)">
       <defs>
        <path d="M 12.40625 8.296875 
L 28.515625 8.296875 
L 28.515625 63.921875 
L 10.984375 60.40625 
L 10.984375 69.390625 
L 28.421875 72.90625 
L 38.28125 72.90625 
L 38.28125 8.296875 
L 54.390625 8.296875 
L 54.390625 0 
L 12.40625 0 
z
" id="DejaVuSans-49"/>
       </defs>
       <use xlink:href="#DejaVuSans-49"/>
       <use x="63.623047" xlink:href="#DejaVuSans-48"/>
       <use x="127.246094" xlink:href="#DejaVuSans-48"/>
      </g>
     </g>
    </g>
    <g id="ytick_4">
     <g id="text_7">
      <!-- 150 -->
      <g transform="translate(17.5 25.772028)scale(0.06 -0.06)">
       <use xlink:href="#DejaVuSans-49"/>
       <use x="63.623047" xlink:href="#DejaVuSans-53"/>
       <use x="127.246094" xlink:href="#DejaVuSans-48"/>
      </g>
     </g>
    </g>
    <g id="text_8">
     <!-- produced mass [10$^{9}$ kg] -->
     <g style="fill:#262626;" transform="translate(12.24 83.85)rotate(-90)scale(0.06 -0.06)">
      <defs>
       <path d="M 41.109375 46.296875 
Q 39.59375 47.171875 37.8125 47.578125 
Q 36.03125 48 33.890625 48 
Q 26.265625 48 22.1875 43.046875 
Q 18.109375 38.09375 18.109375 28.8125 
L 18.109375 0 
L 9.078125 0 
L 9.078125 54.6875 
L 18.109375 54.6875 
L 18.109375 46.1875 
Q 20.953125 51.171875 25.484375 53.578125 
Q 30.03125 56 36.53125 56 
Q 37.453125 56 38.578125 55.875 
Q 39.703125 55.765625 41.0625 55.515625 
z
" id="DejaVuSans-114"/>
       <path d="M 45.40625 46.390625 
L 45.40625 75.984375 
L 54.390625 75.984375 
L 54.390625 0 
L 45.40625 0 
L 45.40625 8.203125 
Q 42.578125 3.328125 38.25 0.953125 
Q 33.9375 -1.421875 27.875 -1.421875 
Q 17.96875 -1.421875 11.734375 6.484375 
Q 5.515625 14.40625 5.515625 27.296875 
Q 5.515625 40.1875 11.734375 48.09375 
Q 17.96875 56 27.875 56 
Q 33.9375 56 38.25 53.625 
Q 42.578125 51.265625 45.40625 46.390625 
z
M 14.796875 27.296875 
Q 14.796875 17.390625 18.875 11.75 
Q 22.953125 6.109375 30.078125 6.109375 
Q 37.203125 6.109375 41.296875 11.75 
Q 45.40625 17.390625 45.40625 27.296875 
Q 45.40625 37.203125 41.296875 42.84375 
Q 37.203125 48.484375 30.078125 48.484375 
Q 22.953125 48.484375 18.875 42.84375 
Q 14.796875 37.203125 14.796875 27.296875 
z
" id="DejaVuSans-100"/>
       <path d="M 48.78125 52.59375 
L 48.78125 44.1875 
Q 44.96875 46.296875 41.140625 47.34375 
Q 37.3125 48.390625 33.40625 48.390625 
Q 24.65625 48.390625 19.8125 42.84375 
Q 14.984375 37.3125 14.984375 27.296875 
Q 14.984375 17.28125 19.8125 11.734375 
Q 24.65625 6.203125 33.40625 6.203125 
Q 37.3125 6.203125 41.140625 7.25 
Q 44.96875 8.296875 48.78125 10.40625 
L 48.78125 2.09375 
Q 45.015625 0.34375 40.984375 -0.53125 
Q 36.96875 -1.421875 32.421875 -1.421875 
Q 20.0625 -1.421875 12.78125 6.34375 
Q 5.515625 14.109375 5.515625 27.296875 
Q 5.515625 40.671875 12.859375 48.328125 
Q 20.21875 56 33.015625 56 
Q 37.15625 56 41.109375 55.140625 
Q 45.0625 54.296875 48.78125 52.59375 
z
" id="DejaVuSans-99"/>
       <path d="M 56.203125 29.59375 
L 56.203125 25.203125 
L 14.890625 25.203125 
Q 15.484375 15.921875 20.484375 11.0625 
Q 25.484375 6.203125 34.421875 6.203125 
Q 39.59375 6.203125 44.453125 7.46875 
Q 49.3125 8.734375 54.109375 11.28125 
L 54.109375 2.78125 
Q 49.265625 0.734375 44.1875 -0.34375 
Q 39.109375 -1.421875 33.890625 -1.421875 
Q 20.796875 -1.421875 13.15625 6.1875 
Q 5.515625 13.8125 5.515625 26.8125 
Q 5.515625 40.234375 12.765625 48.109375 
Q 20.015625 56 32.328125 56 
Q 43.359375 56 49.78125 48.890625 
Q 56.203125 41.796875 56.203125 29.59375 
z
M 47.21875 32.234375 
Q 47.125 39.59375 43.09375 43.984375 
Q 39.0625 48.390625 32.421875 48.390625 
Q 24.90625 48.390625 20.390625 44.140625 
Q 15.875 39.890625 15.1875 32.171875 
z
" id="DejaVuSans-101"/>
       <path d="M 44.28125 53.078125 
L 44.28125 44.578125 
Q 40.484375 46.53125 36.375 47.5 
Q 32.28125 48.484375 27.875 48.484375 
Q 21.1875 48.484375 17.84375 46.4375 
Q 14.5 44.390625 14.5 40.28125 
Q 14.5 37.15625 16.890625 35.375 
Q 19.28125 33.59375 26.515625 31.984375 
L 29.59375 31.296875 
Q 39.15625 29.25 43.1875 25.515625 
Q 47.21875 21.78125 47.21875 15.09375 
Q 47.21875 7.46875 41.1875 3.015625 
Q 35.15625 -1.421875 24.609375 -1.421875 
Q 20.21875 -1.421875 15.453125 -0.5625 
Q 10.6875 0.296875 5.421875 2 
L 5.421875 11.28125 
Q 10.40625 8.6875 15.234375 7.390625 
Q 20.0625 6.109375 24.8125 6.109375 
Q 31.15625 6.109375 34.5625 8.28125 
Q 37.984375 10.453125 37.984375 14.40625 
Q 37.984375 18.0625 35.515625 20.015625 
Q 33.0625 21.96875 24.703125 23.78125 
L 21.578125 24.515625 
Q 13.234375 26.265625 9.515625 29.90625 
Q 5.8125 33.546875 5.8125 39.890625 
Q 5.8125 47.609375 11.28125 51.796875 
Q 16.75 56 26.8125 56 
Q 31.78125 56 36.171875 55.265625 
Q 40.578125 54.546875 44.28125 53.078125 
z
" id="DejaVuSans-115"/>
       <path d="M 5.5 -0.203125 
L 6.796875 4.703125 
Q 18.203125 5.5 26.140625 11.25 
Q 34.09375 17 37.59375 27.5 
Q 31.796875 23.09375 23.90625 23.09375 
Q 15.296875 23.09375 9.046875 28.890625 
Q 2.796875 34.703125 2.796875 44.203125 
Q 2.796875 53.90625 8.84375 60.75 
Q 14.90625 67.59375 24.203125 67.59375 
Q 30.09375 67.59375 34.5 65.34375 
Q 38.90625 63.09375 41.5 59.09375 
Q 44.09375 55.09375 45.34375 50.25 
Q 46.59375 45.40625 46.59375 39.796875 
Q 46.59375 31.40625 43.546875 23.203125 
Q 40.5 15 35.5 10.09375 
Q 28.796875 3.59375 22.84375 1.296875 
Q 16.90625 -1 5.703125 -2.09375 
z
M 38.59375 42.203125 
Q 38.5 50.296875 34.546875 55.390625 
Q 30.59375 60.5 23.90625 60.5 
Q 18.40625 60.5 14.59375 56.296875 
Q 10.796875 52.09375 10.796875 45.59375 
Q 10.796875 38.40625 14.890625 34.34375 
Q 19 30.296875 24.703125 30.296875 
Q 29.90625 30.296875 33.796875 33.34375 
Q 37.703125 36.40625 38.59375 42.203125 
z
" id="STIXGeneral-Regular-120811"/>
       <path d="M 9.078125 75.984375 
L 18.109375 75.984375 
L 18.109375 31.109375 
L 44.921875 54.6875 
L 56.390625 54.6875 
L 27.390625 29.109375 
L 57.625 0 
L 45.90625 0 
L 18.109375 26.703125 
L 18.109375 0 
L 9.078125 0 
z
" id="DejaVuSans-107"/>
       <path d="M 45.40625 27.984375 
Q 45.40625 37.75 41.375 43.109375 
Q 37.359375 48.484375 30.078125 48.484375 
Q 22.859375 48.484375 18.828125 43.109375 
Q 14.796875 37.75 14.796875 27.984375 
Q 14.796875 18.265625 18.828125 12.890625 
Q 22.859375 7.515625 30.078125 7.515625 
Q 37.359375 7.515625 41.375 12.890625 
Q 45.40625 18.265625 45.40625 27.984375 
z
M 54.390625 6.78125 
Q 54.390625 -7.171875 48.1875 -13.984375 
Q 42 -20.796875 29.203125 -20.796875 
Q 24.46875 -20.796875 20.265625 -20.09375 
Q 16.0625 -19.390625 12.109375 -17.921875 
L 12.109375 -9.1875 
Q 16.0625 -11.328125 19.921875 -12.34375 
Q 23.78125 -13.375 27.78125 -13.375 
Q 36.625 -13.375 41.015625 -8.765625 
Q 45.40625 -4.15625 45.40625 5.171875 
L 45.40625 9.625 
Q 42.625 4.78125 38.28125 2.390625 
Q 33.9375 0 27.875 0 
Q 17.828125 0 11.671875 7.65625 
Q 5.515625 15.328125 5.515625 27.984375 
Q 5.515625 40.671875 11.671875 48.328125 
Q 17.828125 56 27.875 56 
Q 33.9375 56 38.28125 53.609375 
Q 42.625 51.21875 45.40625 46.390625 
L 45.40625 54.6875 
L 54.390625 54.6875 
z
" id="DejaVuSans-103"/>
      </defs>
      <use transform="translate(0 0.446875)" xlink:href="#DejaVuSans-112"/>
      <use transform="translate(63.476562 0.446875)" xlink:href="#DejaVuSans-114"/>
      <use transform="translate(104.589844 0.446875)" xlink:href="#DejaVuSans-111"/>
      <use transform="translate(165.771484 0.446875)" xlink:href="#DejaVuSans-100"/>
      <use transform="translate(229.248047 0.446875)" xlink:href="#DejaVuSans-117"/>
      <use transform="translate(292.626953 0.446875)" xlink:href="#DejaVuSans-99"/>
      <use transform="translate(347.607422 0.446875)" xlink:href="#DejaVuSans-101"/>
      <use transform="translate(409.130859 0.446875)" xlink:href="#DejaVuSans-100"/>
      <use transform="translate(472.607422 0.446875)" xlink:href="#DejaVuSans-32"/>
      <use transform="translate(504.394531 0.446875)" xlink:href="#DejaVuSans-109"/>
      <use transform="translate(601.806641 0.446875)" xlink:href="#DejaVuSans-97"/>
      <use transform="translate(663.085938 0.446875)" xlink:href="#DejaVuSans-115"/>
      <use transform="translate(715.185547 0.446875)" xlink:href="#DejaVuSans-115"/>
      <use transform="translate(767.285156 0.446875)" xlink:href="#DejaVuSans-32"/>
      <use transform="translate(799.072266 0.446875)" xlink:href="#DejaVuSans-91"/>
      <use transform="translate(838.085938 0.446875)" xlink:href="#DejaVuSans-49"/>
      <use transform="translate(901.708984 0.446875)" xlink:href="#DejaVuSans-48"/>
      <use transform="translate(966.124727 36.684375)scale(0.7)" xlink:href="#STIXGeneral-Regular-120811"/>
      <use transform="translate(1003.38956 0.446875)" xlink:href="#DejaVuSans-32"/>
      <use transform="translate(1035.176669 0.446875)" xlink:href="#DejaVuSans-107"/>
      <use transform="translate(1093.086825 0.446875)" xlink:href="#DejaVuSans-103"/>
      <use transform="translate(1156.563388 0.446875)" xlink:href="#DejaVuSans-93"/>
     </g>
    </g>
   </g>
   <g id="PolyCollection_1">
    <defs>
     <path d="M 32.4525 -34.454898 
L 32.4525 -26.31375 
L 33.233278 -26.31375 
L 34.001337 -26.31375 
L 34.767399 -26.31375 
L 35.540459 -26.31375 
L 36.327774 -26.31375 
L 37.13481 -26.31375 
L 37.965296 -26.31375 
L 38.821405 -26.31375 
L 39.704027 -26.31375 
L 40.613656 -26.31375 
L 41.551284 -26.31375 
L 42.519232 -26.31375 
L 43.521474 -26.31375 
L 44.562675 -26.31375 
L 45.645304 -26.31375 
L 46.770744 -26.31375 
L 47.935659 -26.31375 
L 49.131687 -26.31375 
L 50.347388 -26.31375 
L 51.573721 -26.31375 
L 52.80894 -26.31375 
L 54.053044 -26.31375 
L 55.301078 -26.31375 
L 56.54773 -26.31375 
L 57.789942 -26.31375 
L 59.02495 -26.31375 
L 60.255249 -26.31375 
L 61.489854 -26.31375 
L 62.74142 -26.31375 
L 64.019545 -26.31375 
L 65.324085 -26.31375 
L 66.653196 -26.31375 
L 68.012267 -26.31375 
L 69.407441 -26.31375 
L 70.841126 -26.31375 
L 72.316746 -26.31375 
L 73.8277 -26.31375 
L 75.353728 -26.31375 
L 76.86756 -26.31375 
L 78.349042 -26.31375 
L 79.791224 -26.31375 
L 81.197719 -26.31375 
L 82.572211 -26.31375 
L 83.922581 -26.31375 
L 85.255376 -26.31375 
L 86.570696 -26.31375 
L 87.868125 -26.31375 
L 89.153706 -26.31375 
L 90.435041 -26.31375 
L 91.718319 -26.31375 
L 93.005959 -26.31375 
L 94.299056 -26.31375 
L 95.600724 -26.31375 
L 96.913929 -26.31375 
L 98.24071 -26.31375 
L 99.582272 -26.31375 
L 100.938321 -26.31375 
L 102.307213 -26.31375 
L 103.68624 -26.31375 
L 105.072793 -26.31375 
L 106.466102 -26.31375 
L 107.864813 -26.31375 
L 109.264856 -26.31375 
L 110.661239 -26.31375 
L 112.049889 -26.31375 
L 113.428681 -26.31375 
L 114.796672 -26.31375 
L 116.1525 -26.31375 
L 116.1525 -68.260935 
L 116.1525 -68.260935 
L 114.796672 -66.81766 
L 113.428681 -65.304353 
L 112.049889 -66.183019 
L 110.661239 -65.62711 
L 109.264856 -65.346111 
L 107.864813 -64.868064 
L 106.466102 -66.1691 
L 105.072793 -64.212979 
L 103.68624 -65.050757 
L 102.307213 -65.24128 
L 100.938321 -65.671479 
L 99.582272 -65.544899 
L 98.24071 -66.54101 
L 96.913929 -66.704564 
L 95.600724 -64.72191 
L 94.299056 -65.930294 
L 93.005959 -65.806758 
L 91.718319 -67.012532 
L 90.435041 -66.213033 
L 89.153706 -63.659246 
L 87.868125 -66.845934 
L 86.570696 -67.122148 
L 85.255376 -66.441399 
L 83.922581 -66.388331 
L 82.572211 -63.975479 
L 81.197719 -63.374767 
L 79.791224 -62.726206 
L 78.349042 -63.141181 
L 76.86756 -64.733655 
L 75.353728 -64.521383 
L 73.8277 -63.009816 
L 72.316746 -62.746651 
L 70.841126 -60.351197 
L 69.407441 -59.663054 
L 68.012267 -57.224537 
L 66.653196 -57.234977 
L 65.324085 -56.50464 
L 64.019545 -55.549851 
L 62.74142 -55.235358 
L 61.489854 -55.036571 
L 60.255249 -54.112666 
L 59.02495 -54.693804 
L 57.789942 -53.221385 
L 56.54773 -53.434092 
L 55.301078 -52.05041 
L 54.053044 -51.814214 
L 52.80894 -53.632444 
L 51.573721 -53.646799 
L 50.347388 -51.020804 
L 49.131687 -51.631086 
L 47.935659 -50.180417 
L 46.770744 -48.726267 
L 45.645304 -47.045927 
L 44.562675 -46.619208 
L 43.521474 -44.623939 
L 42.519232 -44.167207 
L 41.551284 -42.718712 
L 40.613656 -41.070125 
L 39.704027 -40.054439 
L 38.821405 -39.011349 
L 37.965296 -38.754274 
L 37.13481 -38.692071 
L 36.327774 -37.951295 
L 35.540459 -37.346233 
L 34.767399 -36.499755 
L 34.001337 -36.307493 
L 33.233278 -35.519303 
L 32.4525 -34.454898 
z
" id="m4b62e6256e" style="stroke:#ffffff;stroke-width:0.25;"/>
    </defs>
    <g clip-path="url(#p5e520b0da6)">
     <use style="fill:#7aa974;stroke:#ffffff;stroke-width:0.25;" x="0" xlink:href="#m4b62e6256e" y="115.05375"/>
    </g>
   </g>
   <g id="PolyCollection_2">
    <defs>
     <path d="M 32.4525 -34.717628 
L 32.4525 -34.454898 
L 33.233278 -35.519303 
L 34.001337 -36.307493 
L 34.767399 -36.499755 
L 35.540459 -37.346233 
L 36.327774 -37.951295 
L 37.13481 -38.692071 
L 37.965296 -38.754274 
L 38.821405 -39.011349 
L 39.704027 -40.054439 
L 40.613656 -41.070125 
L 41.551284 -42.718712 
L 42.519232 -44.167207 
L 43.521474 -44.623939 
L 44.562675 -46.619208 
L 45.645304 -47.045927 
L 46.770744 -48.726267 
L 47.935659 -50.180417 
L 49.131687 -51.631086 
L 50.347388 -51.020804 
L 51.573721 -53.646799 
L 52.80894 -53.632444 
L 54.053044 -51.814214 
L 55.301078 -52.05041 
L 56.54773 -53.434092 
L 57.789942 -53.221385 
L 59.02495 -54.693804 
L 60.255249 -54.112666 
L 61.489854 -55.036571 
L 62.74142 -55.235358 
L 64.019545 -55.549851 
L 65.324085 -56.50464 
L 66.653196 -57.234977 
L 68.012267 -57.224537 
L 69.407441 -59.663054 
L 70.841126 -60.351197 
L 72.316746 -62.746651 
L 73.8277 -63.009816 
L 75.353728 -64.521383 
L 76.86756 -64.733655 
L 78.349042 -63.141181 
L 79.791224 -62.726206 
L 81.197719 -63.374767 
L 82.572211 -63.975479 
L 83.922581 -66.388331 
L 85.255376 -66.441399 
L 86.570696 -67.122148 
L 87.868125 -66.845934 
L 89.153706 -63.659246 
L 90.435041 -66.213033 
L 91.718319 -67.012532 
L 93.005959 -65.806758 
L 94.299056 -65.930294 
L 95.600724 -64.72191 
L 96.913929 -66.704564 
L 98.24071 -66.54101 
L 99.582272 -65.544899 
L 100.938321 -65.671479 
L 102.307213 -65.24128 
L 103.68624 -65.050757 
L 105.072793 -64.212979 
L 106.466102 -66.1691 
L 107.864813 -64.868064 
L 109.264856 -65.346111 
L 110.661239 -65.62711 
L 112.049889 -66.183019 
L 113.428681 -65.304353 
L 114.796672 -66.81766 
L 116.1525 -68.260935 
L 116.1525 -103.970893 
L 116.1525 -103.970893 
L 114.796672 -101.418411 
L 113.428681 -98.582319 
L 112.049889 -97.837193 
L 110.661239 -96.296047 
L 109.264856 -94.469117 
L 107.864813 -92.480808 
L 106.466102 -92.176319 
L 105.072793 -89.330658 
L 103.68624 -89.043134 
L 102.307213 -88.258424 
L 100.938321 -87.394982 
L 99.582272 -86.100907 
L 98.24071 -85.809903 
L 96.913929 -84.934281 
L 95.600724 -81.648417 
L 94.299056 -81.931591 
L 93.005959 -80.863272 
L 91.718319 -81.113823 
L 90.435041 -79.580506 
L 89.153706 -76.018428 
L 87.868125 -78.730549 
L 86.570696 -78.667041 
L 85.255376 -77.047163 
L 83.922581 -75.453384 
L 82.572211 -71.717747 
L 81.197719 -70.07786 
L 79.791224 -68.696788 
L 78.349042 -68.832938 
L 76.86756 -70.092214 
L 75.353728 -69.602858 
L 73.8277 -67.60585 
L 72.316746 -66.732838 
L 70.841126 -63.840634 
L 69.407441 -62.684013 
L 68.012267 -59.931438 
L 66.653196 -59.702202 
L 65.324085 -58.785257 
L 64.019545 -57.596883 
L 62.74142 -57.123621 
L 61.489854 -56.865241 
L 60.255249 -55.905667 
L 59.02495 -56.316292 
L 57.789942 -54.79472 
L 56.54773 -54.851268 
L 55.301078 -53.390594 
L 54.053044 -53.099155 
L 52.80894 -54.823864 
L 51.573721 -54.763401 
L 50.347388 -52.0478 
L 49.131687 -52.623718 
L 47.935659 -51.113021 
L 46.770744 -49.632773 
L 45.645304 -47.925028 
L 44.562675 -47.422622 
L 43.521474 -45.39038 
L 42.519232 -44.854045 
L 41.551284 -43.381627 
L 40.613656 -41.790023 
L 39.704027 -40.773032 
L 38.821405 -39.672089 
L 37.965296 -39.433283 
L 37.13481 -39.217966 
L 36.327774 -38.481104 
L 35.540459 -37.8208 
L 34.767399 -36.918209 
L 34.001337 -36.665049 
L 33.233278 -35.836406 
L 32.4525 -34.717628 
z
" id="m6db2bbf4fb" style="stroke:#ffffff;stroke-width:0.25;"/>
    </defs>
    <g clip-path="url(#p5e520b0da6)">
     <use style="fill:#738fc1;stroke:#ffffff;stroke-width:0.25;" x="0" xlink:href="#m6db2bbf4fb" y="115.05375"/>
    </g>
   </g>
   <g id="patch_3">
    <path d="M 32.4525 88.74 
L 32.4525 7.2 
" style="fill:none;stroke:#ffffff;stroke-linecap:square;stroke-linejoin:miter;stroke-width:0.8;"/>
   </g>
   <g id="patch_4">
    <path d="M 116.1525 88.74 
L 116.1525 7.2 
" style="fill:none;stroke:#ffffff;stroke-linecap:square;stroke-linejoin:miter;stroke-width:0.8;"/>
   </g>
   <g id="patch_5">
    <path d="M 32.4525 88.74 
L 116.1525 88.74 
" style="fill:none;stroke:#ffffff;stroke-linecap:square;stroke-linejoin:miter;stroke-width:0.8;"/>
   </g>
   <g id="patch_6">
    <path d="M 32.4525 7.2 
L 116.1525 7.2 
" style="fill:none;stroke:#ffffff;stroke-linecap:square;stroke-linejoin:miter;stroke-width:0.8;"/>
   </g>
  </g>
 </g>
 <defs>
  <clipPath id="p5e520b0da6">
   <rect height="81.54" width="83.7" x="32.4525" y="7.2"/>
  </clipPath>
 </defs>
</svg>
