<?xml version="1.0" encoding="utf-8" standalone="no"?>
<!DOCTYPE svg PUBLIC "-//W3C//DTD SVG 1.1//EN"
  "http://www.w3.org/Graphics/SVG/1.1/DTD/svg11.dtd">
<!-- Created with matplotlib (https://matplotlib.org/) -->
<svg height="288pt" version="1.1" viewBox="0 0 288 288" width="288pt" xmlns="http://www.w3.org/2000/svg" xmlns:xlink="http://www.w3.org/1999/xlink">
 <defs>
  <style type="text/css">
*{stroke-linecap:butt;stroke-linejoin:round;}
  </style>
 </defs>
 <g id="figure_1">
  <g id="patch_1">
   <path d="M 0 288 
L 288 288 
L 288 0 
L 0 0 
z
" style="fill:#ffffff;"/>
  </g>
  <g id="axes_1">
   <g id="patch_2">
    <path d="M 36 252 
L 259.2 252 
L 259.2 34.56 
L 36 34.56 
z
" style="fill:#e3dcd0;"/>
   </g>
   <g id="matplotlib.axis_1">
    <g id="xtick_1">
     <g id="text_1">
      <!-- 3 -->
      <defs>
       <path d="M 40.578125 39.3125 
Q 47.65625 37.796875 51.625 33 
Q 55.609375 28.21875 55.609375 21.1875 
Q 55.609375 10.40625 48.1875 4.484375 
Q 40.765625 -1.421875 27.09375 -1.421875 
Q 22.515625 -1.421875 17.65625 -0.515625 
Q 12.796875 0.390625 7.625 2.203125 
L 7.625 11.71875 
Q 11.71875 9.328125 16.59375 8.109375 
Q 21.484375 6.890625 26.8125 6.890625 
Q 36.078125 6.890625 40.9375 10.546875 
Q 45.796875 14.203125 45.796875 21.1875 
Q 45.796875 27.640625 41.28125 31.265625 
Q 36.765625 34.90625 28.71875 34.90625 
L 20.21875 34.90625 
L 20.21875 43.015625 
L 29.109375 43.015625 
Q 36.375 43.015625 40.234375 45.921875 
Q 44.09375 48.828125 44.09375 54.296875 
Q 44.09375 59.90625 40.109375 62.90625 
Q 36.140625 65.921875 28.71875 65.921875 
Q 24.65625 65.921875 20.015625 65.03125 
Q 15.375 64.15625 9.8125 62.3125 
L 9.8125 71.09375 
Q 15.4375 72.65625 20.34375 73.4375 
Q 25.25 74.21875 29.59375 74.21875 
Q 40.828125 74.21875 47.359375 69.109375 
Q 53.90625 64.015625 53.90625 55.328125 
Q 53.90625 49.265625 50.4375 45.09375 
Q 46.96875 40.921875 40.578125 39.3125 
z
" id="DejaVuSans-51"/>
      </defs>
      <g transform="translate(42.029047 261.57875)scale(0.08 -0.08)">
       <use xlink:href="#DejaVuSans-51"/>
      </g>
     </g>
    </g>
    <g id="xtick_2">
     <g id="text_2">
      <!-- 5 -->
      <defs>
       <path d="M 10.796875 72.90625 
L 49.515625 72.90625 
L 49.515625 64.59375 
L 19.828125 64.59375 
L 19.828125 46.734375 
Q 21.96875 47.46875 24.109375 47.828125 
Q 26.265625 48.1875 28.421875 48.1875 
Q 40.625 48.1875 47.75 41.5 
Q 54.890625 34.8125 54.890625 23.390625 
Q 54.890625 11.625 47.5625 5.09375 
Q 40.234375 -1.421875 26.90625 -1.421875 
Q 22.3125 -1.421875 17.546875 -0.640625 
Q 12.796875 0.140625 7.71875 1.703125 
L 7.71875 11.625 
Q 12.109375 9.234375 16.796875 8.0625 
Q 21.484375 6.890625 26.703125 6.890625 
Q 35.15625 6.890625 40.078125 11.328125 
Q 45.015625 15.765625 45.015625 23.390625 
Q 45.015625 31 40.078125 35.4375 
Q 35.15625 39.890625 26.703125 39.890625 
Q 22.75 39.890625 18.8125 39.015625 
Q 14.890625 38.140625 10.796875 36.28125 
z
" id="DejaVuSans-53"/>
      </defs>
      <g transform="translate(131.9529 261.57875)scale(0.08 -0.08)">
       <use xlink:href="#DejaVuSans-53"/>
      </g>
     </g>
    </g>
    <g id="xtick_3">
     <g id="text_3">
      <!-- 7 -->
      <defs>
       <path d="M 8.203125 72.90625 
L 55.078125 72.90625 
L 55.078125 68.703125 
L 28.609375 0 
L 18.3125 0 
L 43.21875 64.59375 
L 8.203125 64.59375 
z
" id="DejaVuSans-55"/>
      </defs>
      <g transform="translate(221.876753 261.57875)scale(0.08 -0.08)">
       <use xlink:href="#DejaVuSans-55"/>
      </g>
     </g>
    </g>
    <g id="text_4">
     <!-- human population [billion] -->
     <defs>
      <path d="M 54.890625 33.015625 
L 54.890625 0 
L 45.90625 0 
L 45.90625 32.71875 
Q 45.90625 40.484375 42.875 44.328125 
Q 39.84375 48.1875 33.796875 48.1875 
Q 26.515625 48.1875 22.3125 43.546875 
Q 18.109375 38.921875 18.109375 30.90625 
L 18.109375 0 
L 9.078125 0 
L 9.078125 75.984375 
L 18.109375 75.984375 
L 18.109375 46.1875 
Q 21.34375 51.125 25.703125 53.5625 
Q 30.078125 56 35.796875 56 
Q 45.21875 56 50.046875 50.171875 
Q 54.890625 44.34375 54.890625 33.015625 
z
" id="DejaVuSans-104"/>
      <path d="M 8.5 21.578125 
L 8.5 54.6875 
L 17.484375 54.6875 
L 17.484375 21.921875 
Q 17.484375 14.15625 20.5 10.265625 
Q 23.53125 6.390625 29.59375 6.390625 
Q 36.859375 6.390625 41.078125 11.03125 
Q 45.3125 15.671875 45.3125 23.6875 
L 45.3125 54.6875 
L 54.296875 54.6875 
L 54.296875 0 
L 45.3125 0 
L 45.3125 8.40625 
Q 42.046875 3.421875 37.71875 1 
Q 33.40625 -1.421875 27.6875 -1.421875 
Q 18.265625 -1.421875 13.375 4.4375 
Q 8.5 10.296875 8.5 21.578125 
z
M 31.109375 56 
z
" id="DejaVuSans-117"/>
      <path d="M 52 44.1875 
Q 55.375 50.25 60.0625 53.125 
Q 64.75 56 71.09375 56 
Q 79.640625 56 84.28125 50.015625 
Q 88.921875 44.046875 88.921875 33.015625 
L 88.921875 0 
L 79.890625 0 
L 79.890625 32.71875 
Q 79.890625 40.578125 77.09375 44.375 
Q 74.3125 48.1875 68.609375 48.1875 
Q 61.625 48.1875 57.5625 43.546875 
Q 53.515625 38.921875 53.515625 30.90625 
L 53.515625 0 
L 44.484375 0 
L 44.484375 32.71875 
Q 44.484375 40.625 41.703125 44.40625 
Q 38.921875 48.1875 33.109375 48.1875 
Q 26.21875 48.1875 22.15625 43.53125 
Q 18.109375 38.875 18.109375 30.90625 
L 18.109375 0 
L 9.078125 0 
L 9.078125 54.6875 
L 18.109375 54.6875 
L 18.109375 46.1875 
Q 21.1875 51.21875 25.484375 53.609375 
Q 29.78125 56 35.6875 56 
Q 41.65625 56 45.828125 52.96875 
Q 50 49.953125 52 44.1875 
z
" id="DejaVuSans-109"/>
      <path d="M 34.28125 27.484375 
Q 23.390625 27.484375 19.1875 25 
Q 14.984375 22.515625 14.984375 16.5 
Q 14.984375 11.71875 18.140625 8.90625 
Q 21.296875 6.109375 26.703125 6.109375 
Q 34.1875 6.109375 38.703125 11.40625 
Q 43.21875 16.703125 43.21875 25.484375 
L 43.21875 27.484375 
z
M 52.203125 31.203125 
L 52.203125 0 
L 43.21875 0 
L 43.21875 8.296875 
Q 40.140625 3.328125 35.546875 0.953125 
Q 30.953125 -1.421875 24.3125 -1.421875 
Q 15.921875 -1.421875 10.953125 3.296875 
Q 6 8.015625 6 15.921875 
Q 6 25.140625 12.171875 29.828125 
Q 18.359375 34.515625 30.609375 34.515625 
L 43.21875 34.515625 
L 43.21875 35.40625 
Q 43.21875 41.609375 39.140625 45 
Q 35.0625 48.390625 27.6875 48.390625 
Q 23 48.390625 18.546875 47.265625 
Q 14.109375 46.140625 10.015625 43.890625 
L 10.015625 52.203125 
Q 14.9375 54.109375 19.578125 55.046875 
Q 24.21875 56 28.609375 56 
Q 40.484375 56 46.34375 49.84375 
Q 52.203125 43.703125 52.203125 31.203125 
z
" id="DejaVuSans-97"/>
      <path d="M 54.890625 33.015625 
L 54.890625 0 
L 45.90625 0 
L 45.90625 32.71875 
Q 45.90625 40.484375 42.875 44.328125 
Q 39.84375 48.1875 33.796875 48.1875 
Q 26.515625 48.1875 22.3125 43.546875 
Q 18.109375 38.921875 18.109375 30.90625 
L 18.109375 0 
L 9.078125 0 
L 9.078125 54.6875 
L 18.109375 54.6875 
L 18.109375 46.1875 
Q 21.34375 51.125 25.703125 53.5625 
Q 30.078125 56 35.796875 56 
Q 45.21875 56 50.046875 50.171875 
Q 54.890625 44.34375 54.890625 33.015625 
z
" id="DejaVuSans-110"/>
      <path id="DejaVuSans-32"/>
      <path d="M 18.109375 8.203125 
L 18.109375 -20.796875 
L 9.078125 -20.796875 
L 9.078125 54.6875 
L 18.109375 54.6875 
L 18.109375 46.390625 
Q 20.953125 51.265625 25.265625 53.625 
Q 29.59375 56 35.59375 56 
Q 45.5625 56 51.78125 48.09375 
Q 58.015625 40.1875 58.015625 27.296875 
Q 58.015625 14.40625 51.78125 6.484375 
Q 45.5625 -1.421875 35.59375 -1.421875 
Q 29.59375 -1.421875 25.265625 0.953125 
Q 20.953125 3.328125 18.109375 8.203125 
z
M 48.6875 27.296875 
Q 48.6875 37.203125 44.609375 42.84375 
Q 40.53125 48.484375 33.40625 48.484375 
Q 26.265625 48.484375 22.1875 42.84375 
Q 18.109375 37.203125 18.109375 27.296875 
Q 18.109375 17.390625 22.1875 11.75 
Q 26.265625 6.109375 33.40625 6.109375 
Q 40.53125 6.109375 44.609375 11.75 
Q 48.6875 17.390625 48.6875 27.296875 
z
" id="DejaVuSans-112"/>
      <path d="M 30.609375 48.390625 
Q 23.390625 48.390625 19.1875 42.75 
Q 14.984375 37.109375 14.984375 27.296875 
Q 14.984375 17.484375 19.15625 11.84375 
Q 23.34375 6.203125 30.609375 6.203125 
Q 37.796875 6.203125 41.984375 11.859375 
Q 46.1875 17.53125 46.1875 27.296875 
Q 46.1875 37.015625 41.984375 42.703125 
Q 37.796875 48.390625 30.609375 48.390625 
z
M 30.609375 56 
Q 42.328125 56 49.015625 48.375 
Q 55.71875 40.765625 55.71875 27.296875 
Q 55.71875 13.875 49.015625 6.21875 
Q 42.328125 -1.421875 30.609375 -1.421875 
Q 18.84375 -1.421875 12.171875 6.21875 
Q 5.515625 13.875 5.515625 27.296875 
Q 5.515625 40.765625 12.171875 48.375 
Q 18.84375 56 30.609375 56 
z
" id="DejaVuSans-111"/>
      <path d="M 9.421875 75.984375 
L 18.40625 75.984375 
L 18.40625 0 
L 9.421875 0 
z
" id="DejaVuSans-108"/>
      <path d="M 18.3125 70.21875 
L 18.3125 54.6875 
L 36.8125 54.6875 
L 36.8125 47.703125 
L 18.3125 47.703125 
L 18.3125 18.015625 
Q 18.3125 11.328125 20.140625 9.421875 
Q 21.96875 7.515625 27.59375 7.515625 
L 36.8125 7.515625 
L 36.8125 0 
L 27.59375 0 
Q 17.1875 0 13.234375 3.875 
Q 9.28125 7.765625 9.28125 18.015625 
L 9.28125 47.703125 
L 2.6875 47.703125 
L 2.6875 54.6875 
L 9.28125 54.6875 
L 9.28125 70.21875 
z
" id="DejaVuSans-116"/>
      <path d="M 9.421875 54.6875 
L 18.40625 54.6875 
L 18.40625 0 
L 9.421875 0 
z
M 9.421875 75.984375 
L 18.40625 75.984375 
L 18.40625 64.59375 
L 9.421875 64.59375 
z
" id="DejaVuSans-105"/>
      <path d="M 8.59375 75.984375 
L 29.296875 75.984375 
L 29.296875 69 
L 17.578125 69 
L 17.578125 -6.203125 
L 29.296875 -6.203125 
L 29.296875 -13.1875 
L 8.59375 -13.1875 
z
" id="DejaVuSans-91"/>
      <path d="M 48.6875 27.296875 
Q 48.6875 37.203125 44.609375 42.84375 
Q 40.53125 48.484375 33.40625 48.484375 
Q 26.265625 48.484375 22.1875 42.84375 
Q 18.109375 37.203125 18.109375 27.296875 
Q 18.109375 17.390625 22.1875 11.75 
Q 26.265625 6.109375 33.40625 6.109375 
Q 40.53125 6.109375 44.609375 11.75 
Q 48.6875 17.390625 48.6875 27.296875 
z
M 18.109375 46.390625 
Q 20.953125 51.265625 25.265625 53.625 
Q 29.59375 56 35.59375 56 
Q 45.5625 56 51.78125 48.09375 
Q 58.015625 40.1875 58.015625 27.296875 
Q 58.015625 14.40625 51.78125 6.484375 
Q 45.5625 -1.421875 35.59375 -1.421875 
Q 29.59375 -1.421875 25.265625 0.953125 
Q 20.953125 3.328125 18.109375 8.203125 
L 18.109375 0 
L 9.078125 0 
L 9.078125 75.984375 
L 18.109375 75.984375 
z
" id="DejaVuSans-98"/>
      <path d="M 30.421875 75.984375 
L 30.421875 -13.1875 
L 9.71875 -13.1875 
L 9.71875 -6.203125 
L 21.390625 -6.203125 
L 21.390625 69 
L 9.71875 69 
L 9.71875 75.984375 
z
" id="DejaVuSans-93"/>
     </defs>
     <g style="fill:#262626;" transform="translate(94.73125 273.32125)scale(0.08 -0.08)">
      <use xlink:href="#DejaVuSans-104"/>
      <use x="63.378906" xlink:href="#DejaVuSans-117"/>
      <use x="126.757812" xlink:href="#DejaVuSans-109"/>
      <use x="224.169922" xlink:href="#DejaVuSans-97"/>
      <use x="285.449219" xlink:href="#DejaVuSans-110"/>
      <use x="348.828125" xlink:href="#DejaVuSans-32"/>
      <use x="380.615234" xlink:href="#DejaVuSans-112"/>
      <use x="444.091797" xlink:href="#DejaVuSans-111"/>
      <use x="505.273438" xlink:href="#DejaVuSans-112"/>
      <use x="568.75" xlink:href="#DejaVuSans-117"/>
      <use x="632.128906" xlink:href="#DejaVuSans-108"/>
      <use x="659.912109" xlink:href="#DejaVuSans-97"/>
      <use x="721.191406" xlink:href="#DejaVuSans-116"/>
      <use x="760.400391" xlink:href="#DejaVuSans-105"/>
      <use x="788.183594" xlink:href="#DejaVuSans-111"/>
      <use x="849.365234" xlink:href="#DejaVuSans-110"/>
      <use x="912.744141" xlink:href="#DejaVuSans-32"/>
      <use x="944.53125" xlink:href="#DejaVuSans-91"/>
      <use x="983.544922" xlink:href="#DejaVuSans-98"/>
      <use x="1047.021484" xlink:href="#DejaVuSans-105"/>
      <use x="1074.804688" xlink:href="#DejaVuSans-108"/>
      <use x="1102.587891" xlink:href="#DejaVuSans-108"/>
      <use x="1130.371094" xlink:href="#DejaVuSans-105"/>
      <use x="1158.154297" xlink:href="#DejaVuSans-111"/>
      <use x="1219.335938" xlink:href="#DejaVuSans-110"/>
      <use x="1282.714844" xlink:href="#DejaVuSans-93"/>
     </g>
    </g>
   </g>
   <g id="matplotlib.axis_2">
    <g id="ytick_1">
     <g id="text_5">
      <!-- 20 -->
      <defs>
       <path d="M 19.1875 8.296875 
L 53.609375 8.296875 
L 53.609375 0 
L 7.328125 0 
L 7.328125 8.296875 
Q 12.9375 14.109375 22.625 23.890625 
Q 32.328125 33.6875 34.8125 36.53125 
Q 39.546875 41.84375 41.421875 45.53125 
Q 43.3125 49.21875 43.3125 52.78125 
Q 43.3125 58.59375 39.234375 62.25 
Q 35.15625 65.921875 28.609375 65.921875 
Q 23.96875 65.921875 18.8125 64.3125 
Q 13.671875 62.703125 7.8125 59.421875 
L 7.8125 69.390625 
Q 13.765625 71.78125 18.9375 73 
Q 24.125 74.21875 28.421875 74.21875 
Q 39.75 74.21875 46.484375 68.546875 
Q 53.21875 62.890625 53.21875 53.421875 
Q 53.21875 48.921875 51.53125 44.890625 
Q 49.859375 40.875 45.40625 35.40625 
Q 44.1875 33.984375 37.640625 27.21875 
Q 31.109375 20.453125 19.1875 8.296875 
z
" id="DejaVuSans-50"/>
       <path d="M 31.78125 66.40625 
Q 24.171875 66.40625 20.328125 58.90625 
Q 16.5 51.421875 16.5 36.375 
Q 16.5 21.390625 20.328125 13.890625 
Q 24.171875 6.390625 31.78125 6.390625 
Q 39.453125 6.390625 43.28125 13.890625 
Q 47.125 21.390625 47.125 36.375 
Q 47.125 51.421875 43.28125 58.90625 
Q 39.453125 66.40625 31.78125 66.40625 
z
M 31.78125 74.21875 
Q 44.046875 74.21875 50.515625 64.515625 
Q 56.984375 54.828125 56.984375 36.375 
Q 56.984375 17.96875 50.515625 8.265625 
Q 44.046875 -1.421875 31.78125 -1.421875 
Q 19.53125 -1.421875 13.0625 8.265625 
Q 6.59375 17.96875 6.59375 36.375 
Q 6.59375 54.828125 13.0625 64.515625 
Q 19.53125 74.21875 31.78125 74.21875 
z
" id="DejaVuSans-48"/>
      </defs>
      <g transform="translate(22.32 222.10412)scale(0.08 -0.08)">
       <use xlink:href="#DejaVuSans-50"/>
       <use x="63.623047" xlink:href="#DejaVuSans-48"/>
      </g>
     </g>
    </g>
    <g id="ytick_2">
     <g id="text_6">
      <!-- 40 -->
      <defs>
       <path d="M 37.796875 64.3125 
L 12.890625 25.390625 
L 37.796875 25.390625 
z
M 35.203125 72.90625 
L 47.609375 72.90625 
L 47.609375 25.390625 
L 58.015625 25.390625 
L 58.015625 17.1875 
L 47.609375 17.1875 
L 47.609375 0 
L 37.796875 0 
L 37.796875 17.1875 
L 4.890625 17.1875 
L 4.890625 26.703125 
z
" id="DejaVuSans-52"/>
      </defs>
      <g transform="translate(22.32 185.055827)scale(0.08 -0.08)">
       <use xlink:href="#DejaVuSans-52"/>
       <use x="63.623047" xlink:href="#DejaVuSans-48"/>
      </g>
     </g>
    </g>
    <g id="ytick_3">
     <g id="text_7">
      <!-- 60 -->
      <defs>
       <path d="M 33.015625 40.375 
Q 26.375 40.375 22.484375 35.828125 
Q 18.609375 31.296875 18.609375 23.390625 
Q 18.609375 15.53125 22.484375 10.953125 
Q 26.375 6.390625 33.015625 6.390625 
Q 39.65625 6.390625 43.53125 10.953125 
Q 47.40625 15.53125 47.40625 23.390625 
Q 47.40625 31.296875 43.53125 35.828125 
Q 39.65625 40.375 33.015625 40.375 
z
M 52.59375 71.296875 
L 52.59375 62.3125 
Q 48.875 64.0625 45.09375 64.984375 
Q 41.3125 65.921875 37.59375 65.921875 
Q 27.828125 65.921875 22.671875 59.328125 
Q 17.53125 52.734375 16.796875 39.40625 
Q 19.671875 43.65625 24.015625 45.921875 
Q 28.375 48.1875 33.59375 48.1875 
Q 44.578125 48.1875 50.953125 41.515625 
Q 57.328125 34.859375 57.328125 23.390625 
Q 57.328125 12.15625 50.6875 5.359375 
Q 44.046875 -1.421875 33.015625 -1.421875 
Q 20.359375 -1.421875 13.671875 8.265625 
Q 6.984375 17.96875 6.984375 36.375 
Q 6.984375 53.65625 15.1875 63.9375 
Q 23.390625 74.21875 37.203125 74.21875 
Q 40.921875 74.21875 44.703125 73.484375 
Q 48.484375 72.75 52.59375 71.296875 
z
" id="DejaVuSans-54"/>
      </defs>
      <g transform="translate(22.32 148.007534)scale(0.08 -0.08)">
       <use xlink:href="#DejaVuSans-54"/>
       <use x="63.623047" xlink:href="#DejaVuSans-48"/>
      </g>
     </g>
    </g>
    <g id="ytick_4">
     <g id="text_8">
      <!-- 80 -->
      <defs>
       <path d="M 31.78125 34.625 
Q 24.75 34.625 20.71875 30.859375 
Q 16.703125 27.09375 16.703125 20.515625 
Q 16.703125 13.921875 20.71875 10.15625 
Q 24.75 6.390625 31.78125 6.390625 
Q 38.8125 6.390625 42.859375 10.171875 
Q 46.921875 13.96875 46.921875 20.515625 
Q 46.921875 27.09375 42.890625 30.859375 
Q 38.875 34.625 31.78125 34.625 
z
M 21.921875 38.8125 
Q 15.578125 40.375 12.03125 44.71875 
Q 8.5 49.078125 8.5 55.328125 
Q 8.5 64.0625 14.71875 69.140625 
Q 20.953125 74.21875 31.78125 74.21875 
Q 42.671875 74.21875 48.875 69.140625 
Q 55.078125 64.0625 55.078125 55.328125 
Q 55.078125 49.078125 51.53125 44.71875 
Q 48 40.375 41.703125 38.8125 
Q 48.828125 37.15625 52.796875 32.3125 
Q 56.78125 27.484375 56.78125 20.515625 
Q 56.78125 9.90625 50.3125 4.234375 
Q 43.84375 -1.421875 31.78125 -1.421875 
Q 19.734375 -1.421875 13.25 4.234375 
Q 6.78125 9.90625 6.78125 20.515625 
Q 6.78125 27.484375 10.78125 32.3125 
Q 14.796875 37.15625 21.921875 38.8125 
z
M 18.3125 54.390625 
Q 18.3125 48.734375 21.84375 45.5625 
Q 25.390625 42.390625 31.78125 42.390625 
Q 38.140625 42.390625 41.71875 45.5625 
Q 45.3125 48.734375 45.3125 54.390625 
Q 45.3125 60.0625 41.71875 63.234375 
Q 38.140625 66.40625 31.78125 66.40625 
Q 25.390625 66.40625 21.84375 63.234375 
Q 18.3125 60.0625 18.3125 54.390625 
z
" id="DejaVuSans-56"/>
      </defs>
      <g transform="translate(22.32 110.959241)scale(0.08 -0.08)">
       <use xlink:href="#DejaVuSans-56"/>
       <use x="63.623047" xlink:href="#DejaVuSans-48"/>
      </g>
     </g>
    </g>
    <g id="ytick_5">
     <g id="text_9">
      <!-- 100 -->
      <defs>
       <path d="M 12.40625 8.296875 
L 28.515625 8.296875 
L 28.515625 63.921875 
L 10.984375 60.40625 
L 10.984375 69.390625 
L 28.421875 72.90625 
L 38.28125 72.90625 
L 38.28125 8.296875 
L 54.390625 8.296875 
L 54.390625 0 
L 12.40625 0 
z
" id="DejaVuSans-49"/>
      </defs>
      <g transform="translate(17.23 73.910948)scale(0.08 -0.08)">
       <use xlink:href="#DejaVuSans-49"/>
       <use x="63.623047" xlink:href="#DejaVuSans-48"/>
       <use x="127.246094" xlink:href="#DejaVuSans-48"/>
      </g>
     </g>
    </g>
    <g id="text_10">
     <!-- production mass [10$^{9}$ kg / yr] -->
     <defs>
      <path d="M 41.109375 46.296875 
Q 39.59375 47.171875 37.8125 47.578125 
Q 36.03125 48 33.890625 48 
Q 26.265625 48 22.1875 43.046875 
Q 18.109375 38.09375 18.109375 28.8125 
L 18.109375 0 
L 9.078125 0 
L 9.078125 54.6875 
L 18.109375 54.6875 
L 18.109375 46.1875 
Q 20.953125 51.171875 25.484375 53.578125 
Q 30.03125 56 36.53125 56 
Q 37.453125 56 38.578125 55.875 
Q 39.703125 55.765625 41.0625 55.515625 
z
" id="DejaVuSans-114"/>
      <path d="M 45.40625 46.390625 
L 45.40625 75.984375 
L 54.390625 75.984375 
L 54.390625 0 
L 45.40625 0 
L 45.40625 8.203125 
Q 42.578125 3.328125 38.25 0.953125 
Q 33.9375 -1.421875 27.875 -1.421875 
Q 17.96875 -1.421875 11.734375 6.484375 
Q 5.515625 14.40625 5.515625 27.296875 
Q 5.515625 40.1875 11.734375 48.09375 
Q 17.96875 56 27.875 56 
Q 33.9375 56 38.25 53.625 
Q 42.578125 51.265625 45.40625 46.390625 
z
M 14.796875 27.296875 
Q 14.796875 17.390625 18.875 11.75 
Q 22.953125 6.109375 30.078125 6.109375 
Q 37.203125 6.109375 41.296875 11.75 
Q 45.40625 17.390625 45.40625 27.296875 
Q 45.40625 37.203125 41.296875 42.84375 
Q 37.203125 48.484375 30.078125 48.484375 
Q 22.953125 48.484375 18.875 42.84375 
Q 14.796875 37.203125 14.796875 27.296875 
z
" id="DejaVuSans-100"/>
      <path d="M 48.78125 52.59375 
L 48.78125 44.1875 
Q 44.96875 46.296875 41.140625 47.34375 
Q 37.3125 48.390625 33.40625 48.390625 
Q 24.65625 48.390625 19.8125 42.84375 
Q 14.984375 37.3125 14.984375 27.296875 
Q 14.984375 17.28125 19.8125 11.734375 
Q 24.65625 6.203125 33.40625 6.203125 
Q 37.3125 6.203125 41.140625 7.25 
Q 44.96875 8.296875 48.78125 10.40625 
L 48.78125 2.09375 
Q 45.015625 0.34375 40.984375 -0.53125 
Q 36.96875 -1.421875 32.421875 -1.421875 
Q 20.0625 -1.421875 12.78125 6.34375 
Q 5.515625 14.109375 5.515625 27.296875 
Q 5.515625 40.671875 12.859375 48.328125 
Q 20.21875 56 33.015625 56 
Q 37.15625 56 41.109375 55.140625 
Q 45.0625 54.296875 48.78125 52.59375 
z
" id="DejaVuSans-99"/>
      <path d="M 44.28125 53.078125 
L 44.28125 44.578125 
Q 40.484375 46.53125 36.375 47.5 
Q 32.28125 48.484375 27.875 48.484375 
Q 21.1875 48.484375 17.84375 46.4375 
Q 14.5 44.390625 14.5 40.28125 
Q 14.5 37.15625 16.890625 35.375 
Q 19.28125 33.59375 26.515625 31.984375 
L 29.59375 31.296875 
Q 39.15625 29.25 43.1875 25.515625 
Q 47.21875 21.78125 47.21875 15.09375 
Q 47.21875 7.46875 41.1875 3.015625 
Q 35.15625 -1.421875 24.609375 -1.421875 
Q 20.21875 -1.421875 15.453125 -0.5625 
Q 10.6875 0.296875 5.421875 2 
L 5.421875 11.28125 
Q 10.40625 8.6875 15.234375 7.390625 
Q 20.0625 6.109375 24.8125 6.109375 
Q 31.15625 6.109375 34.5625 8.28125 
Q 37.984375 10.453125 37.984375 14.40625 
Q 37.984375 18.0625 35.515625 20.015625 
Q 33.0625 21.96875 24.703125 23.78125 
L 21.578125 24.515625 
Q 13.234375 26.265625 9.515625 29.90625 
Q 5.8125 33.546875 5.8125 39.890625 
Q 5.8125 47.609375 11.28125 51.796875 
Q 16.75 56 26.8125 56 
Q 31.78125 56 36.171875 55.265625 
Q 40.578125 54.546875 44.28125 53.078125 
z
" id="DejaVuSans-115"/>
      <path d="M 5.5 -0.203125 
L 6.796875 4.703125 
Q 18.203125 5.5 26.140625 11.25 
Q 34.09375 17 37.59375 27.5 
Q 31.796875 23.09375 23.90625 23.09375 
Q 15.296875 23.09375 9.046875 28.890625 
Q 2.796875 34.703125 2.796875 44.203125 
Q 2.796875 53.90625 8.84375 60.75 
Q 14.90625 67.59375 24.203125 67.59375 
Q 30.09375 67.59375 34.5 65.34375 
Q 38.90625 63.09375 41.5 59.09375 
Q 44.09375 55.09375 45.34375 50.25 
Q 46.59375 45.40625 46.59375 39.796875 
Q 46.59375 31.40625 43.546875 23.203125 
Q 40.5 15 35.5 10.09375 
Q 28.796875 3.59375 22.84375 1.296875 
Q 16.90625 -1 5.703125 -2.09375 
z
M 38.59375 42.203125 
Q 38.5 50.296875 34.546875 55.390625 
Q 30.59375 60.5 23.90625 60.5 
Q 18.40625 60.5 14.59375 56.296875 
Q 10.796875 52.09375 10.796875 45.59375 
Q 10.796875 38.40625 14.890625 34.34375 
Q 19 30.296875 24.703125 30.296875 
Q 29.90625 30.296875 33.796875 33.34375 
Q 37.703125 36.40625 38.59375 42.203125 
z
" id="STIXGeneral-Regular-120811"/>
      <path d="M 9.078125 75.984375 
L 18.109375 75.984375 
L 18.109375 31.109375 
L 44.921875 54.6875 
L 56.390625 54.6875 
L 27.390625 29.109375 
L 57.625 0 
L 45.90625 0 
L 18.109375 26.703125 
L 18.109375 0 
L 9.078125 0 
z
" id="DejaVuSans-107"/>
      <path d="M 45.40625 27.984375 
Q 45.40625 37.75 41.375 43.109375 
Q 37.359375 48.484375 30.078125 48.484375 
Q 22.859375 48.484375 18.828125 43.109375 
Q 14.796875 37.75 14.796875 27.984375 
Q 14.796875 18.265625 18.828125 12.890625 
Q 22.859375 7.515625 30.078125 7.515625 
Q 37.359375 7.515625 41.375 12.890625 
Q 45.40625 18.265625 45.40625 27.984375 
z
M 54.390625 6.78125 
Q 54.390625 -7.171875 48.1875 -13.984375 
Q 42 -20.796875 29.203125 -20.796875 
Q 24.46875 -20.796875 20.265625 -20.09375 
Q 16.0625 -19.390625 12.109375 -17.921875 
L 12.109375 -9.1875 
Q 16.0625 -11.328125 19.921875 -12.34375 
Q 23.78125 -13.375 27.78125 -13.375 
Q 36.625 -13.375 41.015625 -8.765625 
Q 45.40625 -4.15625 45.40625 5.171875 
L 45.40625 9.625 
Q 42.625 4.78125 38.28125 2.390625 
Q 33.9375 0 27.875 0 
Q 17.828125 0 11.671875 7.65625 
Q 5.515625 15.328125 5.515625 27.984375 
Q 5.515625 40.671875 11.671875 48.328125 
Q 17.828125 56 27.875 56 
Q 33.9375 56 38.28125 53.609375 
Q 42.625 51.21875 45.40625 46.390625 
L 45.40625 54.6875 
L 54.390625 54.6875 
z
" id="DejaVuSans-103"/>
      <path d="M 25.390625 72.90625 
L 33.6875 72.90625 
L 8.296875 -9.28125 
L 0 -9.28125 
z
" id="DejaVuSans-47"/>
      <path d="M 32.171875 -5.078125 
Q 28.375 -14.84375 24.75 -17.8125 
Q 21.140625 -20.796875 15.09375 -20.796875 
L 7.90625 -20.796875 
L 7.90625 -13.28125 
L 13.1875 -13.28125 
Q 16.890625 -13.28125 18.9375 -11.515625 
Q 21 -9.765625 23.484375 -3.21875 
L 25.09375 0.875 
L 2.984375 54.6875 
L 12.5 54.6875 
L 29.59375 11.921875 
L 46.6875 54.6875 
L 56.203125 54.6875 
z
" id="DejaVuSans-121"/>
     </defs>
     <g style="fill:#262626;" transform="translate(11.55 201.68)rotate(-90)scale(0.08 -0.08)">
      <use transform="translate(0 0.446875)" xlink:href="#DejaVuSans-112"/>
      <use transform="translate(63.476562 0.446875)" xlink:href="#DejaVuSans-114"/>
      <use transform="translate(104.589844 0.446875)" xlink:href="#DejaVuSans-111"/>
      <use transform="translate(165.771484 0.446875)" xlink:href="#DejaVuSans-100"/>
      <use transform="translate(229.248047 0.446875)" xlink:href="#DejaVuSans-117"/>
      <use transform="translate(292.626953 0.446875)" xlink:href="#DejaVuSans-99"/>
      <use transform="translate(347.607422 0.446875)" xlink:href="#DejaVuSans-116"/>
      <use transform="translate(386.816406 0.446875)" xlink:href="#DejaVuSans-105"/>
      <use transform="translate(414.599609 0.446875)" xlink:href="#DejaVuSans-111"/>
      <use transform="translate(475.78125 0.446875)" xlink:href="#DejaVuSans-110"/>
      <use transform="translate(539.160156 0.446875)" xlink:href="#DejaVuSans-32"/>
      <use transform="translate(570.947266 0.446875)" xlink:href="#DejaVuSans-109"/>
      <use transform="translate(668.359375 0.446875)" xlink:href="#DejaVuSans-97"/>
      <use transform="translate(729.638672 0.446875)" xlink:href="#DejaVuSans-115"/>
      <use transform="translate(781.738281 0.446875)" xlink:href="#DejaVuSans-115"/>
      <use transform="translate(833.837891 0.446875)" xlink:href="#DejaVuSans-32"/>
      <use transform="translate(865.625 0.446875)" xlink:href="#DejaVuSans-91"/>
      <use transform="translate(904.638672 0.446875)" xlink:href="#DejaVuSans-49"/>
      <use transform="translate(968.261719 0.446875)" xlink:href="#DejaVuSans-48"/>
      <use transform="translate(1032.677461 36.684375)scale(0.7)" xlink:href="#STIXGeneral-Regular-120811"/>
      <use transform="translate(1069.942294 0.446875)" xlink:href="#DejaVuSans-32"/>
      <use transform="translate(1101.729403 0.446875)" xlink:href="#DejaVuSans-107"/>
      <use transform="translate(1159.63956 0.446875)" xlink:href="#DejaVuSans-103"/>
      <use transform="translate(1223.116122 0.446875)" xlink:href="#DejaVuSans-32"/>
      <use transform="translate(1254.903232 0.446875)" xlink:href="#DejaVuSans-47"/>
      <use transform="translate(1288.594638 0.446875)" xlink:href="#DejaVuSans-32"/>
      <use transform="translate(1320.381747 0.446875)" xlink:href="#DejaVuSans-121"/>
      <use transform="translate(1379.561435 0.446875)" xlink:href="#DejaVuSans-114"/>
      <use transform="translate(1420.674716 0.446875)" xlink:href="#DejaVuSans-93"/>
     </g>
    </g>
   </g>
   <g id="line2d_1">
    <path clip-path="url(#p39856e9e5d)" d="M 46.145455 231.185047 
L 48.703508 230.56938 
L 51.337255 230.19644 
L 54.061058 229.060764 
L 56.89264 228.295305 
L 59.842379 227.558347 
L 62.915034 226.197088 
L 66.100466 225.400422 
L 69.375006 224.262087 
L 72.705853 222.823038 
L 76.067046 221.794319 
L 79.453693 220.811512 
L 82.865882 220.492732 
L 86.288833 219.64341 
L 89.706566 218.472467 
L 93.109574 217.847775 
L 96.490093 216.082765 
L 99.855008 214.393225 
L 103.228386 213.24692 
L 106.64426 211.999445 
L 110.128693 210.951799 
L 113.680382 209.66813 
L 117.294861 208.850472 
L 120.989957 206.511939 
L 124.786646 203.887522 
L 128.694292 201.942637 
L 132.724957 200.496185 
L 136.859397 198.1995 
L 141.036533 197.845161 
L 145.17373 196.104257 
L 149.210839 193.644019 
L 153.125151 192.783751 
L 156.930295 190.623786 
L 160.647646 185.284171 
L 164.31442 182.253783 
L 167.959149 178.114988 
L 171.586631 176.039691 
L 175.190502 173.469667 
L 178.776133 170.020763 
L 182.348138 167.539462 
L 185.911585 165.645311 
L 189.469547 163.065396 
L 193.02813 161.698265 
L 196.598643 159.393968 
L 200.194441 157.310826 
L 203.82501 155.322871 
L 207.494389 152.368719 
L 211.200546 148.552258 
L 214.938774 146.519432 
L 218.701116 144.472988 
L 222.480459 142.30552 
L 226.273928 139.779144 
L 230.079225 137.087477 
L 233.889924 138.126973 
L 237.698594 137.637214 
L 241.498164 133.970946 
L 245.285078 131.96647 
L 249.054545 128.478207 
" style="fill:none;stroke:#1f77b4;stroke-linecap:round;stroke-width:0.5;"/>
    <defs>
     <path d="M 0 0.5 
C 0.132602 0.5 0.25979 0.447317 0.353553 0.353553 
C 0.447317 0.25979 0.5 0.132602 0.5 0 
C 0.5 -0.132602 0.447317 -0.25979 0.353553 -0.353553 
C 0.25979 -0.447317 0.132602 -0.5 0 -0.5 
C -0.132602 -0.5 -0.25979 -0.447317 -0.353553 -0.353553 
C -0.447317 -0.25979 -0.5 -0.132602 -0.5 0 
C -0.5 0.132602 -0.447317 0.25979 -0.353553 0.353553 
C -0.25979 0.447317 -0.132602 0.5 0 0.5 
z
" id="m59c0021c2e" style="stroke:#1f77b4;"/>
    </defs>
    <g clip-path="url(#p39856e9e5d)">
     <use style="fill:#1f77b4;stroke:#1f77b4;" x="46.145455" xlink:href="#m59c0021c2e" y="231.185047"/>
     <use style="fill:#1f77b4;stroke:#1f77b4;" x="48.703508" xlink:href="#m59c0021c2e" y="230.56938"/>
     <use style="fill:#1f77b4;stroke:#1f77b4;" x="51.337255" xlink:href="#m59c0021c2e" y="230.19644"/>
     <use style="fill:#1f77b4;stroke:#1f77b4;" x="54.061058" xlink:href="#m59c0021c2e" y="229.060764"/>
     <use style="fill:#1f77b4;stroke:#1f77b4;" x="56.89264" xlink:href="#m59c0021c2e" y="228.295305"/>
     <use style="fill:#1f77b4;stroke:#1f77b4;" x="59.842379" xlink:href="#m59c0021c2e" y="227.558347"/>
     <use style="fill:#1f77b4;stroke:#1f77b4;" x="62.915034" xlink:href="#m59c0021c2e" y="226.197088"/>
     <use style="fill:#1f77b4;stroke:#1f77b4;" x="66.100466" xlink:href="#m59c0021c2e" y="225.400422"/>
     <use style="fill:#1f77b4;stroke:#1f77b4;" x="69.375006" xlink:href="#m59c0021c2e" y="224.262087"/>
     <use style="fill:#1f77b4;stroke:#1f77b4;" x="72.705853" xlink:href="#m59c0021c2e" y="222.823038"/>
     <use style="fill:#1f77b4;stroke:#1f77b4;" x="76.067046" xlink:href="#m59c0021c2e" y="221.794319"/>
     <use style="fill:#1f77b4;stroke:#1f77b4;" x="79.453693" xlink:href="#m59c0021c2e" y="220.811512"/>
     <use style="fill:#1f77b4;stroke:#1f77b4;" x="82.865882" xlink:href="#m59c0021c2e" y="220.492732"/>
     <use style="fill:#1f77b4;stroke:#1f77b4;" x="86.288833" xlink:href="#m59c0021c2e" y="219.64341"/>
     <use style="fill:#1f77b4;stroke:#1f77b4;" x="89.706566" xlink:href="#m59c0021c2e" y="218.472467"/>
     <use style="fill:#1f77b4;stroke:#1f77b4;" x="93.109574" xlink:href="#m59c0021c2e" y="217.847775"/>
     <use style="fill:#1f77b4;stroke:#1f77b4;" x="96.490093" xlink:href="#m59c0021c2e" y="216.082765"/>
     <use style="fill:#1f77b4;stroke:#1f77b4;" x="99.855008" xlink:href="#m59c0021c2e" y="214.393225"/>
     <use style="fill:#1f77b4;stroke:#1f77b4;" x="103.228386" xlink:href="#m59c0021c2e" y="213.24692"/>
     <use style="fill:#1f77b4;stroke:#1f77b4;" x="106.64426" xlink:href="#m59c0021c2e" y="211.999445"/>
     <use style="fill:#1f77b4;stroke:#1f77b4;" x="110.128693" xlink:href="#m59c0021c2e" y="210.951799"/>
     <use style="fill:#1f77b4;stroke:#1f77b4;" x="113.680382" xlink:href="#m59c0021c2e" y="209.66813"/>
     <use style="fill:#1f77b4;stroke:#1f77b4;" x="117.294861" xlink:href="#m59c0021c2e" y="208.850472"/>
     <use style="fill:#1f77b4;stroke:#1f77b4;" x="120.989957" xlink:href="#m59c0021c2e" y="206.511939"/>
     <use style="fill:#1f77b4;stroke:#1f77b4;" x="124.786646" xlink:href="#m59c0021c2e" y="203.887522"/>
     <use style="fill:#1f77b4;stroke:#1f77b4;" x="128.694292" xlink:href="#m59c0021c2e" y="201.942637"/>
     <use style="fill:#1f77b4;stroke:#1f77b4;" x="132.724957" xlink:href="#m59c0021c2e" y="200.496185"/>
     <use style="fill:#1f77b4;stroke:#1f77b4;" x="136.859397" xlink:href="#m59c0021c2e" y="198.1995"/>
     <use style="fill:#1f77b4;stroke:#1f77b4;" x="141.036533" xlink:href="#m59c0021c2e" y="197.845161"/>
     <use style="fill:#1f77b4;stroke:#1f77b4;" x="145.17373" xlink:href="#m59c0021c2e" y="196.104257"/>
     <use style="fill:#1f77b4;stroke:#1f77b4;" x="149.210839" xlink:href="#m59c0021c2e" y="193.644019"/>
     <use style="fill:#1f77b4;stroke:#1f77b4;" x="153.125151" xlink:href="#m59c0021c2e" y="192.783751"/>
     <use style="fill:#1f77b4;stroke:#1f77b4;" x="156.930295" xlink:href="#m59c0021c2e" y="190.623786"/>
     <use style="fill:#1f77b4;stroke:#1f77b4;" x="160.647646" xlink:href="#m59c0021c2e" y="185.284171"/>
     <use style="fill:#1f77b4;stroke:#1f77b4;" x="164.31442" xlink:href="#m59c0021c2e" y="182.253783"/>
     <use style="fill:#1f77b4;stroke:#1f77b4;" x="167.959149" xlink:href="#m59c0021c2e" y="178.114988"/>
     <use style="fill:#1f77b4;stroke:#1f77b4;" x="171.586631" xlink:href="#m59c0021c2e" y="176.039691"/>
     <use style="fill:#1f77b4;stroke:#1f77b4;" x="175.190502" xlink:href="#m59c0021c2e" y="173.469667"/>
     <use style="fill:#1f77b4;stroke:#1f77b4;" x="178.776133" xlink:href="#m59c0021c2e" y="170.020763"/>
     <use style="fill:#1f77b4;stroke:#1f77b4;" x="182.348138" xlink:href="#m59c0021c2e" y="167.539462"/>
     <use style="fill:#1f77b4;stroke:#1f77b4;" x="185.911585" xlink:href="#m59c0021c2e" y="165.645311"/>
     <use style="fill:#1f77b4;stroke:#1f77b4;" x="189.469547" xlink:href="#m59c0021c2e" y="163.065396"/>
     <use style="fill:#1f77b4;stroke:#1f77b4;" x="193.02813" xlink:href="#m59c0021c2e" y="161.698265"/>
     <use style="fill:#1f77b4;stroke:#1f77b4;" x="196.598643" xlink:href="#m59c0021c2e" y="159.393968"/>
     <use style="fill:#1f77b4;stroke:#1f77b4;" x="200.194441" xlink:href="#m59c0021c2e" y="157.310826"/>
     <use style="fill:#1f77b4;stroke:#1f77b4;" x="203.82501" xlink:href="#m59c0021c2e" y="155.322871"/>
     <use style="fill:#1f77b4;stroke:#1f77b4;" x="207.494389" xlink:href="#m59c0021c2e" y="152.368719"/>
     <use style="fill:#1f77b4;stroke:#1f77b4;" x="211.200546" xlink:href="#m59c0021c2e" y="148.552258"/>
     <use style="fill:#1f77b4;stroke:#1f77b4;" x="214.938774" xlink:href="#m59c0021c2e" y="146.519432"/>
     <use style="fill:#1f77b4;stroke:#1f77b4;" x="218.701116" xlink:href="#m59c0021c2e" y="144.472988"/>
     <use style="fill:#1f77b4;stroke:#1f77b4;" x="222.480459" xlink:href="#m59c0021c2e" y="142.30552"/>
     <use style="fill:#1f77b4;stroke:#1f77b4;" x="226.273928" xlink:href="#m59c0021c2e" y="139.779144"/>
     <use style="fill:#1f77b4;stroke:#1f77b4;" x="230.079225" xlink:href="#m59c0021c2e" y="137.087477"/>
     <use style="fill:#1f77b4;stroke:#1f77b4;" x="233.889924" xlink:href="#m59c0021c2e" y="138.126973"/>
     <use style="fill:#1f77b4;stroke:#1f77b4;" x="237.698594" xlink:href="#m59c0021c2e" y="137.637214"/>
     <use style="fill:#1f77b4;stroke:#1f77b4;" x="241.498164" xlink:href="#m59c0021c2e" y="133.970946"/>
     <use style="fill:#1f77b4;stroke:#1f77b4;" x="245.285078" xlink:href="#m59c0021c2e" y="131.96647"/>
     <use style="fill:#1f77b4;stroke:#1f77b4;" x="249.054545" xlink:href="#m59c0021c2e" y="128.478207"/>
    </g>
   </g>
   <g id="line2d_2">
    <path clip-path="url(#p39856e9e5d)" d="M 46.145455 242.116364 
L 48.703508 241.507766 
L 51.337255 240.603484 
L 54.061058 240.038718 
L 56.89264 238.672899 
L 59.842379 237.591509 
L 62.915034 236.541839 
L 66.100466 235.677491 
L 69.375006 233.990654 
L 72.705853 231.771485 
L 76.067046 230.826813 
L 79.453693 228.96853 
L 82.865882 227.751121 
L 86.288833 226.608237 
L 89.706566 225.749689 
L 93.109574 223.603754 
L 96.490093 221.513819 
L 99.855008 219.003667 
L 103.228386 215.953105 
L 106.64426 213.698617 
L 110.128693 211.076948 
L 113.680382 209.4609 
L 117.294861 208.430211 
L 120.989957 207.452451 
L 124.786646 205.127572 
L 128.694292 201.851658 
L 132.724957 197.819996 
L 136.859397 195.144259 
L 141.036533 193.945975 
L 145.17373 190.507523 
L 149.210839 185.331856 
L 153.125151 182.246096 
L 156.930295 177.515079 
L 160.647646 173.115852 
L 164.31442 168.036007 
L 167.959149 165.072908 
L 171.586631 159.294071 
L 175.190502 155.199242 
L 178.776133 150.773145 
L 182.348138 147.420015 
L 185.911585 143.11156 
L 189.469547 137.247943 
L 193.02813 134.149085 
L 196.598643 129.710987 
L 200.194441 125.3185 
L 203.82501 121.411741 
L 207.494389 113.421112 
L 211.200546 106.364043 
L 214.938774 102.306048 
L 218.701116 94.523944 
L 222.480459 87.727359 
L 226.273928 81.782868 
L 230.079225 75.253873 
L 233.889924 70.060836 
L 237.698594 63.943277 
L 241.498164 58.574304 
L 245.285078 51.907132 
L 249.054545 44.443636 
" style="fill:none;stroke:#ff7f0e;stroke-linecap:round;stroke-width:0.5;"/>
    <defs>
     <path d="M 0 0.5 
C 0.132602 0.5 0.25979 0.447317 0.353553 0.353553 
C 0.447317 0.25979 0.5 0.132602 0.5 0 
C 0.5 -0.132602 0.447317 -0.25979 0.353553 -0.353553 
C 0.25979 -0.447317 0.132602 -0.5 0 -0.5 
C -0.132602 -0.5 -0.25979 -0.447317 -0.353553 -0.353553 
C -0.447317 -0.25979 -0.5 -0.132602 -0.5 0 
C -0.5 0.132602 -0.447317 0.25979 -0.353553 0.353553 
C -0.25979 0.447317 -0.132602 0.5 0 0.5 
z
" id="m5b735582e9" style="stroke:#ff7f0e;"/>
    </defs>
    <g clip-path="url(#p39856e9e5d)">
     <use style="fill:#ff7f0e;stroke:#ff7f0e;" x="46.145455" xlink:href="#m5b735582e9" y="242.116364"/>
     <use style="fill:#ff7f0e;stroke:#ff7f0e;" x="48.703508" xlink:href="#m5b735582e9" y="241.507766"/>
     <use style="fill:#ff7f0e;stroke:#ff7f0e;" x="51.337255" xlink:href="#m5b735582e9" y="240.603484"/>
     <use style="fill:#ff7f0e;stroke:#ff7f0e;" x="54.061058" xlink:href="#m5b735582e9" y="240.038718"/>
     <use style="fill:#ff7f0e;stroke:#ff7f0e;" x="56.89264" xlink:href="#m5b735582e9" y="238.672899"/>
     <use style="fill:#ff7f0e;stroke:#ff7f0e;" x="59.842379" xlink:href="#m5b735582e9" y="237.591509"/>
     <use style="fill:#ff7f0e;stroke:#ff7f0e;" x="62.915034" xlink:href="#m5b735582e9" y="236.541839"/>
     <use style="fill:#ff7f0e;stroke:#ff7f0e;" x="66.100466" xlink:href="#m5b735582e9" y="235.677491"/>
     <use style="fill:#ff7f0e;stroke:#ff7f0e;" x="69.375006" xlink:href="#m5b735582e9" y="233.990654"/>
     <use style="fill:#ff7f0e;stroke:#ff7f0e;" x="72.705853" xlink:href="#m5b735582e9" y="231.771485"/>
     <use style="fill:#ff7f0e;stroke:#ff7f0e;" x="76.067046" xlink:href="#m5b735582e9" y="230.826813"/>
     <use style="fill:#ff7f0e;stroke:#ff7f0e;" x="79.453693" xlink:href="#m5b735582e9" y="228.96853"/>
     <use style="fill:#ff7f0e;stroke:#ff7f0e;" x="82.865882" xlink:href="#m5b735582e9" y="227.751121"/>
     <use style="fill:#ff7f0e;stroke:#ff7f0e;" x="86.288833" xlink:href="#m5b735582e9" y="226.608237"/>
     <use style="fill:#ff7f0e;stroke:#ff7f0e;" x="89.706566" xlink:href="#m5b735582e9" y="225.749689"/>
     <use style="fill:#ff7f0e;stroke:#ff7f0e;" x="93.109574" xlink:href="#m5b735582e9" y="223.603754"/>
     <use style="fill:#ff7f0e;stroke:#ff7f0e;" x="96.490093" xlink:href="#m5b735582e9" y="221.513819"/>
     <use style="fill:#ff7f0e;stroke:#ff7f0e;" x="99.855008" xlink:href="#m5b735582e9" y="219.003667"/>
     <use style="fill:#ff7f0e;stroke:#ff7f0e;" x="103.228386" xlink:href="#m5b735582e9" y="215.953105"/>
     <use style="fill:#ff7f0e;stroke:#ff7f0e;" x="106.64426" xlink:href="#m5b735582e9" y="213.698617"/>
     <use style="fill:#ff7f0e;stroke:#ff7f0e;" x="110.128693" xlink:href="#m5b735582e9" y="211.076948"/>
     <use style="fill:#ff7f0e;stroke:#ff7f0e;" x="113.680382" xlink:href="#m5b735582e9" y="209.4609"/>
     <use style="fill:#ff7f0e;stroke:#ff7f0e;" x="117.294861" xlink:href="#m5b735582e9" y="208.430211"/>
     <use style="fill:#ff7f0e;stroke:#ff7f0e;" x="120.989957" xlink:href="#m5b735582e9" y="207.452451"/>
     <use style="fill:#ff7f0e;stroke:#ff7f0e;" x="124.786646" xlink:href="#m5b735582e9" y="205.127572"/>
     <use style="fill:#ff7f0e;stroke:#ff7f0e;" x="128.694292" xlink:href="#m5b735582e9" y="201.851658"/>
     <use style="fill:#ff7f0e;stroke:#ff7f0e;" x="132.724957" xlink:href="#m5b735582e9" y="197.819996"/>
     <use style="fill:#ff7f0e;stroke:#ff7f0e;" x="136.859397" xlink:href="#m5b735582e9" y="195.144259"/>
     <use style="fill:#ff7f0e;stroke:#ff7f0e;" x="141.036533" xlink:href="#m5b735582e9" y="193.945975"/>
     <use style="fill:#ff7f0e;stroke:#ff7f0e;" x="145.17373" xlink:href="#m5b735582e9" y="190.507523"/>
     <use style="fill:#ff7f0e;stroke:#ff7f0e;" x="149.210839" xlink:href="#m5b735582e9" y="185.331856"/>
     <use style="fill:#ff7f0e;stroke:#ff7f0e;" x="153.125151" xlink:href="#m5b735582e9" y="182.246096"/>
     <use style="fill:#ff7f0e;stroke:#ff7f0e;" x="156.930295" xlink:href="#m5b735582e9" y="177.515079"/>
     <use style="fill:#ff7f0e;stroke:#ff7f0e;" x="160.647646" xlink:href="#m5b735582e9" y="173.115852"/>
     <use style="fill:#ff7f0e;stroke:#ff7f0e;" x="164.31442" xlink:href="#m5b735582e9" y="168.036007"/>
     <use style="fill:#ff7f0e;stroke:#ff7f0e;" x="167.959149" xlink:href="#m5b735582e9" y="165.072908"/>
     <use style="fill:#ff7f0e;stroke:#ff7f0e;" x="171.586631" xlink:href="#m5b735582e9" y="159.294071"/>
     <use style="fill:#ff7f0e;stroke:#ff7f0e;" x="175.190502" xlink:href="#m5b735582e9" y="155.199242"/>
     <use style="fill:#ff7f0e;stroke:#ff7f0e;" x="178.776133" xlink:href="#m5b735582e9" y="150.773145"/>
     <use style="fill:#ff7f0e;stroke:#ff7f0e;" x="182.348138" xlink:href="#m5b735582e9" y="147.420015"/>
     <use style="fill:#ff7f0e;stroke:#ff7f0e;" x="185.911585" xlink:href="#m5b735582e9" y="143.11156"/>
     <use style="fill:#ff7f0e;stroke:#ff7f0e;" x="189.469547" xlink:href="#m5b735582e9" y="137.247943"/>
     <use style="fill:#ff7f0e;stroke:#ff7f0e;" x="193.02813" xlink:href="#m5b735582e9" y="134.149085"/>
     <use style="fill:#ff7f0e;stroke:#ff7f0e;" x="196.598643" xlink:href="#m5b735582e9" y="129.710987"/>
     <use style="fill:#ff7f0e;stroke:#ff7f0e;" x="200.194441" xlink:href="#m5b735582e9" y="125.3185"/>
     <use style="fill:#ff7f0e;stroke:#ff7f0e;" x="203.82501" xlink:href="#m5b735582e9" y="121.411741"/>
     <use style="fill:#ff7f0e;stroke:#ff7f0e;" x="207.494389" xlink:href="#m5b735582e9" y="113.421112"/>
     <use style="fill:#ff7f0e;stroke:#ff7f0e;" x="211.200546" xlink:href="#m5b735582e9" y="106.364043"/>
     <use style="fill:#ff7f0e;stroke:#ff7f0e;" x="214.938774" xlink:href="#m5b735582e9" y="102.306048"/>
     <use style="fill:#ff7f0e;stroke:#ff7f0e;" x="218.701116" xlink:href="#m5b735582e9" y="94.523944"/>
     <use style="fill:#ff7f0e;stroke:#ff7f0e;" x="222.480459" xlink:href="#m5b735582e9" y="87.727359"/>
     <use style="fill:#ff7f0e;stroke:#ff7f0e;" x="226.273928" xlink:href="#m5b735582e9" y="81.782868"/>
     <use style="fill:#ff7f0e;stroke:#ff7f0e;" x="230.079225" xlink:href="#m5b735582e9" y="75.253873"/>
     <use style="fill:#ff7f0e;stroke:#ff7f0e;" x="233.889924" xlink:href="#m5b735582e9" y="70.060836"/>
     <use style="fill:#ff7f0e;stroke:#ff7f0e;" x="237.698594" xlink:href="#m5b735582e9" y="63.943277"/>
     <use style="fill:#ff7f0e;stroke:#ff7f0e;" x="241.498164" xlink:href="#m5b735582e9" y="58.574304"/>
     <use style="fill:#ff7f0e;stroke:#ff7f0e;" x="245.285078" xlink:href="#m5b735582e9" y="51.907132"/>
     <use style="fill:#ff7f0e;stroke:#ff7f0e;" x="249.054545" xlink:href="#m5b735582e9" y="44.443636"/>
    </g>
   </g>
   <g id="line2d_3">
    <path clip-path="url(#p39856e9e5d)" d="M 46.145455 204.829754 
L 48.703508 202.016364 
L 51.337255 198.955413 
L 54.061058 198.175817 
L 56.89264 197.097942 
L 59.842379 193.956374 
L 62.915034 190.779811 
L 66.100466 187.638151 
L 69.375006 185.852658 
L 72.705853 185.073944 
L 76.067046 185.585607 
L 79.453693 184.72268 
L 82.865882 184.166241 
L 86.288833 178.58877 
L 89.706566 175.098024 
L 93.109574 170.732783 
L 96.490093 170.000894 
L 99.855008 169.068494 
L 103.228386 171.300043 
L 106.64426 171.704458 
L 110.128693 170.986825 
L 113.680382 171.059212 
L 117.294861 168.751733 
L 120.989957 166.29891 
L 124.786646 164.774036 
L 128.694292 161.668218 
L 132.724957 161.749265 
L 136.859397 161.008905 
L 141.036533 160.605116 
L 145.17373 157.880604 
L 149.210839 156.907088 
L 153.125151 158.506202 
L 156.930295 159.609726 
L 160.647646 159.87875 
L 164.31442 158.560172 
L 167.959149 156.633461 
L 171.586631 154.693653 
L 175.190502 155.576147 
L 178.776133 153.342546 
L 182.348138 152.681895 
L 185.911585 153.680099 
L 189.469547 151.737168 
L 193.02813 150.243847 
L 196.598643 147.251529 
L 200.194441 146.618153 
L 203.82501 144.291341 
L 207.494389 140.92431 
L 211.200546 140.775508 
L 214.938774 140.205998 
L 218.701116 140.051132 
L 222.480459 140.570419 
L 226.273928 139.524057 
L 230.079225 137.616235 
L 233.889924 136.685426 
L 237.698594 137.699997 
L 241.498164 136.506322 
L 245.285078 134.936308 
L 249.054545 131.345687 
" style="fill:none;stroke:#2ca02c;stroke-linecap:round;stroke-width:0.5;"/>
    <defs>
     <path d="M 0 0.5 
C 0.132602 0.5 0.25979 0.447317 0.353553 0.353553 
C 0.447317 0.25979 0.5 0.132602 0.5 0 
C 0.5 -0.132602 0.447317 -0.25979 0.353553 -0.353553 
C 0.25979 -0.447317 0.132602 -0.5 0 -0.5 
C -0.132602 -0.5 -0.25979 -0.447317 -0.353553 -0.353553 
C -0.447317 -0.25979 -0.5 -0.132602 -0.5 0 
C -0.5 0.132602 -0.447317 0.25979 -0.353553 0.353553 
C -0.25979 0.447317 -0.132602 0.5 0 0.5 
z
" id="m254272ef04" style="stroke:#2ca02c;"/>
    </defs>
    <g clip-path="url(#p39856e9e5d)">
     <use style="fill:#2ca02c;stroke:#2ca02c;" x="46.145455" xlink:href="#m254272ef04" y="204.829754"/>
     <use style="fill:#2ca02c;stroke:#2ca02c;" x="48.703508" xlink:href="#m254272ef04" y="202.016364"/>
     <use style="fill:#2ca02c;stroke:#2ca02c;" x="51.337255" xlink:href="#m254272ef04" y="198.955413"/>
     <use style="fill:#2ca02c;stroke:#2ca02c;" x="54.061058" xlink:href="#m254272ef04" y="198.175817"/>
     <use style="fill:#2ca02c;stroke:#2ca02c;" x="56.89264" xlink:href="#m254272ef04" y="197.097942"/>
     <use style="fill:#2ca02c;stroke:#2ca02c;" x="59.842379" xlink:href="#m254272ef04" y="193.956374"/>
     <use style="fill:#2ca02c;stroke:#2ca02c;" x="62.915034" xlink:href="#m254272ef04" y="190.779811"/>
     <use style="fill:#2ca02c;stroke:#2ca02c;" x="66.100466" xlink:href="#m254272ef04" y="187.638151"/>
     <use style="fill:#2ca02c;stroke:#2ca02c;" x="69.375006" xlink:href="#m254272ef04" y="185.852658"/>
     <use style="fill:#2ca02c;stroke:#2ca02c;" x="72.705853" xlink:href="#m254272ef04" y="185.073944"/>
     <use style="fill:#2ca02c;stroke:#2ca02c;" x="76.067046" xlink:href="#m254272ef04" y="185.585607"/>
     <use style="fill:#2ca02c;stroke:#2ca02c;" x="79.453693" xlink:href="#m254272ef04" y="184.72268"/>
     <use style="fill:#2ca02c;stroke:#2ca02c;" x="82.865882" xlink:href="#m254272ef04" y="184.166241"/>
     <use style="fill:#2ca02c;stroke:#2ca02c;" x="86.288833" xlink:href="#m254272ef04" y="178.58877"/>
     <use style="fill:#2ca02c;stroke:#2ca02c;" x="89.706566" xlink:href="#m254272ef04" y="175.098024"/>
     <use style="fill:#2ca02c;stroke:#2ca02c;" x="93.109574" xlink:href="#m254272ef04" y="170.732783"/>
     <use style="fill:#2ca02c;stroke:#2ca02c;" x="96.490093" xlink:href="#m254272ef04" y="170.000894"/>
     <use style="fill:#2ca02c;stroke:#2ca02c;" x="99.855008" xlink:href="#m254272ef04" y="169.068494"/>
     <use style="fill:#2ca02c;stroke:#2ca02c;" x="103.228386" xlink:href="#m254272ef04" y="171.300043"/>
     <use style="fill:#2ca02c;stroke:#2ca02c;" x="106.64426" xlink:href="#m254272ef04" y="171.704458"/>
     <use style="fill:#2ca02c;stroke:#2ca02c;" x="110.128693" xlink:href="#m254272ef04" y="170.986825"/>
     <use style="fill:#2ca02c;stroke:#2ca02c;" x="113.680382" xlink:href="#m254272ef04" y="171.059212"/>
     <use style="fill:#2ca02c;stroke:#2ca02c;" x="117.294861" xlink:href="#m254272ef04" y="168.751733"/>
     <use style="fill:#2ca02c;stroke:#2ca02c;" x="120.989957" xlink:href="#m254272ef04" y="166.29891"/>
     <use style="fill:#2ca02c;stroke:#2ca02c;" x="124.786646" xlink:href="#m254272ef04" y="164.774036"/>
     <use style="fill:#2ca02c;stroke:#2ca02c;" x="128.694292" xlink:href="#m254272ef04" y="161.668218"/>
     <use style="fill:#2ca02c;stroke:#2ca02c;" x="132.724957" xlink:href="#m254272ef04" y="161.749265"/>
     <use style="fill:#2ca02c;stroke:#2ca02c;" x="136.859397" xlink:href="#m254272ef04" y="161.008905"/>
     <use style="fill:#2ca02c;stroke:#2ca02c;" x="141.036533" xlink:href="#m254272ef04" y="160.605116"/>
     <use style="fill:#2ca02c;stroke:#2ca02c;" x="145.17373" xlink:href="#m254272ef04" y="157.880604"/>
     <use style="fill:#2ca02c;stroke:#2ca02c;" x="149.210839" xlink:href="#m254272ef04" y="156.907088"/>
     <use style="fill:#2ca02c;stroke:#2ca02c;" x="153.125151" xlink:href="#m254272ef04" y="158.506202"/>
     <use style="fill:#2ca02c;stroke:#2ca02c;" x="156.930295" xlink:href="#m254272ef04" y="159.609726"/>
     <use style="fill:#2ca02c;stroke:#2ca02c;" x="160.647646" xlink:href="#m254272ef04" y="159.87875"/>
     <use style="fill:#2ca02c;stroke:#2ca02c;" x="164.31442" xlink:href="#m254272ef04" y="158.560172"/>
     <use style="fill:#2ca02c;stroke:#2ca02c;" x="167.959149" xlink:href="#m254272ef04" y="156.633461"/>
     <use style="fill:#2ca02c;stroke:#2ca02c;" x="171.586631" xlink:href="#m254272ef04" y="154.693653"/>
     <use style="fill:#2ca02c;stroke:#2ca02c;" x="175.190502" xlink:href="#m254272ef04" y="155.576147"/>
     <use style="fill:#2ca02c;stroke:#2ca02c;" x="178.776133" xlink:href="#m254272ef04" y="153.342546"/>
     <use style="fill:#2ca02c;stroke:#2ca02c;" x="182.348138" xlink:href="#m254272ef04" y="152.681895"/>
     <use style="fill:#2ca02c;stroke:#2ca02c;" x="185.911585" xlink:href="#m254272ef04" y="153.680099"/>
     <use style="fill:#2ca02c;stroke:#2ca02c;" x="189.469547" xlink:href="#m254272ef04" y="151.737168"/>
     <use style="fill:#2ca02c;stroke:#2ca02c;" x="193.02813" xlink:href="#m254272ef04" y="150.243847"/>
     <use style="fill:#2ca02c;stroke:#2ca02c;" x="196.598643" xlink:href="#m254272ef04" y="147.251529"/>
     <use style="fill:#2ca02c;stroke:#2ca02c;" x="200.194441" xlink:href="#m254272ef04" y="146.618153"/>
     <use style="fill:#2ca02c;stroke:#2ca02c;" x="203.82501" xlink:href="#m254272ef04" y="144.291341"/>
     <use style="fill:#2ca02c;stroke:#2ca02c;" x="207.494389" xlink:href="#m254272ef04" y="140.92431"/>
     <use style="fill:#2ca02c;stroke:#2ca02c;" x="211.200546" xlink:href="#m254272ef04" y="140.775508"/>
     <use style="fill:#2ca02c;stroke:#2ca02c;" x="214.938774" xlink:href="#m254272ef04" y="140.205998"/>
     <use style="fill:#2ca02c;stroke:#2ca02c;" x="218.701116" xlink:href="#m254272ef04" y="140.051132"/>
     <use style="fill:#2ca02c;stroke:#2ca02c;" x="222.480459" xlink:href="#m254272ef04" y="140.570419"/>
     <use style="fill:#2ca02c;stroke:#2ca02c;" x="226.273928" xlink:href="#m254272ef04" y="139.524057"/>
     <use style="fill:#2ca02c;stroke:#2ca02c;" x="230.079225" xlink:href="#m254272ef04" y="137.616235"/>
     <use style="fill:#2ca02c;stroke:#2ca02c;" x="233.889924" xlink:href="#m254272ef04" y="136.685426"/>
     <use style="fill:#2ca02c;stroke:#2ca02c;" x="237.698594" xlink:href="#m254272ef04" y="137.699997"/>
     <use style="fill:#2ca02c;stroke:#2ca02c;" x="241.498164" xlink:href="#m254272ef04" y="136.506322"/>
     <use style="fill:#2ca02c;stroke:#2ca02c;" x="245.285078" xlink:href="#m254272ef04" y="134.936308"/>
     <use style="fill:#2ca02c;stroke:#2ca02c;" x="249.054545" xlink:href="#m254272ef04" y="131.345687"/>
    </g>
   </g>
   <g id="patch_3">
    <path d="M 36 252 
L 36 34.56 
" style="fill:none;stroke:#ffffff;stroke-linecap:square;stroke-linejoin:miter;stroke-width:0.8;"/>
   </g>
   <g id="patch_4">
    <path d="M 259.2 252 
L 259.2 34.56 
" style="fill:none;stroke:#ffffff;stroke-linecap:square;stroke-linejoin:miter;stroke-width:0.8;"/>
   </g>
   <g id="patch_5">
    <path d="M 36 252 
L 259.2 252 
" style="fill:none;stroke:#ffffff;stroke-linecap:square;stroke-linejoin:miter;stroke-width:0.8;"/>
   </g>
   <g id="patch_6">
    <path d="M 36 34.56 
L 259.2 34.56 
" style="fill:none;stroke:#ffffff;stroke-linecap:square;stroke-linejoin:miter;stroke-width:0.8;"/>
   </g>
   <g id="legend_1">
    <g id="patch_7">
     <path d="M 43 86.594375 
L 113.389062 86.594375 
Q 115.389062 86.594375 115.389062 84.594375 
L 115.389062 41.56 
Q 115.389062 39.56 113.389062 39.56 
L 43 39.56 
Q 41 39.56 41 41.56 
L 41 84.594375 
Q 41 86.594375 43 86.594375 
z
" style="fill:#e3dcd0;opacity:0.8;stroke:#cccccc;stroke-linejoin:miter;"/>
    </g>
    <g id="line2d_4">
     <path d="M 45 47.658438 
L 65 47.658438 
" style="fill:none;stroke:#1f77b4;stroke-linecap:round;stroke-width:0.5;"/>
    </g>
    <g id="line2d_5">
     <g>
      <use style="fill:#1f77b4;stroke:#1f77b4;" x="55" xlink:href="#m59c0021c2e" y="47.658438"/>
     </g>
    </g>
    <g id="text_11">
     <!-- egg -->
     <defs>
      <path d="M 56.203125 29.59375 
L 56.203125 25.203125 
L 14.890625 25.203125 
Q 15.484375 15.921875 20.484375 11.0625 
Q 25.484375 6.203125 34.421875 6.203125 
Q 39.59375 6.203125 44.453125 7.46875 
Q 49.3125 8.734375 54.109375 11.28125 
L 54.109375 2.78125 
Q 49.265625 0.734375 44.1875 -0.34375 
Q 39.109375 -1.421875 33.890625 -1.421875 
Q 20.796875 -1.421875 13.15625 6.1875 
Q 5.515625 13.8125 5.515625 26.8125 
Q 5.515625 40.234375 12.765625 48.109375 
Q 20.015625 56 32.328125 56 
Q 43.359375 56 49.78125 48.890625 
Q 56.203125 41.796875 56.203125 29.59375 
z
M 47.21875 32.234375 
Q 47.125 39.59375 43.09375 43.984375 
Q 39.0625 48.390625 32.421875 48.390625 
Q 24.90625 48.390625 20.390625 44.140625 
Q 15.875 39.890625 15.1875 32.171875 
z
" id="DejaVuSans-101"/>
     </defs>
     <g style="fill:#262626;" transform="translate(73 51.158438)scale(0.1 -0.1)">
      <use xlink:href="#DejaVuSans-101"/>
      <use x="61.523438" xlink:href="#DejaVuSans-103"/>
      <use x="125" xlink:href="#DejaVuSans-103"/>
     </g>
    </g>
    <g id="line2d_6">
     <path d="M 45 62.336563 
L 65 62.336563 
" style="fill:none;stroke:#ff7f0e;stroke-linecap:round;stroke-width:0.5;"/>
    </g>
    <g id="line2d_7">
     <g>
      <use style="fill:#ff7f0e;stroke:#ff7f0e;" x="55" xlink:href="#m5b735582e9" y="62.336563"/>
     </g>
    </g>
    <g id="text_12">
     <!-- chicken -->
     <g style="fill:#262626;" transform="translate(73 65.836563)scale(0.1 -0.1)">
      <use xlink:href="#DejaVuSans-99"/>
      <use x="54.980469" xlink:href="#DejaVuSans-104"/>
      <use x="118.359375" xlink:href="#DejaVuSans-105"/>
      <use x="146.142578" xlink:href="#DejaVuSans-99"/>
      <use x="201.123047" xlink:href="#DejaVuSans-107"/>
      <use x="258.986328" xlink:href="#DejaVuSans-101"/>
      <use x="320.509766" xlink:href="#DejaVuSans-110"/>
     </g>
    </g>
    <g id="line2d_8">
     <path d="M 45 77.014688 
L 65 77.014688 
" style="fill:none;stroke:#2ca02c;stroke-linecap:round;stroke-width:0.5;"/>
    </g>
    <g id="line2d_9">
     <g>
      <use style="fill:#2ca02c;stroke:#2ca02c;" x="55" xlink:href="#m254272ef04" y="77.014688"/>
     </g>
    </g>
    <g id="text_13">
     <!-- beef -->
     <defs>
      <path d="M 37.109375 75.984375 
L 37.109375 68.5 
L 28.515625 68.5 
Q 23.6875 68.5 21.796875 66.546875 
Q 19.921875 64.59375 19.921875 59.515625 
L 19.921875 54.6875 
L 34.71875 54.6875 
L 34.71875 47.703125 
L 19.921875 47.703125 
L 19.921875 0 
L 10.890625 0 
L 10.890625 47.703125 
L 2.296875 47.703125 
L 2.296875 54.6875 
L 10.890625 54.6875 
L 10.890625 58.5 
Q 10.890625 67.625 15.140625 71.796875 
Q 19.390625 75.984375 28.609375 75.984375 
z
" id="DejaVuSans-102"/>
     </defs>
     <g style="fill:#262626;" transform="translate(73 80.514688)scale(0.1 -0.1)">
      <use xlink:href="#DejaVuSans-98"/>
      <use x="63.476562" xlink:href="#DejaVuSans-101"/>
      <use x="125" xlink:href="#DejaVuSans-101"/>
      <use x="186.523438" xlink:href="#DejaVuSans-102"/>
     </g>
    </g>
   </g>
  </g>
 </g>
 <defs>
  <clipPath id="p39856e9e5d">
   <rect height="217.44" width="223.2" x="36" y="34.56"/>
  </clipPath>
 </defs>
</svg>
