<?xml version="1.0" encoding="utf-8" standalone="no"?>
<!DOCTYPE svg PUBLIC "-//W3C//DTD SVG 1.1//EN"
  "http://www.w3.org/Graphics/SVG/1.1/DTD/svg11.dtd">
<!-- Created with matplotlib (https://matplotlib.org/) -->
<svg height="288pt" version="1.1" viewBox="0 0 288 288" width="288pt" xmlns="http://www.w3.org/2000/svg" xmlns:xlink="http://www.w3.org/1999/xlink">
 <defs>
  <style type="text/css">
*{stroke-linecap:butt;stroke-linejoin:round;}
  </style>
 </defs>
 <g id="figure_1">
  <g id="patch_1">
   <path d="M 0 288 
L 288 288 
L 288 0 
L 0 0 
z
" style="fill:#ffffff;"/>
  </g>
  <g id="axes_1">
   <g id="patch_2">
    <path d="M 36 252 
L 259.2 252 
L 259.2 34.56 
L 36 34.56 
z
" style="fill:#e3dcd0;"/>
   </g>
   <g id="matplotlib.axis_1">
    <g id="xtick_1">
     <g id="text_1">
      <!-- 3 -->
      <defs>
       <path d="M 40.578125 39.3125 
Q 47.65625 37.796875 51.625 33 
Q 55.609375 28.21875 55.609375 21.1875 
Q 55.609375 10.40625 48.1875 4.484375 
Q 40.765625 -1.421875 27.09375 -1.421875 
Q 22.515625 -1.421875 17.65625 -0.515625 
Q 12.796875 0.390625 7.625 2.203125 
L 7.625 11.71875 
Q 11.71875 9.328125 16.59375 8.109375 
Q 21.484375 6.890625 26.8125 6.890625 
Q 36.078125 6.890625 40.9375 10.546875 
Q 45.796875 14.203125 45.796875 21.1875 
Q 45.796875 27.640625 41.28125 31.265625 
Q 36.765625 34.90625 28.71875 34.90625 
L 20.21875 34.90625 
L 20.21875 43.015625 
L 29.109375 43.015625 
Q 36.375 43.015625 40.234375 45.921875 
Q 44.09375 48.828125 44.09375 54.296875 
Q 44.09375 59.90625 40.109375 62.90625 
Q 36.140625 65.921875 28.71875 65.921875 
Q 24.65625 65.921875 20.015625 65.03125 
Q 15.375 64.15625 9.8125 62.3125 
L 9.8125 71.09375 
Q 15.4375 72.65625 20.34375 73.4375 
Q 25.25 74.21875 29.59375 74.21875 
Q 40.828125 74.21875 47.359375 69.109375 
Q 53.90625 64.015625 53.90625 55.328125 
Q 53.90625 49.265625 50.4375 45.09375 
Q 46.96875 40.921875 40.578125 39.3125 
z
" id="DejaVuSans-51"/>
      </defs>
      <g transform="translate(42.029047 261.57875)scale(0.08 -0.08)">
       <use xlink:href="#DejaVuSans-51"/>
      </g>
     </g>
    </g>
    <g id="xtick_2">
     <g id="text_2">
      <!-- 5 -->
      <defs>
       <path d="M 10.796875 72.90625 
L 49.515625 72.90625 
L 49.515625 64.59375 
L 19.828125 64.59375 
L 19.828125 46.734375 
Q 21.96875 47.46875 24.109375 47.828125 
Q 26.265625 48.1875 28.421875 48.1875 
Q 40.625 48.1875 47.75 41.5 
Q 54.890625 34.8125 54.890625 23.390625 
Q 54.890625 11.625 47.5625 5.09375 
Q 40.234375 -1.421875 26.90625 -1.421875 
Q 22.3125 -1.421875 17.546875 -0.640625 
Q 12.796875 0.140625 7.71875 1.703125 
L 7.71875 11.625 
Q 12.109375 9.234375 16.796875 8.0625 
Q 21.484375 6.890625 26.703125 6.890625 
Q 35.15625 6.890625 40.078125 11.328125 
Q 45.015625 15.765625 45.015625 23.390625 
Q 45.015625 31 40.078125 35.4375 
Q 35.15625 39.890625 26.703125 39.890625 
Q 22.75 39.890625 18.8125 39.015625 
Q 14.890625 38.140625 10.796875 36.28125 
z
" id="DejaVuSans-53"/>
      </defs>
      <g transform="translate(131.9529 261.57875)scale(0.08 -0.08)">
       <use xlink:href="#DejaVuSans-53"/>
      </g>
     </g>
    </g>
    <g id="xtick_3">
     <g id="text_3">
      <!-- 7 -->
      <defs>
       <path d="M 8.203125 72.90625 
L 55.078125 72.90625 
L 55.078125 68.703125 
L 28.609375 0 
L 18.3125 0 
L 43.21875 64.59375 
L 8.203125 64.59375 
z
" id="DejaVuSans-55"/>
      </defs>
      <g transform="translate(221.876753 261.57875)scale(0.08 -0.08)">
       <use xlink:href="#DejaVuSans-55"/>
      </g>
     </g>
    </g>
    <g id="text_4">
     <!-- human population [billion] -->
     <defs>
      <path d="M 54.890625 33.015625 
L 54.890625 0 
L 45.90625 0 
L 45.90625 32.71875 
Q 45.90625 40.484375 42.875 44.328125 
Q 39.84375 48.1875 33.796875 48.1875 
Q 26.515625 48.1875 22.3125 43.546875 
Q 18.109375 38.921875 18.109375 30.90625 
L 18.109375 0 
L 9.078125 0 
L 9.078125 75.984375 
L 18.109375 75.984375 
L 18.109375 46.1875 
Q 21.34375 51.125 25.703125 53.5625 
Q 30.078125 56 35.796875 56 
Q 45.21875 56 50.046875 50.171875 
Q 54.890625 44.34375 54.890625 33.015625 
z
" id="DejaVuSans-104"/>
      <path d="M 8.5 21.578125 
L 8.5 54.6875 
L 17.484375 54.6875 
L 17.484375 21.921875 
Q 17.484375 14.15625 20.5 10.265625 
Q 23.53125 6.390625 29.59375 6.390625 
Q 36.859375 6.390625 41.078125 11.03125 
Q 45.3125 15.671875 45.3125 23.6875 
L 45.3125 54.6875 
L 54.296875 54.6875 
L 54.296875 0 
L 45.3125 0 
L 45.3125 8.40625 
Q 42.046875 3.421875 37.71875 1 
Q 33.40625 -1.421875 27.6875 -1.421875 
Q 18.265625 -1.421875 13.375 4.4375 
Q 8.5 10.296875 8.5 21.578125 
z
M 31.109375 56 
z
" id="DejaVuSans-117"/>
      <path d="M 52 44.1875 
Q 55.375 50.25 60.0625 53.125 
Q 64.75 56 71.09375 56 
Q 79.640625 56 84.28125 50.015625 
Q 88.921875 44.046875 88.921875 33.015625 
L 88.921875 0 
L 79.890625 0 
L 79.890625 32.71875 
Q 79.890625 40.578125 77.09375 44.375 
Q 74.3125 48.1875 68.609375 48.1875 
Q 61.625 48.1875 57.5625 43.546875 
Q 53.515625 38.921875 53.515625 30.90625 
L 53.515625 0 
L 44.484375 0 
L 44.484375 32.71875 
Q 44.484375 40.625 41.703125 44.40625 
Q 38.921875 48.1875 33.109375 48.1875 
Q 26.21875 48.1875 22.15625 43.53125 
Q 18.109375 38.875 18.109375 30.90625 
L 18.109375 0 
L 9.078125 0 
L 9.078125 54.6875 
L 18.109375 54.6875 
L 18.109375 46.1875 
Q 21.1875 51.21875 25.484375 53.609375 
Q 29.78125 56 35.6875 56 
Q 41.65625 56 45.828125 52.96875 
Q 50 49.953125 52 44.1875 
z
" id="DejaVuSans-109"/>
      <path d="M 34.28125 27.484375 
Q 23.390625 27.484375 19.1875 25 
Q 14.984375 22.515625 14.984375 16.5 
Q 14.984375 11.71875 18.140625 8.90625 
Q 21.296875 6.109375 26.703125 6.109375 
Q 34.1875 6.109375 38.703125 11.40625 
Q 43.21875 16.703125 43.21875 25.484375 
L 43.21875 27.484375 
z
M 52.203125 31.203125 
L 52.203125 0 
L 43.21875 0 
L 43.21875 8.296875 
Q 40.140625 3.328125 35.546875 0.953125 
Q 30.953125 -1.421875 24.3125 -1.421875 
Q 15.921875 -1.421875 10.953125 3.296875 
Q 6 8.015625 6 15.921875 
Q 6 25.140625 12.171875 29.828125 
Q 18.359375 34.515625 30.609375 34.515625 
L 43.21875 34.515625 
L 43.21875 35.40625 
Q 43.21875 41.609375 39.140625 45 
Q 35.0625 48.390625 27.6875 48.390625 
Q 23 48.390625 18.546875 47.265625 
Q 14.109375 46.140625 10.015625 43.890625 
L 10.015625 52.203125 
Q 14.9375 54.109375 19.578125 55.046875 
Q 24.21875 56 28.609375 56 
Q 40.484375 56 46.34375 49.84375 
Q 52.203125 43.703125 52.203125 31.203125 
z
" id="DejaVuSans-97"/>
      <path d="M 54.890625 33.015625 
L 54.890625 0 
L 45.90625 0 
L 45.90625 32.71875 
Q 45.90625 40.484375 42.875 44.328125 
Q 39.84375 48.1875 33.796875 48.1875 
Q 26.515625 48.1875 22.3125 43.546875 
Q 18.109375 38.921875 18.109375 30.90625 
L 18.109375 0 
L 9.078125 0 
L 9.078125 54.6875 
L 18.109375 54.6875 
L 18.109375 46.1875 
Q 21.34375 51.125 25.703125 53.5625 
Q 30.078125 56 35.796875 56 
Q 45.21875 56 50.046875 50.171875 
Q 54.890625 44.34375 54.890625 33.015625 
z
" id="DejaVuSans-110"/>
      <path id="DejaVuSans-32"/>
      <path d="M 18.109375 8.203125 
L 18.109375 -20.796875 
L 9.078125 -20.796875 
L 9.078125 54.6875 
L 18.109375 54.6875 
L 18.109375 46.390625 
Q 20.953125 51.265625 25.265625 53.625 
Q 29.59375 56 35.59375 56 
Q 45.5625 56 51.78125 48.09375 
Q 58.015625 40.1875 58.015625 27.296875 
Q 58.015625 14.40625 51.78125 6.484375 
Q 45.5625 -1.421875 35.59375 -1.421875 
Q 29.59375 -1.421875 25.265625 0.953125 
Q 20.953125 3.328125 18.109375 8.203125 
z
M 48.6875 27.296875 
Q 48.6875 37.203125 44.609375 42.84375 
Q 40.53125 48.484375 33.40625 48.484375 
Q 26.265625 48.484375 22.1875 42.84375 
Q 18.109375 37.203125 18.109375 27.296875 
Q 18.109375 17.390625 22.1875 11.75 
Q 26.265625 6.109375 33.40625 6.109375 
Q 40.53125 6.109375 44.609375 11.75 
Q 48.6875 17.390625 48.6875 27.296875 
z
" id="DejaVuSans-112"/>
      <path d="M 30.609375 48.390625 
Q 23.390625 48.390625 19.1875 42.75 
Q 14.984375 37.109375 14.984375 27.296875 
Q 14.984375 17.484375 19.15625 11.84375 
Q 23.34375 6.203125 30.609375 6.203125 
Q 37.796875 6.203125 41.984375 11.859375 
Q 46.1875 17.53125 46.1875 27.296875 
Q 46.1875 37.015625 41.984375 42.703125 
Q 37.796875 48.390625 30.609375 48.390625 
z
M 30.609375 56 
Q 42.328125 56 49.015625 48.375 
Q 55.71875 40.765625 55.71875 27.296875 
Q 55.71875 13.875 49.015625 6.21875 
Q 42.328125 -1.421875 30.609375 -1.421875 
Q 18.84375 -1.421875 12.171875 6.21875 
Q 5.515625 13.875 5.515625 27.296875 
Q 5.515625 40.765625 12.171875 48.375 
Q 18.84375 56 30.609375 56 
z
" id="DejaVuSans-111"/>
      <path d="M 9.421875 75.984375 
L 18.40625 75.984375 
L 18.40625 0 
L 9.421875 0 
z
" id="DejaVuSans-108"/>
      <path d="M 18.3125 70.21875 
L 18.3125 54.6875 
L 36.8125 54.6875 
L 36.8125 47.703125 
L 18.3125 47.703125 
L 18.3125 18.015625 
Q 18.3125 11.328125 20.140625 9.421875 
Q 21.96875 7.515625 27.59375 7.515625 
L 36.8125 7.515625 
L 36.8125 0 
L 27.59375 0 
Q 17.1875 0 13.234375 3.875 
Q 9.28125 7.765625 9.28125 18.015625 
L 9.28125 47.703125 
L 2.6875 47.703125 
L 2.6875 54.6875 
L 9.28125 54.6875 
L 9.28125 70.21875 
z
" id="DejaVuSans-116"/>
      <path d="M 9.421875 54.6875 
L 18.40625 54.6875 
L 18.40625 0 
L 9.421875 0 
z
M 9.421875 75.984375 
L 18.40625 75.984375 
L 18.40625 64.59375 
L 9.421875 64.59375 
z
" id="DejaVuSans-105"/>
      <path d="M 8.59375 75.984375 
L 29.296875 75.984375 
L 29.296875 69 
L 17.578125 69 
L 17.578125 -6.203125 
L 29.296875 -6.203125 
L 29.296875 -13.1875 
L 8.59375 -13.1875 
z
" id="DejaVuSans-91"/>
      <path d="M 48.6875 27.296875 
Q 48.6875 37.203125 44.609375 42.84375 
Q 40.53125 48.484375 33.40625 48.484375 
Q 26.265625 48.484375 22.1875 42.84375 
Q 18.109375 37.203125 18.109375 27.296875 
Q 18.109375 17.390625 22.1875 11.75 
Q 26.265625 6.109375 33.40625 6.109375 
Q 40.53125 6.109375 44.609375 11.75 
Q 48.6875 17.390625 48.6875 27.296875 
z
M 18.109375 46.390625 
Q 20.953125 51.265625 25.265625 53.625 
Q 29.59375 56 35.59375 56 
Q 45.5625 56 51.78125 48.09375 
Q 58.015625 40.1875 58.015625 27.296875 
Q 58.015625 14.40625 51.78125 6.484375 
Q 45.5625 -1.421875 35.59375 -1.421875 
Q 29.59375 -1.421875 25.265625 0.953125 
Q 20.953125 3.328125 18.109375 8.203125 
L 18.109375 0 
L 9.078125 0 
L 9.078125 75.984375 
L 18.109375 75.984375 
z
" id="DejaVuSans-98"/>
      <path d="M 30.421875 75.984375 
L 30.421875 -13.1875 
L 9.71875 -13.1875 
L 9.71875 -6.203125 
L 21.390625 -6.203125 
L 21.390625 69 
L 9.71875 69 
L 9.71875 75.984375 
z
" id="DejaVuSans-93"/>
     </defs>
     <g style="fill:#262626;" transform="translate(94.73125 273.32125)scale(0.08 -0.08)">
      <use xlink:href="#DejaVuSans-104"/>
      <use x="63.378906" xlink:href="#DejaVuSans-117"/>
      <use x="126.757812" xlink:href="#DejaVuSans-109"/>
      <use x="224.169922" xlink:href="#DejaVuSans-97"/>
      <use x="285.449219" xlink:href="#DejaVuSans-110"/>
      <use x="348.828125" xlink:href="#DejaVuSans-32"/>
      <use x="380.615234" xlink:href="#DejaVuSans-112"/>
      <use x="444.091797" xlink:href="#DejaVuSans-111"/>
      <use x="505.273438" xlink:href="#DejaVuSans-112"/>
      <use x="568.75" xlink:href="#DejaVuSans-117"/>
      <use x="632.128906" xlink:href="#DejaVuSans-108"/>
      <use x="659.912109" xlink:href="#DejaVuSans-97"/>
      <use x="721.191406" xlink:href="#DejaVuSans-116"/>
      <use x="760.400391" xlink:href="#DejaVuSans-105"/>
      <use x="788.183594" xlink:href="#DejaVuSans-111"/>
      <use x="849.365234" xlink:href="#DejaVuSans-110"/>
      <use x="912.744141" xlink:href="#DejaVuSans-32"/>
      <use x="944.53125" xlink:href="#DejaVuSans-91"/>
      <use x="983.544922" xlink:href="#DejaVuSans-98"/>
      <use x="1047.021484" xlink:href="#DejaVuSans-105"/>
      <use x="1074.804688" xlink:href="#DejaVuSans-108"/>
      <use x="1102.587891" xlink:href="#DejaVuSans-108"/>
      <use x="1130.371094" xlink:href="#DejaVuSans-105"/>
      <use x="1158.154297" xlink:href="#DejaVuSans-111"/>
      <use x="1219.335938" xlink:href="#DejaVuSans-110"/>
      <use x="1282.714844" xlink:href="#DejaVuSans-93"/>
     </g>
    </g>
   </g>
   <g id="matplotlib.axis_2">
    <g id="ytick_1">
     <g id="text_5">
      <!-- 5 -->
      <g transform="translate(27.41 209.920827)scale(0.08 -0.08)">
       <use xlink:href="#DejaVuSans-53"/>
      </g>
     </g>
    </g>
    <g id="ytick_2">
     <g id="text_6">
      <!-- 10 -->
      <defs>
       <path d="M 12.40625 8.296875 
L 28.515625 8.296875 
L 28.515625 63.921875 
L 10.984375 60.40625 
L 10.984375 69.390625 
L 28.421875 72.90625 
L 38.28125 72.90625 
L 38.28125 8.296875 
L 54.390625 8.296875 
L 54.390625 0 
L 12.40625 0 
z
" id="DejaVuSans-49"/>
       <path d="M 31.78125 66.40625 
Q 24.171875 66.40625 20.328125 58.90625 
Q 16.5 51.421875 16.5 36.375 
Q 16.5 21.390625 20.328125 13.890625 
Q 24.171875 6.390625 31.78125 6.390625 
Q 39.453125 6.390625 43.28125 13.890625 
Q 47.125 21.390625 47.125 36.375 
Q 47.125 51.421875 43.28125 58.90625 
Q 39.453125 66.40625 31.78125 66.40625 
z
M 31.78125 74.21875 
Q 44.046875 74.21875 50.515625 64.515625 
Q 56.984375 54.828125 56.984375 36.375 
Q 56.984375 17.96875 50.515625 8.265625 
Q 44.046875 -1.421875 31.78125 -1.421875 
Q 19.53125 -1.421875 13.0625 8.265625 
Q 6.59375 17.96875 6.59375 36.375 
Q 6.59375 54.828125 13.0625 64.515625 
Q 19.53125 74.21875 31.78125 74.21875 
z
" id="DejaVuSans-48"/>
      </defs>
      <g transform="translate(22.32 166.504819)scale(0.08 -0.08)">
       <use xlink:href="#DejaVuSans-49"/>
       <use x="63.623047" xlink:href="#DejaVuSans-48"/>
      </g>
     </g>
    </g>
    <g id="ytick_3">
     <g id="text_7">
      <!-- 15 -->
      <g transform="translate(22.32 123.088811)scale(0.08 -0.08)">
       <use xlink:href="#DejaVuSans-49"/>
       <use x="63.623047" xlink:href="#DejaVuSans-53"/>
      </g>
     </g>
    </g>
    <g id="ytick_4">
     <g id="text_8">
      <!-- 20 -->
      <defs>
       <path d="M 19.1875 8.296875 
L 53.609375 8.296875 
L 53.609375 0 
L 7.328125 0 
L 7.328125 8.296875 
Q 12.9375 14.109375 22.625 23.890625 
Q 32.328125 33.6875 34.8125 36.53125 
Q 39.546875 41.84375 41.421875 45.53125 
Q 43.3125 49.21875 43.3125 52.78125 
Q 43.3125 58.59375 39.234375 62.25 
Q 35.15625 65.921875 28.609375 65.921875 
Q 23.96875 65.921875 18.8125 64.3125 
Q 13.671875 62.703125 7.8125 59.421875 
L 7.8125 69.390625 
Q 13.765625 71.78125 18.9375 73 
Q 24.125 74.21875 28.421875 74.21875 
Q 39.75 74.21875 46.484375 68.546875 
Q 53.21875 62.890625 53.21875 53.421875 
Q 53.21875 48.921875 51.53125 44.890625 
Q 49.859375 40.875 45.40625 35.40625 
Q 44.1875 33.984375 37.640625 27.21875 
Q 31.109375 20.453125 19.1875 8.296875 
z
" id="DejaVuSans-50"/>
      </defs>
      <g transform="translate(22.32 79.672803)scale(0.08 -0.08)">
       <use xlink:href="#DejaVuSans-50"/>
       <use x="63.623047" xlink:href="#DejaVuSans-48"/>
      </g>
     </g>
    </g>
    <g id="text_9">
     <!-- livestock population [billion] -->
     <defs>
      <path d="M 2.984375 54.6875 
L 12.5 54.6875 
L 29.59375 8.796875 
L 46.6875 54.6875 
L 56.203125 54.6875 
L 35.6875 0 
L 23.484375 0 
z
" id="DejaVuSans-118"/>
      <path d="M 56.203125 29.59375 
L 56.203125 25.203125 
L 14.890625 25.203125 
Q 15.484375 15.921875 20.484375 11.0625 
Q 25.484375 6.203125 34.421875 6.203125 
Q 39.59375 6.203125 44.453125 7.46875 
Q 49.3125 8.734375 54.109375 11.28125 
L 54.109375 2.78125 
Q 49.265625 0.734375 44.1875 -0.34375 
Q 39.109375 -1.421875 33.890625 -1.421875 
Q 20.796875 -1.421875 13.15625 6.1875 
Q 5.515625 13.8125 5.515625 26.8125 
Q 5.515625 40.234375 12.765625 48.109375 
Q 20.015625 56 32.328125 56 
Q 43.359375 56 49.78125 48.890625 
Q 56.203125 41.796875 56.203125 29.59375 
z
M 47.21875 32.234375 
Q 47.125 39.59375 43.09375 43.984375 
Q 39.0625 48.390625 32.421875 48.390625 
Q 24.90625 48.390625 20.390625 44.140625 
Q 15.875 39.890625 15.1875 32.171875 
z
" id="DejaVuSans-101"/>
      <path d="M 44.28125 53.078125 
L 44.28125 44.578125 
Q 40.484375 46.53125 36.375 47.5 
Q 32.28125 48.484375 27.875 48.484375 
Q 21.1875 48.484375 17.84375 46.4375 
Q 14.5 44.390625 14.5 40.28125 
Q 14.5 37.15625 16.890625 35.375 
Q 19.28125 33.59375 26.515625 31.984375 
L 29.59375 31.296875 
Q 39.15625 29.25 43.1875 25.515625 
Q 47.21875 21.78125 47.21875 15.09375 
Q 47.21875 7.46875 41.1875 3.015625 
Q 35.15625 -1.421875 24.609375 -1.421875 
Q 20.21875 -1.421875 15.453125 -0.5625 
Q 10.6875 0.296875 5.421875 2 
L 5.421875 11.28125 
Q 10.40625 8.6875 15.234375 7.390625 
Q 20.0625 6.109375 24.8125 6.109375 
Q 31.15625 6.109375 34.5625 8.28125 
Q 37.984375 10.453125 37.984375 14.40625 
Q 37.984375 18.0625 35.515625 20.015625 
Q 33.0625 21.96875 24.703125 23.78125 
L 21.578125 24.515625 
Q 13.234375 26.265625 9.515625 29.90625 
Q 5.8125 33.546875 5.8125 39.890625 
Q 5.8125 47.609375 11.28125 51.796875 
Q 16.75 56 26.8125 56 
Q 31.78125 56 36.171875 55.265625 
Q 40.578125 54.546875 44.28125 53.078125 
z
" id="DejaVuSans-115"/>
      <path d="M 48.78125 52.59375 
L 48.78125 44.1875 
Q 44.96875 46.296875 41.140625 47.34375 
Q 37.3125 48.390625 33.40625 48.390625 
Q 24.65625 48.390625 19.8125 42.84375 
Q 14.984375 37.3125 14.984375 27.296875 
Q 14.984375 17.28125 19.8125 11.734375 
Q 24.65625 6.203125 33.40625 6.203125 
Q 37.3125 6.203125 41.140625 7.25 
Q 44.96875 8.296875 48.78125 10.40625 
L 48.78125 2.09375 
Q 45.015625 0.34375 40.984375 -0.53125 
Q 36.96875 -1.421875 32.421875 -1.421875 
Q 20.0625 -1.421875 12.78125 6.34375 
Q 5.515625 14.109375 5.515625 27.296875 
Q 5.515625 40.671875 12.859375 48.328125 
Q 20.21875 56 33.015625 56 
Q 37.15625 56 41.109375 55.140625 
Q 45.0625 54.296875 48.78125 52.59375 
z
" id="DejaVuSans-99"/>
      <path d="M 9.078125 75.984375 
L 18.109375 75.984375 
L 18.109375 31.109375 
L 44.921875 54.6875 
L 56.390625 54.6875 
L 27.390625 29.109375 
L 57.625 0 
L 45.90625 0 
L 18.109375 26.703125 
L 18.109375 0 
L 9.078125 0 
z
" id="DejaVuSans-107"/>
     </defs>
     <g style="fill:#262626;" transform="translate(16.65625 199.8625)rotate(-90)scale(0.08 -0.08)">
      <use xlink:href="#DejaVuSans-108"/>
      <use x="27.783203" xlink:href="#DejaVuSans-105"/>
      <use x="55.566406" xlink:href="#DejaVuSans-118"/>
      <use x="114.746094" xlink:href="#DejaVuSans-101"/>
      <use x="176.269531" xlink:href="#DejaVuSans-115"/>
      <use x="228.369141" xlink:href="#DejaVuSans-116"/>
      <use x="267.578125" xlink:href="#DejaVuSans-111"/>
      <use x="328.759766" xlink:href="#DejaVuSans-99"/>
      <use x="383.740234" xlink:href="#DejaVuSans-107"/>
      <use x="441.650391" xlink:href="#DejaVuSans-32"/>
      <use x="473.4375" xlink:href="#DejaVuSans-112"/>
      <use x="536.914062" xlink:href="#DejaVuSans-111"/>
      <use x="598.095703" xlink:href="#DejaVuSans-112"/>
      <use x="661.572266" xlink:href="#DejaVuSans-117"/>
      <use x="724.951172" xlink:href="#DejaVuSans-108"/>
      <use x="752.734375" xlink:href="#DejaVuSans-97"/>
      <use x="814.013672" xlink:href="#DejaVuSans-116"/>
      <use x="853.222656" xlink:href="#DejaVuSans-105"/>
      <use x="881.005859" xlink:href="#DejaVuSans-111"/>
      <use x="942.1875" xlink:href="#DejaVuSans-110"/>
      <use x="1005.566406" xlink:href="#DejaVuSans-32"/>
      <use x="1037.353516" xlink:href="#DejaVuSans-91"/>
      <use x="1076.367188" xlink:href="#DejaVuSans-98"/>
      <use x="1139.84375" xlink:href="#DejaVuSans-105"/>
      <use x="1167.626953" xlink:href="#DejaVuSans-108"/>
      <use x="1195.410156" xlink:href="#DejaVuSans-108"/>
      <use x="1223.193359" xlink:href="#DejaVuSans-105"/>
      <use x="1250.976562" xlink:href="#DejaVuSans-111"/>
      <use x="1312.158203" xlink:href="#DejaVuSans-110"/>
      <use x="1375.537109" xlink:href="#DejaVuSans-93"/>
     </g>
    </g>
   </g>
   <g id="line2d_1">
    <path clip-path="url(#p132fbf0a2f)" d="M 46.145455 216.374883 
L 48.703508 215.141538 
L 51.337255 214.148154 
L 54.061058 213.556915 
L 56.89264 212.528364 
L 59.842379 211.695167 
L 62.915034 209.777204 
L 66.100466 208.416902 
L 69.375006 206.981847 
L 72.705853 205.060298 
L 76.067046 203.571936 
L 79.453693 202.202352 
L 82.865882 201.129907 
L 86.288833 199.900592 
L 89.706566 199.125121 
L 93.109574 197.6634 
L 96.490093 195.94957 
L 99.855008 193.09581 
L 103.228386 190.175154 
L 106.64426 187.61684 
L 110.128693 185.052508 
L 113.680382 183.018321 
L 117.294861 181.189725 
L 120.989957 178.445417 
L 124.786646 175.498746 
L 128.694292 171.635286 
L 132.724957 167.28844 
L 136.859397 164.0604 
L 141.036533 161.270548 
L 145.17373 158.079011 
L 149.210839 154.294047 
L 153.125151 150.937911 
L 156.930295 146.588383 
L 160.647646 141.796254 
L 164.31442 139.017386 
L 167.959149 133.170136 
L 171.586631 127.712266 
L 175.190502 136.18523 
L 178.776133 131.830639 
L 182.348138 125.333824 
L 185.911585 120.446406 
L 189.469547 110.333845 
L 193.02813 109.814025 
L 196.598643 104.922161 
L 200.194441 100.746714 
L 203.82501 97.54091 
L 207.494389 91.390607 
L 211.200546 85.580121 
L 214.938774 79.057813 
L 218.701116 74.509187 
L 222.480459 77.065148 
L 226.273928 72.380778 
L 230.079225 68.353275 
L 233.889924 66.918636 
L 237.698594 62.056477 
L 241.498164 52.088153 
L 245.285078 48.738079 
L 249.054545 44.443636 
" style="fill:none;stroke:#1f77b4;stroke-linecap:round;stroke-width:1.5;"/>
    <defs>
     <path d="M 0 1 
C 0.265203 1 0.51958 0.894634 0.707107 0.707107 
C 0.894634 0.51958 1 0.265203 1 0 
C 1 -0.265203 0.894634 -0.51958 0.707107 -0.707107 
C 0.51958 -0.894634 0.265203 -1 0 -1 
C -0.265203 -1 -0.51958 -0.894634 -0.707107 -0.707107 
C -0.894634 -0.51958 -1 -0.265203 -1 0 
C -1 0.265203 -0.894634 0.51958 -0.707107 0.707107 
C -0.51958 0.894634 -0.265203 1 0 1 
z
" id="ma313c03e94" style="stroke:#1f77b4;"/>
    </defs>
    <g clip-path="url(#p132fbf0a2f)">
     <use style="fill:#1f77b4;stroke:#1f77b4;" x="46.145455" xlink:href="#ma313c03e94" y="216.374883"/>
     <use style="fill:#1f77b4;stroke:#1f77b4;" x="48.703508" xlink:href="#ma313c03e94" y="215.141538"/>
     <use style="fill:#1f77b4;stroke:#1f77b4;" x="51.337255" xlink:href="#ma313c03e94" y="214.148154"/>
     <use style="fill:#1f77b4;stroke:#1f77b4;" x="54.061058" xlink:href="#ma313c03e94" y="213.556915"/>
     <use style="fill:#1f77b4;stroke:#1f77b4;" x="56.89264" xlink:href="#ma313c03e94" y="212.528364"/>
     <use style="fill:#1f77b4;stroke:#1f77b4;" x="59.842379" xlink:href="#ma313c03e94" y="211.695167"/>
     <use style="fill:#1f77b4;stroke:#1f77b4;" x="62.915034" xlink:href="#ma313c03e94" y="209.777204"/>
     <use style="fill:#1f77b4;stroke:#1f77b4;" x="66.100466" xlink:href="#ma313c03e94" y="208.416902"/>
     <use style="fill:#1f77b4;stroke:#1f77b4;" x="69.375006" xlink:href="#ma313c03e94" y="206.981847"/>
     <use style="fill:#1f77b4;stroke:#1f77b4;" x="72.705853" xlink:href="#ma313c03e94" y="205.060298"/>
     <use style="fill:#1f77b4;stroke:#1f77b4;" x="76.067046" xlink:href="#ma313c03e94" y="203.571936"/>
     <use style="fill:#1f77b4;stroke:#1f77b4;" x="79.453693" xlink:href="#ma313c03e94" y="202.202352"/>
     <use style="fill:#1f77b4;stroke:#1f77b4;" x="82.865882" xlink:href="#ma313c03e94" y="201.129907"/>
     <use style="fill:#1f77b4;stroke:#1f77b4;" x="86.288833" xlink:href="#ma313c03e94" y="199.900592"/>
     <use style="fill:#1f77b4;stroke:#1f77b4;" x="89.706566" xlink:href="#ma313c03e94" y="199.125121"/>
     <use style="fill:#1f77b4;stroke:#1f77b4;" x="93.109574" xlink:href="#ma313c03e94" y="197.6634"/>
     <use style="fill:#1f77b4;stroke:#1f77b4;" x="96.490093" xlink:href="#ma313c03e94" y="195.94957"/>
     <use style="fill:#1f77b4;stroke:#1f77b4;" x="99.855008" xlink:href="#ma313c03e94" y="193.09581"/>
     <use style="fill:#1f77b4;stroke:#1f77b4;" x="103.228386" xlink:href="#ma313c03e94" y="190.175154"/>
     <use style="fill:#1f77b4;stroke:#1f77b4;" x="106.64426" xlink:href="#ma313c03e94" y="187.61684"/>
     <use style="fill:#1f77b4;stroke:#1f77b4;" x="110.128693" xlink:href="#ma313c03e94" y="185.052508"/>
     <use style="fill:#1f77b4;stroke:#1f77b4;" x="113.680382" xlink:href="#ma313c03e94" y="183.018321"/>
     <use style="fill:#1f77b4;stroke:#1f77b4;" x="117.294861" xlink:href="#ma313c03e94" y="181.189725"/>
     <use style="fill:#1f77b4;stroke:#1f77b4;" x="120.989957" xlink:href="#ma313c03e94" y="178.445417"/>
     <use style="fill:#1f77b4;stroke:#1f77b4;" x="124.786646" xlink:href="#ma313c03e94" y="175.498746"/>
     <use style="fill:#1f77b4;stroke:#1f77b4;" x="128.694292" xlink:href="#ma313c03e94" y="171.635286"/>
     <use style="fill:#1f77b4;stroke:#1f77b4;" x="132.724957" xlink:href="#ma313c03e94" y="167.28844"/>
     <use style="fill:#1f77b4;stroke:#1f77b4;" x="136.859397" xlink:href="#ma313c03e94" y="164.0604"/>
     <use style="fill:#1f77b4;stroke:#1f77b4;" x="141.036533" xlink:href="#ma313c03e94" y="161.270548"/>
     <use style="fill:#1f77b4;stroke:#1f77b4;" x="145.17373" xlink:href="#ma313c03e94" y="158.079011"/>
     <use style="fill:#1f77b4;stroke:#1f77b4;" x="149.210839" xlink:href="#ma313c03e94" y="154.294047"/>
     <use style="fill:#1f77b4;stroke:#1f77b4;" x="153.125151" xlink:href="#ma313c03e94" y="150.937911"/>
     <use style="fill:#1f77b4;stroke:#1f77b4;" x="156.930295" xlink:href="#ma313c03e94" y="146.588383"/>
     <use style="fill:#1f77b4;stroke:#1f77b4;" x="160.647646" xlink:href="#ma313c03e94" y="141.796254"/>
     <use style="fill:#1f77b4;stroke:#1f77b4;" x="164.31442" xlink:href="#ma313c03e94" y="139.017386"/>
     <use style="fill:#1f77b4;stroke:#1f77b4;" x="167.959149" xlink:href="#ma313c03e94" y="133.170136"/>
     <use style="fill:#1f77b4;stroke:#1f77b4;" x="171.586631" xlink:href="#ma313c03e94" y="127.712266"/>
     <use style="fill:#1f77b4;stroke:#1f77b4;" x="175.190502" xlink:href="#ma313c03e94" y="136.18523"/>
     <use style="fill:#1f77b4;stroke:#1f77b4;" x="178.776133" xlink:href="#ma313c03e94" y="131.830639"/>
     <use style="fill:#1f77b4;stroke:#1f77b4;" x="182.348138" xlink:href="#ma313c03e94" y="125.333824"/>
     <use style="fill:#1f77b4;stroke:#1f77b4;" x="185.911585" xlink:href="#ma313c03e94" y="120.446406"/>
     <use style="fill:#1f77b4;stroke:#1f77b4;" x="189.469547" xlink:href="#ma313c03e94" y="110.333845"/>
     <use style="fill:#1f77b4;stroke:#1f77b4;" x="193.02813" xlink:href="#ma313c03e94" y="109.814025"/>
     <use style="fill:#1f77b4;stroke:#1f77b4;" x="196.598643" xlink:href="#ma313c03e94" y="104.922161"/>
     <use style="fill:#1f77b4;stroke:#1f77b4;" x="200.194441" xlink:href="#ma313c03e94" y="100.746714"/>
     <use style="fill:#1f77b4;stroke:#1f77b4;" x="203.82501" xlink:href="#ma313c03e94" y="97.54091"/>
     <use style="fill:#1f77b4;stroke:#1f77b4;" x="207.494389" xlink:href="#ma313c03e94" y="91.390607"/>
     <use style="fill:#1f77b4;stroke:#1f77b4;" x="211.200546" xlink:href="#ma313c03e94" y="85.580121"/>
     <use style="fill:#1f77b4;stroke:#1f77b4;" x="214.938774" xlink:href="#ma313c03e94" y="79.057813"/>
     <use style="fill:#1f77b4;stroke:#1f77b4;" x="218.701116" xlink:href="#ma313c03e94" y="74.509187"/>
     <use style="fill:#1f77b4;stroke:#1f77b4;" x="222.480459" xlink:href="#ma313c03e94" y="77.065148"/>
     <use style="fill:#1f77b4;stroke:#1f77b4;" x="226.273928" xlink:href="#ma313c03e94" y="72.380778"/>
     <use style="fill:#1f77b4;stroke:#1f77b4;" x="230.079225" xlink:href="#ma313c03e94" y="68.353275"/>
     <use style="fill:#1f77b4;stroke:#1f77b4;" x="233.889924" xlink:href="#ma313c03e94" y="66.918636"/>
     <use style="fill:#1f77b4;stroke:#1f77b4;" x="237.698594" xlink:href="#ma313c03e94" y="62.056477"/>
     <use style="fill:#1f77b4;stroke:#1f77b4;" x="241.498164" xlink:href="#ma313c03e94" y="52.088153"/>
     <use style="fill:#1f77b4;stroke:#1f77b4;" x="245.285078" xlink:href="#ma313c03e94" y="48.738079"/>
     <use style="fill:#1f77b4;stroke:#1f77b4;" x="249.054545" xlink:href="#ma313c03e94" y="44.443636"/>
    </g>
   </g>
   <g id="line2d_2">
    <path clip-path="url(#p132fbf0a2f)" d="M 46.145455 242.116364 
L 48.703508 241.986138 
L 51.337255 241.871429 
L 54.061058 241.722145 
L 56.89264 241.536904 
L 59.842379 241.373291 
L 62.915034 241.181984 
L 66.100466 241.05273 
L 69.375006 241.007409 
L 72.705853 240.905349 
L 76.067046 240.775058 
L 79.453693 240.578092 
L 82.865882 240.409702 
L 86.288833 240.166179 
L 89.706566 239.982445 
L 93.109574 239.880472 
L 96.490093 239.836862 
L 99.855008 239.823613 
L 103.228386 239.781497 
L 106.64426 239.729844 
L 110.128693 239.629369 
L 113.680382 239.51046 
L 117.294861 239.448502 
L 120.989957 239.397526 
L 124.786646 239.356514 
L 128.694292 239.298882 
L 132.724957 239.299527 
L 136.859397 239.251217 
L 141.036533 239.103221 
L 145.17373 239.038509 
L 149.210839 238.995104 
L 153.125151 238.923993 
L 156.930295 238.918625 
L 160.647646 238.826513 
L 164.31442 238.746993 
L 167.959149 238.723923 
L 171.586631 238.90158 
L 175.190502 238.894177 
L 178.776133 238.865727 
L 182.348138 238.835667 
L 185.911585 238.82697 
L 189.469547 238.722974 
L 193.02813 238.608769 
L 196.598643 238.485917 
L 200.194441 238.355758 
L 203.82501 238.212303 
L 207.494389 238.115667 
L 211.200546 238.005939 
L 214.938774 238.052351 
L 218.701116 238.038926 
L 222.480459 238.002133 
L 226.273928 237.902806 
L 230.079225 237.86263 
L 233.889924 237.794521 
L 237.698594 237.714764 
L 241.498164 237.547053 
L 245.285078 237.504611 
L 249.054545 237.361708 
" style="fill:none;stroke:#ff7f0e;stroke-linecap:round;stroke-width:1.5;"/>
    <defs>
     <path d="M 0 1 
C 0.265203 1 0.51958 0.894634 0.707107 0.707107 
C 0.894634 0.51958 1 0.265203 1 0 
C 1 -0.265203 0.894634 -0.51958 0.707107 -0.707107 
C 0.51958 -0.894634 0.265203 -1 0 -1 
C -0.265203 -1 -0.51958 -0.894634 -0.707107 -0.707107 
C -0.894634 -0.51958 -1 -0.265203 -1 0 
C -1 0.265203 -0.894634 0.51958 -0.707107 0.707107 
C -0.51958 0.894634 -0.265203 1 0 1 
z
" id="m0346e613e3" style="stroke:#ff7f0e;"/>
    </defs>
    <g clip-path="url(#p132fbf0a2f)">
     <use style="fill:#ff7f0e;stroke:#ff7f0e;" x="46.145455" xlink:href="#m0346e613e3" y="242.116364"/>
     <use style="fill:#ff7f0e;stroke:#ff7f0e;" x="48.703508" xlink:href="#m0346e613e3" y="241.986138"/>
     <use style="fill:#ff7f0e;stroke:#ff7f0e;" x="51.337255" xlink:href="#m0346e613e3" y="241.871429"/>
     <use style="fill:#ff7f0e;stroke:#ff7f0e;" x="54.061058" xlink:href="#m0346e613e3" y="241.722145"/>
     <use style="fill:#ff7f0e;stroke:#ff7f0e;" x="56.89264" xlink:href="#m0346e613e3" y="241.536904"/>
     <use style="fill:#ff7f0e;stroke:#ff7f0e;" x="59.842379" xlink:href="#m0346e613e3" y="241.373291"/>
     <use style="fill:#ff7f0e;stroke:#ff7f0e;" x="62.915034" xlink:href="#m0346e613e3" y="241.181984"/>
     <use style="fill:#ff7f0e;stroke:#ff7f0e;" x="66.100466" xlink:href="#m0346e613e3" y="241.05273"/>
     <use style="fill:#ff7f0e;stroke:#ff7f0e;" x="69.375006" xlink:href="#m0346e613e3" y="241.007409"/>
     <use style="fill:#ff7f0e;stroke:#ff7f0e;" x="72.705853" xlink:href="#m0346e613e3" y="240.905349"/>
     <use style="fill:#ff7f0e;stroke:#ff7f0e;" x="76.067046" xlink:href="#m0346e613e3" y="240.775058"/>
     <use style="fill:#ff7f0e;stroke:#ff7f0e;" x="79.453693" xlink:href="#m0346e613e3" y="240.578092"/>
     <use style="fill:#ff7f0e;stroke:#ff7f0e;" x="82.865882" xlink:href="#m0346e613e3" y="240.409702"/>
     <use style="fill:#ff7f0e;stroke:#ff7f0e;" x="86.288833" xlink:href="#m0346e613e3" y="240.166179"/>
     <use style="fill:#ff7f0e;stroke:#ff7f0e;" x="89.706566" xlink:href="#m0346e613e3" y="239.982445"/>
     <use style="fill:#ff7f0e;stroke:#ff7f0e;" x="93.109574" xlink:href="#m0346e613e3" y="239.880472"/>
     <use style="fill:#ff7f0e;stroke:#ff7f0e;" x="96.490093" xlink:href="#m0346e613e3" y="239.836862"/>
     <use style="fill:#ff7f0e;stroke:#ff7f0e;" x="99.855008" xlink:href="#m0346e613e3" y="239.823613"/>
     <use style="fill:#ff7f0e;stroke:#ff7f0e;" x="103.228386" xlink:href="#m0346e613e3" y="239.781497"/>
     <use style="fill:#ff7f0e;stroke:#ff7f0e;" x="106.64426" xlink:href="#m0346e613e3" y="239.729844"/>
     <use style="fill:#ff7f0e;stroke:#ff7f0e;" x="110.128693" xlink:href="#m0346e613e3" y="239.629369"/>
     <use style="fill:#ff7f0e;stroke:#ff7f0e;" x="113.680382" xlink:href="#m0346e613e3" y="239.51046"/>
     <use style="fill:#ff7f0e;stroke:#ff7f0e;" x="117.294861" xlink:href="#m0346e613e3" y="239.448502"/>
     <use style="fill:#ff7f0e;stroke:#ff7f0e;" x="120.989957" xlink:href="#m0346e613e3" y="239.397526"/>
     <use style="fill:#ff7f0e;stroke:#ff7f0e;" x="124.786646" xlink:href="#m0346e613e3" y="239.356514"/>
     <use style="fill:#ff7f0e;stroke:#ff7f0e;" x="128.694292" xlink:href="#m0346e613e3" y="239.298882"/>
     <use style="fill:#ff7f0e;stroke:#ff7f0e;" x="132.724957" xlink:href="#m0346e613e3" y="239.299527"/>
     <use style="fill:#ff7f0e;stroke:#ff7f0e;" x="136.859397" xlink:href="#m0346e613e3" y="239.251217"/>
     <use style="fill:#ff7f0e;stroke:#ff7f0e;" x="141.036533" xlink:href="#m0346e613e3" y="239.103221"/>
     <use style="fill:#ff7f0e;stroke:#ff7f0e;" x="145.17373" xlink:href="#m0346e613e3" y="239.038509"/>
     <use style="fill:#ff7f0e;stroke:#ff7f0e;" x="149.210839" xlink:href="#m0346e613e3" y="238.995104"/>
     <use style="fill:#ff7f0e;stroke:#ff7f0e;" x="153.125151" xlink:href="#m0346e613e3" y="238.923993"/>
     <use style="fill:#ff7f0e;stroke:#ff7f0e;" x="156.930295" xlink:href="#m0346e613e3" y="238.918625"/>
     <use style="fill:#ff7f0e;stroke:#ff7f0e;" x="160.647646" xlink:href="#m0346e613e3" y="238.826513"/>
     <use style="fill:#ff7f0e;stroke:#ff7f0e;" x="164.31442" xlink:href="#m0346e613e3" y="238.746993"/>
     <use style="fill:#ff7f0e;stroke:#ff7f0e;" x="167.959149" xlink:href="#m0346e613e3" y="238.723923"/>
     <use style="fill:#ff7f0e;stroke:#ff7f0e;" x="171.586631" xlink:href="#m0346e613e3" y="238.90158"/>
     <use style="fill:#ff7f0e;stroke:#ff7f0e;" x="175.190502" xlink:href="#m0346e613e3" y="238.894177"/>
     <use style="fill:#ff7f0e;stroke:#ff7f0e;" x="178.776133" xlink:href="#m0346e613e3" y="238.865727"/>
     <use style="fill:#ff7f0e;stroke:#ff7f0e;" x="182.348138" xlink:href="#m0346e613e3" y="238.835667"/>
     <use style="fill:#ff7f0e;stroke:#ff7f0e;" x="185.911585" xlink:href="#m0346e613e3" y="238.82697"/>
     <use style="fill:#ff7f0e;stroke:#ff7f0e;" x="189.469547" xlink:href="#m0346e613e3" y="238.722974"/>
     <use style="fill:#ff7f0e;stroke:#ff7f0e;" x="193.02813" xlink:href="#m0346e613e3" y="238.608769"/>
     <use style="fill:#ff7f0e;stroke:#ff7f0e;" x="196.598643" xlink:href="#m0346e613e3" y="238.485917"/>
     <use style="fill:#ff7f0e;stroke:#ff7f0e;" x="200.194441" xlink:href="#m0346e613e3" y="238.355758"/>
     <use style="fill:#ff7f0e;stroke:#ff7f0e;" x="203.82501" xlink:href="#m0346e613e3" y="238.212303"/>
     <use style="fill:#ff7f0e;stroke:#ff7f0e;" x="207.494389" xlink:href="#m0346e613e3" y="238.115667"/>
     <use style="fill:#ff7f0e;stroke:#ff7f0e;" x="211.200546" xlink:href="#m0346e613e3" y="238.005939"/>
     <use style="fill:#ff7f0e;stroke:#ff7f0e;" x="214.938774" xlink:href="#m0346e613e3" y="238.052351"/>
     <use style="fill:#ff7f0e;stroke:#ff7f0e;" x="218.701116" xlink:href="#m0346e613e3" y="238.038926"/>
     <use style="fill:#ff7f0e;stroke:#ff7f0e;" x="222.480459" xlink:href="#m0346e613e3" y="238.002133"/>
     <use style="fill:#ff7f0e;stroke:#ff7f0e;" x="226.273928" xlink:href="#m0346e613e3" y="237.902806"/>
     <use style="fill:#ff7f0e;stroke:#ff7f0e;" x="230.079225" xlink:href="#m0346e613e3" y="237.86263"/>
     <use style="fill:#ff7f0e;stroke:#ff7f0e;" x="233.889924" xlink:href="#m0346e613e3" y="237.794521"/>
     <use style="fill:#ff7f0e;stroke:#ff7f0e;" x="237.698594" xlink:href="#m0346e613e3" y="237.714764"/>
     <use style="fill:#ff7f0e;stroke:#ff7f0e;" x="241.498164" xlink:href="#m0346e613e3" y="237.547053"/>
     <use style="fill:#ff7f0e;stroke:#ff7f0e;" x="245.285078" xlink:href="#m0346e613e3" y="237.504611"/>
     <use style="fill:#ff7f0e;stroke:#ff7f0e;" x="249.054545" xlink:href="#m0346e613e3" y="237.361708"/>
    </g>
   </g>
   <g id="patch_3">
    <path d="M 36 252 
L 36 34.56 
" style="fill:none;stroke:#ffffff;stroke-linecap:square;stroke-linejoin:miter;stroke-width:0.8;"/>
   </g>
   <g id="patch_4">
    <path d="M 259.2 252 
L 259.2 34.56 
" style="fill:none;stroke:#ffffff;stroke-linecap:square;stroke-linejoin:miter;stroke-width:0.8;"/>
   </g>
   <g id="patch_5">
    <path d="M 36 252 
L 259.2 252 
" style="fill:none;stroke:#ffffff;stroke-linecap:square;stroke-linejoin:miter;stroke-width:0.8;"/>
   </g>
   <g id="patch_6">
    <path d="M 36 34.56 
L 259.2 34.56 
" style="fill:none;stroke:#ffffff;stroke-linecap:square;stroke-linejoin:miter;stroke-width:0.8;"/>
   </g>
   <g id="legend_1">
    <g id="patch_7">
     <path d="M 43 71.91625 
L 113.389062 71.91625 
Q 115.389062 71.91625 115.389062 69.91625 
L 115.389062 41.56 
Q 115.389062 39.56 113.389062 39.56 
L 43 39.56 
Q 41 39.56 41 41.56 
L 41 69.91625 
Q 41 71.91625 43 71.91625 
z
" style="fill:#e3dcd0;opacity:0.8;stroke:#cccccc;stroke-linejoin:miter;"/>
    </g>
    <g id="line2d_3">
     <path d="M 45 47.658437 
L 65 47.658437 
" style="fill:none;stroke:#1f77b4;stroke-linecap:round;stroke-width:1.5;"/>
    </g>
    <g id="line2d_4">
     <g>
      <use style="fill:#1f77b4;stroke:#1f77b4;" x="55" xlink:href="#ma313c03e94" y="47.658437"/>
     </g>
    </g>
    <g id="text_10">
     <!-- chicken -->
     <g style="fill:#262626;" transform="translate(73 51.158437)scale(0.1 -0.1)">
      <use xlink:href="#DejaVuSans-99"/>
      <use x="54.980469" xlink:href="#DejaVuSans-104"/>
      <use x="118.359375" xlink:href="#DejaVuSans-105"/>
      <use x="146.142578" xlink:href="#DejaVuSans-99"/>
      <use x="201.123047" xlink:href="#DejaVuSans-107"/>
      <use x="258.986328" xlink:href="#DejaVuSans-101"/>
      <use x="320.509766" xlink:href="#DejaVuSans-110"/>
     </g>
    </g>
    <g id="line2d_5">
     <path d="M 45 62.336562 
L 65 62.336562 
" style="fill:none;stroke:#ff7f0e;stroke-linecap:round;stroke-width:1.5;"/>
    </g>
    <g id="line2d_6">
     <g>
      <use style="fill:#ff7f0e;stroke:#ff7f0e;" x="55" xlink:href="#m0346e613e3" y="62.336562"/>
     </g>
    </g>
    <g id="text_11">
     <!-- cattle -->
     <g style="fill:#262626;" transform="translate(73 65.836562)scale(0.1 -0.1)">
      <use xlink:href="#DejaVuSans-99"/>
      <use x="54.980469" xlink:href="#DejaVuSans-97"/>
      <use x="116.259766" xlink:href="#DejaVuSans-116"/>
      <use x="155.46875" xlink:href="#DejaVuSans-116"/>
      <use x="194.677734" xlink:href="#DejaVuSans-108"/>
      <use x="222.460938" xlink:href="#DejaVuSans-101"/>
     </g>
    </g>
   </g>
  </g>
 </g>
 <defs>
  <clipPath id="p132fbf0a2f">
   <rect height="217.44" width="223.2" x="36" y="34.56"/>
  </clipPath>
 </defs>
</svg>
