<?xml version="1.0" encoding="utf-8" standalone="no"?>
<!DOCTYPE svg PUBLIC "-//W3C//DTD SVG 1.1//EN"
  "http://www.w3.org/Graphics/SVG/1.1/DTD/svg11.dtd">
<!-- Created with matplotlib (https://matplotlib.org/) -->
<svg height="288pt" version="1.1" viewBox="0 0 288 288" width="288pt" xmlns="http://www.w3.org/2000/svg" xmlns:xlink="http://www.w3.org/1999/xlink">
 <defs>
  <style type="text/css">
*{stroke-linecap:butt;stroke-linejoin:round;}
  </style>
 </defs>
 <g id="figure_1">
  <g id="patch_1">
   <path d="M 0 288 
L 288 288 
L 288 0 
L 0 0 
z
" style="fill:#ffffff;"/>
  </g>
  <g id="axes_1">
   <g id="patch_2">
    <path d="M 36 252 
L 259.2 252 
L 259.2 34.56 
L 36 34.56 
z
" style="fill:#e3dcd0;"/>
   </g>
   <g id="matplotlib.axis_1">
    <g id="xtick_1">
     <g id="text_1">
      <!-- 3 -->
      <defs>
       <path d="M 40.578125 39.3125 
Q 47.65625 37.796875 51.625 33 
Q 55.609375 28.21875 55.609375 21.1875 
Q 55.609375 10.40625 48.1875 4.484375 
Q 40.765625 -1.421875 27.09375 -1.421875 
Q 22.515625 -1.421875 17.65625 -0.515625 
Q 12.796875 0.390625 7.625 2.203125 
L 7.625 11.71875 
Q 11.71875 9.328125 16.59375 8.109375 
Q 21.484375 6.890625 26.8125 6.890625 
Q 36.078125 6.890625 40.9375 10.546875 
Q 45.796875 14.203125 45.796875 21.1875 
Q 45.796875 27.640625 41.28125 31.265625 
Q 36.765625 34.90625 28.71875 34.90625 
L 20.21875 34.90625 
L 20.21875 43.015625 
L 29.109375 43.015625 
Q 36.375 43.015625 40.234375 45.921875 
Q 44.09375 48.828125 44.09375 54.296875 
Q 44.09375 59.90625 40.109375 62.90625 
Q 36.140625 65.921875 28.71875 65.921875 
Q 24.65625 65.921875 20.015625 65.03125 
Q 15.375 64.15625 9.8125 62.3125 
L 9.8125 71.09375 
Q 15.4375 72.65625 20.34375 73.4375 
Q 25.25 74.21875 29.59375 74.21875 
Q 40.828125 74.21875 47.359375 69.109375 
Q 53.90625 64.015625 53.90625 55.328125 
Q 53.90625 49.265625 50.4375 45.09375 
Q 46.96875 40.921875 40.578125 39.3125 
z
" id="DejaVuSans-51"/>
      </defs>
      <g transform="translate(46.86274 261.57875)scale(0.08 -0.08)">
       <use xlink:href="#DejaVuSans-51"/>
      </g>
     </g>
    </g>
    <g id="xtick_2">
     <g id="text_2">
      <!-- 5 -->
      <defs>
       <path d="M 10.796875 72.90625 
L 49.515625 72.90625 
L 49.515625 64.59375 
L 19.828125 64.59375 
L 19.828125 46.734375 
Q 21.96875 47.46875 24.109375 47.828125 
Q 26.265625 48.1875 28.421875 48.1875 
Q 40.625 48.1875 47.75 41.5 
Q 54.890625 34.8125 54.890625 23.390625 
Q 54.890625 11.625 47.5625 5.09375 
Q 40.234375 -1.421875 26.90625 -1.421875 
Q 22.3125 -1.421875 17.546875 -0.640625 
Q 12.796875 0.140625 7.71875 1.703125 
L 7.71875 11.625 
Q 12.109375 9.234375 16.796875 8.0625 
Q 21.484375 6.890625 26.703125 6.890625 
Q 35.15625 6.890625 40.078125 11.328125 
Q 45.015625 15.765625 45.015625 23.390625 
Q 45.015625 31 40.078125 35.4375 
Q 35.15625 39.890625 26.703125 39.890625 
Q 22.75 39.890625 18.8125 39.015625 
Q 14.890625 38.140625 10.796875 36.28125 
z
" id="DejaVuSans-53"/>
      </defs>
      <g transform="translate(134.660892 261.57875)scale(0.08 -0.08)">
       <use xlink:href="#DejaVuSans-53"/>
      </g>
     </g>
    </g>
    <g id="xtick_3">
     <g id="text_3">
      <!-- 7 -->
      <defs>
       <path d="M 8.203125 72.90625 
L 55.078125 72.90625 
L 55.078125 68.703125 
L 28.609375 0 
L 18.3125 0 
L 43.21875 64.59375 
L 8.203125 64.59375 
z
" id="DejaVuSans-55"/>
      </defs>
      <g transform="translate(222.459045 261.57875)scale(0.08 -0.08)">
       <use xlink:href="#DejaVuSans-55"/>
      </g>
     </g>
    </g>
    <g id="text_4">
     <!-- human population [billion] -->
     <defs>
      <path d="M 54.890625 33.015625 
L 54.890625 0 
L 45.90625 0 
L 45.90625 32.71875 
Q 45.90625 40.484375 42.875 44.328125 
Q 39.84375 48.1875 33.796875 48.1875 
Q 26.515625 48.1875 22.3125 43.546875 
Q 18.109375 38.921875 18.109375 30.90625 
L 18.109375 0 
L 9.078125 0 
L 9.078125 75.984375 
L 18.109375 75.984375 
L 18.109375 46.1875 
Q 21.34375 51.125 25.703125 53.5625 
Q 30.078125 56 35.796875 56 
Q 45.21875 56 50.046875 50.171875 
Q 54.890625 44.34375 54.890625 33.015625 
z
" id="DejaVuSans-104"/>
      <path d="M 8.5 21.578125 
L 8.5 54.6875 
L 17.484375 54.6875 
L 17.484375 21.921875 
Q 17.484375 14.15625 20.5 10.265625 
Q 23.53125 6.390625 29.59375 6.390625 
Q 36.859375 6.390625 41.078125 11.03125 
Q 45.3125 15.671875 45.3125 23.6875 
L 45.3125 54.6875 
L 54.296875 54.6875 
L 54.296875 0 
L 45.3125 0 
L 45.3125 8.40625 
Q 42.046875 3.421875 37.71875 1 
Q 33.40625 -1.421875 27.6875 -1.421875 
Q 18.265625 -1.421875 13.375 4.4375 
Q 8.5 10.296875 8.5 21.578125 
z
M 31.109375 56 
z
" id="DejaVuSans-117"/>
      <path d="M 52 44.1875 
Q 55.375 50.25 60.0625 53.125 
Q 64.75 56 71.09375 56 
Q 79.640625 56 84.28125 50.015625 
Q 88.921875 44.046875 88.921875 33.015625 
L 88.921875 0 
L 79.890625 0 
L 79.890625 32.71875 
Q 79.890625 40.578125 77.09375 44.375 
Q 74.3125 48.1875 68.609375 48.1875 
Q 61.625 48.1875 57.5625 43.546875 
Q 53.515625 38.921875 53.515625 30.90625 
L 53.515625 0 
L 44.484375 0 
L 44.484375 32.71875 
Q 44.484375 40.625 41.703125 44.40625 
Q 38.921875 48.1875 33.109375 48.1875 
Q 26.21875 48.1875 22.15625 43.53125 
Q 18.109375 38.875 18.109375 30.90625 
L 18.109375 0 
L 9.078125 0 
L 9.078125 54.6875 
L 18.109375 54.6875 
L 18.109375 46.1875 
Q 21.1875 51.21875 25.484375 53.609375 
Q 29.78125 56 35.6875 56 
Q 41.65625 56 45.828125 52.96875 
Q 50 49.953125 52 44.1875 
z
" id="DejaVuSans-109"/>
      <path d="M 34.28125 27.484375 
Q 23.390625 27.484375 19.1875 25 
Q 14.984375 22.515625 14.984375 16.5 
Q 14.984375 11.71875 18.140625 8.90625 
Q 21.296875 6.109375 26.703125 6.109375 
Q 34.1875 6.109375 38.703125 11.40625 
Q 43.21875 16.703125 43.21875 25.484375 
L 43.21875 27.484375 
z
M 52.203125 31.203125 
L 52.203125 0 
L 43.21875 0 
L 43.21875 8.296875 
Q 40.140625 3.328125 35.546875 0.953125 
Q 30.953125 -1.421875 24.3125 -1.421875 
Q 15.921875 -1.421875 10.953125 3.296875 
Q 6 8.015625 6 15.921875 
Q 6 25.140625 12.171875 29.828125 
Q 18.359375 34.515625 30.609375 34.515625 
L 43.21875 34.515625 
L 43.21875 35.40625 
Q 43.21875 41.609375 39.140625 45 
Q 35.0625 48.390625 27.6875 48.390625 
Q 23 48.390625 18.546875 47.265625 
Q 14.109375 46.140625 10.015625 43.890625 
L 10.015625 52.203125 
Q 14.9375 54.109375 19.578125 55.046875 
Q 24.21875 56 28.609375 56 
Q 40.484375 56 46.34375 49.84375 
Q 52.203125 43.703125 52.203125 31.203125 
z
" id="DejaVuSans-97"/>
      <path d="M 54.890625 33.015625 
L 54.890625 0 
L 45.90625 0 
L 45.90625 32.71875 
Q 45.90625 40.484375 42.875 44.328125 
Q 39.84375 48.1875 33.796875 48.1875 
Q 26.515625 48.1875 22.3125 43.546875 
Q 18.109375 38.921875 18.109375 30.90625 
L 18.109375 0 
L 9.078125 0 
L 9.078125 54.6875 
L 18.109375 54.6875 
L 18.109375 46.1875 
Q 21.34375 51.125 25.703125 53.5625 
Q 30.078125 56 35.796875 56 
Q 45.21875 56 50.046875 50.171875 
Q 54.890625 44.34375 54.890625 33.015625 
z
" id="DejaVuSans-110"/>
      <path id="DejaVuSans-32"/>
      <path d="M 18.109375 8.203125 
L 18.109375 -20.796875 
L 9.078125 -20.796875 
L 9.078125 54.6875 
L 18.109375 54.6875 
L 18.109375 46.390625 
Q 20.953125 51.265625 25.265625 53.625 
Q 29.59375 56 35.59375 56 
Q 45.5625 56 51.78125 48.09375 
Q 58.015625 40.1875 58.015625 27.296875 
Q 58.015625 14.40625 51.78125 6.484375 
Q 45.5625 -1.421875 35.59375 -1.421875 
Q 29.59375 -1.421875 25.265625 0.953125 
Q 20.953125 3.328125 18.109375 8.203125 
z
M 48.6875 27.296875 
Q 48.6875 37.203125 44.609375 42.84375 
Q 40.53125 48.484375 33.40625 48.484375 
Q 26.265625 48.484375 22.1875 42.84375 
Q 18.109375 37.203125 18.109375 27.296875 
Q 18.109375 17.390625 22.1875 11.75 
Q 26.265625 6.109375 33.40625 6.109375 
Q 40.53125 6.109375 44.609375 11.75 
Q 48.6875 17.390625 48.6875 27.296875 
z
" id="DejaVuSans-112"/>
      <path d="M 30.609375 48.390625 
Q 23.390625 48.390625 19.1875 42.75 
Q 14.984375 37.109375 14.984375 27.296875 
Q 14.984375 17.484375 19.15625 11.84375 
Q 23.34375 6.203125 30.609375 6.203125 
Q 37.796875 6.203125 41.984375 11.859375 
Q 46.1875 17.53125 46.1875 27.296875 
Q 46.1875 37.015625 41.984375 42.703125 
Q 37.796875 48.390625 30.609375 48.390625 
z
M 30.609375 56 
Q 42.328125 56 49.015625 48.375 
Q 55.71875 40.765625 55.71875 27.296875 
Q 55.71875 13.875 49.015625 6.21875 
Q 42.328125 -1.421875 30.609375 -1.421875 
Q 18.84375 -1.421875 12.171875 6.21875 
Q 5.515625 13.875 5.515625 27.296875 
Q 5.515625 40.765625 12.171875 48.375 
Q 18.84375 56 30.609375 56 
z
" id="DejaVuSans-111"/>
      <path d="M 9.421875 75.984375 
L 18.40625 75.984375 
L 18.40625 0 
L 9.421875 0 
z
" id="DejaVuSans-108"/>
      <path d="M 18.3125 70.21875 
L 18.3125 54.6875 
L 36.8125 54.6875 
L 36.8125 47.703125 
L 18.3125 47.703125 
L 18.3125 18.015625 
Q 18.3125 11.328125 20.140625 9.421875 
Q 21.96875 7.515625 27.59375 7.515625 
L 36.8125 7.515625 
L 36.8125 0 
L 27.59375 0 
Q 17.1875 0 13.234375 3.875 
Q 9.28125 7.765625 9.28125 18.015625 
L 9.28125 47.703125 
L 2.6875 47.703125 
L 2.6875 54.6875 
L 9.28125 54.6875 
L 9.28125 70.21875 
z
" id="DejaVuSans-116"/>
      <path d="M 9.421875 54.6875 
L 18.40625 54.6875 
L 18.40625 0 
L 9.421875 0 
z
M 9.421875 75.984375 
L 18.40625 75.984375 
L 18.40625 64.59375 
L 9.421875 64.59375 
z
" id="DejaVuSans-105"/>
      <path d="M 8.59375 75.984375 
L 29.296875 75.984375 
L 29.296875 69 
L 17.578125 69 
L 17.578125 -6.203125 
L 29.296875 -6.203125 
L 29.296875 -13.1875 
L 8.59375 -13.1875 
z
" id="DejaVuSans-91"/>
      <path d="M 48.6875 27.296875 
Q 48.6875 37.203125 44.609375 42.84375 
Q 40.53125 48.484375 33.40625 48.484375 
Q 26.265625 48.484375 22.1875 42.84375 
Q 18.109375 37.203125 18.109375 27.296875 
Q 18.109375 17.390625 22.1875 11.75 
Q 26.265625 6.109375 33.40625 6.109375 
Q 40.53125 6.109375 44.609375 11.75 
Q 48.6875 17.390625 48.6875 27.296875 
z
M 18.109375 46.390625 
Q 20.953125 51.265625 25.265625 53.625 
Q 29.59375 56 35.59375 56 
Q 45.5625 56 51.78125 48.09375 
Q 58.015625 40.1875 58.015625 27.296875 
Q 58.015625 14.40625 51.78125 6.484375 
Q 45.5625 -1.421875 35.59375 -1.421875 
Q 29.59375 -1.421875 25.265625 0.953125 
Q 20.953125 3.328125 18.109375 8.203125 
L 18.109375 0 
L 9.078125 0 
L 9.078125 75.984375 
L 18.109375 75.984375 
z
" id="DejaVuSans-98"/>
      <path d="M 30.421875 75.984375 
L 30.421875 -13.1875 
L 9.71875 -13.1875 
L 9.71875 -6.203125 
L 21.390625 -6.203125 
L 21.390625 69 
L 9.71875 69 
L 9.71875 75.984375 
z
" id="DejaVuSans-93"/>
     </defs>
     <g style="fill:#262626;" transform="translate(94.73125 273.32125)scale(0.08 -0.08)">
      <use xlink:href="#DejaVuSans-104"/>
      <use x="63.378906" xlink:href="#DejaVuSans-117"/>
      <use x="126.757812" xlink:href="#DejaVuSans-109"/>
      <use x="224.169922" xlink:href="#DejaVuSans-97"/>
      <use x="285.449219" xlink:href="#DejaVuSans-110"/>
      <use x="348.828125" xlink:href="#DejaVuSans-32"/>
      <use x="380.615234" xlink:href="#DejaVuSans-112"/>
      <use x="444.091797" xlink:href="#DejaVuSans-111"/>
      <use x="505.273438" xlink:href="#DejaVuSans-112"/>
      <use x="568.75" xlink:href="#DejaVuSans-117"/>
      <use x="632.128906" xlink:href="#DejaVuSans-108"/>
      <use x="659.912109" xlink:href="#DejaVuSans-97"/>
      <use x="721.191406" xlink:href="#DejaVuSans-116"/>
      <use x="760.400391" xlink:href="#DejaVuSans-105"/>
      <use x="788.183594" xlink:href="#DejaVuSans-111"/>
      <use x="849.365234" xlink:href="#DejaVuSans-110"/>
      <use x="912.744141" xlink:href="#DejaVuSans-32"/>
      <use x="944.53125" xlink:href="#DejaVuSans-91"/>
      <use x="983.544922" xlink:href="#DejaVuSans-98"/>
      <use x="1047.021484" xlink:href="#DejaVuSans-105"/>
      <use x="1074.804688" xlink:href="#DejaVuSans-108"/>
      <use x="1102.587891" xlink:href="#DejaVuSans-108"/>
      <use x="1130.371094" xlink:href="#DejaVuSans-105"/>
      <use x="1158.154297" xlink:href="#DejaVuSans-111"/>
      <use x="1219.335938" xlink:href="#DejaVuSans-110"/>
      <use x="1282.714844" xlink:href="#DejaVuSans-93"/>
     </g>
    </g>
   </g>
   <g id="matplotlib.axis_2">
    <g id="ytick_1">
     <g id="text_5">
      <!-- 20 -->
      <defs>
       <path d="M 19.1875 8.296875 
L 53.609375 8.296875 
L 53.609375 0 
L 7.328125 0 
L 7.328125 8.296875 
Q 12.9375 14.109375 22.625 23.890625 
Q 32.328125 33.6875 34.8125 36.53125 
Q 39.546875 41.84375 41.421875 45.53125 
Q 43.3125 49.21875 43.3125 52.78125 
Q 43.3125 58.59375 39.234375 62.25 
Q 35.15625 65.921875 28.609375 65.921875 
Q 23.96875 65.921875 18.8125 64.3125 
Q 13.671875 62.703125 7.8125 59.421875 
L 7.8125 69.390625 
Q 13.765625 71.78125 18.9375 73 
Q 24.125 74.21875 28.421875 74.21875 
Q 39.75 74.21875 46.484375 68.546875 
Q 53.21875 62.890625 53.21875 53.421875 
Q 53.21875 48.921875 51.53125 44.890625 
Q 49.859375 40.875 45.40625 35.40625 
Q 44.1875 33.984375 37.640625 27.21875 
Q 31.109375 20.453125 19.1875 8.296875 
z
" id="DejaVuSans-50"/>
       <path d="M 31.78125 66.40625 
Q 24.171875 66.40625 20.328125 58.90625 
Q 16.5 51.421875 16.5 36.375 
Q 16.5 21.390625 20.328125 13.890625 
Q 24.171875 6.390625 31.78125 6.390625 
Q 39.453125 6.390625 43.28125 13.890625 
Q 47.125 21.390625 47.125 36.375 
Q 47.125 51.421875 43.28125 58.90625 
Q 39.453125 66.40625 31.78125 66.40625 
z
M 31.78125 74.21875 
Q 44.046875 74.21875 50.515625 64.515625 
Q 56.984375 54.828125 56.984375 36.375 
Q 56.984375 17.96875 50.515625 8.265625 
Q 44.046875 -1.421875 31.78125 -1.421875 
Q 19.53125 -1.421875 13.0625 8.265625 
Q 6.59375 17.96875 6.59375 36.375 
Q 6.59375 54.828125 13.0625 64.515625 
Q 19.53125 74.21875 31.78125 74.21875 
z
" id="DejaVuSans-48"/>
      </defs>
      <g transform="translate(22.32 198.925827)scale(0.08 -0.08)">
       <use xlink:href="#DejaVuSans-50"/>
       <use x="63.623047" xlink:href="#DejaVuSans-48"/>
      </g>
     </g>
    </g>
    <g id="ytick_2">
     <g id="text_6">
      <!-- 30 -->
      <g transform="translate(22.32 128.783891)scale(0.08 -0.08)">
       <use xlink:href="#DejaVuSans-51"/>
       <use x="63.623047" xlink:href="#DejaVuSans-48"/>
      </g>
     </g>
    </g>
    <g id="ytick_3">
     <g id="text_7">
      <!-- 40 -->
      <defs>
       <path d="M 37.796875 64.3125 
L 12.890625 25.390625 
L 37.796875 25.390625 
z
M 35.203125 72.90625 
L 47.609375 72.90625 
L 47.609375 25.390625 
L 58.015625 25.390625 
L 58.015625 17.1875 
L 47.609375 17.1875 
L 47.609375 0 
L 37.796875 0 
L 37.796875 17.1875 
L 4.890625 17.1875 
L 4.890625 26.703125 
z
" id="DejaVuSans-52"/>
      </defs>
      <g transform="translate(22.32 58.641956)scale(0.08 -0.08)">
       <use xlink:href="#DejaVuSans-52"/>
       <use x="63.623047" xlink:href="#DejaVuSans-48"/>
      </g>
     </g>
    </g>
    <g id="text_8">
     <!-- CO$_{2}$ emissions [10$^{12}$ kg CO$_{2}$ / yr] -->
     <defs>
      <path d="M 64.40625 67.28125 
L 64.40625 56.890625 
Q 59.421875 61.53125 53.78125 63.8125 
Q 48.140625 66.109375 41.796875 66.109375 
Q 29.296875 66.109375 22.65625 58.46875 
Q 16.015625 50.828125 16.015625 36.375 
Q 16.015625 21.96875 22.65625 14.328125 
Q 29.296875 6.6875 41.796875 6.6875 
Q 48.140625 6.6875 53.78125 8.984375 
Q 59.421875 11.28125 64.40625 15.921875 
L 64.40625 5.609375 
Q 59.234375 2.09375 53.4375 0.328125 
Q 47.65625 -1.421875 41.21875 -1.421875 
Q 24.65625 -1.421875 15.125 8.703125 
Q 5.609375 18.84375 5.609375 36.375 
Q 5.609375 53.953125 15.125 64.078125 
Q 24.65625 74.21875 41.21875 74.21875 
Q 47.75 74.21875 53.53125 72.484375 
Q 59.328125 70.75 64.40625 67.28125 
z
" id="DejaVuSans-67"/>
      <path d="M 39.40625 66.21875 
Q 28.65625 66.21875 22.328125 58.203125 
Q 16.015625 50.203125 16.015625 36.375 
Q 16.015625 22.609375 22.328125 14.59375 
Q 28.65625 6.59375 39.40625 6.59375 
Q 50.140625 6.59375 56.421875 14.59375 
Q 62.703125 22.609375 62.703125 36.375 
Q 62.703125 50.203125 56.421875 58.203125 
Q 50.140625 66.21875 39.40625 66.21875 
z
M 39.40625 74.21875 
Q 54.734375 74.21875 63.90625 63.9375 
Q 73.09375 53.65625 73.09375 36.375 
Q 73.09375 19.140625 63.90625 8.859375 
Q 54.734375 -1.421875 39.40625 -1.421875 
Q 24.03125 -1.421875 14.8125 8.828125 
Q 5.609375 19.09375 5.609375 36.375 
Q 5.609375 53.65625 14.8125 63.9375 
Q 24.03125 74.21875 39.40625 74.21875 
z
" id="DejaVuSans-79"/>
      <path d="M 46.90625 7.09375 
L 44 0 
L 3.5 0 
L 3.5 2.09375 
L 21 23.5 
L 21 23.40625 
L 26.59375 30.203125 
Q 30.5 34.90625 32.09375 36.953125 
Q 33.703125 39 35.203125 41.953125 
Q 36.703125 44.90625 36.703125 47.5 
Q 36.703125 53.703125 33.34375 57.09375 
Q 30 60.5 24.203125 60.5 
Q 19.59375 60.5 15.75 56.703125 
Q 11.90625 52.90625 10.90625 45.90625 
L 3.703125 47.59375 
Q 5.296875 56.5 11.1875 62.046875 
Q 17.09375 67.59375 24.90625 67.59375 
Q 33.59375 67.59375 39.09375 62.1875 
Q 44.59375 56.796875 44.59375 49.09375 
Q 44.59375 43.5 42.5 39.453125 
Q 40.40625 35.40625 33.703125 27 
L 17.703125 7.09375 
z
" id="STIXGeneral-Regular-120804"/>
      <path d="M 56.203125 29.59375 
L 56.203125 25.203125 
L 14.890625 25.203125 
Q 15.484375 15.921875 20.484375 11.0625 
Q 25.484375 6.203125 34.421875 6.203125 
Q 39.59375 6.203125 44.453125 7.46875 
Q 49.3125 8.734375 54.109375 11.28125 
L 54.109375 2.78125 
Q 49.265625 0.734375 44.1875 -0.34375 
Q 39.109375 -1.421875 33.890625 -1.421875 
Q 20.796875 -1.421875 13.15625 6.1875 
Q 5.515625 13.8125 5.515625 26.8125 
Q 5.515625 40.234375 12.765625 48.109375 
Q 20.015625 56 32.328125 56 
Q 43.359375 56 49.78125 48.890625 
Q 56.203125 41.796875 56.203125 29.59375 
z
M 47.21875 32.234375 
Q 47.125 39.59375 43.09375 43.984375 
Q 39.0625 48.390625 32.421875 48.390625 
Q 24.90625 48.390625 20.390625 44.140625 
Q 15.875 39.890625 15.1875 32.171875 
z
" id="DejaVuSans-101"/>
      <path d="M 44.28125 53.078125 
L 44.28125 44.578125 
Q 40.484375 46.53125 36.375 47.5 
Q 32.28125 48.484375 27.875 48.484375 
Q 21.1875 48.484375 17.84375 46.4375 
Q 14.5 44.390625 14.5 40.28125 
Q 14.5 37.15625 16.890625 35.375 
Q 19.28125 33.59375 26.515625 31.984375 
L 29.59375 31.296875 
Q 39.15625 29.25 43.1875 25.515625 
Q 47.21875 21.78125 47.21875 15.09375 
Q 47.21875 7.46875 41.1875 3.015625 
Q 35.15625 -1.421875 24.609375 -1.421875 
Q 20.21875 -1.421875 15.453125 -0.5625 
Q 10.6875 0.296875 5.421875 2 
L 5.421875 11.28125 
Q 10.40625 8.6875 15.234375 7.390625 
Q 20.0625 6.109375 24.8125 6.109375 
Q 31.15625 6.109375 34.5625 8.28125 
Q 37.984375 10.453125 37.984375 14.40625 
Q 37.984375 18.0625 35.515625 20.015625 
Q 33.0625 21.96875 24.703125 23.78125 
L 21.578125 24.515625 
Q 13.234375 26.265625 9.515625 29.90625 
Q 5.8125 33.546875 5.8125 39.890625 
Q 5.8125 47.609375 11.28125 51.796875 
Q 16.75 56 26.8125 56 
Q 31.78125 56 36.171875 55.265625 
Q 40.578125 54.546875 44.28125 53.078125 
z
" id="DejaVuSans-115"/>
      <path d="M 12.40625 8.296875 
L 28.515625 8.296875 
L 28.515625 63.921875 
L 10.984375 60.40625 
L 10.984375 69.390625 
L 28.421875 72.90625 
L 38.28125 72.90625 
L 38.28125 8.296875 
L 54.390625 8.296875 
L 54.390625 0 
L 12.40625 0 
z
" id="DejaVuSans-49"/>
      <path d="M 30.203125 0 
L 22.296875 0 
L 22.296875 57 
Q 20.09375 56 15.75 53.75 
Q 11.40625 51.5 10.796875 51.203125 
L 10.796875 58.5 
L 28.796875 67.703125 
L 30.203125 67.203125 
z
" id="STIXGeneral-Regular-120803"/>
      <path d="M 9.078125 75.984375 
L 18.109375 75.984375 
L 18.109375 31.109375 
L 44.921875 54.6875 
L 56.390625 54.6875 
L 27.390625 29.109375 
L 57.625 0 
L 45.90625 0 
L 18.109375 26.703125 
L 18.109375 0 
L 9.078125 0 
z
" id="DejaVuSans-107"/>
      <path d="M 45.40625 27.984375 
Q 45.40625 37.75 41.375 43.109375 
Q 37.359375 48.484375 30.078125 48.484375 
Q 22.859375 48.484375 18.828125 43.109375 
Q 14.796875 37.75 14.796875 27.984375 
Q 14.796875 18.265625 18.828125 12.890625 
Q 22.859375 7.515625 30.078125 7.515625 
Q 37.359375 7.515625 41.375 12.890625 
Q 45.40625 18.265625 45.40625 27.984375 
z
M 54.390625 6.78125 
Q 54.390625 -7.171875 48.1875 -13.984375 
Q 42 -20.796875 29.203125 -20.796875 
Q 24.46875 -20.796875 20.265625 -20.09375 
Q 16.0625 -19.390625 12.109375 -17.921875 
L 12.109375 -9.1875 
Q 16.0625 -11.328125 19.921875 -12.34375 
Q 23.78125 -13.375 27.78125 -13.375 
Q 36.625 -13.375 41.015625 -8.765625 
Q 45.40625 -4.15625 45.40625 5.171875 
L 45.40625 9.625 
Q 42.625 4.78125 38.28125 2.390625 
Q 33.9375 0 27.875 0 
Q 17.828125 0 11.671875 7.65625 
Q 5.515625 15.328125 5.515625 27.984375 
Q 5.515625 40.671875 11.671875 48.328125 
Q 17.828125 56 27.875 56 
Q 33.9375 56 38.28125 53.609375 
Q 42.625 51.21875 45.40625 46.390625 
L 45.40625 54.6875 
L 54.390625 54.6875 
z
" id="DejaVuSans-103"/>
      <path d="M 25.390625 72.90625 
L 33.6875 72.90625 
L 8.296875 -9.28125 
L 0 -9.28125 
z
" id="DejaVuSans-47"/>
      <path d="M 32.171875 -5.078125 
Q 28.375 -14.84375 24.75 -17.8125 
Q 21.140625 -20.796875 15.09375 -20.796875 
L 7.90625 -20.796875 
L 7.90625 -13.28125 
L 13.1875 -13.28125 
Q 16.890625 -13.28125 18.9375 -11.515625 
Q 21 -9.765625 23.484375 -3.21875 
L 25.09375 0.875 
L 2.984375 54.6875 
L 12.5 54.6875 
L 29.59375 11.921875 
L 46.6875 54.6875 
L 56.203125 54.6875 
z
" id="DejaVuSans-121"/>
      <path d="M 41.109375 46.296875 
Q 39.59375 47.171875 37.8125 47.578125 
Q 36.03125 48 33.890625 48 
Q 26.265625 48 22.1875 43.046875 
Q 18.109375 38.09375 18.109375 28.8125 
L 18.109375 0 
L 9.078125 0 
L 9.078125 54.6875 
L 18.109375 54.6875 
L 18.109375 46.1875 
Q 20.953125 51.171875 25.484375 53.578125 
Q 30.03125 56 36.53125 56 
Q 37.453125 56 38.578125 55.875 
Q 39.703125 55.765625 41.0625 55.515625 
z
" id="DejaVuSans-114"/>
     </defs>
     <g style="fill:#262626;" transform="translate(16.64 207)rotate(-90)scale(0.08 -0.08)">
      <use transform="translate(0 0.370312)" xlink:href="#DejaVuSans-67"/>
      <use transform="translate(69.824219 0.370312)" xlink:href="#DejaVuSans-79"/>
      <use transform="translate(149.327852 -13.21875)scale(0.7)" xlink:href="#STIXGeneral-Regular-120804"/>
      <use transform="translate(186.592685 0.370312)" xlink:href="#DejaVuSans-32"/>
      <use transform="translate(218.379794 0.370312)" xlink:href="#DejaVuSans-101"/>
      <use transform="translate(279.903232 0.370312)" xlink:href="#DejaVuSans-109"/>
      <use transform="translate(377.315341 0.370312)" xlink:href="#DejaVuSans-105"/>
      <use transform="translate(405.098544 0.370312)" xlink:href="#DejaVuSans-115"/>
      <use transform="translate(457.198153 0.370312)" xlink:href="#DejaVuSans-115"/>
      <use transform="translate(509.297763 0.370312)" xlink:href="#DejaVuSans-105"/>
      <use transform="translate(537.080966 0.370312)" xlink:href="#DejaVuSans-111"/>
      <use transform="translate(598.262607 0.370312)" xlink:href="#DejaVuSans-110"/>
      <use transform="translate(661.641513 0.370312)" xlink:href="#DejaVuSans-115"/>
      <use transform="translate(713.741122 0.370312)" xlink:href="#DejaVuSans-32"/>
      <use transform="translate(745.528232 0.370312)" xlink:href="#DejaVuSans-91"/>
      <use transform="translate(784.541903 0.370312)" xlink:href="#DejaVuSans-49"/>
      <use transform="translate(848.16495 0.370312)" xlink:href="#DejaVuSans-48"/>
      <use transform="translate(912.580692 36.607813)scale(0.7)" xlink:href="#STIXGeneral-Regular-120803"/>
      <use transform="translate(947.580682 36.607813)scale(0.7)" xlink:href="#STIXGeneral-Regular-120804"/>
      <use transform="translate(984.845515 0.370312)" xlink:href="#DejaVuSans-32"/>
      <use transform="translate(1016.632624 0.370312)" xlink:href="#DejaVuSans-107"/>
      <use transform="translate(1074.54278 0.370312)" xlink:href="#DejaVuSans-103"/>
      <use transform="translate(1138.019343 0.370312)" xlink:href="#DejaVuSans-32"/>
      <use transform="translate(1169.806452 0.370312)" xlink:href="#DejaVuSans-67"/>
      <use transform="translate(1239.630671 0.370312)" xlink:href="#DejaVuSans-79"/>
      <use transform="translate(1319.134304 -13.21875)scale(0.7)" xlink:href="#STIXGeneral-Regular-120804"/>
      <use transform="translate(1356.399137 0.370312)" xlink:href="#DejaVuSans-32"/>
      <use transform="translate(1388.186246 0.370312)" xlink:href="#DejaVuSans-47"/>
      <use transform="translate(1421.877653 0.370312)" xlink:href="#DejaVuSans-32"/>
      <use transform="translate(1453.664762 0.370312)" xlink:href="#DejaVuSans-121"/>
      <use transform="translate(1512.844449 0.370312)" xlink:href="#DejaVuSans-114"/>
      <use transform="translate(1553.957731 0.370312)" xlink:href="#DejaVuSans-93"/>
     </g>
    </g>
   </g>
   <g id="line2d_1">
    <path clip-path="url(#pfdfa43283f)" d="M 46.145455 227.450323 
L 48.511153 228.0816 
L 50.942001 229.90529 
L 53.439585 228.853161 
L 56.011074 226.468335 
L 58.670489 224.153652 
L 61.435136 221.90911 
L 64.315146 219.384 
L 67.315166 217.349884 
L 70.425299 212.790658 
L 73.622432 206.618168 
L 76.874541 199.323406 
L 80.156279 195.746168 
L 83.46287 191.46751 
L 86.794399 186.066581 
L 90.136435 187.469419 
L 93.473376 188.170839 
L 96.795941 182.278916 
L 100.096548 179.332955 
L 103.38192 175.54529 
L 106.675555 172.669471 
L 110.010682 172.178477 
L 113.412747 175.405006 
L 116.880478 176.036284 
L 120.409515 173.651458 
L 124.017262 168.811665 
L 127.724202 163.410735 
L 131.539476 160.534916 
L 135.47486 154.923561 
L 139.511566 148.821213 
L 143.58996 145.80511 
L 147.629357 143.069574 
L 151.571033 139.772903 
L 155.392816 144.612697 
L 159.108011 142.92929 
L 162.737487 141.947303 
L 166.317583 138.861058 
L 169.876154 134.442116 
L 173.417887 121.325574 
L 176.936566 136.125523 
L 180.437437 134.652542 
L 183.925004 125.113239 
L 187.404215 125.393806 
L 190.878071 116.626065 
L 194.352533 106.385342 
L 197.838643 98.459303 
L 201.34944 94.601497 
L 204.894186 86.465032 
L 208.476825 84.781626 
L 212.095373 78.188284 
L 215.745233 76.154168 
L 219.418638 67.877419 
L 223.108641 61.073652 
L 226.812436 54.199742 
L 230.52778 51.744774 
L 234.248399 46.273703 
L 237.967037 45.011148 
L 241.676788 48.307819 
L 245.374184 47.045265 
L 249.054545 40.662348 
" style="fill:none;stroke:#1f77b4;stroke-linecap:round;stroke-width:1.5;"/>
    <defs>
     <path d="M 0 1 
C 0.265203 1 0.51958 0.894634 0.707107 0.707107 
C 0.894634 0.51958 1 0.265203 1 0 
C 1 -0.265203 0.894634 -0.51958 0.707107 -0.707107 
C 0.51958 -0.894634 0.265203 -1 0 -1 
C -0.265203 -1 -0.51958 -0.894634 -0.707107 -0.707107 
C -0.894634 -0.51958 -1 -0.265203 -1 0 
C -1 0.265203 -0.894634 0.51958 -0.707107 0.707107 
C -0.51958 0.894634 -0.265203 1 0 1 
z
" id="mead25e9db4" style="stroke:#1f77b4;"/>
    </defs>
    <g clip-path="url(#pfdfa43283f)">
     <use style="fill:#1f77b4;stroke:#1f77b4;" x="46.145455" xlink:href="#mead25e9db4" y="227.450323"/>
     <use style="fill:#1f77b4;stroke:#1f77b4;" x="48.511153" xlink:href="#mead25e9db4" y="228.0816"/>
     <use style="fill:#1f77b4;stroke:#1f77b4;" x="50.942001" xlink:href="#mead25e9db4" y="229.90529"/>
     <use style="fill:#1f77b4;stroke:#1f77b4;" x="53.439585" xlink:href="#mead25e9db4" y="228.853161"/>
     <use style="fill:#1f77b4;stroke:#1f77b4;" x="56.011074" xlink:href="#mead25e9db4" y="226.468335"/>
     <use style="fill:#1f77b4;stroke:#1f77b4;" x="58.670489" xlink:href="#mead25e9db4" y="224.153652"/>
     <use style="fill:#1f77b4;stroke:#1f77b4;" x="61.435136" xlink:href="#mead25e9db4" y="221.90911"/>
     <use style="fill:#1f77b4;stroke:#1f77b4;" x="64.315146" xlink:href="#mead25e9db4" y="219.384"/>
     <use style="fill:#1f77b4;stroke:#1f77b4;" x="67.315166" xlink:href="#mead25e9db4" y="217.349884"/>
     <use style="fill:#1f77b4;stroke:#1f77b4;" x="70.425299" xlink:href="#mead25e9db4" y="212.790658"/>
     <use style="fill:#1f77b4;stroke:#1f77b4;" x="73.622432" xlink:href="#mead25e9db4" y="206.618168"/>
     <use style="fill:#1f77b4;stroke:#1f77b4;" x="76.874541" xlink:href="#mead25e9db4" y="199.323406"/>
     <use style="fill:#1f77b4;stroke:#1f77b4;" x="80.156279" xlink:href="#mead25e9db4" y="195.746168"/>
     <use style="fill:#1f77b4;stroke:#1f77b4;" x="83.46287" xlink:href="#mead25e9db4" y="191.46751"/>
     <use style="fill:#1f77b4;stroke:#1f77b4;" x="86.794399" xlink:href="#mead25e9db4" y="186.066581"/>
     <use style="fill:#1f77b4;stroke:#1f77b4;" x="90.136435" xlink:href="#mead25e9db4" y="187.469419"/>
     <use style="fill:#1f77b4;stroke:#1f77b4;" x="93.473376" xlink:href="#mead25e9db4" y="188.170839"/>
     <use style="fill:#1f77b4;stroke:#1f77b4;" x="96.795941" xlink:href="#mead25e9db4" y="182.278916"/>
     <use style="fill:#1f77b4;stroke:#1f77b4;" x="100.096548" xlink:href="#mead25e9db4" y="179.332955"/>
     <use style="fill:#1f77b4;stroke:#1f77b4;" x="103.38192" xlink:href="#mead25e9db4" y="175.54529"/>
     <use style="fill:#1f77b4;stroke:#1f77b4;" x="106.675555" xlink:href="#mead25e9db4" y="172.669471"/>
     <use style="fill:#1f77b4;stroke:#1f77b4;" x="110.010682" xlink:href="#mead25e9db4" y="172.178477"/>
     <use style="fill:#1f77b4;stroke:#1f77b4;" x="113.412747" xlink:href="#mead25e9db4" y="175.405006"/>
     <use style="fill:#1f77b4;stroke:#1f77b4;" x="116.880478" xlink:href="#mead25e9db4" y="176.036284"/>
     <use style="fill:#1f77b4;stroke:#1f77b4;" x="120.409515" xlink:href="#mead25e9db4" y="173.651458"/>
     <use style="fill:#1f77b4;stroke:#1f77b4;" x="124.017262" xlink:href="#mead25e9db4" y="168.811665"/>
     <use style="fill:#1f77b4;stroke:#1f77b4;" x="127.724202" xlink:href="#mead25e9db4" y="163.410735"/>
     <use style="fill:#1f77b4;stroke:#1f77b4;" x="131.539476" xlink:href="#mead25e9db4" y="160.534916"/>
     <use style="fill:#1f77b4;stroke:#1f77b4;" x="135.47486" xlink:href="#mead25e9db4" y="154.923561"/>
     <use style="fill:#1f77b4;stroke:#1f77b4;" x="139.511566" xlink:href="#mead25e9db4" y="148.821213"/>
     <use style="fill:#1f77b4;stroke:#1f77b4;" x="143.58996" xlink:href="#mead25e9db4" y="145.80511"/>
     <use style="fill:#1f77b4;stroke:#1f77b4;" x="147.629357" xlink:href="#mead25e9db4" y="143.069574"/>
     <use style="fill:#1f77b4;stroke:#1f77b4;" x="151.571033" xlink:href="#mead25e9db4" y="139.772903"/>
     <use style="fill:#1f77b4;stroke:#1f77b4;" x="155.392816" xlink:href="#mead25e9db4" y="144.612697"/>
     <use style="fill:#1f77b4;stroke:#1f77b4;" x="159.108011" xlink:href="#mead25e9db4" y="142.92929"/>
     <use style="fill:#1f77b4;stroke:#1f77b4;" x="162.737487" xlink:href="#mead25e9db4" y="141.947303"/>
     <use style="fill:#1f77b4;stroke:#1f77b4;" x="166.317583" xlink:href="#mead25e9db4" y="138.861058"/>
     <use style="fill:#1f77b4;stroke:#1f77b4;" x="169.876154" xlink:href="#mead25e9db4" y="134.442116"/>
     <use style="fill:#1f77b4;stroke:#1f77b4;" x="173.417887" xlink:href="#mead25e9db4" y="121.325574"/>
     <use style="fill:#1f77b4;stroke:#1f77b4;" x="176.936566" xlink:href="#mead25e9db4" y="136.125523"/>
     <use style="fill:#1f77b4;stroke:#1f77b4;" x="180.437437" xlink:href="#mead25e9db4" y="134.652542"/>
     <use style="fill:#1f77b4;stroke:#1f77b4;" x="183.925004" xlink:href="#mead25e9db4" y="125.113239"/>
     <use style="fill:#1f77b4;stroke:#1f77b4;" x="187.404215" xlink:href="#mead25e9db4" y="125.393806"/>
     <use style="fill:#1f77b4;stroke:#1f77b4;" x="190.878071" xlink:href="#mead25e9db4" y="116.626065"/>
     <use style="fill:#1f77b4;stroke:#1f77b4;" x="194.352533" xlink:href="#mead25e9db4" y="106.385342"/>
     <use style="fill:#1f77b4;stroke:#1f77b4;" x="197.838643" xlink:href="#mead25e9db4" y="98.459303"/>
     <use style="fill:#1f77b4;stroke:#1f77b4;" x="201.34944" xlink:href="#mead25e9db4" y="94.601497"/>
     <use style="fill:#1f77b4;stroke:#1f77b4;" x="204.894186" xlink:href="#mead25e9db4" y="86.465032"/>
     <use style="fill:#1f77b4;stroke:#1f77b4;" x="208.476825" xlink:href="#mead25e9db4" y="84.781626"/>
     <use style="fill:#1f77b4;stroke:#1f77b4;" x="212.095373" xlink:href="#mead25e9db4" y="78.188284"/>
     <use style="fill:#1f77b4;stroke:#1f77b4;" x="215.745233" xlink:href="#mead25e9db4" y="76.154168"/>
     <use style="fill:#1f77b4;stroke:#1f77b4;" x="219.418638" xlink:href="#mead25e9db4" y="67.877419"/>
     <use style="fill:#1f77b4;stroke:#1f77b4;" x="223.108641" xlink:href="#mead25e9db4" y="61.073652"/>
     <use style="fill:#1f77b4;stroke:#1f77b4;" x="226.812436" xlink:href="#mead25e9db4" y="54.199742"/>
     <use style="fill:#1f77b4;stroke:#1f77b4;" x="230.52778" xlink:href="#mead25e9db4" y="51.744774"/>
     <use style="fill:#1f77b4;stroke:#1f77b4;" x="234.248399" xlink:href="#mead25e9db4" y="46.273703"/>
     <use style="fill:#1f77b4;stroke:#1f77b4;" x="237.967037" xlink:href="#mead25e9db4" y="45.011148"/>
     <use style="fill:#1f77b4;stroke:#1f77b4;" x="241.676788" xlink:href="#mead25e9db4" y="48.307819"/>
     <use style="fill:#1f77b4;stroke:#1f77b4;" x="245.374184" xlink:href="#mead25e9db4" y="47.045265"/>
     <use style="fill:#1f77b4;stroke:#1f77b4;" x="249.054545" xlink:href="#mead25e9db4" y="40.662348"/>
    </g>
   </g>
   <g id="line2d_2">
    <path clip-path="url(#pfdfa43283f)" d="M 46.145455 234.865654 
L 48.511153 232.700197 
L 50.942001 230.475105 
L 53.439585 228.188927 
L 56.011074 225.835099 
L 58.670489 223.400786 
L 61.435136 220.87015 
L 64.315146 218.233914 
L 67.315166 215.487827 
L 70.425299 212.640948 
L 73.622432 209.714433 
L 76.874541 206.737594 
L 80.156279 203.733635 
L 83.46287 200.706926 
L 86.794399 197.657391 
L 90.136435 194.598237 
L 93.473376 191.543747 
L 96.795941 188.502417 
L 100.096548 185.481186 
L 103.38192 182.473901 
L 106.675555 179.459051 
L 110.010682 176.406222 
L 113.412747 173.292121 
L 116.880478 170.117912 
L 120.409515 166.887586 
L 124.017262 163.585212 
L 127.724202 160.192042 
L 131.539476 156.699707 
L 135.47486 153.097429 
L 139.511566 149.402405 
L 143.58996 145.669222 
L 147.629357 141.971735 
L 151.571033 138.363697 
L 155.392816 134.865405 
L 159.108011 131.464678 
L 162.737487 128.142414 
L 166.317583 124.865351 
L 169.876154 121.607991 
L 173.417887 118.366044 
L 176.936566 115.145199 
L 180.437437 111.940656 
L 183.925004 108.74829 
L 187.404215 105.563572 
L 190.878071 102.383757 
L 194.352533 99.203386 
L 197.838643 96.012354 
L 201.34944 92.798724 
L 204.894186 89.554018 
L 208.476825 86.274628 
L 212.095373 82.962368 
L 215.745233 79.621446 
L 219.418638 76.258972 
L 223.108641 72.881305 
L 226.812436 69.491012 
L 230.52778 66.090149 
L 234.248399 62.684458 
L 237.967037 59.28058 
L 241.676788 55.884836 
L 245.374184 52.500402 
L 249.054545 49.13156 
" style="fill:none;stroke:#000000;stroke-linecap:round;stroke-width:1.5;"/>
   </g>
   <g id="patch_3">
    <path d="M 36 252 
L 36 34.56 
" style="fill:none;stroke:#ffffff;stroke-linecap:square;stroke-linejoin:miter;stroke-width:0.8;"/>
   </g>
   <g id="patch_4">
    <path d="M 259.2 252 
L 259.2 34.56 
" style="fill:none;stroke:#ffffff;stroke-linecap:square;stroke-linejoin:miter;stroke-width:0.8;"/>
   </g>
   <g id="patch_5">
    <path d="M 36 252 
L 259.2 252 
" style="fill:none;stroke:#ffffff;stroke-linecap:square;stroke-linejoin:miter;stroke-width:0.8;"/>
   </g>
   <g id="patch_6">
    <path d="M 36 34.56 
L 259.2 34.56 
" style="fill:none;stroke:#ffffff;stroke-linecap:square;stroke-linejoin:miter;stroke-width:0.8;"/>
   </g>
  </g>
 </g>
 <defs>
  <clipPath id="pfdfa43283f">
   <rect height="217.44" width="223.2" x="36" y="34.56"/>
  </clipPath>
 </defs>
</svg>
