<?xml version="1.0" encoding="utf-8" standalone="no"?>
<!DOCTYPE svg PUBLIC "-//W3C//DTD SVG 1.1//EN"
  "http://www.w3.org/Graphics/SVG/1.1/DTD/svg11.dtd">
<!-- Created with matplotlib (https://matplotlib.org/) -->
<svg height="115.05375pt" version="1.1" viewBox="0 0 119.041875 115.05375" width="119.041875pt" xmlns="http://www.w3.org/2000/svg" xmlns:xlink="http://www.w3.org/1999/xlink">
 <metadata>
  <rdf:RDF xmlns:cc="http://creativecommons.org/ns#" xmlns:dc="http://purl.org/dc/elements/1.1/" xmlns:rdf="http://www.w3.org/1999/02/22-rdf-syntax-ns#">
   <cc:Work>
    <dc:type rdf:resource="http://purl.org/dc/dcmitype/StillImage"/>
    <dc:date>2021-10-12T16:31:32.180135</dc:date>
    <dc:format>image/svg+xml</dc:format>
    <dc:creator>
     <cc:Agent>
      <dc:title>Matplotlib v3.3.4, https://matplotlib.org/</dc:title>
     </cc:Agent>
    </dc:creator>
   </cc:Work>
  </rdf:RDF>
 </metadata>
 <defs>
  <style type="text/css">*{stroke-linecap:butt;stroke-linejoin:round;}</style>
 </defs>
 <g id="figure_1">
  <g id="patch_1">
   <path d="M -0 115.05375 
L 119.041875 115.05375 
L 119.041875 0 
L -0 0 
z
" style="fill:#ffffff;"/>
  </g>
  <g id="axes_1">
   <g id="patch_2">
    <path d="M 28.141875 88.74 
L 111.841875 88.74 
L 111.841875 7.2 
L 28.141875 7.2 
z
" style="fill:#e3dcd0;"/>
   </g>
   <g id="matplotlib.axis_1">
    <g id="xtick_1">
     <g id="text_1">
      <!-- 4 -->
      <g transform="translate(36.359384 96.799063)scale(0.06 -0.06)">
       <defs>
        <path d="M 37.796875 64.3125 
L 12.890625 25.390625 
L 37.796875 25.390625 
z
M 35.203125 72.90625 
L 47.609375 72.90625 
L 47.609375 25.390625 
L 58.015625 25.390625 
L 58.015625 17.1875 
L 47.609375 17.1875 
L 47.609375 0 
L 37.796875 0 
L 37.796875 17.1875 
L 4.890625 17.1875 
L 4.890625 26.703125 
z
" id="DejaVuSans-52"/>
       </defs>
       <use xlink:href="#DejaVuSans-52"/>
      </g>
     </g>
    </g>
    <g id="xtick_2">
     <g id="text_2">
      <!-- 6 -->
      <g transform="translate(76.864421 96.799063)scale(0.06 -0.06)">
       <defs>
        <path d="M 33.015625 40.375 
Q 26.375 40.375 22.484375 35.828125 
Q 18.609375 31.296875 18.609375 23.390625 
Q 18.609375 15.53125 22.484375 10.953125 
Q 26.375 6.390625 33.015625 6.390625 
Q 39.65625 6.390625 43.53125 10.953125 
Q 47.40625 15.53125 47.40625 23.390625 
Q 47.40625 31.296875 43.53125 35.828125 
Q 39.65625 40.375 33.015625 40.375 
z
M 52.59375 71.296875 
L 52.59375 62.3125 
Q 48.875 64.0625 45.09375 64.984375 
Q 41.3125 65.921875 37.59375 65.921875 
Q 27.828125 65.921875 22.671875 59.328125 
Q 17.53125 52.734375 16.796875 39.40625 
Q 19.671875 43.65625 24.015625 45.921875 
Q 28.375 48.1875 33.59375 48.1875 
Q 44.578125 48.1875 50.953125 41.515625 
Q 57.328125 34.859375 57.328125 23.390625 
Q 57.328125 12.15625 50.6875 5.359375 
Q 44.046875 -1.421875 33.015625 -1.421875 
Q 20.359375 -1.421875 13.671875 8.265625 
Q 6.984375 17.96875 6.984375 36.375 
Q 6.984375 53.65625 15.1875 63.9375 
Q 23.390625 74.21875 37.203125 74.21875 
Q 40.921875 74.21875 44.703125 73.484375 
Q 48.484375 72.75 52.59375 71.296875 
z
" id="DejaVuSans-54"/>
       </defs>
       <use xlink:href="#DejaVuSans-54"/>
      </g>
     </g>
    </g>
    <g id="text_3">
     <!-- human population [billion] -->
     <g style="fill:#262626;" transform="translate(30.340312 106.605938)scale(0.06 -0.06)">
      <defs>
       <path d="M 54.890625 33.015625 
L 54.890625 0 
L 45.90625 0 
L 45.90625 32.71875 
Q 45.90625 40.484375 42.875 44.328125 
Q 39.84375 48.1875 33.796875 48.1875 
Q 26.515625 48.1875 22.3125 43.546875 
Q 18.109375 38.921875 18.109375 30.90625 
L 18.109375 0 
L 9.078125 0 
L 9.078125 75.984375 
L 18.109375 75.984375 
L 18.109375 46.1875 
Q 21.34375 51.125 25.703125 53.5625 
Q 30.078125 56 35.796875 56 
Q 45.21875 56 50.046875 50.171875 
Q 54.890625 44.34375 54.890625 33.015625 
z
" id="DejaVuSans-104"/>
       <path d="M 8.5 21.578125 
L 8.5 54.6875 
L 17.484375 54.6875 
L 17.484375 21.921875 
Q 17.484375 14.15625 20.5 10.265625 
Q 23.53125 6.390625 29.59375 6.390625 
Q 36.859375 6.390625 41.078125 11.03125 
Q 45.3125 15.671875 45.3125 23.6875 
L 45.3125 54.6875 
L 54.296875 54.6875 
L 54.296875 0 
L 45.3125 0 
L 45.3125 8.40625 
Q 42.046875 3.421875 37.71875 1 
Q 33.40625 -1.421875 27.6875 -1.421875 
Q 18.265625 -1.421875 13.375 4.4375 
Q 8.5 10.296875 8.5 21.578125 
z
M 31.109375 56 
z
" id="DejaVuSans-117"/>
       <path d="M 52 44.1875 
Q 55.375 50.25 60.0625 53.125 
Q 64.75 56 71.09375 56 
Q 79.640625 56 84.28125 50.015625 
Q 88.921875 44.046875 88.921875 33.015625 
L 88.921875 0 
L 79.890625 0 
L 79.890625 32.71875 
Q 79.890625 40.578125 77.09375 44.375 
Q 74.3125 48.1875 68.609375 48.1875 
Q 61.625 48.1875 57.5625 43.546875 
Q 53.515625 38.921875 53.515625 30.90625 
L 53.515625 0 
L 44.484375 0 
L 44.484375 32.71875 
Q 44.484375 40.625 41.703125 44.40625 
Q 38.921875 48.1875 33.109375 48.1875 
Q 26.21875 48.1875 22.15625 43.53125 
Q 18.109375 38.875 18.109375 30.90625 
L 18.109375 0 
L 9.078125 0 
L 9.078125 54.6875 
L 18.109375 54.6875 
L 18.109375 46.1875 
Q 21.1875 51.21875 25.484375 53.609375 
Q 29.78125 56 35.6875 56 
Q 41.65625 56 45.828125 52.96875 
Q 50 49.953125 52 44.1875 
z
" id="DejaVuSans-109"/>
       <path d="M 34.28125 27.484375 
Q 23.390625 27.484375 19.1875 25 
Q 14.984375 22.515625 14.984375 16.5 
Q 14.984375 11.71875 18.140625 8.90625 
Q 21.296875 6.109375 26.703125 6.109375 
Q 34.1875 6.109375 38.703125 11.40625 
Q 43.21875 16.703125 43.21875 25.484375 
L 43.21875 27.484375 
z
M 52.203125 31.203125 
L 52.203125 0 
L 43.21875 0 
L 43.21875 8.296875 
Q 40.140625 3.328125 35.546875 0.953125 
Q 30.953125 -1.421875 24.3125 -1.421875 
Q 15.921875 -1.421875 10.953125 3.296875 
Q 6 8.015625 6 15.921875 
Q 6 25.140625 12.171875 29.828125 
Q 18.359375 34.515625 30.609375 34.515625 
L 43.21875 34.515625 
L 43.21875 35.40625 
Q 43.21875 41.609375 39.140625 45 
Q 35.0625 48.390625 27.6875 48.390625 
Q 23 48.390625 18.546875 47.265625 
Q 14.109375 46.140625 10.015625 43.890625 
L 10.015625 52.203125 
Q 14.9375 54.109375 19.578125 55.046875 
Q 24.21875 56 28.609375 56 
Q 40.484375 56 46.34375 49.84375 
Q 52.203125 43.703125 52.203125 31.203125 
z
" id="DejaVuSans-97"/>
       <path d="M 54.890625 33.015625 
L 54.890625 0 
L 45.90625 0 
L 45.90625 32.71875 
Q 45.90625 40.484375 42.875 44.328125 
Q 39.84375 48.1875 33.796875 48.1875 
Q 26.515625 48.1875 22.3125 43.546875 
Q 18.109375 38.921875 18.109375 30.90625 
L 18.109375 0 
L 9.078125 0 
L 9.078125 54.6875 
L 18.109375 54.6875 
L 18.109375 46.1875 
Q 21.34375 51.125 25.703125 53.5625 
Q 30.078125 56 35.796875 56 
Q 45.21875 56 50.046875 50.171875 
Q 54.890625 44.34375 54.890625 33.015625 
z
" id="DejaVuSans-110"/>
       <path id="DejaVuSans-32"/>
       <path d="M 18.109375 8.203125 
L 18.109375 -20.796875 
L 9.078125 -20.796875 
L 9.078125 54.6875 
L 18.109375 54.6875 
L 18.109375 46.390625 
Q 20.953125 51.265625 25.265625 53.625 
Q 29.59375 56 35.59375 56 
Q 45.5625 56 51.78125 48.09375 
Q 58.015625 40.1875 58.015625 27.296875 
Q 58.015625 14.40625 51.78125 6.484375 
Q 45.5625 -1.421875 35.59375 -1.421875 
Q 29.59375 -1.421875 25.265625 0.953125 
Q 20.953125 3.328125 18.109375 8.203125 
z
M 48.6875 27.296875 
Q 48.6875 37.203125 44.609375 42.84375 
Q 40.53125 48.484375 33.40625 48.484375 
Q 26.265625 48.484375 22.1875 42.84375 
Q 18.109375 37.203125 18.109375 27.296875 
Q 18.109375 17.390625 22.1875 11.75 
Q 26.265625 6.109375 33.40625 6.109375 
Q 40.53125 6.109375 44.609375 11.75 
Q 48.6875 17.390625 48.6875 27.296875 
z
" id="DejaVuSans-112"/>
       <path d="M 30.609375 48.390625 
Q 23.390625 48.390625 19.1875 42.75 
Q 14.984375 37.109375 14.984375 27.296875 
Q 14.984375 17.484375 19.15625 11.84375 
Q 23.34375 6.203125 30.609375 6.203125 
Q 37.796875 6.203125 41.984375 11.859375 
Q 46.1875 17.53125 46.1875 27.296875 
Q 46.1875 37.015625 41.984375 42.703125 
Q 37.796875 48.390625 30.609375 48.390625 
z
M 30.609375 56 
Q 42.328125 56 49.015625 48.375 
Q 55.71875 40.765625 55.71875 27.296875 
Q 55.71875 13.875 49.015625 6.21875 
Q 42.328125 -1.421875 30.609375 -1.421875 
Q 18.84375 -1.421875 12.171875 6.21875 
Q 5.515625 13.875 5.515625 27.296875 
Q 5.515625 40.765625 12.171875 48.375 
Q 18.84375 56 30.609375 56 
z
" id="DejaVuSans-111"/>
       <path d="M 9.421875 75.984375 
L 18.40625 75.984375 
L 18.40625 0 
L 9.421875 0 
z
" id="DejaVuSans-108"/>
       <path d="M 18.3125 70.21875 
L 18.3125 54.6875 
L 36.8125 54.6875 
L 36.8125 47.703125 
L 18.3125 47.703125 
L 18.3125 18.015625 
Q 18.3125 11.328125 20.140625 9.421875 
Q 21.96875 7.515625 27.59375 7.515625 
L 36.8125 7.515625 
L 36.8125 0 
L 27.59375 0 
Q 17.1875 0 13.234375 3.875 
Q 9.28125 7.765625 9.28125 18.015625 
L 9.28125 47.703125 
L 2.6875 47.703125 
L 2.6875 54.6875 
L 9.28125 54.6875 
L 9.28125 70.21875 
z
" id="DejaVuSans-116"/>
       <path d="M 9.421875 54.6875 
L 18.40625 54.6875 
L 18.40625 0 
L 9.421875 0 
z
M 9.421875 75.984375 
L 18.40625 75.984375 
L 18.40625 64.59375 
L 9.421875 64.59375 
z
" id="DejaVuSans-105"/>
       <path d="M 8.59375 75.984375 
L 29.296875 75.984375 
L 29.296875 69 
L 17.578125 69 
L 17.578125 -6.203125 
L 29.296875 -6.203125 
L 29.296875 -13.1875 
L 8.59375 -13.1875 
z
" id="DejaVuSans-91"/>
       <path d="M 48.6875 27.296875 
Q 48.6875 37.203125 44.609375 42.84375 
Q 40.53125 48.484375 33.40625 48.484375 
Q 26.265625 48.484375 22.1875 42.84375 
Q 18.109375 37.203125 18.109375 27.296875 
Q 18.109375 17.390625 22.1875 11.75 
Q 26.265625 6.109375 33.40625 6.109375 
Q 40.53125 6.109375 44.609375 11.75 
Q 48.6875 17.390625 48.6875 27.296875 
z
M 18.109375 46.390625 
Q 20.953125 51.265625 25.265625 53.625 
Q 29.59375 56 35.59375 56 
Q 45.5625 56 51.78125 48.09375 
Q 58.015625 40.1875 58.015625 27.296875 
Q 58.015625 14.40625 51.78125 6.484375 
Q 45.5625 -1.421875 35.59375 -1.421875 
Q 29.59375 -1.421875 25.265625 0.953125 
Q 20.953125 3.328125 18.109375 8.203125 
L 18.109375 0 
L 9.078125 0 
L 9.078125 75.984375 
L 18.109375 75.984375 
z
" id="DejaVuSans-98"/>
       <path d="M 30.421875 75.984375 
L 30.421875 -13.1875 
L 9.71875 -13.1875 
L 9.71875 -6.203125 
L 21.390625 -6.203125 
L 21.390625 69 
L 9.71875 69 
L 9.71875 75.984375 
z
" id="DejaVuSans-93"/>
      </defs>
      <use xlink:href="#DejaVuSans-104"/>
      <use x="63.378906" xlink:href="#DejaVuSans-117"/>
      <use x="126.757812" xlink:href="#DejaVuSans-109"/>
      <use x="224.169922" xlink:href="#DejaVuSans-97"/>
      <use x="285.449219" xlink:href="#DejaVuSans-110"/>
      <use x="348.828125" xlink:href="#DejaVuSans-32"/>
      <use x="380.615234" xlink:href="#DejaVuSans-112"/>
      <use x="444.091797" xlink:href="#DejaVuSans-111"/>
      <use x="505.273438" xlink:href="#DejaVuSans-112"/>
      <use x="568.75" xlink:href="#DejaVuSans-117"/>
      <use x="632.128906" xlink:href="#DejaVuSans-108"/>
      <use x="659.912109" xlink:href="#DejaVuSans-97"/>
      <use x="721.191406" xlink:href="#DejaVuSans-116"/>
      <use x="760.400391" xlink:href="#DejaVuSans-105"/>
      <use x="788.183594" xlink:href="#DejaVuSans-111"/>
      <use x="849.365234" xlink:href="#DejaVuSans-110"/>
      <use x="912.744141" xlink:href="#DejaVuSans-32"/>
      <use x="944.53125" xlink:href="#DejaVuSans-91"/>
      <use x="983.544922" xlink:href="#DejaVuSans-98"/>
      <use x="1047.021484" xlink:href="#DejaVuSans-105"/>
      <use x="1074.804688" xlink:href="#DejaVuSans-108"/>
      <use x="1102.587891" xlink:href="#DejaVuSans-108"/>
      <use x="1130.371094" xlink:href="#DejaVuSans-105"/>
      <use x="1158.154297" xlink:href="#DejaVuSans-111"/>
      <use x="1219.335938" xlink:href="#DejaVuSans-110"/>
      <use x="1282.714844" xlink:href="#DejaVuSans-93"/>
     </g>
    </g>
   </g>
   <g id="matplotlib.axis_2">
    <g id="ytick_1">
     <g id="text_4">
      <!-- 0 -->
      <g transform="translate(20.824375 91.019531)scale(0.06 -0.06)">
       <defs>
        <path d="M 31.78125 66.40625 
Q 24.171875 66.40625 20.328125 58.90625 
Q 16.5 51.421875 16.5 36.375 
Q 16.5 21.390625 20.328125 13.890625 
Q 24.171875 6.390625 31.78125 6.390625 
Q 39.453125 6.390625 43.28125 13.890625 
Q 47.125 21.390625 47.125 36.375 
Q 47.125 51.421875 43.28125 58.90625 
Q 39.453125 66.40625 31.78125 66.40625 
z
M 31.78125 74.21875 
Q 44.046875 74.21875 50.515625 64.515625 
Q 56.984375 54.828125 56.984375 36.375 
Q 56.984375 17.96875 50.515625 8.265625 
Q 44.046875 -1.421875 31.78125 -1.421875 
Q 19.53125 -1.421875 13.0625 8.265625 
Q 6.59375 17.96875 6.59375 36.375 
Q 6.59375 54.828125 13.0625 64.515625 
Q 19.53125 74.21875 31.78125 74.21875 
z
" id="DejaVuSans-48"/>
       </defs>
       <use xlink:href="#DejaVuSans-48"/>
      </g>
     </g>
    </g>
    <g id="ytick_2">
     <g id="text_5">
      <!-- 5 -->
      <g transform="translate(20.824375 69.72822)scale(0.06 -0.06)">
       <defs>
        <path d="M 10.796875 72.90625 
L 49.515625 72.90625 
L 49.515625 64.59375 
L 19.828125 64.59375 
L 19.828125 46.734375 
Q 21.96875 47.46875 24.109375 47.828125 
Q 26.265625 48.1875 28.421875 48.1875 
Q 40.625 48.1875 47.75 41.5 
Q 54.890625 34.8125 54.890625 23.390625 
Q 54.890625 11.625 47.5625 5.09375 
Q 40.234375 -1.421875 26.90625 -1.421875 
Q 22.3125 -1.421875 17.546875 -0.640625 
Q 12.796875 0.140625 7.71875 1.703125 
L 7.71875 11.625 
Q 12.109375 9.234375 16.796875 8.0625 
Q 21.484375 6.890625 26.703125 6.890625 
Q 35.15625 6.890625 40.078125 11.328125 
Q 45.015625 15.765625 45.015625 23.390625 
Q 45.015625 31 40.078125 35.4375 
Q 35.15625 39.890625 26.703125 39.890625 
Q 22.75 39.890625 18.8125 39.015625 
Q 14.890625 38.140625 10.796875 36.28125 
z
" id="DejaVuSans-53"/>
       </defs>
       <use xlink:href="#DejaVuSans-53"/>
      </g>
     </g>
    </g>
    <g id="ytick_3">
     <g id="text_6">
      <!-- 10 -->
      <g transform="translate(17.006875 48.436909)scale(0.06 -0.06)">
       <defs>
        <path d="M 12.40625 8.296875 
L 28.515625 8.296875 
L 28.515625 63.921875 
L 10.984375 60.40625 
L 10.984375 69.390625 
L 28.421875 72.90625 
L 38.28125 72.90625 
L 38.28125 8.296875 
L 54.390625 8.296875 
L 54.390625 0 
L 12.40625 0 
z
" id="DejaVuSans-49"/>
       </defs>
       <use xlink:href="#DejaVuSans-49"/>
       <use x="63.623047" xlink:href="#DejaVuSans-48"/>
      </g>
     </g>
    </g>
    <g id="ytick_4">
     <g id="text_7">
      <!-- 15 -->
      <g transform="translate(17.006875 27.145598)scale(0.06 -0.06)">
       <use xlink:href="#DejaVuSans-49"/>
       <use x="63.623047" xlink:href="#DejaVuSans-53"/>
      </g>
     </g>
    </g>
    <g id="text_8">
     <!-- consumed power [TW] -->
     <g style="fill:#262626;" transform="translate(11.759062 81.812344)rotate(-90)scale(0.06 -0.06)">
      <defs>
       <path d="M 48.78125 52.59375 
L 48.78125 44.1875 
Q 44.96875 46.296875 41.140625 47.34375 
Q 37.3125 48.390625 33.40625 48.390625 
Q 24.65625 48.390625 19.8125 42.84375 
Q 14.984375 37.3125 14.984375 27.296875 
Q 14.984375 17.28125 19.8125 11.734375 
Q 24.65625 6.203125 33.40625 6.203125 
Q 37.3125 6.203125 41.140625 7.25 
Q 44.96875 8.296875 48.78125 10.40625 
L 48.78125 2.09375 
Q 45.015625 0.34375 40.984375 -0.53125 
Q 36.96875 -1.421875 32.421875 -1.421875 
Q 20.0625 -1.421875 12.78125 6.34375 
Q 5.515625 14.109375 5.515625 27.296875 
Q 5.515625 40.671875 12.859375 48.328125 
Q 20.21875 56 33.015625 56 
Q 37.15625 56 41.109375 55.140625 
Q 45.0625 54.296875 48.78125 52.59375 
z
" id="DejaVuSans-99"/>
       <path d="M 44.28125 53.078125 
L 44.28125 44.578125 
Q 40.484375 46.53125 36.375 47.5 
Q 32.28125 48.484375 27.875 48.484375 
Q 21.1875 48.484375 17.84375 46.4375 
Q 14.5 44.390625 14.5 40.28125 
Q 14.5 37.15625 16.890625 35.375 
Q 19.28125 33.59375 26.515625 31.984375 
L 29.59375 31.296875 
Q 39.15625 29.25 43.1875 25.515625 
Q 47.21875 21.78125 47.21875 15.09375 
Q 47.21875 7.46875 41.1875 3.015625 
Q 35.15625 -1.421875 24.609375 -1.421875 
Q 20.21875 -1.421875 15.453125 -0.5625 
Q 10.6875 0.296875 5.421875 2 
L 5.421875 11.28125 
Q 10.40625 8.6875 15.234375 7.390625 
Q 20.0625 6.109375 24.8125 6.109375 
Q 31.15625 6.109375 34.5625 8.28125 
Q 37.984375 10.453125 37.984375 14.40625 
Q 37.984375 18.0625 35.515625 20.015625 
Q 33.0625 21.96875 24.703125 23.78125 
L 21.578125 24.515625 
Q 13.234375 26.265625 9.515625 29.90625 
Q 5.8125 33.546875 5.8125 39.890625 
Q 5.8125 47.609375 11.28125 51.796875 
Q 16.75 56 26.8125 56 
Q 31.78125 56 36.171875 55.265625 
Q 40.578125 54.546875 44.28125 53.078125 
z
" id="DejaVuSans-115"/>
       <path d="M 56.203125 29.59375 
L 56.203125 25.203125 
L 14.890625 25.203125 
Q 15.484375 15.921875 20.484375 11.0625 
Q 25.484375 6.203125 34.421875 6.203125 
Q 39.59375 6.203125 44.453125 7.46875 
Q 49.3125 8.734375 54.109375 11.28125 
L 54.109375 2.78125 
Q 49.265625 0.734375 44.1875 -0.34375 
Q 39.109375 -1.421875 33.890625 -1.421875 
Q 20.796875 -1.421875 13.15625 6.1875 
Q 5.515625 13.8125 5.515625 26.8125 
Q 5.515625 40.234375 12.765625 48.109375 
Q 20.015625 56 32.328125 56 
Q 43.359375 56 49.78125 48.890625 
Q 56.203125 41.796875 56.203125 29.59375 
z
M 47.21875 32.234375 
Q 47.125 39.59375 43.09375 43.984375 
Q 39.0625 48.390625 32.421875 48.390625 
Q 24.90625 48.390625 20.390625 44.140625 
Q 15.875 39.890625 15.1875 32.171875 
z
" id="DejaVuSans-101"/>
       <path d="M 45.40625 46.390625 
L 45.40625 75.984375 
L 54.390625 75.984375 
L 54.390625 0 
L 45.40625 0 
L 45.40625 8.203125 
Q 42.578125 3.328125 38.25 0.953125 
Q 33.9375 -1.421875 27.875 -1.421875 
Q 17.96875 -1.421875 11.734375 6.484375 
Q 5.515625 14.40625 5.515625 27.296875 
Q 5.515625 40.1875 11.734375 48.09375 
Q 17.96875 56 27.875 56 
Q 33.9375 56 38.25 53.625 
Q 42.578125 51.265625 45.40625 46.390625 
z
M 14.796875 27.296875 
Q 14.796875 17.390625 18.875 11.75 
Q 22.953125 6.109375 30.078125 6.109375 
Q 37.203125 6.109375 41.296875 11.75 
Q 45.40625 17.390625 45.40625 27.296875 
Q 45.40625 37.203125 41.296875 42.84375 
Q 37.203125 48.484375 30.078125 48.484375 
Q 22.953125 48.484375 18.875 42.84375 
Q 14.796875 37.203125 14.796875 27.296875 
z
" id="DejaVuSans-100"/>
       <path d="M 4.203125 54.6875 
L 13.1875 54.6875 
L 24.421875 12.015625 
L 35.59375 54.6875 
L 46.1875 54.6875 
L 57.421875 12.015625 
L 68.609375 54.6875 
L 77.59375 54.6875 
L 63.28125 0 
L 52.6875 0 
L 40.921875 44.828125 
L 29.109375 0 
L 18.5 0 
z
" id="DejaVuSans-119"/>
       <path d="M 41.109375 46.296875 
Q 39.59375 47.171875 37.8125 47.578125 
Q 36.03125 48 33.890625 48 
Q 26.265625 48 22.1875 43.046875 
Q 18.109375 38.09375 18.109375 28.8125 
L 18.109375 0 
L 9.078125 0 
L 9.078125 54.6875 
L 18.109375 54.6875 
L 18.109375 46.1875 
Q 20.953125 51.171875 25.484375 53.578125 
Q 30.03125 56 36.53125 56 
Q 37.453125 56 38.578125 55.875 
Q 39.703125 55.765625 41.0625 55.515625 
z
" id="DejaVuSans-114"/>
       <path d="M -0.296875 72.90625 
L 61.375 72.90625 
L 61.375 64.59375 
L 35.5 64.59375 
L 35.5 0 
L 25.59375 0 
L 25.59375 64.59375 
L -0.296875 64.59375 
z
" id="DejaVuSans-84"/>
       <path d="M 3.328125 72.90625 
L 13.28125 72.90625 
L 28.609375 11.28125 
L 43.890625 72.90625 
L 54.984375 72.90625 
L 70.3125 11.28125 
L 85.59375 72.90625 
L 95.609375 72.90625 
L 77.296875 0 
L 64.890625 0 
L 49.515625 63.28125 
L 33.984375 0 
L 21.578125 0 
z
" id="DejaVuSans-87"/>
      </defs>
      <use xlink:href="#DejaVuSans-99"/>
      <use x="54.980469" xlink:href="#DejaVuSans-111"/>
      <use x="116.162109" xlink:href="#DejaVuSans-110"/>
      <use x="179.541016" xlink:href="#DejaVuSans-115"/>
      <use x="231.640625" xlink:href="#DejaVuSans-117"/>
      <use x="295.019531" xlink:href="#DejaVuSans-109"/>
      <use x="392.431641" xlink:href="#DejaVuSans-101"/>
      <use x="453.955078" xlink:href="#DejaVuSans-100"/>
      <use x="517.431641" xlink:href="#DejaVuSans-32"/>
      <use x="549.21875" xlink:href="#DejaVuSans-112"/>
      <use x="612.695312" xlink:href="#DejaVuSans-111"/>
      <use x="673.876953" xlink:href="#DejaVuSans-119"/>
      <use x="755.664062" xlink:href="#DejaVuSans-101"/>
      <use x="817.1875" xlink:href="#DejaVuSans-114"/>
      <use x="858.300781" xlink:href="#DejaVuSans-32"/>
      <use x="890.087891" xlink:href="#DejaVuSans-91"/>
      <use x="929.101562" xlink:href="#DejaVuSans-84"/>
      <use x="990.185547" xlink:href="#DejaVuSans-87"/>
      <use x="1089.0625" xlink:href="#DejaVuSans-93"/>
     </g>
    </g>
   </g>
   <g id="PolyCollection_1">
    <defs>
     <path d="M 24.893223 -26.34833 
L 24.893223 -26.31375 
L 26.281102 -26.31375 
L 27.717662 -26.31375 
L 29.19259 -26.31375 
L 30.691779 -26.31375 
L 32.204078 -26.31375 
L 33.727335 -26.31375 
L 35.26155 -26.31375 
L 36.80061 -26.31375 
L 38.337968 -26.31375 
L 39.869849 -26.31375 
L 41.392847 -26.31375 
L 42.910037 -26.31375 
L 44.432537 -26.31375 
L 45.975954 -26.31375 
L 47.552122 -26.31375 
L 49.160866 -26.31375 
L 50.79991 -26.31375 
L 52.475901 -26.31375 
L 54.196413 -26.31375 
L 55.964416 -26.31375 
L 57.784134 -26.31375 
L 59.647425 -26.31375 
L 61.529305 -26.31375 
L 63.396145 -26.31375 
L 65.223091 -26.31375 
L 67.001573 -26.31375 
L 68.736046 -26.31375 
L 70.431054 -26.31375 
L 72.096315 -26.31375 
L 73.739902 -26.31375 
L 75.361939 -26.31375 
L 76.961914 -26.31375 
L 78.547277 -26.31375 
L 80.127404 -26.31375 
L 81.709928 -26.31375 
L 83.29783 -26.31375 
L 84.892463 -26.31375 
L 86.497664 -26.31375 
L 88.117093 -26.31375 
L 89.753264 -26.31375 
L 91.407663 -26.31375 
L 93.079927 -26.31375 
L 94.768028 -26.31375 
L 96.468628 -26.31375 
L 98.17851 -26.31375 
L 99.896722 -26.31375 
L 101.621596 -26.31375 
L 103.348113 -26.31375 
L 105.070115 -26.31375 
L 106.782583 -26.31375 
L 108.482893 -26.31375 
L 110.169883 -26.31375 
L 111.841875 -26.31375 
L 111.841875 -29.58513 
L 111.841875 -29.58513 
L 110.169883 -29.529041 
L 108.482893 -29.519078 
L 106.782583 -29.489892 
L 105.070115 -29.465959 
L 103.348113 -29.425375 
L 101.621596 -29.415864 
L 99.896722 -29.664517 
L 98.17851 -29.832278 
L 96.468628 -29.765095 
L 94.768028 -29.836359 
L 93.079927 -29.869422 
L 91.407663 -29.966214 
L 89.753264 -29.944099 
L 88.117093 -29.957639 
L 86.497664 -29.821595 
L 84.892463 -29.917203 
L 83.29783 -29.883562 
L 81.709928 -29.808232 
L 80.127404 -29.731681 
L 78.547277 -29.605787 
L 76.961914 -29.550133 
L 75.361939 -29.572507 
L 73.739902 -29.458224 
L 72.096315 -29.327495 
L 70.431054 -29.271957 
L 68.736046 -29.173473 
L 67.001573 -29.151925 
L 65.223091 -29.022332 
L 63.396145 -28.947252 
L 61.529305 -28.874461 
L 59.647425 -28.662541 
L 57.784134 -28.472988 
L 55.964416 -28.329718 
L 54.196413 -28.012409 
L 52.475901 -27.71351 
L 50.79991 -27.548819 
L 49.160866 -27.452108 
L 47.552122 -27.27768 
L 45.975954 -27.195 
L 44.432537 -27.161062 
L 42.910037 -27.042932 
L 41.392847 -26.899578 
L 39.869849 -26.814516 
L 38.337968 -26.674721 
L 36.80061 -26.589828 
L 35.26155 -26.519792 
L 33.727335 -26.462287 
L 32.204078 -26.420545 
L 30.691779 -26.397403 
L 29.19259 -26.38431 
L 27.717662 -26.369271 
L 26.281102 -26.360372 
L 24.893223 -26.34833 
z
" id="m10c943ceac" style="stroke:#ffffff;stroke-width:0.25;"/>
    </defs>
    <g clip-path="url(#pbaa592238f)">
     <use style="fill:#d56c55;stroke:#ffffff;stroke-width:0.25;" x="0" xlink:href="#m10c943ceac" y="115.05375"/>
    </g>
   </g>
   <g id="PolyCollection_2">
    <defs>
     <path d="M 24.893223 -26.372612 
L 24.893223 -26.34833 
L 26.281102 -26.360372 
L 27.717662 -26.369271 
L 29.19259 -26.38431 
L 30.691779 -26.397403 
L 32.204078 -26.420545 
L 33.727335 -26.462287 
L 35.26155 -26.519792 
L 36.80061 -26.589828 
L 38.337968 -26.674721 
L 39.869849 -26.814516 
L 41.392847 -26.899578 
L 42.910037 -27.042932 
L 44.432537 -27.161062 
L 45.975954 -27.195 
L 47.552122 -27.27768 
L 49.160866 -27.452108 
L 50.79991 -27.548819 
L 52.475901 -27.71351 
L 54.196413 -28.012409 
L 55.964416 -28.329718 
L 57.784134 -28.472988 
L 59.647425 -28.662541 
L 61.529305 -28.874461 
L 63.396145 -28.947252 
L 65.223091 -29.022332 
L 67.001573 -29.151925 
L 68.736046 -29.173473 
L 70.431054 -29.271957 
L 72.096315 -29.327495 
L 73.739902 -29.458224 
L 75.361939 -29.572507 
L 76.961914 -29.550133 
L 78.547277 -29.605787 
L 80.127404 -29.731681 
L 81.709928 -29.808232 
L 83.29783 -29.883562 
L 84.892463 -29.917203 
L 86.497664 -29.821595 
L 88.117093 -29.957639 
L 89.753264 -29.944099 
L 91.407663 -29.966214 
L 93.079927 -29.869422 
L 94.768028 -29.836359 
L 96.468628 -29.765095 
L 98.17851 -29.832278 
L 99.896722 -29.664517 
L 101.621596 -29.415864 
L 103.348113 -29.425375 
L 105.070115 -29.465959 
L 106.782583 -29.489892 
L 108.482893 -29.519078 
L 110.169883 -29.529041 
L 111.841875 -29.58513 
L 111.841875 -32.923967 
L 111.841875 -32.923967 
L 110.169883 -32.430853 
L 108.482893 -32.071468 
L 106.782583 -31.782428 
L 105.070115 -31.547128 
L 103.348113 -31.237614 
L 101.621596 -31.008014 
L 99.896722 -31.050071 
L 98.17851 -31.054675 
L 96.468628 -30.808713 
L 94.768028 -30.74017 
L 93.079927 -30.624242 
L 91.407663 -30.608288 
L 89.753264 -30.510248 
L 88.117093 -30.451324 
L 86.497664 -30.263061 
L 84.892463 -30.317124 
L 83.29783 -30.246361 
L 81.709928 -30.150844 
L 80.127404 -30.056763 
L 78.547277 -29.913018 
L 76.961914 -29.84271 
L 75.361939 -29.846723 
L 73.739902 -29.727767 
L 72.096315 -29.583947 
L 70.431054 -29.515775 
L 68.736046 -29.402075 
L 67.001573 -29.375615 
L 65.223091 -29.235092 
L 63.396145 -29.091712 
L 61.529305 -29.001751 
L 59.647425 -28.78627 
L 57.784134 -28.588529 
L 55.964416 -28.434746 
L 54.196413 -28.11503 
L 52.475901 -27.805342 
L 50.79991 -27.631676 
L 49.160866 -27.523873 
L 47.552122 -27.344356 
L 45.975954 -27.257334 
L 44.432537 -27.219073 
L 42.910037 -27.097696 
L 41.392847 -26.951504 
L 39.869849 -26.861073 
L 38.337968 -26.720569 
L 36.80061 -26.633147 
L 35.26155 -26.560129 
L 33.727335 -26.499927 
L 32.204078 -26.455233 
L 30.691779 -26.428804 
L 29.19259 -26.414175 
L 27.717662 -26.396255 
L 26.281102 -26.387112 
L 24.893223 -26.372612 
z
" id="mce66a79318" style="stroke:#ffffff;stroke-width:0.25;"/>
    </defs>
    <g clip-path="url(#pbaa592238f)">
     <use style="fill:#7aa974;stroke:#ffffff;stroke-width:0.25;" x="0" xlink:href="#mce66a79318" y="115.05375"/>
    </g>
   </g>
   <g id="PolyCollection_3">
    <defs>
     <path d="M 24.893223 -27.619036 
L 24.893223 -26.372612 
L 26.281102 -26.387112 
L 27.717662 -26.396255 
L 29.19259 -26.414175 
L 30.691779 -26.428804 
L 32.204078 -26.455233 
L 33.727335 -26.499927 
L 35.26155 -26.560129 
L 36.80061 -26.633147 
L 38.337968 -26.720569 
L 39.869849 -26.861073 
L 41.392847 -26.951504 
L 42.910037 -27.097696 
L 44.432537 -27.219073 
L 45.975954 -27.257334 
L 47.552122 -27.344356 
L 49.160866 -27.523873 
L 50.79991 -27.631676 
L 52.475901 -27.805342 
L 54.196413 -28.11503 
L 55.964416 -28.434746 
L 57.784134 -28.588529 
L 59.647425 -28.78627 
L 61.529305 -29.001751 
L 63.396145 -29.091712 
L 65.223091 -29.235092 
L 67.001573 -29.375615 
L 68.736046 -29.402075 
L 70.431054 -29.515775 
L 72.096315 -29.583947 
L 73.739902 -29.727767 
L 75.361939 -29.846723 
L 76.961914 -29.84271 
L 78.547277 -29.913018 
L 80.127404 -30.056763 
L 81.709928 -30.150844 
L 83.29783 -30.246361 
L 84.892463 -30.317124 
L 86.497664 -30.263061 
L 88.117093 -30.451324 
L 89.753264 -30.510248 
L 91.407663 -30.608288 
L 93.079927 -30.624242 
L 94.768028 -30.74017 
L 96.468628 -30.808713 
L 98.17851 -31.054675 
L 99.896722 -31.050071 
L 101.621596 -31.008014 
L 103.348113 -31.237614 
L 105.070115 -31.547128 
L 106.782583 -31.782428 
L 108.482893 -32.071468 
L 110.169883 -32.430853 
L 111.841875 -32.923967 
L 111.841875 -37.963013 
L 111.841875 -37.963013 
L 110.169883 -37.371305 
L 108.482893 -36.976468 
L 106.782583 -36.558836 
L 105.070115 -36.36396 
L 103.348113 -35.98374 
L 101.621596 -35.577193 
L 99.896722 -35.459871 
L 98.17851 -35.408859 
L 96.468628 -34.956 
L 94.768028 -34.919491 
L 93.079927 -34.599809 
L 91.407663 -34.541743 
L 89.753264 -34.323054 
L 88.117093 -34.162625 
L 86.497664 -33.742405 
L 84.892463 -33.82457 
L 83.29783 -33.712253 
L 81.709928 -33.731297 
L 80.127404 -33.574725 
L 78.547277 -33.405687 
L 76.961914 -33.307288 
L 75.361939 -33.249687 
L 73.739902 -33.083657 
L 72.096315 -32.766008 
L 70.431054 -32.676724 
L 68.736046 -32.384579 
L 67.001573 -32.358573 
L 65.223091 -32.149864 
L 63.396145 -31.910173 
L 61.529305 -31.835265 
L 59.647425 -31.532007 
L 57.784134 -31.297632 
L 55.964416 -31.10767 
L 54.196413 -30.73611 
L 52.475901 -30.340546 
L 50.79991 -30.06311 
L 49.160866 -29.912096 
L 47.552122 -29.682286 
L 45.975954 -29.546034 
L 44.432537 -29.398682 
L 42.910037 -29.111624 
L 41.392847 -28.899902 
L 39.869849 -28.817241 
L 38.337968 -28.652941 
L 36.80061 -28.392359 
L 35.26155 -28.294528 
L 33.727335 -28.156606 
L 32.204078 -28.041142 
L 30.691779 -27.943287 
L 29.19259 -27.844337 
L 27.717662 -27.754124 
L 26.281102 -27.715378 
L 24.893223 -27.619036 
z
" id="m40590728c1" style="stroke:#ffffff;stroke-width:0.25;"/>
    </defs>
    <g clip-path="url(#pbaa592238f)">
     <use style="fill:#738fc1;stroke:#ffffff;stroke-width:0.25;" x="0" xlink:href="#m40590728c1" y="115.05375"/>
    </g>
   </g>
   <g id="PolyCollection_4">
    <defs>
     <path d="M 24.893223 -47.329279 
L 24.893223 -27.619036 
L 26.281102 -27.715378 
L 27.717662 -27.754124 
L 29.19259 -27.844337 
L 30.691779 -27.943287 
L 32.204078 -28.041142 
L 33.727335 -28.156606 
L 35.26155 -28.294528 
L 36.80061 -28.392359 
L 38.337968 -28.652941 
L 39.869849 -28.817241 
L 41.392847 -28.899902 
L 42.910037 -29.111624 
L 44.432537 -29.398682 
L 45.975954 -29.546034 
L 47.552122 -29.682286 
L 49.160866 -29.912096 
L 50.79991 -30.06311 
L 52.475901 -30.340546 
L 54.196413 -30.73611 
L 55.964416 -31.10767 
L 57.784134 -31.297632 
L 59.647425 -31.532007 
L 61.529305 -31.835265 
L 63.396145 -31.910173 
L 65.223091 -32.149864 
L 67.001573 -32.358573 
L 68.736046 -32.384579 
L 70.431054 -32.676724 
L 72.096315 -32.766008 
L 73.739902 -33.083657 
L 75.361939 -33.249687 
L 76.961914 -33.307288 
L 78.547277 -33.405687 
L 80.127404 -33.574725 
L 81.709928 -33.731297 
L 83.29783 -33.712253 
L 84.892463 -33.82457 
L 86.497664 -33.742405 
L 88.117093 -34.162625 
L 89.753264 -34.323054 
L 91.407663 -34.541743 
L 93.079927 -34.599809 
L 94.768028 -34.919491 
L 96.468628 -34.956 
L 98.17851 -35.408859 
L 99.896722 -35.459871 
L 101.621596 -35.577193 
L 103.348113 -35.98374 
L 105.070115 -36.36396 
L 106.782583 -36.558836 
L 108.482893 -36.976468 
L 110.169883 -37.371305 
L 111.841875 -37.963013 
L 111.841875 -103.970893 
L 111.841875 -103.970893 
L 110.169883 -101.77789 
L 108.482893 -100.504855 
L 106.782583 -99.509047 
L 105.070115 -99.044952 
L 103.348113 -98.414786 
L 101.621596 -97.091555 
L 99.896722 -96.185365 
L 98.17851 -94.555735 
L 96.468628 -91.440358 
L 94.768028 -92.447523 
L 93.079927 -91.711973 
L 91.407663 -89.76239 
L 89.753264 -88.01063 
L 88.117093 -86.001625 
L 86.497664 -83.249582 
L 84.892463 -81.280029 
L 83.29783 -80.110504 
L 81.709928 -79.571954 
L 80.127404 -78.275561 
L 78.547277 -77.354448 
L 76.961914 -77.038554 
L 75.361939 -76.563762 
L 73.739902 -75.129905 
L 72.096315 -74.129002 
L 70.431054 -73.525307 
L 68.736046 -73.19313 
L 67.001573 -72.850676 
L 65.223091 -72.525441 
L 63.396145 -71.952111 
L 61.529305 -71.085671 
L 59.647425 -69.438526 
L 57.784134 -67.983353 
L 55.964416 -67.092331 
L 54.196413 -66.042066 
L 52.475901 -64.225651 
L 50.79991 -63.624797 
L 49.160866 -63.857534 
L 47.552122 -64.032185 
L 45.975954 -64.30162 
L 44.432537 -63.022575 
L 42.910037 -61.781631 
L 41.392847 -60.528178 
L 39.869849 -58.773923 
L 38.337968 -58.598296 
L 36.80061 -58.425186 
L 35.26155 -56.676248 
L 33.727335 -55.113904 
L 32.204078 -53.98673 
L 30.691779 -52.346945 
L 29.19259 -50.698451 
L 27.717662 -49.298107 
L 26.281102 -48.464164 
L 24.893223 -47.329279 
z
" id="m2c28ff0f7b" style="stroke:#ffffff;stroke-width:0.25;"/>
    </defs>
    <g clip-path="url(#pbaa592238f)">
     <use style="fill:#808080;stroke:#ffffff;stroke-width:0.25;" x="0" xlink:href="#m2c28ff0f7b" y="115.05375"/>
    </g>
   </g>
   <g id="patch_3">
    <path d="M 28.141875 88.74 
L 28.141875 7.2 
" style="fill:none;stroke:#ffffff;stroke-linecap:square;stroke-linejoin:miter;stroke-width:0.8;"/>
   </g>
   <g id="patch_4">
    <path d="M 111.841875 88.74 
L 111.841875 7.2 
" style="fill:none;stroke:#ffffff;stroke-linecap:square;stroke-linejoin:miter;stroke-width:0.8;"/>
   </g>
   <g id="patch_5">
    <path d="M 28.141875 88.74 
L 111.841875 88.74 
" style="fill:none;stroke:#ffffff;stroke-linecap:square;stroke-linejoin:miter;stroke-width:0.8;"/>
   </g>
   <g id="patch_6">
    <path d="M 28.141875 7.2 
L 111.841875 7.2 
" style="fill:none;stroke:#ffffff;stroke-linecap:square;stroke-linejoin:miter;stroke-width:0.8;"/>
   </g>
  </g>
 </g>
 <defs>
  <clipPath id="pbaa592238f">
   <rect height="81.54" width="83.7" x="28.141875" y="7.2"/>
  </clipPath>
 </defs>
</svg>
