<?xml version="1.0" encoding="utf-8" standalone="no"?>
<!DOCTYPE svg PUBLIC "-//W3C//DTD SVG 1.1//EN"
  "http://www.w3.org/Graphics/SVG/1.1/DTD/svg11.dtd">
<!-- Created with matplotlib (https://matplotlib.org/) -->
<svg height="142.185pt" version="1.1" viewBox="0 0 152.563125 142.185" width="152.563125pt" xmlns="http://www.w3.org/2000/svg" xmlns:xlink="http://www.w3.org/1999/xlink">
 <metadata>
  <rdf:RDF xmlns:cc="http://creativecommons.org/ns#" xmlns:dc="http://purl.org/dc/elements/1.1/" xmlns:rdf="http://www.w3.org/1999/02/22-rdf-syntax-ns#">
   <cc:Work>
    <dc:type rdf:resource="http://purl.org/dc/dcmitype/StillImage"/>
    <dc:date>2021-07-12T20:20:13.289116</dc:date>
    <dc:format>image/svg+xml</dc:format>
    <dc:creator>
     <cc:Agent>
      <dc:title>Matplotlib v3.3.4, https://matplotlib.org/</dc:title>
     </cc:Agent>
    </dc:creator>
   </cc:Work>
  </rdf:RDF>
 </metadata>
 <defs>
  <style type="text/css">*{stroke-linecap:butt;stroke-linejoin:round;}</style>
 </defs>
 <g id="figure_1">
  <g id="patch_1">
   <path d="M 0 142.185 
L 152.563125 142.185 
L 152.563125 0 
L 0 0 
z
" style="fill:#ffffff;"/>
  </g>
  <g id="axes_1">
   <g id="patch_2">
    <path d="M 33.763125 115.92 
L 145.363125 115.92 
L 145.363125 7.2 
L 33.763125 7.2 
z
" style="fill:#e3dcd0;"/>
   </g>
   <g id="matplotlib.axis_1">
    <g id="xtick_1">
     <g id="text_1">
      <!-- 4 -->
      <g transform="translate(45.367773 124.045625)scale(0.06 -0.06)">
       <defs>
        <path d="M 37.640625 0 
L 37.640625 20.453125 
L 5.125 20.453125 
L 5.125 27.734375 
L 37.640625 72.265625 
L 46.6875 72.265625 
L 46.6875 28.328125 
L 56.34375 28.328125 
L 56.34375 20.453125 
L 46.6875 20.453125 
L 46.6875 0 
z
M 14.546875 28.328125 
L 38.28125 28.328125 
L 38.28125 60.453125 
z
" id="LucidaSansUnicode-52"/>
       </defs>
       <use xlink:href="#LucidaSansUnicode-52"/>
      </g>
     </g>
    </g>
    <g id="xtick_2">
     <g id="text_2">
      <!-- 5 -->
      <g transform="translate(72.371131 124.045625)scale(0.06 -0.06)">
       <defs>
        <path d="M 12.15625 -0.296875 
L 12.15625 8.296875 
Q 19.34375 5.421875 25.828125 5.421875 
Q 32.953125 5.421875 37.03125 9.609375 
Q 41.109375 13.8125 41.109375 21.1875 
Q 41.109375 29.109375 35.34375 33.28125 
Q 29.59375 37.453125 18.703125 37.453125 
Q 16.15625 37.453125 13.375 37.109375 
L 13.375 72.265625 
L 49.953125 72.265625 
L 49.953125 63.875 
L 21.828125 63.875 
L 21.828125 44.828125 
Q 35.75 44.828125 43.5625 38.421875 
Q 51.375 32.03125 51.375 20.703125 
Q 51.375 10.15625 44.265625 4.171875 
Q 37.15625 -1.8125 24.65625 -1.8125 
Q 19.09375 -1.8125 12.15625 -0.296875 
z
" id="LucidaSansUnicode-53"/>
       </defs>
       <use xlink:href="#LucidaSansUnicode-53"/>
      </g>
     </g>
    </g>
    <g id="xtick_3">
     <g id="text_3">
      <!-- 6 -->
      <g transform="translate(99.374489 124.045625)scale(0.06 -0.06)">
       <defs>
        <path d="M 17.1875 37.453125 
Q 24.078125 46.390625 34.515625 46.390625 
Q 44 46.390625 50.03125 40.109375 
Q 56.0625 33.84375 56.0625 24.03125 
Q 56.0625 12.75 49.296875 5.46875 
Q 42.53125 -1.8125 32.078125 -1.8125 
Q 20.171875 -1.8125 13.421875 7.828125 
Q 6.6875 17.484375 6.6875 34.515625 
Q 6.6875 57.46875 18.453125 68.21875 
Q 24.859375 74.125 36.140625 74.125 
Q 42.671875 74.125 52.34375 71.390625 
L 52.34375 62.984375 
Q 42.140625 66.890625 35.546875 66.890625 
Q 17.1875 66.890625 17.1875 37.453125 
z
M 46.390625 22.125 
Q 46.390625 30.125 42.671875 34.78125 
Q 38.96875 39.453125 32.515625 39.453125 
Q 26.375 39.453125 21.96875 35.34375 
Q 17.578125 31.25 17.578125 25.484375 
Q 17.578125 16.40625 21.75 10.90625 
Q 25.921875 5.421875 32.8125 5.421875 
Q 39.0625 5.421875 42.71875 9.90625 
Q 46.390625 14.40625 46.390625 22.125 
z
" id="LucidaSansUnicode-54"/>
       </defs>
       <use xlink:href="#LucidaSansUnicode-54"/>
      </g>
     </g>
    </g>
    <g id="xtick_4">
     <g id="text_4">
      <!-- 7 -->
      <g transform="translate(126.377847 124.045625)scale(0.06 -0.06)">
       <defs>
        <path d="M 15.046875 0 
Q 16.453125 8.453125 19.0625 14.59375 
Q 21.6875 20.75 28.328125 31.5 
L 48.046875 63.234375 
L 10.84375 63.234375 
L 10.84375 72.265625 
L 57.234375 72.265625 
L 57.234375 63.234375 
Q 29.4375 22.265625 26.125 0 
z
" id="LucidaSansUnicode-55"/>
       </defs>
       <use xlink:href="#LucidaSansUnicode-55"/>
      </g>
     </g>
    </g>
    <g id="text_5">
     <!-- population [billion] -->
     <g style="fill:#262626;" transform="translate(61.903125 133.828125)scale(0.06 -0.06)">
      <defs>
       <path d="M 9.625 -19.28125 
L 9.625 53.03125 
L 19.234375 53.03125 
L 19.234375 43.0625 
Q 25.140625 54.203125 36.96875 54.203125 
Q 46.53125 54.203125 52.015625 47.21875 
Q 57.515625 40.234375 57.515625 28.125 
Q 57.515625 14.9375 51.28125 6.859375 
Q 45.0625 -1.21875 34.90625 -1.21875 
Q 25.484375 -1.21875 19.234375 6 
L 19.234375 -19.28125 
z
M 19.234375 12.640625 
Q 26.65625 6 33.40625 6 
Q 40.046875 6 43.65625 11.546875 
Q 47.265625 17.09375 47.265625 27.15625 
Q 47.265625 45.796875 34.96875 45.796875 
Q 26.90625 45.796875 19.234375 37.0625 
z
" id="LucidaSansUnicode-112"/>
       <path d="M 30.71875 -1.21875 
Q 19.046875 -1.21875 12.234375 6.25 
Q 5.421875 13.71875 5.421875 26.515625 
Q 5.421875 39.3125 12.234375 46.75 
Q 19.046875 54.203125 30.71875 54.203125 
Q 42.390625 54.203125 49.1875 46.75 
Q 56 39.3125 56 26.515625 
Q 56 13.71875 49.1875 6.25 
Q 42.390625 -1.21875 30.71875 -1.21875 
z
M 30.71875 6 
Q 37.890625 6 41.84375 11.375 
Q 45.796875 16.75 45.796875 26.515625 
Q 45.796875 36.28125 41.84375 41.625 
Q 37.890625 46.96875 30.71875 46.96875 
Q 23.53125 46.96875 19.59375 41.625 
Q 15.671875 36.28125 15.671875 26.515625 
Q 15.671875 16.75 19.59375 11.375 
Q 23.53125 6 30.71875 6 
z
" id="LucidaSansUnicode-111"/>
       <path d="M 42.78125 0 
L 42.78125 9.96875 
Q 35.109375 -1.21875 24.171875 -1.21875 
Q 17.234375 -1.21875 13.125 3.140625 
Q 9.03125 7.515625 9.03125 14.9375 
L 9.03125 53.03125 
L 18.65625 53.03125 
L 18.65625 18.0625 
Q 18.65625 12.109375 20.390625 9.59375 
Q 22.125 7.078125 26.171875 7.078125 
Q 34.96875 7.078125 42.78125 18.65625 
L 42.78125 53.03125 
L 52.390625 53.03125 
L 52.390625 0 
z
" id="LucidaSansUnicode-117"/>
       <path d="M 9.625 0 
L 9.625 77.09375 
L 19.234375 77.09375 
L 19.234375 0 
z
" id="LucidaSansUnicode-108"/>
       <path d="M 36.96875 6.734375 
Q 28.328125 -1.21875 20.3125 -1.21875 
Q 13.71875 -1.21875 9.375 2.90625 
Q 5.03125 7.03125 5.03125 13.328125 
Q 5.03125 22.015625 12.328125 26.671875 
Q 19.625 31.34375 33.296875 31.34375 
L 35.546875 31.34375 
L 35.546875 37.75 
Q 35.546875 46.96875 25.921875 46.96875 
Q 18.453125 46.96875 9.625 42.28125 
L 9.625 50.25 
Q 19.34375 54.203125 27.9375 54.203125 
Q 36.765625 54.203125 40.96875 50.171875 
Q 45.171875 46.140625 45.171875 37.75 
L 45.171875 13.71875 
Q 45.171875 5.46875 50.25 5.46875 
Q 50.875 5.46875 52.09375 5.671875 
L 52.78125 0.34375 
Q 49.515625 -1.21875 45.5625 -1.21875 
Q 38.8125 -1.21875 36.96875 6.734375 
z
M 35.546875 11.96875 
L 35.546875 25.6875 
L 32.46875 25.78125 
Q 24.46875 25.78125 19.5625 22.796875 
Q 14.65625 19.828125 14.65625 14.890625 
Q 14.65625 11.421875 17.09375 9.03125 
Q 19.53125 6.640625 23.046875 6.640625 
Q 29.046875 6.640625 35.546875 11.96875 
z
" id="LucidaSansUnicode-97"/>
       <path d="M 33.25 0 
Q 28.8125 -1.21875 25.53125 -1.21875 
Q 18.21875 -1.21875 14.109375 2.96875 
Q 10.015625 7.171875 10.015625 14.65625 
L 10.015625 45.796875 
L 3.375 45.796875 
L 3.375 53.03125 
L 10.015625 53.03125 
L 10.015625 62.640625 
L 19.625 63.578125 
L 19.625 53.03125 
L 33.5 53.03125 
L 33.5 45.796875 
L 19.625 45.796875 
L 19.625 16.40625 
Q 19.625 6 28.609375 6 
Q 30.515625 6 33.25 6.640625 
z
" id="LucidaSansUnicode-116"/>
       <path d="M 9.625 0 
L 9.625 53.03125 
L 19.234375 53.03125 
L 19.234375 0 
z
M 9.625 62.640625 
L 9.625 72.265625 
L 19.234375 72.265625 
L 19.234375 62.640625 
z
" id="LucidaSansUnicode-105"/>
       <path d="M 9.625 0 
L 9.625 53.03125 
L 19.234375 53.03125 
L 19.234375 43.0625 
Q 26.859375 54.203125 37.890625 54.203125 
Q 44.828125 54.203125 48.90625 49.828125 
Q 52.984375 45.453125 52.984375 38.09375 
L 52.984375 0 
L 43.359375 0 
L 43.359375 34.96875 
Q 43.359375 40.875 41.625 43.390625 
Q 39.890625 45.90625 35.890625 45.90625 
Q 27.046875 45.90625 19.234375 34.328125 
L 19.234375 0 
z
" id="LucidaSansUnicode-110"/>
       <path id="LucidaSansUnicode-32"/>
       <path d="M 9.625 -14.453125 
L 9.625 77.09375 
L 28.90625 77.09375 
L 28.90625 69.875 
L 18.0625 69.875 
L 18.0625 -7.234375 
L 28.90625 -7.234375 
L 28.90625 -14.453125 
z
" id="LucidaSansUnicode-91"/>
       <path d="M 9.625 -0.59375 
L 9.625 77.09375 
L 19.234375 77.09375 
L 19.234375 43.0625 
Q 25.140625 54.203125 36.96875 54.203125 
Q 46.53125 54.203125 52.015625 47.21875 
Q 57.515625 40.234375 57.515625 28.125 
Q 57.515625 14.9375 51.28125 6.859375 
Q 45.0625 -1.21875 34.90625 -1.21875 
Q 25.484375 -1.21875 19.234375 6 
L 18.0625 -0.59375 
z
M 19.234375 12.640625 
Q 26.65625 6 33.40625 6 
Q 40.046875 6 43.65625 11.546875 
Q 47.265625 17.09375 47.265625 27.15625 
Q 47.265625 45.796875 34.96875 45.796875 
Q 26.90625 45.796875 19.234375 37.0625 
z
" id="LucidaSansUnicode-98"/>
       <path d="M 22.90625 77.09375 
L 22.90625 -14.453125 
L 3.609375 -14.453125 
L 3.609375 -7.234375 
L 14.453125 -7.234375 
L 14.453125 69.875 
L 3.609375 69.875 
L 3.609375 77.09375 
z
" id="LucidaSansUnicode-93"/>
      </defs>
      <use xlink:href="#LucidaSansUnicode-112"/>
      <use x="62.939453" xlink:href="#LucidaSansUnicode-111"/>
      <use x="124.365234" xlink:href="#LucidaSansUnicode-112"/>
      <use x="187.304688" xlink:href="#LucidaSansUnicode-117"/>
      <use x="249.365234" xlink:href="#LucidaSansUnicode-108"/>
      <use x="278.271484" xlink:href="#LucidaSansUnicode-97"/>
      <use x="333.496094" xlink:href="#LucidaSansUnicode-116"/>
      <use x="370.898438" xlink:href="#LucidaSansUnicode-105"/>
      <use x="399.804688" xlink:href="#LucidaSansUnicode-111"/>
      <use x="461.230469" xlink:href="#LucidaSansUnicode-110"/>
      <use x="523.291016" xlink:href="#LucidaSansUnicode-32"/>
      <use x="554.931641" xlink:href="#LucidaSansUnicode-91"/>
      <use x="587.451172" xlink:href="#LucidaSansUnicode-98"/>
      <use x="650.390625" xlink:href="#LucidaSansUnicode-105"/>
      <use x="679.296875" xlink:href="#LucidaSansUnicode-108"/>
      <use x="708.203125" xlink:href="#LucidaSansUnicode-108"/>
      <use x="737.109375" xlink:href="#LucidaSansUnicode-105"/>
      <use x="766.015625" xlink:href="#LucidaSansUnicode-111"/>
      <use x="827.441406" xlink:href="#LucidaSansUnicode-110"/>
      <use x="889.501953" xlink:href="#LucidaSansUnicode-93"/>
     </g>
    </g>
   </g>
   <g id="matplotlib.axis_2">
    <g id="ytick_1">
     <g id="text_6">
      <!-- 0.0 -->
      <g transform="translate(20.776563 118.232812)scale(0.06 -0.06)">
       <defs>
        <path d="M 31.640625 -1.8125 
Q 20.265625 -1.8125 13.296875 8.609375 
Q 6.34375 19.046875 6.34375 36.140625 
Q 6.34375 53.21875 13.296875 63.640625 
Q 20.265625 74.078125 31.640625 74.078125 
Q 43.0625 74.078125 50 63.671875 
Q 56.9375 53.265625 56.9375 36.140625 
Q 56.9375 19.046875 50 8.609375 
Q 43.0625 -1.8125 31.640625 -1.8125 
z
M 31.640625 5.421875 
Q 46.734375 5.421875 46.734375 36.140625 
Q 46.734375 66.84375 31.640625 66.84375 
Q 16.609375 66.84375 16.609375 36.140625 
Q 16.609375 5.421875 31.640625 5.421875 
z
" id="LucidaSansUnicode-48"/>
        <path d="M 9.765625 0 
L 9.765625 12.0625 
L 21.828125 12.0625 
L 21.828125 0 
z
" id="LucidaSansUnicode-46"/>
       </defs>
       <use xlink:href="#LucidaSansUnicode-48"/>
       <use x="63.232422" xlink:href="#LucidaSansUnicode-46"/>
       <use x="94.873047" xlink:href="#LucidaSansUnicode-48"/>
      </g>
     </g>
    </g>
    <g id="ytick_2">
     <g id="text_7">
      <!-- 2.5 -->
      <g transform="translate(20.776563 104.038605)scale(0.06 -0.06)">
       <defs>
        <path d="M 8.296875 0 
L 8.296875 8.453125 
Q 12.5 18.265625 25.296875 29.828125 
L 30.8125 34.765625 
Q 41.453125 44.390625 41.453125 53.859375 
Q 41.453125 59.90625 37.8125 63.375 
Q 34.1875 66.84375 27.78125 66.84375 
Q 20.3125 66.84375 10.109375 61.03125 
L 10.109375 69.53125 
Q 19.734375 74.078125 29.25 74.078125 
Q 39.40625 74.078125 45.53125 68.609375 
Q 51.65625 63.140625 51.65625 54.109375 
Q 51.65625 47.609375 48.546875 42.578125 
Q 45.453125 37.546875 37.015625 30.375 
L 33.296875 27.203125 
Q 21.734375 17.390625 19.921875 8.453125 
L 51.3125 8.453125 
L 51.3125 0 
z
" id="LucidaSansUnicode-50"/>
       </defs>
       <use xlink:href="#LucidaSansUnicode-50"/>
       <use x="63.232422" xlink:href="#LucidaSansUnicode-46"/>
       <use x="94.873047" xlink:href="#LucidaSansUnicode-53"/>
      </g>
     </g>
    </g>
    <g id="ytick_3">
     <g id="text_8">
      <!-- 5.0 -->
      <g transform="translate(20.776563 89.844398)scale(0.06 -0.06)">
       <use xlink:href="#LucidaSansUnicode-53"/>
       <use x="63.232422" xlink:href="#LucidaSansUnicode-46"/>
       <use x="94.873047" xlink:href="#LucidaSansUnicode-48"/>
      </g>
     </g>
    </g>
    <g id="ytick_4">
     <g id="text_9">
      <!-- 7.5 -->
      <g transform="translate(20.776563 75.65019)scale(0.06 -0.06)">
       <use xlink:href="#LucidaSansUnicode-55"/>
       <use x="63.232422" xlink:href="#LucidaSansUnicode-46"/>
       <use x="94.873047" xlink:href="#LucidaSansUnicode-53"/>
      </g>
     </g>
    </g>
    <g id="ytick_5">
     <g id="text_10">
      <!-- 10.0 -->
      <g transform="translate(16.9825 61.455983)scale(0.06 -0.06)">
       <defs>
        <path d="M 26.171875 0 
L 26.171875 65.046875 
L 14.75 65.046875 
L 14.75 71.09375 
L 35.84375 72.90625 
L 35.84375 0 
z
" id="LucidaSansUnicode-49"/>
       </defs>
       <use xlink:href="#LucidaSansUnicode-49"/>
       <use x="63.232422" xlink:href="#LucidaSansUnicode-48"/>
       <use x="126.464844" xlink:href="#LucidaSansUnicode-46"/>
       <use x="158.105469" xlink:href="#LucidaSansUnicode-48"/>
      </g>
     </g>
    </g>
    <g id="ytick_6">
     <g id="text_11">
      <!-- 12.5 -->
      <g transform="translate(16.9825 47.261775)scale(0.06 -0.06)">
       <use xlink:href="#LucidaSansUnicode-49"/>
       <use x="63.232422" xlink:href="#LucidaSansUnicode-50"/>
       <use x="126.464844" xlink:href="#LucidaSansUnicode-46"/>
       <use x="158.105469" xlink:href="#LucidaSansUnicode-53"/>
      </g>
     </g>
    </g>
    <g id="ytick_7">
     <g id="text_12">
      <!-- 15.0 -->
      <g transform="translate(16.9825 33.067568)scale(0.06 -0.06)">
       <use xlink:href="#LucidaSansUnicode-49"/>
       <use x="63.232422" xlink:href="#LucidaSansUnicode-53"/>
       <use x="126.464844" xlink:href="#LucidaSansUnicode-46"/>
       <use x="158.105469" xlink:href="#LucidaSansUnicode-48"/>
      </g>
     </g>
    </g>
    <g id="ytick_8">
     <g id="text_13">
      <!-- 17.5 -->
      <g transform="translate(16.9825 18.873361)scale(0.06 -0.06)">
       <use xlink:href="#LucidaSansUnicode-49"/>
       <use x="63.232422" xlink:href="#LucidaSansUnicode-55"/>
       <use x="126.464844" xlink:href="#LucidaSansUnicode-46"/>
       <use x="158.105469" xlink:href="#LucidaSansUnicode-53"/>
      </g>
     </g>
    </g>
    <g id="text_14">
     <!-- consumed power [TW] -->
     <g style="fill:#262626;" transform="translate(11.825625 93.807187)rotate(-90)scale(0.06 -0.06)">
      <defs>
       <path d="M 46.4375 1.609375 
Q 37.109375 -1.21875 30.328125 -1.21875 
Q 19.578125 -1.21875 12.5 6.734375 
Q 5.421875 14.703125 5.421875 26.8125 
Q 5.421875 39.75 12.421875 46.96875 
Q 19.4375 54.203125 31.984375 54.203125 
Q 38.1875 54.203125 45.84375 52.484375 
L 45.84375 44.4375 
Q 37.703125 46.828125 32.5625 46.828125 
Q 25.140625 46.828125 20.703125 41.28125 
Q 16.265625 35.75 16.265625 26.515625 
Q 16.265625 17.578125 20.84375 12.0625 
Q 25.4375 6.546875 32.859375 6.546875 
Q 39.453125 6.546875 46.4375 9.90625 
z
" id="LucidaSansUnicode-99"/>
       <path d="M 7.671875 1.859375 
L 7.671875 10.6875 
Q 17.09375 6 24.078125 6 
Q 28.21875 6 30.953125 8.25 
Q 33.6875 10.5 33.6875 13.875 
Q 33.6875 18.796875 26.03125 22.015625 
L 20.40625 24.421875 
Q 7.953125 29.59375 7.953125 39.3125 
Q 7.953125 46.234375 12.859375 50.21875 
Q 17.78125 54.203125 26.3125 54.203125 
Q 30.765625 54.203125 37.3125 52.984375 
L 39.3125 52.59375 
L 39.3125 44.578125 
Q 31.25 46.96875 26.46875 46.96875 
Q 22.265625 46.96875 19.75 45.140625 
Q 17.234375 43.3125 17.234375 40.234375 
Q 17.234375 35.890625 24.265625 32.90625 
L 28.90625 30.953125 
Q 36.765625 27.640625 40.03125 23.953125 
Q 43.3125 20.265625 43.3125 14.75 
Q 43.3125 7.765625 37.796875 3.265625 
Q 32.28125 -1.21875 23.6875 -1.21875 
Q 17.09375 -1.21875 7.671875 1.859375 
z
" id="LucidaSansUnicode-115"/>
       <path d="M 9.625 0 
L 9.625 53.03125 
L 19.234375 53.03125 
L 19.234375 43.0625 
Q 26.265625 54.203125 37.3125 54.203125 
Q 47.953125 54.203125 51.8125 43.0625 
Q 58.640625 54.25 69.578125 54.25 
Q 76.5625 54.25 80.4375 50.125 
Q 84.328125 46 84.328125 38.578125 
L 84.328125 0 
L 74.65625 0 
L 74.65625 37.0625 
Q 74.65625 46.140625 67.484375 46.140625 
Q 60.015625 46.140625 51.8125 35.546875 
L 51.8125 0 
L 42.140625 0 
L 42.140625 37.0625 
Q 42.140625 46.1875 34.8125 46.1875 
Q 27.546875 46.1875 19.234375 35.546875 
L 19.234375 0 
z
" id="LucidaSansUnicode-109"/>
       <path d="M 48.484375 1.703125 
Q 38.8125 -1.21875 31.9375 -1.21875 
Q 20.171875 -1.21875 12.796875 6.5625 
Q 5.421875 14.359375 5.421875 26.765625 
Q 5.421875 38.8125 11.9375 46.53125 
Q 18.453125 54.25 28.609375 54.25 
Q 38.234375 54.25 43.484375 47.390625 
Q 48.734375 40.53125 48.734375 27.9375 
L 48.6875 25 
L 15.234375 25 
Q 17.328125 6.109375 33.734375 6.109375 
Q 39.75 6.109375 48.484375 9.328125 
z
M 15.671875 32.234375 
L 39.0625 32.234375 
Q 39.0625 47.015625 28.03125 47.015625 
Q 16.9375 47.015625 15.671875 32.234375 
z
" id="LucidaSansUnicode-101"/>
       <path d="M 43.65625 0 
L 43.65625 9.96875 
Q 37.796875 -1.21875 25.984375 -1.21875 
Q 16.40625 -1.21875 10.90625 5.765625 
Q 5.421875 12.75 5.421875 24.859375 
Q 5.421875 38.09375 11.640625 46.140625 
Q 17.875 54.203125 28.03125 54.203125 
Q 37.453125 54.203125 43.65625 46.96875 
L 43.65625 77.09375 
L 53.328125 77.09375 
L 53.328125 0 
z
M 43.65625 40.375 
Q 36.1875 46.96875 29.5 46.96875 
Q 22.90625 46.96875 19.28125 41.453125 
Q 15.671875 35.9375 15.671875 25.828125 
Q 15.671875 7.234375 27.984375 7.234375 
Q 35.984375 7.234375 43.65625 15.96875 
z
" id="LucidaSansUnicode-100"/>
       <path d="M 15.765625 0 
L 0.59375 53.03125 
L 10.015625 53.03125 
L 21.625 11.96875 
L 34.1875 53.03125 
L 43.796875 53.03125 
L 54.78125 11.96875 
L 68.109375 53.03125 
L 76.375 53.03125 
L 59.078125 0 
L 49.421875 0 
L 38.1875 41.0625 
L 25.484375 0 
z
" id="LucidaSansUnicode-119"/>
       <path d="M 9.625 0 
L 9.625 53.03125 
L 19.234375 53.03125 
L 19.234375 43.0625 
Q 24.953125 54.203125 35.84375 54.203125 
Q 37.3125 54.203125 38.921875 53.953125 
L 38.921875 44.96875 
Q 36.421875 45.796875 34.515625 45.796875 
Q 25.390625 45.796875 19.234375 34.96875 
L 19.234375 0 
z
" id="LucidaSansUnicode-114"/>
       <path d="M 26.515625 0 
L 26.515625 64.59375 
L 0.875 64.59375 
L 0.875 72.265625 
L 62.40625 72.265625 
L 62.40625 64.59375 
L 36.765625 64.59375 
L 36.765625 0 
z
" id="LucidaSansUnicode-84"/>
       <path d="M 18.703125 0 
L 0.09375 72.265625 
L 9.96875 72.265625 
L 24.75 15.1875 
L 38.375 72.265625 
L 48.25 72.265625 
L 61.140625 15.96875 
L 77.046875 72.265625 
L 85.40625 72.265625 
L 65.140625 0 
L 54.9375 0 
L 42.1875 55.71875 
L 28.859375 0 
z
" id="LucidaSansUnicode-87"/>
      </defs>
      <use xlink:href="#LucidaSansUnicode-99"/>
      <use x="51.220703" xlink:href="#LucidaSansUnicode-111"/>
      <use x="112.646484" xlink:href="#LucidaSansUnicode-110"/>
      <use x="174.707031" xlink:href="#LucidaSansUnicode-115"/>
      <use x="225.683594" xlink:href="#LucidaSansUnicode-117"/>
      <use x="287.744141" xlink:href="#LucidaSansUnicode-109"/>
      <use x="381.103516" xlink:href="#LucidaSansUnicode-101"/>
      <use x="436.816406" xlink:href="#LucidaSansUnicode-100"/>
      <use x="499.755859" xlink:href="#LucidaSansUnicode-32"/>
      <use x="531.396484" xlink:href="#LucidaSansUnicode-112"/>
      <use x="594.335938" xlink:href="#LucidaSansUnicode-111"/>
      <use x="655.761719" xlink:href="#LucidaSansUnicode-119"/>
      <use x="732.8125" xlink:href="#LucidaSansUnicode-101"/>
      <use x="788.525391" xlink:href="#LucidaSansUnicode-114"/>
      <use x="829.443359" xlink:href="#LucidaSansUnicode-32"/>
      <use x="861.083984" xlink:href="#LucidaSansUnicode-91"/>
      <use x="893.603516" xlink:href="#LucidaSansUnicode-84"/>
      <use x="956.835938" xlink:href="#LucidaSansUnicode-87"/>
      <use x="1042.382812" xlink:href="#LucidaSansUnicode-93"/>
     </g>
    </g>
   </g>
   <g id="PolyCollection_1">
    <defs>
     <path d="M 29.431589 -26.311107 
L 29.431589 -26.265 
L 31.282094 -26.265 
L 33.197508 -26.265 
L 35.164078 -26.265 
L 37.162997 -26.265 
L 39.179395 -26.265 
L 41.210405 -26.265 
L 43.256025 -26.265 
L 45.308105 -26.265 
L 47.357916 -26.265 
L 49.400424 -26.265 
L 51.431087 -26.265 
L 53.454008 -26.265 
L 55.484008 -26.265 
L 57.541897 -26.265 
L 59.643455 -26.265 
L 61.788446 -26.265 
L 63.973838 -26.265 
L 66.208493 -26.265 
L 68.502509 -26.265 
L 70.859847 -26.265 
L 73.286137 -26.265 
L 75.770524 -26.265 
L 78.279699 -26.265 
L 80.768819 -26.265 
L 83.204747 -26.265 
L 85.576056 -26.265 
L 87.888687 -26.265 
L 90.148698 -26.265 
L 92.369045 -26.265 
L 94.560495 -26.265 
L 96.72321 -26.265 
L 98.85651 -26.265 
L 100.970327 -26.265 
L 103.077164 -26.265 
L 105.187196 -26.265 
L 107.304399 -26.265 
L 109.430575 -26.265 
L 111.570844 -26.265 
L 113.730083 -26.265 
L 115.911644 -26.265 
L 118.117509 -26.265 
L 120.347194 -26.265 
L 122.597996 -26.265 
L 124.865463 -26.265 
L 127.145305 -26.265 
L 129.436254 -26.265 
L 131.736086 -26.265 
L 134.038109 -26.265 
L 136.334112 -26.265 
L 138.617402 -26.265 
L 140.884482 -26.265 
L 143.133803 -26.265 
L 145.363125 -26.265 
L 145.363125 -30.62684 
L 145.363125 -30.62684 
L 143.133803 -30.552055 
L 140.884482 -30.53877 
L 138.617402 -30.499856 
L 136.334112 -30.467945 
L 134.038109 -30.413834 
L 131.736086 -30.401153 
L 129.436254 -30.73269 
L 127.145305 -30.956371 
L 124.865463 -30.866794 
L 122.597996 -30.961811 
L 120.347194 -31.005896 
L 118.117509 -31.134952 
L 115.911644 -31.105465 
L 113.730083 -31.123519 
L 111.570844 -30.942127 
L 109.430575 -31.069604 
L 107.304399 -31.02475 
L 105.187196 -30.924309 
L 103.077164 -30.822241 
L 100.970327 -30.654382 
L 98.85651 -30.580177 
L 96.72321 -30.610009 
L 94.560495 -30.457632 
L 92.369045 -30.283327 
L 90.148698 -30.209277 
L 87.888687 -30.077964 
L 85.576056 -30.049234 
L 83.204747 -29.876443 
L 80.768819 -29.776337 
L 78.279699 -29.679281 
L 75.770524 -29.396722 
L 73.286137 -29.143984 
L 70.859847 -28.952957 
L 68.502509 -28.529878 
L 66.208493 -28.131347 
L 63.973838 -27.911758 
L 61.788446 -27.782811 
L 59.643455 -27.55024 
L 57.541897 -27.44 
L 55.484008 -27.39475 
L 53.454008 -27.237243 
L 51.431087 -27.046104 
L 49.400424 -26.932689 
L 47.357916 -26.746294 
L 45.308105 -26.633104 
L 43.256025 -26.539722 
L 41.210405 -26.463049 
L 39.179395 -26.407393 
L 37.162997 -26.376538 
L 35.164078 -26.35908 
L 33.197508 -26.339028 
L 31.282094 -26.327163 
L 29.431589 -26.311107 
z
" id="me1b2b1c1b4" style="stroke:#ffffff;stroke-width:0.25;"/>
    </defs>
    <g clip-path="url(#p393349f256)">
     <use style="fill:#d56c55;stroke:#ffffff;stroke-width:0.25;" x="0" xlink:href="#me1b2b1c1b4" y="142.185"/>
    </g>
   </g>
   <g id="PolyCollection_2">
    <defs>
     <path d="M 29.431589 -26.343483 
L 29.431589 -26.311107 
L 31.282094 -26.327163 
L 33.197508 -26.339028 
L 35.164078 -26.35908 
L 37.162997 -26.376538 
L 39.179395 -26.407393 
L 41.210405 -26.463049 
L 43.256025 -26.539722 
L 45.308105 -26.633104 
L 47.357916 -26.746294 
L 49.400424 -26.932689 
L 51.431087 -27.046104 
L 53.454008 -27.237243 
L 55.484008 -27.39475 
L 57.541897 -27.44 
L 59.643455 -27.55024 
L 61.788446 -27.782811 
L 63.973838 -27.911758 
L 66.208493 -28.131347 
L 68.502509 -28.529878 
L 70.859847 -28.952957 
L 73.286137 -29.143984 
L 75.770524 -29.396722 
L 78.279699 -29.679281 
L 80.768819 -29.776337 
L 83.204747 -29.876443 
L 85.576056 -30.049234 
L 87.888687 -30.077964 
L 90.148698 -30.209277 
L 92.369045 -30.283327 
L 94.560495 -30.457632 
L 96.72321 -30.610009 
L 98.85651 -30.580177 
L 100.970327 -30.654382 
L 103.077164 -30.822241 
L 105.187196 -30.924309 
L 107.304399 -31.02475 
L 109.430575 -31.069604 
L 111.570844 -30.942127 
L 113.730083 -31.123519 
L 115.911644 -31.105465 
L 118.117509 -31.134952 
L 120.347194 -31.005896 
L 122.597996 -30.961811 
L 124.865463 -30.866794 
L 127.145305 -30.956371 
L 129.436254 -30.73269 
L 131.736086 -30.401153 
L 134.038109 -30.413834 
L 136.334112 -30.467945 
L 138.617402 -30.499856 
L 140.884482 -30.53877 
L 143.133803 -30.552055 
L 145.363125 -30.62684 
L 145.363125 -35.078622 
L 145.363125 -35.078622 
L 143.133803 -34.421138 
L 140.884482 -33.941958 
L 138.617402 -33.556571 
L 136.334112 -33.242837 
L 134.038109 -32.830152 
L 131.736086 -32.524018 
L 129.436254 -32.580095 
L 127.145305 -32.586233 
L 124.865463 -32.258284 
L 122.597996 -32.166893 
L 120.347194 -32.012323 
L 118.117509 -31.991051 
L 115.911644 -31.860331 
L 113.730083 -31.781765 
L 111.570844 -31.530748 
L 109.430575 -31.602832 
L 107.304399 -31.508482 
L 105.187196 -31.381126 
L 103.077164 -31.255684 
L 100.970327 -31.064024 
L 98.85651 -30.970281 
L 96.72321 -30.975631 
L 94.560495 -30.817022 
L 92.369045 -30.625263 
L 90.148698 -30.534366 
L 87.888687 -30.382767 
L 85.576056 -30.347486 
L 83.204747 -30.160123 
L 80.768819 -29.968949 
L 78.279699 -29.849001 
L 75.770524 -29.561693 
L 73.286137 -29.298039 
L 70.859847 -29.092995 
L 68.502509 -28.666706 
L 66.208493 -28.25379 
L 63.973838 -28.022235 
L 61.788446 -27.878498 
L 59.643455 -27.639141 
L 57.541897 -27.523112 
L 55.484008 -27.472098 
L 53.454008 -27.310262 
L 51.431087 -27.115339 
L 49.400424 -26.994765 
L 47.357916 -26.807425 
L 45.308105 -26.690862 
L 43.256025 -26.593506 
L 41.210405 -26.513236 
L 39.179395 -26.453644 
L 37.162997 -26.418406 
L 35.164078 -26.3989 
L 33.197508 -26.375007 
L 31.282094 -26.362816 
L 29.431589 -26.343483 
z
" id="m41bdd61e97" style="stroke:#ffffff;stroke-width:0.25;"/>
    </defs>
    <g clip-path="url(#p393349f256)">
     <use style="fill:#7aa974;stroke:#ffffff;stroke-width:0.25;" x="0" xlink:href="#m41bdd61e97" y="142.185"/>
    </g>
   </g>
   <g id="PolyCollection_3">
    <defs>
     <path d="M 29.431589 -28.005381 
L 29.431589 -26.343483 
L 31.282094 -26.362816 
L 33.197508 -26.375007 
L 35.164078 -26.3989 
L 37.162997 -26.418406 
L 39.179395 -26.453644 
L 41.210405 -26.513236 
L 43.256025 -26.593506 
L 45.308105 -26.690862 
L 47.357916 -26.807425 
L 49.400424 -26.994765 
L 51.431087 -27.115339 
L 53.454008 -27.310262 
L 55.484008 -27.472098 
L 57.541897 -27.523112 
L 59.643455 -27.639141 
L 61.788446 -27.878498 
L 63.973838 -28.022235 
L 66.208493 -28.25379 
L 68.502509 -28.666706 
L 70.859847 -29.092995 
L 73.286137 -29.298039 
L 75.770524 -29.561693 
L 78.279699 -29.849001 
L 80.768819 -29.968949 
L 83.204747 -30.160123 
L 85.576056 -30.347486 
L 87.888687 -30.382767 
L 90.148698 -30.534366 
L 92.369045 -30.625263 
L 94.560495 -30.817022 
L 96.72321 -30.975631 
L 98.85651 -30.970281 
L 100.970327 -31.064024 
L 103.077164 -31.255684 
L 105.187196 -31.381126 
L 107.304399 -31.508482 
L 109.430575 -31.602832 
L 111.570844 -31.530748 
L 113.730083 -31.781765 
L 115.911644 -31.860331 
L 118.117509 -31.991051 
L 120.347194 -32.012323 
L 122.597996 -32.166893 
L 124.865463 -32.258284 
L 127.145305 -32.586233 
L 129.436254 -32.580095 
L 131.736086 -32.524018 
L 134.038109 -32.830152 
L 136.334112 -33.242837 
L 138.617402 -33.556571 
L 140.884482 -33.941958 
L 143.133803 -34.421138 
L 145.363125 -35.078622 
L 145.363125 -41.797351 
L 145.363125 -41.797351 
L 143.133803 -41.008407 
L 140.884482 -40.481957 
L 138.617402 -39.925115 
L 136.334112 -39.66528 
L 134.038109 -39.158321 
L 131.736086 -38.616257 
L 129.436254 -38.459827 
L 127.145305 -38.391812 
L 124.865463 -37.788 
L 122.597996 -37.739322 
L 120.347194 -37.313079 
L 118.117509 -37.235657 
L 115.911644 -36.944072 
L 113.730083 -36.730166 
L 111.570844 -36.169873 
L 109.430575 -36.279427 
L 107.304399 -36.129671 
L 105.187196 -36.155063 
L 103.077164 -35.9463 
L 100.970327 -35.720916 
L 98.85651 -35.589717 
L 96.72321 -35.512915 
L 94.560495 -35.291543 
L 92.369045 -34.868011 
L 90.148698 -34.748965 
L 87.888687 -34.359439 
L 85.576056 -34.324764 
L 83.204747 -34.046485 
L 80.768819 -33.726897 
L 78.279699 -33.62702 
L 75.770524 -33.222676 
L 73.286137 -32.910176 
L 70.859847 -32.656893 
L 68.502509 -32.16148 
L 66.208493 -31.634062 
L 63.973838 -31.264147 
L 61.788446 -31.062795 
L 59.643455 -30.756381 
L 57.541897 -30.574712 
L 55.484008 -30.378243 
L 53.454008 -29.995499 
L 51.431087 -29.713203 
L 49.400424 -29.602988 
L 47.357916 -29.383922 
L 45.308105 -29.036479 
L 43.256025 -28.906037 
L 41.210405 -28.722141 
L 39.179395 -28.56819 
L 37.162997 -28.437715 
L 35.164078 -28.305782 
L 33.197508 -28.185498 
L 31.282094 -28.133838 
L 29.431589 -28.005381 
z
" id="mb2254ab020" style="stroke:#ffffff;stroke-width:0.25;"/>
    </defs>
    <g clip-path="url(#p393349f256)">
     <use style="fill:#738fc1;stroke:#ffffff;stroke-width:0.25;" x="0" xlink:href="#mb2254ab020" y="142.185"/>
    </g>
   </g>
   <g id="PolyCollection_4">
    <defs>
     <path d="M 29.431589 -54.285705 
L 29.431589 -28.005381 
L 31.282094 -28.133838 
L 33.197508 -28.185498 
L 35.164078 -28.305782 
L 37.162997 -28.437715 
L 39.179395 -28.56819 
L 41.210405 -28.722141 
L 43.256025 -28.906037 
L 45.308105 -29.036479 
L 47.357916 -29.383922 
L 49.400424 -29.602988 
L 51.431087 -29.713203 
L 53.454008 -29.995499 
L 55.484008 -30.378243 
L 57.541897 -30.574712 
L 59.643455 -30.756381 
L 61.788446 -31.062795 
L 63.973838 -31.264147 
L 66.208493 -31.634062 
L 68.502509 -32.16148 
L 70.859847 -32.656893 
L 73.286137 -32.910176 
L 75.770524 -33.222676 
L 78.279699 -33.62702 
L 80.768819 -33.726897 
L 83.204747 -34.046485 
L 85.576056 -34.324764 
L 87.888687 -34.359439 
L 90.148698 -34.748965 
L 92.369045 -34.868011 
L 94.560495 -35.291543 
L 96.72321 -35.512915 
L 98.85651 -35.589717 
L 100.970327 -35.720916 
L 103.077164 -35.9463 
L 105.187196 -36.155063 
L 107.304399 -36.129671 
L 109.430575 -36.279427 
L 111.570844 -36.169873 
L 113.730083 -36.730166 
L 115.911644 -36.944072 
L 118.117509 -37.235657 
L 120.347194 -37.313079 
L 122.597996 -37.739322 
L 124.865463 -37.788 
L 127.145305 -38.391812 
L 129.436254 -38.459827 
L 131.736086 -38.616257 
L 134.038109 -39.158321 
L 136.334112 -39.66528 
L 138.617402 -39.925115 
L 140.884482 -40.481957 
L 143.133803 -41.008407 
L 145.363125 -41.797351 
L 145.363125 -129.807857 
L 145.363125 -129.807857 
L 143.133803 -126.883854 
L 140.884482 -125.186474 
L 138.617402 -123.85873 
L 136.334112 -123.239937 
L 134.038109 -122.399714 
L 131.736086 -120.635407 
L 129.436254 -119.427153 
L 127.145305 -117.254314 
L 124.865463 -113.100478 
L 122.597996 -114.443363 
L 120.347194 -113.462631 
L 118.117509 -110.863187 
L 115.911644 -108.527506 
L 113.730083 -105.848833 
L 111.570844 -102.179443 
L 109.430575 -99.553372 
L 107.304399 -97.994005 
L 105.187196 -97.275938 
L 103.077164 -95.547414 
L 100.970327 -94.319264 
L 98.85651 -93.898072 
L 96.72321 -93.265016 
L 94.560495 -91.353206 
L 92.369045 -90.018669 
L 90.148698 -89.213742 
L 87.888687 -88.77084 
L 85.576056 -88.314234 
L 83.204747 -87.880588 
L 80.768819 -87.116147 
L 78.279699 -85.960894 
L 75.770524 -83.764701 
L 73.286137 -81.824471 
L 70.859847 -80.636441 
L 68.502509 -79.236088 
L 66.208493 -76.814201 
L 63.973838 -76.013063 
L 61.788446 -76.323379 
L 59.643455 -76.556247 
L 57.541897 -76.915493 
L 55.484008 -75.2101 
L 53.454008 -73.555508 
L 51.431087 -71.884237 
L 49.400424 -69.54523 
L 47.357916 -69.311062 
L 45.308105 -69.080248 
L 43.256025 -66.748331 
L 41.210405 -64.665205 
L 39.179395 -63.162307 
L 37.162997 -60.975927 
L 35.164078 -58.777934 
L 33.197508 -56.910809 
L 31.282094 -55.798886 
L 29.431589 -54.285705 
z
" id="mc7646ee620" style="stroke:#ffffff;stroke-width:0.25;"/>
    </defs>
    <g clip-path="url(#p393349f256)">
     <use style="fill:#808080;stroke:#ffffff;stroke-width:0.25;" x="0" xlink:href="#mc7646ee620" y="142.185"/>
    </g>
   </g>
   <g id="patch_3">
    <path d="M 33.763125 115.92 
L 33.763125 7.2 
" style="fill:none;stroke:#ffffff;stroke-linecap:square;stroke-linejoin:miter;stroke-width:0.8;"/>
   </g>
   <g id="patch_4">
    <path d="M 145.363125 115.92 
L 145.363125 7.2 
" style="fill:none;stroke:#ffffff;stroke-linecap:square;stroke-linejoin:miter;stroke-width:0.8;"/>
   </g>
   <g id="patch_5">
    <path d="M 33.763125 115.92 
L 145.363125 115.92 
" style="fill:none;stroke:#ffffff;stroke-linecap:square;stroke-linejoin:miter;stroke-width:0.8;"/>
   </g>
   <g id="patch_6">
    <path d="M 33.763125 7.2 
L 145.363125 7.2 
" style="fill:none;stroke:#ffffff;stroke-linecap:square;stroke-linejoin:miter;stroke-width:0.8;"/>
   </g>
  </g>
 </g>
 <defs>
  <clipPath id="p393349f256">
   <rect height="108.72" width="111.6" x="33.763125" y="7.2"/>
  </clipPath>
 </defs>
</svg>
