<?xml version="1.0" encoding="utf-8" standalone="no"?>
<!DOCTYPE svg PUBLIC "-//W3C//DTD SVG 1.1//EN"
  "http://www.w3.org/Graphics/SVG/1.1/DTD/svg11.dtd">
<svg xmlns:xlink="http://www.w3.org/1999/xlink" width="146.941875pt" height="142.23375pt" viewBox="0 0 146.941875 142.23375" xmlns="http://www.w3.org/2000/svg" version="1.1">
 <metadata>
  <rdf:RDF xmlns:dc="http://purl.org/dc/elements/1.1/" xmlns:cc="http://creativecommons.org/ns#" xmlns:rdf="http://www.w3.org/1999/02/22-rdf-syntax-ns#">
   <cc:Work>
    <dc:type rdf:resource="http://purl.org/dc/dcmitype/StillImage"/>
    <dc:date>2022-02-26T13:51:00.779786</dc:date>
    <dc:format>image/svg+xml</dc:format>
    <dc:creator>
     <cc:Agent>
      <dc:title>Matplotlib v3.5.1, https://matplotlib.org/</dc:title>
     </cc:Agent>
    </dc:creator>
   </cc:Work>
  </rdf:RDF>
 </metadata>
 <defs>
  <style type="text/css">*{stroke-linejoin: round; stroke-linecap: butt}</style>
 </defs>
 <g id="figure_1">
  <g id="patch_1">
   <path d="M 0 142.23375 
L 146.941875 142.23375 
L 146.941875 0 
L 0 0 
z
" style="fill: #ffffff"/>
  </g>
  <g id="axes_1">
   <g id="patch_2">
    <path d="M 28.141875 115.92 
L 139.741875 115.92 
L 139.741875 7.2 
L 28.141875 7.2 
z
" style="fill: #e3dcd0"/>
   </g>
   <g id="matplotlib.axis_1">
    <g id="xtick_1">
     <g id="text_1">
      <!-- 3 -->
      <g transform="translate(26.233125 123.979062)scale(0.06 -0.06)">
       <defs>
        <path id="DejaVuSans-33" d="M 2597 2516 
Q 3050 2419 3304 2112 
Q 3559 1806 3559 1356 
Q 3559 666 3084 287 
Q 2609 -91 1734 -91 
Q 1441 -91 1130 -33 
Q 819 25 488 141 
L 488 750 
Q 750 597 1062 519 
Q 1375 441 1716 441 
Q 2309 441 2620 675 
Q 2931 909 2931 1356 
Q 2931 1769 2642 2001 
Q 2353 2234 1838 2234 
L 1294 2234 
L 1294 2753 
L 1863 2753 
Q 2328 2753 2575 2939 
Q 2822 3125 2822 3475 
Q 2822 3834 2567 4026 
Q 2313 4219 1838 4219 
Q 1578 4219 1281 4162 
Q 984 4106 628 3988 
L 628 4550 
Q 988 4650 1302 4700 
Q 1616 4750 1894 4750 
Q 2613 4750 3031 4423 
Q 3450 4097 3450 3541 
Q 3450 3153 3228 2886 
Q 3006 2619 2597 2516 
z
" transform="scale(0.015625)"/>
       </defs>
       <use xlink:href="#DejaVuSans-33"/>
      </g>
     </g>
    </g>
    <g id="xtick_2">
     <g id="text_2">
      <!-- 4 -->
      <g transform="translate(50.322128 123.979062)scale(0.06 -0.06)">
       <defs>
        <path id="DejaVuSans-34" d="M 2419 4116 
L 825 1625 
L 2419 1625 
L 2419 4116 
z
M 2253 4666 
L 3047 4666 
L 3047 1625 
L 3713 1625 
L 3713 1100 
L 3047 1100 
L 3047 0 
L 2419 0 
L 2419 1100 
L 313 1100 
L 313 1709 
L 2253 4666 
z
" transform="scale(0.015625)"/>
       </defs>
       <use xlink:href="#DejaVuSans-34"/>
      </g>
     </g>
    </g>
    <g id="xtick_3">
     <g id="text_3">
      <!-- 5 -->
      <g transform="translate(74.411132 123.979062)scale(0.06 -0.06)">
       <defs>
        <path id="DejaVuSans-35" d="M 691 4666 
L 3169 4666 
L 3169 4134 
L 1269 4134 
L 1269 2991 
Q 1406 3038 1543 3061 
Q 1681 3084 1819 3084 
Q 2600 3084 3056 2656 
Q 3513 2228 3513 1497 
Q 3513 744 3044 326 
Q 2575 -91 1722 -91 
Q 1428 -91 1123 -41 
Q 819 9 494 109 
L 494 744 
Q 775 591 1075 516 
Q 1375 441 1709 441 
Q 2250 441 2565 725 
Q 2881 1009 2881 1497 
Q 2881 1984 2565 2268 
Q 2250 2553 1709 2553 
Q 1456 2553 1204 2497 
Q 953 2441 691 2322 
L 691 4666 
z
" transform="scale(0.015625)"/>
       </defs>
       <use xlink:href="#DejaVuSans-35"/>
      </g>
     </g>
    </g>
    <g id="xtick_4">
     <g id="text_4">
      <!-- 6 -->
      <g transform="translate(98.500135 123.979062)scale(0.06 -0.06)">
       <defs>
        <path id="DejaVuSans-36" d="M 2113 2584 
Q 1688 2584 1439 2293 
Q 1191 2003 1191 1497 
Q 1191 994 1439 701 
Q 1688 409 2113 409 
Q 2538 409 2786 701 
Q 3034 994 3034 1497 
Q 3034 2003 2786 2293 
Q 2538 2584 2113 2584 
z
M 3366 4563 
L 3366 3988 
Q 3128 4100 2886 4159 
Q 2644 4219 2406 4219 
Q 1781 4219 1451 3797 
Q 1122 3375 1075 2522 
Q 1259 2794 1537 2939 
Q 1816 3084 2150 3084 
Q 2853 3084 3261 2657 
Q 3669 2231 3669 1497 
Q 3669 778 3244 343 
Q 2819 -91 2113 -91 
Q 1303 -91 875 529 
Q 447 1150 447 2328 
Q 447 3434 972 4092 
Q 1497 4750 2381 4750 
Q 2619 4750 2861 4703 
Q 3103 4656 3366 4563 
z
" transform="scale(0.015625)"/>
       </defs>
       <use xlink:href="#DejaVuSans-36"/>
      </g>
     </g>
    </g>
    <g id="xtick_5">
     <g id="text_5">
      <!-- 7 -->
      <g transform="translate(122.589138 123.979062)scale(0.06 -0.06)">
       <defs>
        <path id="DejaVuSans-37" d="M 525 4666 
L 3525 4666 
L 3525 4397 
L 1831 0 
L 1172 0 
L 2766 4134 
L 525 4134 
L 525 4666 
z
" transform="scale(0.015625)"/>
       </defs>
       <use xlink:href="#DejaVuSans-37"/>
      </g>
     </g>
    </g>
    <g id="text_6">
     <!-- population [billion] -->
     <g style="fill: #262626" transform="translate(55.708125 133.785937)scale(0.06 -0.06)">
      <defs>
       <path id="DejaVuSans-70" d="M 1159 525 
L 1159 -1331 
L 581 -1331 
L 581 3500 
L 1159 3500 
L 1159 2969 
Q 1341 3281 1617 3432 
Q 1894 3584 2278 3584 
Q 2916 3584 3314 3078 
Q 3713 2572 3713 1747 
Q 3713 922 3314 415 
Q 2916 -91 2278 -91 
Q 1894 -91 1617 61 
Q 1341 213 1159 525 
z
M 3116 1747 
Q 3116 2381 2855 2742 
Q 2594 3103 2138 3103 
Q 1681 3103 1420 2742 
Q 1159 2381 1159 1747 
Q 1159 1113 1420 752 
Q 1681 391 2138 391 
Q 2594 391 2855 752 
Q 3116 1113 3116 1747 
z
" transform="scale(0.015625)"/>
       <path id="DejaVuSans-6f" d="M 1959 3097 
Q 1497 3097 1228 2736 
Q 959 2375 959 1747 
Q 959 1119 1226 758 
Q 1494 397 1959 397 
Q 2419 397 2687 759 
Q 2956 1122 2956 1747 
Q 2956 2369 2687 2733 
Q 2419 3097 1959 3097 
z
M 1959 3584 
Q 2709 3584 3137 3096 
Q 3566 2609 3566 1747 
Q 3566 888 3137 398 
Q 2709 -91 1959 -91 
Q 1206 -91 779 398 
Q 353 888 353 1747 
Q 353 2609 779 3096 
Q 1206 3584 1959 3584 
z
" transform="scale(0.015625)"/>
       <path id="DejaVuSans-75" d="M 544 1381 
L 544 3500 
L 1119 3500 
L 1119 1403 
Q 1119 906 1312 657 
Q 1506 409 1894 409 
Q 2359 409 2629 706 
Q 2900 1003 2900 1516 
L 2900 3500 
L 3475 3500 
L 3475 0 
L 2900 0 
L 2900 538 
Q 2691 219 2414 64 
Q 2138 -91 1772 -91 
Q 1169 -91 856 284 
Q 544 659 544 1381 
z
M 1991 3584 
L 1991 3584 
z
" transform="scale(0.015625)"/>
       <path id="DejaVuSans-6c" d="M 603 4863 
L 1178 4863 
L 1178 0 
L 603 0 
L 603 4863 
z
" transform="scale(0.015625)"/>
       <path id="DejaVuSans-61" d="M 2194 1759 
Q 1497 1759 1228 1600 
Q 959 1441 959 1056 
Q 959 750 1161 570 
Q 1363 391 1709 391 
Q 2188 391 2477 730 
Q 2766 1069 2766 1631 
L 2766 1759 
L 2194 1759 
z
M 3341 1997 
L 3341 0 
L 2766 0 
L 2766 531 
Q 2569 213 2275 61 
Q 1981 -91 1556 -91 
Q 1019 -91 701 211 
Q 384 513 384 1019 
Q 384 1609 779 1909 
Q 1175 2209 1959 2209 
L 2766 2209 
L 2766 2266 
Q 2766 2663 2505 2880 
Q 2244 3097 1772 3097 
Q 1472 3097 1187 3025 
Q 903 2953 641 2809 
L 641 3341 
Q 956 3463 1253 3523 
Q 1550 3584 1831 3584 
Q 2591 3584 2966 3190 
Q 3341 2797 3341 1997 
z
" transform="scale(0.015625)"/>
       <path id="DejaVuSans-74" d="M 1172 4494 
L 1172 3500 
L 2356 3500 
L 2356 3053 
L 1172 3053 
L 1172 1153 
Q 1172 725 1289 603 
Q 1406 481 1766 481 
L 2356 481 
L 2356 0 
L 1766 0 
Q 1100 0 847 248 
Q 594 497 594 1153 
L 594 3053 
L 172 3053 
L 172 3500 
L 594 3500 
L 594 4494 
L 1172 4494 
z
" transform="scale(0.015625)"/>
       <path id="DejaVuSans-69" d="M 603 3500 
L 1178 3500 
L 1178 0 
L 603 0 
L 603 3500 
z
M 603 4863 
L 1178 4863 
L 1178 4134 
L 603 4134 
L 603 4863 
z
" transform="scale(0.015625)"/>
       <path id="DejaVuSans-6e" d="M 3513 2113 
L 3513 0 
L 2938 0 
L 2938 2094 
Q 2938 2591 2744 2837 
Q 2550 3084 2163 3084 
Q 1697 3084 1428 2787 
Q 1159 2491 1159 1978 
L 1159 0 
L 581 0 
L 581 3500 
L 1159 3500 
L 1159 2956 
Q 1366 3272 1645 3428 
Q 1925 3584 2291 3584 
Q 2894 3584 3203 3211 
Q 3513 2838 3513 2113 
z
" transform="scale(0.015625)"/>
       <path id="DejaVuSans-20" transform="scale(0.015625)"/>
       <path id="DejaVuSans-5b" d="M 550 4863 
L 1875 4863 
L 1875 4416 
L 1125 4416 
L 1125 -397 
L 1875 -397 
L 1875 -844 
L 550 -844 
L 550 4863 
z
" transform="scale(0.015625)"/>
       <path id="DejaVuSans-62" d="M 3116 1747 
Q 3116 2381 2855 2742 
Q 2594 3103 2138 3103 
Q 1681 3103 1420 2742 
Q 1159 2381 1159 1747 
Q 1159 1113 1420 752 
Q 1681 391 2138 391 
Q 2594 391 2855 752 
Q 3116 1113 3116 1747 
z
M 1159 2969 
Q 1341 3281 1617 3432 
Q 1894 3584 2278 3584 
Q 2916 3584 3314 3078 
Q 3713 2572 3713 1747 
Q 3713 922 3314 415 
Q 2916 -91 2278 -91 
Q 1894 -91 1617 61 
Q 1341 213 1159 525 
L 1159 0 
L 581 0 
L 581 4863 
L 1159 4863 
L 1159 2969 
z
" transform="scale(0.015625)"/>
       <path id="DejaVuSans-5d" d="M 1947 4863 
L 1947 -844 
L 622 -844 
L 622 -397 
L 1369 -397 
L 1369 4416 
L 622 4416 
L 622 4863 
L 1947 4863 
z
" transform="scale(0.015625)"/>
      </defs>
      <use xlink:href="#DejaVuSans-70"/>
      <use xlink:href="#DejaVuSans-6f" x="63.476562"/>
      <use xlink:href="#DejaVuSans-70" x="124.658203"/>
      <use xlink:href="#DejaVuSans-75" x="188.134766"/>
      <use xlink:href="#DejaVuSans-6c" x="251.513672"/>
      <use xlink:href="#DejaVuSans-61" x="279.296875"/>
      <use xlink:href="#DejaVuSans-74" x="340.576172"/>
      <use xlink:href="#DejaVuSans-69" x="379.785156"/>
      <use xlink:href="#DejaVuSans-6f" x="407.568359"/>
      <use xlink:href="#DejaVuSans-6e" x="468.75"/>
      <use xlink:href="#DejaVuSans-20" x="532.128906"/>
      <use xlink:href="#DejaVuSans-5b" x="563.916016"/>
      <use xlink:href="#DejaVuSans-62" x="602.929688"/>
      <use xlink:href="#DejaVuSans-69" x="666.40625"/>
      <use xlink:href="#DejaVuSans-6c" x="694.189453"/>
      <use xlink:href="#DejaVuSans-6c" x="721.972656"/>
      <use xlink:href="#DejaVuSans-69" x="749.755859"/>
      <use xlink:href="#DejaVuSans-6f" x="777.539062"/>
      <use xlink:href="#DejaVuSans-6e" x="838.720703"/>
      <use xlink:href="#DejaVuSans-5d" x="902.099609"/>
     </g>
    </g>
   </g>
   <g id="matplotlib.axis_2">
    <g id="ytick_1">
     <g id="text_7">
      <!-- 0 -->
      <g transform="translate(20.824375 118.199531)scale(0.06 -0.06)">
       <defs>
        <path id="DejaVuSans-30" d="M 2034 4250 
Q 1547 4250 1301 3770 
Q 1056 3291 1056 2328 
Q 1056 1369 1301 889 
Q 1547 409 2034 409 
Q 2525 409 2770 889 
Q 3016 1369 3016 2328 
Q 3016 3291 2770 3770 
Q 2525 4250 2034 4250 
z
M 2034 4750 
Q 2819 4750 3233 4129 
Q 3647 3509 3647 2328 
Q 3647 1150 3233 529 
Q 2819 -91 2034 -91 
Q 1250 -91 836 529 
Q 422 1150 422 2328 
Q 422 3509 836 4129 
Q 1250 4750 2034 4750 
z
" transform="scale(0.015625)"/>
       </defs>
       <use xlink:href="#DejaVuSans-30"/>
      </g>
     </g>
    </g>
    <g id="ytick_2">
     <g id="text_8">
      <!-- 10 -->
      <g transform="translate(17.006875 95.937415)scale(0.06 -0.06)">
       <defs>
        <path id="DejaVuSans-31" d="M 794 531 
L 1825 531 
L 1825 4091 
L 703 3866 
L 703 4441 
L 1819 4666 
L 2450 4666 
L 2450 531 
L 3481 531 
L 3481 0 
L 794 0 
L 794 531 
z
" transform="scale(0.015625)"/>
       </defs>
       <use xlink:href="#DejaVuSans-31"/>
       <use xlink:href="#DejaVuSans-30" x="63.623047"/>
      </g>
     </g>
    </g>
    <g id="ytick_3">
     <g id="text_9">
      <!-- 20 -->
      <g transform="translate(17.006875 73.675299)scale(0.06 -0.06)">
       <defs>
        <path id="DejaVuSans-32" d="M 1228 531 
L 3431 531 
L 3431 0 
L 469 0 
L 469 531 
Q 828 903 1448 1529 
Q 2069 2156 2228 2338 
Q 2531 2678 2651 2914 
Q 2772 3150 2772 3378 
Q 2772 3750 2511 3984 
Q 2250 4219 1831 4219 
Q 1534 4219 1204 4116 
Q 875 4013 500 3803 
L 500 4441 
Q 881 4594 1212 4672 
Q 1544 4750 1819 4750 
Q 2544 4750 2975 4387 
Q 3406 4025 3406 3419 
Q 3406 3131 3298 2873 
Q 3191 2616 2906 2266 
Q 2828 2175 2409 1742 
Q 1991 1309 1228 531 
z
" transform="scale(0.015625)"/>
       </defs>
       <use xlink:href="#DejaVuSans-32"/>
       <use xlink:href="#DejaVuSans-30" x="63.623047"/>
      </g>
     </g>
    </g>
    <g id="ytick_4">
     <g id="text_10">
      <!-- 30 -->
      <g transform="translate(17.006875 51.413183)scale(0.06 -0.06)">
       <use xlink:href="#DejaVuSans-33"/>
       <use xlink:href="#DejaVuSans-30" x="63.623047"/>
      </g>
     </g>
    </g>
    <g id="ytick_5">
     <g id="text_11">
      <!-- 40 -->
      <g transform="translate(17.006875 29.151067)scale(0.06 -0.06)">
       <use xlink:href="#DejaVuSans-34"/>
       <use xlink:href="#DejaVuSans-30" x="63.623047"/>
      </g>
     </g>
    </g>
    <g id="text_12">
     <!-- livestock population [million] -->
     <g style="fill: #262626" transform="translate(11.759062 105.014531)rotate(-90)scale(0.06 -0.06)">
      <defs>
       <path id="DejaVuSans-76" d="M 191 3500 
L 800 3500 
L 1894 563 
L 2988 3500 
L 3597 3500 
L 2284 0 
L 1503 0 
L 191 3500 
z
" transform="scale(0.015625)"/>
       <path id="DejaVuSans-65" d="M 3597 1894 
L 3597 1613 
L 953 1613 
Q 991 1019 1311 708 
Q 1631 397 2203 397 
Q 2534 397 2845 478 
Q 3156 559 3463 722 
L 3463 178 
Q 3153 47 2828 -22 
Q 2503 -91 2169 -91 
Q 1331 -91 842 396 
Q 353 884 353 1716 
Q 353 2575 817 3079 
Q 1281 3584 2069 3584 
Q 2775 3584 3186 3129 
Q 3597 2675 3597 1894 
z
M 3022 2063 
Q 3016 2534 2758 2815 
Q 2500 3097 2075 3097 
Q 1594 3097 1305 2825 
Q 1016 2553 972 2059 
L 3022 2063 
z
" transform="scale(0.015625)"/>
       <path id="DejaVuSans-73" d="M 2834 3397 
L 2834 2853 
Q 2591 2978 2328 3040 
Q 2066 3103 1784 3103 
Q 1356 3103 1142 2972 
Q 928 2841 928 2578 
Q 928 2378 1081 2264 
Q 1234 2150 1697 2047 
L 1894 2003 
Q 2506 1872 2764 1633 
Q 3022 1394 3022 966 
Q 3022 478 2636 193 
Q 2250 -91 1575 -91 
Q 1294 -91 989 -36 
Q 684 19 347 128 
L 347 722 
Q 666 556 975 473 
Q 1284 391 1588 391 
Q 1994 391 2212 530 
Q 2431 669 2431 922 
Q 2431 1156 2273 1281 
Q 2116 1406 1581 1522 
L 1381 1569 
Q 847 1681 609 1914 
Q 372 2147 372 2553 
Q 372 3047 722 3315 
Q 1072 3584 1716 3584 
Q 2034 3584 2315 3537 
Q 2597 3491 2834 3397 
z
" transform="scale(0.015625)"/>
       <path id="DejaVuSans-63" d="M 3122 3366 
L 3122 2828 
Q 2878 2963 2633 3030 
Q 2388 3097 2138 3097 
Q 1578 3097 1268 2742 
Q 959 2388 959 1747 
Q 959 1106 1268 751 
Q 1578 397 2138 397 
Q 2388 397 2633 464 
Q 2878 531 3122 666 
L 3122 134 
Q 2881 22 2623 -34 
Q 2366 -91 2075 -91 
Q 1284 -91 818 406 
Q 353 903 353 1747 
Q 353 2603 823 3093 
Q 1294 3584 2113 3584 
Q 2378 3584 2631 3529 
Q 2884 3475 3122 3366 
z
" transform="scale(0.015625)"/>
       <path id="DejaVuSans-6b" d="M 581 4863 
L 1159 4863 
L 1159 1991 
L 2875 3500 
L 3609 3500 
L 1753 1863 
L 3688 0 
L 2938 0 
L 1159 1709 
L 1159 0 
L 581 0 
L 581 4863 
z
" transform="scale(0.015625)"/>
       <path id="DejaVuSans-6d" d="M 3328 2828 
Q 3544 3216 3844 3400 
Q 4144 3584 4550 3584 
Q 5097 3584 5394 3201 
Q 5691 2819 5691 2113 
L 5691 0 
L 5113 0 
L 5113 2094 
Q 5113 2597 4934 2840 
Q 4756 3084 4391 3084 
Q 3944 3084 3684 2787 
Q 3425 2491 3425 1978 
L 3425 0 
L 2847 0 
L 2847 2094 
Q 2847 2600 2669 2842 
Q 2491 3084 2119 3084 
Q 1678 3084 1418 2786 
Q 1159 2488 1159 1978 
L 1159 0 
L 581 0 
L 581 3500 
L 1159 3500 
L 1159 2956 
Q 1356 3278 1631 3431 
Q 1906 3584 2284 3584 
Q 2666 3584 2933 3390 
Q 3200 3197 3328 2828 
z
" transform="scale(0.015625)"/>
      </defs>
      <use xlink:href="#DejaVuSans-6c"/>
      <use xlink:href="#DejaVuSans-69" x="27.783203"/>
      <use xlink:href="#DejaVuSans-76" x="55.566406"/>
      <use xlink:href="#DejaVuSans-65" x="114.746094"/>
      <use xlink:href="#DejaVuSans-73" x="176.269531"/>
      <use xlink:href="#DejaVuSans-74" x="228.369141"/>
      <use xlink:href="#DejaVuSans-6f" x="267.578125"/>
      <use xlink:href="#DejaVuSans-63" x="328.759766"/>
      <use xlink:href="#DejaVuSans-6b" x="383.740234"/>
      <use xlink:href="#DejaVuSans-20" x="441.650391"/>
      <use xlink:href="#DejaVuSans-70" x="473.4375"/>
      <use xlink:href="#DejaVuSans-6f" x="536.914062"/>
      <use xlink:href="#DejaVuSans-70" x="598.095703"/>
      <use xlink:href="#DejaVuSans-75" x="661.572266"/>
      <use xlink:href="#DejaVuSans-6c" x="724.951172"/>
      <use xlink:href="#DejaVuSans-61" x="752.734375"/>
      <use xlink:href="#DejaVuSans-74" x="814.013672"/>
      <use xlink:href="#DejaVuSans-69" x="853.222656"/>
      <use xlink:href="#DejaVuSans-6f" x="881.005859"/>
      <use xlink:href="#DejaVuSans-6e" x="942.1875"/>
      <use xlink:href="#DejaVuSans-20" x="1005.566406"/>
      <use xlink:href="#DejaVuSans-5b" x="1037.353516"/>
      <use xlink:href="#DejaVuSans-6d" x="1076.367188"/>
      <use xlink:href="#DejaVuSans-69" x="1173.779297"/>
      <use xlink:href="#DejaVuSans-6c" x="1201.5625"/>
      <use xlink:href="#DejaVuSans-6c" x="1229.345703"/>
      <use xlink:href="#DejaVuSans-69" x="1257.128906"/>
      <use xlink:href="#DejaVuSans-6f" x="1284.912109"/>
      <use xlink:href="#DejaVuSans-6e" x="1346.09375"/>
      <use xlink:href="#DejaVuSans-5d" x="1409.472656"/>
     </g>
    </g>
   </g>
   <g id="PolyCollection_1">
    <defs>
     <path id="mc3e9d17bb2" d="M 30.317239 -31.732354 
L 30.317239 -26.31375 
L 31.73702 -26.31375 
L 33.207102 -26.31375 
L 34.734331 -26.31375 
L 36.322324 -26.31375 
L 37.973113 -26.31375 
L 39.681804 -26.31375 
L 41.436131 -26.31375 
L 43.219315 -26.31375 
L 45.018092 -26.31375 
L 46.829905 -26.31375 
L 48.65475 -26.31375 
L 50.485358 -26.31375 
L 52.313941 -26.31375 
L 54.13601 -26.31375 
L 55.947513 -26.31375 
L 57.752108 -26.31375 
L 59.56302 -26.31375 
L 61.39881 -26.31375 
L 63.273555 -26.31375 
L 65.187047 -26.31375 
L 67.136579 -26.31375 
L 69.130057 -26.31375 
L 71.176491 -26.31375 
L 73.279411 -26.31375 
L 75.443842 -26.31375 
L 77.660101 -26.31375 
L 79.898471 -26.31375 
L 82.118951 -26.31375 
L 84.29198 -26.31375 
L 86.407364 -26.31375 
L 88.470403 -26.31375 
L 90.4865 -26.31375 
L 92.467215 -26.31375 
L 94.422151 -26.31375 
L 96.351454 -26.31375 
L 98.254516 -26.31375 
L 100.140199 -26.31375 
L 102.019654 -26.31375 
L 103.901959 -26.31375 
L 105.790661 -26.31375 
L 107.687369 -26.31375 
L 109.596647 -26.31375 
L 111.522849 -26.31375 
L 113.468964 -26.31375 
L 115.436759 -26.31375 
L 117.425805 -26.31375 
L 119.433687 -26.31375 
L 121.456436 -26.31375 
L 123.490225 -26.31375 
L 125.533922 -26.31375 
L 127.585543 -26.31375 
L 129.639119 -26.31375 
L 131.687324 -26.31375 
L 133.724189 -26.31375 
L 135.746592 -26.31375 
L 137.753154 -26.31375 
L 139.741875 -26.31375 
L 139.741875 -40.531654 
L 139.741875 -40.531654 
L 137.753154 -40.656725 
L 135.746592 -40.618543 
L 133.724189 -40.561876 
L 131.687324 -40.258184 
L 129.639119 -40.415941 
L 127.585543 -40.423257 
L 125.533922 -40.119384 
L 123.490225 -40.705323 
L 121.456436 -40.365808 
L 119.433687 -40.229888 
L 117.425805 -39.743975 
L 115.436759 -40.021457 
L 113.468964 -39.789513 
L 111.522849 -39.435585 
L 109.596647 -38.971744 
L 107.687369 -39.048174 
L 105.790661 -38.590378 
L 103.901959 -38.37729 
L 102.019654 -37.884263 
L 100.140199 -37.477853 
L 98.254516 -38.173576 
L 96.351454 -37.847528 
L 94.422151 -37.502446 
L 92.467215 -37.296194 
L 90.4865 -36.910645 
L 88.470403 -36.599859 
L 86.407364 -36.466012 
L 84.29198 -36.431465 
L 82.118951 -35.902398 
L 79.898471 -35.586787 
L 77.660101 -35.31801 
L 75.443842 -34.751982 
L 73.279411 -34.309972 
L 71.176491 -34.169974 
L 69.130057 -34.188959 
L 67.136579 -34.078345 
L 65.187047 -33.915547 
L 63.273555 -33.769795 
L 61.39881 -33.537411 
L 59.56302 -33.293654 
L 57.752108 -33.094397 
L 55.947513 -33.042715 
L 54.13601 -32.965234 
L 52.313941 -32.872816 
L 50.485358 -32.725155 
L 48.65475 -32.661259 
L 46.829905 -32.608973 
L 45.018092 -32.45255 
L 43.219315 -32.398058 
L 41.436131 -32.319184 
L 39.681804 -32.226108 
L 37.973113 -32.106852 
L 36.322324 -31.987013 
L 34.734331 -31.901397 
L 33.207102 -31.826247 
L 31.73702 -31.765887 
L 30.317239 -31.732354 
z
" style="stroke: #ffffff; stroke-width: 0.25"/>
    </defs>
    <g clip-path="url(#p3c71e6bbf1)">
     <use xlink:href="#mc3e9d17bb2" x="0" y="142.23375" style="fill: #808080; stroke: #ffffff; stroke-width: 0.25"/>
    </g>
   </g>
   <g id="PolyCollection_2">
    <defs>
     <path id="me2edbad4ed" d="M 30.317239 -32.827075 
L 30.317239 -31.732354 
L 31.73702 -31.765887 
L 33.207102 -31.826247 
L 34.734331 -31.901397 
L 36.322324 -31.987013 
L 37.973113 -32.106852 
L 39.681804 -32.226108 
L 41.436131 -32.319184 
L 43.219315 -32.398058 
L 45.018092 -32.45255 
L 46.829905 -32.608973 
L 48.65475 -32.661259 
L 50.485358 -32.725155 
L 52.313941 -32.872816 
L 54.13601 -32.965234 
L 55.947513 -33.042715 
L 57.752108 -33.094397 
L 59.56302 -33.293654 
L 61.39881 -33.537411 
L 63.273555 -33.769795 
L 65.187047 -33.915547 
L 67.136579 -34.078345 
L 69.130057 -34.188959 
L 71.176491 -34.169974 
L 73.279411 -34.309972 
L 75.443842 -34.751982 
L 77.660101 -35.31801 
L 79.898471 -35.586787 
L 82.118951 -35.902398 
L 84.29198 -36.431465 
L 86.407364 -36.466012 
L 88.470403 -36.599859 
L 90.4865 -36.910645 
L 92.467215 -37.296194 
L 94.422151 -37.502446 
L 96.351454 -37.847528 
L 98.254516 -38.173576 
L 100.140199 -37.477853 
L 102.019654 -37.884263 
L 103.901959 -38.37729 
L 105.790661 -38.590378 
L 107.687369 -39.048174 
L 109.596647 -38.971744 
L 111.522849 -39.435585 
L 113.468964 -39.789513 
L 115.436759 -40.021457 
L 117.425805 -39.743975 
L 119.433687 -40.229888 
L 121.456436 -40.365808 
L 123.490225 -40.705323 
L 125.533922 -40.119384 
L 127.585543 -40.423257 
L 129.639119 -40.415941 
L 131.687324 -40.258184 
L 133.724189 -40.561876 
L 135.746592 -40.618543 
L 137.753154 -40.656725 
L 139.741875 -40.531654 
L 139.741875 -43.658276 
L 139.741875 -43.658276 
L 137.753154 -43.828663 
L 135.746592 -43.844573 
L 133.724189 -43.833123 
L 131.687324 -43.541177 
L 129.639119 -43.676366 
L 127.585543 -43.697322 
L 125.533922 -43.349294 
L 123.490225 -43.923715 
L 121.456436 -43.585305 
L 119.433687 -43.313631 
L 117.425805 -42.737785 
L 115.436759 -43.06139 
L 113.468964 -42.75616 
L 111.522849 -42.359904 
L 109.596647 -41.91761 
L 107.687369 -41.985053 
L 105.790661 -41.497629 
L 103.901959 -41.355035 
L 102.019654 -40.821774 
L 100.140199 -40.324429 
L 98.254516 -40.863967 
L 96.351454 -40.880497 
L 94.422151 -40.44317 
L 92.467215 -40.158896 
L 90.4865 -39.736268 
L 88.470403 -39.383081 
L 86.407364 -39.226289 
L 84.29198 -39.109931 
L 82.118951 -38.552094 
L 79.898471 -38.172198 
L 77.660101 -37.945691 
L 75.443842 -37.343126 
L 73.279411 -36.774907 
L 71.176491 -36.603217 
L 69.130057 -36.599672 
L 67.136579 -36.456641 
L 65.187047 -36.344915 
L 63.273555 -36.270649 
L 61.39881 -35.921712 
L 59.56302 -35.594221 
L 57.752108 -35.326297 
L 55.947513 -35.195963 
L 54.13601 -35.079155 
L 52.313941 -34.986478 
L 50.485358 -34.844408 
L 48.65475 -34.716137 
L 46.829905 -34.451988 
L 45.018092 -34.062389 
L 43.219315 -34.000023 
L 41.436131 -33.967276 
L 39.681804 -33.882987 
L 37.973113 -33.6217 
L 36.322324 -33.438063 
L 34.734331 -33.223314 
L 33.207102 -33.053157 
L 31.73702 -32.883058 
L 30.317239 -32.827075 
z
" style="stroke: #ffffff; stroke-width: 0.25"/>
    </defs>
    <g clip-path="url(#p3c71e6bbf1)">
     <use xlink:href="#me2edbad4ed" x="0" y="142.23375" style="fill: #e8b19d; stroke: #ffffff; stroke-width: 0.25"/>
    </g>
   </g>
   <g id="PolyCollection_3">
    <defs>
     <path id="mbb8d853458" d="M 30.317239 -35.034667 
L 30.317239 -32.827075 
L 31.73702 -32.883058 
L 33.207102 -33.053157 
L 34.734331 -33.223314 
L 36.322324 -33.438063 
L 37.973113 -33.6217 
L 39.681804 -33.882987 
L 41.436131 -33.967276 
L 43.219315 -34.000023 
L 45.018092 -34.062389 
L 46.829905 -34.451988 
L 48.65475 -34.716137 
L 50.485358 -34.844408 
L 52.313941 -34.986478 
L 54.13601 -35.079155 
L 55.947513 -35.195963 
L 57.752108 -35.326297 
L 59.56302 -35.594221 
L 61.39881 -35.921712 
L 63.273555 -36.270649 
L 65.187047 -36.344915 
L 67.136579 -36.456641 
L 69.130057 -36.599672 
L 71.176491 -36.603217 
L 73.279411 -36.774907 
L 75.443842 -37.343126 
L 77.660101 -37.945691 
L 79.898471 -38.172198 
L 82.118951 -38.552094 
L 84.29198 -39.109931 
L 86.407364 -39.226289 
L 88.470403 -39.383081 
L 90.4865 -39.736268 
L 92.467215 -40.158896 
L 94.422151 -40.44317 
L 96.351454 -40.880497 
L 98.254516 -40.863967 
L 100.140199 -40.324429 
L 102.019654 -40.821774 
L 103.901959 -41.355035 
L 105.790661 -41.497629 
L 107.687369 -41.985053 
L 109.596647 -41.91761 
L 111.522849 -42.359904 
L 113.468964 -42.75616 
L 115.436759 -43.06139 
L 117.425805 -42.737785 
L 119.433687 -43.313631 
L 121.456436 -43.585305 
L 123.490225 -43.923715 
L 125.533922 -43.349294 
L 127.585543 -43.697322 
L 129.639119 -43.676366 
L 131.687324 -43.541177 
L 133.724189 -43.833123 
L 135.746592 -43.844573 
L 137.753154 -43.828663 
L 139.741875 -43.658276 
L 139.741875 -47.125266 
L 139.741875 -47.125266 
L 137.753154 -47.254903 
L 135.746592 -47.259414 
L 133.724189 -47.20619 
L 131.687324 -46.885914 
L 129.639119 -47.0044 
L 127.585543 -47.017406 
L 125.533922 -46.647752 
L 123.490225 -47.21952 
L 121.456436 -46.881018 
L 119.433687 -46.648904 
L 117.425805 -46.043271 
L 115.436759 -46.354624 
L 113.468964 -46.018373 
L 111.522849 -45.593362 
L 109.596647 -45.121558 
L 107.687369 -45.165188 
L 105.790661 -44.662828 
L 103.901959 -44.526311 
L 102.019654 -43.979462 
L 100.140199 -43.469307 
L 98.254516 -43.988027 
L 96.351454 -44.090125 
L 94.422151 -43.628278 
L 92.467215 -43.302138 
L 90.4865 -42.844486 
L 88.470403 -42.483107 
L 86.407364 -42.304977 
L 84.29198 -42.169851 
L 82.118951 -41.591746 
L 79.898471 -41.167159 
L 77.660101 -40.923238 
L 75.443842 -40.311983 
L 73.279411 -39.719464 
L 71.176491 -39.529043 
L 69.130057 -39.507939 
L 67.136579 -39.342137 
L 65.187047 -39.196998 
L 63.273555 -39.096746 
L 61.39881 -38.734854 
L 59.56302 -38.397034 
L 57.752108 -38.128252 
L 55.947513 -37.990548 
L 54.13601 -37.849805 
L 52.313941 -37.710256 
L 50.485358 -37.506459 
L 48.65475 -37.336083 
L 46.829905 -37.021472 
L 45.018092 -36.598483 
L 43.219315 -36.510444 
L 41.436131 -36.464154 
L 39.681804 -36.344703 
L 37.973113 -36.029089 
L 36.322324 -35.800943 
L 34.734331 -35.530963 
L 33.207102 -35.31901 
L 31.73702 -35.118167 
L 30.317239 -35.034667 
z
" style="stroke: #ffffff; stroke-width: 0.25"/>
    </defs>
    <g clip-path="url(#p3c71e6bbf1)">
     <use xlink:href="#mbb8d853458" x="0" y="142.23375" style="fill: #738fc1; stroke: #ffffff; stroke-width: 0.25"/>
    </g>
   </g>
   <g id="PolyCollection_4">
    <defs>
     <path id="m5f9fa4401c" d="M 30.317239 -44.934779 
L 30.317239 -35.034667 
L 31.73702 -35.118167 
L 33.207102 -35.31901 
L 34.734331 -35.530963 
L 36.322324 -35.800943 
L 37.973113 -36.029089 
L 39.681804 -36.344703 
L 41.436131 -36.464154 
L 43.219315 -36.510444 
L 45.018092 -36.598483 
L 46.829905 -37.021472 
L 48.65475 -37.336083 
L 50.485358 -37.506459 
L 52.313941 -37.710256 
L 54.13601 -37.849805 
L 55.947513 -37.990548 
L 57.752108 -38.128252 
L 59.56302 -38.397034 
L 61.39881 -38.734854 
L 63.273555 -39.096746 
L 65.187047 -39.196998 
L 67.136579 -39.342137 
L 69.130057 -39.507939 
L 71.176491 -39.529043 
L 73.279411 -39.719464 
L 75.443842 -40.311983 
L 77.660101 -40.923238 
L 79.898471 -41.167159 
L 82.118951 -41.591746 
L 84.29198 -42.169851 
L 86.407364 -42.304977 
L 88.470403 -42.483107 
L 90.4865 -42.844486 
L 92.467215 -43.302138 
L 94.422151 -43.628278 
L 96.351454 -44.090125 
L 98.254516 -43.988027 
L 100.140199 -43.469307 
L 102.019654 -43.979462 
L 103.901959 -44.526311 
L 105.790661 -44.662828 
L 107.687369 -45.165188 
L 109.596647 -45.121558 
L 111.522849 -45.593362 
L 113.468964 -46.018373 
L 115.436759 -46.354624 
L 117.425805 -46.043271 
L 119.433687 -46.648904 
L 121.456436 -46.881018 
L 123.490225 -47.21952 
L 125.533922 -46.647752 
L 127.585543 -47.017406 
L 129.639119 -47.0044 
L 131.687324 -46.885914 
L 133.724189 -47.20619 
L 135.746592 -47.259414 
L 137.753154 -47.254903 
L 139.741875 -47.125266 
L 139.741875 -129.800108 
L 139.741875 -129.800108 
L 137.753154 -129.856607 
L 135.746592 -124.08119 
L 133.724189 -121.420925 
L 131.687324 -118.949884 
L 129.639119 -119.043387 
L 127.585543 -118.083712 
L 125.533922 -116.373374 
L 123.490225 -118.899858 
L 121.456436 -117.119748 
L 119.433687 -115.612464 
L 117.425805 -97.237977 
L 115.436759 -95.427995 
L 113.468964 -94.255113 
L 111.522849 -92.24624 
L 109.596647 -89.999105 
L 107.687369 -90.172971 
L 105.790661 -86.344698 
L 103.901959 -84.628981 
L 102.019654 -81.969211 
L 100.140199 -79.670871 
L 98.254516 -84.284436 
L 96.351454 -81.853195 
L 94.422151 -79.141758 
L 92.467215 -77.80202 
L 90.4865 -75.435923 
L 88.470403 -73.394884 
L 86.407364 -72.055363 
L 84.29198 -70.448335 
L 82.118951 -68.831962 
L 79.898471 -67.395389 
L 77.660101 -65.862527 
L 75.443842 -63.67289 
L 73.279411 -61.715087 
L 71.176491 -60.590242 
L 69.130057 -59.708353 
L 67.136579 -58.885685 
L 65.187047 -58.078233 
L 63.273555 -57.215975 
L 61.39881 -56.039143 
L 59.56302 -54.887244 
L 57.752108 -53.791537 
L 55.947513 -53.171367 
L 54.13601 -52.551241 
L 52.313941 -52.201232 
L 50.485358 -51.631396 
L 48.65475 -51.166723 
L 46.829905 -50.448961 
L 45.018092 -49.621195 
L 43.219315 -49.012372 
L 41.436131 -48.571235 
L 39.681804 -48.084636 
L 37.973113 -47.258966 
L 36.322324 -46.798584 
L 34.734331 -46.255844 
L 33.207102 -45.857086 
L 31.73702 -45.364727 
L 30.317239 -44.934779 
z
" style="stroke: #ffffff; stroke-width: 0.25"/>
    </defs>
    <g clip-path="url(#p3c71e6bbf1)">
     <use xlink:href="#m5f9fa4401c" x="0" y="142.23375" style="fill: #7aa974; stroke: #ffffff; stroke-width: 0.25"/>
    </g>
   </g>
   <g id="patch_3">
    <path d="M 28.141875 115.92 
L 28.141875 7.2 
" style="fill: none; stroke: #ffffff; stroke-width: 0.8; stroke-linejoin: miter; stroke-linecap: square"/>
   </g>
   <g id="patch_4">
    <path d="M 139.741875 115.92 
L 139.741875 7.2 
" style="fill: none; stroke: #ffffff; stroke-width: 0.8; stroke-linejoin: miter; stroke-linecap: square"/>
   </g>
   <g id="patch_5">
    <path d="M 28.141875 115.92 
L 139.741875 115.92 
" style="fill: none; stroke: #ffffff; stroke-width: 0.8; stroke-linejoin: miter; stroke-linecap: square"/>
   </g>
   <g id="patch_6">
    <path d="M 28.141875 7.2 
L 139.741875 7.2 
" style="fill: none; stroke: #ffffff; stroke-width: 0.8; stroke-linejoin: miter; stroke-linecap: square"/>
   </g>
  </g>
 </g>
 <defs>
  <clipPath id="p3c71e6bbf1">
   <rect x="28.141875" y="7.2" width="111.6" height="108.72"/>
  </clipPath>
 </defs>
</svg>
