<?xml version="1.0" encoding="utf-8" standalone="no"?>
<!DOCTYPE svg PUBLIC "-//W3C//DTD SVG 1.1//EN"
  "http://www.w3.org/Graphics/SVG/1.1/DTD/svg11.dtd">
<!-- Created with matplotlib (https://matplotlib.org/) -->
<svg height="116.720625pt" version="1.1" viewBox="0 0 119.041875 116.720625" width="119.041875pt" xmlns="http://www.w3.org/2000/svg" xmlns:xlink="http://www.w3.org/1999/xlink">
 <metadata>
  <rdf:RDF xmlns:cc="http://creativecommons.org/ns#" xmlns:dc="http://purl.org/dc/elements/1.1/" xmlns:rdf="http://www.w3.org/1999/02/22-rdf-syntax-ns#">
   <cc:Work>
    <dc:type rdf:resource="http://purl.org/dc/dcmitype/StillImage"/>
    <dc:date>2021-10-12T15:50:35.145613</dc:date>
    <dc:format>image/svg+xml</dc:format>
    <dc:creator>
     <cc:Agent>
      <dc:title>Matplotlib v3.3.4, https://matplotlib.org/</dc:title>
     </cc:Agent>
    </dc:creator>
   </cc:Work>
  </rdf:RDF>
 </metadata>
 <defs>
  <style type="text/css">*{stroke-linecap:butt;stroke-linejoin:round;}</style>
 </defs>
 <g id="figure_1">
  <g id="patch_1">
   <path d="M 0 116.720625 
L 119.041875 116.720625 
L 119.041875 0 
L 0 0 
z
" style="fill:#ffffff;"/>
  </g>
  <g id="axes_1">
   <g id="patch_2">
    <path d="M 28.141875 90.406875 
L 111.841875 90.406875 
L 111.841875 8.866875 
L 28.141875 8.866875 
z
" style="fill:#e3dcd0;"/>
   </g>
   <g id="matplotlib.axis_1">
    <g id="xtick_1">
     <g id="text_1">
      <!-- 4 -->
      <g transform="translate(44.299877 98.465937)scale(0.06 -0.06)">
       <defs>
        <path d="M 37.796875 64.3125 
L 12.890625 25.390625 
L 37.796875 25.390625 
z
M 35.203125 72.90625 
L 47.609375 72.90625 
L 47.609375 25.390625 
L 58.015625 25.390625 
L 58.015625 17.1875 
L 47.609375 17.1875 
L 47.609375 0 
L 37.796875 0 
L 37.796875 17.1875 
L 4.890625 17.1875 
L 4.890625 26.703125 
z
" id="DejaVuSans-52"/>
       </defs>
       <use xlink:href="#DejaVuSans-52"/>
      </g>
     </g>
    </g>
    <g id="xtick_2">
     <g id="text_2">
      <!-- 6 -->
      <g transform="translate(80.433382 98.465937)scale(0.06 -0.06)">
       <defs>
        <path d="M 33.015625 40.375 
Q 26.375 40.375 22.484375 35.828125 
Q 18.609375 31.296875 18.609375 23.390625 
Q 18.609375 15.53125 22.484375 10.953125 
Q 26.375 6.390625 33.015625 6.390625 
Q 39.65625 6.390625 43.53125 10.953125 
Q 47.40625 15.53125 47.40625 23.390625 
Q 47.40625 31.296875 43.53125 35.828125 
Q 39.65625 40.375 33.015625 40.375 
z
M 52.59375 71.296875 
L 52.59375 62.3125 
Q 48.875 64.0625 45.09375 64.984375 
Q 41.3125 65.921875 37.59375 65.921875 
Q 27.828125 65.921875 22.671875 59.328125 
Q 17.53125 52.734375 16.796875 39.40625 
Q 19.671875 43.65625 24.015625 45.921875 
Q 28.375 48.1875 33.59375 48.1875 
Q 44.578125 48.1875 50.953125 41.515625 
Q 57.328125 34.859375 57.328125 23.390625 
Q 57.328125 12.15625 50.6875 5.359375 
Q 44.046875 -1.421875 33.015625 -1.421875 
Q 20.359375 -1.421875 13.671875 8.265625 
Q 6.984375 17.96875 6.984375 36.375 
Q 6.984375 53.65625 15.1875 63.9375 
Q 23.390625 74.21875 37.203125 74.21875 
Q 40.921875 74.21875 44.703125 73.484375 
Q 48.484375 72.75 52.59375 71.296875 
z
" id="DejaVuSans-54"/>
       </defs>
       <use xlink:href="#DejaVuSans-54"/>
      </g>
     </g>
    </g>
    <g id="text_3">
     <!-- human population [billion] -->
     <g style="fill:#262626;" transform="translate(30.340313 108.272813)scale(0.06 -0.06)">
      <defs>
       <path d="M 54.890625 33.015625 
L 54.890625 0 
L 45.90625 0 
L 45.90625 32.71875 
Q 45.90625 40.484375 42.875 44.328125 
Q 39.84375 48.1875 33.796875 48.1875 
Q 26.515625 48.1875 22.3125 43.546875 
Q 18.109375 38.921875 18.109375 30.90625 
L 18.109375 0 
L 9.078125 0 
L 9.078125 75.984375 
L 18.109375 75.984375 
L 18.109375 46.1875 
Q 21.34375 51.125 25.703125 53.5625 
Q 30.078125 56 35.796875 56 
Q 45.21875 56 50.046875 50.171875 
Q 54.890625 44.34375 54.890625 33.015625 
z
" id="DejaVuSans-104"/>
       <path d="M 8.5 21.578125 
L 8.5 54.6875 
L 17.484375 54.6875 
L 17.484375 21.921875 
Q 17.484375 14.15625 20.5 10.265625 
Q 23.53125 6.390625 29.59375 6.390625 
Q 36.859375 6.390625 41.078125 11.03125 
Q 45.3125 15.671875 45.3125 23.6875 
L 45.3125 54.6875 
L 54.296875 54.6875 
L 54.296875 0 
L 45.3125 0 
L 45.3125 8.40625 
Q 42.046875 3.421875 37.71875 1 
Q 33.40625 -1.421875 27.6875 -1.421875 
Q 18.265625 -1.421875 13.375 4.4375 
Q 8.5 10.296875 8.5 21.578125 
z
M 31.109375 56 
z
" id="DejaVuSans-117"/>
       <path d="M 52 44.1875 
Q 55.375 50.25 60.0625 53.125 
Q 64.75 56 71.09375 56 
Q 79.640625 56 84.28125 50.015625 
Q 88.921875 44.046875 88.921875 33.015625 
L 88.921875 0 
L 79.890625 0 
L 79.890625 32.71875 
Q 79.890625 40.578125 77.09375 44.375 
Q 74.3125 48.1875 68.609375 48.1875 
Q 61.625 48.1875 57.5625 43.546875 
Q 53.515625 38.921875 53.515625 30.90625 
L 53.515625 0 
L 44.484375 0 
L 44.484375 32.71875 
Q 44.484375 40.625 41.703125 44.40625 
Q 38.921875 48.1875 33.109375 48.1875 
Q 26.21875 48.1875 22.15625 43.53125 
Q 18.109375 38.875 18.109375 30.90625 
L 18.109375 0 
L 9.078125 0 
L 9.078125 54.6875 
L 18.109375 54.6875 
L 18.109375 46.1875 
Q 21.1875 51.21875 25.484375 53.609375 
Q 29.78125 56 35.6875 56 
Q 41.65625 56 45.828125 52.96875 
Q 50 49.953125 52 44.1875 
z
" id="DejaVuSans-109"/>
       <path d="M 34.28125 27.484375 
Q 23.390625 27.484375 19.1875 25 
Q 14.984375 22.515625 14.984375 16.5 
Q 14.984375 11.71875 18.140625 8.90625 
Q 21.296875 6.109375 26.703125 6.109375 
Q 34.1875 6.109375 38.703125 11.40625 
Q 43.21875 16.703125 43.21875 25.484375 
L 43.21875 27.484375 
z
M 52.203125 31.203125 
L 52.203125 0 
L 43.21875 0 
L 43.21875 8.296875 
Q 40.140625 3.328125 35.546875 0.953125 
Q 30.953125 -1.421875 24.3125 -1.421875 
Q 15.921875 -1.421875 10.953125 3.296875 
Q 6 8.015625 6 15.921875 
Q 6 25.140625 12.171875 29.828125 
Q 18.359375 34.515625 30.609375 34.515625 
L 43.21875 34.515625 
L 43.21875 35.40625 
Q 43.21875 41.609375 39.140625 45 
Q 35.0625 48.390625 27.6875 48.390625 
Q 23 48.390625 18.546875 47.265625 
Q 14.109375 46.140625 10.015625 43.890625 
L 10.015625 52.203125 
Q 14.9375 54.109375 19.578125 55.046875 
Q 24.21875 56 28.609375 56 
Q 40.484375 56 46.34375 49.84375 
Q 52.203125 43.703125 52.203125 31.203125 
z
" id="DejaVuSans-97"/>
       <path d="M 54.890625 33.015625 
L 54.890625 0 
L 45.90625 0 
L 45.90625 32.71875 
Q 45.90625 40.484375 42.875 44.328125 
Q 39.84375 48.1875 33.796875 48.1875 
Q 26.515625 48.1875 22.3125 43.546875 
Q 18.109375 38.921875 18.109375 30.90625 
L 18.109375 0 
L 9.078125 0 
L 9.078125 54.6875 
L 18.109375 54.6875 
L 18.109375 46.1875 
Q 21.34375 51.125 25.703125 53.5625 
Q 30.078125 56 35.796875 56 
Q 45.21875 56 50.046875 50.171875 
Q 54.890625 44.34375 54.890625 33.015625 
z
" id="DejaVuSans-110"/>
       <path id="DejaVuSans-32"/>
       <path d="M 18.109375 8.203125 
L 18.109375 -20.796875 
L 9.078125 -20.796875 
L 9.078125 54.6875 
L 18.109375 54.6875 
L 18.109375 46.390625 
Q 20.953125 51.265625 25.265625 53.625 
Q 29.59375 56 35.59375 56 
Q 45.5625 56 51.78125 48.09375 
Q 58.015625 40.1875 58.015625 27.296875 
Q 58.015625 14.40625 51.78125 6.484375 
Q 45.5625 -1.421875 35.59375 -1.421875 
Q 29.59375 -1.421875 25.265625 0.953125 
Q 20.953125 3.328125 18.109375 8.203125 
z
M 48.6875 27.296875 
Q 48.6875 37.203125 44.609375 42.84375 
Q 40.53125 48.484375 33.40625 48.484375 
Q 26.265625 48.484375 22.1875 42.84375 
Q 18.109375 37.203125 18.109375 27.296875 
Q 18.109375 17.390625 22.1875 11.75 
Q 26.265625 6.109375 33.40625 6.109375 
Q 40.53125 6.109375 44.609375 11.75 
Q 48.6875 17.390625 48.6875 27.296875 
z
" id="DejaVuSans-112"/>
       <path d="M 30.609375 48.390625 
Q 23.390625 48.390625 19.1875 42.75 
Q 14.984375 37.109375 14.984375 27.296875 
Q 14.984375 17.484375 19.15625 11.84375 
Q 23.34375 6.203125 30.609375 6.203125 
Q 37.796875 6.203125 41.984375 11.859375 
Q 46.1875 17.53125 46.1875 27.296875 
Q 46.1875 37.015625 41.984375 42.703125 
Q 37.796875 48.390625 30.609375 48.390625 
z
M 30.609375 56 
Q 42.328125 56 49.015625 48.375 
Q 55.71875 40.765625 55.71875 27.296875 
Q 55.71875 13.875 49.015625 6.21875 
Q 42.328125 -1.421875 30.609375 -1.421875 
Q 18.84375 -1.421875 12.171875 6.21875 
Q 5.515625 13.875 5.515625 27.296875 
Q 5.515625 40.765625 12.171875 48.375 
Q 18.84375 56 30.609375 56 
z
" id="DejaVuSans-111"/>
       <path d="M 9.421875 75.984375 
L 18.40625 75.984375 
L 18.40625 0 
L 9.421875 0 
z
" id="DejaVuSans-108"/>
       <path d="M 18.3125 70.21875 
L 18.3125 54.6875 
L 36.8125 54.6875 
L 36.8125 47.703125 
L 18.3125 47.703125 
L 18.3125 18.015625 
Q 18.3125 11.328125 20.140625 9.421875 
Q 21.96875 7.515625 27.59375 7.515625 
L 36.8125 7.515625 
L 36.8125 0 
L 27.59375 0 
Q 17.1875 0 13.234375 3.875 
Q 9.28125 7.765625 9.28125 18.015625 
L 9.28125 47.703125 
L 2.6875 47.703125 
L 2.6875 54.6875 
L 9.28125 54.6875 
L 9.28125 70.21875 
z
" id="DejaVuSans-116"/>
       <path d="M 9.421875 54.6875 
L 18.40625 54.6875 
L 18.40625 0 
L 9.421875 0 
z
M 9.421875 75.984375 
L 18.40625 75.984375 
L 18.40625 64.59375 
L 9.421875 64.59375 
z
" id="DejaVuSans-105"/>
       <path d="M 8.59375 75.984375 
L 29.296875 75.984375 
L 29.296875 69 
L 17.578125 69 
L 17.578125 -6.203125 
L 29.296875 -6.203125 
L 29.296875 -13.1875 
L 8.59375 -13.1875 
z
" id="DejaVuSans-91"/>
       <path d="M 48.6875 27.296875 
Q 48.6875 37.203125 44.609375 42.84375 
Q 40.53125 48.484375 33.40625 48.484375 
Q 26.265625 48.484375 22.1875 42.84375 
Q 18.109375 37.203125 18.109375 27.296875 
Q 18.109375 17.390625 22.1875 11.75 
Q 26.265625 6.109375 33.40625 6.109375 
Q 40.53125 6.109375 44.609375 11.75 
Q 48.6875 17.390625 48.6875 27.296875 
z
M 18.109375 46.390625 
Q 20.953125 51.265625 25.265625 53.625 
Q 29.59375 56 35.59375 56 
Q 45.5625 56 51.78125 48.09375 
Q 58.015625 40.1875 58.015625 27.296875 
Q 58.015625 14.40625 51.78125 6.484375 
Q 45.5625 -1.421875 35.59375 -1.421875 
Q 29.59375 -1.421875 25.265625 0.953125 
Q 20.953125 3.328125 18.109375 8.203125 
L 18.109375 0 
L 9.078125 0 
L 9.078125 75.984375 
L 18.109375 75.984375 
z
" id="DejaVuSans-98"/>
       <path d="M 30.421875 75.984375 
L 30.421875 -13.1875 
L 9.71875 -13.1875 
L 9.71875 -6.203125 
L 21.390625 -6.203125 
L 21.390625 69 
L 9.71875 69 
L 9.71875 75.984375 
z
" id="DejaVuSans-93"/>
      </defs>
      <use xlink:href="#DejaVuSans-104"/>
      <use x="63.378906" xlink:href="#DejaVuSans-117"/>
      <use x="126.757812" xlink:href="#DejaVuSans-109"/>
      <use x="224.169922" xlink:href="#DejaVuSans-97"/>
      <use x="285.449219" xlink:href="#DejaVuSans-110"/>
      <use x="348.828125" xlink:href="#DejaVuSans-32"/>
      <use x="380.615234" xlink:href="#DejaVuSans-112"/>
      <use x="444.091797" xlink:href="#DejaVuSans-111"/>
      <use x="505.273438" xlink:href="#DejaVuSans-112"/>
      <use x="568.75" xlink:href="#DejaVuSans-117"/>
      <use x="632.128906" xlink:href="#DejaVuSans-108"/>
      <use x="659.912109" xlink:href="#DejaVuSans-97"/>
      <use x="721.191406" xlink:href="#DejaVuSans-116"/>
      <use x="760.400391" xlink:href="#DejaVuSans-105"/>
      <use x="788.183594" xlink:href="#DejaVuSans-111"/>
      <use x="849.365234" xlink:href="#DejaVuSans-110"/>
      <use x="912.744141" xlink:href="#DejaVuSans-32"/>
      <use x="944.53125" xlink:href="#DejaVuSans-91"/>
      <use x="983.544922" xlink:href="#DejaVuSans-98"/>
      <use x="1047.021484" xlink:href="#DejaVuSans-105"/>
      <use x="1074.804688" xlink:href="#DejaVuSans-108"/>
      <use x="1102.587891" xlink:href="#DejaVuSans-108"/>
      <use x="1130.371094" xlink:href="#DejaVuSans-105"/>
      <use x="1158.154297" xlink:href="#DejaVuSans-111"/>
      <use x="1219.335938" xlink:href="#DejaVuSans-110"/>
      <use x="1282.714844" xlink:href="#DejaVuSans-93"/>
     </g>
    </g>
   </g>
   <g id="matplotlib.axis_2">
    <g id="ytick_1">
     <g id="text_4">
      <!-- 0 -->
      <g transform="translate(20.824375 92.686406)scale(0.06 -0.06)">
       <defs>
        <path d="M 31.78125 66.40625 
Q 24.171875 66.40625 20.328125 58.90625 
Q 16.5 51.421875 16.5 36.375 
Q 16.5 21.390625 20.328125 13.890625 
Q 24.171875 6.390625 31.78125 6.390625 
Q 39.453125 6.390625 43.28125 13.890625 
Q 47.125 21.390625 47.125 36.375 
Q 47.125 51.421875 43.28125 58.90625 
Q 39.453125 66.40625 31.78125 66.40625 
z
M 31.78125 74.21875 
Q 44.046875 74.21875 50.515625 64.515625 
Q 56.984375 54.828125 56.984375 36.375 
Q 56.984375 17.96875 50.515625 8.265625 
Q 44.046875 -1.421875 31.78125 -1.421875 
Q 19.53125 -1.421875 13.0625 8.265625 
Q 6.59375 17.96875 6.59375 36.375 
Q 6.59375 54.828125 13.0625 64.515625 
Q 19.53125 74.21875 31.78125 74.21875 
z
" id="DejaVuSans-48"/>
       </defs>
       <use xlink:href="#DejaVuSans-48"/>
      </g>
     </g>
    </g>
    <g id="ytick_2">
     <g id="text_5">
      <!-- 10 -->
      <g transform="translate(17.006875 67.799476)scale(0.06 -0.06)">
       <defs>
        <path d="M 12.40625 8.296875 
L 28.515625 8.296875 
L 28.515625 63.921875 
L 10.984375 60.40625 
L 10.984375 69.390625 
L 28.421875 72.90625 
L 38.28125 72.90625 
L 38.28125 8.296875 
L 54.390625 8.296875 
L 54.390625 0 
L 12.40625 0 
z
" id="DejaVuSans-49"/>
       </defs>
       <use xlink:href="#DejaVuSans-49"/>
       <use x="63.623047" xlink:href="#DejaVuSans-48"/>
      </g>
     </g>
    </g>
    <g id="ytick_3">
     <g id="text_6">
      <!-- 20 -->
      <g transform="translate(17.006875 42.912545)scale(0.06 -0.06)">
       <defs>
        <path d="M 19.1875 8.296875 
L 53.609375 8.296875 
L 53.609375 0 
L 7.328125 0 
L 7.328125 8.296875 
Q 12.9375 14.109375 22.625 23.890625 
Q 32.328125 33.6875 34.8125 36.53125 
Q 39.546875 41.84375 41.421875 45.53125 
Q 43.3125 49.21875 43.3125 52.78125 
Q 43.3125 58.59375 39.234375 62.25 
Q 35.15625 65.921875 28.609375 65.921875 
Q 23.96875 65.921875 18.8125 64.3125 
Q 13.671875 62.703125 7.8125 59.421875 
L 7.8125 69.390625 
Q 13.765625 71.78125 18.9375 73 
Q 24.125 74.21875 28.421875 74.21875 
Q 39.75 74.21875 46.484375 68.546875 
Q 53.21875 62.890625 53.21875 53.421875 
Q 53.21875 48.921875 51.53125 44.890625 
Q 49.859375 40.875 45.40625 35.40625 
Q 44.1875 33.984375 37.640625 27.21875 
Q 31.109375 20.453125 19.1875 8.296875 
z
" id="DejaVuSans-50"/>
       </defs>
       <use xlink:href="#DejaVuSans-50"/>
       <use x="63.623047" xlink:href="#DejaVuSans-48"/>
      </g>
     </g>
    </g>
    <g id="ytick_4">
     <g id="text_7">
      <!-- 30 -->
      <g transform="translate(17.006875 18.025615)scale(0.06 -0.06)">
       <defs>
        <path d="M 40.578125 39.3125 
Q 47.65625 37.796875 51.625 33 
Q 55.609375 28.21875 55.609375 21.1875 
Q 55.609375 10.40625 48.1875 4.484375 
Q 40.765625 -1.421875 27.09375 -1.421875 
Q 22.515625 -1.421875 17.65625 -0.515625 
Q 12.796875 0.390625 7.625 2.203125 
L 7.625 11.71875 
Q 11.71875 9.328125 16.59375 8.109375 
Q 21.484375 6.890625 26.8125 6.890625 
Q 36.078125 6.890625 40.9375 10.546875 
Q 45.796875 14.203125 45.796875 21.1875 
Q 45.796875 27.640625 41.28125 31.265625 
Q 36.765625 34.90625 28.71875 34.90625 
L 20.21875 34.90625 
L 20.21875 43.015625 
L 29.109375 43.015625 
Q 36.375 43.015625 40.234375 45.921875 
Q 44.09375 48.828125 44.09375 54.296875 
Q 44.09375 59.90625 40.109375 62.90625 
Q 36.140625 65.921875 28.71875 65.921875 
Q 24.65625 65.921875 20.015625 65.03125 
Q 15.375 64.15625 9.8125 62.3125 
L 9.8125 71.09375 
Q 15.4375 72.65625 20.34375 73.4375 
Q 25.25 74.21875 29.59375 74.21875 
Q 40.828125 74.21875 47.359375 69.109375 
Q 53.90625 64.015625 53.90625 55.328125 
Q 53.90625 49.265625 50.4375 45.09375 
Q 46.96875 40.921875 40.578125 39.3125 
z
" id="DejaVuSans-51"/>
       </defs>
       <use xlink:href="#DejaVuSans-51"/>
       <use x="63.623047" xlink:href="#DejaVuSans-48"/>
      </g>
     </g>
    </g>
    <g id="text_8">
     <!-- livestock population [billion] -->
     <g style="fill:#262626;" transform="translate(11.759062 92.07375)rotate(-90)scale(0.06 -0.06)">
      <defs>
       <path d="M 2.984375 54.6875 
L 12.5 54.6875 
L 29.59375 8.796875 
L 46.6875 54.6875 
L 56.203125 54.6875 
L 35.6875 0 
L 23.484375 0 
z
" id="DejaVuSans-118"/>
       <path d="M 56.203125 29.59375 
L 56.203125 25.203125 
L 14.890625 25.203125 
Q 15.484375 15.921875 20.484375 11.0625 
Q 25.484375 6.203125 34.421875 6.203125 
Q 39.59375 6.203125 44.453125 7.46875 
Q 49.3125 8.734375 54.109375 11.28125 
L 54.109375 2.78125 
Q 49.265625 0.734375 44.1875 -0.34375 
Q 39.109375 -1.421875 33.890625 -1.421875 
Q 20.796875 -1.421875 13.15625 6.1875 
Q 5.515625 13.8125 5.515625 26.8125 
Q 5.515625 40.234375 12.765625 48.109375 
Q 20.015625 56 32.328125 56 
Q 43.359375 56 49.78125 48.890625 
Q 56.203125 41.796875 56.203125 29.59375 
z
M 47.21875 32.234375 
Q 47.125 39.59375 43.09375 43.984375 
Q 39.0625 48.390625 32.421875 48.390625 
Q 24.90625 48.390625 20.390625 44.140625 
Q 15.875 39.890625 15.1875 32.171875 
z
" id="DejaVuSans-101"/>
       <path d="M 44.28125 53.078125 
L 44.28125 44.578125 
Q 40.484375 46.53125 36.375 47.5 
Q 32.28125 48.484375 27.875 48.484375 
Q 21.1875 48.484375 17.84375 46.4375 
Q 14.5 44.390625 14.5 40.28125 
Q 14.5 37.15625 16.890625 35.375 
Q 19.28125 33.59375 26.515625 31.984375 
L 29.59375 31.296875 
Q 39.15625 29.25 43.1875 25.515625 
Q 47.21875 21.78125 47.21875 15.09375 
Q 47.21875 7.46875 41.1875 3.015625 
Q 35.15625 -1.421875 24.609375 -1.421875 
Q 20.21875 -1.421875 15.453125 -0.5625 
Q 10.6875 0.296875 5.421875 2 
L 5.421875 11.28125 
Q 10.40625 8.6875 15.234375 7.390625 
Q 20.0625 6.109375 24.8125 6.109375 
Q 31.15625 6.109375 34.5625 8.28125 
Q 37.984375 10.453125 37.984375 14.40625 
Q 37.984375 18.0625 35.515625 20.015625 
Q 33.0625 21.96875 24.703125 23.78125 
L 21.578125 24.515625 
Q 13.234375 26.265625 9.515625 29.90625 
Q 5.8125 33.546875 5.8125 39.890625 
Q 5.8125 47.609375 11.28125 51.796875 
Q 16.75 56 26.8125 56 
Q 31.78125 56 36.171875 55.265625 
Q 40.578125 54.546875 44.28125 53.078125 
z
" id="DejaVuSans-115"/>
       <path d="M 48.78125 52.59375 
L 48.78125 44.1875 
Q 44.96875 46.296875 41.140625 47.34375 
Q 37.3125 48.390625 33.40625 48.390625 
Q 24.65625 48.390625 19.8125 42.84375 
Q 14.984375 37.3125 14.984375 27.296875 
Q 14.984375 17.28125 19.8125 11.734375 
Q 24.65625 6.203125 33.40625 6.203125 
Q 37.3125 6.203125 41.140625 7.25 
Q 44.96875 8.296875 48.78125 10.40625 
L 48.78125 2.09375 
Q 45.015625 0.34375 40.984375 -0.53125 
Q 36.96875 -1.421875 32.421875 -1.421875 
Q 20.0625 -1.421875 12.78125 6.34375 
Q 5.515625 14.109375 5.515625 27.296875 
Q 5.515625 40.671875 12.859375 48.328125 
Q 20.21875 56 33.015625 56 
Q 37.15625 56 41.109375 55.140625 
Q 45.0625 54.296875 48.78125 52.59375 
z
" id="DejaVuSans-99"/>
       <path d="M 9.078125 75.984375 
L 18.109375 75.984375 
L 18.109375 31.109375 
L 44.921875 54.6875 
L 56.390625 54.6875 
L 27.390625 29.109375 
L 57.625 0 
L 45.90625 0 
L 18.109375 26.703125 
L 18.109375 0 
L 9.078125 0 
z
" id="DejaVuSans-107"/>
      </defs>
      <use xlink:href="#DejaVuSans-108"/>
      <use x="27.783203" xlink:href="#DejaVuSans-105"/>
      <use x="55.566406" xlink:href="#DejaVuSans-118"/>
      <use x="114.746094" xlink:href="#DejaVuSans-101"/>
      <use x="176.269531" xlink:href="#DejaVuSans-115"/>
      <use x="228.369141" xlink:href="#DejaVuSans-116"/>
      <use x="267.578125" xlink:href="#DejaVuSans-111"/>
      <use x="328.759766" xlink:href="#DejaVuSans-99"/>
      <use x="383.740234" xlink:href="#DejaVuSans-107"/>
      <use x="441.650391" xlink:href="#DejaVuSans-32"/>
      <use x="473.4375" xlink:href="#DejaVuSans-112"/>
      <use x="536.914062" xlink:href="#DejaVuSans-111"/>
      <use x="598.095703" xlink:href="#DejaVuSans-112"/>
      <use x="661.572266" xlink:href="#DejaVuSans-117"/>
      <use x="724.951172" xlink:href="#DejaVuSans-108"/>
      <use x="752.734375" xlink:href="#DejaVuSans-97"/>
      <use x="814.013672" xlink:href="#DejaVuSans-116"/>
      <use x="853.222656" xlink:href="#DejaVuSans-105"/>
      <use x="881.005859" xlink:href="#DejaVuSans-111"/>
      <use x="942.1875" xlink:href="#DejaVuSans-110"/>
      <use x="1005.566406" xlink:href="#DejaVuSans-32"/>
      <use x="1037.353516" xlink:href="#DejaVuSans-91"/>
      <use x="1076.367188" xlink:href="#DejaVuSans-98"/>
      <use x="1139.84375" xlink:href="#DejaVuSans-105"/>
      <use x="1167.626953" xlink:href="#DejaVuSans-108"/>
      <use x="1195.410156" xlink:href="#DejaVuSans-108"/>
      <use x="1223.193359" xlink:href="#DejaVuSans-105"/>
      <use x="1250.976562" xlink:href="#DejaVuSans-111"/>
      <use x="1312.158203" xlink:href="#DejaVuSans-110"/>
      <use x="1375.537109" xlink:href="#DejaVuSans-93"/>
     </g>
    </g>
   </g>
   <g id="PolyCollection_1">
    <defs>
     <path d="M 29.773398 -31.72763 
L 29.773398 -26.31375 
L 30.838234 -26.31375 
L 31.940795 -26.31375 
L 33.086217 -26.31375 
L 34.277212 -26.31375 
L 35.515303 -26.31375 
L 36.796822 -26.31375 
L 38.112567 -26.31375 
L 39.449955 -26.31375 
L 40.799038 -26.31375 
L 42.157897 -26.31375 
L 43.526531 -26.31375 
L 44.899487 -26.31375 
L 46.270924 -26.31375 
L 47.637476 -26.31375 
L 48.996103 -26.31375 
L 50.34955 -26.31375 
L 51.707733 -26.31375 
L 53.084576 -26.31375 
L 54.490635 -26.31375 
L 55.925754 -26.31375 
L 57.387903 -26.31375 
L 58.883012 -26.31375 
L 60.417837 -26.31375 
L 61.995027 -26.31375 
L 63.61835 -26.31375 
L 65.280544 -26.31375 
L 66.959322 -26.31375 
L 68.624682 -26.31375 
L 70.254454 -26.31375 
L 71.840992 -26.31375 
L 73.388271 -26.31375 
L 74.900344 -26.31375 
L 76.38588 -26.31375 
L 77.852082 -26.31375 
L 79.299059 -26.31375 
L 80.726356 -26.31375 
L 82.140618 -26.31375 
L 83.550209 -26.31375 
L 84.961938 -26.31375 
L 86.378465 -26.31375 
L 87.800995 -26.31375 
L 89.232954 -26.31375 
L 90.677606 -26.31375 
L 92.137192 -26.31375 
L 93.613038 -26.31375 
L 95.104822 -26.31375 
L 96.610734 -26.31375 
L 98.127796 -26.31375 
L 99.653137 -26.31375 
L 101.18591 -26.31375 
L 102.724626 -26.31375 
L 104.264808 -26.31375 
L 105.800962 -26.31375 
L 107.32861 -26.31375 
L 108.845413 -26.31375 
L 110.350334 -26.31375 
L 111.841875 -26.31375 
L 111.841875 -38.828828 
L 111.841875 -38.828828 
L 110.350334 -38.700895 
L 108.845413 -38.651223 
L 107.32861 -38.427268 
L 105.800962 -38.242612 
L 104.264808 -38.315016 
L 102.724626 -38.285909 
L 101.18591 -35.309707 
L 99.653137 -38.292363 
L 98.127796 -38.065927 
L 96.610734 -38.009693 
L 95.104822 -37.713807 
L 93.613038 -37.724642 
L 92.137192 -37.553146 
L 90.677606 -37.290817 
L 89.232954 -37.009645 
L 87.800995 -37.033716 
L 86.378465 -36.706672 
L 84.961938 -36.554187 
L 83.550209 -36.213026 
L 82.140618 -35.951126 
L 80.726356 -36.438741 
L 79.299059 -36.239889 
L 77.852082 -36.048125 
L 76.38588 -35.93978 
L 74.900344 -35.668702 
L 73.388271 -35.5408 
L 71.840992 -35.548918 
L 70.254454 -35.589314 
L 68.624682 -35.130411 
L 66.959322 -34.876321 
L 65.280544 -34.670273 
L 63.61835 -34.27335 
L 61.995027 -33.932314 
L 60.417837 -33.81569 
L 58.883012 -33.797591 
L 57.387903 -33.696404 
L 55.925754 -33.533969 
L 54.490635 -33.401608 
L 53.084576 -33.213655 
L 51.707733 -32.977191 
L 50.34955 -32.786452 
L 48.996103 -32.725074 
L 47.637476 -32.681055 
L 46.270924 -32.592047 
L 44.899487 -32.471221 
L 43.526531 -32.429625 
L 42.157897 -32.405819 
L 40.799038 -32.268033 
L 39.449955 -31.858457 
L 38.112567 -32.146015 
L 36.796822 -32.104214 
L 35.515303 -31.990875 
L 34.277212 -31.885053 
L 33.086217 -31.800989 
L 31.940795 -32.224608 
L 30.838234 -31.729825 
L 29.773398 -31.72763 
z
" id="mc50957925f" style="stroke:#ffffff;stroke-width:0.25;"/>
    </defs>
    <g clip-path="url(#p507bb0a3db)">
     <use style="fill:#808080;stroke:#ffffff;stroke-width:0.25;" x="0" xlink:href="#mc50957925f" y="116.720625"/>
    </g>
   </g>
   <g id="PolyCollection_2">
    <defs>
     <path d="M 29.773398 -32.738488 
L 29.773398 -31.72763 
L 30.838234 -31.729825 
L 31.940795 -32.224608 
L 33.086217 -31.800989 
L 34.277212 -31.885053 
L 35.515303 -31.990875 
L 36.796822 -32.104214 
L 38.112567 -32.146015 
L 39.449955 -31.858457 
L 40.799038 -32.268033 
L 42.157897 -32.405819 
L 43.526531 -32.429625 
L 44.899487 -32.471221 
L 46.270924 -32.592047 
L 47.637476 -32.681055 
L 48.996103 -32.725074 
L 50.34955 -32.786452 
L 51.707733 -32.977191 
L 53.084576 -33.213655 
L 54.490635 -33.401608 
L 55.925754 -33.533969 
L 57.387903 -33.696404 
L 58.883012 -33.797591 
L 60.417837 -33.81569 
L 61.995027 -33.932314 
L 63.61835 -34.27335 
L 65.280544 -34.670273 
L 66.959322 -34.876321 
L 68.624682 -35.130411 
L 70.254454 -35.589314 
L 71.840992 -35.548918 
L 73.388271 -35.5408 
L 74.900344 -35.668702 
L 76.38588 -35.93978 
L 77.852082 -36.048125 
L 79.299059 -36.239889 
L 80.726356 -36.438741 
L 82.140618 -35.951126 
L 83.550209 -36.213026 
L 84.961938 -36.554187 
L 86.378465 -36.706672 
L 87.800995 -37.033716 
L 89.232954 -37.009645 
L 90.677606 -37.290817 
L 92.137192 -37.553146 
L 93.613038 -37.724642 
L 95.104822 -37.713807 
L 96.610734 -38.009693 
L 98.127796 -38.065927 
L 99.653137 -38.292363 
L 101.18591 -35.309707 
L 102.724626 -38.285909 
L 104.264808 -38.315016 
L 105.800962 -38.242612 
L 107.32861 -38.427268 
L 108.845413 -38.651223 
L 110.350334 -38.700895 
L 111.841875 -38.828828 
L 111.841875 -41.263596 
L 111.841875 -41.263596 
L 110.350334 -41.116268 
L 108.845413 -41.102145 
L 107.32861 -40.894356 
L 105.800962 -40.70555 
L 104.264808 -40.752142 
L 102.724626 -40.734443 
L 101.18591 -37.733275 
L 99.653137 -40.711256 
L 98.127796 -40.475079 
L 96.610734 -40.345921 
L 95.104822 -40.001688 
L 93.613038 -40.026877 
L 92.137192 -39.80408 
L 90.677606 -39.51297 
L 89.232954 -39.246008 
L 87.800995 -39.254709 
L 86.378465 -38.901563 
L 84.961938 -38.790838 
L 83.550209 -38.428586 
L 82.140618 -38.116852 
L 80.726356 -38.51647 
L 79.299059 -38.50493 
L 77.852082 -38.278538 
L 76.38588 -38.137336 
L 74.900344 -37.846892 
L 73.388271 -37.706826 
L 71.840992 -37.710954 
L 70.254454 -37.703189 
L 68.624682 -37.231394 
L 66.959322 -36.940698 
L 65.280544 -36.750397 
L 63.61835 -36.327959 
L 61.995027 -35.907012 
L 60.417837 -35.777185 
L 58.883012 -35.730059 
L 57.387903 -35.611289 
L 55.925754 -35.476709 
L 54.490635 -35.387032 
L 53.084576 -35.117398 
L 51.707733 -34.812481 
L 50.34955 -34.556521 
L 48.996103 -34.423287 
L 47.637476 -34.387429 
L 46.270924 -34.303259 
L 44.899487 -34.173819 
L 43.526531 -34.094905 
L 42.157897 -33.944854 
L 40.799038 -33.629923 
L 39.449955 -33.196488 
L 38.112567 -33.507353 
L 36.796822 -33.466998 
L 35.515303 -33.26118 
L 34.277212 -33.120501 
L 33.086217 -32.943457 
L 31.940795 -33.339196 
L 30.838234 -32.782444 
L 29.773398 -32.738488 
z
" id="m22221d52ca" style="stroke:#ffffff;stroke-width:0.25;"/>
    </defs>
    <g clip-path="url(#p507bb0a3db)">
     <use style="fill:#e8b19d;stroke:#ffffff;stroke-width:0.25;" x="0" xlink:href="#m22221d52ca" y="116.720625"/>
    </g>
   </g>
   <g id="PolyCollection_3">
    <defs>
     <path d="M 29.773398 -35.083272 
L 29.773398 -32.738488 
L 30.838234 -32.782444 
L 31.940795 -33.339196 
L 33.086217 -32.943457 
L 34.277212 -33.120501 
L 35.515303 -33.26118 
L 36.796822 -33.466998 
L 38.112567 -33.507353 
L 39.449955 -33.196488 
L 40.799038 -33.629923 
L 42.157897 -33.944854 
L 43.526531 -34.094905 
L 44.899487 -34.173819 
L 46.270924 -34.303259 
L 47.637476 -34.387429 
L 48.996103 -34.423287 
L 50.34955 -34.556521 
L 51.707733 -34.812481 
L 53.084576 -35.117398 
L 54.490635 -35.387032 
L 55.925754 -35.476709 
L 57.387903 -35.611289 
L 58.883012 -35.730059 
L 60.417837 -35.777185 
L 61.995027 -35.907012 
L 63.61835 -36.327959 
L 65.280544 -36.750397 
L 66.959322 -36.940698 
L 68.624682 -37.231394 
L 70.254454 -37.703189 
L 71.840992 -37.710954 
L 73.388271 -37.706826 
L 74.900344 -37.846892 
L 76.38588 -38.137336 
L 77.852082 -38.278538 
L 79.299059 -38.50493 
L 80.726356 -38.51647 
L 82.140618 -38.116852 
L 83.550209 -38.428586 
L 84.961938 -38.790838 
L 86.378465 -38.901563 
L 87.800995 -39.254709 
L 89.232954 -39.246008 
L 90.677606 -39.51297 
L 92.137192 -39.80408 
L 93.613038 -40.026877 
L 95.104822 -40.001688 
L 96.610734 -40.345921 
L 98.127796 -40.475079 
L 99.653137 -40.711256 
L 101.18591 -37.733275 
L 102.724626 -40.734443 
L 104.264808 -40.752142 
L 105.800962 -40.70555 
L 107.32861 -40.894356 
L 108.845413 -41.102145 
L 110.350334 -41.116268 
L 111.841875 -41.263596 
L 111.841875 -44.971113 
L 111.841875 -44.971113 
L 110.350334 -44.782827 
L 108.845413 -44.75654 
L 107.32861 -44.500683 
L 105.800962 -44.289018 
L 104.264808 -44.316089 
L 102.724626 -44.286876 
L 101.18591 -41.257239 
L 99.653137 -44.224675 
L 98.127796 -43.984651 
L 96.610734 -43.868794 
L 95.104822 -43.493112 
L 93.613038 -43.490605 
L 92.137192 -43.226692 
L 90.677606 -42.898278 
L 89.232954 -42.596104 
L 87.800995 -42.572073 
L 86.378465 -42.189121 
L 84.961938 -42.075904 
L 83.550209 -41.705036 
L 82.140618 -41.385147 
L 80.726356 -41.782644 
L 79.299059 -41.822022 
L 77.852082 -41.589018 
L 76.38588 -41.425025 
L 74.900344 -41.10818 
L 73.388271 -40.966576 
L 71.840992 -40.950322 
L 70.254454 -40.930117 
L 68.624682 -40.439776 
L 66.959322 -40.106662 
L 65.280544 -39.902515 
L 63.61835 -39.480262 
L 61.995027 -39.042798 
L 60.417837 -38.901216 
L 58.883012 -38.83948 
L 57.387903 -38.702952 
L 55.925754 -38.534291 
L 54.490635 -38.415817 
L 53.084576 -38.131379 
L 51.707733 -37.814391 
L 50.34955 -37.554634 
L 48.996103 -37.408901 
L 47.637476 -37.343816 
L 46.270924 -37.206986 
L 44.899487 -37.00775 
L 43.526531 -36.880574 
L 42.157897 -36.67407 
L 40.799038 -36.321797 
L 39.449955 -35.85911 
L 38.112567 -36.156986 
L 36.796822 -36.079585 
L 35.515303 -35.818937 
L 34.277212 -35.631364 
L 33.086217 -35.401228 
L 31.940795 -35.754181 
L 30.838234 -35.164553 
L 29.773398 -35.083272 
z
" id="m20c4c3ac32" style="stroke:#ffffff;stroke-width:0.25;"/>
    </defs>
    <g clip-path="url(#p507bb0a3db)">
     <use style="fill:#738fc1;stroke:#ffffff;stroke-width:0.25;" x="0" xlink:href="#m20c4c3ac32" y="116.720625"/>
    </g>
   </g>
   <g id="PolyCollection_4">
    <defs>
     <path d="M 29.773398 -44.805825 
L 29.773398 -35.083272 
L 30.838234 -35.164553 
L 31.940795 -35.754181 
L 33.086217 -35.401228 
L 34.277212 -35.631364 
L 35.515303 -35.818937 
L 36.796822 -36.079585 
L 38.112567 -36.156986 
L 39.449955 -35.85911 
L 40.799038 -36.321797 
L 42.157897 -36.67407 
L 43.526531 -36.880574 
L 44.899487 -37.00775 
L 46.270924 -37.206986 
L 47.637476 -37.343816 
L 48.996103 -37.408901 
L 50.34955 -37.554634 
L 51.707733 -37.814391 
L 53.084576 -38.131379 
L 54.490635 -38.415817 
L 55.925754 -38.534291 
L 57.387903 -38.702952 
L 58.883012 -38.83948 
L 60.417837 -38.901216 
L 61.995027 -39.042798 
L 63.61835 -39.480262 
L 65.280544 -39.902515 
L 66.959322 -40.106662 
L 68.624682 -40.439776 
L 70.254454 -40.930117 
L 71.840992 -40.950322 
L 73.388271 -40.966576 
L 74.900344 -41.10818 
L 76.38588 -41.425025 
L 77.852082 -41.589018 
L 79.299059 -41.822022 
L 80.726356 -41.782644 
L 82.140618 -41.385147 
L 83.550209 -41.705036 
L 84.961938 -42.075904 
L 86.378465 -42.189121 
L 87.800995 -42.572073 
L 89.232954 -42.596104 
L 90.677606 -42.898278 
L 92.137192 -43.226692 
L 93.613038 -43.490605 
L 95.104822 -43.493112 
L 96.610734 -43.868794 
L 98.127796 -43.984651 
L 99.653137 -44.224675 
L 101.18591 -41.257239 
L 102.724626 -44.286876 
L 104.264808 -44.316089 
L 105.800962 -44.289018 
L 107.32861 -44.500683 
L 108.845413 -44.75654 
L 110.350334 -44.782827 
L 111.841875 -44.971113 
L 111.841875 -103.970893 
L 111.841875 -103.970893 
L 110.350334 -102.551776 
L 108.845413 -101.565324 
L 107.32861 -98.452445 
L 105.800962 -96.847236 
L 104.264808 -96.463126 
L 102.724626 -95.279589 
L 101.18591 -90.907365 
L 99.653137 -94.607365 
L 98.127796 -93.063659 
L 96.610734 -91.078443 
L 95.104822 -89.037417 
L 93.613038 -87.272171 
L 92.137192 -86.089442 
L 90.677606 -84.564303 
L 89.232954 -82.860072 
L 87.800995 -82.687055 
L 86.378465 -79.405741 
L 84.961938 -77.89174 
L 83.550209 -75.658821 
L 82.140618 -74.090862 
L 80.726356 -76.916795 
L 79.299059 -75.391893 
L 77.852082 -73.483008 
L 76.38588 -72.522564 
L 74.900344 -70.832247 
L 73.388271 -69.444024 
L 71.840992 -68.465868 
L 70.254454 -67.360854 
L 68.624682 -65.955786 
L 66.959322 -64.823072 
L 65.280544 -63.693737 
L 63.61835 -62.025633 
L 61.995027 -60.480862 
L 60.417837 -59.494736 
L 58.883012 -58.646453 
L 57.387903 -57.985831 
L 55.925754 -57.234151 
L 54.490635 -56.380714 
L 53.084576 -55.363037 
L 51.707733 -54.20896 
L 50.34955 -53.131286 
L 48.996103 -52.494353 
L 47.637476 -52.010323 
L 46.270924 -51.651236 
L 44.899487 -51.099665 
L 43.526531 -50.665116 
L 42.157897 -50.066076 
L 40.799038 -49.287223 
L 39.449955 -48.273801 
L 38.112567 -48.160375 
L 36.796822 -47.693099 
L 35.515303 -46.882743 
L 34.277212 -46.456368 
L 33.086217 -45.931438 
L 31.940795 -46.114937 
L 30.838234 -45.240594 
L 29.773398 -44.805825 
z
" id="mbfd4e28735" style="stroke:#ffffff;stroke-width:0.25;"/>
    </defs>
    <g clip-path="url(#p507bb0a3db)">
     <use style="fill:#7aa974;stroke:#ffffff;stroke-width:0.25;" x="0" xlink:href="#mbfd4e28735" y="116.720625"/>
    </g>
   </g>
   <g id="patch_3">
    <path d="M 28.141875 90.406875 
L 28.141875 8.866875 
" style="fill:none;stroke:#ffffff;stroke-linecap:square;stroke-linejoin:miter;stroke-width:0.8;"/>
   </g>
   <g id="patch_4">
    <path d="M 111.841875 90.406875 
L 111.841875 8.866875 
" style="fill:none;stroke:#ffffff;stroke-linecap:square;stroke-linejoin:miter;stroke-width:0.8;"/>
   </g>
   <g id="patch_5">
    <path d="M 28.141875 90.406875 
L 111.841875 90.406875 
" style="fill:none;stroke:#ffffff;stroke-linecap:square;stroke-linejoin:miter;stroke-width:0.8;"/>
   </g>
   <g id="patch_6">
    <path d="M 28.141875 8.866875 
L 111.841875 8.866875 
" style="fill:none;stroke:#ffffff;stroke-linecap:square;stroke-linejoin:miter;stroke-width:0.8;"/>
   </g>
  </g>
 </g>
 <defs>
  <clipPath id="p507bb0a3db">
   <rect height="81.54" width="83.7" x="28.141875" y="8.866875"/>
  </clipPath>
 </defs>
</svg>
