<?xml version="1.0" encoding="utf-8" standalone="no"?>
<!DOCTYPE svg PUBLIC "-//W3C//DTD SVG 1.1//EN"
  "http://www.w3.org/Graphics/SVG/1.1/DTD/svg11.dtd">
<!-- Created with matplotlib (https://matplotlib.org/) -->
<svg height="142.23375pt" version="1.1" viewBox="0 0 146.941875 142.23375" width="146.941875pt" xmlns="http://www.w3.org/2000/svg" xmlns:xlink="http://www.w3.org/1999/xlink">
 <metadata>
  <rdf:RDF xmlns:cc="http://creativecommons.org/ns#" xmlns:dc="http://purl.org/dc/elements/1.1/" xmlns:rdf="http://www.w3.org/1999/02/22-rdf-syntax-ns#">
   <cc:Work>
    <dc:type rdf:resource="http://purl.org/dc/dcmitype/StillImage"/>
    <dc:date>2021-09-20T18:44:06.572143</dc:date>
    <dc:format>image/svg+xml</dc:format>
    <dc:creator>
     <cc:Agent>
      <dc:title>Matplotlib v3.3.4, https://matplotlib.org/</dc:title>
     </cc:Agent>
    </dc:creator>
   </cc:Work>
  </rdf:RDF>
 </metadata>
 <defs>
  <style type="text/css">*{stroke-linecap:butt;stroke-linejoin:round;}</style>
 </defs>
 <g id="figure_1">
  <g id="patch_1">
   <path d="M 0 142.23375 
L 146.941875 142.23375 
L 146.941875 0 
L 0 0 
z
" style="fill:#ffffff;"/>
  </g>
  <g id="axes_1">
   <g id="patch_2">
    <path d="M 28.141875 115.92 
L 139.741875 115.92 
L 139.741875 7.2 
L 28.141875 7.2 
z
" style="fill:#e3dcd0;"/>
   </g>
   <g id="matplotlib.axis_1">
    <g id="xtick_1">
     <g id="text_1">
      <!-- 3 -->
      <g transform="translate(26.233125 123.979062)scale(0.06 -0.06)">
       <defs>
        <path d="M 40.578125 39.3125 
Q 47.65625 37.796875 51.625 33 
Q 55.609375 28.21875 55.609375 21.1875 
Q 55.609375 10.40625 48.1875 4.484375 
Q 40.765625 -1.421875 27.09375 -1.421875 
Q 22.515625 -1.421875 17.65625 -0.515625 
Q 12.796875 0.390625 7.625 2.203125 
L 7.625 11.71875 
Q 11.71875 9.328125 16.59375 8.109375 
Q 21.484375 6.890625 26.8125 6.890625 
Q 36.078125 6.890625 40.9375 10.546875 
Q 45.796875 14.203125 45.796875 21.1875 
Q 45.796875 27.640625 41.28125 31.265625 
Q 36.765625 34.90625 28.71875 34.90625 
L 20.21875 34.90625 
L 20.21875 43.015625 
L 29.109375 43.015625 
Q 36.375 43.015625 40.234375 45.921875 
Q 44.09375 48.828125 44.09375 54.296875 
Q 44.09375 59.90625 40.109375 62.90625 
Q 36.140625 65.921875 28.71875 65.921875 
Q 24.65625 65.921875 20.015625 65.03125 
Q 15.375 64.15625 9.8125 62.3125 
L 9.8125 71.09375 
Q 15.4375 72.65625 20.34375 73.4375 
Q 25.25 74.21875 29.59375 74.21875 
Q 40.828125 74.21875 47.359375 69.109375 
Q 53.90625 64.015625 53.90625 55.328125 
Q 53.90625 49.265625 50.4375 45.09375 
Q 46.96875 40.921875 40.578125 39.3125 
z
" id="DejaVuSans-51"/>
       </defs>
       <use xlink:href="#DejaVuSans-51"/>
      </g>
     </g>
    </g>
    <g id="xtick_2">
     <g id="text_2">
      <!-- 4 -->
      <g transform="translate(50.322128 123.979062)scale(0.06 -0.06)">
       <defs>
        <path d="M 37.796875 64.3125 
L 12.890625 25.390625 
L 37.796875 25.390625 
z
M 35.203125 72.90625 
L 47.609375 72.90625 
L 47.609375 25.390625 
L 58.015625 25.390625 
L 58.015625 17.1875 
L 47.609375 17.1875 
L 47.609375 0 
L 37.796875 0 
L 37.796875 17.1875 
L 4.890625 17.1875 
L 4.890625 26.703125 
z
" id="DejaVuSans-52"/>
       </defs>
       <use xlink:href="#DejaVuSans-52"/>
      </g>
     </g>
    </g>
    <g id="xtick_3">
     <g id="text_3">
      <!-- 5 -->
      <g transform="translate(74.411132 123.979062)scale(0.06 -0.06)">
       <defs>
        <path d="M 10.796875 72.90625 
L 49.515625 72.90625 
L 49.515625 64.59375 
L 19.828125 64.59375 
L 19.828125 46.734375 
Q 21.96875 47.46875 24.109375 47.828125 
Q 26.265625 48.1875 28.421875 48.1875 
Q 40.625 48.1875 47.75 41.5 
Q 54.890625 34.8125 54.890625 23.390625 
Q 54.890625 11.625 47.5625 5.09375 
Q 40.234375 -1.421875 26.90625 -1.421875 
Q 22.3125 -1.421875 17.546875 -0.640625 
Q 12.796875 0.140625 7.71875 1.703125 
L 7.71875 11.625 
Q 12.109375 9.234375 16.796875 8.0625 
Q 21.484375 6.890625 26.703125 6.890625 
Q 35.15625 6.890625 40.078125 11.328125 
Q 45.015625 15.765625 45.015625 23.390625 
Q 45.015625 31 40.078125 35.4375 
Q 35.15625 39.890625 26.703125 39.890625 
Q 22.75 39.890625 18.8125 39.015625 
Q 14.890625 38.140625 10.796875 36.28125 
z
" id="DejaVuSans-53"/>
       </defs>
       <use xlink:href="#DejaVuSans-53"/>
      </g>
     </g>
    </g>
    <g id="xtick_4">
     <g id="text_4">
      <!-- 6 -->
      <g transform="translate(98.500135 123.979062)scale(0.06 -0.06)">
       <defs>
        <path d="M 33.015625 40.375 
Q 26.375 40.375 22.484375 35.828125 
Q 18.609375 31.296875 18.609375 23.390625 
Q 18.609375 15.53125 22.484375 10.953125 
Q 26.375 6.390625 33.015625 6.390625 
Q 39.65625 6.390625 43.53125 10.953125 
Q 47.40625 15.53125 47.40625 23.390625 
Q 47.40625 31.296875 43.53125 35.828125 
Q 39.65625 40.375 33.015625 40.375 
z
M 52.59375 71.296875 
L 52.59375 62.3125 
Q 48.875 64.0625 45.09375 64.984375 
Q 41.3125 65.921875 37.59375 65.921875 
Q 27.828125 65.921875 22.671875 59.328125 
Q 17.53125 52.734375 16.796875 39.40625 
Q 19.671875 43.65625 24.015625 45.921875 
Q 28.375 48.1875 33.59375 48.1875 
Q 44.578125 48.1875 50.953125 41.515625 
Q 57.328125 34.859375 57.328125 23.390625 
Q 57.328125 12.15625 50.6875 5.359375 
Q 44.046875 -1.421875 33.015625 -1.421875 
Q 20.359375 -1.421875 13.671875 8.265625 
Q 6.984375 17.96875 6.984375 36.375 
Q 6.984375 53.65625 15.1875 63.9375 
Q 23.390625 74.21875 37.203125 74.21875 
Q 40.921875 74.21875 44.703125 73.484375 
Q 48.484375 72.75 52.59375 71.296875 
z
" id="DejaVuSans-54"/>
       </defs>
       <use xlink:href="#DejaVuSans-54"/>
      </g>
     </g>
    </g>
    <g id="xtick_5">
     <g id="text_5">
      <!-- 7 -->
      <g transform="translate(122.589138 123.979062)scale(0.06 -0.06)">
       <defs>
        <path d="M 8.203125 72.90625 
L 55.078125 72.90625 
L 55.078125 68.703125 
L 28.609375 0 
L 18.3125 0 
L 43.21875 64.59375 
L 8.203125 64.59375 
z
" id="DejaVuSans-55"/>
       </defs>
       <use xlink:href="#DejaVuSans-55"/>
      </g>
     </g>
    </g>
    <g id="text_6">
     <!-- population [billion] -->
     <g style="fill:#262626;" transform="translate(55.708125 133.785937)scale(0.06 -0.06)">
      <defs>
       <path d="M 18.109375 8.203125 
L 18.109375 -20.796875 
L 9.078125 -20.796875 
L 9.078125 54.6875 
L 18.109375 54.6875 
L 18.109375 46.390625 
Q 20.953125 51.265625 25.265625 53.625 
Q 29.59375 56 35.59375 56 
Q 45.5625 56 51.78125 48.09375 
Q 58.015625 40.1875 58.015625 27.296875 
Q 58.015625 14.40625 51.78125 6.484375 
Q 45.5625 -1.421875 35.59375 -1.421875 
Q 29.59375 -1.421875 25.265625 0.953125 
Q 20.953125 3.328125 18.109375 8.203125 
z
M 48.6875 27.296875 
Q 48.6875 37.203125 44.609375 42.84375 
Q 40.53125 48.484375 33.40625 48.484375 
Q 26.265625 48.484375 22.1875 42.84375 
Q 18.109375 37.203125 18.109375 27.296875 
Q 18.109375 17.390625 22.1875 11.75 
Q 26.265625 6.109375 33.40625 6.109375 
Q 40.53125 6.109375 44.609375 11.75 
Q 48.6875 17.390625 48.6875 27.296875 
z
" id="DejaVuSans-112"/>
       <path d="M 30.609375 48.390625 
Q 23.390625 48.390625 19.1875 42.75 
Q 14.984375 37.109375 14.984375 27.296875 
Q 14.984375 17.484375 19.15625 11.84375 
Q 23.34375 6.203125 30.609375 6.203125 
Q 37.796875 6.203125 41.984375 11.859375 
Q 46.1875 17.53125 46.1875 27.296875 
Q 46.1875 37.015625 41.984375 42.703125 
Q 37.796875 48.390625 30.609375 48.390625 
z
M 30.609375 56 
Q 42.328125 56 49.015625 48.375 
Q 55.71875 40.765625 55.71875 27.296875 
Q 55.71875 13.875 49.015625 6.21875 
Q 42.328125 -1.421875 30.609375 -1.421875 
Q 18.84375 -1.421875 12.171875 6.21875 
Q 5.515625 13.875 5.515625 27.296875 
Q 5.515625 40.765625 12.171875 48.375 
Q 18.84375 56 30.609375 56 
z
" id="DejaVuSans-111"/>
       <path d="M 8.5 21.578125 
L 8.5 54.6875 
L 17.484375 54.6875 
L 17.484375 21.921875 
Q 17.484375 14.15625 20.5 10.265625 
Q 23.53125 6.390625 29.59375 6.390625 
Q 36.859375 6.390625 41.078125 11.03125 
Q 45.3125 15.671875 45.3125 23.6875 
L 45.3125 54.6875 
L 54.296875 54.6875 
L 54.296875 0 
L 45.3125 0 
L 45.3125 8.40625 
Q 42.046875 3.421875 37.71875 1 
Q 33.40625 -1.421875 27.6875 -1.421875 
Q 18.265625 -1.421875 13.375 4.4375 
Q 8.5 10.296875 8.5 21.578125 
z
M 31.109375 56 
z
" id="DejaVuSans-117"/>
       <path d="M 9.421875 75.984375 
L 18.40625 75.984375 
L 18.40625 0 
L 9.421875 0 
z
" id="DejaVuSans-108"/>
       <path d="M 34.28125 27.484375 
Q 23.390625 27.484375 19.1875 25 
Q 14.984375 22.515625 14.984375 16.5 
Q 14.984375 11.71875 18.140625 8.90625 
Q 21.296875 6.109375 26.703125 6.109375 
Q 34.1875 6.109375 38.703125 11.40625 
Q 43.21875 16.703125 43.21875 25.484375 
L 43.21875 27.484375 
z
M 52.203125 31.203125 
L 52.203125 0 
L 43.21875 0 
L 43.21875 8.296875 
Q 40.140625 3.328125 35.546875 0.953125 
Q 30.953125 -1.421875 24.3125 -1.421875 
Q 15.921875 -1.421875 10.953125 3.296875 
Q 6 8.015625 6 15.921875 
Q 6 25.140625 12.171875 29.828125 
Q 18.359375 34.515625 30.609375 34.515625 
L 43.21875 34.515625 
L 43.21875 35.40625 
Q 43.21875 41.609375 39.140625 45 
Q 35.0625 48.390625 27.6875 48.390625 
Q 23 48.390625 18.546875 47.265625 
Q 14.109375 46.140625 10.015625 43.890625 
L 10.015625 52.203125 
Q 14.9375 54.109375 19.578125 55.046875 
Q 24.21875 56 28.609375 56 
Q 40.484375 56 46.34375 49.84375 
Q 52.203125 43.703125 52.203125 31.203125 
z
" id="DejaVuSans-97"/>
       <path d="M 18.3125 70.21875 
L 18.3125 54.6875 
L 36.8125 54.6875 
L 36.8125 47.703125 
L 18.3125 47.703125 
L 18.3125 18.015625 
Q 18.3125 11.328125 20.140625 9.421875 
Q 21.96875 7.515625 27.59375 7.515625 
L 36.8125 7.515625 
L 36.8125 0 
L 27.59375 0 
Q 17.1875 0 13.234375 3.875 
Q 9.28125 7.765625 9.28125 18.015625 
L 9.28125 47.703125 
L 2.6875 47.703125 
L 2.6875 54.6875 
L 9.28125 54.6875 
L 9.28125 70.21875 
z
" id="DejaVuSans-116"/>
       <path d="M 9.421875 54.6875 
L 18.40625 54.6875 
L 18.40625 0 
L 9.421875 0 
z
M 9.421875 75.984375 
L 18.40625 75.984375 
L 18.40625 64.59375 
L 9.421875 64.59375 
z
" id="DejaVuSans-105"/>
       <path d="M 54.890625 33.015625 
L 54.890625 0 
L 45.90625 0 
L 45.90625 32.71875 
Q 45.90625 40.484375 42.875 44.328125 
Q 39.84375 48.1875 33.796875 48.1875 
Q 26.515625 48.1875 22.3125 43.546875 
Q 18.109375 38.921875 18.109375 30.90625 
L 18.109375 0 
L 9.078125 0 
L 9.078125 54.6875 
L 18.109375 54.6875 
L 18.109375 46.1875 
Q 21.34375 51.125 25.703125 53.5625 
Q 30.078125 56 35.796875 56 
Q 45.21875 56 50.046875 50.171875 
Q 54.890625 44.34375 54.890625 33.015625 
z
" id="DejaVuSans-110"/>
       <path id="DejaVuSans-32"/>
       <path d="M 8.59375 75.984375 
L 29.296875 75.984375 
L 29.296875 69 
L 17.578125 69 
L 17.578125 -6.203125 
L 29.296875 -6.203125 
L 29.296875 -13.1875 
L 8.59375 -13.1875 
z
" id="DejaVuSans-91"/>
       <path d="M 48.6875 27.296875 
Q 48.6875 37.203125 44.609375 42.84375 
Q 40.53125 48.484375 33.40625 48.484375 
Q 26.265625 48.484375 22.1875 42.84375 
Q 18.109375 37.203125 18.109375 27.296875 
Q 18.109375 17.390625 22.1875 11.75 
Q 26.265625 6.109375 33.40625 6.109375 
Q 40.53125 6.109375 44.609375 11.75 
Q 48.6875 17.390625 48.6875 27.296875 
z
M 18.109375 46.390625 
Q 20.953125 51.265625 25.265625 53.625 
Q 29.59375 56 35.59375 56 
Q 45.5625 56 51.78125 48.09375 
Q 58.015625 40.1875 58.015625 27.296875 
Q 58.015625 14.40625 51.78125 6.484375 
Q 45.5625 -1.421875 35.59375 -1.421875 
Q 29.59375 -1.421875 25.265625 0.953125 
Q 20.953125 3.328125 18.109375 8.203125 
L 18.109375 0 
L 9.078125 0 
L 9.078125 75.984375 
L 18.109375 75.984375 
z
" id="DejaVuSans-98"/>
       <path d="M 30.421875 75.984375 
L 30.421875 -13.1875 
L 9.71875 -13.1875 
L 9.71875 -6.203125 
L 21.390625 -6.203125 
L 21.390625 69 
L 9.71875 69 
L 9.71875 75.984375 
z
" id="DejaVuSans-93"/>
      </defs>
      <use xlink:href="#DejaVuSans-112"/>
      <use x="63.476562" xlink:href="#DejaVuSans-111"/>
      <use x="124.658203" xlink:href="#DejaVuSans-112"/>
      <use x="188.134766" xlink:href="#DejaVuSans-117"/>
      <use x="251.513672" xlink:href="#DejaVuSans-108"/>
      <use x="279.296875" xlink:href="#DejaVuSans-97"/>
      <use x="340.576172" xlink:href="#DejaVuSans-116"/>
      <use x="379.785156" xlink:href="#DejaVuSans-105"/>
      <use x="407.568359" xlink:href="#DejaVuSans-111"/>
      <use x="468.75" xlink:href="#DejaVuSans-110"/>
      <use x="532.128906" xlink:href="#DejaVuSans-32"/>
      <use x="563.916016" xlink:href="#DejaVuSans-91"/>
      <use x="602.929688" xlink:href="#DejaVuSans-98"/>
      <use x="666.40625" xlink:href="#DejaVuSans-105"/>
      <use x="694.189453" xlink:href="#DejaVuSans-108"/>
      <use x="721.972656" xlink:href="#DejaVuSans-108"/>
      <use x="749.755859" xlink:href="#DejaVuSans-105"/>
      <use x="777.539062" xlink:href="#DejaVuSans-111"/>
      <use x="838.720703" xlink:href="#DejaVuSans-110"/>
      <use x="902.099609" xlink:href="#DejaVuSans-93"/>
     </g>
    </g>
   </g>
   <g id="matplotlib.axis_2">
    <g id="ytick_1">
     <g id="text_7">
      <!-- 0 -->
      <g transform="translate(20.824375 118.199531)scale(0.06 -0.06)">
       <defs>
        <path d="M 31.78125 66.40625 
Q 24.171875 66.40625 20.328125 58.90625 
Q 16.5 51.421875 16.5 36.375 
Q 16.5 21.390625 20.328125 13.890625 
Q 24.171875 6.390625 31.78125 6.390625 
Q 39.453125 6.390625 43.28125 13.890625 
Q 47.125 21.390625 47.125 36.375 
Q 47.125 51.421875 43.28125 58.90625 
Q 39.453125 66.40625 31.78125 66.40625 
z
M 31.78125 74.21875 
Q 44.046875 74.21875 50.515625 64.515625 
Q 56.984375 54.828125 56.984375 36.375 
Q 56.984375 17.96875 50.515625 8.265625 
Q 44.046875 -1.421875 31.78125 -1.421875 
Q 19.53125 -1.421875 13.0625 8.265625 
Q 6.59375 17.96875 6.59375 36.375 
Q 6.59375 54.828125 13.0625 64.515625 
Q 19.53125 74.21875 31.78125 74.21875 
z
" id="DejaVuSans-48"/>
       </defs>
       <use xlink:href="#DejaVuSans-48"/>
      </g>
     </g>
    </g>
    <g id="ytick_2">
     <g id="text_8">
      <!-- 5 -->
      <g transform="translate(20.824375 101.608244)scale(0.06 -0.06)">
       <use xlink:href="#DejaVuSans-53"/>
      </g>
     </g>
    </g>
    <g id="ytick_3">
     <g id="text_9">
      <!-- 10 -->
      <g transform="translate(17.006875 85.016957)scale(0.06 -0.06)">
       <defs>
        <path d="M 12.40625 8.296875 
L 28.515625 8.296875 
L 28.515625 63.921875 
L 10.984375 60.40625 
L 10.984375 69.390625 
L 28.421875 72.90625 
L 38.28125 72.90625 
L 38.28125 8.296875 
L 54.390625 8.296875 
L 54.390625 0 
L 12.40625 0 
z
" id="DejaVuSans-49"/>
       </defs>
       <use xlink:href="#DejaVuSans-49"/>
       <use x="63.623047" xlink:href="#DejaVuSans-48"/>
      </g>
     </g>
    </g>
    <g id="ytick_4">
     <g id="text_10">
      <!-- 15 -->
      <g transform="translate(17.006875 68.42567)scale(0.06 -0.06)">
       <use xlink:href="#DejaVuSans-49"/>
       <use x="63.623047" xlink:href="#DejaVuSans-53"/>
      </g>
     </g>
    </g>
    <g id="ytick_5">
     <g id="text_11">
      <!-- 20 -->
      <g transform="translate(17.006875 51.834383)scale(0.06 -0.06)">
       <defs>
        <path d="M 19.1875 8.296875 
L 53.609375 8.296875 
L 53.609375 0 
L 7.328125 0 
L 7.328125 8.296875 
Q 12.9375 14.109375 22.625 23.890625 
Q 32.328125 33.6875 34.8125 36.53125 
Q 39.546875 41.84375 41.421875 45.53125 
Q 43.3125 49.21875 43.3125 52.78125 
Q 43.3125 58.59375 39.234375 62.25 
Q 35.15625 65.921875 28.609375 65.921875 
Q 23.96875 65.921875 18.8125 64.3125 
Q 13.671875 62.703125 7.8125 59.421875 
L 7.8125 69.390625 
Q 13.765625 71.78125 18.9375 73 
Q 24.125 74.21875 28.421875 74.21875 
Q 39.75 74.21875 46.484375 68.546875 
Q 53.21875 62.890625 53.21875 53.421875 
Q 53.21875 48.921875 51.53125 44.890625 
Q 49.859375 40.875 45.40625 35.40625 
Q 44.1875 33.984375 37.640625 27.21875 
Q 31.109375 20.453125 19.1875 8.296875 
z
" id="DejaVuSans-50"/>
       </defs>
       <use xlink:href="#DejaVuSans-50"/>
       <use x="63.623047" xlink:href="#DejaVuSans-48"/>
      </g>
     </g>
    </g>
    <g id="ytick_6">
     <g id="text_12">
      <!-- 25 -->
      <g transform="translate(17.006875 35.243096)scale(0.06 -0.06)">
       <use xlink:href="#DejaVuSans-50"/>
       <use x="63.623047" xlink:href="#DejaVuSans-53"/>
      </g>
     </g>
    </g>
    <g id="ytick_7">
     <g id="text_13">
      <!-- 30 -->
      <g transform="translate(17.006875 18.651809)scale(0.06 -0.06)">
       <use xlink:href="#DejaVuSans-51"/>
       <use x="63.623047" xlink:href="#DejaVuSans-48"/>
      </g>
     </g>
    </g>
    <g id="text_14">
     <!-- livestock population [billion] -->
     <g style="fill:#262626;" transform="translate(11.759062 103.996875)rotate(-90)scale(0.06 -0.06)">
      <defs>
       <path d="M 2.984375 54.6875 
L 12.5 54.6875 
L 29.59375 8.796875 
L 46.6875 54.6875 
L 56.203125 54.6875 
L 35.6875 0 
L 23.484375 0 
z
" id="DejaVuSans-118"/>
       <path d="M 56.203125 29.59375 
L 56.203125 25.203125 
L 14.890625 25.203125 
Q 15.484375 15.921875 20.484375 11.0625 
Q 25.484375 6.203125 34.421875 6.203125 
Q 39.59375 6.203125 44.453125 7.46875 
Q 49.3125 8.734375 54.109375 11.28125 
L 54.109375 2.78125 
Q 49.265625 0.734375 44.1875 -0.34375 
Q 39.109375 -1.421875 33.890625 -1.421875 
Q 20.796875 -1.421875 13.15625 6.1875 
Q 5.515625 13.8125 5.515625 26.8125 
Q 5.515625 40.234375 12.765625 48.109375 
Q 20.015625 56 32.328125 56 
Q 43.359375 56 49.78125 48.890625 
Q 56.203125 41.796875 56.203125 29.59375 
z
M 47.21875 32.234375 
Q 47.125 39.59375 43.09375 43.984375 
Q 39.0625 48.390625 32.421875 48.390625 
Q 24.90625 48.390625 20.390625 44.140625 
Q 15.875 39.890625 15.1875 32.171875 
z
" id="DejaVuSans-101"/>
       <path d="M 44.28125 53.078125 
L 44.28125 44.578125 
Q 40.484375 46.53125 36.375 47.5 
Q 32.28125 48.484375 27.875 48.484375 
Q 21.1875 48.484375 17.84375 46.4375 
Q 14.5 44.390625 14.5 40.28125 
Q 14.5 37.15625 16.890625 35.375 
Q 19.28125 33.59375 26.515625 31.984375 
L 29.59375 31.296875 
Q 39.15625 29.25 43.1875 25.515625 
Q 47.21875 21.78125 47.21875 15.09375 
Q 47.21875 7.46875 41.1875 3.015625 
Q 35.15625 -1.421875 24.609375 -1.421875 
Q 20.21875 -1.421875 15.453125 -0.5625 
Q 10.6875 0.296875 5.421875 2 
L 5.421875 11.28125 
Q 10.40625 8.6875 15.234375 7.390625 
Q 20.0625 6.109375 24.8125 6.109375 
Q 31.15625 6.109375 34.5625 8.28125 
Q 37.984375 10.453125 37.984375 14.40625 
Q 37.984375 18.0625 35.515625 20.015625 
Q 33.0625 21.96875 24.703125 23.78125 
L 21.578125 24.515625 
Q 13.234375 26.265625 9.515625 29.90625 
Q 5.8125 33.546875 5.8125 39.890625 
Q 5.8125 47.609375 11.28125 51.796875 
Q 16.75 56 26.8125 56 
Q 31.78125 56 36.171875 55.265625 
Q 40.578125 54.546875 44.28125 53.078125 
z
" id="DejaVuSans-115"/>
       <path d="M 48.78125 52.59375 
L 48.78125 44.1875 
Q 44.96875 46.296875 41.140625 47.34375 
Q 37.3125 48.390625 33.40625 48.390625 
Q 24.65625 48.390625 19.8125 42.84375 
Q 14.984375 37.3125 14.984375 27.296875 
Q 14.984375 17.28125 19.8125 11.734375 
Q 24.65625 6.203125 33.40625 6.203125 
Q 37.3125 6.203125 41.140625 7.25 
Q 44.96875 8.296875 48.78125 10.40625 
L 48.78125 2.09375 
Q 45.015625 0.34375 40.984375 -0.53125 
Q 36.96875 -1.421875 32.421875 -1.421875 
Q 20.0625 -1.421875 12.78125 6.34375 
Q 5.515625 14.109375 5.515625 27.296875 
Q 5.515625 40.671875 12.859375 48.328125 
Q 20.21875 56 33.015625 56 
Q 37.15625 56 41.109375 55.140625 
Q 45.0625 54.296875 48.78125 52.59375 
z
" id="DejaVuSans-99"/>
       <path d="M 9.078125 75.984375 
L 18.109375 75.984375 
L 18.109375 31.109375 
L 44.921875 54.6875 
L 56.390625 54.6875 
L 27.390625 29.109375 
L 57.625 0 
L 45.90625 0 
L 18.109375 26.703125 
L 18.109375 0 
L 9.078125 0 
z
" id="DejaVuSans-107"/>
      </defs>
      <use xlink:href="#DejaVuSans-108"/>
      <use x="27.783203" xlink:href="#DejaVuSans-105"/>
      <use x="55.566406" xlink:href="#DejaVuSans-118"/>
      <use x="114.746094" xlink:href="#DejaVuSans-101"/>
      <use x="176.269531" xlink:href="#DejaVuSans-115"/>
      <use x="228.369141" xlink:href="#DejaVuSans-116"/>
      <use x="267.578125" xlink:href="#DejaVuSans-111"/>
      <use x="328.759766" xlink:href="#DejaVuSans-99"/>
      <use x="383.740234" xlink:href="#DejaVuSans-107"/>
      <use x="441.650391" xlink:href="#DejaVuSans-32"/>
      <use x="473.4375" xlink:href="#DejaVuSans-112"/>
      <use x="536.914062" xlink:href="#DejaVuSans-111"/>
      <use x="598.095703" xlink:href="#DejaVuSans-112"/>
      <use x="661.572266" xlink:href="#DejaVuSans-117"/>
      <use x="724.951172" xlink:href="#DejaVuSans-108"/>
      <use x="752.734375" xlink:href="#DejaVuSans-97"/>
      <use x="814.013672" xlink:href="#DejaVuSans-116"/>
      <use x="853.222656" xlink:href="#DejaVuSans-105"/>
      <use x="881.005859" xlink:href="#DejaVuSans-111"/>
      <use x="942.1875" xlink:href="#DejaVuSans-110"/>
      <use x="1005.566406" xlink:href="#DejaVuSans-32"/>
      <use x="1037.353516" xlink:href="#DejaVuSans-91"/>
      <use x="1076.367188" xlink:href="#DejaVuSans-98"/>
      <use x="1139.84375" xlink:href="#DejaVuSans-105"/>
      <use x="1167.626953" xlink:href="#DejaVuSans-108"/>
      <use x="1195.410156" xlink:href="#DejaVuSans-108"/>
      <use x="1223.193359" xlink:href="#DejaVuSans-105"/>
      <use x="1250.976562" xlink:href="#DejaVuSans-111"/>
      <use x="1312.158203" xlink:href="#DejaVuSans-110"/>
      <use x="1375.537109" xlink:href="#DejaVuSans-93"/>
     </g>
    </g>
   </g>
   <g id="PolyCollection_1">
    <defs>
     <path d="M 30.317239 -33.532256 
L 30.317239 -26.31375 
L 31.73702 -26.31375 
L 33.207102 -26.31375 
L 34.734331 -26.31375 
L 36.322324 -26.31375 
L 37.973113 -26.31375 
L 39.681804 -26.31375 
L 41.436131 -26.31375 
L 43.219315 -26.31375 
L 45.018092 -26.31375 
L 46.829905 -26.31375 
L 48.65475 -26.31375 
L 50.485358 -26.31375 
L 52.313941 -26.31375 
L 54.13601 -26.31375 
L 55.947513 -26.31375 
L 57.752108 -26.31375 
L 59.56302 -26.31375 
L 61.39881 -26.31375 
L 63.273555 -26.31375 
L 65.187047 -26.31375 
L 67.136579 -26.31375 
L 69.130057 -26.31375 
L 71.176491 -26.31375 
L 73.279411 -26.31375 
L 75.443842 -26.31375 
L 77.660101 -26.31375 
L 79.898471 -26.31375 
L 82.118951 -26.31375 
L 84.29198 -26.31375 
L 86.407364 -26.31375 
L 88.470403 -26.31375 
L 90.4865 -26.31375 
L 92.467215 -26.31375 
L 94.422151 -26.31375 
L 96.351454 -26.31375 
L 98.254516 -26.31375 
L 100.140199 -26.31375 
L 102.019654 -26.31375 
L 103.901959 -26.31375 
L 105.790661 -26.31375 
L 107.687369 -26.31375 
L 109.596647 -26.31375 
L 111.522849 -26.31375 
L 113.468964 -26.31375 
L 115.436759 -26.31375 
L 117.425805 -26.31375 
L 119.433687 -26.31375 
L 121.456436 -26.31375 
L 123.490225 -26.31375 
L 125.533922 -26.31375 
L 127.585543 -26.31375 
L 129.639119 -26.31375 
L 131.687324 -26.31375 
L 133.724189 -26.31375 
L 135.746592 -26.31375 
L 137.753154 -26.31375 
L 139.741875 -26.31375 
L 139.741875 -43.000521 
L 139.741875 -43.000521 
L 137.753154 -42.829944 
L 135.746592 -42.763714 
L 133.724189 -42.465107 
L 131.687324 -42.218899 
L 129.639119 -42.315437 
L 127.585543 -42.276629 
L 125.533922 -38.30836 
L 123.490225 -42.285234 
L 121.456436 -41.98332 
L 119.433687 -41.908341 
L 117.425805 -41.513825 
L 115.436759 -41.528273 
L 113.468964 -41.299612 
L 111.522849 -40.949839 
L 109.596647 -40.574943 
L 107.687369 -40.607038 
L 105.790661 -40.170979 
L 103.901959 -39.967666 
L 102.019654 -39.512784 
L 100.140199 -39.163584 
L 98.254516 -39.813739 
L 96.351454 -39.548602 
L 94.422151 -39.292917 
L 92.467215 -39.148457 
L 90.4865 -38.787019 
L 88.470403 -38.616483 
L 86.407364 -38.627307 
L 84.29198 -38.681169 
L 82.118951 -38.069298 
L 79.898471 -37.730511 
L 77.660101 -37.455781 
L 75.443842 -36.92655 
L 73.279411 -36.471836 
L 71.176491 -36.316337 
L 69.130057 -36.292204 
L 67.136579 -36.157289 
L 65.187047 -35.940708 
L 63.273555 -35.764228 
L 61.39881 -35.513623 
L 59.56302 -35.198338 
L 57.752108 -34.944019 
L 55.947513 -34.862182 
L 54.13601 -34.80349 
L 52.313941 -34.684812 
L 50.485358 -34.523712 
L 48.65475 -34.468251 
L 46.829905 -34.436509 
L 45.018092 -34.252794 
L 43.219315 -33.706693 
L 41.436131 -34.090103 
L 39.681804 -34.034369 
L 37.973113 -33.883251 
L 36.322324 -33.742154 
L 34.734331 -33.630069 
L 33.207102 -34.194894 
L 31.73702 -33.535183 
L 30.317239 -33.532256 
z
" id="m0864f71cbf" style="stroke:#ffffff;stroke-width:0.25;"/>
    </defs>
    <g clip-path="url(#p7cccb0bb8a)">
     <use style="fill:#808080;stroke:#ffffff;stroke-width:0.25;" x="0" xlink:href="#m0864f71cbf" y="142.23375"/>
    </g>
   </g>
   <g id="PolyCollection_2">
    <defs>
     <path d="M 30.317239 -34.880067 
L 30.317239 -33.532256 
L 31.73702 -33.535183 
L 33.207102 -34.194894 
L 34.734331 -33.630069 
L 36.322324 -33.742154 
L 37.973113 -33.883251 
L 39.681804 -34.034369 
L 41.436131 -34.090103 
L 43.219315 -33.706693 
L 45.018092 -34.252794 
L 46.829905 -34.436509 
L 48.65475 -34.468251 
L 50.485358 -34.523712 
L 52.313941 -34.684812 
L 54.13601 -34.80349 
L 55.947513 -34.862182 
L 57.752108 -34.944019 
L 59.56302 -35.198338 
L 61.39881 -35.513623 
L 63.273555 -35.764228 
L 65.187047 -35.940708 
L 67.136579 -36.157289 
L 69.130057 -36.292204 
L 71.176491 -36.316337 
L 73.279411 -36.471836 
L 75.443842 -36.92655 
L 77.660101 -37.455781 
L 79.898471 -37.730511 
L 82.118951 -38.069298 
L 84.29198 -38.681169 
L 86.407364 -38.627307 
L 88.470403 -38.616483 
L 90.4865 -38.787019 
L 92.467215 -39.148457 
L 94.422151 -39.292917 
L 96.351454 -39.548602 
L 98.254516 -39.813739 
L 100.140199 -39.163584 
L 102.019654 -39.512784 
L 103.901959 -39.967666 
L 105.790661 -40.170979 
L 107.687369 -40.607038 
L 109.596647 -40.574943 
L 111.522849 -40.949839 
L 113.468964 -41.299612 
L 115.436759 -41.528273 
L 117.425805 -41.513825 
L 119.433687 -41.908341 
L 121.456436 -41.98332 
L 123.490225 -42.285234 
L 125.533922 -38.30836 
L 127.585543 -42.276629 
L 129.639119 -42.315437 
L 131.687324 -42.218899 
L 133.724189 -42.465107 
L 135.746592 -42.763714 
L 137.753154 -42.829944 
L 139.741875 -43.000521 
L 139.741875 -46.246879 
L 139.741875 -46.246879 
L 137.753154 -46.05044 
L 135.746592 -46.03161 
L 133.724189 -45.754558 
L 131.687324 -45.502817 
L 129.639119 -45.564939 
L 127.585543 -45.541341 
L 125.533922 -41.539783 
L 123.490225 -45.510424 
L 121.456436 -45.195522 
L 119.433687 -45.023311 
L 117.425805 -44.564334 
L 115.436759 -44.59792 
L 113.468964 -44.300856 
L 111.522849 -43.912711 
L 109.596647 -43.55676 
L 107.687369 -43.568362 
L 105.790661 -43.097501 
L 103.901959 -42.949868 
L 102.019654 -42.466865 
L 100.140199 -42.051219 
L 98.254516 -42.584043 
L 96.351454 -42.568656 
L 94.422151 -42.266801 
L 92.467215 -42.078532 
L 90.4865 -41.691272 
L 88.470403 -41.504518 
L 86.407364 -41.510021 
L 84.29198 -41.499668 
L 82.118951 -40.870609 
L 79.898471 -40.483014 
L 77.660101 -40.22928 
L 75.443842 -39.666028 
L 73.279411 -39.104766 
L 71.176491 -38.931664 
L 69.130057 -38.868829 
L 67.136579 -38.710468 
L 65.187047 -38.531028 
L 63.273555 -38.411459 
L 61.39881 -38.051947 
L 59.56302 -37.645391 
L 57.752108 -37.304111 
L 55.947513 -37.126466 
L 54.13601 -37.078655 
L 52.313941 -36.966429 
L 50.485358 -36.793841 
L 48.65475 -36.688623 
L 46.829905 -36.488555 
L 45.018092 -36.068647 
L 43.219315 -35.490733 
L 41.436131 -35.905221 
L 39.681804 -35.851414 
L 37.973113 -35.57699 
L 36.322324 -35.389418 
L 34.734331 -35.153359 
L 33.207102 -35.681012 
L 31.73702 -34.938676 
L 30.317239 -34.880067 
z
" id="m65cceb4896" style="stroke:#ffffff;stroke-width:0.25;"/>
    </defs>
    <g clip-path="url(#p7cccb0bb8a)">
     <use style="fill:#e8b19d;stroke:#ffffff;stroke-width:0.25;" x="0" xlink:href="#m65cceb4896" y="142.23375"/>
    </g>
   </g>
   <g id="PolyCollection_3">
    <defs>
     <path d="M 30.317239 -38.006447 
L 30.317239 -34.880067 
L 31.73702 -34.938676 
L 33.207102 -35.681012 
L 34.734331 -35.153359 
L 36.322324 -35.389418 
L 37.973113 -35.57699 
L 39.681804 -35.851414 
L 41.436131 -35.905221 
L 43.219315 -35.490733 
L 45.018092 -36.068647 
L 46.829905 -36.488555 
L 48.65475 -36.688623 
L 50.485358 -36.793841 
L 52.313941 -36.966429 
L 54.13601 -37.078655 
L 55.947513 -37.126466 
L 57.752108 -37.304111 
L 59.56302 -37.645391 
L 61.39881 -38.051947 
L 63.273555 -38.411459 
L 65.187047 -38.531028 
L 67.136579 -38.710468 
L 69.130057 -38.868829 
L 71.176491 -38.931664 
L 73.279411 -39.104766 
L 75.443842 -39.666028 
L 77.660101 -40.22928 
L 79.898471 -40.483014 
L 82.118951 -40.870609 
L 84.29198 -41.499668 
L 86.407364 -41.510021 
L 88.470403 -41.504518 
L 90.4865 -41.691272 
L 92.467215 -42.078532 
L 94.422151 -42.266801 
L 96.351454 -42.568656 
L 98.254516 -42.584043 
L 100.140199 -42.051219 
L 102.019654 -42.466865 
L 103.901959 -42.949868 
L 105.790661 -43.097501 
L 107.687369 -43.568362 
L 109.596647 -43.55676 
L 111.522849 -43.912711 
L 113.468964 -44.300856 
L 115.436759 -44.59792 
L 117.425805 -44.564334 
L 119.433687 -45.023311 
L 121.456436 -45.195522 
L 123.490225 -45.510424 
L 125.533922 -41.539783 
L 127.585543 -45.541341 
L 129.639119 -45.564939 
L 131.687324 -45.502817 
L 133.724189 -45.754558 
L 135.746592 -46.03161 
L 137.753154 -46.05044 
L 139.741875 -46.246879 
L 139.741875 -51.190234 
L 139.741875 -51.190234 
L 137.753154 -50.939186 
L 135.746592 -50.904137 
L 133.724189 -50.562995 
L 131.687324 -50.280774 
L 129.639119 -50.316869 
L 127.585543 -50.277918 
L 125.533922 -46.238402 
L 123.490225 -50.194983 
L 121.456436 -49.874951 
L 119.433687 -49.720476 
L 117.425805 -49.219567 
L 115.436759 -49.216223 
L 113.468964 -48.864339 
L 111.522849 -48.426454 
L 109.596647 -48.023555 
L 107.687369 -47.991514 
L 105.790661 -47.480912 
L 103.901959 -47.329955 
L 102.019654 -46.835465 
L 100.140199 -46.408946 
L 98.254516 -46.938941 
L 96.351454 -46.991446 
L 94.422151 -46.680774 
L 92.467215 -46.462117 
L 90.4865 -46.039657 
L 88.470403 -45.850852 
L 86.407364 -45.82918 
L 84.29198 -45.80224 
L 82.118951 -45.148451 
L 79.898471 -44.704299 
L 77.660101 -44.432104 
L 75.443842 -43.869099 
L 73.279411 -43.285813 
L 71.176491 -43.097038 
L 69.130057 -43.014723 
L 67.136579 -42.832685 
L 65.187047 -42.607805 
L 63.273555 -42.449839 
L 61.39881 -42.070588 
L 59.56302 -41.647937 
L 57.752108 -41.301595 
L 55.947513 -41.107284 
L 54.13601 -41.020504 
L 52.313941 -40.838065 
L 50.485358 -40.572416 
L 48.65475 -40.402848 
L 46.829905 -40.12751 
L 45.018092 -39.657812 
L 43.219315 -39.040896 
L 41.436131 -39.438064 
L 39.681804 -39.334864 
L 37.973113 -38.987332 
L 36.322324 -38.737236 
L 34.734331 -38.430388 
L 33.207102 -38.900992 
L 31.73702 -38.114821 
L 30.317239 -38.006447 
z
" id="m97ea5af661" style="stroke:#ffffff;stroke-width:0.25;"/>
    </defs>
    <g clip-path="url(#p7cccb0bb8a)">
     <use style="fill:#738fc1;stroke:#ffffff;stroke-width:0.25;" x="0" xlink:href="#m97ea5af661" y="142.23375"/>
    </g>
   </g>
   <g id="PolyCollection_4">
    <defs>
     <path d="M 30.317239 -50.96985 
L 30.317239 -38.006447 
L 31.73702 -38.114821 
L 33.207102 -38.900992 
L 34.734331 -38.430388 
L 36.322324 -38.737236 
L 37.973113 -38.987332 
L 39.681804 -39.334864 
L 41.436131 -39.438064 
L 43.219315 -39.040896 
L 45.018092 -39.657812 
L 46.829905 -40.12751 
L 48.65475 -40.402848 
L 50.485358 -40.572416 
L 52.313941 -40.838065 
L 54.13601 -41.020504 
L 55.947513 -41.107284 
L 57.752108 -41.301595 
L 59.56302 -41.647937 
L 61.39881 -42.070588 
L 63.273555 -42.449839 
L 65.187047 -42.607805 
L 67.136579 -42.832685 
L 69.130057 -43.014723 
L 71.176491 -43.097038 
L 73.279411 -43.285813 
L 75.443842 -43.869099 
L 77.660101 -44.432104 
L 79.898471 -44.704299 
L 82.118951 -45.148451 
L 84.29198 -45.80224 
L 86.407364 -45.82918 
L 88.470403 -45.850852 
L 90.4865 -46.039657 
L 92.467215 -46.462117 
L 94.422151 -46.680774 
L 96.351454 -46.991446 
L 98.254516 -46.938941 
L 100.140199 -46.408946 
L 102.019654 -46.835465 
L 103.901959 -47.329955 
L 105.790661 -47.480912 
L 107.687369 -47.991514 
L 109.596647 -48.023555 
L 111.522849 -48.426454 
L 113.468964 -48.864339 
L 115.436759 -49.216223 
L 117.425805 -49.219567 
L 119.433687 -49.720476 
L 121.456436 -49.874951 
L 123.490225 -50.194983 
L 125.533922 -46.238402 
L 127.585543 -50.277918 
L 129.639119 -50.316869 
L 131.687324 -50.280774 
L 133.724189 -50.562995 
L 135.746592 -50.904137 
L 137.753154 -50.939186 
L 139.741875 -51.190234 
L 139.741875 -129.856607 
L 139.741875 -129.856607 
L 137.753154 -127.964452 
L 135.746592 -126.649182 
L 133.724189 -122.498677 
L 131.687324 -120.358399 
L 129.639119 -119.846251 
L 127.585543 -118.268202 
L 125.533922 -112.43857 
L 123.490225 -117.371903 
L 121.456436 -115.313628 
L 119.433687 -112.666674 
L 117.425805 -109.945306 
L 115.436759 -107.591645 
L 113.468964 -106.014673 
L 111.522849 -103.981154 
L 109.596647 -101.708845 
L 107.687369 -101.478157 
L 105.790661 -97.103072 
L 103.901959 -95.084404 
L 102.019654 -92.107177 
L 100.140199 -90.016566 
L 98.254516 -93.784477 
L 96.351454 -91.751274 
L 94.422151 -89.206094 
L 92.467215 -87.925502 
L 90.4865 -85.671745 
L 88.470403 -83.820782 
L 86.407364 -82.516574 
L 84.29198 -81.043222 
L 82.118951 -79.169797 
L 79.898471 -77.659513 
L 77.660101 -76.153732 
L 75.443842 -73.929594 
L 73.279411 -71.8699 
L 71.176491 -70.555064 
L 69.130057 -69.42402 
L 67.136579 -68.543191 
L 65.187047 -67.540952 
L 63.273555 -66.403035 
L 61.39881 -65.046133 
L 59.56302 -63.507363 
L 57.752108 -62.070465 
L 55.947513 -61.22122 
L 54.13601 -60.575848 
L 52.313941 -60.097065 
L 50.485358 -59.361637 
L 48.65475 -58.782238 
L 46.829905 -57.983518 
L 45.018092 -56.945047 
L 43.219315 -55.593817 
L 41.436131 -55.442584 
L 39.681804 -54.819548 
L 37.973113 -53.739074 
L 36.322324 -53.170574 
L 34.734331 -52.470668 
L 33.207102 -52.715332 
L 31.73702 -51.549542 
L 30.317239 -50.96985 
z
" id="m62a3654ed5" style="stroke:#ffffff;stroke-width:0.25;"/>
    </defs>
    <g clip-path="url(#p7cccb0bb8a)">
     <use style="fill:#7aa974;stroke:#ffffff;stroke-width:0.25;" x="0" xlink:href="#m62a3654ed5" y="142.23375"/>
    </g>
   </g>
   <g id="patch_3">
    <path d="M 28.141875 115.92 
L 28.141875 7.2 
" style="fill:none;stroke:#ffffff;stroke-linecap:square;stroke-linejoin:miter;stroke-width:0.8;"/>
   </g>
   <g id="patch_4">
    <path d="M 139.741875 115.92 
L 139.741875 7.2 
" style="fill:none;stroke:#ffffff;stroke-linecap:square;stroke-linejoin:miter;stroke-width:0.8;"/>
   </g>
   <g id="patch_5">
    <path d="M 28.141875 115.92 
L 139.741875 115.92 
" style="fill:none;stroke:#ffffff;stroke-linecap:square;stroke-linejoin:miter;stroke-width:0.8;"/>
   </g>
   <g id="patch_6">
    <path d="M 28.141875 7.2 
L 139.741875 7.2 
" style="fill:none;stroke:#ffffff;stroke-linecap:square;stroke-linejoin:miter;stroke-width:0.8;"/>
   </g>
  </g>
 </g>
 <defs>
  <clipPath id="p7cccb0bb8a">
   <rect height="108.72" width="111.6" x="28.141875" y="7.2"/>
  </clipPath>
 </defs>
</svg>
