<?xml version="1.0" encoding="utf-8" standalone="no"?>
<!DOCTYPE svg PUBLIC "-//W3C//DTD SVG 1.1//EN"
  "http://www.w3.org/Graphics/SVG/1.1/DTD/svg11.dtd">
<!-- Created with matplotlib (https://matplotlib.org/) -->
<svg height="142.185pt" version="1.1" viewBox="0 0 146.870625 142.185" width="146.870625pt" xmlns="http://www.w3.org/2000/svg" xmlns:xlink="http://www.w3.org/1999/xlink">
 <metadata>
  <rdf:RDF xmlns:cc="http://creativecommons.org/ns#" xmlns:dc="http://purl.org/dc/elements/1.1/" xmlns:rdf="http://www.w3.org/1999/02/22-rdf-syntax-ns#">
   <cc:Work>
    <dc:type rdf:resource="http://purl.org/dc/dcmitype/StillImage"/>
    <dc:date>2021-07-12T19:53:26.324259</dc:date>
    <dc:format>image/svg+xml</dc:format>
    <dc:creator>
     <cc:Agent>
      <dc:title>Matplotlib v3.3.4, https://matplotlib.org/</dc:title>
     </cc:Agent>
    </dc:creator>
   </cc:Work>
  </rdf:RDF>
 </metadata>
 <defs>
  <style type="text/css">*{stroke-linecap:butt;stroke-linejoin:round;}</style>
 </defs>
 <g id="figure_1">
  <g id="patch_1">
   <path d="M 0 142.185 
L 146.870625 142.185 
L 146.870625 0 
L 0 0 
z
" style="fill:#ffffff;"/>
  </g>
  <g id="axes_1">
   <g id="patch_2">
    <path d="M 28.070625 115.92 
L 139.670625 115.92 
L 139.670625 7.2 
L 28.070625 7.2 
z
" style="fill:#e3dcd0;"/>
   </g>
   <g id="matplotlib.axis_1">
    <g id="xtick_1">
     <g id="text_1">
      <!-- 3 -->
      <g transform="translate(26.173594 124.045625)scale(0.06 -0.06)">
       <defs>
        <path d="M 10.15625 0.53125 
L 10.15625 9.515625 
Q 20.453125 5.421875 26.375 5.421875 
Q 33.34375 5.421875 37.671875 9.421875 
Q 42 13.421875 42 19.875 
Q 42 35.109375 20.65625 35.109375 
L 16.84375 35.109375 
L 16.84375 41.609375 
L 20.21875 41.65625 
Q 40.234375 41.65625 40.234375 55.765625 
Q 40.234375 66.84375 26.953125 66.84375 
Q 19.828125 66.84375 11.140625 62.796875 
L 11.140625 71.1875 
Q 19.671875 74.078125 27.59375 74.078125 
Q 38.375 74.078125 44.140625 69.78125 
Q 49.90625 65.484375 49.90625 57.328125 
Q 49.90625 44.578125 34.8125 39.15625 
Q 52.296875 35.109375 52.296875 20.015625 
Q 52.296875 9.8125 45.546875 4 
Q 38.8125 -1.8125 27.046875 -1.8125 
Q 20.359375 -1.8125 10.15625 0.53125 
z
" id="LucidaSansUnicode-51"/>
       </defs>
       <use xlink:href="#LucidaSansUnicode-51"/>
      </g>
     </g>
    </g>
    <g id="xtick_2">
     <g id="text_2">
      <!-- 4 -->
      <g transform="translate(50.262597 124.045625)scale(0.06 -0.06)">
       <defs>
        <path d="M 37.640625 0 
L 37.640625 20.453125 
L 5.125 20.453125 
L 5.125 27.734375 
L 37.640625 72.265625 
L 46.6875 72.265625 
L 46.6875 28.328125 
L 56.34375 28.328125 
L 56.34375 20.453125 
L 46.6875 20.453125 
L 46.6875 0 
z
M 14.546875 28.328125 
L 38.28125 28.328125 
L 38.28125 60.453125 
z
" id="LucidaSansUnicode-52"/>
       </defs>
       <use xlink:href="#LucidaSansUnicode-52"/>
      </g>
     </g>
    </g>
    <g id="xtick_3">
     <g id="text_3">
      <!-- 5 -->
      <g transform="translate(74.3516 124.045625)scale(0.06 -0.06)">
       <defs>
        <path d="M 12.15625 -0.296875 
L 12.15625 8.296875 
Q 19.34375 5.421875 25.828125 5.421875 
Q 32.953125 5.421875 37.03125 9.609375 
Q 41.109375 13.8125 41.109375 21.1875 
Q 41.109375 29.109375 35.34375 33.28125 
Q 29.59375 37.453125 18.703125 37.453125 
Q 16.15625 37.453125 13.375 37.109375 
L 13.375 72.265625 
L 49.953125 72.265625 
L 49.953125 63.875 
L 21.828125 63.875 
L 21.828125 44.828125 
Q 35.75 44.828125 43.5625 38.421875 
Q 51.375 32.03125 51.375 20.703125 
Q 51.375 10.15625 44.265625 4.171875 
Q 37.15625 -1.8125 24.65625 -1.8125 
Q 19.09375 -1.8125 12.15625 -0.296875 
z
" id="LucidaSansUnicode-53"/>
       </defs>
       <use xlink:href="#LucidaSansUnicode-53"/>
      </g>
     </g>
    </g>
    <g id="xtick_4">
     <g id="text_4">
      <!-- 6 -->
      <g transform="translate(98.440604 124.045625)scale(0.06 -0.06)">
       <defs>
        <path d="M 17.1875 37.453125 
Q 24.078125 46.390625 34.515625 46.390625 
Q 44 46.390625 50.03125 40.109375 
Q 56.0625 33.84375 56.0625 24.03125 
Q 56.0625 12.75 49.296875 5.46875 
Q 42.53125 -1.8125 32.078125 -1.8125 
Q 20.171875 -1.8125 13.421875 7.828125 
Q 6.6875 17.484375 6.6875 34.515625 
Q 6.6875 57.46875 18.453125 68.21875 
Q 24.859375 74.125 36.140625 74.125 
Q 42.671875 74.125 52.34375 71.390625 
L 52.34375 62.984375 
Q 42.140625 66.890625 35.546875 66.890625 
Q 17.1875 66.890625 17.1875 37.453125 
z
M 46.390625 22.125 
Q 46.390625 30.125 42.671875 34.78125 
Q 38.96875 39.453125 32.515625 39.453125 
Q 26.375 39.453125 21.96875 35.34375 
Q 17.578125 31.25 17.578125 25.484375 
Q 17.578125 16.40625 21.75 10.90625 
Q 25.921875 5.421875 32.8125 5.421875 
Q 39.0625 5.421875 42.71875 9.90625 
Q 46.390625 14.40625 46.390625 22.125 
z
" id="LucidaSansUnicode-54"/>
       </defs>
       <use xlink:href="#LucidaSansUnicode-54"/>
      </g>
     </g>
    </g>
    <g id="xtick_5">
     <g id="text_5">
      <!-- 7 -->
      <g transform="translate(122.529607 124.045625)scale(0.06 -0.06)">
       <defs>
        <path d="M 15.046875 0 
Q 16.453125 8.453125 19.0625 14.59375 
Q 21.6875 20.75 28.328125 31.5 
L 48.046875 63.234375 
L 10.84375 63.234375 
L 10.84375 72.265625 
L 57.234375 72.265625 
L 57.234375 63.234375 
Q 29.4375 22.265625 26.125 0 
z
" id="LucidaSansUnicode-55"/>
       </defs>
       <use xlink:href="#LucidaSansUnicode-55"/>
      </g>
     </g>
    </g>
    <g id="text_6">
     <!-- population [billion] -->
     <g style="fill:#262626;" transform="translate(56.210625 133.828125)scale(0.06 -0.06)">
      <defs>
       <path d="M 9.625 -19.28125 
L 9.625 53.03125 
L 19.234375 53.03125 
L 19.234375 43.0625 
Q 25.140625 54.203125 36.96875 54.203125 
Q 46.53125 54.203125 52.015625 47.21875 
Q 57.515625 40.234375 57.515625 28.125 
Q 57.515625 14.9375 51.28125 6.859375 
Q 45.0625 -1.21875 34.90625 -1.21875 
Q 25.484375 -1.21875 19.234375 6 
L 19.234375 -19.28125 
z
M 19.234375 12.640625 
Q 26.65625 6 33.40625 6 
Q 40.046875 6 43.65625 11.546875 
Q 47.265625 17.09375 47.265625 27.15625 
Q 47.265625 45.796875 34.96875 45.796875 
Q 26.90625 45.796875 19.234375 37.0625 
z
" id="LucidaSansUnicode-112"/>
       <path d="M 30.71875 -1.21875 
Q 19.046875 -1.21875 12.234375 6.25 
Q 5.421875 13.71875 5.421875 26.515625 
Q 5.421875 39.3125 12.234375 46.75 
Q 19.046875 54.203125 30.71875 54.203125 
Q 42.390625 54.203125 49.1875 46.75 
Q 56 39.3125 56 26.515625 
Q 56 13.71875 49.1875 6.25 
Q 42.390625 -1.21875 30.71875 -1.21875 
z
M 30.71875 6 
Q 37.890625 6 41.84375 11.375 
Q 45.796875 16.75 45.796875 26.515625 
Q 45.796875 36.28125 41.84375 41.625 
Q 37.890625 46.96875 30.71875 46.96875 
Q 23.53125 46.96875 19.59375 41.625 
Q 15.671875 36.28125 15.671875 26.515625 
Q 15.671875 16.75 19.59375 11.375 
Q 23.53125 6 30.71875 6 
z
" id="LucidaSansUnicode-111"/>
       <path d="M 42.78125 0 
L 42.78125 9.96875 
Q 35.109375 -1.21875 24.171875 -1.21875 
Q 17.234375 -1.21875 13.125 3.140625 
Q 9.03125 7.515625 9.03125 14.9375 
L 9.03125 53.03125 
L 18.65625 53.03125 
L 18.65625 18.0625 
Q 18.65625 12.109375 20.390625 9.59375 
Q 22.125 7.078125 26.171875 7.078125 
Q 34.96875 7.078125 42.78125 18.65625 
L 42.78125 53.03125 
L 52.390625 53.03125 
L 52.390625 0 
z
" id="LucidaSansUnicode-117"/>
       <path d="M 9.625 0 
L 9.625 77.09375 
L 19.234375 77.09375 
L 19.234375 0 
z
" id="LucidaSansUnicode-108"/>
       <path d="M 36.96875 6.734375 
Q 28.328125 -1.21875 20.3125 -1.21875 
Q 13.71875 -1.21875 9.375 2.90625 
Q 5.03125 7.03125 5.03125 13.328125 
Q 5.03125 22.015625 12.328125 26.671875 
Q 19.625 31.34375 33.296875 31.34375 
L 35.546875 31.34375 
L 35.546875 37.75 
Q 35.546875 46.96875 25.921875 46.96875 
Q 18.453125 46.96875 9.625 42.28125 
L 9.625 50.25 
Q 19.34375 54.203125 27.9375 54.203125 
Q 36.765625 54.203125 40.96875 50.171875 
Q 45.171875 46.140625 45.171875 37.75 
L 45.171875 13.71875 
Q 45.171875 5.46875 50.25 5.46875 
Q 50.875 5.46875 52.09375 5.671875 
L 52.78125 0.34375 
Q 49.515625 -1.21875 45.5625 -1.21875 
Q 38.8125 -1.21875 36.96875 6.734375 
z
M 35.546875 11.96875 
L 35.546875 25.6875 
L 32.46875 25.78125 
Q 24.46875 25.78125 19.5625 22.796875 
Q 14.65625 19.828125 14.65625 14.890625 
Q 14.65625 11.421875 17.09375 9.03125 
Q 19.53125 6.640625 23.046875 6.640625 
Q 29.046875 6.640625 35.546875 11.96875 
z
" id="LucidaSansUnicode-97"/>
       <path d="M 33.25 0 
Q 28.8125 -1.21875 25.53125 -1.21875 
Q 18.21875 -1.21875 14.109375 2.96875 
Q 10.015625 7.171875 10.015625 14.65625 
L 10.015625 45.796875 
L 3.375 45.796875 
L 3.375 53.03125 
L 10.015625 53.03125 
L 10.015625 62.640625 
L 19.625 63.578125 
L 19.625 53.03125 
L 33.5 53.03125 
L 33.5 45.796875 
L 19.625 45.796875 
L 19.625 16.40625 
Q 19.625 6 28.609375 6 
Q 30.515625 6 33.25 6.640625 
z
" id="LucidaSansUnicode-116"/>
       <path d="M 9.625 0 
L 9.625 53.03125 
L 19.234375 53.03125 
L 19.234375 0 
z
M 9.625 62.640625 
L 9.625 72.265625 
L 19.234375 72.265625 
L 19.234375 62.640625 
z
" id="LucidaSansUnicode-105"/>
       <path d="M 9.625 0 
L 9.625 53.03125 
L 19.234375 53.03125 
L 19.234375 43.0625 
Q 26.859375 54.203125 37.890625 54.203125 
Q 44.828125 54.203125 48.90625 49.828125 
Q 52.984375 45.453125 52.984375 38.09375 
L 52.984375 0 
L 43.359375 0 
L 43.359375 34.96875 
Q 43.359375 40.875 41.625 43.390625 
Q 39.890625 45.90625 35.890625 45.90625 
Q 27.046875 45.90625 19.234375 34.328125 
L 19.234375 0 
z
" id="LucidaSansUnicode-110"/>
       <path id="LucidaSansUnicode-32"/>
       <path d="M 9.625 -14.453125 
L 9.625 77.09375 
L 28.90625 77.09375 
L 28.90625 69.875 
L 18.0625 69.875 
L 18.0625 -7.234375 
L 28.90625 -7.234375 
L 28.90625 -14.453125 
z
" id="LucidaSansUnicode-91"/>
       <path d="M 9.625 -0.59375 
L 9.625 77.09375 
L 19.234375 77.09375 
L 19.234375 43.0625 
Q 25.140625 54.203125 36.96875 54.203125 
Q 46.53125 54.203125 52.015625 47.21875 
Q 57.515625 40.234375 57.515625 28.125 
Q 57.515625 14.9375 51.28125 6.859375 
Q 45.0625 -1.21875 34.90625 -1.21875 
Q 25.484375 -1.21875 19.234375 6 
L 18.0625 -0.59375 
z
M 19.234375 12.640625 
Q 26.65625 6 33.40625 6 
Q 40.046875 6 43.65625 11.546875 
Q 47.265625 17.09375 47.265625 27.15625 
Q 47.265625 45.796875 34.96875 45.796875 
Q 26.90625 45.796875 19.234375 37.0625 
z
" id="LucidaSansUnicode-98"/>
       <path d="M 22.90625 77.09375 
L 22.90625 -14.453125 
L 3.609375 -14.453125 
L 3.609375 -7.234375 
L 14.453125 -7.234375 
L 14.453125 69.875 
L 3.609375 69.875 
L 3.609375 77.09375 
z
" id="LucidaSansUnicode-93"/>
      </defs>
      <use xlink:href="#LucidaSansUnicode-112"/>
      <use x="62.939453" xlink:href="#LucidaSansUnicode-111"/>
      <use x="124.365234" xlink:href="#LucidaSansUnicode-112"/>
      <use x="187.304688" xlink:href="#LucidaSansUnicode-117"/>
      <use x="249.365234" xlink:href="#LucidaSansUnicode-108"/>
      <use x="278.271484" xlink:href="#LucidaSansUnicode-97"/>
      <use x="333.496094" xlink:href="#LucidaSansUnicode-116"/>
      <use x="370.898438" xlink:href="#LucidaSansUnicode-105"/>
      <use x="399.804688" xlink:href="#LucidaSansUnicode-111"/>
      <use x="461.230469" xlink:href="#LucidaSansUnicode-110"/>
      <use x="523.291016" xlink:href="#LucidaSansUnicode-32"/>
      <use x="554.931641" xlink:href="#LucidaSansUnicode-91"/>
      <use x="587.451172" xlink:href="#LucidaSansUnicode-98"/>
      <use x="650.390625" xlink:href="#LucidaSansUnicode-105"/>
      <use x="679.296875" xlink:href="#LucidaSansUnicode-108"/>
      <use x="708.203125" xlink:href="#LucidaSansUnicode-108"/>
      <use x="737.109375" xlink:href="#LucidaSansUnicode-105"/>
      <use x="766.015625" xlink:href="#LucidaSansUnicode-111"/>
      <use x="827.441406" xlink:href="#LucidaSansUnicode-110"/>
      <use x="889.501953" xlink:href="#LucidaSansUnicode-93"/>
     </g>
    </g>
   </g>
   <g id="matplotlib.axis_2">
    <g id="ytick_1">
     <g id="text_7">
      <!-- 0 -->
      <g transform="translate(20.776563 118.232812)scale(0.06 -0.06)">
       <defs>
        <path d="M 31.640625 -1.8125 
Q 20.265625 -1.8125 13.296875 8.609375 
Q 6.34375 19.046875 6.34375 36.140625 
Q 6.34375 53.21875 13.296875 63.640625 
Q 20.265625 74.078125 31.640625 74.078125 
Q 43.0625 74.078125 50 63.671875 
Q 56.9375 53.265625 56.9375 36.140625 
Q 56.9375 19.046875 50 8.609375 
Q 43.0625 -1.8125 31.640625 -1.8125 
z
M 31.640625 5.421875 
Q 46.734375 5.421875 46.734375 36.140625 
Q 46.734375 66.84375 31.640625 66.84375 
Q 16.609375 66.84375 16.609375 36.140625 
Q 16.609375 5.421875 31.640625 5.421875 
z
" id="LucidaSansUnicode-48"/>
       </defs>
       <use xlink:href="#LucidaSansUnicode-48"/>
      </g>
     </g>
    </g>
    <g id="ytick_2">
     <g id="text_8">
      <!-- 5 -->
      <g transform="translate(20.776563 101.641526)scale(0.06 -0.06)">
       <use xlink:href="#LucidaSansUnicode-53"/>
      </g>
     </g>
    </g>
    <g id="ytick_3">
     <g id="text_9">
      <!-- 10 -->
      <g transform="translate(16.9825 85.050239)scale(0.06 -0.06)">
       <defs>
        <path d="M 26.171875 0 
L 26.171875 65.046875 
L 14.75 65.046875 
L 14.75 71.09375 
L 35.84375 72.90625 
L 35.84375 0 
z
" id="LucidaSansUnicode-49"/>
       </defs>
       <use xlink:href="#LucidaSansUnicode-49"/>
       <use x="63.232422" xlink:href="#LucidaSansUnicode-48"/>
      </g>
     </g>
    </g>
    <g id="ytick_4">
     <g id="text_10">
      <!-- 15 -->
      <g transform="translate(16.9825 68.458952)scale(0.06 -0.06)">
       <use xlink:href="#LucidaSansUnicode-49"/>
       <use x="63.232422" xlink:href="#LucidaSansUnicode-53"/>
      </g>
     </g>
    </g>
    <g id="ytick_5">
     <g id="text_11">
      <!-- 20 -->
      <g transform="translate(16.9825 51.867665)scale(0.06 -0.06)">
       <defs>
        <path d="M 8.296875 0 
L 8.296875 8.453125 
Q 12.5 18.265625 25.296875 29.828125 
L 30.8125 34.765625 
Q 41.453125 44.390625 41.453125 53.859375 
Q 41.453125 59.90625 37.8125 63.375 
Q 34.1875 66.84375 27.78125 66.84375 
Q 20.3125 66.84375 10.109375 61.03125 
L 10.109375 69.53125 
Q 19.734375 74.078125 29.25 74.078125 
Q 39.40625 74.078125 45.53125 68.609375 
Q 51.65625 63.140625 51.65625 54.109375 
Q 51.65625 47.609375 48.546875 42.578125 
Q 45.453125 37.546875 37.015625 30.375 
L 33.296875 27.203125 
Q 21.734375 17.390625 19.921875 8.453125 
L 51.3125 8.453125 
L 51.3125 0 
z
" id="LucidaSansUnicode-50"/>
       </defs>
       <use xlink:href="#LucidaSansUnicode-50"/>
       <use x="63.232422" xlink:href="#LucidaSansUnicode-48"/>
      </g>
     </g>
    </g>
    <g id="ytick_6">
     <g id="text_12">
      <!-- 25 -->
      <g transform="translate(16.9825 35.276378)scale(0.06 -0.06)">
       <use xlink:href="#LucidaSansUnicode-50"/>
       <use x="63.232422" xlink:href="#LucidaSansUnicode-53"/>
      </g>
     </g>
    </g>
    <g id="ytick_7">
     <g id="text_13">
      <!-- 30 -->
      <g transform="translate(16.9825 18.685091)scale(0.06 -0.06)">
       <use xlink:href="#LucidaSansUnicode-51"/>
       <use x="63.232422" xlink:href="#LucidaSansUnicode-48"/>
      </g>
     </g>
    </g>
    <g id="text_14">
     <!-- livestock population [million] -->
     <g style="fill:#262626;" transform="translate(11.825625 103.825312)rotate(-90)scale(0.06 -0.06)">
      <defs>
       <path d="M 20.609375 0 
L 0.875 53.03125 
L 10.5 53.03125 
L 25.921875 11.765625 
L 42.1875 53.03125 
L 51.171875 53.03125 
L 30.21875 0 
z
" id="LucidaSansUnicode-118"/>
       <path d="M 48.484375 1.703125 
Q 38.8125 -1.21875 31.9375 -1.21875 
Q 20.171875 -1.21875 12.796875 6.5625 
Q 5.421875 14.359375 5.421875 26.765625 
Q 5.421875 38.8125 11.9375 46.53125 
Q 18.453125 54.25 28.609375 54.25 
Q 38.234375 54.25 43.484375 47.390625 
Q 48.734375 40.53125 48.734375 27.9375 
L 48.6875 25 
L 15.234375 25 
Q 17.328125 6.109375 33.734375 6.109375 
Q 39.75 6.109375 48.484375 9.328125 
z
M 15.671875 32.234375 
L 39.0625 32.234375 
Q 39.0625 47.015625 28.03125 47.015625 
Q 16.9375 47.015625 15.671875 32.234375 
z
" id="LucidaSansUnicode-101"/>
       <path d="M 7.671875 1.859375 
L 7.671875 10.6875 
Q 17.09375 6 24.078125 6 
Q 28.21875 6 30.953125 8.25 
Q 33.6875 10.5 33.6875 13.875 
Q 33.6875 18.796875 26.03125 22.015625 
L 20.40625 24.421875 
Q 7.953125 29.59375 7.953125 39.3125 
Q 7.953125 46.234375 12.859375 50.21875 
Q 17.78125 54.203125 26.3125 54.203125 
Q 30.765625 54.203125 37.3125 52.984375 
L 39.3125 52.59375 
L 39.3125 44.578125 
Q 31.25 46.96875 26.46875 46.96875 
Q 22.265625 46.96875 19.75 45.140625 
Q 17.234375 43.3125 17.234375 40.234375 
Q 17.234375 35.890625 24.265625 32.90625 
L 28.90625 30.953125 
Q 36.765625 27.640625 40.03125 23.953125 
Q 43.3125 20.265625 43.3125 14.75 
Q 43.3125 7.765625 37.796875 3.265625 
Q 32.28125 -1.21875 23.6875 -1.21875 
Q 17.09375 -1.21875 7.671875 1.859375 
z
" id="LucidaSansUnicode-115"/>
       <path d="M 46.4375 1.609375 
Q 37.109375 -1.21875 30.328125 -1.21875 
Q 19.578125 -1.21875 12.5 6.734375 
Q 5.421875 14.703125 5.421875 26.8125 
Q 5.421875 39.75 12.421875 46.96875 
Q 19.4375 54.203125 31.984375 54.203125 
Q 38.1875 54.203125 45.84375 52.484375 
L 45.84375 44.4375 
Q 37.703125 46.828125 32.5625 46.828125 
Q 25.140625 46.828125 20.703125 41.28125 
Q 16.265625 35.75 16.265625 26.515625 
Q 16.265625 17.578125 20.84375 12.0625 
Q 25.4375 6.546875 32.859375 6.546875 
Q 39.453125 6.546875 46.4375 9.90625 
z
" id="LucidaSansUnicode-99"/>
       <path d="M 9.625 0 
L 9.625 77.09375 
L 19.234375 77.09375 
L 19.234375 27.296875 
L 41.703125 53.03125 
L 52.046875 53.03125 
L 30.609375 28.265625 
L 56.5 0 
L 44.1875 0 
L 19.234375 27.203125 
L 19.234375 0 
z
" id="LucidaSansUnicode-107"/>
       <path d="M 9.625 0 
L 9.625 53.03125 
L 19.234375 53.03125 
L 19.234375 43.0625 
Q 26.265625 54.203125 37.3125 54.203125 
Q 47.953125 54.203125 51.8125 43.0625 
Q 58.640625 54.25 69.578125 54.25 
Q 76.5625 54.25 80.4375 50.125 
Q 84.328125 46 84.328125 38.578125 
L 84.328125 0 
L 74.65625 0 
L 74.65625 37.0625 
Q 74.65625 46.140625 67.484375 46.140625 
Q 60.015625 46.140625 51.8125 35.546875 
L 51.8125 0 
L 42.140625 0 
L 42.140625 37.0625 
Q 42.140625 46.1875 34.8125 46.1875 
Q 27.546875 46.1875 19.234375 35.546875 
L 19.234375 0 
z
" id="LucidaSansUnicode-109"/>
      </defs>
      <use xlink:href="#LucidaSansUnicode-108"/>
      <use x="28.90625" xlink:href="#LucidaSansUnicode-105"/>
      <use x="57.8125" xlink:href="#LucidaSansUnicode-118"/>
      <use x="109.570312" xlink:href="#LucidaSansUnicode-101"/>
      <use x="165.283203" xlink:href="#LucidaSansUnicode-115"/>
      <use x="216.259766" xlink:href="#LucidaSansUnicode-116"/>
      <use x="253.662109" xlink:href="#LucidaSansUnicode-111"/>
      <use x="315.087891" xlink:href="#LucidaSansUnicode-99"/>
      <use x="366.308594" xlink:href="#LucidaSansUnicode-107"/>
      <use x="424.755859" xlink:href="#LucidaSansUnicode-32"/>
      <use x="456.396484" xlink:href="#LucidaSansUnicode-112"/>
      <use x="519.335938" xlink:href="#LucidaSansUnicode-111"/>
      <use x="580.761719" xlink:href="#LucidaSansUnicode-112"/>
      <use x="643.701172" xlink:href="#LucidaSansUnicode-117"/>
      <use x="705.761719" xlink:href="#LucidaSansUnicode-108"/>
      <use x="734.667969" xlink:href="#LucidaSansUnicode-97"/>
      <use x="789.892578" xlink:href="#LucidaSansUnicode-116"/>
      <use x="827.294922" xlink:href="#LucidaSansUnicode-105"/>
      <use x="856.201172" xlink:href="#LucidaSansUnicode-111"/>
      <use x="917.626953" xlink:href="#LucidaSansUnicode-110"/>
      <use x="979.6875" xlink:href="#LucidaSansUnicode-32"/>
      <use x="1011.328125" xlink:href="#LucidaSansUnicode-91"/>
      <use x="1043.847656" xlink:href="#LucidaSansUnicode-109"/>
      <use x="1137.207031" xlink:href="#LucidaSansUnicode-105"/>
      <use x="1166.113281" xlink:href="#LucidaSansUnicode-108"/>
      <use x="1195.019531" xlink:href="#LucidaSansUnicode-108"/>
      <use x="1223.925781" xlink:href="#LucidaSansUnicode-105"/>
      <use x="1252.832031" xlink:href="#LucidaSansUnicode-111"/>
      <use x="1314.257812" xlink:href="#LucidaSansUnicode-110"/>
      <use x="1376.318359" xlink:href="#LucidaSansUnicode-93"/>
     </g>
    </g>
   </g>
   <g id="PolyCollection_1">
    <defs>
     <path d="M 30.245989 -33.483506 
L 30.245989 -26.265 
L 31.66577 -26.265 
L 33.135852 -26.265 
L 34.663081 -26.265 
L 36.251074 -26.265 
L 37.901863 -26.265 
L 39.610554 -26.265 
L 41.364881 -26.265 
L 43.148065 -26.265 
L 44.946842 -26.265 
L 46.758655 -26.265 
L 48.5835 -26.265 
L 50.414108 -26.265 
L 52.242691 -26.265 
L 54.06476 -26.265 
L 55.876263 -26.265 
L 57.680858 -26.265 
L 59.49177 -26.265 
L 61.32756 -26.265 
L 63.202305 -26.265 
L 65.115797 -26.265 
L 67.065329 -26.265 
L 69.058807 -26.265 
L 71.105241 -26.265 
L 73.208161 -26.265 
L 75.372592 -26.265 
L 77.588851 -26.265 
L 79.827221 -26.265 
L 82.047701 -26.265 
L 84.22073 -26.265 
L 86.336114 -26.265 
L 88.399153 -26.265 
L 90.41525 -26.265 
L 92.395965 -26.265 
L 94.350901 -26.265 
L 96.280204 -26.265 
L 98.183266 -26.265 
L 100.068949 -26.265 
L 101.948404 -26.265 
L 103.830709 -26.265 
L 105.719411 -26.265 
L 107.616119 -26.265 
L 109.525397 -26.265 
L 111.451599 -26.265 
L 113.397714 -26.265 
L 115.365509 -26.265 
L 117.354555 -26.265 
L 119.362437 -26.265 
L 121.385186 -26.265 
L 123.418975 -26.265 
L 125.462672 -26.265 
L 127.514293 -26.265 
L 129.567869 -26.265 
L 131.616074 -26.265 
L 133.652939 -26.265 
L 135.675342 -26.265 
L 137.681904 -26.265 
L 139.670625 -26.265 
L 139.670625 -42.951771 
L 139.670625 -42.951771 
L 137.681904 -42.781194 
L 135.675342 -42.714964 
L 133.652939 -42.416357 
L 131.616074 -42.170149 
L 129.567869 -42.266687 
L 127.514293 -42.227879 
L 125.462672 -38.25961 
L 123.418975 -42.236484 
L 121.385186 -41.93457 
L 119.362437 -41.859591 
L 117.354555 -41.465075 
L 115.365509 -41.479523 
L 113.397714 -41.250862 
L 111.451599 -40.901089 
L 109.525397 -40.526193 
L 107.616119 -40.558288 
L 105.719411 -40.122229 
L 103.830709 -39.918916 
L 101.948404 -39.464034 
L 100.068949 -39.114834 
L 98.183266 -39.764989 
L 96.280204 -39.499852 
L 94.350901 -39.244167 
L 92.395965 -39.099707 
L 90.41525 -38.738269 
L 88.399153 -38.567733 
L 86.336114 -38.578557 
L 84.22073 -38.632419 
L 82.047701 -38.020548 
L 79.827221 -37.681761 
L 77.588851 -37.407031 
L 75.372592 -36.8778 
L 73.208161 -36.423086 
L 71.105241 -36.267587 
L 69.058807 -36.243454 
L 67.065329 -36.108539 
L 65.115797 -35.891958 
L 63.202305 -35.715478 
L 61.32756 -35.464873 
L 59.49177 -35.149588 
L 57.680858 -34.895269 
L 55.876263 -34.813432 
L 54.06476 -34.75474 
L 52.242691 -34.636062 
L 50.414108 -34.474962 
L 48.5835 -34.419501 
L 46.758655 -34.387759 
L 44.946842 -34.204044 
L 43.148065 -33.657943 
L 41.364881 -34.041353 
L 39.610554 -33.985619 
L 37.901863 -33.834501 
L 36.251074 -33.693404 
L 34.663081 -33.581319 
L 33.135852 -34.146144 
L 31.66577 -33.486433 
L 30.245989 -33.483506 
z
" id="m5bce4a23c9" style="stroke:#ffffff;stroke-width:0.25;"/>
    </defs>
    <g clip-path="url(#pde0655babb)">
     <use style="fill:#808080;stroke:#ffffff;stroke-width:0.25;" x="0" xlink:href="#m5bce4a23c9" y="142.185"/>
    </g>
   </g>
   <g id="PolyCollection_2">
    <defs>
     <path d="M 30.245989 -34.831317 
L 30.245989 -33.483506 
L 31.66577 -33.486433 
L 33.135852 -34.146144 
L 34.663081 -33.581319 
L 36.251074 -33.693404 
L 37.901863 -33.834501 
L 39.610554 -33.985619 
L 41.364881 -34.041353 
L 43.148065 -33.657943 
L 44.946842 -34.204044 
L 46.758655 -34.387759 
L 48.5835 -34.419501 
L 50.414108 -34.474962 
L 52.242691 -34.636062 
L 54.06476 -34.75474 
L 55.876263 -34.813432 
L 57.680858 -34.895269 
L 59.49177 -35.149588 
L 61.32756 -35.464873 
L 63.202305 -35.715478 
L 65.115797 -35.891958 
L 67.065329 -36.108539 
L 69.058807 -36.243454 
L 71.105241 -36.267587 
L 73.208161 -36.423086 
L 75.372592 -36.8778 
L 77.588851 -37.407031 
L 79.827221 -37.681761 
L 82.047701 -38.020548 
L 84.22073 -38.632419 
L 86.336114 -38.578557 
L 88.399153 -38.567733 
L 90.41525 -38.738269 
L 92.395965 -39.099707 
L 94.350901 -39.244167 
L 96.280204 -39.499852 
L 98.183266 -39.764989 
L 100.068949 -39.114834 
L 101.948404 -39.464034 
L 103.830709 -39.918916 
L 105.719411 -40.122229 
L 107.616119 -40.558288 
L 109.525397 -40.526193 
L 111.451599 -40.901089 
L 113.397714 -41.250862 
L 115.365509 -41.479523 
L 117.354555 -41.465075 
L 119.362437 -41.859591 
L 121.385186 -41.93457 
L 123.418975 -42.236484 
L 125.462672 -38.25961 
L 127.514293 -42.227879 
L 129.567869 -42.266687 
L 131.616074 -42.170149 
L 133.652939 -42.416357 
L 135.675342 -42.714964 
L 137.681904 -42.781194 
L 139.670625 -42.951771 
L 139.670625 -46.198129 
L 139.670625 -46.198129 
L 137.681904 -46.00169 
L 135.675342 -45.98286 
L 133.652939 -45.705808 
L 131.616074 -45.454067 
L 129.567869 -45.516189 
L 127.514293 -45.492591 
L 125.462672 -41.491033 
L 123.418975 -45.461674 
L 121.385186 -45.146772 
L 119.362437 -44.974561 
L 117.354555 -44.515584 
L 115.365509 -44.54917 
L 113.397714 -44.252106 
L 111.451599 -43.863961 
L 109.525397 -43.50801 
L 107.616119 -43.519612 
L 105.719411 -43.048751 
L 103.830709 -42.901118 
L 101.948404 -42.418115 
L 100.068949 -42.002469 
L 98.183266 -42.535293 
L 96.280204 -42.519906 
L 94.350901 -42.218051 
L 92.395965 -42.029782 
L 90.41525 -41.642522 
L 88.399153 -41.455768 
L 86.336114 -41.461271 
L 84.22073 -41.450918 
L 82.047701 -40.821859 
L 79.827221 -40.434264 
L 77.588851 -40.18053 
L 75.372592 -39.617278 
L 73.208161 -39.056016 
L 71.105241 -38.882914 
L 69.058807 -38.820079 
L 67.065329 -38.661718 
L 65.115797 -38.482278 
L 63.202305 -38.362709 
L 61.32756 -38.003197 
L 59.49177 -37.596641 
L 57.680858 -37.255361 
L 55.876263 -37.077716 
L 54.06476 -37.029905 
L 52.242691 -36.917679 
L 50.414108 -36.745091 
L 48.5835 -36.639873 
L 46.758655 -36.439805 
L 44.946842 -36.019897 
L 43.148065 -35.441983 
L 41.364881 -35.856471 
L 39.610554 -35.802664 
L 37.901863 -35.52824 
L 36.251074 -35.340668 
L 34.663081 -35.104609 
L 33.135852 -35.632262 
L 31.66577 -34.889926 
L 30.245989 -34.831317 
z
" id="mcb69df83c4" style="stroke:#ffffff;stroke-width:0.25;"/>
    </defs>
    <g clip-path="url(#pde0655babb)">
     <use style="fill:#e8b19d;stroke:#ffffff;stroke-width:0.25;" x="0" xlink:href="#mcb69df83c4" y="142.185"/>
    </g>
   </g>
   <g id="PolyCollection_3">
    <defs>
     <path d="M 30.245989 -37.957697 
L 30.245989 -34.831317 
L 31.66577 -34.889926 
L 33.135852 -35.632262 
L 34.663081 -35.104609 
L 36.251074 -35.340668 
L 37.901863 -35.52824 
L 39.610554 -35.802664 
L 41.364881 -35.856471 
L 43.148065 -35.441983 
L 44.946842 -36.019897 
L 46.758655 -36.439805 
L 48.5835 -36.639873 
L 50.414108 -36.745091 
L 52.242691 -36.917679 
L 54.06476 -37.029905 
L 55.876263 -37.077716 
L 57.680858 -37.255361 
L 59.49177 -37.596641 
L 61.32756 -38.003197 
L 63.202305 -38.362709 
L 65.115797 -38.482278 
L 67.065329 -38.661718 
L 69.058807 -38.820079 
L 71.105241 -38.882914 
L 73.208161 -39.056016 
L 75.372592 -39.617278 
L 77.588851 -40.18053 
L 79.827221 -40.434264 
L 82.047701 -40.821859 
L 84.22073 -41.450918 
L 86.336114 -41.461271 
L 88.399153 -41.455768 
L 90.41525 -41.642522 
L 92.395965 -42.029782 
L 94.350901 -42.218051 
L 96.280204 -42.519906 
L 98.183266 -42.535293 
L 100.068949 -42.002469 
L 101.948404 -42.418115 
L 103.830709 -42.901118 
L 105.719411 -43.048751 
L 107.616119 -43.519612 
L 109.525397 -43.50801 
L 111.451599 -43.863961 
L 113.397714 -44.252106 
L 115.365509 -44.54917 
L 117.354555 -44.515584 
L 119.362437 -44.974561 
L 121.385186 -45.146772 
L 123.418975 -45.461674 
L 125.462672 -41.491033 
L 127.514293 -45.492591 
L 129.567869 -45.516189 
L 131.616074 -45.454067 
L 133.652939 -45.705808 
L 135.675342 -45.98286 
L 137.681904 -46.00169 
L 139.670625 -46.198129 
L 139.670625 -51.141484 
L 139.670625 -51.141484 
L 137.681904 -50.890436 
L 135.675342 -50.855387 
L 133.652939 -50.514245 
L 131.616074 -50.232024 
L 129.567869 -50.268119 
L 127.514293 -50.229168 
L 125.462672 -46.189652 
L 123.418975 -50.146233 
L 121.385186 -49.826201 
L 119.362437 -49.671726 
L 117.354555 -49.170817 
L 115.365509 -49.167473 
L 113.397714 -48.815589 
L 111.451599 -48.377704 
L 109.525397 -47.974805 
L 107.616119 -47.942764 
L 105.719411 -47.432162 
L 103.830709 -47.281205 
L 101.948404 -46.786715 
L 100.068949 -46.360196 
L 98.183266 -46.890191 
L 96.280204 -46.942696 
L 94.350901 -46.632024 
L 92.395965 -46.413367 
L 90.41525 -45.990907 
L 88.399153 -45.802102 
L 86.336114 -45.78043 
L 84.22073 -45.75349 
L 82.047701 -45.099701 
L 79.827221 -44.655549 
L 77.588851 -44.383354 
L 75.372592 -43.820349 
L 73.208161 -43.237063 
L 71.105241 -43.048288 
L 69.058807 -42.965973 
L 67.065329 -42.783935 
L 65.115797 -42.559055 
L 63.202305 -42.401089 
L 61.32756 -42.021838 
L 59.49177 -41.599187 
L 57.680858 -41.252845 
L 55.876263 -41.058534 
L 54.06476 -40.971754 
L 52.242691 -40.789315 
L 50.414108 -40.523666 
L 48.5835 -40.354098 
L 46.758655 -40.07876 
L 44.946842 -39.609062 
L 43.148065 -38.992146 
L 41.364881 -39.389314 
L 39.610554 -39.286114 
L 37.901863 -38.938582 
L 36.251074 -38.688486 
L 34.663081 -38.381638 
L 33.135852 -38.852242 
L 31.66577 -38.066071 
L 30.245989 -37.957697 
z
" id="mfb6a6826e0" style="stroke:#ffffff;stroke-width:0.25;"/>
    </defs>
    <g clip-path="url(#pde0655babb)">
     <use style="fill:#738fc1;stroke:#ffffff;stroke-width:0.25;" x="0" xlink:href="#mfb6a6826e0" y="142.185"/>
    </g>
   </g>
   <g id="PolyCollection_4">
    <defs>
     <path d="M 30.245989 -50.9211 
L 30.245989 -37.957697 
L 31.66577 -38.066071 
L 33.135852 -38.852242 
L 34.663081 -38.381638 
L 36.251074 -38.688486 
L 37.901863 -38.938582 
L 39.610554 -39.286114 
L 41.364881 -39.389314 
L 43.148065 -38.992146 
L 44.946842 -39.609062 
L 46.758655 -40.07876 
L 48.5835 -40.354098 
L 50.414108 -40.523666 
L 52.242691 -40.789315 
L 54.06476 -40.971754 
L 55.876263 -41.058534 
L 57.680858 -41.252845 
L 59.49177 -41.599187 
L 61.32756 -42.021838 
L 63.202305 -42.401089 
L 65.115797 -42.559055 
L 67.065329 -42.783935 
L 69.058807 -42.965973 
L 71.105241 -43.048288 
L 73.208161 -43.237063 
L 75.372592 -43.820349 
L 77.588851 -44.383354 
L 79.827221 -44.655549 
L 82.047701 -45.099701 
L 84.22073 -45.75349 
L 86.336114 -45.78043 
L 88.399153 -45.802102 
L 90.41525 -45.990907 
L 92.395965 -46.413367 
L 94.350901 -46.632024 
L 96.280204 -46.942696 
L 98.183266 -46.890191 
L 100.068949 -46.360196 
L 101.948404 -46.786715 
L 103.830709 -47.281205 
L 105.719411 -47.432162 
L 107.616119 -47.942764 
L 109.525397 -47.974805 
L 111.451599 -48.377704 
L 113.397714 -48.815589 
L 115.365509 -49.167473 
L 117.354555 -49.170817 
L 119.362437 -49.671726 
L 121.385186 -49.826201 
L 123.418975 -50.146233 
L 125.462672 -46.189652 
L 127.514293 -50.229168 
L 129.567869 -50.268119 
L 131.616074 -50.232024 
L 133.652939 -50.514245 
L 135.675342 -50.855387 
L 137.681904 -50.890436 
L 139.670625 -51.141484 
L 139.670625 -129.807857 
L 139.670625 -129.807857 
L 137.681904 -127.915702 
L 135.675342 -126.600432 
L 133.652939 -122.449927 
L 131.616074 -120.309649 
L 129.567869 -119.797501 
L 127.514293 -118.219452 
L 125.462672 -112.38982 
L 123.418975 -117.323153 
L 121.385186 -115.264878 
L 119.362437 -112.617924 
L 117.354555 -109.896556 
L 115.365509 -107.542895 
L 113.397714 -105.965923 
L 111.451599 -103.932404 
L 109.525397 -101.660095 
L 107.616119 -101.429407 
L 105.719411 -97.054322 
L 103.830709 -95.035654 
L 101.948404 -92.058427 
L 100.068949 -89.967816 
L 98.183266 -93.735727 
L 96.280204 -91.702524 
L 94.350901 -89.157344 
L 92.395965 -87.876752 
L 90.41525 -85.622995 
L 88.399153 -83.772032 
L 86.336114 -82.467824 
L 84.22073 -80.994472 
L 82.047701 -79.121047 
L 79.827221 -77.610763 
L 77.588851 -76.104982 
L 75.372592 -73.880844 
L 73.208161 -71.82115 
L 71.105241 -70.506314 
L 69.058807 -69.37527 
L 67.065329 -68.494441 
L 65.115797 -67.492202 
L 63.202305 -66.354285 
L 61.32756 -64.997383 
L 59.49177 -63.458613 
L 57.680858 -62.021715 
L 55.876263 -61.17247 
L 54.06476 -60.527098 
L 52.242691 -60.048315 
L 50.414108 -59.312887 
L 48.5835 -58.733488 
L 46.758655 -57.934768 
L 44.946842 -56.896297 
L 43.148065 -55.545067 
L 41.364881 -55.393834 
L 39.610554 -54.770798 
L 37.901863 -53.690324 
L 36.251074 -53.121824 
L 34.663081 -52.421918 
L 33.135852 -52.666582 
L 31.66577 -51.500792 
L 30.245989 -50.9211 
z
" id="mfd1041edc8" style="stroke:#ffffff;stroke-width:0.25;"/>
    </defs>
    <g clip-path="url(#pde0655babb)">
     <use style="fill:#7aa974;stroke:#ffffff;stroke-width:0.25;" x="0" xlink:href="#mfd1041edc8" y="142.185"/>
    </g>
   </g>
   <g id="patch_3">
    <path d="M 28.070625 115.92 
L 28.070625 7.2 
" style="fill:none;stroke:#ffffff;stroke-linecap:square;stroke-linejoin:miter;stroke-width:0.8;"/>
   </g>
   <g id="patch_4">
    <path d="M 139.670625 115.92 
L 139.670625 7.2 
" style="fill:none;stroke:#ffffff;stroke-linecap:square;stroke-linejoin:miter;stroke-width:0.8;"/>
   </g>
   <g id="patch_5">
    <path d="M 28.070625 115.92 
L 139.670625 115.92 
" style="fill:none;stroke:#ffffff;stroke-linecap:square;stroke-linejoin:miter;stroke-width:0.8;"/>
   </g>
   <g id="patch_6">
    <path d="M 28.070625 7.2 
L 139.670625 7.2 
" style="fill:none;stroke:#ffffff;stroke-linecap:square;stroke-linejoin:miter;stroke-width:0.8;"/>
   </g>
  </g>
 </g>
 <defs>
  <clipPath id="pde0655babb">
   <rect height="108.72" width="111.6" x="28.070625" y="7.2"/>
  </clipPath>
 </defs>
</svg>
