<?xml version="1.0" encoding="utf-8" standalone="no"?>
<!DOCTYPE svg PUBLIC "-//W3C//DTD SVG 1.1//EN"
  "http://www.w3.org/Graphics/SVG/1.1/DTD/svg11.dtd">
<!-- Created with matplotlib (https://matplotlib.org/) -->
<svg height="146.49375pt" version="1.1" viewBox="0 0 147.435 146.49375" width="147.435pt" xmlns="http://www.w3.org/2000/svg" xmlns:xlink="http://www.w3.org/1999/xlink">
 <metadata>
  <rdf:RDF xmlns:cc="http://creativecommons.org/ns#" xmlns:dc="http://purl.org/dc/elements/1.1/" xmlns:rdf="http://www.w3.org/1999/02/22-rdf-syntax-ns#">
   <cc:Work>
    <dc:type rdf:resource="http://purl.org/dc/dcmitype/StillImage"/>
    <dc:date>2021-09-21T15:37:43.035819</dc:date>
    <dc:format>image/svg+xml</dc:format>
    <dc:creator>
     <cc:Agent>
      <dc:title>Matplotlib v3.3.4, https://matplotlib.org/</dc:title>
     </cc:Agent>
    </dc:creator>
   </cc:Work>
  </rdf:RDF>
 </metadata>
 <defs>
  <style type="text/css">*{stroke-linecap:butt;stroke-linejoin:round;}</style>
 </defs>
 <g id="figure_1">
  <g id="patch_1">
   <path d="M 0 146.49375 
L 147.435 146.49375 
L 147.435 0 
L 0 0 
z
" style="fill:#ffffff;"/>
  </g>
  <g id="axes_1">
   <g id="patch_2">
    <path d="M 28.635 120.18 
L 140.235 120.18 
L 140.235 11.46 
L 28.635 11.46 
z
" style="fill:#e3dcd0;"/>
   </g>
   <g id="matplotlib.axis_1">
    <g id="xtick_1">
     <g id="text_1">
      <!-- 3 -->
      <g transform="translate(26.72625 128.239062)scale(0.06 -0.06)">
       <defs>
        <path d="M 40.578125 39.3125 
Q 47.65625 37.796875 51.625 33 
Q 55.609375 28.21875 55.609375 21.1875 
Q 55.609375 10.40625 48.1875 4.484375 
Q 40.765625 -1.421875 27.09375 -1.421875 
Q 22.515625 -1.421875 17.65625 -0.515625 
Q 12.796875 0.390625 7.625 2.203125 
L 7.625 11.71875 
Q 11.71875 9.328125 16.59375 8.109375 
Q 21.484375 6.890625 26.8125 6.890625 
Q 36.078125 6.890625 40.9375 10.546875 
Q 45.796875 14.203125 45.796875 21.1875 
Q 45.796875 27.640625 41.28125 31.265625 
Q 36.765625 34.90625 28.71875 34.90625 
L 20.21875 34.90625 
L 20.21875 43.015625 
L 29.109375 43.015625 
Q 36.375 43.015625 40.234375 45.921875 
Q 44.09375 48.828125 44.09375 54.296875 
Q 44.09375 59.90625 40.109375 62.90625 
Q 36.140625 65.921875 28.71875 65.921875 
Q 24.65625 65.921875 20.015625 65.03125 
Q 15.375 64.15625 9.8125 62.3125 
L 9.8125 71.09375 
Q 15.4375 72.65625 20.34375 73.4375 
Q 25.25 74.21875 29.59375 74.21875 
Q 40.828125 74.21875 47.359375 69.109375 
Q 53.90625 64.015625 53.90625 55.328125 
Q 53.90625 49.265625 50.4375 45.09375 
Q 46.96875 40.921875 40.578125 39.3125 
z
" id="DejaVuSans-51"/>
       </defs>
       <use xlink:href="#DejaVuSans-51"/>
      </g>
     </g>
    </g>
    <g id="xtick_2">
     <g id="text_2">
      <!-- 4 -->
      <g transform="translate(50.815253 128.239062)scale(0.06 -0.06)">
       <defs>
        <path d="M 37.796875 64.3125 
L 12.890625 25.390625 
L 37.796875 25.390625 
z
M 35.203125 72.90625 
L 47.609375 72.90625 
L 47.609375 25.390625 
L 58.015625 25.390625 
L 58.015625 17.1875 
L 47.609375 17.1875 
L 47.609375 0 
L 37.796875 0 
L 37.796875 17.1875 
L 4.890625 17.1875 
L 4.890625 26.703125 
z
" id="DejaVuSans-52"/>
       </defs>
       <use xlink:href="#DejaVuSans-52"/>
      </g>
     </g>
    </g>
    <g id="xtick_3">
     <g id="text_3">
      <!-- 5 -->
      <g transform="translate(74.904257 128.239062)scale(0.06 -0.06)">
       <defs>
        <path d="M 10.796875 72.90625 
L 49.515625 72.90625 
L 49.515625 64.59375 
L 19.828125 64.59375 
L 19.828125 46.734375 
Q 21.96875 47.46875 24.109375 47.828125 
Q 26.265625 48.1875 28.421875 48.1875 
Q 40.625 48.1875 47.75 41.5 
Q 54.890625 34.8125 54.890625 23.390625 
Q 54.890625 11.625 47.5625 5.09375 
Q 40.234375 -1.421875 26.90625 -1.421875 
Q 22.3125 -1.421875 17.546875 -0.640625 
Q 12.796875 0.140625 7.71875 1.703125 
L 7.71875 11.625 
Q 12.109375 9.234375 16.796875 8.0625 
Q 21.484375 6.890625 26.703125 6.890625 
Q 35.15625 6.890625 40.078125 11.328125 
Q 45.015625 15.765625 45.015625 23.390625 
Q 45.015625 31 40.078125 35.4375 
Q 35.15625 39.890625 26.703125 39.890625 
Q 22.75 39.890625 18.8125 39.015625 
Q 14.890625 38.140625 10.796875 36.28125 
z
" id="DejaVuSans-53"/>
       </defs>
       <use xlink:href="#DejaVuSans-53"/>
      </g>
     </g>
    </g>
    <g id="xtick_4">
     <g id="text_4">
      <!-- 6 -->
      <g transform="translate(98.99326 128.239062)scale(0.06 -0.06)">
       <defs>
        <path d="M 33.015625 40.375 
Q 26.375 40.375 22.484375 35.828125 
Q 18.609375 31.296875 18.609375 23.390625 
Q 18.609375 15.53125 22.484375 10.953125 
Q 26.375 6.390625 33.015625 6.390625 
Q 39.65625 6.390625 43.53125 10.953125 
Q 47.40625 15.53125 47.40625 23.390625 
Q 47.40625 31.296875 43.53125 35.828125 
Q 39.65625 40.375 33.015625 40.375 
z
M 52.59375 71.296875 
L 52.59375 62.3125 
Q 48.875 64.0625 45.09375 64.984375 
Q 41.3125 65.921875 37.59375 65.921875 
Q 27.828125 65.921875 22.671875 59.328125 
Q 17.53125 52.734375 16.796875 39.40625 
Q 19.671875 43.65625 24.015625 45.921875 
Q 28.375 48.1875 33.59375 48.1875 
Q 44.578125 48.1875 50.953125 41.515625 
Q 57.328125 34.859375 57.328125 23.390625 
Q 57.328125 12.15625 50.6875 5.359375 
Q 44.046875 -1.421875 33.015625 -1.421875 
Q 20.359375 -1.421875 13.671875 8.265625 
Q 6.984375 17.96875 6.984375 36.375 
Q 6.984375 53.65625 15.1875 63.9375 
Q 23.390625 74.21875 37.203125 74.21875 
Q 40.921875 74.21875 44.703125 73.484375 
Q 48.484375 72.75 52.59375 71.296875 
z
" id="DejaVuSans-54"/>
       </defs>
       <use xlink:href="#DejaVuSans-54"/>
      </g>
     </g>
    </g>
    <g id="xtick_5">
     <g id="text_5">
      <!-- 7 -->
      <g transform="translate(123.082263 128.239062)scale(0.06 -0.06)">
       <defs>
        <path d="M 8.203125 72.90625 
L 55.078125 72.90625 
L 55.078125 68.703125 
L 28.609375 0 
L 18.3125 0 
L 43.21875 64.59375 
L 8.203125 64.59375 
z
" id="DejaVuSans-55"/>
       </defs>
       <use xlink:href="#DejaVuSans-55"/>
      </g>
     </g>
    </g>
    <g id="text_6">
     <!-- human population [billion] -->
     <g style="fill:#262626;" transform="translate(44.783438 138.045937)scale(0.06 -0.06)">
      <defs>
       <path d="M 54.890625 33.015625 
L 54.890625 0 
L 45.90625 0 
L 45.90625 32.71875 
Q 45.90625 40.484375 42.875 44.328125 
Q 39.84375 48.1875 33.796875 48.1875 
Q 26.515625 48.1875 22.3125 43.546875 
Q 18.109375 38.921875 18.109375 30.90625 
L 18.109375 0 
L 9.078125 0 
L 9.078125 75.984375 
L 18.109375 75.984375 
L 18.109375 46.1875 
Q 21.34375 51.125 25.703125 53.5625 
Q 30.078125 56 35.796875 56 
Q 45.21875 56 50.046875 50.171875 
Q 54.890625 44.34375 54.890625 33.015625 
z
" id="DejaVuSans-104"/>
       <path d="M 8.5 21.578125 
L 8.5 54.6875 
L 17.484375 54.6875 
L 17.484375 21.921875 
Q 17.484375 14.15625 20.5 10.265625 
Q 23.53125 6.390625 29.59375 6.390625 
Q 36.859375 6.390625 41.078125 11.03125 
Q 45.3125 15.671875 45.3125 23.6875 
L 45.3125 54.6875 
L 54.296875 54.6875 
L 54.296875 0 
L 45.3125 0 
L 45.3125 8.40625 
Q 42.046875 3.421875 37.71875 1 
Q 33.40625 -1.421875 27.6875 -1.421875 
Q 18.265625 -1.421875 13.375 4.4375 
Q 8.5 10.296875 8.5 21.578125 
z
M 31.109375 56 
z
" id="DejaVuSans-117"/>
       <path d="M 52 44.1875 
Q 55.375 50.25 60.0625 53.125 
Q 64.75 56 71.09375 56 
Q 79.640625 56 84.28125 50.015625 
Q 88.921875 44.046875 88.921875 33.015625 
L 88.921875 0 
L 79.890625 0 
L 79.890625 32.71875 
Q 79.890625 40.578125 77.09375 44.375 
Q 74.3125 48.1875 68.609375 48.1875 
Q 61.625 48.1875 57.5625 43.546875 
Q 53.515625 38.921875 53.515625 30.90625 
L 53.515625 0 
L 44.484375 0 
L 44.484375 32.71875 
Q 44.484375 40.625 41.703125 44.40625 
Q 38.921875 48.1875 33.109375 48.1875 
Q 26.21875 48.1875 22.15625 43.53125 
Q 18.109375 38.875 18.109375 30.90625 
L 18.109375 0 
L 9.078125 0 
L 9.078125 54.6875 
L 18.109375 54.6875 
L 18.109375 46.1875 
Q 21.1875 51.21875 25.484375 53.609375 
Q 29.78125 56 35.6875 56 
Q 41.65625 56 45.828125 52.96875 
Q 50 49.953125 52 44.1875 
z
" id="DejaVuSans-109"/>
       <path d="M 34.28125 27.484375 
Q 23.390625 27.484375 19.1875 25 
Q 14.984375 22.515625 14.984375 16.5 
Q 14.984375 11.71875 18.140625 8.90625 
Q 21.296875 6.109375 26.703125 6.109375 
Q 34.1875 6.109375 38.703125 11.40625 
Q 43.21875 16.703125 43.21875 25.484375 
L 43.21875 27.484375 
z
M 52.203125 31.203125 
L 52.203125 0 
L 43.21875 0 
L 43.21875 8.296875 
Q 40.140625 3.328125 35.546875 0.953125 
Q 30.953125 -1.421875 24.3125 -1.421875 
Q 15.921875 -1.421875 10.953125 3.296875 
Q 6 8.015625 6 15.921875 
Q 6 25.140625 12.171875 29.828125 
Q 18.359375 34.515625 30.609375 34.515625 
L 43.21875 34.515625 
L 43.21875 35.40625 
Q 43.21875 41.609375 39.140625 45 
Q 35.0625 48.390625 27.6875 48.390625 
Q 23 48.390625 18.546875 47.265625 
Q 14.109375 46.140625 10.015625 43.890625 
L 10.015625 52.203125 
Q 14.9375 54.109375 19.578125 55.046875 
Q 24.21875 56 28.609375 56 
Q 40.484375 56 46.34375 49.84375 
Q 52.203125 43.703125 52.203125 31.203125 
z
" id="DejaVuSans-97"/>
       <path d="M 54.890625 33.015625 
L 54.890625 0 
L 45.90625 0 
L 45.90625 32.71875 
Q 45.90625 40.484375 42.875 44.328125 
Q 39.84375 48.1875 33.796875 48.1875 
Q 26.515625 48.1875 22.3125 43.546875 
Q 18.109375 38.921875 18.109375 30.90625 
L 18.109375 0 
L 9.078125 0 
L 9.078125 54.6875 
L 18.109375 54.6875 
L 18.109375 46.1875 
Q 21.34375 51.125 25.703125 53.5625 
Q 30.078125 56 35.796875 56 
Q 45.21875 56 50.046875 50.171875 
Q 54.890625 44.34375 54.890625 33.015625 
z
" id="DejaVuSans-110"/>
       <path id="DejaVuSans-32"/>
       <path d="M 18.109375 8.203125 
L 18.109375 -20.796875 
L 9.078125 -20.796875 
L 9.078125 54.6875 
L 18.109375 54.6875 
L 18.109375 46.390625 
Q 20.953125 51.265625 25.265625 53.625 
Q 29.59375 56 35.59375 56 
Q 45.5625 56 51.78125 48.09375 
Q 58.015625 40.1875 58.015625 27.296875 
Q 58.015625 14.40625 51.78125 6.484375 
Q 45.5625 -1.421875 35.59375 -1.421875 
Q 29.59375 -1.421875 25.265625 0.953125 
Q 20.953125 3.328125 18.109375 8.203125 
z
M 48.6875 27.296875 
Q 48.6875 37.203125 44.609375 42.84375 
Q 40.53125 48.484375 33.40625 48.484375 
Q 26.265625 48.484375 22.1875 42.84375 
Q 18.109375 37.203125 18.109375 27.296875 
Q 18.109375 17.390625 22.1875 11.75 
Q 26.265625 6.109375 33.40625 6.109375 
Q 40.53125 6.109375 44.609375 11.75 
Q 48.6875 17.390625 48.6875 27.296875 
z
" id="DejaVuSans-112"/>
       <path d="M 30.609375 48.390625 
Q 23.390625 48.390625 19.1875 42.75 
Q 14.984375 37.109375 14.984375 27.296875 
Q 14.984375 17.484375 19.15625 11.84375 
Q 23.34375 6.203125 30.609375 6.203125 
Q 37.796875 6.203125 41.984375 11.859375 
Q 46.1875 17.53125 46.1875 27.296875 
Q 46.1875 37.015625 41.984375 42.703125 
Q 37.796875 48.390625 30.609375 48.390625 
z
M 30.609375 56 
Q 42.328125 56 49.015625 48.375 
Q 55.71875 40.765625 55.71875 27.296875 
Q 55.71875 13.875 49.015625 6.21875 
Q 42.328125 -1.421875 30.609375 -1.421875 
Q 18.84375 -1.421875 12.171875 6.21875 
Q 5.515625 13.875 5.515625 27.296875 
Q 5.515625 40.765625 12.171875 48.375 
Q 18.84375 56 30.609375 56 
z
" id="DejaVuSans-111"/>
       <path d="M 9.421875 75.984375 
L 18.40625 75.984375 
L 18.40625 0 
L 9.421875 0 
z
" id="DejaVuSans-108"/>
       <path d="M 18.3125 70.21875 
L 18.3125 54.6875 
L 36.8125 54.6875 
L 36.8125 47.703125 
L 18.3125 47.703125 
L 18.3125 18.015625 
Q 18.3125 11.328125 20.140625 9.421875 
Q 21.96875 7.515625 27.59375 7.515625 
L 36.8125 7.515625 
L 36.8125 0 
L 27.59375 0 
Q 17.1875 0 13.234375 3.875 
Q 9.28125 7.765625 9.28125 18.015625 
L 9.28125 47.703125 
L 2.6875 47.703125 
L 2.6875 54.6875 
L 9.28125 54.6875 
L 9.28125 70.21875 
z
" id="DejaVuSans-116"/>
       <path d="M 9.421875 54.6875 
L 18.40625 54.6875 
L 18.40625 0 
L 9.421875 0 
z
M 9.421875 75.984375 
L 18.40625 75.984375 
L 18.40625 64.59375 
L 9.421875 64.59375 
z
" id="DejaVuSans-105"/>
       <path d="M 8.59375 75.984375 
L 29.296875 75.984375 
L 29.296875 69 
L 17.578125 69 
L 17.578125 -6.203125 
L 29.296875 -6.203125 
L 29.296875 -13.1875 
L 8.59375 -13.1875 
z
" id="DejaVuSans-91"/>
       <path d="M 48.6875 27.296875 
Q 48.6875 37.203125 44.609375 42.84375 
Q 40.53125 48.484375 33.40625 48.484375 
Q 26.265625 48.484375 22.1875 42.84375 
Q 18.109375 37.203125 18.109375 27.296875 
Q 18.109375 17.390625 22.1875 11.75 
Q 26.265625 6.109375 33.40625 6.109375 
Q 40.53125 6.109375 44.609375 11.75 
Q 48.6875 17.390625 48.6875 27.296875 
z
M 18.109375 46.390625 
Q 20.953125 51.265625 25.265625 53.625 
Q 29.59375 56 35.59375 56 
Q 45.5625 56 51.78125 48.09375 
Q 58.015625 40.1875 58.015625 27.296875 
Q 58.015625 14.40625 51.78125 6.484375 
Q 45.5625 -1.421875 35.59375 -1.421875 
Q 29.59375 -1.421875 25.265625 0.953125 
Q 20.953125 3.328125 18.109375 8.203125 
L 18.109375 0 
L 9.078125 0 
L 9.078125 75.984375 
L 18.109375 75.984375 
z
" id="DejaVuSans-98"/>
       <path d="M 30.421875 75.984375 
L 30.421875 -13.1875 
L 9.71875 -13.1875 
L 9.71875 -6.203125 
L 21.390625 -6.203125 
L 21.390625 69 
L 9.71875 69 
L 9.71875 75.984375 
z
" id="DejaVuSans-93"/>
      </defs>
      <use xlink:href="#DejaVuSans-104"/>
      <use x="63.378906" xlink:href="#DejaVuSans-117"/>
      <use x="126.757812" xlink:href="#DejaVuSans-109"/>
      <use x="224.169922" xlink:href="#DejaVuSans-97"/>
      <use x="285.449219" xlink:href="#DejaVuSans-110"/>
      <use x="348.828125" xlink:href="#DejaVuSans-32"/>
      <use x="380.615234" xlink:href="#DejaVuSans-112"/>
      <use x="444.091797" xlink:href="#DejaVuSans-111"/>
      <use x="505.273438" xlink:href="#DejaVuSans-112"/>
      <use x="568.75" xlink:href="#DejaVuSans-117"/>
      <use x="632.128906" xlink:href="#DejaVuSans-108"/>
      <use x="659.912109" xlink:href="#DejaVuSans-97"/>
      <use x="721.191406" xlink:href="#DejaVuSans-116"/>
      <use x="760.400391" xlink:href="#DejaVuSans-105"/>
      <use x="788.183594" xlink:href="#DejaVuSans-111"/>
      <use x="849.365234" xlink:href="#DejaVuSans-110"/>
      <use x="912.744141" xlink:href="#DejaVuSans-32"/>
      <use x="944.53125" xlink:href="#DejaVuSans-91"/>
      <use x="983.544922" xlink:href="#DejaVuSans-98"/>
      <use x="1047.021484" xlink:href="#DejaVuSans-105"/>
      <use x="1074.804688" xlink:href="#DejaVuSans-108"/>
      <use x="1102.587891" xlink:href="#DejaVuSans-108"/>
      <use x="1130.371094" xlink:href="#DejaVuSans-105"/>
      <use x="1158.154297" xlink:href="#DejaVuSans-111"/>
      <use x="1219.335938" xlink:href="#DejaVuSans-110"/>
      <use x="1282.714844" xlink:href="#DejaVuSans-93"/>
     </g>
    </g>
   </g>
   <g id="matplotlib.axis_2">
    <g id="ytick_1">
     <g id="text_7">
      <!-- 0 -->
      <g transform="translate(21.3175 122.459531)scale(0.06 -0.06)">
       <defs>
        <path d="M 31.78125 66.40625 
Q 24.171875 66.40625 20.328125 58.90625 
Q 16.5 51.421875 16.5 36.375 
Q 16.5 21.390625 20.328125 13.890625 
Q 24.171875 6.390625 31.78125 6.390625 
Q 39.453125 6.390625 43.28125 13.890625 
Q 47.125 21.390625 47.125 36.375 
Q 47.125 51.421875 43.28125 58.90625 
Q 39.453125 66.40625 31.78125 66.40625 
z
M 31.78125 74.21875 
Q 44.046875 74.21875 50.515625 64.515625 
Q 56.984375 54.828125 56.984375 36.375 
Q 56.984375 17.96875 50.515625 8.265625 
Q 44.046875 -1.421875 31.78125 -1.421875 
Q 19.53125 -1.421875 13.0625 8.265625 
Q 6.59375 17.96875 6.59375 36.375 
Q 6.59375 54.828125 13.0625 64.515625 
Q 19.53125 74.21875 31.78125 74.21875 
z
" id="DejaVuSans-48"/>
       </defs>
       <use xlink:href="#DejaVuSans-48"/>
      </g>
     </g>
    </g>
    <g id="ytick_2">
     <g id="text_8">
      <!-- 10 -->
      <g transform="translate(17.5 109.236241)scale(0.06 -0.06)">
       <defs>
        <path d="M 12.40625 8.296875 
L 28.515625 8.296875 
L 28.515625 63.921875 
L 10.984375 60.40625 
L 10.984375 69.390625 
L 28.421875 72.90625 
L 38.28125 72.90625 
L 38.28125 8.296875 
L 54.390625 8.296875 
L 54.390625 0 
L 12.40625 0 
z
" id="DejaVuSans-49"/>
       </defs>
       <use xlink:href="#DejaVuSans-49"/>
       <use x="63.623047" xlink:href="#DejaVuSans-48"/>
      </g>
     </g>
    </g>
    <g id="ytick_3">
     <g id="text_9">
      <!-- 20 -->
      <g transform="translate(17.5 96.012952)scale(0.06 -0.06)">
       <defs>
        <path d="M 19.1875 8.296875 
L 53.609375 8.296875 
L 53.609375 0 
L 7.328125 0 
L 7.328125 8.296875 
Q 12.9375 14.109375 22.625 23.890625 
Q 32.328125 33.6875 34.8125 36.53125 
Q 39.546875 41.84375 41.421875 45.53125 
Q 43.3125 49.21875 43.3125 52.78125 
Q 43.3125 58.59375 39.234375 62.25 
Q 35.15625 65.921875 28.609375 65.921875 
Q 23.96875 65.921875 18.8125 64.3125 
Q 13.671875 62.703125 7.8125 59.421875 
L 7.8125 69.390625 
Q 13.765625 71.78125 18.9375 73 
Q 24.125 74.21875 28.421875 74.21875 
Q 39.75 74.21875 46.484375 68.546875 
Q 53.21875 62.890625 53.21875 53.421875 
Q 53.21875 48.921875 51.53125 44.890625 
Q 49.859375 40.875 45.40625 35.40625 
Q 44.1875 33.984375 37.640625 27.21875 
Q 31.109375 20.453125 19.1875 8.296875 
z
" id="DejaVuSans-50"/>
       </defs>
       <use xlink:href="#DejaVuSans-50"/>
       <use x="63.623047" xlink:href="#DejaVuSans-48"/>
      </g>
     </g>
    </g>
    <g id="ytick_4">
     <g id="text_10">
      <!-- 30 -->
      <g transform="translate(17.5 82.789662)scale(0.06 -0.06)">
       <use xlink:href="#DejaVuSans-51"/>
       <use x="63.623047" xlink:href="#DejaVuSans-48"/>
      </g>
     </g>
    </g>
    <g id="ytick_5">
     <g id="text_11">
      <!-- 40 -->
      <g transform="translate(17.5 69.566372)scale(0.06 -0.06)">
       <use xlink:href="#DejaVuSans-52"/>
       <use x="63.623047" xlink:href="#DejaVuSans-48"/>
      </g>
     </g>
    </g>
    <g id="ytick_6">
     <g id="text_12">
      <!-- 50 -->
      <g transform="translate(17.5 56.343082)scale(0.06 -0.06)">
       <use xlink:href="#DejaVuSans-53"/>
       <use x="63.623047" xlink:href="#DejaVuSans-48"/>
      </g>
     </g>
    </g>
    <g id="ytick_7">
     <g id="text_13">
      <!-- 60 -->
      <g transform="translate(17.5 43.119792)scale(0.06 -0.06)">
       <use xlink:href="#DejaVuSans-54"/>
       <use x="63.623047" xlink:href="#DejaVuSans-48"/>
      </g>
     </g>
    </g>
    <g id="ytick_8">
     <g id="text_14">
      <!-- 70 -->
      <g transform="translate(17.5 29.896502)scale(0.06 -0.06)">
       <use xlink:href="#DejaVuSans-55"/>
       <use x="63.623047" xlink:href="#DejaVuSans-48"/>
      </g>
     </g>
    </g>
    <g id="ytick_9">
     <g id="text_15">
      <!-- 80 -->
      <g transform="translate(17.5 16.673213)scale(0.06 -0.06)">
       <defs>
        <path d="M 31.78125 34.625 
Q 24.75 34.625 20.71875 30.859375 
Q 16.703125 27.09375 16.703125 20.515625 
Q 16.703125 13.921875 20.71875 10.15625 
Q 24.75 6.390625 31.78125 6.390625 
Q 38.8125 6.390625 42.859375 10.171875 
Q 46.921875 13.96875 46.921875 20.515625 
Q 46.921875 27.09375 42.890625 30.859375 
Q 38.875 34.625 31.78125 34.625 
z
M 21.921875 38.8125 
Q 15.578125 40.375 12.03125 44.71875 
Q 8.5 49.078125 8.5 55.328125 
Q 8.5 64.0625 14.71875 69.140625 
Q 20.953125 74.21875 31.78125 74.21875 
Q 42.671875 74.21875 48.875 69.140625 
Q 55.078125 64.0625 55.078125 55.328125 
Q 55.078125 49.078125 51.53125 44.71875 
Q 48 40.375 41.703125 38.8125 
Q 48.828125 37.15625 52.796875 32.3125 
Q 56.78125 27.484375 56.78125 20.515625 
Q 56.78125 9.90625 50.3125 4.234375 
Q 43.84375 -1.421875 31.78125 -1.421875 
Q 19.734375 -1.421875 13.25 4.234375 
Q 6.78125 9.90625 6.78125 20.515625 
Q 6.78125 27.484375 10.78125 32.3125 
Q 14.796875 37.15625 21.921875 38.8125 
z
M 18.3125 54.390625 
Q 18.3125 48.734375 21.84375 45.5625 
Q 25.390625 42.390625 31.78125 42.390625 
Q 38.140625 42.390625 41.71875 45.5625 
Q 45.3125 48.734375 45.3125 54.390625 
Q 45.3125 60.0625 41.71875 63.234375 
Q 38.140625 66.40625 31.78125 66.40625 
Q 25.390625 66.40625 21.84375 63.234375 
Q 18.3125 60.0625 18.3125 54.390625 
z
" id="DejaVuSans-56"/>
       </defs>
       <use xlink:href="#DejaVuSans-56"/>
       <use x="63.623047" xlink:href="#DejaVuSans-48"/>
      </g>
     </g>
    </g>
    <g id="text_16">
     <!-- total producing population [billion yr$^{-1}$] -->
     <g style="fill:#262626;" transform="translate(12.24 124.44)rotate(-90)scale(0.06 -0.06)">
      <defs>
       <path d="M 41.109375 46.296875 
Q 39.59375 47.171875 37.8125 47.578125 
Q 36.03125 48 33.890625 48 
Q 26.265625 48 22.1875 43.046875 
Q 18.109375 38.09375 18.109375 28.8125 
L 18.109375 0 
L 9.078125 0 
L 9.078125 54.6875 
L 18.109375 54.6875 
L 18.109375 46.1875 
Q 20.953125 51.171875 25.484375 53.578125 
Q 30.03125 56 36.53125 56 
Q 37.453125 56 38.578125 55.875 
Q 39.703125 55.765625 41.0625 55.515625 
z
" id="DejaVuSans-114"/>
       <path d="M 45.40625 46.390625 
L 45.40625 75.984375 
L 54.390625 75.984375 
L 54.390625 0 
L 45.40625 0 
L 45.40625 8.203125 
Q 42.578125 3.328125 38.25 0.953125 
Q 33.9375 -1.421875 27.875 -1.421875 
Q 17.96875 -1.421875 11.734375 6.484375 
Q 5.515625 14.40625 5.515625 27.296875 
Q 5.515625 40.1875 11.734375 48.09375 
Q 17.96875 56 27.875 56 
Q 33.9375 56 38.25 53.625 
Q 42.578125 51.265625 45.40625 46.390625 
z
M 14.796875 27.296875 
Q 14.796875 17.390625 18.875 11.75 
Q 22.953125 6.109375 30.078125 6.109375 
Q 37.203125 6.109375 41.296875 11.75 
Q 45.40625 17.390625 45.40625 27.296875 
Q 45.40625 37.203125 41.296875 42.84375 
Q 37.203125 48.484375 30.078125 48.484375 
Q 22.953125 48.484375 18.875 42.84375 
Q 14.796875 37.203125 14.796875 27.296875 
z
" id="DejaVuSans-100"/>
       <path d="M 48.78125 52.59375 
L 48.78125 44.1875 
Q 44.96875 46.296875 41.140625 47.34375 
Q 37.3125 48.390625 33.40625 48.390625 
Q 24.65625 48.390625 19.8125 42.84375 
Q 14.984375 37.3125 14.984375 27.296875 
Q 14.984375 17.28125 19.8125 11.734375 
Q 24.65625 6.203125 33.40625 6.203125 
Q 37.3125 6.203125 41.140625 7.25 
Q 44.96875 8.296875 48.78125 10.40625 
L 48.78125 2.09375 
Q 45.015625 0.34375 40.984375 -0.53125 
Q 36.96875 -1.421875 32.421875 -1.421875 
Q 20.0625 -1.421875 12.78125 6.34375 
Q 5.515625 14.109375 5.515625 27.296875 
Q 5.515625 40.671875 12.859375 48.328125 
Q 20.21875 56 33.015625 56 
Q 37.15625 56 41.109375 55.140625 
Q 45.0625 54.296875 48.78125 52.59375 
z
" id="DejaVuSans-99"/>
       <path d="M 45.40625 27.984375 
Q 45.40625 37.75 41.375 43.109375 
Q 37.359375 48.484375 30.078125 48.484375 
Q 22.859375 48.484375 18.828125 43.109375 
Q 14.796875 37.75 14.796875 27.984375 
Q 14.796875 18.265625 18.828125 12.890625 
Q 22.859375 7.515625 30.078125 7.515625 
Q 37.359375 7.515625 41.375 12.890625 
Q 45.40625 18.265625 45.40625 27.984375 
z
M 54.390625 6.78125 
Q 54.390625 -7.171875 48.1875 -13.984375 
Q 42 -20.796875 29.203125 -20.796875 
Q 24.46875 -20.796875 20.265625 -20.09375 
Q 16.0625 -19.390625 12.109375 -17.921875 
L 12.109375 -9.1875 
Q 16.0625 -11.328125 19.921875 -12.34375 
Q 23.78125 -13.375 27.78125 -13.375 
Q 36.625 -13.375 41.015625 -8.765625 
Q 45.40625 -4.15625 45.40625 5.171875 
L 45.40625 9.625 
Q 42.625 4.78125 38.28125 2.390625 
Q 33.9375 0 27.875 0 
Q 17.828125 0 11.671875 7.65625 
Q 5.515625 15.328125 5.515625 27.984375 
Q 5.515625 40.671875 11.671875 48.328125 
Q 17.828125 56 27.875 56 
Q 33.9375 56 38.28125 53.609375 
Q 42.625 51.21875 45.40625 46.390625 
L 45.40625 54.6875 
L 54.390625 54.6875 
z
" id="DejaVuSans-103"/>
       <path d="M 32.171875 -5.078125 
Q 28.375 -14.84375 24.75 -17.8125 
Q 21.140625 -20.796875 15.09375 -20.796875 
L 7.90625 -20.796875 
L 7.90625 -13.28125 
L 13.1875 -13.28125 
Q 16.890625 -13.28125 18.9375 -11.515625 
Q 21 -9.765625 23.484375 -3.21875 
L 25.09375 0.875 
L 2.984375 54.6875 
L 12.5 54.6875 
L 29.59375 11.921875 
L 46.6875 54.6875 
L 56.203125 54.6875 
z
" id="DejaVuSans-121"/>
       <path d="M 62.09375 22 
L 6.40625 22 
L 6.40625 28.59375 
L 62.09375 28.59375 
z
" id="STIXGeneral-Regular-8722"/>
       <path d="M 30.203125 0 
L 22.296875 0 
L 22.296875 57 
Q 20.09375 56 15.75 53.75 
Q 11.40625 51.5 10.796875 51.203125 
L 10.796875 58.5 
L 28.796875 67.703125 
L 30.203125 67.203125 
z
" id="STIXGeneral-Regular-120803"/>
      </defs>
      <use transform="translate(0 0.370312)" xlink:href="#DejaVuSans-116"/>
      <use transform="translate(39.208984 0.370312)" xlink:href="#DejaVuSans-111"/>
      <use transform="translate(100.390625 0.370312)" xlink:href="#DejaVuSans-116"/>
      <use transform="translate(139.599609 0.370312)" xlink:href="#DejaVuSans-97"/>
      <use transform="translate(200.878906 0.370312)" xlink:href="#DejaVuSans-108"/>
      <use transform="translate(228.662109 0.370312)" xlink:href="#DejaVuSans-32"/>
      <use transform="translate(260.449219 0.370312)" xlink:href="#DejaVuSans-112"/>
      <use transform="translate(323.925781 0.370312)" xlink:href="#DejaVuSans-114"/>
      <use transform="translate(365.039062 0.370312)" xlink:href="#DejaVuSans-111"/>
      <use transform="translate(426.220703 0.370312)" xlink:href="#DejaVuSans-100"/>
      <use transform="translate(489.697266 0.370312)" xlink:href="#DejaVuSans-117"/>
      <use transform="translate(553.076172 0.370312)" xlink:href="#DejaVuSans-99"/>
      <use transform="translate(608.056641 0.370312)" xlink:href="#DejaVuSans-105"/>
      <use transform="translate(635.839844 0.370312)" xlink:href="#DejaVuSans-110"/>
      <use transform="translate(699.21875 0.370312)" xlink:href="#DejaVuSans-103"/>
      <use transform="translate(762.695312 0.370312)" xlink:href="#DejaVuSans-32"/>
      <use transform="translate(794.482422 0.370312)" xlink:href="#DejaVuSans-112"/>
      <use transform="translate(857.958984 0.370312)" xlink:href="#DejaVuSans-111"/>
      <use transform="translate(919.140625 0.370312)" xlink:href="#DejaVuSans-112"/>
      <use transform="translate(982.617188 0.370312)" xlink:href="#DejaVuSans-117"/>
      <use transform="translate(1045.996094 0.370312)" xlink:href="#DejaVuSans-108"/>
      <use transform="translate(1073.779297 0.370312)" xlink:href="#DejaVuSans-97"/>
      <use transform="translate(1135.058594 0.370312)" xlink:href="#DejaVuSans-116"/>
      <use transform="translate(1174.267578 0.370312)" xlink:href="#DejaVuSans-105"/>
      <use transform="translate(1202.050781 0.370312)" xlink:href="#DejaVuSans-111"/>
      <use transform="translate(1263.232422 0.370312)" xlink:href="#DejaVuSans-110"/>
      <use transform="translate(1326.611328 0.370312)" xlink:href="#DejaVuSans-32"/>
      <use transform="translate(1358.398438 0.370312)" xlink:href="#DejaVuSans-91"/>
      <use transform="translate(1397.412109 0.370312)" xlink:href="#DejaVuSans-98"/>
      <use transform="translate(1460.888672 0.370312)" xlink:href="#DejaVuSans-105"/>
      <use transform="translate(1488.671875 0.370312)" xlink:href="#DejaVuSans-108"/>
      <use transform="translate(1516.455078 0.370312)" xlink:href="#DejaVuSans-108"/>
      <use transform="translate(1544.238281 0.370312)" xlink:href="#DejaVuSans-105"/>
      <use transform="translate(1572.021484 0.370312)" xlink:href="#DejaVuSans-111"/>
      <use transform="translate(1633.203125 0.370312)" xlink:href="#DejaVuSans-110"/>
      <use transform="translate(1696.582031 0.370312)" xlink:href="#DejaVuSans-32"/>
      <use transform="translate(1728.369141 0.370312)" xlink:href="#DejaVuSans-121"/>
      <use transform="translate(1787.548828 0.370312)" xlink:href="#DejaVuSans-114"/>
      <use transform="translate(1829.454805 36.607813)scale(0.7)" xlink:href="#STIXGeneral-Regular-8722"/>
      <use transform="translate(1877.404794 36.607813)scale(0.7)" xlink:href="#STIXGeneral-Regular-120803"/>
      <use transform="translate(1914.669627 0.370312)" xlink:href="#DejaVuSans-93"/>
     </g>
    </g>
   </g>
   <g id="PolyCollection_1">
    <defs>
     <path d="M 30.810364 -26.811431 
L 30.810364 -26.31375 
L 32.230145 -26.31375 
L 33.700227 -26.31375 
L 35.227456 -26.31375 
L 36.815449 -26.31375 
L 38.466238 -26.31375 
L 40.174929 -26.31375 
L 41.929256 -26.31375 
L 43.71244 -26.31375 
L 45.511217 -26.31375 
L 47.32303 -26.31375 
L 49.147875 -26.31375 
L 50.978483 -26.31375 
L 52.807066 -26.31375 
L 54.629135 -26.31375 
L 56.440638 -26.31375 
L 58.245233 -26.31375 
L 60.056145 -26.31375 
L 61.891935 -26.31375 
L 63.76668 -26.31375 
L 65.680172 -26.31375 
L 67.629704 -26.31375 
L 69.623182 -26.31375 
L 71.669616 -26.31375 
L 73.772536 -26.31375 
L 75.936967 -26.31375 
L 78.153226 -26.31375 
L 80.391596 -26.31375 
L 82.612076 -26.31375 
L 84.785105 -26.31375 
L 86.900489 -26.31375 
L 88.963528 -26.31375 
L 90.979625 -26.31375 
L 92.96034 -26.31375 
L 94.915276 -26.31375 
L 96.844579 -26.31375 
L 98.747641 -26.31375 
L 100.633324 -26.31375 
L 102.512779 -26.31375 
L 104.395084 -26.31375 
L 106.283786 -26.31375 
L 108.180494 -26.31375 
L 110.089772 -26.31375 
L 112.015974 -26.31375 
L 113.962089 -26.31375 
L 115.929884 -26.31375 
L 117.91893 -26.31375 
L 119.926812 -26.31375 
L 121.949561 -26.31375 
L 123.98335 -26.31375 
L 126.027047 -26.31375 
L 128.078668 -26.31375 
L 130.132244 -26.31375 
L 132.180449 -26.31375 
L 134.217314 -26.31375 
L 136.239717 -26.31375 
L 138.246279 -26.31375 
L 140.235 -26.31375 
L 140.235 -28.276738 
L 140.235 -28.276738 
L 138.246279 -28.279678 
L 136.239717 -28.272349 
L 134.217314 -28.27779 
L 132.180449 -28.255281 
L 130.132244 -28.233829 
L 128.078668 -28.20195 
L 126.027047 -28.148667 
L 123.98335 -28.143245 
L 121.949561 -28.058927 
L 119.926812 -28.032176 
L 117.91893 -27.987132 
L 115.929884 -27.94217 
L 113.962089 -27.901189 
L 112.015974 -27.881447 
L 110.089772 -27.864876 
L 108.180494 -27.812611 
L 106.283786 -27.770504 
L 104.395084 -27.76882 
L 102.512779 -27.75278 
L 100.633324 -27.709003 
L 98.747641 -27.633347 
L 96.844579 -27.635781 
L 94.915276 -27.637499 
L 92.96034 -27.625733 
L 90.979625 -27.591268 
L 88.963528 -27.564968 
L 86.900489 -27.537701 
L 84.785105 -27.526911 
L 82.612076 -27.505353 
L 80.391596 -27.483114 
L 78.153226 -27.445309 
L 75.936967 -27.419298 
L 73.772536 -27.391493 
L 71.669616 -27.359388 
L 69.623182 -27.332271 
L 67.629704 -27.29805 
L 65.680172 -27.304049 
L 63.76668 -27.313449 
L 61.891935 -27.267757 
L 60.056145 -27.193001 
L 58.245233 -27.164607 
L 56.440638 -27.135637 
L 54.629135 -27.143251 
L 52.807066 -27.147936 
L 50.978483 -27.126696 
L 49.147875 -27.130671 
L 47.32303 -27.100634 
L 45.511217 -27.024135 
L 43.71244 -26.999257 
L 41.929256 -27.013174 
L 40.174929 -27.008803 
L 38.466238 -26.984362 
L 36.815449 -26.963993 
L 35.227456 -26.913711 
L 33.700227 -26.89335 
L 32.230145 -26.843494 
L 30.810364 -26.811431 
z
" id="m107bc1bb2d" style="stroke:#ffffff;stroke-width:0.25;"/>
    </defs>
    <g clip-path="url(#pbb3639d5b2)">
     <use style="fill:#e8b19d;stroke:#ffffff;stroke-width:0.25;" x="0" xlink:href="#m107bc1bb2d" y="146.49375"/>
    </g>
   </g>
   <g id="PolyCollection_2">
    <defs>
     <path d="M 30.810364 -27.040136 
L 30.810364 -26.811431 
L 32.230145 -26.843494 
L 33.700227 -26.89335 
L 35.227456 -26.913711 
L 36.815449 -26.963993 
L 38.466238 -26.984362 
L 40.174929 -27.008803 
L 41.929256 -27.013174 
L 43.71244 -26.999257 
L 45.511217 -27.024135 
L 47.32303 -27.100634 
L 49.147875 -27.130671 
L 50.978483 -27.126696 
L 52.807066 -27.147936 
L 54.629135 -27.143251 
L 56.440638 -27.135637 
L 58.245233 -27.164607 
L 60.056145 -27.193001 
L 61.891935 -27.267757 
L 63.76668 -27.313449 
L 65.680172 -27.304049 
L 67.629704 -27.29805 
L 69.623182 -27.332271 
L 71.669616 -27.359388 
L 73.772536 -27.391493 
L 75.936967 -27.419298 
L 78.153226 -27.445309 
L 80.391596 -27.483114 
L 82.612076 -27.505353 
L 84.785105 -27.526911 
L 86.900489 -27.537701 
L 88.963528 -27.564968 
L 90.979625 -27.591268 
L 92.96034 -27.625733 
L 94.915276 -27.637499 
L 96.844579 -27.635781 
L 98.747641 -27.633347 
L 100.633324 -27.709003 
L 102.512779 -27.75278 
L 104.395084 -27.76882 
L 106.283786 -27.770504 
L 108.180494 -27.812611 
L 110.089772 -27.864876 
L 112.015974 -27.881447 
L 113.962089 -27.901189 
L 115.929884 -27.94217 
L 117.91893 -27.987132 
L 119.926812 -28.032176 
L 121.949561 -28.058927 
L 123.98335 -28.143245 
L 126.027047 -28.148667 
L 128.078668 -28.20195 
L 130.132244 -28.233829 
L 132.180449 -28.255281 
L 134.217314 -28.27779 
L 136.239717 -28.272349 
L 138.246279 -28.279678 
L 140.235 -28.276738 
L 140.235 -28.676251 
L 140.235 -28.676251 
L 138.246279 -28.673375 
L 136.239717 -28.661727 
L 134.217314 -28.666414 
L 132.180449 -28.647462 
L 130.132244 -28.627345 
L 128.078668 -28.589517 
L 126.027047 -28.532519 
L 123.98335 -28.528593 
L 121.949561 -28.444698 
L 119.926812 -28.421095 
L 117.91893 -28.37568 
L 115.929884 -28.324009 
L 113.962089 -28.275943 
L 112.015974 -28.253301 
L 110.089772 -28.231058 
L 108.180494 -28.172728 
L 106.283786 -28.123671 
L 104.395084 -28.128455 
L 102.512779 -28.111443 
L 100.633324 -28.065487 
L 98.747641 -27.988135 
L 96.844579 -27.98121 
L 94.915276 -27.980695 
L 92.96034 -27.96692 
L 90.979625 -27.928115 
L 88.963528 -27.901123 
L 86.900489 -27.876555 
L 84.785105 -27.863201 
L 82.612076 -27.835893 
L 80.391596 -27.813282 
L 78.153226 -27.776739 
L 75.936967 -27.754593 
L 73.772536 -27.717853 
L 71.669616 -27.685104 
L 69.623182 -27.650383 
L 67.629704 -27.613435 
L 65.680172 -27.617579 
L 63.76668 -27.624138 
L 61.891935 -27.58117 
L 60.056145 -27.51724 
L 58.245233 -27.486976 
L 56.440638 -27.457289 
L 54.629135 -27.451224 
L 52.807066 -27.434788 
L 50.978483 -27.3963 
L 49.147875 -27.400381 
L 47.32303 -27.37088 
L 45.511217 -27.3025 
L 43.71244 -27.279188 
L 41.929256 -27.292272 
L 40.174929 -27.279434 
L 38.466238 -27.244512 
L 36.815449 -27.217375 
L 35.227456 -27.167312 
L 33.700227 -27.149728 
L 32.230145 -27.087207 
L 30.810364 -27.040136 
z
" id="mfc0076aba4" style="stroke:#ffffff;stroke-width:0.25;"/>
    </defs>
    <g clip-path="url(#pbb3639d5b2)">
     <use style="fill:#738fc1;stroke:#ffffff;stroke-width:0.25;" x="0" xlink:href="#mfc0076aba4" y="146.49375"/>
    </g>
   </g>
   <g id="PolyCollection_3">
    <defs>
     <path d="M 30.810364 -27.27463 
L 30.810364 -27.040136 
L 32.230145 -27.087207 
L 33.700227 -27.149728 
L 35.227456 -27.167312 
L 36.815449 -27.217375 
L 38.466238 -27.244512 
L 40.174929 -27.279434 
L 41.929256 -27.292272 
L 43.71244 -27.279188 
L 45.511217 -27.3025 
L 47.32303 -27.37088 
L 49.147875 -27.400381 
L 50.978483 -27.3963 
L 52.807066 -27.434788 
L 54.629135 -27.451224 
L 56.440638 -27.457289 
L 58.245233 -27.486976 
L 60.056145 -27.51724 
L 61.891935 -27.58117 
L 63.76668 -27.624138 
L 65.680172 -27.617579 
L 67.629704 -27.613435 
L 69.623182 -27.650383 
L 71.669616 -27.685104 
L 73.772536 -27.717853 
L 75.936967 -27.754593 
L 78.153226 -27.776739 
L 80.391596 -27.813282 
L 82.612076 -27.835893 
L 84.785105 -27.863201 
L 86.900489 -27.876555 
L 88.963528 -27.901123 
L 90.979625 -27.928115 
L 92.96034 -27.96692 
L 94.915276 -27.980695 
L 96.844579 -27.98121 
L 98.747641 -27.988135 
L 100.633324 -28.065487 
L 102.512779 -28.111443 
L 104.395084 -28.128455 
L 106.283786 -28.123671 
L 108.180494 -28.172728 
L 110.089772 -28.231058 
L 112.015974 -28.253301 
L 113.962089 -28.275943 
L 115.929884 -28.324009 
L 117.91893 -28.37568 
L 119.926812 -28.421095 
L 121.949561 -28.444698 
L 123.98335 -28.528593 
L 126.027047 -28.532519 
L 128.078668 -28.589517 
L 130.132244 -28.627345 
L 132.180449 -28.647462 
L 134.217314 -28.666414 
L 136.239717 -28.661727 
L 138.246279 -28.673375 
L 140.235 -28.676251 
L 140.235 -29.026799 
L 140.235 -29.026799 
L 138.246279 -29.037524 
L 136.239717 -29.027449 
L 134.217314 -29.030775 
L 132.180449 -29.008394 
L 130.132244 -28.983905 
L 128.078668 -28.944183 
L 126.027047 -28.881603 
L 123.98335 -28.874215 
L 121.949561 -28.787496 
L 119.926812 -28.753489 
L 117.91893 -28.705132 
L 115.929884 -28.643938 
L 113.962089 -28.589596 
L 112.015974 -28.563157 
L 110.089772 -28.536168 
L 108.180494 -28.468553 
L 106.283786 -28.415974 
L 104.395084 -28.417354 
L 102.512779 -28.402667 
L 100.633324 -28.355525 
L 98.747641 -28.278391 
L 96.844579 -28.272374 
L 94.915276 -28.274448 
L 92.96034 -28.260662 
L 90.979625 -28.218754 
L 88.963528 -28.193248 
L 86.900489 -28.170975 
L 84.785105 -28.158158 
L 82.612076 -28.129463 
L 80.391596 -28.10454 
L 78.153226 -28.068233 
L 75.936967 -28.046216 
L 73.772536 -28.004738 
L 71.669616 -27.971215 
L 69.623182 -27.935545 
L 67.629704 -27.895379 
L 65.680172 -27.898071 
L 63.76668 -27.902173 
L 61.891935 -27.855216 
L 60.056145 -27.785889 
L 58.245233 -27.752336 
L 56.440638 -27.718327 
L 54.629135 -27.708958 
L 52.807066 -27.688232 
L 50.978483 -27.645446 
L 49.147875 -27.651188 
L 47.32303 -27.617873 
L 45.511217 -27.546862 
L 43.71244 -27.526724 
L 41.929256 -27.538424 
L 40.174929 -27.522278 
L 38.466238 -27.488067 
L 36.815449 -27.451156 
L 35.227456 -27.399947 
L 33.700227 -27.383936 
L 32.230145 -27.320694 
L 30.810364 -27.27463 
z
" id="mcf52b121f8" style="stroke:#ffffff;stroke-width:0.25;"/>
    </defs>
    <g clip-path="url(#pbb3639d5b2)">
     <use style="fill:#808080;stroke:#ffffff;stroke-width:0.25;" x="0" xlink:href="#mcf52b121f8" y="146.49375"/>
    </g>
   </g>
   <g id="PolyCollection_4">
    <defs>
     <path d="M 30.810364 -29.778172 
L 30.810364 -27.27463 
L 32.230145 -27.320694 
L 33.700227 -27.383936 
L 35.227456 -27.399947 
L 36.815449 -27.451156 
L 38.466238 -27.488067 
L 40.174929 -27.522278 
L 41.929256 -27.538424 
L 43.71244 -27.526724 
L 45.511217 -27.546862 
L 47.32303 -27.617873 
L 49.147875 -27.651188 
L 50.978483 -27.645446 
L 52.807066 -27.688232 
L 54.629135 -27.708958 
L 56.440638 -27.718327 
L 58.245233 -27.752336 
L 60.056145 -27.785889 
L 61.891935 -27.855216 
L 63.76668 -27.902173 
L 65.680172 -27.898071 
L 67.629704 -27.895379 
L 69.623182 -27.935545 
L 71.669616 -27.971215 
L 73.772536 -28.004738 
L 75.936967 -28.046216 
L 78.153226 -28.068233 
L 80.391596 -28.10454 
L 82.612076 -28.129463 
L 84.785105 -28.158158 
L 86.900489 -28.170975 
L 88.963528 -28.193248 
L 90.979625 -28.218754 
L 92.96034 -28.260662 
L 94.915276 -28.274448 
L 96.844579 -28.272374 
L 98.747641 -28.278391 
L 100.633324 -28.355525 
L 102.512779 -28.402667 
L 104.395084 -28.417354 
L 106.283786 -28.415974 
L 108.180494 -28.468553 
L 110.089772 -28.536168 
L 112.015974 -28.563157 
L 113.962089 -28.589596 
L 115.929884 -28.643938 
L 117.91893 -28.705132 
L 119.926812 -28.753489 
L 121.949561 -28.787496 
L 123.98335 -28.874215 
L 126.027047 -28.881603 
L 128.078668 -28.944183 
L 130.132244 -28.983905 
L 132.180449 -29.008394 
L 134.217314 -29.030775 
L 136.239717 -29.027449 
L 138.246279 -29.037524 
L 140.235 -29.026799 
L 140.235 -38.899916 
L 140.235 -38.899916 
L 138.246279 -38.933458 
L 136.239717 -38.799102 
L 134.217314 -38.582846 
L 132.180449 -38.411556 
L 130.132244 -38.20677 
L 128.078668 -37.961354 
L 126.027047 -37.630999 
L 123.98335 -37.496899 
L 121.949561 -37.181709 
L 119.926812 -37.023821 
L 117.91893 -36.741957 
L 115.929884 -36.470757 
L 113.962089 -36.15726 
L 112.015974 -35.911363 
L 110.089772 -35.626843 
L 108.180494 -35.435756 
L 106.283786 -35.165548 
L 104.395084 -34.993557 
L 102.512779 -34.728785 
L 100.633324 -34.467087 
L 98.747641 -34.222482 
L 96.844579 -34.041696 
L 94.915276 -33.838736 
L 92.96034 -33.63715 
L 90.979625 -33.146704 
L 88.963528 -33.070115 
L 86.900489 -33.063056 
L 84.785105 -32.924278 
L 82.612076 -32.754592 
L 80.391596 -32.677006 
L 78.153226 -32.573208 
L 75.936967 -32.442947 
L 73.772536 -32.310643 
L 71.669616 -32.11092 
L 69.623182 -31.939223 
L 67.629704 -31.824353 
L 65.680172 -31.756025 
L 63.76668 -31.767777 
L 61.891935 -31.694369 
L 60.056145 -31.541998 
L 58.245233 -31.58617 
L 56.440638 -31.478091 
L 54.629135 -31.378527 
L 52.807066 -31.301935 
L 50.978483 -31.185559 
L 49.147875 -31.067405 
L 47.32303 -30.999597 
L 45.511217 -30.813543 
L 43.71244 -30.667916 
L 41.929256 -30.572664 
L 40.174929 -30.475389 
L 38.466238 -30.322128 
L 36.815449 -30.176493 
L 35.227456 -30.033759 
L 33.700227 -29.956316 
L 32.230145 -29.896021 
L 30.810364 -29.778172 
z
" id="m57da4965c3" style="stroke:#ffffff;stroke-width:0.25;"/>
    </defs>
    <g clip-path="url(#pbb3639d5b2)">
     <use style="fill:#eac264;stroke:#ffffff;stroke-width:0.25;" x="0" xlink:href="#m57da4965c3" y="146.49375"/>
    </g>
   </g>
   <g id="PolyCollection_5">
    <defs>
     <path d="M 30.810364 -38.476279 
L 30.810364 -29.778172 
L 32.230145 -29.896021 
L 33.700227 -29.956316 
L 35.227456 -30.033759 
L 36.815449 -30.176493 
L 38.466238 -30.322128 
L 40.174929 -30.475389 
L 41.929256 -30.572664 
L 43.71244 -30.667916 
L 45.511217 -30.813543 
L 47.32303 -30.999597 
L 49.147875 -31.067405 
L 50.978483 -31.185559 
L 52.807066 -31.301935 
L 54.629135 -31.378527 
L 56.440638 -31.478091 
L 58.245233 -31.58617 
L 60.056145 -31.541998 
L 61.891935 -31.694369 
L 63.76668 -31.767777 
L 65.680172 -31.756025 
L 67.629704 -31.824353 
L 69.623182 -31.939223 
L 71.669616 -32.11092 
L 73.772536 -32.310643 
L 75.936967 -32.442947 
L 78.153226 -32.573208 
L 80.391596 -32.677006 
L 82.612076 -32.754592 
L 84.785105 -32.924278 
L 86.900489 -33.063056 
L 88.963528 -33.070115 
L 90.979625 -33.146704 
L 92.96034 -33.63715 
L 94.915276 -33.838736 
L 96.844579 -34.041696 
L 98.747641 -34.222482 
L 100.633324 -34.467087 
L 102.512779 -34.728785 
L 104.395084 -34.993557 
L 106.283786 -35.165548 
L 108.180494 -35.435756 
L 110.089772 -35.626843 
L 112.015974 -35.911363 
L 113.962089 -36.15726 
L 115.929884 -36.470757 
L 117.91893 -36.741957 
L 119.926812 -37.023821 
L 121.949561 -37.181709 
L 123.98335 -37.496899 
L 126.027047 -37.630999 
L 128.078668 -37.961354 
L 130.132244 -38.20677 
L 132.180449 -38.411556 
L 134.217314 -38.582846 
L 136.239717 -38.799102 
L 138.246279 -38.933458 
L 140.235 -38.899916 
L 140.235 -129.856607 
L 140.235 -129.856607 
L 138.246279 -127.144235 
L 136.239717 -125.182599 
L 134.217314 -122.966276 
L 132.180449 -120.167687 
L 130.132244 -118.087319 
L 128.078668 -116.626118 
L 126.027047 -114.670196 
L 123.98335 -112.398066 
L 121.949561 -110.431631 
L 119.926812 -107.862723 
L 117.91893 -104.402255 
L 115.929884 -100.285193 
L 113.962089 -98.917166 
L 112.015974 -95.784211 
L 110.089772 -94.289534 
L 108.180494 -93.174265 
L 106.283786 -90.710765 
L 104.395084 -88.620408 
L 102.512779 -86.238928 
L 100.633324 -83.528449 
L 98.747641 -82.314193 
L 96.844579 -80.315706 
L 94.915276 -78.913468 
L 92.96034 -76.055927 
L 90.979625 -73.916718 
L 88.963528 -71.86163 
L 86.900489 -70.356697 
L 84.785105 -68.871639 
L 82.612076 -66.954053 
L 80.391596 -66.3846 
L 78.153226 -65.030987 
L 75.936967 -62.683687 
L 73.772536 -61.104303 
L 71.669616 -59.696779 
L 69.623182 -59.022046 
L 67.629704 -58.300532 
L 65.680172 -57.347769 
L 63.76668 -56.088746 
L 61.891935 -54.772172 
L 60.056145 -52.983971 
L 58.245233 -51.677182 
L 56.440638 -50.370137 
L 54.629135 -49.074991 
L 52.807066 -48.743684 
L 50.978483 -47.985284 
L 49.147875 -47.158985 
L 47.32303 -46.061283 
L 45.511217 -45.40437 
L 43.71244 -44.100562 
L 41.929256 -43.101295 
L 40.174929 -42.586698 
L 38.466238 -41.267669 
L 36.815449 -40.913988 
L 35.227456 -39.944808 
L 33.700227 -39.503423 
L 32.230145 -38.95865 
L 30.810364 -38.476279 
z
" id="m7601713447" style="stroke:#ffffff;stroke-width:0.25;"/>
    </defs>
    <g clip-path="url(#pbb3639d5b2)">
     <use style="fill:#7aa974;stroke:#ffffff;stroke-width:0.25;" x="0" xlink:href="#m7601713447" y="146.49375"/>
    </g>
   </g>
   <g id="patch_3">
    <path d="M 28.635 120.18 
L 28.635 11.46 
" style="fill:none;stroke:#ffffff;stroke-linecap:square;stroke-linejoin:miter;stroke-width:0.8;"/>
   </g>
   <g id="patch_4">
    <path d="M 140.235 120.18 
L 140.235 11.46 
" style="fill:none;stroke:#ffffff;stroke-linecap:square;stroke-linejoin:miter;stroke-width:0.8;"/>
   </g>
   <g id="patch_5">
    <path d="M 28.635 120.18 
L 140.235 120.18 
" style="fill:none;stroke:#ffffff;stroke-linecap:square;stroke-linejoin:miter;stroke-width:0.8;"/>
   </g>
   <g id="patch_6">
    <path d="M 28.635 11.46 
L 140.235 11.46 
" style="fill:none;stroke:#ffffff;stroke-linecap:square;stroke-linejoin:miter;stroke-width:0.8;"/>
   </g>
  </g>
 </g>
 <defs>
  <clipPath id="pbb3639d5b2">
   <rect height="108.72" width="111.6" x="28.635" y="11.46"/>
  </clipPath>
 </defs>
</svg>
