<?xml version="1.0" encoding="utf-8" standalone="no"?>
<!DOCTYPE svg PUBLIC "-//W3C//DTD SVG 1.1//EN"
  "http://www.w3.org/Graphics/SVG/1.1/DTD/svg11.dtd">
<!-- Created with matplotlib (https://matplotlib.org/) -->
<svg height="144.497813pt" version="1.1" viewBox="0 0 150.664688 144.497813" width="150.664688pt" xmlns="http://www.w3.org/2000/svg" xmlns:xlink="http://www.w3.org/1999/xlink">
 <metadata>
  <rdf:RDF xmlns:cc="http://creativecommons.org/ns#" xmlns:dc="http://purl.org/dc/elements/1.1/" xmlns:rdf="http://www.w3.org/1999/02/22-rdf-syntax-ns#">
   <cc:Work>
    <dc:type rdf:resource="http://purl.org/dc/dcmitype/StillImage"/>
    <dc:date>2021-07-12T18:27:37.616526</dc:date>
    <dc:format>image/svg+xml</dc:format>
    <dc:creator>
     <cc:Agent>
      <dc:title>Matplotlib v3.3.4, https://matplotlib.org/</dc:title>
     </cc:Agent>
    </dc:creator>
   </cc:Work>
  </rdf:RDF>
 </metadata>
 <defs>
  <style type="text/css">*{stroke-linecap:butt;stroke-linejoin:round;}</style>
 </defs>
 <g id="figure_1">
  <g id="patch_1">
   <path d="M 0 144.497813 
L 150.664688 144.497813 
L 150.664688 0 
L 0 0 
z
" style="fill:#ffffff;"/>
  </g>
  <g id="axes_1">
   <g id="patch_2">
    <path d="M 24.276563 118.232813 
L 135.876563 118.232813 
L 135.876563 9.512813 
L 24.276563 9.512813 
z
" style="fill:#e3dcd0;"/>
   </g>
   <g id="matplotlib.axis_1">
    <g id="xtick_1">
     <g id="text_1">
      <!-- 1960 -->
      <g transform="translate(16.688438 126.358438)scale(0.06 -0.06)">
       <defs>
        <path d="M 26.171875 0 
L 26.171875 65.046875 
L 14.75 65.046875 
L 14.75 71.09375 
L 35.84375 72.90625 
L 35.84375 0 
z
" id="LucidaSansUnicode-49"/>
        <path d="M 11.375 0.4375 
L 11.375 8.59375 
Q 20.5625 5.421875 27 5.421875 
Q 35.984375 5.421875 41.03125 13.0625 
Q 46.09375 20.703125 46.09375 34.328125 
Q 38.765625 25.296875 29.4375 25.296875 
Q 20.3125 25.296875 13.96875 32 
Q 7.625 38.71875 7.625 48.390625 
Q 7.625 59.46875 14.375 66.765625 
Q 21.140625 74.078125 31.390625 74.078125 
Q 43.171875 74.078125 49.953125 64.625 
Q 56.734375 55.171875 56.734375 38.765625 
Q 56.734375 28.328125 53.46875 19.109375 
Q 50.203125 9.90625 44.671875 4.78125 
Q 37.59375 -1.8125 26.078125 -1.8125 
Q 20.40625 -1.8125 11.375 0.4375 
z
M 17.234375 50.046875 
Q 17.234375 41.796875 20.984375 37.015625 
Q 24.75 32.234375 31.15625 32.234375 
Q 37.3125 32.234375 41.625 36.375 
Q 45.953125 40.53125 45.953125 46.390625 
Q 45.953125 55.609375 41.765625 61.25 
Q 37.59375 66.890625 30.8125 66.890625 
Q 24.46875 66.890625 20.84375 62.390625 
Q 17.234375 57.90625 17.234375 50.046875 
z
" id="LucidaSansUnicode-57"/>
        <path d="M 17.1875 37.453125 
Q 24.078125 46.390625 34.515625 46.390625 
Q 44 46.390625 50.03125 40.109375 
Q 56.0625 33.84375 56.0625 24.03125 
Q 56.0625 12.75 49.296875 5.46875 
Q 42.53125 -1.8125 32.078125 -1.8125 
Q 20.171875 -1.8125 13.421875 7.828125 
Q 6.6875 17.484375 6.6875 34.515625 
Q 6.6875 57.46875 18.453125 68.21875 
Q 24.859375 74.125 36.140625 74.125 
Q 42.671875 74.125 52.34375 71.390625 
L 52.34375 62.984375 
Q 42.140625 66.890625 35.546875 66.890625 
Q 17.1875 66.890625 17.1875 37.453125 
z
M 46.390625 22.125 
Q 46.390625 30.125 42.671875 34.78125 
Q 38.96875 39.453125 32.515625 39.453125 
Q 26.375 39.453125 21.96875 35.34375 
Q 17.578125 31.25 17.578125 25.484375 
Q 17.578125 16.40625 21.75 10.90625 
Q 25.921875 5.421875 32.8125 5.421875 
Q 39.0625 5.421875 42.71875 9.90625 
Q 46.390625 14.40625 46.390625 22.125 
z
" id="LucidaSansUnicode-54"/>
        <path d="M 31.640625 -1.8125 
Q 20.265625 -1.8125 13.296875 8.609375 
Q 6.34375 19.046875 6.34375 36.140625 
Q 6.34375 53.21875 13.296875 63.640625 
Q 20.265625 74.078125 31.640625 74.078125 
Q 43.0625 74.078125 50 63.671875 
Q 56.9375 53.265625 56.9375 36.140625 
Q 56.9375 19.046875 50 8.609375 
Q 43.0625 -1.8125 31.640625 -1.8125 
z
M 31.640625 5.421875 
Q 46.734375 5.421875 46.734375 36.140625 
Q 46.734375 66.84375 31.640625 66.84375 
Q 16.609375 66.84375 16.609375 36.140625 
Q 16.609375 5.421875 31.640625 5.421875 
z
" id="LucidaSansUnicode-48"/>
       </defs>
       <use xlink:href="#LucidaSansUnicode-49"/>
       <use x="63.232422" xlink:href="#LucidaSansUnicode-57"/>
       <use x="126.464844" xlink:href="#LucidaSansUnicode-54"/>
       <use x="189.697266" xlink:href="#LucidaSansUnicode-48"/>
      </g>
     </g>
    </g>
    <g id="xtick_2">
     <g id="text_2">
      <!-- 1980 -->
      <g transform="translate(53.888438 126.358438)scale(0.06 -0.06)">
       <defs>
        <path d="M 23 39.359375 
Q 17.046875 43.5 14.71875 47.0625 
Q 12.40625 50.640625 12.40625 55.671875 
Q 12.40625 63.875 18.40625 69 
Q 24.421875 74.125 34.078125 74.125 
Q 43.015625 74.125 48.5625 69.78125 
Q 54.109375 65.4375 54.109375 58.5 
Q 54.109375 48 40.625 39.359375 
Q 56.984375 31.34375 56.984375 18.703125 
Q 56.984375 9.671875 50.140625 3.921875 
Q 43.3125 -1.8125 32.5625 -1.8125 
Q 21.828125 -1.8125 15.234375 3.578125 
Q 8.640625 8.984375 8.640625 17.78125 
Q 8.640625 30.765625 23 39.359375 
z
M 35.25 42.390625 
Q 45.359375 49.03125 45.359375 57.171875 
Q 45.359375 61.53125 41.96875 64.1875 
Q 38.578125 66.84375 33.109375 66.84375 
Q 27.78125 66.84375 24.453125 64.234375 
Q 21.140625 61.625 21.140625 57.46875 
Q 21.140625 53.421875 24.140625 50.1875 
Q 27.15625 46.96875 35.25 42.390625 
z
M 28.21875 35.453125 
Q 22.40625 30.953125 20.328125 27.609375 
Q 18.265625 24.265625 18.265625 19.28125 
Q 18.265625 13.09375 22.265625 9.25 
Q 26.265625 5.421875 32.8125 5.421875 
Q 39.109375 5.421875 43.09375 8.6875 
Q 47.078125 11.96875 47.078125 17.1875 
Q 47.078125 21.390625 44.609375 24.296875 
Q 42.140625 27.203125 35.0625 31.390625 
z
" id="LucidaSansUnicode-56"/>
       </defs>
       <use xlink:href="#LucidaSansUnicode-49"/>
       <use x="63.232422" xlink:href="#LucidaSansUnicode-57"/>
       <use x="126.464844" xlink:href="#LucidaSansUnicode-56"/>
       <use x="189.697266" xlink:href="#LucidaSansUnicode-48"/>
      </g>
     </g>
    </g>
    <g id="xtick_3">
     <g id="text_3">
      <!-- 2000 -->
      <g transform="translate(91.088438 126.358438)scale(0.06 -0.06)">
       <defs>
        <path d="M 8.296875 0 
L 8.296875 8.453125 
Q 12.5 18.265625 25.296875 29.828125 
L 30.8125 34.765625 
Q 41.453125 44.390625 41.453125 53.859375 
Q 41.453125 59.90625 37.8125 63.375 
Q 34.1875 66.84375 27.78125 66.84375 
Q 20.3125 66.84375 10.109375 61.03125 
L 10.109375 69.53125 
Q 19.734375 74.078125 29.25 74.078125 
Q 39.40625 74.078125 45.53125 68.609375 
Q 51.65625 63.140625 51.65625 54.109375 
Q 51.65625 47.609375 48.546875 42.578125 
Q 45.453125 37.546875 37.015625 30.375 
L 33.296875 27.203125 
Q 21.734375 17.390625 19.921875 8.453125 
L 51.3125 8.453125 
L 51.3125 0 
z
" id="LucidaSansUnicode-50"/>
       </defs>
       <use xlink:href="#LucidaSansUnicode-50"/>
       <use x="63.232422" xlink:href="#LucidaSansUnicode-48"/>
       <use x="126.464844" xlink:href="#LucidaSansUnicode-48"/>
       <use x="189.697266" xlink:href="#LucidaSansUnicode-48"/>
      </g>
     </g>
    </g>
    <g id="xtick_4">
     <g id="text_4">
      <!-- 2020 -->
      <g transform="translate(128.288438 126.358438)scale(0.06 -0.06)">
       <use xlink:href="#LucidaSansUnicode-50"/>
       <use x="63.232422" xlink:href="#LucidaSansUnicode-48"/>
       <use x="126.464844" xlink:href="#LucidaSansUnicode-50"/>
       <use x="189.697266" xlink:href="#LucidaSansUnicode-48"/>
      </g>
     </g>
    </g>
    <g id="text_5">
     <!-- year -->
     <g style="fill:#262626;" transform="translate(73.953281 136.140938)scale(0.06 -0.06)">
      <defs>
       <path d="M 12.703125 -19.28125 
L 21.296875 0 
L 0.78125 53.03125 
L 11.1875 53.03125 
L 26.375 13.09375 
L 42.578125 53.03125 
L 51.65625 53.03125 
L 22.703125 -19.28125 
z
" id="LucidaSansUnicode-121"/>
       <path d="M 48.484375 1.703125 
Q 38.8125 -1.21875 31.9375 -1.21875 
Q 20.171875 -1.21875 12.796875 6.5625 
Q 5.421875 14.359375 5.421875 26.765625 
Q 5.421875 38.8125 11.9375 46.53125 
Q 18.453125 54.25 28.609375 54.25 
Q 38.234375 54.25 43.484375 47.390625 
Q 48.734375 40.53125 48.734375 27.9375 
L 48.6875 25 
L 15.234375 25 
Q 17.328125 6.109375 33.734375 6.109375 
Q 39.75 6.109375 48.484375 9.328125 
z
M 15.671875 32.234375 
L 39.0625 32.234375 
Q 39.0625 47.015625 28.03125 47.015625 
Q 16.9375 47.015625 15.671875 32.234375 
z
" id="LucidaSansUnicode-101"/>
       <path d="M 36.96875 6.734375 
Q 28.328125 -1.21875 20.3125 -1.21875 
Q 13.71875 -1.21875 9.375 2.90625 
Q 5.03125 7.03125 5.03125 13.328125 
Q 5.03125 22.015625 12.328125 26.671875 
Q 19.625 31.34375 33.296875 31.34375 
L 35.546875 31.34375 
L 35.546875 37.75 
Q 35.546875 46.96875 25.921875 46.96875 
Q 18.453125 46.96875 9.625 42.28125 
L 9.625 50.25 
Q 19.34375 54.203125 27.9375 54.203125 
Q 36.765625 54.203125 40.96875 50.171875 
Q 45.171875 46.140625 45.171875 37.75 
L 45.171875 13.71875 
Q 45.171875 5.46875 50.25 5.46875 
Q 50.875 5.46875 52.09375 5.671875 
L 52.78125 0.34375 
Q 49.515625 -1.21875 45.5625 -1.21875 
Q 38.8125 -1.21875 36.96875 6.734375 
z
M 35.546875 11.96875 
L 35.546875 25.6875 
L 32.46875 25.78125 
Q 24.46875 25.78125 19.5625 22.796875 
Q 14.65625 19.828125 14.65625 14.890625 
Q 14.65625 11.421875 17.09375 9.03125 
Q 19.53125 6.640625 23.046875 6.640625 
Q 29.046875 6.640625 35.546875 11.96875 
z
" id="LucidaSansUnicode-97"/>
       <path d="M 9.625 0 
L 9.625 53.03125 
L 19.234375 53.03125 
L 19.234375 43.0625 
Q 24.953125 54.203125 35.84375 54.203125 
Q 37.3125 54.203125 38.921875 53.953125 
L 38.921875 44.96875 
Q 36.421875 45.796875 34.515625 45.796875 
Q 25.390625 45.796875 19.234375 34.96875 
L 19.234375 0 
z
" id="LucidaSansUnicode-114"/>
      </defs>
      <use xlink:href="#LucidaSansUnicode-121"/>
      <use x="52.246094" xlink:href="#LucidaSansUnicode-101"/>
      <use x="107.958984" xlink:href="#LucidaSansUnicode-97"/>
      <use x="163.183594" xlink:href="#LucidaSansUnicode-114"/>
     </g>
    </g>
   </g>
   <g id="matplotlib.axis_2">
    <g id="ytick_1">
     <g id="text_6">
      <!-- 0 -->
      <g transform="translate(16.9825 120.545625)scale(0.06 -0.06)">
       <use xlink:href="#LucidaSansUnicode-48"/>
      </g>
     </g>
    </g>
    <g id="ytick_2">
     <g id="text_7">
      <!-- 1 -->
      <g transform="translate(16.9825 106.955625)scale(0.06 -0.06)">
       <use xlink:href="#LucidaSansUnicode-49"/>
      </g>
     </g>
    </g>
    <g id="ytick_3">
     <g id="text_8">
      <!-- 2 -->
      <g transform="translate(16.9825 93.365625)scale(0.06 -0.06)">
       <use xlink:href="#LucidaSansUnicode-50"/>
      </g>
     </g>
    </g>
    <g id="ytick_4">
     <g id="text_9">
      <!-- 3 -->
      <g transform="translate(16.9825 79.775625)scale(0.06 -0.06)">
       <defs>
        <path d="M 10.15625 0.53125 
L 10.15625 9.515625 
Q 20.453125 5.421875 26.375 5.421875 
Q 33.34375 5.421875 37.671875 9.421875 
Q 42 13.421875 42 19.875 
Q 42 35.109375 20.65625 35.109375 
L 16.84375 35.109375 
L 16.84375 41.609375 
L 20.21875 41.65625 
Q 40.234375 41.65625 40.234375 55.765625 
Q 40.234375 66.84375 26.953125 66.84375 
Q 19.828125 66.84375 11.140625 62.796875 
L 11.140625 71.1875 
Q 19.671875 74.078125 27.59375 74.078125 
Q 38.375 74.078125 44.140625 69.78125 
Q 49.90625 65.484375 49.90625 57.328125 
Q 49.90625 44.578125 34.8125 39.15625 
Q 52.296875 35.109375 52.296875 20.015625 
Q 52.296875 9.8125 45.546875 4 
Q 38.8125 -1.8125 27.046875 -1.8125 
Q 20.359375 -1.8125 10.15625 0.53125 
z
" id="LucidaSansUnicode-51"/>
       </defs>
       <use xlink:href="#LucidaSansUnicode-51"/>
      </g>
     </g>
    </g>
    <g id="ytick_5">
     <g id="text_10">
      <!-- 4 -->
      <g transform="translate(16.9825 66.185625)scale(0.06 -0.06)">
       <defs>
        <path d="M 37.640625 0 
L 37.640625 20.453125 
L 5.125 20.453125 
L 5.125 27.734375 
L 37.640625 72.265625 
L 46.6875 72.265625 
L 46.6875 28.328125 
L 56.34375 28.328125 
L 56.34375 20.453125 
L 46.6875 20.453125 
L 46.6875 0 
z
M 14.546875 28.328125 
L 38.28125 28.328125 
L 38.28125 60.453125 
z
" id="LucidaSansUnicode-52"/>
       </defs>
       <use xlink:href="#LucidaSansUnicode-52"/>
      </g>
     </g>
    </g>
    <g id="ytick_6">
     <g id="text_11">
      <!-- 5 -->
      <g transform="translate(16.9825 52.595625)scale(0.06 -0.06)">
       <defs>
        <path d="M 12.15625 -0.296875 
L 12.15625 8.296875 
Q 19.34375 5.421875 25.828125 5.421875 
Q 32.953125 5.421875 37.03125 9.609375 
Q 41.109375 13.8125 41.109375 21.1875 
Q 41.109375 29.109375 35.34375 33.28125 
Q 29.59375 37.453125 18.703125 37.453125 
Q 16.15625 37.453125 13.375 37.109375 
L 13.375 72.265625 
L 49.953125 72.265625 
L 49.953125 63.875 
L 21.828125 63.875 
L 21.828125 44.828125 
Q 35.75 44.828125 43.5625 38.421875 
Q 51.375 32.03125 51.375 20.703125 
Q 51.375 10.15625 44.265625 4.171875 
Q 37.15625 -1.8125 24.65625 -1.8125 
Q 19.09375 -1.8125 12.15625 -0.296875 
z
" id="LucidaSansUnicode-53"/>
       </defs>
       <use xlink:href="#LucidaSansUnicode-53"/>
      </g>
     </g>
    </g>
    <g id="ytick_7">
     <g id="text_12">
      <!-- 6 -->
      <g transform="translate(16.9825 39.005625)scale(0.06 -0.06)">
       <use xlink:href="#LucidaSansUnicode-54"/>
      </g>
     </g>
    </g>
    <g id="ytick_8">
     <g id="text_13">
      <!-- 7 -->
      <g transform="translate(16.9825 25.415625)scale(0.06 -0.06)">
       <defs>
        <path d="M 15.046875 0 
Q 16.453125 8.453125 19.0625 14.59375 
Q 21.6875 20.75 28.328125 31.5 
L 48.046875 63.234375 
L 10.84375 63.234375 
L 10.84375 72.265625 
L 57.234375 72.265625 
L 57.234375 63.234375 
Q 29.4375 22.265625 26.125 0 
z
" id="LucidaSansUnicode-55"/>
       </defs>
       <use xlink:href="#LucidaSansUnicode-55"/>
      </g>
     </g>
    </g>
    <g id="ytick_9">
     <g id="text_14">
      <!-- 8 -->
      <g transform="translate(16.9825 11.825625)scale(0.06 -0.06)">
       <use xlink:href="#LucidaSansUnicode-56"/>
      </g>
     </g>
    </g>
    <g id="text_15">
     <!-- population [billion] -->
     <g style="fill:#262626;" transform="translate(11.825625 91.532813)rotate(-90)scale(0.06 -0.06)">
      <defs>
       <path d="M 9.625 -19.28125 
L 9.625 53.03125 
L 19.234375 53.03125 
L 19.234375 43.0625 
Q 25.140625 54.203125 36.96875 54.203125 
Q 46.53125 54.203125 52.015625 47.21875 
Q 57.515625 40.234375 57.515625 28.125 
Q 57.515625 14.9375 51.28125 6.859375 
Q 45.0625 -1.21875 34.90625 -1.21875 
Q 25.484375 -1.21875 19.234375 6 
L 19.234375 -19.28125 
z
M 19.234375 12.640625 
Q 26.65625 6 33.40625 6 
Q 40.046875 6 43.65625 11.546875 
Q 47.265625 17.09375 47.265625 27.15625 
Q 47.265625 45.796875 34.96875 45.796875 
Q 26.90625 45.796875 19.234375 37.0625 
z
" id="LucidaSansUnicode-112"/>
       <path d="M 30.71875 -1.21875 
Q 19.046875 -1.21875 12.234375 6.25 
Q 5.421875 13.71875 5.421875 26.515625 
Q 5.421875 39.3125 12.234375 46.75 
Q 19.046875 54.203125 30.71875 54.203125 
Q 42.390625 54.203125 49.1875 46.75 
Q 56 39.3125 56 26.515625 
Q 56 13.71875 49.1875 6.25 
Q 42.390625 -1.21875 30.71875 -1.21875 
z
M 30.71875 6 
Q 37.890625 6 41.84375 11.375 
Q 45.796875 16.75 45.796875 26.515625 
Q 45.796875 36.28125 41.84375 41.625 
Q 37.890625 46.96875 30.71875 46.96875 
Q 23.53125 46.96875 19.59375 41.625 
Q 15.671875 36.28125 15.671875 26.515625 
Q 15.671875 16.75 19.59375 11.375 
Q 23.53125 6 30.71875 6 
z
" id="LucidaSansUnicode-111"/>
       <path d="M 42.78125 0 
L 42.78125 9.96875 
Q 35.109375 -1.21875 24.171875 -1.21875 
Q 17.234375 -1.21875 13.125 3.140625 
Q 9.03125 7.515625 9.03125 14.9375 
L 9.03125 53.03125 
L 18.65625 53.03125 
L 18.65625 18.0625 
Q 18.65625 12.109375 20.390625 9.59375 
Q 22.125 7.078125 26.171875 7.078125 
Q 34.96875 7.078125 42.78125 18.65625 
L 42.78125 53.03125 
L 52.390625 53.03125 
L 52.390625 0 
z
" id="LucidaSansUnicode-117"/>
       <path d="M 9.625 0 
L 9.625 77.09375 
L 19.234375 77.09375 
L 19.234375 0 
z
" id="LucidaSansUnicode-108"/>
       <path d="M 33.25 0 
Q 28.8125 -1.21875 25.53125 -1.21875 
Q 18.21875 -1.21875 14.109375 2.96875 
Q 10.015625 7.171875 10.015625 14.65625 
L 10.015625 45.796875 
L 3.375 45.796875 
L 3.375 53.03125 
L 10.015625 53.03125 
L 10.015625 62.640625 
L 19.625 63.578125 
L 19.625 53.03125 
L 33.5 53.03125 
L 33.5 45.796875 
L 19.625 45.796875 
L 19.625 16.40625 
Q 19.625 6 28.609375 6 
Q 30.515625 6 33.25 6.640625 
z
" id="LucidaSansUnicode-116"/>
       <path d="M 9.625 0 
L 9.625 53.03125 
L 19.234375 53.03125 
L 19.234375 0 
z
M 9.625 62.640625 
L 9.625 72.265625 
L 19.234375 72.265625 
L 19.234375 62.640625 
z
" id="LucidaSansUnicode-105"/>
       <path d="M 9.625 0 
L 9.625 53.03125 
L 19.234375 53.03125 
L 19.234375 43.0625 
Q 26.859375 54.203125 37.890625 54.203125 
Q 44.828125 54.203125 48.90625 49.828125 
Q 52.984375 45.453125 52.984375 38.09375 
L 52.984375 0 
L 43.359375 0 
L 43.359375 34.96875 
Q 43.359375 40.875 41.625 43.390625 
Q 39.890625 45.90625 35.890625 45.90625 
Q 27.046875 45.90625 19.234375 34.328125 
L 19.234375 0 
z
" id="LucidaSansUnicode-110"/>
       <path id="LucidaSansUnicode-32"/>
       <path d="M 9.625 -14.453125 
L 9.625 77.09375 
L 28.90625 77.09375 
L 28.90625 69.875 
L 18.0625 69.875 
L 18.0625 -7.234375 
L 28.90625 -7.234375 
L 28.90625 -14.453125 
z
" id="LucidaSansUnicode-91"/>
       <path d="M 9.625 -0.59375 
L 9.625 77.09375 
L 19.234375 77.09375 
L 19.234375 43.0625 
Q 25.140625 54.203125 36.96875 54.203125 
Q 46.53125 54.203125 52.015625 47.21875 
Q 57.515625 40.234375 57.515625 28.125 
Q 57.515625 14.9375 51.28125 6.859375 
Q 45.0625 -1.21875 34.90625 -1.21875 
Q 25.484375 -1.21875 19.234375 6 
L 18.0625 -0.59375 
z
M 19.234375 12.640625 
Q 26.65625 6 33.40625 6 
Q 40.046875 6 43.65625 11.546875 
Q 47.265625 17.09375 47.265625 27.15625 
Q 47.265625 45.796875 34.96875 45.796875 
Q 26.90625 45.796875 19.234375 37.0625 
z
" id="LucidaSansUnicode-98"/>
       <path d="M 22.90625 77.09375 
L 22.90625 -14.453125 
L 3.609375 -14.453125 
L 3.609375 -7.234375 
L 14.453125 -7.234375 
L 14.453125 69.875 
L 3.609375 69.875 
L 3.609375 77.09375 
z
" id="LucidaSansUnicode-93"/>
      </defs>
      <use xlink:href="#LucidaSansUnicode-112"/>
      <use x="62.939453" xlink:href="#LucidaSansUnicode-111"/>
      <use x="124.365234" xlink:href="#LucidaSansUnicode-112"/>
      <use x="187.304688" xlink:href="#LucidaSansUnicode-117"/>
      <use x="249.365234" xlink:href="#LucidaSansUnicode-108"/>
      <use x="278.271484" xlink:href="#LucidaSansUnicode-97"/>
      <use x="333.496094" xlink:href="#LucidaSansUnicode-116"/>
      <use x="370.898438" xlink:href="#LucidaSansUnicode-105"/>
      <use x="399.804688" xlink:href="#LucidaSansUnicode-111"/>
      <use x="461.230469" xlink:href="#LucidaSansUnicode-110"/>
      <use x="523.291016" xlink:href="#LucidaSansUnicode-32"/>
      <use x="554.931641" xlink:href="#LucidaSansUnicode-91"/>
      <use x="587.451172" xlink:href="#LucidaSansUnicode-98"/>
      <use x="650.390625" xlink:href="#LucidaSansUnicode-105"/>
      <use x="679.296875" xlink:href="#LucidaSansUnicode-108"/>
      <use x="708.203125" xlink:href="#LucidaSansUnicode-108"/>
      <use x="737.109375" xlink:href="#LucidaSansUnicode-105"/>
      <use x="766.015625" xlink:href="#LucidaSansUnicode-111"/>
      <use x="827.441406" xlink:href="#LucidaSansUnicode-110"/>
      <use x="889.501953" xlink:href="#LucidaSansUnicode-93"/>
     </g>
    </g>
   </g>
   <g id="PolyCollection_1">
    <defs>
     <path d="M 5.676563 -50.528203 
L 5.676563 -26.265 
L 7.536563 -26.265 
L 9.396563 -26.265 
L 11.256563 -26.265 
L 13.116563 -26.265 
L 14.976563 -26.265 
L 16.836563 -26.265 
L 18.696563 -26.265 
L 20.556563 -26.265 
L 22.416563 -26.265 
L 24.276563 -26.265 
L 26.136563 -26.265 
L 27.996563 -26.265 
L 29.856563 -26.265 
L 31.716563 -26.265 
L 33.576563 -26.265 
L 35.436563 -26.265 
L 37.296563 -26.265 
L 39.156563 -26.265 
L 41.016563 -26.265 
L 42.876563 -26.265 
L 44.736563 -26.265 
L 46.596563 -26.265 
L 48.456563 -26.265 
L 50.316563 -26.265 
L 52.176563 -26.265 
L 54.036563 -26.265 
L 55.896563 -26.265 
L 57.756563 -26.265 
L 59.616563 -26.265 
L 61.476563 -26.265 
L 63.336563 -26.265 
L 65.196563 -26.265 
L 67.056563 -26.265 
L 68.916563 -26.265 
L 70.776563 -26.265 
L 72.636563 -26.265 
L 74.496563 -26.265 
L 76.356563 -26.265 
L 78.216563 -26.265 
L 80.076563 -26.265 
L 81.936563 -26.265 
L 83.796563 -26.265 
L 85.656563 -26.265 
L 87.516563 -26.265 
L 89.376563 -26.265 
L 91.236563 -26.265 
L 93.096563 -26.265 
L 94.956563 -26.265 
L 96.816563 -26.265 
L 98.676563 -26.265 
L 100.536563 -26.265 
L 102.396563 -26.265 
L 104.256563 -26.265 
L 106.116563 -26.265 
L 107.976563 -26.265 
L 109.836563 -26.265 
L 111.696563 -26.265 
L 113.556563 -26.265 
L 115.416563 -26.265 
L 117.276563 -26.265 
L 119.136563 -26.265 
L 120.996563 -26.265 
L 122.856563 -26.265 
L 124.716563 -26.265 
L 126.576563 -26.265 
L 128.436563 -26.265 
L 130.296563 -26.265 
L 132.156563 -26.265 
L 132.156563 -72.647697 
L 132.156563 -72.647697 
L 130.296563 -72.607899 
L 128.436563 -72.556775 
L 126.576563 -72.491537 
L 124.716563 -72.411491 
L 122.856563 -72.313847 
L 120.996563 -72.203744 
L 119.136563 -72.084836 
L 117.276563 -71.972261 
L 115.416563 -71.885418 
L 113.556563 -71.792208 
L 111.696563 -71.693775 
L 109.836563 -71.579519 
L 107.976563 -71.468785 
L 106.116563 -71.36105 
L 104.256563 -71.243347 
L 102.396563 -71.11664 
L 100.536563 -70.980634 
L 98.676563 -70.795346 
L 96.816563 -70.54986 
L 94.956563 -70.291606 
L 93.096563 -70.02144 
L 91.236563 -69.734293 
L 89.376563 -69.426421 
L 87.516563 -69.101571 
L 85.656563 -68.759181 
L 83.796563 -68.394868 
L 81.936563 -68.003919 
L 80.076563 -67.588322 
L 78.216563 -67.138211 
L 76.356563 -66.660329 
L 74.496563 -66.175481 
L 72.636563 -65.689982 
L 70.776563 -65.211803 
L 68.916563 -64.743419 
L 67.056563 -64.285857 
L 65.196563 -63.836484 
L 63.336563 -63.41504 
L 61.476563 -63.015221 
L 59.616563 -62.612326 
L 57.756563 -62.211515 
L 55.896563 -61.772707 
L 54.036563 -61.285227 
L 52.176563 -60.789881 
L 50.316563 -60.27144 
L 48.456563 -59.769247 
L 46.596563 -59.245353 
L 44.736563 -58.703743 
L 42.876563 -58.152062 
L 41.016563 -57.604519 
L 39.156563 -57.059223 
L 37.296563 -56.522962 
L 35.436563 -56.001665 
L 33.576563 -55.498768 
L 31.716563 -55.019502 
L 29.856563 -54.636971 
L 27.996563 -54.27219 
L 26.136563 -53.918878 
L 24.276563 -53.572298 
L 22.416563 -53.241206 
L 20.556563 -52.922385 
L 18.696563 -52.613824 
L 16.836563 -52.31293 
L 14.976563 -52.021226 
L 13.116563 -51.734336 
L 11.256563 -51.44646 
L 9.396563 -51.152392 
L 7.536563 -50.8459 
L 5.676563 -50.528203 
z
" id="m137d08289d" style="stroke:#ffffff;stroke-width:0.25;"/>
    </defs>
    <g clip-path="url(#pfda62d2558)">
     <use style="fill:#7aa974;stroke:#ffffff;stroke-width:0.25;" x="0" xlink:href="#m137d08289d" y="144.497813"/>
    </g>
   </g>
   <g id="PolyCollection_2">
    <defs>
     <path d="M 5.676563 -60.732973 
L 5.676563 -50.528203 
L 7.536563 -50.8459 
L 9.396563 -51.152392 
L 11.256563 -51.44646 
L 13.116563 -51.734336 
L 14.976563 -52.021226 
L 16.836563 -52.31293 
L 18.696563 -52.613824 
L 20.556563 -52.922385 
L 22.416563 -53.241206 
L 24.276563 -53.572298 
L 26.136563 -53.918878 
L 27.996563 -54.27219 
L 29.856563 -54.636971 
L 31.716563 -55.019502 
L 33.576563 -55.498768 
L 35.436563 -56.001665 
L 37.296563 -56.522962 
L 39.156563 -57.059223 
L 41.016563 -57.604519 
L 42.876563 -58.152062 
L 44.736563 -58.703743 
L 46.596563 -59.245353 
L 48.456563 -59.769247 
L 50.316563 -60.27144 
L 52.176563 -60.789881 
L 54.036563 -61.285227 
L 55.896563 -61.772707 
L 57.756563 -62.211515 
L 59.616563 -62.612326 
L 61.476563 -63.015221 
L 63.336563 -63.41504 
L 65.196563 -63.836484 
L 67.056563 -64.285857 
L 68.916563 -64.743419 
L 70.776563 -65.211803 
L 72.636563 -65.689982 
L 74.496563 -66.175481 
L 76.356563 -66.660329 
L 78.216563 -67.138211 
L 80.076563 -67.588322 
L 81.936563 -68.003919 
L 83.796563 -68.394868 
L 85.656563 -68.759181 
L 87.516563 -69.101571 
L 89.376563 -69.426421 
L 91.236563 -69.734293 
L 93.096563 -70.02144 
L 94.956563 -70.291606 
L 96.816563 -70.54986 
L 98.676563 -70.795346 
L 100.536563 -70.980634 
L 102.396563 -71.11664 
L 104.256563 -71.243347 
L 106.116563 -71.36105 
L 107.976563 -71.468785 
L 109.836563 -71.579519 
L 111.696563 -71.693775 
L 113.556563 -71.792208 
L 115.416563 -71.885418 
L 117.276563 -71.972261 
L 119.136563 -72.084836 
L 120.996563 -72.203744 
L 122.856563 -72.313847 
L 124.716563 -72.411491 
L 126.576563 -72.491537 
L 128.436563 -72.556775 
L 130.296563 -72.607899 
L 132.156563 -72.647697 
L 132.156563 -129.995015 
L 132.156563 -129.995015 
L 130.296563 -128.873062 
L 128.436563 -127.741045 
L 126.576563 -126.60009 
L 124.716563 -125.450977 
L 122.856563 -124.295465 
L 120.996563 -123.136925 
L 119.136563 -121.979487 
L 117.276563 -120.826519 
L 115.416563 -119.679141 
L 113.556563 -118.537991 
L 111.696563 -117.405229 
L 109.836563 -116.283093 
L 107.976563 -115.172946 
L 106.116563 -114.07503 
L 104.256563 -112.988348 
L 102.396563 -111.911214 
L 100.536563 -110.841171 
L 98.676563 -109.775645 
L 96.816563 -108.713728 
L 94.956563 -107.653419 
L 93.096563 -106.589596 
L 91.236563 -105.515969 
L 89.376563 -104.427537 
L 87.516563 -103.324645 
L 85.656563 -102.207209 
L 83.796563 -101.069812 
L 81.936563 -99.905932 
L 80.076563 -98.712522 
L 78.216563 -97.48659 
L 76.356563 -96.233889 
L 74.496563 -94.971095 
L 72.636563 -93.720776 
L 70.776563 -92.499695 
L 68.916563 -91.313316 
L 67.056563 -90.158804 
L 65.196563 -89.034168 
L 63.336563 -87.934324 
L 61.476563 -86.854813 
L 59.616563 -85.79716 
L 57.756563 -84.761485 
L 55.896563 -83.739845 
L 54.036563 -82.721768 
L 52.176563 -81.699795 
L 50.316563 -80.67186 
L 48.456563 -79.640251 
L 46.596563 -78.607499 
L 44.736563 -77.577998 
L 42.876563 -76.55585 
L 41.016563 -75.541056 
L 39.156563 -74.535059 
L 37.296563 -73.545341 
L 35.436563 -72.58137 
L 33.576563 -71.650065 
L 31.716563 -70.754186 
L 29.856563 -69.892588 
L 27.996563 -69.063229 
L 26.136563 -68.262249 
L 24.276563 -67.486358 
L 22.416563 -66.733637 
L 20.556563 -66.003264 
L 18.696563 -65.294831 
L 16.836563 -64.607601 
L 14.976563 -63.939776 
L 13.116563 -63.288271 
L 11.256563 -62.648561 
L 9.396563 -62.014642 
L 7.536563 -61.37907 
L 5.676563 -60.732973 
z
" id="m1a182bfbb3" style="stroke:#ffffff;stroke-width:0.25;"/>
    </defs>
    <g clip-path="url(#pfda62d2558)">
     <use style="fill:#738fc1;stroke:#ffffff;stroke-width:0.25;" x="0" xlink:href="#m1a182bfbb3" y="144.497813"/>
    </g>
   </g>
   <g id="patch_3">
    <path d="M 24.276563 118.232813 
L 24.276563 9.512813 
" style="fill:none;stroke:#ffffff;stroke-linecap:square;stroke-linejoin:miter;stroke-width:0.8;"/>
   </g>
   <g id="patch_4">
    <path d="M 135.876563 118.232813 
L 135.876563 9.512813 
" style="fill:none;stroke:#ffffff;stroke-linecap:square;stroke-linejoin:miter;stroke-width:0.8;"/>
   </g>
   <g id="patch_5">
    <path d="M 24.276563 118.232813 
L 135.876563 118.232813 
" style="fill:none;stroke:#ffffff;stroke-linecap:square;stroke-linejoin:miter;stroke-width:0.8;"/>
   </g>
   <g id="patch_6">
    <path d="M 24.276563 9.512813 
L 135.876563 9.512813 
" style="fill:none;stroke:#ffffff;stroke-linecap:square;stroke-linejoin:miter;stroke-width:0.8;"/>
   </g>
  </g>
 </g>
 <defs>
  <clipPath id="pfda62d2558">
   <rect height="108.72" width="111.6" x="24.276563" y="9.512813"/>
  </clipPath>
 </defs>
</svg>
