<?xml version="1.0" encoding="utf-8" standalone="no"?>
<!DOCTYPE svg PUBLIC "-//W3C//DTD SVG 1.1//EN"
  "http://www.w3.org/Graphics/SVG/1.1/DTD/svg11.dtd">
<!-- Created with matplotlib (https://matplotlib.org/) -->
<svg height="117.333281pt" version="1.1" viewBox="0 0 122.859375 117.333281" width="122.859375pt" xmlns="http://www.w3.org/2000/svg" xmlns:xlink="http://www.w3.org/1999/xlink">
 <metadata>
  <rdf:RDF xmlns:cc="http://creativecommons.org/ns#" xmlns:dc="http://purl.org/dc/elements/1.1/" xmlns:rdf="http://www.w3.org/1999/02/22-rdf-syntax-ns#">
   <cc:Work>
    <dc:type rdf:resource="http://purl.org/dc/dcmitype/StillImage"/>
    <dc:date>2021-10-13T07:47:35.352521</dc:date>
    <dc:format>image/svg+xml</dc:format>
    <dc:creator>
     <cc:Agent>
      <dc:title>Matplotlib v3.3.4, https://matplotlib.org/</dc:title>
     </cc:Agent>
    </dc:creator>
   </cc:Work>
  </rdf:RDF>
 </metadata>
 <defs>
  <style type="text/css">*{stroke-linecap:butt;stroke-linejoin:round;}</style>
 </defs>
 <g id="figure_1">
  <g id="patch_1">
   <path d="M 0 117.333281 
L 122.859375 117.333281 
L 122.859375 -0 
L 0 -0 
z
" style="fill:#ffffff;"/>
  </g>
  <g id="axes_1">
   <g id="patch_2">
    <path d="M 24.324375 91.019531 
L 108.024375 91.019531 
L 108.024375 9.479531 
L 24.324375 9.479531 
z
" style="fill:#e3dcd0;"/>
   </g>
   <g id="matplotlib.axis_1">
    <g id="xtick_1">
     <g id="text_1">
      <!-- 1960 -->
      <g transform="translate(16.689375 99.078594)scale(0.06 -0.06)">
       <defs>
        <path d="M 12.40625 8.296875 
L 28.515625 8.296875 
L 28.515625 63.921875 
L 10.984375 60.40625 
L 10.984375 69.390625 
L 28.421875 72.90625 
L 38.28125 72.90625 
L 38.28125 8.296875 
L 54.390625 8.296875 
L 54.390625 0 
L 12.40625 0 
z
" id="DejaVuSans-49"/>
        <path d="M 10.984375 1.515625 
L 10.984375 10.5 
Q 14.703125 8.734375 18.5 7.8125 
Q 22.3125 6.890625 25.984375 6.890625 
Q 35.75 6.890625 40.890625 13.453125 
Q 46.046875 20.015625 46.78125 33.40625 
Q 43.953125 29.203125 39.59375 26.953125 
Q 35.25 24.703125 29.984375 24.703125 
Q 19.046875 24.703125 12.671875 31.3125 
Q 6.296875 37.9375 6.296875 49.421875 
Q 6.296875 60.640625 12.9375 67.421875 
Q 19.578125 74.21875 30.609375 74.21875 
Q 43.265625 74.21875 49.921875 64.515625 
Q 56.59375 54.828125 56.59375 36.375 
Q 56.59375 19.140625 48.40625 8.859375 
Q 40.234375 -1.421875 26.421875 -1.421875 
Q 22.703125 -1.421875 18.890625 -0.6875 
Q 15.09375 0.046875 10.984375 1.515625 
z
M 30.609375 32.421875 
Q 37.25 32.421875 41.125 36.953125 
Q 45.015625 41.5 45.015625 49.421875 
Q 45.015625 57.28125 41.125 61.84375 
Q 37.25 66.40625 30.609375 66.40625 
Q 23.96875 66.40625 20.09375 61.84375 
Q 16.21875 57.28125 16.21875 49.421875 
Q 16.21875 41.5 20.09375 36.953125 
Q 23.96875 32.421875 30.609375 32.421875 
z
" id="DejaVuSans-57"/>
        <path d="M 33.015625 40.375 
Q 26.375 40.375 22.484375 35.828125 
Q 18.609375 31.296875 18.609375 23.390625 
Q 18.609375 15.53125 22.484375 10.953125 
Q 26.375 6.390625 33.015625 6.390625 
Q 39.65625 6.390625 43.53125 10.953125 
Q 47.40625 15.53125 47.40625 23.390625 
Q 47.40625 31.296875 43.53125 35.828125 
Q 39.65625 40.375 33.015625 40.375 
z
M 52.59375 71.296875 
L 52.59375 62.3125 
Q 48.875 64.0625 45.09375 64.984375 
Q 41.3125 65.921875 37.59375 65.921875 
Q 27.828125 65.921875 22.671875 59.328125 
Q 17.53125 52.734375 16.796875 39.40625 
Q 19.671875 43.65625 24.015625 45.921875 
Q 28.375 48.1875 33.59375 48.1875 
Q 44.578125 48.1875 50.953125 41.515625 
Q 57.328125 34.859375 57.328125 23.390625 
Q 57.328125 12.15625 50.6875 5.359375 
Q 44.046875 -1.421875 33.015625 -1.421875 
Q 20.359375 -1.421875 13.671875 8.265625 
Q 6.984375 17.96875 6.984375 36.375 
Q 6.984375 53.65625 15.1875 63.9375 
Q 23.390625 74.21875 37.203125 74.21875 
Q 40.921875 74.21875 44.703125 73.484375 
Q 48.484375 72.75 52.59375 71.296875 
z
" id="DejaVuSans-54"/>
        <path d="M 31.78125 66.40625 
Q 24.171875 66.40625 20.328125 58.90625 
Q 16.5 51.421875 16.5 36.375 
Q 16.5 21.390625 20.328125 13.890625 
Q 24.171875 6.390625 31.78125 6.390625 
Q 39.453125 6.390625 43.28125 13.890625 
Q 47.125 21.390625 47.125 36.375 
Q 47.125 51.421875 43.28125 58.90625 
Q 39.453125 66.40625 31.78125 66.40625 
z
M 31.78125 74.21875 
Q 44.046875 74.21875 50.515625 64.515625 
Q 56.984375 54.828125 56.984375 36.375 
Q 56.984375 17.96875 50.515625 8.265625 
Q 44.046875 -1.421875 31.78125 -1.421875 
Q 19.53125 -1.421875 13.0625 8.265625 
Q 6.59375 17.96875 6.59375 36.375 
Q 6.59375 54.828125 13.0625 64.515625 
Q 19.53125 74.21875 31.78125 74.21875 
z
" id="DejaVuSans-48"/>
       </defs>
       <use xlink:href="#DejaVuSans-49"/>
       <use x="63.623047" xlink:href="#DejaVuSans-57"/>
       <use x="127.246094" xlink:href="#DejaVuSans-54"/>
       <use x="190.869141" xlink:href="#DejaVuSans-48"/>
      </g>
     </g>
    </g>
    <g id="xtick_2">
     <g id="text_2">
      <!-- 1980 -->
      <g transform="translate(44.589375 99.078594)scale(0.06 -0.06)">
       <defs>
        <path d="M 31.78125 34.625 
Q 24.75 34.625 20.71875 30.859375 
Q 16.703125 27.09375 16.703125 20.515625 
Q 16.703125 13.921875 20.71875 10.15625 
Q 24.75 6.390625 31.78125 6.390625 
Q 38.8125 6.390625 42.859375 10.171875 
Q 46.921875 13.96875 46.921875 20.515625 
Q 46.921875 27.09375 42.890625 30.859375 
Q 38.875 34.625 31.78125 34.625 
z
M 21.921875 38.8125 
Q 15.578125 40.375 12.03125 44.71875 
Q 8.5 49.078125 8.5 55.328125 
Q 8.5 64.0625 14.71875 69.140625 
Q 20.953125 74.21875 31.78125 74.21875 
Q 42.671875 74.21875 48.875 69.140625 
Q 55.078125 64.0625 55.078125 55.328125 
Q 55.078125 49.078125 51.53125 44.71875 
Q 48 40.375 41.703125 38.8125 
Q 48.828125 37.15625 52.796875 32.3125 
Q 56.78125 27.484375 56.78125 20.515625 
Q 56.78125 9.90625 50.3125 4.234375 
Q 43.84375 -1.421875 31.78125 -1.421875 
Q 19.734375 -1.421875 13.25 4.234375 
Q 6.78125 9.90625 6.78125 20.515625 
Q 6.78125 27.484375 10.78125 32.3125 
Q 14.796875 37.15625 21.921875 38.8125 
z
M 18.3125 54.390625 
Q 18.3125 48.734375 21.84375 45.5625 
Q 25.390625 42.390625 31.78125 42.390625 
Q 38.140625 42.390625 41.71875 45.5625 
Q 45.3125 48.734375 45.3125 54.390625 
Q 45.3125 60.0625 41.71875 63.234375 
Q 38.140625 66.40625 31.78125 66.40625 
Q 25.390625 66.40625 21.84375 63.234375 
Q 18.3125 60.0625 18.3125 54.390625 
z
" id="DejaVuSans-56"/>
       </defs>
       <use xlink:href="#DejaVuSans-49"/>
       <use x="63.623047" xlink:href="#DejaVuSans-57"/>
       <use x="127.246094" xlink:href="#DejaVuSans-56"/>
       <use x="190.869141" xlink:href="#DejaVuSans-48"/>
      </g>
     </g>
    </g>
    <g id="xtick_3">
     <g id="text_3">
      <!-- 2000 -->
      <g transform="translate(72.489375 99.078594)scale(0.06 -0.06)">
       <defs>
        <path d="M 19.1875 8.296875 
L 53.609375 8.296875 
L 53.609375 0 
L 7.328125 0 
L 7.328125 8.296875 
Q 12.9375 14.109375 22.625 23.890625 
Q 32.328125 33.6875 34.8125 36.53125 
Q 39.546875 41.84375 41.421875 45.53125 
Q 43.3125 49.21875 43.3125 52.78125 
Q 43.3125 58.59375 39.234375 62.25 
Q 35.15625 65.921875 28.609375 65.921875 
Q 23.96875 65.921875 18.8125 64.3125 
Q 13.671875 62.703125 7.8125 59.421875 
L 7.8125 69.390625 
Q 13.765625 71.78125 18.9375 73 
Q 24.125 74.21875 28.421875 74.21875 
Q 39.75 74.21875 46.484375 68.546875 
Q 53.21875 62.890625 53.21875 53.421875 
Q 53.21875 48.921875 51.53125 44.890625 
Q 49.859375 40.875 45.40625 35.40625 
Q 44.1875 33.984375 37.640625 27.21875 
Q 31.109375 20.453125 19.1875 8.296875 
z
" id="DejaVuSans-50"/>
       </defs>
       <use xlink:href="#DejaVuSans-50"/>
       <use x="63.623047" xlink:href="#DejaVuSans-48"/>
       <use x="127.246094" xlink:href="#DejaVuSans-48"/>
       <use x="190.869141" xlink:href="#DejaVuSans-48"/>
      </g>
     </g>
    </g>
    <g id="xtick_4">
     <g id="text_4">
      <!-- 2020 -->
      <g transform="translate(100.389375 99.078594)scale(0.06 -0.06)">
       <use xlink:href="#DejaVuSans-50"/>
       <use x="63.623047" xlink:href="#DejaVuSans-48"/>
       <use x="127.246094" xlink:href="#DejaVuSans-50"/>
       <use x="190.869141" xlink:href="#DejaVuSans-48"/>
      </g>
     </g>
    </g>
    <g id="text_5">
     <!-- year -->
     <g style="fill:#262626;" transform="translate(59.481094 108.885469)scale(0.06 -0.06)">
      <defs>
       <path d="M 32.171875 -5.078125 
Q 28.375 -14.84375 24.75 -17.8125 
Q 21.140625 -20.796875 15.09375 -20.796875 
L 7.90625 -20.796875 
L 7.90625 -13.28125 
L 13.1875 -13.28125 
Q 16.890625 -13.28125 18.9375 -11.515625 
Q 21 -9.765625 23.484375 -3.21875 
L 25.09375 0.875 
L 2.984375 54.6875 
L 12.5 54.6875 
L 29.59375 11.921875 
L 46.6875 54.6875 
L 56.203125 54.6875 
z
" id="DejaVuSans-121"/>
       <path d="M 56.203125 29.59375 
L 56.203125 25.203125 
L 14.890625 25.203125 
Q 15.484375 15.921875 20.484375 11.0625 
Q 25.484375 6.203125 34.421875 6.203125 
Q 39.59375 6.203125 44.453125 7.46875 
Q 49.3125 8.734375 54.109375 11.28125 
L 54.109375 2.78125 
Q 49.265625 0.734375 44.1875 -0.34375 
Q 39.109375 -1.421875 33.890625 -1.421875 
Q 20.796875 -1.421875 13.15625 6.1875 
Q 5.515625 13.8125 5.515625 26.8125 
Q 5.515625 40.234375 12.765625 48.109375 
Q 20.015625 56 32.328125 56 
Q 43.359375 56 49.78125 48.890625 
Q 56.203125 41.796875 56.203125 29.59375 
z
M 47.21875 32.234375 
Q 47.125 39.59375 43.09375 43.984375 
Q 39.0625 48.390625 32.421875 48.390625 
Q 24.90625 48.390625 20.390625 44.140625 
Q 15.875 39.890625 15.1875 32.171875 
z
" id="DejaVuSans-101"/>
       <path d="M 34.28125 27.484375 
Q 23.390625 27.484375 19.1875 25 
Q 14.984375 22.515625 14.984375 16.5 
Q 14.984375 11.71875 18.140625 8.90625 
Q 21.296875 6.109375 26.703125 6.109375 
Q 34.1875 6.109375 38.703125 11.40625 
Q 43.21875 16.703125 43.21875 25.484375 
L 43.21875 27.484375 
z
M 52.203125 31.203125 
L 52.203125 0 
L 43.21875 0 
L 43.21875 8.296875 
Q 40.140625 3.328125 35.546875 0.953125 
Q 30.953125 -1.421875 24.3125 -1.421875 
Q 15.921875 -1.421875 10.953125 3.296875 
Q 6 8.015625 6 15.921875 
Q 6 25.140625 12.171875 29.828125 
Q 18.359375 34.515625 30.609375 34.515625 
L 43.21875 34.515625 
L 43.21875 35.40625 
Q 43.21875 41.609375 39.140625 45 
Q 35.0625 48.390625 27.6875 48.390625 
Q 23 48.390625 18.546875 47.265625 
Q 14.109375 46.140625 10.015625 43.890625 
L 10.015625 52.203125 
Q 14.9375 54.109375 19.578125 55.046875 
Q 24.21875 56 28.609375 56 
Q 40.484375 56 46.34375 49.84375 
Q 52.203125 43.703125 52.203125 31.203125 
z
" id="DejaVuSans-97"/>
       <path d="M 41.109375 46.296875 
Q 39.59375 47.171875 37.8125 47.578125 
Q 36.03125 48 33.890625 48 
Q 26.265625 48 22.1875 43.046875 
Q 18.109375 38.09375 18.109375 28.8125 
L 18.109375 0 
L 9.078125 0 
L 9.078125 54.6875 
L 18.109375 54.6875 
L 18.109375 46.1875 
Q 20.953125 51.171875 25.484375 53.578125 
Q 30.03125 56 36.53125 56 
Q 37.453125 56 38.578125 55.875 
Q 39.703125 55.765625 41.0625 55.515625 
z
" id="DejaVuSans-114"/>
      </defs>
      <use xlink:href="#DejaVuSans-121"/>
      <use x="59.179688" xlink:href="#DejaVuSans-101"/>
      <use x="120.703125" xlink:href="#DejaVuSans-97"/>
      <use x="181.982422" xlink:href="#DejaVuSans-114"/>
     </g>
    </g>
   </g>
   <g id="matplotlib.axis_2">
    <g id="ytick_1">
     <g id="text_6">
      <!-- 0 -->
      <g transform="translate(17.006875 93.299063)scale(0.06 -0.06)">
       <use xlink:href="#DejaVuSans-48"/>
      </g>
     </g>
    </g>
    <g id="ytick_2">
     <g id="text_7">
      <!-- 2 -->
      <g transform="translate(17.006875 72.914062)scale(0.06 -0.06)">
       <use xlink:href="#DejaVuSans-50"/>
      </g>
     </g>
    </g>
    <g id="ytick_3">
     <g id="text_8">
      <!-- 4 -->
      <g transform="translate(17.006875 52.529063)scale(0.06 -0.06)">
       <defs>
        <path d="M 37.796875 64.3125 
L 12.890625 25.390625 
L 37.796875 25.390625 
z
M 35.203125 72.90625 
L 47.609375 72.90625 
L 47.609375 25.390625 
L 58.015625 25.390625 
L 58.015625 17.1875 
L 47.609375 17.1875 
L 47.609375 0 
L 37.796875 0 
L 37.796875 17.1875 
L 4.890625 17.1875 
L 4.890625 26.703125 
z
" id="DejaVuSans-52"/>
       </defs>
       <use xlink:href="#DejaVuSans-52"/>
      </g>
     </g>
    </g>
    <g id="ytick_4">
     <g id="text_9">
      <!-- 6 -->
      <g transform="translate(17.006875 32.144063)scale(0.06 -0.06)">
       <use xlink:href="#DejaVuSans-54"/>
      </g>
     </g>
    </g>
    <g id="ytick_5">
     <g id="text_10">
      <!-- 8 -->
      <g transform="translate(17.006875 11.759063)scale(0.06 -0.06)">
       <use xlink:href="#DejaVuSans-56"/>
      </g>
     </g>
    </g>
    <g id="text_11">
     <!-- population [billion] -->
     <g style="fill:#262626;" transform="translate(11.759063 78.483281)rotate(-90)scale(0.06 -0.06)">
      <defs>
       <path d="M 18.109375 8.203125 
L 18.109375 -20.796875 
L 9.078125 -20.796875 
L 9.078125 54.6875 
L 18.109375 54.6875 
L 18.109375 46.390625 
Q 20.953125 51.265625 25.265625 53.625 
Q 29.59375 56 35.59375 56 
Q 45.5625 56 51.78125 48.09375 
Q 58.015625 40.1875 58.015625 27.296875 
Q 58.015625 14.40625 51.78125 6.484375 
Q 45.5625 -1.421875 35.59375 -1.421875 
Q 29.59375 -1.421875 25.265625 0.953125 
Q 20.953125 3.328125 18.109375 8.203125 
z
M 48.6875 27.296875 
Q 48.6875 37.203125 44.609375 42.84375 
Q 40.53125 48.484375 33.40625 48.484375 
Q 26.265625 48.484375 22.1875 42.84375 
Q 18.109375 37.203125 18.109375 27.296875 
Q 18.109375 17.390625 22.1875 11.75 
Q 26.265625 6.109375 33.40625 6.109375 
Q 40.53125 6.109375 44.609375 11.75 
Q 48.6875 17.390625 48.6875 27.296875 
z
" id="DejaVuSans-112"/>
       <path d="M 30.609375 48.390625 
Q 23.390625 48.390625 19.1875 42.75 
Q 14.984375 37.109375 14.984375 27.296875 
Q 14.984375 17.484375 19.15625 11.84375 
Q 23.34375 6.203125 30.609375 6.203125 
Q 37.796875 6.203125 41.984375 11.859375 
Q 46.1875 17.53125 46.1875 27.296875 
Q 46.1875 37.015625 41.984375 42.703125 
Q 37.796875 48.390625 30.609375 48.390625 
z
M 30.609375 56 
Q 42.328125 56 49.015625 48.375 
Q 55.71875 40.765625 55.71875 27.296875 
Q 55.71875 13.875 49.015625 6.21875 
Q 42.328125 -1.421875 30.609375 -1.421875 
Q 18.84375 -1.421875 12.171875 6.21875 
Q 5.515625 13.875 5.515625 27.296875 
Q 5.515625 40.765625 12.171875 48.375 
Q 18.84375 56 30.609375 56 
z
" id="DejaVuSans-111"/>
       <path d="M 8.5 21.578125 
L 8.5 54.6875 
L 17.484375 54.6875 
L 17.484375 21.921875 
Q 17.484375 14.15625 20.5 10.265625 
Q 23.53125 6.390625 29.59375 6.390625 
Q 36.859375 6.390625 41.078125 11.03125 
Q 45.3125 15.671875 45.3125 23.6875 
L 45.3125 54.6875 
L 54.296875 54.6875 
L 54.296875 0 
L 45.3125 0 
L 45.3125 8.40625 
Q 42.046875 3.421875 37.71875 1 
Q 33.40625 -1.421875 27.6875 -1.421875 
Q 18.265625 -1.421875 13.375 4.4375 
Q 8.5 10.296875 8.5 21.578125 
z
M 31.109375 56 
z
" id="DejaVuSans-117"/>
       <path d="M 9.421875 75.984375 
L 18.40625 75.984375 
L 18.40625 0 
L 9.421875 0 
z
" id="DejaVuSans-108"/>
       <path d="M 18.3125 70.21875 
L 18.3125 54.6875 
L 36.8125 54.6875 
L 36.8125 47.703125 
L 18.3125 47.703125 
L 18.3125 18.015625 
Q 18.3125 11.328125 20.140625 9.421875 
Q 21.96875 7.515625 27.59375 7.515625 
L 36.8125 7.515625 
L 36.8125 0 
L 27.59375 0 
Q 17.1875 0 13.234375 3.875 
Q 9.28125 7.765625 9.28125 18.015625 
L 9.28125 47.703125 
L 2.6875 47.703125 
L 2.6875 54.6875 
L 9.28125 54.6875 
L 9.28125 70.21875 
z
" id="DejaVuSans-116"/>
       <path d="M 9.421875 54.6875 
L 18.40625 54.6875 
L 18.40625 0 
L 9.421875 0 
z
M 9.421875 75.984375 
L 18.40625 75.984375 
L 18.40625 64.59375 
L 9.421875 64.59375 
z
" id="DejaVuSans-105"/>
       <path d="M 54.890625 33.015625 
L 54.890625 0 
L 45.90625 0 
L 45.90625 32.71875 
Q 45.90625 40.484375 42.875 44.328125 
Q 39.84375 48.1875 33.796875 48.1875 
Q 26.515625 48.1875 22.3125 43.546875 
Q 18.109375 38.921875 18.109375 30.90625 
L 18.109375 0 
L 9.078125 0 
L 9.078125 54.6875 
L 18.109375 54.6875 
L 18.109375 46.1875 
Q 21.34375 51.125 25.703125 53.5625 
Q 30.078125 56 35.796875 56 
Q 45.21875 56 50.046875 50.171875 
Q 54.890625 44.34375 54.890625 33.015625 
z
" id="DejaVuSans-110"/>
       <path id="DejaVuSans-32"/>
       <path d="M 8.59375 75.984375 
L 29.296875 75.984375 
L 29.296875 69 
L 17.578125 69 
L 17.578125 -6.203125 
L 29.296875 -6.203125 
L 29.296875 -13.1875 
L 8.59375 -13.1875 
z
" id="DejaVuSans-91"/>
       <path d="M 48.6875 27.296875 
Q 48.6875 37.203125 44.609375 42.84375 
Q 40.53125 48.484375 33.40625 48.484375 
Q 26.265625 48.484375 22.1875 42.84375 
Q 18.109375 37.203125 18.109375 27.296875 
Q 18.109375 17.390625 22.1875 11.75 
Q 26.265625 6.109375 33.40625 6.109375 
Q 40.53125 6.109375 44.609375 11.75 
Q 48.6875 17.390625 48.6875 27.296875 
z
M 18.109375 46.390625 
Q 20.953125 51.265625 25.265625 53.625 
Q 29.59375 56 35.59375 56 
Q 45.5625 56 51.78125 48.09375 
Q 58.015625 40.1875 58.015625 27.296875 
Q 58.015625 14.40625 51.78125 6.484375 
Q 45.5625 -1.421875 35.59375 -1.421875 
Q 29.59375 -1.421875 25.265625 0.953125 
Q 20.953125 3.328125 18.109375 8.203125 
L 18.109375 0 
L 9.078125 0 
L 9.078125 75.984375 
L 18.109375 75.984375 
z
" id="DejaVuSans-98"/>
       <path d="M 30.421875 75.984375 
L 30.421875 -13.1875 
L 9.71875 -13.1875 
L 9.71875 -6.203125 
L 21.390625 -6.203125 
L 21.390625 69 
L 9.71875 69 
L 9.71875 75.984375 
z
" id="DejaVuSans-93"/>
      </defs>
      <use xlink:href="#DejaVuSans-112"/>
      <use x="63.476562" xlink:href="#DejaVuSans-111"/>
      <use x="124.658203" xlink:href="#DejaVuSans-112"/>
      <use x="188.134766" xlink:href="#DejaVuSans-117"/>
      <use x="251.513672" xlink:href="#DejaVuSans-108"/>
      <use x="279.296875" xlink:href="#DejaVuSans-97"/>
      <use x="340.576172" xlink:href="#DejaVuSans-116"/>
      <use x="379.785156" xlink:href="#DejaVuSans-105"/>
      <use x="407.568359" xlink:href="#DejaVuSans-111"/>
      <use x="468.75" xlink:href="#DejaVuSans-110"/>
      <use x="532.128906" xlink:href="#DejaVuSans-32"/>
      <use x="563.916016" xlink:href="#DejaVuSans-91"/>
      <use x="602.929688" xlink:href="#DejaVuSans-98"/>
      <use x="666.40625" xlink:href="#DejaVuSans-105"/>
      <use x="694.189453" xlink:href="#DejaVuSans-108"/>
      <use x="721.972656" xlink:href="#DejaVuSans-108"/>
      <use x="749.755859" xlink:href="#DejaVuSans-105"/>
      <use x="777.539062" xlink:href="#DejaVuSans-111"/>
      <use x="838.720703" xlink:href="#DejaVuSans-110"/>
      <use x="902.099609" xlink:href="#DejaVuSans-93"/>
     </g>
    </g>
   </g>
   <g id="PolyCollection_1">
    <defs>
     <path d="M 10.374375 -44.511152 
L 10.374375 -26.31375 
L 11.769375 -26.31375 
L 13.164375 -26.31375 
L 14.559375 -26.31375 
L 15.954375 -26.31375 
L 17.349375 -26.31375 
L 18.744375 -26.31375 
L 20.139375 -26.31375 
L 21.534375 -26.31375 
L 22.929375 -26.31375 
L 24.324375 -26.31375 
L 25.719375 -26.31375 
L 27.114375 -26.31375 
L 28.509375 -26.31375 
L 29.904375 -26.31375 
L 31.299375 -26.31375 
L 32.694375 -26.31375 
L 34.089375 -26.31375 
L 35.484375 -26.31375 
L 36.879375 -26.31375 
L 38.274375 -26.31375 
L 39.669375 -26.31375 
L 41.064375 -26.31375 
L 42.459375 -26.31375 
L 43.854375 -26.31375 
L 45.249375 -26.31375 
L 46.644375 -26.31375 
L 48.039375 -26.31375 
L 49.434375 -26.31375 
L 50.829375 -26.31375 
L 52.224375 -26.31375 
L 53.619375 -26.31375 
L 55.014375 -26.31375 
L 56.409375 -26.31375 
L 57.804375 -26.31375 
L 59.199375 -26.31375 
L 60.594375 -26.31375 
L 61.989375 -26.31375 
L 63.384375 -26.31375 
L 64.779375 -26.31375 
L 66.174375 -26.31375 
L 67.569375 -26.31375 
L 68.964375 -26.31375 
L 70.359375 -26.31375 
L 71.754375 -26.31375 
L 73.149375 -26.31375 
L 74.544375 -26.31375 
L 75.939375 -26.31375 
L 77.334375 -26.31375 
L 78.729375 -26.31375 
L 80.124375 -26.31375 
L 81.519375 -26.31375 
L 82.914375 -26.31375 
L 84.309375 -26.31375 
L 85.704375 -26.31375 
L 87.099375 -26.31375 
L 88.494375 -26.31375 
L 89.889375 -26.31375 
L 91.284375 -26.31375 
L 92.679375 -26.31375 
L 94.074375 -26.31375 
L 95.469375 -26.31375 
L 96.864375 -26.31375 
L 98.259375 -26.31375 
L 99.654375 -26.31375 
L 101.049375 -26.31375 
L 102.444375 -26.31375 
L 103.839375 -26.31375 
L 105.234375 -26.31375 
L 105.234375 -61.100773 
L 105.234375 -61.100773 
L 103.839375 -61.070924 
L 102.444375 -61.032581 
L 101.049375 -60.983652 
L 99.654375 -60.923618 
L 98.259375 -60.850385 
L 96.864375 -60.767808 
L 95.469375 -60.678627 
L 94.074375 -60.594196 
L 92.679375 -60.529063 
L 91.284375 -60.459156 
L 89.889375 -60.385331 
L 88.494375 -60.299639 
L 87.099375 -60.216589 
L 85.704375 -60.135787 
L 84.309375 -60.04751 
L 82.914375 -59.95248 
L 81.519375 -59.850476 
L 80.124375 -59.711509 
L 78.729375 -59.527395 
L 77.334375 -59.333704 
L 75.939375 -59.13108 
L 74.544375 -58.915719 
L 73.149375 -58.684816 
L 71.754375 -58.441179 
L 70.359375 -58.184386 
L 68.964375 -57.911151 
L 67.569375 -57.617939 
L 66.174375 -57.306241 
L 64.779375 -56.968658 
L 63.384375 -56.610247 
L 61.989375 -56.246611 
L 60.594375 -55.882486 
L 59.199375 -55.523852 
L 57.804375 -55.172564 
L 56.409375 -54.829393 
L 55.014375 -54.492363 
L 53.619375 -54.17628 
L 52.224375 -53.876416 
L 50.829375 -53.574245 
L 49.434375 -53.273636 
L 48.039375 -52.94453 
L 46.644375 -52.57892 
L 45.249375 -52.207411 
L 43.854375 -51.81858 
L 42.459375 -51.441935 
L 41.064375 -51.049015 
L 39.669375 -50.642807 
L 38.274375 -50.229046 
L 36.879375 -49.818389 
L 35.484375 -49.409418 
L 34.089375 -49.007221 
L 32.694375 -48.616248 
L 31.299375 -48.239076 
L 29.904375 -47.879627 
L 28.509375 -47.592728 
L 27.114375 -47.319142 
L 25.719375 -47.054159 
L 24.324375 -46.794223 
L 22.929375 -46.545905 
L 21.534375 -46.306789 
L 20.139375 -46.075368 
L 18.744375 -45.849697 
L 17.349375 -45.630919 
L 15.954375 -45.415752 
L 14.559375 -45.199845 
L 13.164375 -44.979294 
L 11.769375 -44.749425 
L 10.374375 -44.511152 
z
" id="m3c6b070cdf" style="stroke:#ffffff;stroke-width:0.25;"/>
    </defs>
    <g clip-path="url(#p3801ae3741)">
     <use style="fill:#7aa974;stroke:#ffffff;stroke-width:0.25;" x="0" xlink:href="#m3c6b070cdf" y="117.333281"/>
    </g>
   </g>
   <g id="PolyCollection_2">
    <defs>
     <path d="M 10.374375 -52.16473 
L 10.374375 -44.511152 
L 11.769375 -44.749425 
L 13.164375 -44.979294 
L 14.559375 -45.199845 
L 15.954375 -45.415752 
L 17.349375 -45.630919 
L 18.744375 -45.849697 
L 20.139375 -46.075368 
L 21.534375 -46.306789 
L 22.929375 -46.545905 
L 24.324375 -46.794223 
L 25.719375 -47.054159 
L 27.114375 -47.319142 
L 28.509375 -47.592728 
L 29.904375 -47.879627 
L 31.299375 -48.239076 
L 32.694375 -48.616248 
L 34.089375 -49.007221 
L 35.484375 -49.409418 
L 36.879375 -49.818389 
L 38.274375 -50.229046 
L 39.669375 -50.642807 
L 41.064375 -51.049015 
L 42.459375 -51.441935 
L 43.854375 -51.81858 
L 45.249375 -52.207411 
L 46.644375 -52.57892 
L 48.039375 -52.94453 
L 49.434375 -53.273636 
L 50.829375 -53.574245 
L 52.224375 -53.876416 
L 53.619375 -54.17628 
L 55.014375 -54.492363 
L 56.409375 -54.829393 
L 57.804375 -55.172564 
L 59.199375 -55.523852 
L 60.594375 -55.882486 
L 61.989375 -56.246611 
L 63.384375 -56.610247 
L 64.779375 -56.968658 
L 66.174375 -57.306241 
L 67.569375 -57.617939 
L 68.964375 -57.911151 
L 70.359375 -58.184386 
L 71.754375 -58.441179 
L 73.149375 -58.684816 
L 74.544375 -58.915719 
L 75.939375 -59.13108 
L 77.334375 -59.333704 
L 78.729375 -59.527395 
L 80.124375 -59.711509 
L 81.519375 -59.850476 
L 82.914375 -59.95248 
L 84.309375 -60.04751 
L 85.704375 -60.135787 
L 87.099375 -60.216589 
L 88.494375 -60.299639 
L 89.889375 -60.385331 
L 91.284375 -60.459156 
L 92.679375 -60.529063 
L 94.074375 -60.594196 
L 95.469375 -60.678627 
L 96.864375 -60.767808 
L 98.259375 -60.850385 
L 99.654375 -60.923618 
L 101.049375 -60.983652 
L 102.444375 -61.032581 
L 103.839375 -61.070924 
L 105.234375 -61.100773 
L 105.234375 -104.111261 
L 105.234375 -104.111261 
L 103.839375 -103.269796 
L 102.444375 -102.420783 
L 101.049375 -101.565067 
L 99.654375 -100.703233 
L 98.259375 -99.836599 
L 96.864375 -98.967693 
L 95.469375 -98.099615 
L 94.074375 -97.234889 
L 92.679375 -96.374356 
L 91.284375 -95.518493 
L 89.889375 -94.668922 
L 88.494375 -93.82732 
L 87.099375 -92.99471 
L 85.704375 -92.171273 
L 84.309375 -91.356261 
L 82.914375 -90.54841 
L 81.519375 -89.745878 
L 80.124375 -88.946734 
L 78.729375 -88.150296 
L 77.334375 -87.355064 
L 75.939375 -86.557197 
L 74.544375 -85.751976 
L 73.149375 -84.935653 
L 71.754375 -84.108484 
L 70.359375 -83.270407 
L 68.964375 -82.417359 
L 67.569375 -81.544449 
L 66.174375 -80.649391 
L 64.779375 -79.729943 
L 63.384375 -78.790417 
L 61.989375 -77.843321 
L 60.594375 -76.905582 
L 59.199375 -75.989771 
L 57.804375 -75.099987 
L 56.409375 -74.234103 
L 55.014375 -73.390626 
L 53.619375 -72.565743 
L 52.224375 -71.75611 
L 50.829375 -70.96287 
L 49.434375 -70.186114 
L 48.039375 -69.419884 
L 46.644375 -68.656326 
L 45.249375 -67.889846 
L 43.854375 -67.118895 
L 42.459375 -66.345188 
L 41.064375 -65.570624 
L 39.669375 -64.798499 
L 38.274375 -64.031888 
L 36.879375 -63.270792 
L 35.484375 -62.516294 
L 34.089375 -61.774006 
L 32.694375 -61.051027 
L 31.299375 -60.352548 
L 29.904375 -59.680639 
L 28.509375 -59.034441 
L 27.114375 -58.412422 
L 25.719375 -57.811687 
L 24.324375 -57.229769 
L 22.929375 -56.665228 
L 21.534375 -56.117448 
L 20.139375 -55.586124 
L 18.744375 -55.070701 
L 17.349375 -54.569832 
L 15.954375 -54.081203 
L 14.559375 -53.60142 
L 13.164375 -53.125981 
L 11.769375 -52.649303 
L 10.374375 -52.16473 
z
" id="me4fffb8f27" style="stroke:#ffffff;stroke-width:0.25;"/>
    </defs>
    <g clip-path="url(#p3801ae3741)">
     <use style="fill:#738fc1;stroke:#ffffff;stroke-width:0.25;" x="0" xlink:href="#me4fffb8f27" y="117.333281"/>
    </g>
   </g>
   <g id="patch_3">
    <path d="M 24.324375 91.019531 
L 24.324375 9.479531 
" style="fill:none;stroke:#ffffff;stroke-linecap:square;stroke-linejoin:miter;stroke-width:0.8;"/>
   </g>
   <g id="patch_4">
    <path d="M 108.024375 91.019531 
L 108.024375 9.479531 
" style="fill:none;stroke:#ffffff;stroke-linecap:square;stroke-linejoin:miter;stroke-width:0.8;"/>
   </g>
   <g id="patch_5">
    <path d="M 24.324375 91.019531 
L 108.024375 91.019531 
" style="fill:none;stroke:#ffffff;stroke-linecap:square;stroke-linejoin:miter;stroke-width:0.8;"/>
   </g>
   <g id="patch_6">
    <path d="M 24.324375 9.479531 
L 108.024375 9.479531 
" style="fill:none;stroke:#ffffff;stroke-linecap:square;stroke-linejoin:miter;stroke-width:0.8;"/>
   </g>
  </g>
 </g>
 <defs>
  <clipPath id="p3801ae3741">
   <rect height="81.54" width="83.7" x="24.324375" y="9.479531"/>
  </clipPath>
 </defs>
</svg>
