<?xml version="1.0" encoding="utf-8" standalone="no"?>
<!DOCTYPE svg PUBLIC "-//W3C//DTD SVG 1.1//EN"
  "http://www.w3.org/Graphics/SVG/1.1/DTD/svg11.dtd">
<!-- Created with matplotlib (https://matplotlib.org/) -->
<svg height="288pt" version="1.1" viewBox="0 0 288 288" width="288pt" xmlns="http://www.w3.org/2000/svg" xmlns:xlink="http://www.w3.org/1999/xlink">
 <defs>
  <style type="text/css">
*{stroke-linecap:butt;stroke-linejoin:round;}
  </style>
 </defs>
 <g id="figure_1">
  <g id="patch_1">
   <path d="M 0 288 
L 288 288 
L 288 0 
L 0 0 
z
" style="fill:#ffffff;"/>
  </g>
  <g id="axes_1">
   <g id="patch_2">
    <path d="M 36 252 
L 259.2 252 
L 259.2 34.56 
L 36 34.56 
z
" style="fill:#e3dcd0;"/>
   </g>
   <g id="matplotlib.axis_1">
    <g id="xtick_1">
     <g id="text_1">
      <!-- 1950 -->
      <defs>
       <path d="M 12.40625 8.296875 
L 28.515625 8.296875 
L 28.515625 63.921875 
L 10.984375 60.40625 
L 10.984375 69.390625 
L 28.421875 72.90625 
L 38.28125 72.90625 
L 38.28125 8.296875 
L 54.390625 8.296875 
L 54.390625 0 
L 12.40625 0 
z
" id="DejaVuSans-49"/>
       <path d="M 10.984375 1.515625 
L 10.984375 10.5 
Q 14.703125 8.734375 18.5 7.8125 
Q 22.3125 6.890625 25.984375 6.890625 
Q 35.75 6.890625 40.890625 13.453125 
Q 46.046875 20.015625 46.78125 33.40625 
Q 43.953125 29.203125 39.59375 26.953125 
Q 35.25 24.703125 29.984375 24.703125 
Q 19.046875 24.703125 12.671875 31.3125 
Q 6.296875 37.9375 6.296875 49.421875 
Q 6.296875 60.640625 12.9375 67.421875 
Q 19.578125 74.21875 30.609375 74.21875 
Q 43.265625 74.21875 49.921875 64.515625 
Q 56.59375 54.828125 56.59375 36.375 
Q 56.59375 19.140625 48.40625 8.859375 
Q 40.234375 -1.421875 26.421875 -1.421875 
Q 22.703125 -1.421875 18.890625 -0.6875 
Q 15.09375 0.046875 10.984375 1.515625 
z
M 30.609375 32.421875 
Q 37.25 32.421875 41.125 36.953125 
Q 45.015625 41.5 45.015625 49.421875 
Q 45.015625 57.28125 41.125 61.84375 
Q 37.25 66.40625 30.609375 66.40625 
Q 23.96875 66.40625 20.09375 61.84375 
Q 16.21875 57.28125 16.21875 49.421875 
Q 16.21875 41.5 20.09375 36.953125 
Q 23.96875 32.421875 30.609375 32.421875 
z
" id="DejaVuSans-57"/>
       <path d="M 10.796875 72.90625 
L 49.515625 72.90625 
L 49.515625 64.59375 
L 19.828125 64.59375 
L 19.828125 46.734375 
Q 21.96875 47.46875 24.109375 47.828125 
Q 26.265625 48.1875 28.421875 48.1875 
Q 40.625 48.1875 47.75 41.5 
Q 54.890625 34.8125 54.890625 23.390625 
Q 54.890625 11.625 47.5625 5.09375 
Q 40.234375 -1.421875 26.90625 -1.421875 
Q 22.3125 -1.421875 17.546875 -0.640625 
Q 12.796875 0.140625 7.71875 1.703125 
L 7.71875 11.625 
Q 12.109375 9.234375 16.796875 8.0625 
Q 21.484375 6.890625 26.703125 6.890625 
Q 35.15625 6.890625 40.078125 11.328125 
Q 45.015625 15.765625 45.015625 23.390625 
Q 45.015625 31 40.078125 35.4375 
Q 35.15625 39.890625 26.703125 39.890625 
Q 22.75 39.890625 18.8125 39.015625 
Q 14.890625 38.140625 10.796875 36.28125 
z
" id="DejaVuSans-53"/>
       <path d="M 31.78125 66.40625 
Q 24.171875 66.40625 20.328125 58.90625 
Q 16.5 51.421875 16.5 36.375 
Q 16.5 21.390625 20.328125 13.890625 
Q 24.171875 6.390625 31.78125 6.390625 
Q 39.453125 6.390625 43.28125 13.890625 
Q 47.125 21.390625 47.125 36.375 
Q 47.125 51.421875 43.28125 58.90625 
Q 39.453125 66.40625 31.78125 66.40625 
z
M 31.78125 74.21875 
Q 44.046875 74.21875 50.515625 64.515625 
Q 56.984375 54.828125 56.984375 36.375 
Q 56.984375 17.96875 50.515625 8.265625 
Q 44.046875 -1.421875 31.78125 -1.421875 
Q 19.53125 -1.421875 13.0625 8.265625 
Q 6.59375 17.96875 6.59375 36.375 
Q 6.59375 54.828125 13.0625 64.515625 
Q 19.53125 74.21875 31.78125 74.21875 
z
" id="DejaVuSans-48"/>
      </defs>
      <g transform="translate(35.965455 261.57875)scale(0.08 -0.08)">
       <use xlink:href="#DejaVuSans-49"/>
       <use x="63.623047" xlink:href="#DejaVuSans-57"/>
       <use x="127.246094" xlink:href="#DejaVuSans-53"/>
       <use x="190.869141" xlink:href="#DejaVuSans-48"/>
      </g>
     </g>
    </g>
    <g id="xtick_2">
     <g id="text_2">
      <!-- 1970 -->
      <defs>
       <path d="M 8.203125 72.90625 
L 55.078125 72.90625 
L 55.078125 68.703125 
L 28.609375 0 
L 18.3125 0 
L 43.21875 64.59375 
L 8.203125 64.59375 
z
" id="DejaVuSans-55"/>
      </defs>
      <g transform="translate(95.644599 261.57875)scale(0.08 -0.08)">
       <use xlink:href="#DejaVuSans-49"/>
       <use x="63.623047" xlink:href="#DejaVuSans-57"/>
       <use x="127.246094" xlink:href="#DejaVuSans-55"/>
       <use x="190.869141" xlink:href="#DejaVuSans-48"/>
      </g>
     </g>
    </g>
    <g id="xtick_3">
     <g id="text_3">
      <!-- 1990 -->
      <g transform="translate(155.323743 261.57875)scale(0.08 -0.08)">
       <use xlink:href="#DejaVuSans-49"/>
       <use x="63.623047" xlink:href="#DejaVuSans-57"/>
       <use x="127.246094" xlink:href="#DejaVuSans-57"/>
       <use x="190.869141" xlink:href="#DejaVuSans-48"/>
      </g>
     </g>
    </g>
    <g id="xtick_4">
     <g id="text_4">
      <!-- 2010 -->
      <defs>
       <path d="M 19.1875 8.296875 
L 53.609375 8.296875 
L 53.609375 0 
L 7.328125 0 
L 7.328125 8.296875 
Q 12.9375 14.109375 22.625 23.890625 
Q 32.328125 33.6875 34.8125 36.53125 
Q 39.546875 41.84375 41.421875 45.53125 
Q 43.3125 49.21875 43.3125 52.78125 
Q 43.3125 58.59375 39.234375 62.25 
Q 35.15625 65.921875 28.609375 65.921875 
Q 23.96875 65.921875 18.8125 64.3125 
Q 13.671875 62.703125 7.8125 59.421875 
L 7.8125 69.390625 
Q 13.765625 71.78125 18.9375 73 
Q 24.125 74.21875 28.421875 74.21875 
Q 39.75 74.21875 46.484375 68.546875 
Q 53.21875 62.890625 53.21875 53.421875 
Q 53.21875 48.921875 51.53125 44.890625 
Q 49.859375 40.875 45.40625 35.40625 
Q 44.1875 33.984375 37.640625 27.21875 
Q 31.109375 20.453125 19.1875 8.296875 
z
" id="DejaVuSans-50"/>
      </defs>
      <g transform="translate(215.002888 261.57875)scale(0.08 -0.08)">
       <use xlink:href="#DejaVuSans-50"/>
       <use x="63.623047" xlink:href="#DejaVuSans-48"/>
       <use x="127.246094" xlink:href="#DejaVuSans-49"/>
       <use x="190.869141" xlink:href="#DejaVuSans-48"/>
      </g>
     </g>
    </g>
    <g id="text_5">
     <!-- year -->
     <defs>
      <path d="M 32.171875 -5.078125 
Q 28.375 -14.84375 24.75 -17.8125 
Q 21.140625 -20.796875 15.09375 -20.796875 
L 7.90625 -20.796875 
L 7.90625 -13.28125 
L 13.1875 -13.28125 
Q 16.890625 -13.28125 18.9375 -11.515625 
Q 21 -9.765625 23.484375 -3.21875 
L 25.09375 0.875 
L 2.984375 54.6875 
L 12.5 54.6875 
L 29.59375 11.921875 
L 46.6875 54.6875 
L 56.203125 54.6875 
z
" id="DejaVuSans-121"/>
      <path d="M 56.203125 29.59375 
L 56.203125 25.203125 
L 14.890625 25.203125 
Q 15.484375 15.921875 20.484375 11.0625 
Q 25.484375 6.203125 34.421875 6.203125 
Q 39.59375 6.203125 44.453125 7.46875 
Q 49.3125 8.734375 54.109375 11.28125 
L 54.109375 2.78125 
Q 49.265625 0.734375 44.1875 -0.34375 
Q 39.109375 -1.421875 33.890625 -1.421875 
Q 20.796875 -1.421875 13.15625 6.1875 
Q 5.515625 13.8125 5.515625 26.8125 
Q 5.515625 40.234375 12.765625 48.109375 
Q 20.015625 56 32.328125 56 
Q 43.359375 56 49.78125 48.890625 
Q 56.203125 41.796875 56.203125 29.59375 
z
M 47.21875 32.234375 
Q 47.125 39.59375 43.09375 43.984375 
Q 39.0625 48.390625 32.421875 48.390625 
Q 24.90625 48.390625 20.390625 44.140625 
Q 15.875 39.890625 15.1875 32.171875 
z
" id="DejaVuSans-101"/>
      <path d="M 34.28125 27.484375 
Q 23.390625 27.484375 19.1875 25 
Q 14.984375 22.515625 14.984375 16.5 
Q 14.984375 11.71875 18.140625 8.90625 
Q 21.296875 6.109375 26.703125 6.109375 
Q 34.1875 6.109375 38.703125 11.40625 
Q 43.21875 16.703125 43.21875 25.484375 
L 43.21875 27.484375 
z
M 52.203125 31.203125 
L 52.203125 0 
L 43.21875 0 
L 43.21875 8.296875 
Q 40.140625 3.328125 35.546875 0.953125 
Q 30.953125 -1.421875 24.3125 -1.421875 
Q 15.921875 -1.421875 10.953125 3.296875 
Q 6 8.015625 6 15.921875 
Q 6 25.140625 12.171875 29.828125 
Q 18.359375 34.515625 30.609375 34.515625 
L 43.21875 34.515625 
L 43.21875 35.40625 
Q 43.21875 41.609375 39.140625 45 
Q 35.0625 48.390625 27.6875 48.390625 
Q 23 48.390625 18.546875 47.265625 
Q 14.109375 46.140625 10.015625 43.890625 
L 10.015625 52.203125 
Q 14.9375 54.109375 19.578125 55.046875 
Q 24.21875 56 28.609375 56 
Q 40.484375 56 46.34375 49.84375 
Q 52.203125 43.703125 52.203125 31.203125 
z
" id="DejaVuSans-97"/>
      <path d="M 41.109375 46.296875 
Q 39.59375 47.171875 37.8125 47.578125 
Q 36.03125 48 33.890625 48 
Q 26.265625 48 22.1875 43.046875 
Q 18.109375 38.09375 18.109375 28.8125 
L 18.109375 0 
L 9.078125 0 
L 9.078125 54.6875 
L 18.109375 54.6875 
L 18.109375 46.1875 
Q 20.953125 51.171875 25.484375 53.578125 
Q 30.03125 56 36.53125 56 
Q 37.453125 56 38.578125 55.875 
Q 39.703125 55.765625 41.0625 55.515625 
z
" id="DejaVuSans-114"/>
     </defs>
     <g style="fill:#262626;" transform="translate(138.675625 273.32125)scale(0.08 -0.08)">
      <use xlink:href="#DejaVuSans-121"/>
      <use x="59.179688" xlink:href="#DejaVuSans-101"/>
      <use x="120.703125" xlink:href="#DejaVuSans-97"/>
      <use x="181.982422" xlink:href="#DejaVuSans-114"/>
     </g>
    </g>
   </g>
   <g id="matplotlib.axis_2">
    <g id="ytick_1">
     <g id="text_6">
      <!-- 1 -->
      <g transform="translate(27.41 230.961184)scale(0.08 -0.08)">
       <use xlink:href="#DejaVuSans-49"/>
      </g>
     </g>
    </g>
    <g id="ytick_2">
     <g id="text_7">
      <!-- 2 -->
      <g transform="translate(27.41 173.977152)scale(0.08 -0.08)">
       <use xlink:href="#DejaVuSans-50"/>
      </g>
     </g>
    </g>
    <g id="ytick_3">
     <g id="text_8">
      <!-- 3 -->
      <defs>
       <path d="M 40.578125 39.3125 
Q 47.65625 37.796875 51.625 33 
Q 55.609375 28.21875 55.609375 21.1875 
Q 55.609375 10.40625 48.1875 4.484375 
Q 40.765625 -1.421875 27.09375 -1.421875 
Q 22.515625 -1.421875 17.65625 -0.515625 
Q 12.796875 0.390625 7.625 2.203125 
L 7.625 11.71875 
Q 11.71875 9.328125 16.59375 8.109375 
Q 21.484375 6.890625 26.8125 6.890625 
Q 36.078125 6.890625 40.9375 10.546875 
Q 45.796875 14.203125 45.796875 21.1875 
Q 45.796875 27.640625 41.28125 31.265625 
Q 36.765625 34.90625 28.71875 34.90625 
L 20.21875 34.90625 
L 20.21875 43.015625 
L 29.109375 43.015625 
Q 36.375 43.015625 40.234375 45.921875 
Q 44.09375 48.828125 44.09375 54.296875 
Q 44.09375 59.90625 40.109375 62.90625 
Q 36.140625 65.921875 28.71875 65.921875 
Q 24.65625 65.921875 20.015625 65.03125 
Q 15.375 64.15625 9.8125 62.3125 
L 9.8125 71.09375 
Q 15.4375 72.65625 20.34375 73.4375 
Q 25.25 74.21875 29.59375 74.21875 
Q 40.828125 74.21875 47.359375 69.109375 
Q 53.90625 64.015625 53.90625 55.328125 
Q 53.90625 49.265625 50.4375 45.09375 
Q 46.96875 40.921875 40.578125 39.3125 
z
" id="DejaVuSans-51"/>
      </defs>
      <g transform="translate(27.41 116.99312)scale(0.08 -0.08)">
       <use xlink:href="#DejaVuSans-51"/>
      </g>
     </g>
    </g>
    <g id="ytick_4">
     <g id="text_9">
      <!-- 4 -->
      <defs>
       <path d="M 37.796875 64.3125 
L 12.890625 25.390625 
L 37.796875 25.390625 
z
M 35.203125 72.90625 
L 47.609375 72.90625 
L 47.609375 25.390625 
L 58.015625 25.390625 
L 58.015625 17.1875 
L 47.609375 17.1875 
L 47.609375 0 
L 37.796875 0 
L 37.796875 17.1875 
L 4.890625 17.1875 
L 4.890625 26.703125 
z
" id="DejaVuSans-52"/>
      </defs>
      <g transform="translate(27.41 60.009088)scale(0.08 -0.08)">
       <use xlink:href="#DejaVuSans-52"/>
      </g>
     </g>
    </g>
    <g id="text_10">
     <!-- population [billion] -->
     <defs>
      <path d="M 18.109375 8.203125 
L 18.109375 -20.796875 
L 9.078125 -20.796875 
L 9.078125 54.6875 
L 18.109375 54.6875 
L 18.109375 46.390625 
Q 20.953125 51.265625 25.265625 53.625 
Q 29.59375 56 35.59375 56 
Q 45.5625 56 51.78125 48.09375 
Q 58.015625 40.1875 58.015625 27.296875 
Q 58.015625 14.40625 51.78125 6.484375 
Q 45.5625 -1.421875 35.59375 -1.421875 
Q 29.59375 -1.421875 25.265625 0.953125 
Q 20.953125 3.328125 18.109375 8.203125 
z
M 48.6875 27.296875 
Q 48.6875 37.203125 44.609375 42.84375 
Q 40.53125 48.484375 33.40625 48.484375 
Q 26.265625 48.484375 22.1875 42.84375 
Q 18.109375 37.203125 18.109375 27.296875 
Q 18.109375 17.390625 22.1875 11.75 
Q 26.265625 6.109375 33.40625 6.109375 
Q 40.53125 6.109375 44.609375 11.75 
Q 48.6875 17.390625 48.6875 27.296875 
z
" id="DejaVuSans-112"/>
      <path d="M 30.609375 48.390625 
Q 23.390625 48.390625 19.1875 42.75 
Q 14.984375 37.109375 14.984375 27.296875 
Q 14.984375 17.484375 19.15625 11.84375 
Q 23.34375 6.203125 30.609375 6.203125 
Q 37.796875 6.203125 41.984375 11.859375 
Q 46.1875 17.53125 46.1875 27.296875 
Q 46.1875 37.015625 41.984375 42.703125 
Q 37.796875 48.390625 30.609375 48.390625 
z
M 30.609375 56 
Q 42.328125 56 49.015625 48.375 
Q 55.71875 40.765625 55.71875 27.296875 
Q 55.71875 13.875 49.015625 6.21875 
Q 42.328125 -1.421875 30.609375 -1.421875 
Q 18.84375 -1.421875 12.171875 6.21875 
Q 5.515625 13.875 5.515625 27.296875 
Q 5.515625 40.765625 12.171875 48.375 
Q 18.84375 56 30.609375 56 
z
" id="DejaVuSans-111"/>
      <path d="M 8.5 21.578125 
L 8.5 54.6875 
L 17.484375 54.6875 
L 17.484375 21.921875 
Q 17.484375 14.15625 20.5 10.265625 
Q 23.53125 6.390625 29.59375 6.390625 
Q 36.859375 6.390625 41.078125 11.03125 
Q 45.3125 15.671875 45.3125 23.6875 
L 45.3125 54.6875 
L 54.296875 54.6875 
L 54.296875 0 
L 45.3125 0 
L 45.3125 8.40625 
Q 42.046875 3.421875 37.71875 1 
Q 33.40625 -1.421875 27.6875 -1.421875 
Q 18.265625 -1.421875 13.375 4.4375 
Q 8.5 10.296875 8.5 21.578125 
z
M 31.109375 56 
z
" id="DejaVuSans-117"/>
      <path d="M 9.421875 75.984375 
L 18.40625 75.984375 
L 18.40625 0 
L 9.421875 0 
z
" id="DejaVuSans-108"/>
      <path d="M 18.3125 70.21875 
L 18.3125 54.6875 
L 36.8125 54.6875 
L 36.8125 47.703125 
L 18.3125 47.703125 
L 18.3125 18.015625 
Q 18.3125 11.328125 20.140625 9.421875 
Q 21.96875 7.515625 27.59375 7.515625 
L 36.8125 7.515625 
L 36.8125 0 
L 27.59375 0 
Q 17.1875 0 13.234375 3.875 
Q 9.28125 7.765625 9.28125 18.015625 
L 9.28125 47.703125 
L 2.6875 47.703125 
L 2.6875 54.6875 
L 9.28125 54.6875 
L 9.28125 70.21875 
z
" id="DejaVuSans-116"/>
      <path d="M 9.421875 54.6875 
L 18.40625 54.6875 
L 18.40625 0 
L 9.421875 0 
z
M 9.421875 75.984375 
L 18.40625 75.984375 
L 18.40625 64.59375 
L 9.421875 64.59375 
z
" id="DejaVuSans-105"/>
      <path d="M 54.890625 33.015625 
L 54.890625 0 
L 45.90625 0 
L 45.90625 32.71875 
Q 45.90625 40.484375 42.875 44.328125 
Q 39.84375 48.1875 33.796875 48.1875 
Q 26.515625 48.1875 22.3125 43.546875 
Q 18.109375 38.921875 18.109375 30.90625 
L 18.109375 0 
L 9.078125 0 
L 9.078125 54.6875 
L 18.109375 54.6875 
L 18.109375 46.1875 
Q 21.34375 51.125 25.703125 53.5625 
Q 30.078125 56 35.796875 56 
Q 45.21875 56 50.046875 50.171875 
Q 54.890625 44.34375 54.890625 33.015625 
z
" id="DejaVuSans-110"/>
      <path id="DejaVuSans-32"/>
      <path d="M 8.59375 75.984375 
L 29.296875 75.984375 
L 29.296875 69 
L 17.578125 69 
L 17.578125 -6.203125 
L 29.296875 -6.203125 
L 29.296875 -13.1875 
L 8.59375 -13.1875 
z
" id="DejaVuSans-91"/>
      <path d="M 48.6875 27.296875 
Q 48.6875 37.203125 44.609375 42.84375 
Q 40.53125 48.484375 33.40625 48.484375 
Q 26.265625 48.484375 22.1875 42.84375 
Q 18.109375 37.203125 18.109375 27.296875 
Q 18.109375 17.390625 22.1875 11.75 
Q 26.265625 6.109375 33.40625 6.109375 
Q 40.53125 6.109375 44.609375 11.75 
Q 48.6875 17.390625 48.6875 27.296875 
z
M 18.109375 46.390625 
Q 20.953125 51.265625 25.265625 53.625 
Q 29.59375 56 35.59375 56 
Q 45.5625 56 51.78125 48.09375 
Q 58.015625 40.1875 58.015625 27.296875 
Q 58.015625 14.40625 51.78125 6.484375 
Q 45.5625 -1.421875 35.59375 -1.421875 
Q 29.59375 -1.421875 25.265625 0.953125 
Q 20.953125 3.328125 18.109375 8.203125 
L 18.109375 0 
L 9.078125 0 
L 9.078125 75.984375 
L 18.109375 75.984375 
z
" id="DejaVuSans-98"/>
      <path d="M 30.421875 75.984375 
L 30.421875 -13.1875 
L 9.71875 -13.1875 
L 9.71875 -6.203125 
L 21.390625 -6.203125 
L 21.390625 69 
L 9.71875 69 
L 9.71875 75.984375 
z
" id="DejaVuSans-93"/>
     </defs>
     <g style="fill:#262626;" transform="translate(21.74625 180.925)rotate(-90)scale(0.08 -0.08)">
      <use xlink:href="#DejaVuSans-112"/>
      <use x="63.476562" xlink:href="#DejaVuSans-111"/>
      <use x="124.658203" xlink:href="#DejaVuSans-112"/>
      <use x="188.134766" xlink:href="#DejaVuSans-117"/>
      <use x="251.513672" xlink:href="#DejaVuSans-108"/>
      <use x="279.296875" xlink:href="#DejaVuSans-97"/>
      <use x="340.576172" xlink:href="#DejaVuSans-116"/>
      <use x="379.785156" xlink:href="#DejaVuSans-105"/>
      <use x="407.568359" xlink:href="#DejaVuSans-111"/>
      <use x="468.75" xlink:href="#DejaVuSans-110"/>
      <use x="532.128906" xlink:href="#DejaVuSans-32"/>
      <use x="563.916016" xlink:href="#DejaVuSans-91"/>
      <use x="602.929688" xlink:href="#DejaVuSans-98"/>
      <use x="666.40625" xlink:href="#DejaVuSans-105"/>
      <use x="694.189453" xlink:href="#DejaVuSans-108"/>
      <use x="721.972656" xlink:href="#DejaVuSans-108"/>
      <use x="749.755859" xlink:href="#DejaVuSans-105"/>
      <use x="777.539062" xlink:href="#DejaVuSans-111"/>
      <use x="838.720703" xlink:href="#DejaVuSans-110"/>
      <use x="902.099609" xlink:href="#DejaVuSans-93"/>
     </g>
    </g>
   </g>
   <g id="line2d_1">
    <path clip-path="url(#p748a5878bf)" d="M 46.145455 242.116364 
L 49.129412 240.739358 
L 52.113369 239.359499 
L 55.097326 237.934474 
L 58.081283 236.459207 
L 61.065241 234.930341 
L 64.049198 233.353232 
L 67.033155 231.73329 
L 70.017112 230.056595 
L 73.00107 228.330923 
L 75.985027 226.562995 
L 78.968984 224.762862 
L 81.952941 222.885748 
L 84.936898 220.937735 
L 87.920856 218.928968 
L 90.904813 217.182072 
L 93.88877 215.385719 
L 96.872727 213.529548 
L 99.856684 211.628169 
L 102.840642 209.696408 
L 105.824599 207.737182 
L 108.808556 205.764474 
L 111.792513 203.718708 
L 114.776471 201.585022 
L 117.760428 199.365136 
L 120.744385 197.228785 
L 123.728342 195.020588 
L 126.712299 192.795751 
L 129.696257 190.351888 
L 132.680214 187.689849 
L 135.664171 184.944393 
L 138.648128 182.094384 
L 141.632086 179.249797 
L 144.616043 176.418362 
L 147.6 173.495993 
L 150.583957 170.485377 
L 153.567914 167.370326 
L 156.551872 164.16337 
L 159.535829 160.901377 
L 162.519786 157.652491 
L 165.503743 154.39941 
L 168.487701 151.137972 
L 171.471658 147.897008 
L 174.455615 144.655401 
L 177.439572 141.405568 
L 180.423529 138.143168 
L 183.407487 134.870214 
L 186.391444 131.572436 
L 189.375401 128.244565 
L 192.359358 124.881479 
L 195.343316 121.458114 
L 198.327273 117.767201 
L 201.31123 113.850705 
L 204.295187 109.865483 
L 207.279144 105.802471 
L 210.263102 101.650559 
L 213.247059 97.459932 
L 216.231016 93.233806 
L 219.214973 88.896776 
L 222.19893 84.502673 
L 225.182888 80.05576 
L 228.166845 75.693306 
L 231.150802 71.338659 
L 234.134759 66.94247 
L 237.118717 62.506742 
L 240.102674 58.024051 
L 243.086631 53.513479 
L 246.070588 48.981202 
L 249.054545 44.443636 
" style="fill:none;stroke:#1f77b4;stroke-linecap:round;stroke-width:0.5;"/>
    <defs>
     <path d="M 0 0.5 
C 0.132602 0.5 0.25979 0.447317 0.353553 0.353553 
C 0.447317 0.25979 0.5 0.132602 0.5 0 
C 0.5 -0.132602 0.447317 -0.25979 0.353553 -0.353553 
C 0.25979 -0.447317 0.132602 -0.5 0 -0.5 
C -0.132602 -0.5 -0.25979 -0.447317 -0.353553 -0.353553 
C -0.447317 -0.25979 -0.5 -0.132602 -0.5 0 
C -0.5 0.132602 -0.447317 0.25979 -0.353553 0.353553 
C -0.25979 0.447317 -0.132602 0.5 0 0.5 
z
" id="m0066f37bc3" style="stroke:#1f77b4;"/>
    </defs>
    <g clip-path="url(#p748a5878bf)">
     <use style="fill:#1f77b4;stroke:#1f77b4;" x="46.145455" xlink:href="#m0066f37bc3" y="242.116364"/>
     <use style="fill:#1f77b4;stroke:#1f77b4;" x="49.129412" xlink:href="#m0066f37bc3" y="240.739358"/>
     <use style="fill:#1f77b4;stroke:#1f77b4;" x="52.113369" xlink:href="#m0066f37bc3" y="239.359499"/>
     <use style="fill:#1f77b4;stroke:#1f77b4;" x="55.097326" xlink:href="#m0066f37bc3" y="237.934474"/>
     <use style="fill:#1f77b4;stroke:#1f77b4;" x="58.081283" xlink:href="#m0066f37bc3" y="236.459207"/>
     <use style="fill:#1f77b4;stroke:#1f77b4;" x="61.065241" xlink:href="#m0066f37bc3" y="234.930341"/>
     <use style="fill:#1f77b4;stroke:#1f77b4;" x="64.049198" xlink:href="#m0066f37bc3" y="233.353232"/>
     <use style="fill:#1f77b4;stroke:#1f77b4;" x="67.033155" xlink:href="#m0066f37bc3" y="231.73329"/>
     <use style="fill:#1f77b4;stroke:#1f77b4;" x="70.017112" xlink:href="#m0066f37bc3" y="230.056595"/>
     <use style="fill:#1f77b4;stroke:#1f77b4;" x="73.00107" xlink:href="#m0066f37bc3" y="228.330923"/>
     <use style="fill:#1f77b4;stroke:#1f77b4;" x="75.985027" xlink:href="#m0066f37bc3" y="226.562995"/>
     <use style="fill:#1f77b4;stroke:#1f77b4;" x="78.968984" xlink:href="#m0066f37bc3" y="224.762862"/>
     <use style="fill:#1f77b4;stroke:#1f77b4;" x="81.952941" xlink:href="#m0066f37bc3" y="222.885748"/>
     <use style="fill:#1f77b4;stroke:#1f77b4;" x="84.936898" xlink:href="#m0066f37bc3" y="220.937735"/>
     <use style="fill:#1f77b4;stroke:#1f77b4;" x="87.920856" xlink:href="#m0066f37bc3" y="218.928968"/>
     <use style="fill:#1f77b4;stroke:#1f77b4;" x="90.904813" xlink:href="#m0066f37bc3" y="217.182072"/>
     <use style="fill:#1f77b4;stroke:#1f77b4;" x="93.88877" xlink:href="#m0066f37bc3" y="215.385719"/>
     <use style="fill:#1f77b4;stroke:#1f77b4;" x="96.872727" xlink:href="#m0066f37bc3" y="213.529548"/>
     <use style="fill:#1f77b4;stroke:#1f77b4;" x="99.856684" xlink:href="#m0066f37bc3" y="211.628169"/>
     <use style="fill:#1f77b4;stroke:#1f77b4;" x="102.840642" xlink:href="#m0066f37bc3" y="209.696408"/>
     <use style="fill:#1f77b4;stroke:#1f77b4;" x="105.824599" xlink:href="#m0066f37bc3" y="207.737182"/>
     <use style="fill:#1f77b4;stroke:#1f77b4;" x="108.808556" xlink:href="#m0066f37bc3" y="205.764474"/>
     <use style="fill:#1f77b4;stroke:#1f77b4;" x="111.792513" xlink:href="#m0066f37bc3" y="203.718708"/>
     <use style="fill:#1f77b4;stroke:#1f77b4;" x="114.776471" xlink:href="#m0066f37bc3" y="201.585022"/>
     <use style="fill:#1f77b4;stroke:#1f77b4;" x="117.760428" xlink:href="#m0066f37bc3" y="199.365136"/>
     <use style="fill:#1f77b4;stroke:#1f77b4;" x="120.744385" xlink:href="#m0066f37bc3" y="197.228785"/>
     <use style="fill:#1f77b4;stroke:#1f77b4;" x="123.728342" xlink:href="#m0066f37bc3" y="195.020588"/>
     <use style="fill:#1f77b4;stroke:#1f77b4;" x="126.712299" xlink:href="#m0066f37bc3" y="192.795751"/>
     <use style="fill:#1f77b4;stroke:#1f77b4;" x="129.696257" xlink:href="#m0066f37bc3" y="190.351888"/>
     <use style="fill:#1f77b4;stroke:#1f77b4;" x="132.680214" xlink:href="#m0066f37bc3" y="187.689849"/>
     <use style="fill:#1f77b4;stroke:#1f77b4;" x="135.664171" xlink:href="#m0066f37bc3" y="184.944393"/>
     <use style="fill:#1f77b4;stroke:#1f77b4;" x="138.648128" xlink:href="#m0066f37bc3" y="182.094384"/>
     <use style="fill:#1f77b4;stroke:#1f77b4;" x="141.632086" xlink:href="#m0066f37bc3" y="179.249797"/>
     <use style="fill:#1f77b4;stroke:#1f77b4;" x="144.616043" xlink:href="#m0066f37bc3" y="176.418362"/>
     <use style="fill:#1f77b4;stroke:#1f77b4;" x="147.6" xlink:href="#m0066f37bc3" y="173.495993"/>
     <use style="fill:#1f77b4;stroke:#1f77b4;" x="150.583957" xlink:href="#m0066f37bc3" y="170.485377"/>
     <use style="fill:#1f77b4;stroke:#1f77b4;" x="153.567914" xlink:href="#m0066f37bc3" y="167.370326"/>
     <use style="fill:#1f77b4;stroke:#1f77b4;" x="156.551872" xlink:href="#m0066f37bc3" y="164.16337"/>
     <use style="fill:#1f77b4;stroke:#1f77b4;" x="159.535829" xlink:href="#m0066f37bc3" y="160.901377"/>
     <use style="fill:#1f77b4;stroke:#1f77b4;" x="162.519786" xlink:href="#m0066f37bc3" y="157.652491"/>
     <use style="fill:#1f77b4;stroke:#1f77b4;" x="165.503743" xlink:href="#m0066f37bc3" y="154.39941"/>
     <use style="fill:#1f77b4;stroke:#1f77b4;" x="168.487701" xlink:href="#m0066f37bc3" y="151.137972"/>
     <use style="fill:#1f77b4;stroke:#1f77b4;" x="171.471658" xlink:href="#m0066f37bc3" y="147.897008"/>
     <use style="fill:#1f77b4;stroke:#1f77b4;" x="174.455615" xlink:href="#m0066f37bc3" y="144.655401"/>
     <use style="fill:#1f77b4;stroke:#1f77b4;" x="177.439572" xlink:href="#m0066f37bc3" y="141.405568"/>
     <use style="fill:#1f77b4;stroke:#1f77b4;" x="180.423529" xlink:href="#m0066f37bc3" y="138.143168"/>
     <use style="fill:#1f77b4;stroke:#1f77b4;" x="183.407487" xlink:href="#m0066f37bc3" y="134.870214"/>
     <use style="fill:#1f77b4;stroke:#1f77b4;" x="186.391444" xlink:href="#m0066f37bc3" y="131.572436"/>
     <use style="fill:#1f77b4;stroke:#1f77b4;" x="189.375401" xlink:href="#m0066f37bc3" y="128.244565"/>
     <use style="fill:#1f77b4;stroke:#1f77b4;" x="192.359358" xlink:href="#m0066f37bc3" y="124.881479"/>
     <use style="fill:#1f77b4;stroke:#1f77b4;" x="195.343316" xlink:href="#m0066f37bc3" y="121.458114"/>
     <use style="fill:#1f77b4;stroke:#1f77b4;" x="198.327273" xlink:href="#m0066f37bc3" y="117.767201"/>
     <use style="fill:#1f77b4;stroke:#1f77b4;" x="201.31123" xlink:href="#m0066f37bc3" y="113.850705"/>
     <use style="fill:#1f77b4;stroke:#1f77b4;" x="204.295187" xlink:href="#m0066f37bc3" y="109.865483"/>
     <use style="fill:#1f77b4;stroke:#1f77b4;" x="207.279144" xlink:href="#m0066f37bc3" y="105.802471"/>
     <use style="fill:#1f77b4;stroke:#1f77b4;" x="210.263102" xlink:href="#m0066f37bc3" y="101.650559"/>
     <use style="fill:#1f77b4;stroke:#1f77b4;" x="213.247059" xlink:href="#m0066f37bc3" y="97.459932"/>
     <use style="fill:#1f77b4;stroke:#1f77b4;" x="216.231016" xlink:href="#m0066f37bc3" y="93.233806"/>
     <use style="fill:#1f77b4;stroke:#1f77b4;" x="219.214973" xlink:href="#m0066f37bc3" y="88.896776"/>
     <use style="fill:#1f77b4;stroke:#1f77b4;" x="222.19893" xlink:href="#m0066f37bc3" y="84.502673"/>
     <use style="fill:#1f77b4;stroke:#1f77b4;" x="225.182888" xlink:href="#m0066f37bc3" y="80.05576"/>
     <use style="fill:#1f77b4;stroke:#1f77b4;" x="228.166845" xlink:href="#m0066f37bc3" y="75.693306"/>
     <use style="fill:#1f77b4;stroke:#1f77b4;" x="231.150802" xlink:href="#m0066f37bc3" y="71.338659"/>
     <use style="fill:#1f77b4;stroke:#1f77b4;" x="234.134759" xlink:href="#m0066f37bc3" y="66.94247"/>
     <use style="fill:#1f77b4;stroke:#1f77b4;" x="237.118717" xlink:href="#m0066f37bc3" y="62.506742"/>
     <use style="fill:#1f77b4;stroke:#1f77b4;" x="240.102674" xlink:href="#m0066f37bc3" y="58.024051"/>
     <use style="fill:#1f77b4;stroke:#1f77b4;" x="243.086631" xlink:href="#m0066f37bc3" y="53.513479"/>
     <use style="fill:#1f77b4;stroke:#1f77b4;" x="246.070588" xlink:href="#m0066f37bc3" y="48.981202"/>
     <use style="fill:#1f77b4;stroke:#1f77b4;" x="249.054545" xlink:href="#m0066f37bc3" y="44.443636"/>
    </g>
   </g>
   <g id="line2d_2">
    <path clip-path="url(#p748a5878bf)" d="M 46.145455 183.168158 
L 49.129412 181.836025 
L 52.113369 180.550878 
L 55.097326 179.317828 
L 58.081283 178.110735 
L 61.065241 176.907784 
L 64.049198 175.684645 
L 67.033155 174.422971 
L 70.017112 173.129147 
L 73.00107 171.792302 
L 75.985027 170.404007 
L 78.968984 168.950765 
L 81.952941 167.469299 
L 84.936898 165.939741 
L 87.920856 164.335754 
L 90.904813 162.326153 
L 93.88877 160.217464 
L 96.872727 158.03162 
L 99.856684 155.783029 
L 102.840642 153.496558 
L 105.824599 151.200665 
L 108.808556 148.887418 
L 111.792513 146.6164 
L 114.776471 144.419669 
L 117.760428 142.313929 
L 120.744385 140.140062 
L 123.728342 138.063036 
L 126.712299 136.018991 
L 129.696257 134.179031 
L 132.680214 132.498394 
L 135.664171 130.809023 
L 138.648128 129.132549 
L 141.632086 127.365396 
L 144.616043 125.481136 
L 147.6 123.562539 
L 150.583957 121.598567 
L 153.567914 119.593521 
L 156.551872 117.557781 
L 159.535829 115.524771 
L 162.519786 113.520973 
L 165.503743 111.63362 
L 168.487701 109.890985 
L 171.471658 108.251703 
L 174.455615 106.724106 
L 177.439572 105.288435 
L 180.423529 103.926312 
L 183.407487 102.635381 
L 186.391444 101.431347 
L 189.375401 100.298519 
L 192.359358 99.215638 
L 195.343316 98.186293 
L 198.327273 97.409363 
L 201.31123 96.83908 
L 204.295187 96.307786 
L 207.279144 95.814248 
L 210.263102 95.362504 
L 213.247059 94.898189 
L 216.231016 94.419104 
L 219.214973 94.006364 
L 222.19893 93.615529 
L 225.182888 93.251389 
L 228.166845 92.77935 
L 231.150802 92.280761 
L 234.134759 91.819089 
L 237.118717 91.40966 
L 240.102674 91.074021 
L 243.086631 90.800472 
L 246.070588 90.586103 
L 249.054545 90.419226 
" style="fill:none;stroke:#ff7f0e;stroke-linecap:round;stroke-width:0.5;"/>
    <defs>
     <path d="M 0 0.5 
C 0.132602 0.5 0.25979 0.447317 0.353553 0.353553 
C 0.447317 0.25979 0.5 0.132602 0.5 0 
C 0.5 -0.132602 0.447317 -0.25979 0.353553 -0.353553 
C 0.25979 -0.447317 0.132602 -0.5 0 -0.5 
C -0.132602 -0.5 -0.25979 -0.447317 -0.353553 -0.353553 
C -0.447317 -0.25979 -0.5 -0.132602 -0.5 0 
C -0.5 0.132602 -0.447317 0.25979 -0.353553 0.353553 
C -0.25979 0.447317 -0.132602 0.5 0 0.5 
z
" id="m6b11f0f93f" style="stroke:#ff7f0e;"/>
    </defs>
    <g clip-path="url(#p748a5878bf)">
     <use style="fill:#ff7f0e;stroke:#ff7f0e;" x="46.145455" xlink:href="#m6b11f0f93f" y="183.168158"/>
     <use style="fill:#ff7f0e;stroke:#ff7f0e;" x="49.129412" xlink:href="#m6b11f0f93f" y="181.836025"/>
     <use style="fill:#ff7f0e;stroke:#ff7f0e;" x="52.113369" xlink:href="#m6b11f0f93f" y="180.550878"/>
     <use style="fill:#ff7f0e;stroke:#ff7f0e;" x="55.097326" xlink:href="#m6b11f0f93f" y="179.317828"/>
     <use style="fill:#ff7f0e;stroke:#ff7f0e;" x="58.081283" xlink:href="#m6b11f0f93f" y="178.110735"/>
     <use style="fill:#ff7f0e;stroke:#ff7f0e;" x="61.065241" xlink:href="#m6b11f0f93f" y="176.907784"/>
     <use style="fill:#ff7f0e;stroke:#ff7f0e;" x="64.049198" xlink:href="#m6b11f0f93f" y="175.684645"/>
     <use style="fill:#ff7f0e;stroke:#ff7f0e;" x="67.033155" xlink:href="#m6b11f0f93f" y="174.422971"/>
     <use style="fill:#ff7f0e;stroke:#ff7f0e;" x="70.017112" xlink:href="#m6b11f0f93f" y="173.129147"/>
     <use style="fill:#ff7f0e;stroke:#ff7f0e;" x="73.00107" xlink:href="#m6b11f0f93f" y="171.792302"/>
     <use style="fill:#ff7f0e;stroke:#ff7f0e;" x="75.985027" xlink:href="#m6b11f0f93f" y="170.404007"/>
     <use style="fill:#ff7f0e;stroke:#ff7f0e;" x="78.968984" xlink:href="#m6b11f0f93f" y="168.950765"/>
     <use style="fill:#ff7f0e;stroke:#ff7f0e;" x="81.952941" xlink:href="#m6b11f0f93f" y="167.469299"/>
     <use style="fill:#ff7f0e;stroke:#ff7f0e;" x="84.936898" xlink:href="#m6b11f0f93f" y="165.939741"/>
     <use style="fill:#ff7f0e;stroke:#ff7f0e;" x="87.920856" xlink:href="#m6b11f0f93f" y="164.335754"/>
     <use style="fill:#ff7f0e;stroke:#ff7f0e;" x="90.904813" xlink:href="#m6b11f0f93f" y="162.326153"/>
     <use style="fill:#ff7f0e;stroke:#ff7f0e;" x="93.88877" xlink:href="#m6b11f0f93f" y="160.217464"/>
     <use style="fill:#ff7f0e;stroke:#ff7f0e;" x="96.872727" xlink:href="#m6b11f0f93f" y="158.03162"/>
     <use style="fill:#ff7f0e;stroke:#ff7f0e;" x="99.856684" xlink:href="#m6b11f0f93f" y="155.783029"/>
     <use style="fill:#ff7f0e;stroke:#ff7f0e;" x="102.840642" xlink:href="#m6b11f0f93f" y="153.496558"/>
     <use style="fill:#ff7f0e;stroke:#ff7f0e;" x="105.824599" xlink:href="#m6b11f0f93f" y="151.200665"/>
     <use style="fill:#ff7f0e;stroke:#ff7f0e;" x="108.808556" xlink:href="#m6b11f0f93f" y="148.887418"/>
     <use style="fill:#ff7f0e;stroke:#ff7f0e;" x="111.792513" xlink:href="#m6b11f0f93f" y="146.6164"/>
     <use style="fill:#ff7f0e;stroke:#ff7f0e;" x="114.776471" xlink:href="#m6b11f0f93f" y="144.419669"/>
     <use style="fill:#ff7f0e;stroke:#ff7f0e;" x="117.760428" xlink:href="#m6b11f0f93f" y="142.313929"/>
     <use style="fill:#ff7f0e;stroke:#ff7f0e;" x="120.744385" xlink:href="#m6b11f0f93f" y="140.140062"/>
     <use style="fill:#ff7f0e;stroke:#ff7f0e;" x="123.728342" xlink:href="#m6b11f0f93f" y="138.063036"/>
     <use style="fill:#ff7f0e;stroke:#ff7f0e;" x="126.712299" xlink:href="#m6b11f0f93f" y="136.018991"/>
     <use style="fill:#ff7f0e;stroke:#ff7f0e;" x="129.696257" xlink:href="#m6b11f0f93f" y="134.179031"/>
     <use style="fill:#ff7f0e;stroke:#ff7f0e;" x="132.680214" xlink:href="#m6b11f0f93f" y="132.498394"/>
     <use style="fill:#ff7f0e;stroke:#ff7f0e;" x="135.664171" xlink:href="#m6b11f0f93f" y="130.809023"/>
     <use style="fill:#ff7f0e;stroke:#ff7f0e;" x="138.648128" xlink:href="#m6b11f0f93f" y="129.132549"/>
     <use style="fill:#ff7f0e;stroke:#ff7f0e;" x="141.632086" xlink:href="#m6b11f0f93f" y="127.365396"/>
     <use style="fill:#ff7f0e;stroke:#ff7f0e;" x="144.616043" xlink:href="#m6b11f0f93f" y="125.481136"/>
     <use style="fill:#ff7f0e;stroke:#ff7f0e;" x="147.6" xlink:href="#m6b11f0f93f" y="123.562539"/>
     <use style="fill:#ff7f0e;stroke:#ff7f0e;" x="150.583957" xlink:href="#m6b11f0f93f" y="121.598567"/>
     <use style="fill:#ff7f0e;stroke:#ff7f0e;" x="153.567914" xlink:href="#m6b11f0f93f" y="119.593521"/>
     <use style="fill:#ff7f0e;stroke:#ff7f0e;" x="156.551872" xlink:href="#m6b11f0f93f" y="117.557781"/>
     <use style="fill:#ff7f0e;stroke:#ff7f0e;" x="159.535829" xlink:href="#m6b11f0f93f" y="115.524771"/>
     <use style="fill:#ff7f0e;stroke:#ff7f0e;" x="162.519786" xlink:href="#m6b11f0f93f" y="113.520973"/>
     <use style="fill:#ff7f0e;stroke:#ff7f0e;" x="165.503743" xlink:href="#m6b11f0f93f" y="111.63362"/>
     <use style="fill:#ff7f0e;stroke:#ff7f0e;" x="168.487701" xlink:href="#m6b11f0f93f" y="109.890985"/>
     <use style="fill:#ff7f0e;stroke:#ff7f0e;" x="171.471658" xlink:href="#m6b11f0f93f" y="108.251703"/>
     <use style="fill:#ff7f0e;stroke:#ff7f0e;" x="174.455615" xlink:href="#m6b11f0f93f" y="106.724106"/>
     <use style="fill:#ff7f0e;stroke:#ff7f0e;" x="177.439572" xlink:href="#m6b11f0f93f" y="105.288435"/>
     <use style="fill:#ff7f0e;stroke:#ff7f0e;" x="180.423529" xlink:href="#m6b11f0f93f" y="103.926312"/>
     <use style="fill:#ff7f0e;stroke:#ff7f0e;" x="183.407487" xlink:href="#m6b11f0f93f" y="102.635381"/>
     <use style="fill:#ff7f0e;stroke:#ff7f0e;" x="186.391444" xlink:href="#m6b11f0f93f" y="101.431347"/>
     <use style="fill:#ff7f0e;stroke:#ff7f0e;" x="189.375401" xlink:href="#m6b11f0f93f" y="100.298519"/>
     <use style="fill:#ff7f0e;stroke:#ff7f0e;" x="192.359358" xlink:href="#m6b11f0f93f" y="99.215638"/>
     <use style="fill:#ff7f0e;stroke:#ff7f0e;" x="195.343316" xlink:href="#m6b11f0f93f" y="98.186293"/>
     <use style="fill:#ff7f0e;stroke:#ff7f0e;" x="198.327273" xlink:href="#m6b11f0f93f" y="97.409363"/>
     <use style="fill:#ff7f0e;stroke:#ff7f0e;" x="201.31123" xlink:href="#m6b11f0f93f" y="96.83908"/>
     <use style="fill:#ff7f0e;stroke:#ff7f0e;" x="204.295187" xlink:href="#m6b11f0f93f" y="96.307786"/>
     <use style="fill:#ff7f0e;stroke:#ff7f0e;" x="207.279144" xlink:href="#m6b11f0f93f" y="95.814248"/>
     <use style="fill:#ff7f0e;stroke:#ff7f0e;" x="210.263102" xlink:href="#m6b11f0f93f" y="95.362504"/>
     <use style="fill:#ff7f0e;stroke:#ff7f0e;" x="213.247059" xlink:href="#m6b11f0f93f" y="94.898189"/>
     <use style="fill:#ff7f0e;stroke:#ff7f0e;" x="216.231016" xlink:href="#m6b11f0f93f" y="94.419104"/>
     <use style="fill:#ff7f0e;stroke:#ff7f0e;" x="219.214973" xlink:href="#m6b11f0f93f" y="94.006364"/>
     <use style="fill:#ff7f0e;stroke:#ff7f0e;" x="222.19893" xlink:href="#m6b11f0f93f" y="93.615529"/>
     <use style="fill:#ff7f0e;stroke:#ff7f0e;" x="225.182888" xlink:href="#m6b11f0f93f" y="93.251389"/>
     <use style="fill:#ff7f0e;stroke:#ff7f0e;" x="228.166845" xlink:href="#m6b11f0f93f" y="92.77935"/>
     <use style="fill:#ff7f0e;stroke:#ff7f0e;" x="231.150802" xlink:href="#m6b11f0f93f" y="92.280761"/>
     <use style="fill:#ff7f0e;stroke:#ff7f0e;" x="234.134759" xlink:href="#m6b11f0f93f" y="91.819089"/>
     <use style="fill:#ff7f0e;stroke:#ff7f0e;" x="237.118717" xlink:href="#m6b11f0f93f" y="91.40966"/>
     <use style="fill:#ff7f0e;stroke:#ff7f0e;" x="240.102674" xlink:href="#m6b11f0f93f" y="91.074021"/>
     <use style="fill:#ff7f0e;stroke:#ff7f0e;" x="243.086631" xlink:href="#m6b11f0f93f" y="90.800472"/>
     <use style="fill:#ff7f0e;stroke:#ff7f0e;" x="246.070588" xlink:href="#m6b11f0f93f" y="90.586103"/>
     <use style="fill:#ff7f0e;stroke:#ff7f0e;" x="249.054545" xlink:href="#m6b11f0f93f" y="90.419226"/>
    </g>
   </g>
   <g id="patch_3">
    <path d="M 36 252 
L 36 34.56 
" style="fill:none;stroke:#ffffff;stroke-linecap:square;stroke-linejoin:miter;stroke-width:0.8;"/>
   </g>
   <g id="patch_4">
    <path d="M 259.2 252 
L 259.2 34.56 
" style="fill:none;stroke:#ffffff;stroke-linecap:square;stroke-linejoin:miter;stroke-width:0.8;"/>
   </g>
   <g id="patch_5">
    <path d="M 36 252 
L 259.2 252 
" style="fill:none;stroke:#ffffff;stroke-linecap:square;stroke-linejoin:miter;stroke-width:0.8;"/>
   </g>
   <g id="patch_6">
    <path d="M 36 34.56 
L 259.2 34.56 
" style="fill:none;stroke:#ffffff;stroke-linecap:square;stroke-linejoin:miter;stroke-width:0.8;"/>
   </g>
   <g id="legend_1">
    <g id="patch_7">
     <path d="M 43 71.91625 
L 104.2625 71.91625 
Q 106.2625 71.91625 106.2625 69.91625 
L 106.2625 41.56 
Q 106.2625 39.56 104.2625 39.56 
L 43 39.56 
Q 41 39.56 41 41.56 
L 41 69.91625 
Q 41 71.91625 43 71.91625 
z
" style="fill:#e3dcd0;opacity:0.8;stroke:#cccccc;stroke-linejoin:miter;"/>
    </g>
    <g id="line2d_3">
     <path d="M 45 47.658437 
L 65 47.658437 
" style="fill:none;stroke:#1f77b4;stroke-linecap:round;stroke-width:0.5;"/>
    </g>
    <g id="line2d_4">
     <g>
      <use style="fill:#1f77b4;stroke:#1f77b4;" x="55" xlink:href="#m0066f37bc3" y="47.658437"/>
     </g>
    </g>
    <g id="text_11">
     <!-- urban -->
     <g style="fill:#262626;" transform="translate(73 51.158437)scale(0.1 -0.1)">
      <use xlink:href="#DejaVuSans-117"/>
      <use x="63.378906" xlink:href="#DejaVuSans-114"/>
      <use x="104.492188" xlink:href="#DejaVuSans-98"/>
      <use x="167.96875" xlink:href="#DejaVuSans-97"/>
      <use x="229.248047" xlink:href="#DejaVuSans-110"/>
     </g>
    </g>
    <g id="line2d_5">
     <path d="M 45 62.336562 
L 65 62.336562 
" style="fill:none;stroke:#ff7f0e;stroke-linecap:round;stroke-width:0.5;"/>
    </g>
    <g id="line2d_6">
     <g>
      <use style="fill:#ff7f0e;stroke:#ff7f0e;" x="55" xlink:href="#m6b11f0f93f" y="62.336562"/>
     </g>
    </g>
    <g id="text_12">
     <!-- rural -->
     <g style="fill:#262626;" transform="translate(73 65.836562)scale(0.1 -0.1)">
      <use xlink:href="#DejaVuSans-114"/>
      <use x="41.113281" xlink:href="#DejaVuSans-117"/>
      <use x="104.492188" xlink:href="#DejaVuSans-114"/>
      <use x="145.605469" xlink:href="#DejaVuSans-97"/>
      <use x="206.884766" xlink:href="#DejaVuSans-108"/>
     </g>
    </g>
   </g>
  </g>
 </g>
 <defs>
  <clipPath id="p748a5878bf">
   <rect height="217.44" width="223.2" x="36" y="34.56"/>
  </clipPath>
 </defs>
</svg>
