<?xml version="1.0" encoding="utf-8" standalone="no"?>
<!DOCTYPE svg PUBLIC "-//W3C//DTD SVG 1.1//EN"
  "http://www.w3.org/Graphics/SVG/1.1/DTD/svg11.dtd">
<!-- Created with matplotlib (https://matplotlib.org/) -->
<svg height="180pt" version="1.1" viewBox="0 0 180 180" width="180pt" xmlns="http://www.w3.org/2000/svg" xmlns:xlink="http://www.w3.org/1999/xlink">
 <defs>
  <style type="text/css">
*{stroke-linecap:butt;stroke-linejoin:round;}
  </style>
 </defs>
 <g id="figure_1">
  <g id="patch_1">
   <path d="M 0 180 
L 180 180 
L 180 0 
L 0 0 
z
" style="fill:#ffffff;"/>
  </g>
  <g id="axes_1">
   <g id="matplotlib.axis_1"/>
   <g id="matplotlib.axis_2"/>
   <g id="patch_2">
    <path d="M 146.61 89.55 
C 146.61 88.077173 146.550143 86.604954 146.430577 85.136987 
C 146.311011 83.669021 146.131835 82.206521 145.893492 80.753106 
L 92.25 89.55 
L 146.61 89.55 
z
" style="fill:#ab85ac;stroke:#ffffff;stroke-linejoin:miter;"/>
   </g>
   <g id="patch_3">
    <path d="M 145.893492 80.753106 
C 145.146376 76.197188 143.821896 71.754952 141.952068 67.533777 
C 140.08224 63.312602 137.682252 59.346777 134.810118 55.732165 
L 92.25 89.55 
L 145.893492 80.753106 
z
" style="fill:#7e9d90;stroke:#ffffff;stroke-linejoin:miter;"/>
   </g>
   <g id="patch_4">
    <path d="M 134.810118 55.732165 
C 131.394009 51.432954 127.346108 47.676072 122.804433 44.589615 
C 118.262759 41.503158 113.279522 39.122609 108.024633 37.529134 
L 92.25 89.55 
L 134.810118 55.732165 
z
" style="fill:#4b4b4b;stroke:#ffffff;stroke-linejoin:miter;"/>
   </g>
   <g id="patch_5">
    <path d="M 108.024633 37.529134 
C 102.627347 35.892479 97.008081 35.10572 91.368845 35.197142 
C 85.729609 35.288564 80.138799 36.257057 74.797401 38.067805 
L 92.25 89.55 
L 108.024633 37.529134 
z
" style="fill:#e8b19d;stroke:#ffffff;stroke-linejoin:miter;"/>
   </g>
   <g id="patch_6">
    <path d="M 74.797401 38.067805 
C 68.328385 40.260819 62.330297 43.653612 57.117878 48.068153 
C 51.905459 52.482695 47.571504 57.840394 44.343431 63.860114 
L 92.25 89.55 
L 74.797401 38.067805 
z
" style="fill:#905426;stroke:#ffffff;stroke-linejoin:miter;"/>
   </g>
   <g id="patch_7">
    <path d="M 44.343431 63.860114 
C 38.022125 75.648102 36.268836 89.364294 39.42171 102.36333 
C 42.574584 115.362366 50.417003 126.75115 61.436448 134.333195 
L 92.25 89.55 
L 44.343431 63.860114 
z
" style="fill:#bfd598;stroke:#ffffff;stroke-linejoin:miter;"/>
   </g>
   <g id="patch_8">
    <path d="M 61.436448 134.333195 
C 69.597229 139.948307 79.139707 143.227348 89.028243 143.814444 
C 98.916779 144.40154 108.780214 142.274657 117.548077 137.664623 
C 126.31594 133.054588 133.659134 126.134437 138.780708 117.655209 
C 143.902283 109.175981 146.610002 99.455938 146.61 89.549989 
L 92.25 89.55 
L 61.436448 134.333195 
z
" style="fill:#738fc1;stroke:#ffffff;stroke-linejoin:miter;"/>
   </g>
   <g id="patch_9">
    <path clip-path="url(#p99b43059a2)" d="M 92.25 122.166 
C 100.899864 122.166 109.196617 118.729372 115.312995 112.612995 
C 121.429372 106.496617 124.866 98.199864 124.866 89.55 
C 124.866 80.900136 121.429372 72.603383 115.312995 66.487005 
C 109.196617 60.370628 100.899864 56.934 92.25 56.934 
C 83.600136 56.934 75.303383 60.370628 69.187005 66.487005 
C 63.070628 72.603383 59.634 80.900136 59.634 89.55 
C 59.634 98.199864 63.070628 106.496617 69.187005 112.612995 
C 75.303383 118.729372 83.600136 122.166 92.25 122.166 
z
" style="fill:#ffffff;stroke:#ffffff;stroke-linejoin:miter;"/>
   </g>
  </g>
 </g>
 <defs>
  <clipPath id="p99b43059a2">
   <rect height="135.9" width="135.9" x="24.3" y="21.6"/>
  </clipPath>
 </defs>
</svg>
