<?xml version="1.0" encoding="utf-8" standalone="no"?>
<!DOCTYPE svg PUBLIC "-//W3C//DTD SVG 1.1//EN"
  "http://www.w3.org/Graphics/SVG/1.1/DTD/svg11.dtd">
<!-- Created with matplotlib (https://matplotlib.org/) -->
<svg height="180pt" version="1.1" viewBox="0 0 180 180" width="180pt" xmlns="http://www.w3.org/2000/svg" xmlns:xlink="http://www.w3.org/1999/xlink">
 <defs>
  <style type="text/css">
*{stroke-linecap:butt;stroke-linejoin:round;}
  </style>
 </defs>
 <g id="figure_1">
  <g id="patch_1">
   <path d="M 0 180 
L 180 180 
L 180 0 
L 0 0 
z
" style="fill:#ffffff;"/>
  </g>
  <g id="axes_1">
   <g id="matplotlib.axis_1"/>
   <g id="matplotlib.axis_2"/>
   <g id="patch_2">
    <path d="M 146.61 89.55 
C 146.61 89.127071 146.605064 88.704155 146.595194 88.281341 
C 146.585324 87.858527 146.570519 87.435842 146.550784 87.013374 
L 92.25 89.55 
L 146.61 89.55 
z
" style="fill:#7e9d90;stroke:#ffffff;stroke-linejoin:miter;"/>
   </g>
   <g id="patch_3">
    <path d="M 146.550784 87.013374 
C 146.347268 82.656762 145.620185 78.340433 144.385234 74.157566 
C 143.150282 69.974699 141.416412 65.955614 139.221054 62.187075 
L 92.25 89.55 
L 146.550784 87.013374 
z
" style="fill:#bfd598;stroke:#ffffff;stroke-linejoin:miter;"/>
   </g>
   <g id="patch_4">
    <path d="M 139.221054 62.187075 
C 135.159731 55.215428 129.596748 49.23464 122.936941 44.679952 
C 116.277135 40.125263 108.686072 37.109907 100.716179 35.85332 
L 92.25 89.55 
L 139.221054 62.187075 
z
" style="fill:#e8b19d;stroke:#ffffff;stroke-linejoin:miter;"/>
   </g>
   <g id="patch_5">
    <path d="M 100.716179 35.85332 
C 98.54314 35.510704 96.351305 35.300314 94.152771 35.223312 
C 91.954236 35.146309 89.753053 35.202835 87.561368 35.392578 
L 92.25 89.55 
L 100.716179 35.85332 
z
" style="fill:#905426;stroke:#ffffff;stroke-linejoin:miter;"/>
   </g>
   <g id="patch_6">
    <path d="M 87.561368 35.392578 
C 84.610289 35.648065 81.685023 36.144336 78.8148 36.87643 
C 75.944576 37.608524 73.138988 38.573996 70.426067 39.763199 
L 92.25 89.55 
L 87.561368 35.392578 
z
" style="fill:#ab85ac;stroke:#ffffff;stroke-linejoin:miter;"/>
   </g>
   <g id="patch_7">
    <path d="M 70.426067 39.763199 
C 67.325059 41.122519 64.357821 42.768594 61.563057 44.679953 
C 58.768293 46.591312 56.158207 48.759608 53.766843 51.15656 
L 92.25 89.55 
L 70.426067 39.763199 
z
" style="fill:#4b4b4b;stroke:#ffffff;stroke-linejoin:miter;"/>
   </g>
   <g id="patch_8">
    <path d="M 53.766843 51.15656 
C 47.455261 57.482891 42.799991 65.269046 40.214637 73.823253 
C 37.629282 82.377461 37.192747 91.438652 38.943815 100.201772 
C 40.694883 108.964893 44.580114 117.162498 50.254317 124.066261 
C 55.928521 130.970023 63.218525 136.369244 71.476639 139.784222 
C 79.734753 143.199201 88.708945 144.525713 97.601889 143.645905 
C 106.494833 142.766096 115.035124 139.706817 122.463986 134.739873 
C 129.892848 129.77293 135.983559 123.04991 140.194979 115.16813 
C 144.4064 107.28635 146.610001 98.486356 146.61 89.549996 
L 92.25 89.55 
L 53.766843 51.15656 
z
" style="fill:#738fc1;stroke:#ffffff;stroke-linejoin:miter;"/>
   </g>
   <g id="patch_9">
    <path clip-path="url(#pb830b7dc67)" d="M 92.25 122.166 
C 100.899864 122.166 109.196617 118.729372 115.312995 112.612995 
C 121.429372 106.496617 124.866 98.199864 124.866 89.55 
C 124.866 80.900136 121.429372 72.603383 115.312995 66.487005 
C 109.196617 60.370628 100.899864 56.934 92.25 56.934 
C 83.600136 56.934 75.303383 60.370628 69.187005 66.487005 
C 63.070628 72.603383 59.634 80.900136 59.634 89.55 
C 59.634 98.199864 63.070628 106.496617 69.187005 112.612995 
C 75.303383 118.729372 83.600136 122.166 92.25 122.166 
z
" style="fill:#ffffff;stroke:#ffffff;stroke-linejoin:miter;"/>
   </g>
  </g>
 </g>
 <defs>
  <clipPath id="pb830b7dc67">
   <rect height="135.9" width="135.9" x="24.3" y="21.6"/>
  </clipPath>
 </defs>
</svg>
