<?xml version="1.0" encoding="utf-8" standalone="no"?>
<!DOCTYPE svg PUBLIC "-//W3C//DTD SVG 1.1//EN"
  "http://www.w3.org/Graphics/SVG/1.1/DTD/svg11.dtd">
<!-- Created with matplotlib (https://matplotlib.org/) -->
<svg height="180pt" version="1.1" viewBox="0 0 180 180" width="180pt" xmlns="http://www.w3.org/2000/svg" xmlns:xlink="http://www.w3.org/1999/xlink">
 <defs>
  <style type="text/css">
*{stroke-linecap:butt;stroke-linejoin:round;}
  </style>
 </defs>
 <g id="figure_1">
  <g id="patch_1">
   <path d="M 0 180 
L 180 180 
L 180 0 
L 0 0 
z
" style="fill:#ffffff;"/>
  </g>
  <g id="axes_1">
   <g id="matplotlib.axis_1"/>
   <g id="matplotlib.axis_2"/>
   <g id="patch_2">
    <path d="M 146.61 89.55 
C 146.61 88.126773 146.554107 86.704094 146.442449 85.285253 
C 146.330792 83.866413 146.163456 82.452504 145.940829 81.046797 
L 92.25 89.55 
L 146.61 89.55 
z
" style="fill:#7e9d90;stroke:#ffffff;stroke-linejoin:miter;"/>
   </g>
   <g id="patch_3">
    <path d="M 145.940829 81.046797 
C 145.635525 79.11905 145.22662 77.209144 144.715891 75.325378 
C 144.205162 73.441612 143.593349 71.586718 142.883112 69.768758 
L 92.25 89.55 
L 145.940829 81.046797 
z
" style="fill:#ab85ac;stroke:#ffffff;stroke-linejoin:miter;"/>
   </g>
   <g id="patch_4">
    <path d="M 142.883112 69.768758 
C 141.400551 65.973916 139.496056 62.357747 137.205533 58.988428 
C 134.91501 55.619109 132.252945 52.517949 129.269529 49.743417 
L 92.25 89.55 
L 142.883112 69.768758 
z
" style="fill:#e8b19d;stroke:#ffffff;stroke-linejoin:miter;"/>
   </g>
   <g id="patch_5">
    <path d="M 129.269529 49.743417 
C 125.904883 46.614347 122.157047 43.924458 118.115759 41.738159 
C 114.07447 39.55186 109.772244 37.886739 105.312093 36.782668 
L 92.25 89.55 
L 129.269529 49.743417 
z
" style="fill:#4b4b4b;stroke:#ffffff;stroke-linejoin:miter;"/>
   </g>
   <g id="patch_6">
    <path d="M 105.312093 36.782668 
C 91.882839 33.458373 77.678348 35.382922 65.617824 42.160795 
C 53.5573 48.938667 44.527701 60.071404 40.384727 73.271085 
L 92.25 89.55 
L 105.312093 36.782668 
z
" style="fill:#bfd598;stroke:#ffffff;stroke-linejoin:miter;"/>
   </g>
   <g id="patch_7">
    <path d="M 40.384727 73.271085 
C 36.223541 86.52879 37.300092 100.890171 43.391305 113.379341 
C 49.482517 125.868511 60.136445 135.558819 73.145439 140.442292 
L 92.25 89.55 
L 40.384727 73.271085 
z
" style="fill:#905426;stroke:#ffffff;stroke-linejoin:miter;"/>
   </g>
   <g id="patch_8">
    <path d="M 73.145439 140.442292 
C 81.36972 143.529621 90.221119 144.577844 98.939028 143.496886 
C 107.656937 142.415928 115.984281 139.237663 123.205487 134.235204 
C 130.426692 129.232744 136.328818 122.553602 140.404692 114.771722 
C 144.480565 106.989841 146.609996 98.334695 146.61 89.550026 
L 92.25 89.55 
L 73.145439 140.442292 
z
" style="fill:#738fc1;stroke:#ffffff;stroke-linejoin:miter;"/>
   </g>
   <g id="patch_9">
    <path clip-path="url(#p60de9c8b00)" d="M 92.25 122.166 
C 100.899864 122.166 109.196617 118.729372 115.312995 112.612995 
C 121.429372 106.496617 124.866 98.199864 124.866 89.55 
C 124.866 80.900136 121.429372 72.603383 115.312995 66.487005 
C 109.196617 60.370628 100.899864 56.934 92.25 56.934 
C 83.600136 56.934 75.303383 60.370628 69.187005 66.487005 
C 63.070628 72.603383 59.634 80.900136 59.634 89.55 
C 59.634 98.199864 63.070628 106.496617 69.187005 112.612995 
C 75.303383 118.729372 83.600136 122.166 92.25 122.166 
z
" style="fill:#ffffff;stroke:#ffffff;stroke-linejoin:miter;"/>
   </g>
  </g>
 </g>
 <defs>
  <clipPath id="p60de9c8b00">
   <rect height="135.9" width="135.9" x="24.3" y="21.6"/>
  </clipPath>
 </defs>
</svg>
