<?xml version="1.0" encoding="utf-8" standalone="no"?>
<!DOCTYPE svg PUBLIC "-//W3C//DTD SVG 1.1//EN"
  "http://www.w3.org/Graphics/SVG/1.1/DTD/svg11.dtd">
<!-- Created with matplotlib (https://matplotlib.org/) -->
<svg height="180pt" version="1.1" viewBox="0 0 180 180" width="180pt" xmlns="http://www.w3.org/2000/svg" xmlns:xlink="http://www.w3.org/1999/xlink">
 <defs>
  <style type="text/css">
*{stroke-linecap:butt;stroke-linejoin:round;}
  </style>
 </defs>
 <g id="figure_1">
  <g id="patch_1">
   <path d="M 0 180 
L 180 180 
L 180 0 
L 0 0 
z
" style="fill:#ffffff;"/>
  </g>
  <g id="axes_1">
   <g id="matplotlib.axis_1"/>
   <g id="matplotlib.axis_2"/>
   <g id="patch_2">
    <path d="M 146.61 89.55 
C 146.61 77.717483 142.746632 66.202447 135.610174 56.764257 
C 128.473715 47.326067 118.447127 40.4712 107.062356 37.247001 
C 95.677586 34.022802 83.545568 34.602289 72.519935 38.896924 
C 61.494302 43.191558 52.166718 50.970879 45.962329 61.046296 
L 92.25 89.55 
L 146.61 89.55 
z
" style="fill:#738fc1;stroke:#ffffff;stroke-linejoin:miter;"/>
   </g>
   <g id="patch_3">
    <path d="M 45.962329 61.046296 
C 44.614788 63.234592 43.424123 65.515695 42.399295 67.872436 
C 41.374466 70.229177 40.518053 72.655629 39.8365 75.133529 
L 92.25 89.55 
L 45.962329 61.046296 
z
" style="fill:#ab85ac;stroke:#ffffff;stroke-linejoin:miter;"/>
   </g>
   <g id="patch_4">
    <path d="M 39.8365 75.133529 
C 38.881943 78.603981 38.274425 82.160675 38.022896 85.751211 
C 37.771367 89.341747 37.877069 92.948404 38.338443 96.518046 
L 92.25 89.55 
L 39.8365 75.133529 
z
" style="fill:#bfd598;stroke:#ffffff;stroke-linejoin:miter;"/>
   </g>
   <g id="patch_5">
    <path d="M 38.338443 96.518046 
C 38.843841 100.428293 39.773162 104.271976 41.109992 107.9812 
C 42.446821 111.690425 44.183241 115.243223 46.28858 118.576841 
L 92.25 89.55 
L 38.338443 96.518046 
z
" style="fill:#905426;stroke:#ffffff;stroke-linejoin:miter;"/>
   </g>
   <g id="patch_6">
    <path d="M 46.28858 118.576841 
C 46.599505 119.069163 46.91832 119.556457 47.244902 120.038535 
C 47.571485 120.520614 47.905791 120.997414 48.247693 121.46875 
L 92.25 89.55 
L 46.28858 118.576841 
z
" style="fill:#7e9d90;stroke:#ffffff;stroke-linejoin:miter;"/>
   </g>
   <g id="patch_7">
    <path d="M 48.247693 121.46875 
C 54.834863 130.54964 64.074344 137.37254 74.691443 140.996153 
C 85.308541 144.619766 96.791471 144.869418 107.556026 141.710667 
L 92.25 89.55 
L 48.247693 121.46875 
z
" style="fill:#e8b19d;stroke:#ffffff;stroke-linejoin:miter;"/>
   </g>
   <g id="patch_8">
    <path d="M 107.556026 141.710667 
C 118.825548 138.403738 128.725485 131.531979 135.764626 122.130468 
C 142.803768 112.728957 146.610001 101.294693 146.61 89.549995 
L 92.25 89.55 
L 107.556026 141.710667 
z
" style="fill:#4b4b4b;stroke:#ffffff;stroke-linejoin:miter;"/>
   </g>
   <g id="patch_9">
    <path clip-path="url(#p4301dd3abd)" d="M 92.25 122.166 
C 100.899864 122.166 109.196617 118.729372 115.312995 112.612995 
C 121.429372 106.496617 124.866 98.199864 124.866 89.55 
C 124.866 80.900136 121.429372 72.603383 115.312995 66.487005 
C 109.196617 60.370628 100.899864 56.934 92.25 56.934 
C 83.600136 56.934 75.303383 60.370628 69.187005 66.487005 
C 63.070628 72.603383 59.634 80.900136 59.634 89.55 
C 59.634 98.199864 63.070628 106.496617 69.187005 112.612995 
C 75.303383 118.729372 83.600136 122.166 92.25 122.166 
z
" style="fill:#ffffff;stroke:#ffffff;stroke-linejoin:miter;"/>
   </g>
  </g>
 </g>
 <defs>
  <clipPath id="p4301dd3abd">
   <rect height="135.9" width="135.9" x="24.3" y="21.6"/>
  </clipPath>
 </defs>
</svg>
