<?xml version="1.0" encoding="utf-8" standalone="no"?>
<!DOCTYPE svg PUBLIC "-//W3C//DTD SVG 1.1//EN"
  "http://www.w3.org/Graphics/SVG/1.1/DTD/svg11.dtd">
<!-- Created with matplotlib (https://matplotlib.org/) -->
<svg height="180pt" version="1.1" viewBox="0 0 180 180" width="180pt" xmlns="http://www.w3.org/2000/svg" xmlns:xlink="http://www.w3.org/1999/xlink">
 <defs>
  <style type="text/css">
*{stroke-linecap:butt;stroke-linejoin:round;}
  </style>
 </defs>
 <g id="figure_1">
  <g id="patch_1">
   <path d="M 0 180 
L 180 180 
L 180 0 
L 0 0 
z
" style="fill:#ffffff;"/>
  </g>
  <g id="axes_1">
   <g id="matplotlib.axis_1"/>
   <g id="matplotlib.axis_2"/>
   <g id="patch_2">
    <path d="M 146.61 89.55 
C 146.61 88.786912 146.593932 88.023908 146.561807 87.261496 
C 146.529681 86.499085 146.481506 85.737434 146.417312 84.977051 
L 92.25 89.55 
L 146.61 89.55 
z
" style="fill:#7e9d90;stroke:#ffffff;stroke-linejoin:miter;"/>
   </g>
   <g id="patch_3">
    <path d="M 146.417312 84.977051 
C 146.33627 84.017089 146.229723 83.059451 146.097784 82.105151 
C 145.965845 81.150852 145.808561 80.200229 145.626099 79.254289 
L 92.25 89.55 
L 146.417312 84.977051 
z
" style="fill:#ab85ac;stroke:#ffffff;stroke-linejoin:miter;"/>
   </g>
   <g id="patch_4">
    <path d="M 145.626099 79.254289 
C 143.655667 69.038972 138.793476 59.600881 131.61968 52.066165 
C 124.445885 44.531449 115.257627 39.212201 105.151249 36.743112 
L 92.25 89.55 
L 145.626099 79.254289 
z
" style="fill:#e8b19d;stroke:#ffffff;stroke-linejoin:miter;"/>
   </g>
   <g id="patch_5">
    <path d="M 105.151249 36.743112 
C 95.014076 34.2665 84.374994 34.760496 74.510932 38.165809 
C 64.646869 41.571123 55.968909 47.745838 49.518602 55.948851 
L 92.25 89.55 
L 105.151249 36.743112 
z
" style="fill:#4b4b4b;stroke:#ffffff;stroke-linejoin:miter;"/>
   </g>
   <g id="patch_6">
    <path d="M 49.518602 55.948851 
C 48.261211 57.547905 47.094568 59.21628 46.02418 60.946099 
C 44.953791 62.675919 43.981343 64.464458 43.111426 66.303276 
L 92.25 89.55 
L 49.518602 55.948851 
z
" style="fill:#905426;stroke:#ffffff;stroke-linejoin:miter;"/>
   </g>
   <g id="patch_7">
    <path d="M 43.111426 66.303276 
C 42.211954 68.204567 41.423587 70.156461 40.750305 72.14911 
C 40.077022 74.141758 39.519957 76.171805 39.08192 78.229008 
L 92.25 89.55 
L 43.111426 66.303276 
z
" style="fill:#bfd598;stroke:#ffffff;stroke-linejoin:miter;"/>
   </g>
   <g id="patch_8">
    <path d="M 39.08192 78.229008 
C 37.495286 85.680498 37.492718 93.382981 39.074381 100.835529 
C 40.656045 108.288076 43.786893 115.32555 48.263313 121.490271 
C 52.739732 127.654993 58.462532 132.81036 65.059533 136.621096 
C 71.656533 140.431832 78.981553 142.813496 86.558214 143.611198 
C 94.134875 144.408901 101.795289 143.604964 109.041264 141.251674 
C 116.287238 138.898383 122.958213 135.047883 128.620344 129.950591 
C 134.282474 124.853298 138.810297 118.62216 141.909346 111.662417 
C 145.008394 104.702675 146.609999 97.168545 146.61 89.550007 
L 92.25 89.55 
L 39.08192 78.229008 
z
" style="fill:#738fc1;stroke:#ffffff;stroke-linejoin:miter;"/>
   </g>
   <g id="patch_9">
    <path clip-path="url(#p95cd6f96c1)" d="M 92.25 122.166 
C 100.899864 122.166 109.196617 118.729372 115.312995 112.612995 
C 121.429372 106.496617 124.866 98.199864 124.866 89.55 
C 124.866 80.900136 121.429372 72.603383 115.312995 66.487005 
C 109.196617 60.370628 100.899864 56.934 92.25 56.934 
C 83.600136 56.934 75.303383 60.370628 69.187005 66.487005 
C 63.070628 72.603383 59.634 80.900136 59.634 89.55 
C 59.634 98.199864 63.070628 106.496617 69.187005 112.612995 
C 75.303383 118.729372 83.600136 122.166 92.25 122.166 
z
" style="fill:#ffffff;stroke:#ffffff;stroke-linejoin:miter;"/>
   </g>
  </g>
 </g>
 <defs>
  <clipPath id="p95cd6f96c1">
   <rect height="135.9" width="135.9" x="24.3" y="21.6"/>
  </clipPath>
 </defs>
</svg>
