<?xml version="1.0" encoding="utf-8" standalone="no"?>
<!DOCTYPE svg PUBLIC "-//W3C//DTD SVG 1.1//EN"
  "http://www.w3.org/Graphics/SVG/1.1/DTD/svg11.dtd">
<!-- Created with matplotlib (https://matplotlib.org/) -->
<svg height="180pt" version="1.1" viewBox="0 0 180 180" width="180pt" xmlns="http://www.w3.org/2000/svg" xmlns:xlink="http://www.w3.org/1999/xlink">
 <defs>
  <style type="text/css">
*{stroke-linecap:butt;stroke-linejoin:round;}
  </style>
 </defs>
 <g id="figure_1">
  <g id="patch_1">
   <path d="M 0 180 
L 180 180 
L 180 0 
L 0 0 
z
" style="fill:#ffffff;"/>
  </g>
  <g id="axes_1">
   <g id="matplotlib.axis_1"/>
   <g id="matplotlib.axis_2"/>
   <g id="patch_2">
    <path d="M 146.61 89.55 
C 146.61 88.479708 146.578391 87.40965 146.515213 86.341225 
C 146.452036 85.272799 146.357318 84.206472 146.231183 83.143639 
L 92.25 89.55 
L 146.61 89.55 
z
" style="fill:#bfd598;stroke:#ffffff;stroke-linejoin:miter;"/>
   </g>
   <g id="patch_3">
    <path d="M 146.231183 83.143639 
C 144.690203 70.159058 138.514843 58.156562 128.846082 49.353776 
C 119.177321 40.55099 106.649719 35.525638 93.577919 35.206222 
L 92.25 89.55 
L 146.231183 83.143639 
z
" style="fill:#4b4b4b;stroke:#ffffff;stroke-linejoin:miter;"/>
   </g>
   <g id="patch_4">
    <path d="M 93.577919 35.206222 
C 92.274452 35.174371 90.970261 35.189427 89.667877 35.251361 
C 88.365493 35.313294 87.065759 35.422066 85.771197 35.577463 
L 92.25 89.55 
L 93.577919 35.206222 
z
" style="fill:#905426;stroke:#ffffff;stroke-linejoin:miter;"/>
   </g>
   <g id="patch_5">
    <path d="M 85.771197 35.577463 
C 77.133221 36.614356 68.869075 39.709939 61.675611 44.603183 
C 54.482147 49.496428 48.567403 56.04582 44.430124 63.6991 
C 40.292845 71.35238 38.052683 79.888211 37.898534 88.586832 
C 37.744384 97.285453 39.680706 105.895296 43.544223 113.690359 
L 92.25 89.55 
L 85.771197 35.577463 
z
" style="fill:#738fc1;stroke:#ffffff;stroke-linejoin:miter;"/>
   </g>
   <g id="patch_6">
    <path d="M 43.544223 113.690359 
C 48.773334 124.240653 57.291502 132.811592 67.8093 138.10576 
C 78.327099 143.399928 90.28562 145.135997 101.874659 143.051173 
C 113.463697 140.966349 124.06742 135.171417 132.080702 126.543578 
C 140.093984 117.915738 145.091006 106.913468 146.315349 95.202222 
L 92.25 89.55 
L 43.544223 113.690359 
z
" style="fill:#e8b19d;stroke:#ffffff;stroke-linejoin:miter;"/>
   </g>
   <g id="patch_7">
    <path d="M 146.315349 95.202222 
C 146.342663 94.940956 146.368083 94.679495 146.391606 94.41786 
C 146.41513 94.156226 146.436757 93.894424 146.456485 93.632476 
L 92.25 89.55 
L 146.315349 95.202222 
z
" style="fill:#7e9d90;stroke:#ffffff;stroke-linejoin:miter;"/>
   </g>
   <g id="patch_8">
    <path d="M 146.456485 93.632476 
C 146.507633 92.953334 146.546014 92.273291 146.571607 91.592707 
C 146.597199 90.912122 146.609999 90.231117 146.61 89.550052 
L 92.25 89.55 
L 146.456485 93.632476 
z
" style="fill:#ab85ac;stroke:#ffffff;stroke-linejoin:miter;"/>
   </g>
   <g id="patch_9">
    <path clip-path="url(#p5dc8c5c80c)" d="M 92.25 122.166 
C 100.899864 122.166 109.196617 118.729372 115.312995 112.612995 
C 121.429372 106.496617 124.866 98.199864 124.866 89.55 
C 124.866 80.900136 121.429372 72.603383 115.312995 66.487005 
C 109.196617 60.370628 100.899864 56.934 92.25 56.934 
C 83.600136 56.934 75.303383 60.370628 69.187005 66.487005 
C 63.070628 72.603383 59.634 80.900136 59.634 89.55 
C 59.634 98.199864 63.070628 106.496617 69.187005 112.612995 
C 75.303383 118.729372 83.600136 122.166 92.25 122.166 
z
" style="fill:#ffffff;stroke:#ffffff;stroke-linejoin:miter;"/>
   </g>
  </g>
 </g>
 <defs>
  <clipPath id="p5dc8c5c80c">
   <rect height="135.9" width="135.9" x="24.3" y="21.6"/>
  </clipPath>
 </defs>
</svg>
