<?xml version="1.0" encoding="utf-8" standalone="no"?>
<!DOCTYPE svg PUBLIC "-//W3C//DTD SVG 1.1//EN"
  "http://www.w3.org/Graphics/SVG/1.1/DTD/svg11.dtd">
<!-- Created with matplotlib (https://matplotlib.org/) -->
<svg height="180pt" version="1.1" viewBox="0 0 180 180" width="180pt" xmlns="http://www.w3.org/2000/svg" xmlns:xlink="http://www.w3.org/1999/xlink">
 <defs>
  <style type="text/css">
*{stroke-linecap:butt;stroke-linejoin:round;}
  </style>
 </defs>
 <g id="figure_1">
  <g id="patch_1">
   <path d="M 0 180 
L 180 180 
L 180 0 
L 0 0 
z
" style="fill:#ffffff;"/>
  </g>
  <g id="axes_1">
   <g id="matplotlib.axis_1"/>
   <g id="matplotlib.axis_2"/>
   <g id="patch_2">
    <path d="M 146.61 89.55 
C 146.61 82.006713 145.039879 74.545352 141.999779 67.641804 
C 138.95968 60.738256 134.515638 54.542477 128.951095 49.449635 
L 92.25 89.55 
L 146.61 89.55 
z
" style="fill:#e8b19d;stroke:#ffffff;stroke-linejoin:miter;"/>
   </g>
   <g id="patch_3">
    <path d="M 128.951095 49.449635 
C 128.301837 48.855414 127.638243 48.277049 126.9609 47.71505 
C 126.283558 47.153052 125.592666 46.607587 124.888837 46.079137 
L 92.25 89.55 
L 128.951095 49.449635 
z
" style="fill:#905426;stroke:#ffffff;stroke-linejoin:miter;"/>
   </g>
   <g id="patch_4">
    <path d="M 124.888837 46.079137 
C 115.527747 39.050634 104.142153 35.230426 92.436247 35.190319 
C 80.73034 35.150212 69.318836 38.892314 59.909805 45.856507 
L 92.25 89.55 
L 124.888837 46.079137 
z
" style="fill:#4b4b4b;stroke:#ffffff;stroke-linejoin:miter;"/>
   </g>
   <g id="patch_5">
    <path d="M 59.909805 45.856507 
C 59.812681 45.928394 59.715796 46.000605 59.619154 46.073139 
C 59.522511 46.145672 59.426111 46.218527 59.329954 46.291704 
L 92.25 89.55 
L 59.909805 45.856507 
z
" style="fill:#ab85ac;stroke:#ffffff;stroke-linejoin:miter;"/>
   </g>
   <g id="patch_6">
    <path d="M 59.329954 46.291704 
C 59.130447 46.443531 58.931993 46.596736 58.734606 46.751309 
C 58.537219 46.905881 58.340904 47.061818 58.145674 47.219106 
L 92.25 89.55 
L 59.329954 46.291704 
z
" style="fill:#7e9d90;stroke:#ffffff;stroke-linejoin:miter;"/>
   </g>
   <g id="patch_7">
    <path d="M 58.145674 47.219106 
C 51.671894 52.434775 46.480035 59.066678 42.970702 66.603097 
C 39.461369 74.139515 37.727205 82.381495 37.90202 90.693081 
C 38.076834 99.004667 40.156012 107.166441 43.979122 114.54864 
C 47.802233 121.930838 53.26835 128.338576 59.955707 133.277431 
C 66.643063 138.216286 74.375118 141.555877 82.555265 143.038519 
C 90.735411 144.521162 99.1477 144.107716 107.143037 141.830083 
C 115.138374 139.55245 122.505689 135.470757 128.676517 129.89995 
C 134.847346 124.329142 139.658784 117.416284 142.73958 109.694774 
L 92.25 89.55 
L 58.145674 47.219106 
z
" style="fill:#738fc1;stroke:#ffffff;stroke-linejoin:miter;"/>
   </g>
   <g id="patch_8">
    <path d="M 142.73958 109.694774 
C 144.015144 106.497781 144.98418 103.186849 145.633627 99.806606 
C 146.283074 96.426362 146.61 92.992062 146.61 89.549995 
L 92.25 89.55 
L 142.73958 109.694774 
z
" style="fill:#bfd598;stroke:#ffffff;stroke-linejoin:miter;"/>
   </g>
   <g id="patch_9">
    <path clip-path="url(#p0a89aa5118)" d="M 92.25 122.166 
C 100.899864 122.166 109.196617 118.729372 115.312995 112.612995 
C 121.429372 106.496617 124.866 98.199864 124.866 89.55 
C 124.866 80.900136 121.429372 72.603383 115.312995 66.487005 
C 109.196617 60.370628 100.899864 56.934 92.25 56.934 
C 83.600136 56.934 75.303383 60.370628 69.187005 66.487005 
C 63.070628 72.603383 59.634 80.900136 59.634 89.55 
C 59.634 98.199864 63.070628 106.496617 69.187005 112.612995 
C 75.303383 118.729372 83.600136 122.166 92.25 122.166 
z
" style="fill:#ffffff;stroke:#ffffff;stroke-linejoin:miter;"/>
   </g>
  </g>
 </g>
 <defs>
  <clipPath id="p0a89aa5118">
   <rect height="135.9" width="135.9" x="24.3" y="21.6"/>
  </clipPath>
 </defs>
</svg>
