<?xml version="1.0" encoding="utf-8" standalone="no"?>
<!DOCTYPE svg PUBLIC "-//W3C//DTD SVG 1.1//EN"
  "http://www.w3.org/Graphics/SVG/1.1/DTD/svg11.dtd">
<!-- Created with matplotlib (https://matplotlib.org/) -->
<svg height="180pt" version="1.1" viewBox="0 0 180 180" width="180pt" xmlns="http://www.w3.org/2000/svg" xmlns:xlink="http://www.w3.org/1999/xlink">
 <defs>
  <style type="text/css">
*{stroke-linecap:butt;stroke-linejoin:round;}
  </style>
 </defs>
 <g id="figure_1">
  <g id="patch_1">
   <path d="M 0 180 
L 180 180 
L 180 0 
L 0 0 
z
" style="fill:#ffffff;"/>
  </g>
  <g id="axes_1">
   <g id="matplotlib.axis_1"/>
   <g id="matplotlib.axis_2"/>
   <g id="patch_2">
    <path d="M 146.61 89.55 
C 146.61 81.876513 144.98521 74.289278 141.842797 67.288732 
C 138.700385 60.288186 134.110992 54.031704 128.377327 48.931952 
L 92.25 89.55 
L 146.61 89.55 
z
" style="fill:#e8b19d;stroke:#ffffff;stroke-linejoin:miter;"/>
   </g>
   <g id="patch_3">
    <path d="M 128.377327 48.931952 
C 122.564531 43.761817 115.709055 39.899207 108.275393 37.605834 
C 100.84173 35.312461 93.00165 34.641317 85.286355 35.637875 
L 92.25 89.55 
L 128.377327 48.931952 
z
" style="fill:#4b4b4b;stroke:#ffffff;stroke-linejoin:miter;"/>
   </g>
   <g id="patch_4">
    <path d="M 85.286355 35.637875 
C 84.330727 35.76131 83.378549 35.910132 82.430832 36.084183 
C 81.483115 36.258235 80.540193 36.457454 79.603066 36.681629 
L 92.25 89.55 
L 85.286355 35.637875 
z
" style="fill:#ab85ac;stroke:#ffffff;stroke-linejoin:miter;"/>
   </g>
   <g id="patch_5">
    <path d="M 79.603066 36.681629 
C 78.635377 36.913115 77.674225 37.171126 76.720698 37.455371 
C 75.767172 37.739615 74.821628 38.049986 73.885138 38.386131 
L 92.25 89.55 
L 79.603066 36.681629 
z
" style="fill:#7e9d90;stroke:#ffffff;stroke-linejoin:miter;"/>
   </g>
   <g id="patch_6">
    <path d="M 73.885138 38.386131 
C 71.765163 39.147079 69.694532 40.039054 67.68522 41.056895 
C 65.675909 42.074737 63.7318 43.216479 61.864139 44.475517 
L 92.25 89.55 
L 73.885138 38.386131 
z
" style="fill:#bfd598;stroke:#ffffff;stroke-linejoin:miter;"/>
   </g>
   <g id="patch_7">
    <path d="M 61.864139 44.475517 
C 54.985115 49.112843 49.258098 55.263972 45.12319 62.456211 
C 40.988283 69.64845 38.554187 77.692721 38.007957 85.970849 
C 37.461726 94.248976 38.81772 102.543336 41.971734 110.216533 
C 45.125748 117.88973 49.994868 124.740043 56.204916 130.241049 
C 62.414963 135.742055 69.802684 139.749137 77.800355 141.954364 
C 85.798025 144.159591 94.195395 144.504989 102.347153 142.964016 
C 110.498912 141.423043 118.190757 138.036209 124.831595 133.063783 
C 131.472433 128.091356 136.887683 121.664056 140.661201 114.2758 
L 92.25 89.55 
L 61.864139 44.475517 
z
" style="fill:#738fc1;stroke:#ffffff;stroke-linejoin:miter;"/>
   </g>
   <g id="patch_8">
    <path d="M 140.661201 114.2758 
C 142.609408 110.461363 144.099982 106.430001 145.101881 102.265672 
C 146.10378 98.101342 146.61 93.833155 146.61 89.549997 
L 92.25 89.55 
L 140.661201 114.2758 
z
" style="fill:#905426;stroke:#ffffff;stroke-linejoin:miter;"/>
   </g>
   <g id="patch_9">
    <path clip-path="url(#p76a3a4ebb6)" d="M 92.25 122.166 
C 100.899864 122.166 109.196617 118.729372 115.312995 112.612995 
C 121.429372 106.496617 124.866 98.199864 124.866 89.55 
C 124.866 80.900136 121.429372 72.603383 115.312995 66.487005 
C 109.196617 60.370628 100.899864 56.934 92.25 56.934 
C 83.600136 56.934 75.303383 60.370628 69.187005 66.487005 
C 63.070628 72.603383 59.634 80.900136 59.634 89.55 
C 59.634 98.199864 63.070628 106.496617 69.187005 112.612995 
C 75.303383 118.729372 83.600136 122.166 92.25 122.166 
z
" style="fill:#ffffff;stroke:#ffffff;stroke-linejoin:miter;"/>
   </g>
  </g>
 </g>
 <defs>
  <clipPath id="p76a3a4ebb6">
   <rect height="135.9" width="135.9" x="24.3" y="21.6"/>
  </clipPath>
 </defs>
</svg>
