<?xml version="1.0" encoding="utf-8" standalone="no"?>
<!DOCTYPE svg PUBLIC "-//W3C//DTD SVG 1.1//EN"
  "http://www.w3.org/Graphics/SVG/1.1/DTD/svg11.dtd">
<!-- Created with matplotlib (https://matplotlib.org/) -->
<svg height="180pt" version="1.1" viewBox="0 0 180 180" width="180pt" xmlns="http://www.w3.org/2000/svg" xmlns:xlink="http://www.w3.org/1999/xlink">
 <defs>
  <style type="text/css">
*{stroke-linecap:butt;stroke-linejoin:round;}
  </style>
 </defs>
 <g id="figure_1">
  <g id="patch_1">
   <path d="M 0 180 
L 180 180 
L 180 0 
L 0 0 
z
" style="fill:#ffffff;"/>
  </g>
  <g id="axes_1">
   <g id="matplotlib.axis_1"/>
   <g id="matplotlib.axis_2"/>
   <g id="patch_2">
    <path d="M 146.61 89.55 
C 146.61 89.55 146.61 89.55 146.61 89.55 
L 92.25 89.55 
L 146.61 89.55 
z
" style="fill:#7e9d90;stroke:#ffffff;stroke-linejoin:miter;"/>
   </g>
   <g id="patch_3">
    <path d="M 146.61 89.55 
C 146.61 79.172671 143.638451 69.00917 138.048188 60.266292 
C 132.457926 51.523414 124.479328 44.561457 115.059759 40.207072 
L 92.25 89.55 
L 146.61 89.55 
z
" style="fill:#738fc1;stroke:#ffffff;stroke-linejoin:miter;"/>
   </g>
   <g id="patch_4">
    <path d="M 115.059759 40.207072 
C 105.518582 35.796472 94.899858 34.246516 84.49604 35.745858 
C 74.092222 37.245199 64.343258 41.730435 56.435736 48.655647 
C 48.528215 55.580859 42.796523 64.653199 39.938291 74.768433 
C 37.080059 84.883667 37.216153 95.614051 40.330008 105.653541 
L 92.25 89.55 
L 115.059759 40.207072 
z
" style="fill:#e8b19d;stroke:#ffffff;stroke-linejoin:miter;"/>
   </g>
   <g id="patch_5">
    <path d="M 40.330008 105.653541 
C 44.021676 117.555976 51.696267 127.834471 62.05944 134.755527 
C 72.422613 141.676583 84.857071 144.827939 97.265708 143.67811 
C 109.674344 142.52828 121.318023 137.145757 130.233002 128.438316 
C 139.147982 119.730876 144.80323 108.21719 146.244973 95.839075 
L 92.25 89.55 
L 40.330008 105.653541 
z
" style="fill:#4b4b4b;stroke:#ffffff;stroke-linejoin:miter;"/>
   </g>
   <g id="patch_6">
    <path d="M 146.244973 95.839075 
C 146.275358 95.578204 146.303852 95.317117 146.330453 95.055834 
C 146.357054 94.79455 146.381761 94.533078 146.404572 94.271436 
L 92.25 89.55 
L 146.244973 95.839075 
z
" style="fill:#ab85ac;stroke:#ffffff;stroke-linejoin:miter;"/>
   </g>
   <g id="patch_7">
    <path d="M 146.404572 94.271436 
C 146.433086 93.944384 146.458636 93.617079 146.48122 93.289564 
C 146.503804 92.962048 146.523421 92.634335 146.540068 92.306464 
L 92.25 89.55 
L 146.404572 94.271436 
z
" style="fill:#bfd598;stroke:#ffffff;stroke-linejoin:miter;"/>
   </g>
   <g id="patch_8">
    <path d="M 146.540068 92.306464 
C 146.563374 91.847442 146.580858 91.388142 146.592514 90.928677 
C 146.604171 90.469211 146.61 90.009616 146.61 89.550002 
L 92.25 89.55 
L 146.540068 92.306464 
z
" style="fill:#905426;stroke:#ffffff;stroke-linejoin:miter;"/>
   </g>
   <g id="patch_9">
    <path clip-path="url(#p0d12b1bf4c)" d="M 92.25 122.166 
C 100.899864 122.166 109.196617 118.729372 115.312995 112.612995 
C 121.429372 106.496617 124.866 98.199864 124.866 89.55 
C 124.866 80.900136 121.429372 72.603383 115.312995 66.487005 
C 109.196617 60.370628 100.899864 56.934 92.25 56.934 
C 83.600136 56.934 75.303383 60.370628 69.187005 66.487005 
C 63.070628 72.603383 59.634 80.900136 59.634 89.55 
C 59.634 98.199864 63.070628 106.496617 69.187005 112.612995 
C 75.303383 118.729372 83.600136 122.166 92.25 122.166 
z
" style="fill:#ffffff;stroke:#ffffff;stroke-linejoin:miter;"/>
   </g>
  </g>
 </g>
 <defs>
  <clipPath id="p0d12b1bf4c">
   <rect height="135.9" width="135.9" x="24.3" y="21.6"/>
  </clipPath>
 </defs>
</svg>
