<?xml version="1.0" encoding="utf-8" standalone="no"?>
<!DOCTYPE svg PUBLIC "-//W3C//DTD SVG 1.1//EN"
  "http://www.w3.org/Graphics/SVG/1.1/DTD/svg11.dtd">
<!-- Created with matplotlib (https://matplotlib.org/) -->
<svg height="180pt" version="1.1" viewBox="0 0 180 180" width="180pt" xmlns="http://www.w3.org/2000/svg" xmlns:xlink="http://www.w3.org/1999/xlink">
 <defs>
  <style type="text/css">
*{stroke-linecap:butt;stroke-linejoin:round;}
  </style>
 </defs>
 <g id="figure_1">
  <g id="patch_1">
   <path d="M 0 180 
L 180 180 
L 180 0 
L 0 0 
z
" style="fill:#ffffff;"/>
  </g>
  <g id="axes_1">
   <g id="matplotlib.axis_1"/>
   <g id="matplotlib.axis_2"/>
   <g id="patch_2">
    <path d="M 146.61 89.55 
C 146.61 88.841359 146.596143 88.132786 146.568437 87.424687 
C 146.540732 86.716588 146.499182 86.009099 146.443813 85.302625 
L 92.25 89.55 
L 146.61 89.55 
z
" style="fill:#7e9d90;stroke:#ffffff;stroke-linejoin:miter;"/>
   </g>
   <g id="patch_3">
    <path d="M 146.443813 85.302625 
C 145.879065 78.096795 143.882772 71.07544 140.572013 64.650349 
C 137.261254 58.225257 132.702043 52.524539 127.161766 47.882528 
L 92.25 89.55 
L 146.443813 85.302625 
z
" style="fill:#905426;stroke:#ffffff;stroke-linejoin:miter;"/>
   </g>
   <g id="patch_4">
    <path d="M 127.161766 47.882528 
C 126.528049 47.351558 125.8823 46.835114 125.225026 46.333599 
C 124.567751 45.832085 123.89912 45.34563 123.219656 44.874615 
L 92.25 89.55 
L 127.161766 47.882528 
z
" style="fill:#ab85ac;stroke:#ffffff;stroke-linejoin:miter;"/>
   </g>
   <g id="patch_5">
    <path d="M 123.219656 44.874615 
C 114.297993 38.689983 103.724997 35.317355 92.870026 35.193536 
C 82.015054 35.069717 71.367878 38.200294 62.307463 44.17981 
L 92.25 89.55 
L 123.219656 44.874615 
z
" style="fill:#e8b19d;stroke:#ffffff;stroke-linejoin:miter;"/>
   </g>
   <g id="patch_6">
    <path d="M 62.307463 44.17981 
C 51.781475 51.126548 43.994116 61.524426 40.288926 73.579515 
C 36.583737 85.634604 37.186803 98.611319 41.994078 110.270808 
L 92.25 89.55 
L 62.307463 44.17981 
z
" style="fill:#4b4b4b;stroke:#ffffff;stroke-linejoin:miter;"/>
   </g>
   <g id="patch_7">
    <path d="M 41.994078 110.270808 
C 42.50059 111.499294 43.051976 112.708794 43.647125 113.896871 
C 44.242274 115.084949 44.880787 116.250804 45.561375 117.392089 
L 92.25 89.55 
L 41.994078 110.270808 
z
" style="fill:#bfd598;stroke:#ffffff;stroke-linejoin:miter;"/>
   </g>
   <g id="patch_8">
    <path d="M 45.561375 117.392089 
C 51.655626 127.611587 60.939875 135.552867 71.980411 139.989601 
C 83.020946 144.426335 95.218616 145.117751 106.689805 141.957076 
C 118.160993 138.796402 128.283179 131.955161 135.49325 122.489808 
C 142.703321 113.024455 146.61 101.448658 146.61 89.550001 
L 92.25 89.55 
L 45.561375 117.392089 
z
" style="fill:#738fc1;stroke:#ffffff;stroke-linejoin:miter;"/>
   </g>
   <g id="patch_9">
    <path clip-path="url(#pf8d67404c4)" d="M 92.25 122.166 
C 100.899864 122.166 109.196617 118.729372 115.312995 112.612995 
C 121.429372 106.496617 124.866 98.199864 124.866 89.55 
C 124.866 80.900136 121.429372 72.603383 115.312995 66.487005 
C 109.196617 60.370628 100.899864 56.934 92.25 56.934 
C 83.600136 56.934 75.303383 60.370628 69.187005 66.487005 
C 63.070628 72.603383 59.634 80.900136 59.634 89.55 
C 59.634 98.199864 63.070628 106.496617 69.187005 112.612995 
C 75.303383 118.729372 83.600136 122.166 92.25 122.166 
z
" style="fill:#ffffff;stroke:#ffffff;stroke-linejoin:miter;"/>
   </g>
  </g>
 </g>
 <defs>
  <clipPath id="pf8d67404c4">
   <rect height="135.9" width="135.9" x="24.3" y="21.6"/>
  </clipPath>
 </defs>
</svg>
