<?xml version="1.0" encoding="utf-8" standalone="no"?>
<!DOCTYPE svg PUBLIC "-//W3C//DTD SVG 1.1//EN"
  "http://www.w3.org/Graphics/SVG/1.1/DTD/svg11.dtd">
<!-- Created with matplotlib (https://matplotlib.org/) -->
<svg height="180pt" version="1.1" viewBox="0 0 180 180" width="180pt" xmlns="http://www.w3.org/2000/svg" xmlns:xlink="http://www.w3.org/1999/xlink">
 <defs>
  <style type="text/css">
*{stroke-linecap:butt;stroke-linejoin:round;}
  </style>
 </defs>
 <g id="figure_1">
  <g id="patch_1">
   <path d="M 0 180 
L 180 180 
L 180 0 
L 0 0 
z
" style="fill:#ffffff;"/>
  </g>
  <g id="axes_1">
   <g id="matplotlib.axis_1"/>
   <g id="matplotlib.axis_2"/>
   <g id="patch_2">
    <path d="M 146.61 89.55 
C 146.61 89.214186 146.606888 88.878379 146.600665 88.542622 
C 146.594442 88.206866 146.585108 87.871174 146.572663 87.535591 
L 92.25 89.55 
L 146.61 89.55 
z
" style="fill:#7e9d90;stroke:#ffffff;stroke-linejoin:miter;"/>
   </g>
   <g id="patch_3">
    <path d="M 146.572663 87.535591 
C 146.52297 86.195503 146.423705 84.857714 146.275074 83.524968 
C 146.126442 82.192221 145.928545 80.865432 145.681788 79.547321 
L 92.25 89.55 
L 146.572663 87.535591 
z
" style="fill:#ab85ac;stroke:#ffffff;stroke-linejoin:miter;"/>
   </g>
   <g id="patch_4">
    <path d="M 145.681788 79.547321 
C 145.245794 77.218348 144.657993 74.92037 143.922148 72.668095 
C 143.186303 70.41582 142.303987 68.214064 141.280847 66.076918 
L 92.25 89.55 
L 145.681788 79.547321 
z
" style="fill:#bfd598;stroke:#ffffff;stroke-linejoin:miter;"/>
   </g>
   <g id="patch_5">
    <path d="M 141.280847 66.076918 
C 139.57011 62.50351 137.47384 59.127807 135.029418 56.010009 
C 132.584997 52.892211 129.807043 50.050963 126.745097 47.536932 
L 92.25 89.55 
L 141.280847 66.076918 
z
" style="fill:#905426;stroke:#ffffff;stroke-linejoin:miter;"/>
   </g>
   <g id="patch_6">
    <path d="M 126.745097 47.536932 
C 122.730569 44.240779 118.264244 41.536983 113.482529 39.508125 
C 108.700815 37.479266 103.652891 36.14621 98.492929 35.549672 
L 92.25 89.55 
L 126.745097 47.536932 
z
" style="fill:#e8b19d;stroke:#ffffff;stroke-linejoin:miter;"/>
   </g>
   <g id="patch_7">
    <path d="M 98.492929 35.549672 
C 87.471066 34.275444 76.318898 36.405718 66.54272 41.652762 
C 56.766543 46.899807 48.827255 55.016249 43.797198 64.905821 
L 92.25 89.55 
L 98.492929 35.549672 
z
" style="fill:#4b4b4b;stroke:#ffffff;stroke-linejoin:miter;"/>
   </g>
   <g id="patch_8">
    <path d="M 43.797198 64.905821 
C 40.07245 72.229029 38.055975 80.302276 37.899819 88.51682 
C 37.743663 96.731364 39.451853 104.875416 42.895586 112.334894 
C 46.339319 119.794373 51.429809 126.376956 57.78322 131.586302 
C 64.136631 136.795648 71.589159 140.497447 79.578865 142.412576 
C 87.568571 144.327705 95.889462 144.406787 103.914125 142.643858 
C 111.938787 140.88093 119.460326 137.321444 125.9116 132.233794 
C 132.362874 127.146145 137.577554 120.661501 141.162443 113.268823 
C 144.747331 105.876145 146.61 97.76603 146.61 89.550002 
L 92.25 89.55 
L 43.797198 64.905821 
z
" style="fill:#738fc1;stroke:#ffffff;stroke-linejoin:miter;"/>
   </g>
   <g id="patch_9">
    <path clip-path="url(#p11c3cda9d2)" d="M 92.25 122.166 
C 100.899864 122.166 109.196617 118.729372 115.312995 112.612995 
C 121.429372 106.496617 124.866 98.199864 124.866 89.55 
C 124.866 80.900136 121.429372 72.603383 115.312995 66.487005 
C 109.196617 60.370628 100.899864 56.934 92.25 56.934 
C 83.600136 56.934 75.303383 60.370628 69.187005 66.487005 
C 63.070628 72.603383 59.634 80.900136 59.634 89.55 
C 59.634 98.199864 63.070628 106.496617 69.187005 112.612995 
C 75.303383 118.729372 83.600136 122.166 92.25 122.166 
z
" style="fill:#ffffff;stroke:#ffffff;stroke-linejoin:miter;"/>
   </g>
  </g>
 </g>
 <defs>
  <clipPath id="p11c3cda9d2">
   <rect height="135.9" width="135.9" x="24.3" y="21.6"/>
  </clipPath>
 </defs>
</svg>
