<?xml version="1.0" encoding="utf-8" standalone="no"?>
<!DOCTYPE svg PUBLIC "-//W3C//DTD SVG 1.1//EN"
  "http://www.w3.org/Graphics/SVG/1.1/DTD/svg11.dtd">
<!-- Created with matplotlib (https://matplotlib.org/) -->
<svg height="180pt" version="1.1" viewBox="0 0 180 180" width="180pt" xmlns="http://www.w3.org/2000/svg" xmlns:xlink="http://www.w3.org/1999/xlink">
 <defs>
  <style type="text/css">
*{stroke-linecap:butt;stroke-linejoin:round;}
  </style>
 </defs>
 <g id="figure_1">
  <g id="patch_1">
   <path d="M 0 180 
L 180 180 
L 180 0 
L 0 0 
z
" style="fill:#ffffff;"/>
  </g>
  <g id="axes_1">
   <g id="matplotlib.axis_1"/>
   <g id="matplotlib.axis_2"/>
   <g id="patch_2">
    <path d="M 146.61 89.55 
C 146.61 88.833192 146.595822 88.116453 146.567474 87.400206 
C 146.539126 86.683958 146.496614 85.968341 146.439963 85.253775 
L 92.25 89.55 
L 146.61 89.55 
z
" style="fill:#7e9d90;stroke:#ffffff;stroke-linejoin:miter;"/>
   </g>
   <g id="patch_3">
    <path d="M 146.439963 85.253775 
C 146.367754 84.342977 146.272594 83.434145 146.154574 82.528144 
C 146.036555 81.622143 145.895712 80.719261 145.732181 79.820359 
L 92.25 89.55 
L 146.439963 85.253775 
z
" style="fill:#ab85ac;stroke:#ffffff;stroke-linejoin:miter;"/>
   </g>
   <g id="patch_4">
    <path d="M 145.732181 79.820359 
C 143.738404 68.860907 138.423321 58.774705 130.510313 50.934484 
C 122.597305 43.094264 112.462418 37.872611 101.485009 35.980193 
L 92.25 89.55 
L 145.732181 79.820359 
z
" style="fill:#e8b19d;stroke:#ffffff;stroke-linejoin:miter;"/>
   </g>
   <g id="patch_5">
    <path d="M 101.485009 35.980193 
C 90.371343 34.064285 78.932173 35.653531 68.76168 40.52645 
C 58.591187 45.39937 50.184845 53.318569 44.714174 63.180417 
L 92.25 89.55 
L 101.485009 35.980193 
z
" style="fill:#4b4b4b;stroke:#ffffff;stroke-linejoin:miter;"/>
   </g>
   <g id="patch_6">
    <path d="M 44.714174 63.180417 
C 43.770581 64.881412 42.918968 66.631828 42.163011 68.424112 
C 41.407055 70.216395 40.747844 72.047964 40.188224 73.910912 
L 92.25 89.55 
L 44.714174 63.180417 
z
" style="fill:#bfd598;stroke:#ffffff;stroke-linejoin:miter;"/>
   </g>
   <g id="patch_7">
    <path d="M 40.188224 73.910912 
C 39.481413 76.263853 38.934926 78.662006 38.552524 81.088873 
C 38.170122 83.51574 37.952683 85.965742 37.901704 88.422022 
L 92.25 89.55 
L 40.188224 73.910912 
z
" style="fill:#905426;stroke:#ffffff;stroke-linejoin:miter;"/>
   </g>
   <g id="patch_8">
    <path d="M 37.901704 88.422022 
C 37.752595 95.60642 39.029532 102.749591 41.65848 109.437374 
C 44.287427 116.125158 48.216574 122.225753 53.218109 127.385448 
C 58.219645 132.545143 64.195 136.662253 70.797724 139.498067 
C 77.400448 142.333882 84.500417 143.832514 91.685975 143.907074 
C 98.871534 143.981633 106.001071 142.63065 112.661218 139.932455 
C 119.321364 137.23426 125.380864 133.242027 130.488388 128.187227 
C 135.595912 123.132426 139.650802 117.114675 142.417958 110.482884 
C 145.185113 103.851092 146.609999 96.735956 146.61 89.550011 
L 92.25 89.55 
L 37.901704 88.422022 
z
" style="fill:#738fc1;stroke:#ffffff;stroke-linejoin:miter;"/>
   </g>
   <g id="patch_9">
    <path clip-path="url(#p15dbeaaa26)" d="M 92.25 122.166 
C 100.899864 122.166 109.196617 118.729372 115.312995 112.612995 
C 121.429372 106.496617 124.866 98.199864 124.866 89.55 
C 124.866 80.900136 121.429372 72.603383 115.312995 66.487005 
C 109.196617 60.370628 100.899864 56.934 92.25 56.934 
C 83.600136 56.934 75.303383 60.370628 69.187005 66.487005 
C 63.070628 72.603383 59.634 80.900136 59.634 89.55 
C 59.634 98.199864 63.070628 106.496617 69.187005 112.612995 
C 75.303383 118.729372 83.600136 122.166 92.25 122.166 
z
" style="fill:#ffffff;stroke:#ffffff;stroke-linejoin:miter;"/>
   </g>
  </g>
 </g>
 <defs>
  <clipPath id="p15dbeaaa26">
   <rect height="135.9" width="135.9" x="24.3" y="21.6"/>
  </clipPath>
 </defs>
</svg>
